<?xml version="1.0" encoding="UTF-8" standalone="no"?>
<!DOCTYPE svg PUBLIC "-//W3C//DTD SVG 1.1//EN"
 "http://www.w3.org/Graphics/SVG/1.1/DTD/svg11.dtd">
<!-- Generated by graphviz version 10.0.1 (20240210.2158)
 -->
<!-- Pages: 1 -->
<svg width="1491pt" height="1357pt"
 viewBox="0.00 0.00 1491.49 1357.00" xmlns="http://www.w3.org/2000/svg" xmlns:xlink="http://www.w3.org/1999/xlink">
<g id="graph0" class="graph" transform="scale(1 1) rotate(0) translate(4 1353)">
<polygon fill="white" stroke="none" points="-4,4 -4,-1353 1487.49,-1353 1487.49,4 -4,4"/>
<!-- doid
11,537 -->
<g id="node1" class="node">
<title>doid
11,537</title>
<ellipse fill="none" stroke="black" cx="37.83" cy="-307" rx="37.83" ry="28.99"/>
<text text-anchor="middle" x="37.83" y="-310.2" font-family="Times,serif" font-size="14.00">doid</text>
<text text-anchor="middle" x="37.83" y="-293.7" font-family="Times,serif" font-size="14.00">11,537</text>
</g>
<!-- umls
178,734 -->
<g id="node2" class="node">
<title>umls
178,734</title>
<ellipse fill="none" stroke="black" cx="185.01" cy="-705" rx="42.6" ry="28.99"/>
<text text-anchor="middle" x="185.01" y="-708.2" font-family="Times,serif" font-size="14.00">umls</text>
<text text-anchor="middle" x="185.01" y="-691.7" font-family="Times,serif" font-size="14.00">178,734</text>
</g>
<!-- doid
11,537&#45;&#45;umls
178,734 -->
<g id="edge1" class="edge">
<title>doid
11,537&#45;&#45;umls
178,734</title>
<path fill="none" stroke="black" d="M49.04,-334.99C75.66,-407.97 147,-603.53 173.72,-676.78"/>
<text text-anchor="middle" x="109.04" y="-532.2" font-family="Times,serif" font-size="14.00">7,639</text>
</g>
<!-- efo
2,080 -->
<g id="node3" class="node">
<title>efo
2,080</title>
<ellipse fill="none" stroke="black" cx="334.32" cy="-642" rx="33.06" ry="28.99"/>
<text text-anchor="middle" x="334.32" y="-645.2" font-family="Times,serif" font-size="14.00">efo</text>
<text text-anchor="middle" x="334.32" y="-628.7" font-family="Times,serif" font-size="14.00">2,080</text>
</g>
<!-- doid
11,537&#45;&#45;efo
2,080 -->
<g id="edge2" class="edge">
<title>doid
11,537&#45;&#45;efo
2,080</title>
<path fill="none" stroke="black" d="M59.77,-330.82C114.31,-392.86 260.15,-558.77 313.46,-619.4"/>
<text text-anchor="middle" x="185.01" y="-521.2" font-family="Times,serif" font-size="14.00">1,253</text>
</g>
<!-- mesh
3,125 -->
<g id="node4" class="node">
<title>mesh
3,125</title>
<ellipse fill="none" stroke="black" cx="480.83" cy="-1090" rx="33.06" ry="28.99"/>
<text text-anchor="middle" x="480.83" y="-1093.2" font-family="Times,serif" font-size="14.00">mesh</text>
<text text-anchor="middle" x="480.83" y="-1076.7" font-family="Times,serif" font-size="14.00">3,125</text>
</g>
<!-- doid
11,537&#45;&#45;mesh
3,125 -->
<g id="edge3" class="edge">
<title>doid
11,537&#45;&#45;mesh
3,125</title>
<path fill="none" stroke="black" d="M40.27,-336.37C46.81,-443.73 80.99,-821.71 245.62,-1072 291.54,-1141.82 348.33,-1128.73 429.77,-1110 436.79,-1108.39 444.12,-1105.93 450.93,-1103.29"/>
<text text-anchor="middle" x="260.99" y="-1108.2" font-family="Times,serif" font-size="14.00">726</text>
</g>
<!-- ncit
20,095 -->
<g id="node5" class="node">
<title>ncit
20,095</title>
<ellipse fill="none" stroke="black" cx="625.21" cy="-943" rx="37.83" ry="28.99"/>
<text text-anchor="middle" x="625.21" y="-946.2" font-family="Times,serif" font-size="14.00">ncit</text>
<text text-anchor="middle" x="625.21" y="-929.7" font-family="Times,serif" font-size="14.00">20,095</text>
</g>
<!-- doid
11,537&#45;&#45;ncit
20,095 -->
<g id="edge4" class="edge">
<title>doid
11,537&#45;&#45;ncit
20,095</title>
<path fill="none" stroke="black" d="M40.5,-336.21C49.59,-488.56 95.95,-1185 184.01,-1185 184.01,-1185 184.01,-1185 412.02,-1185 500.24,-1185 530.28,-1143.09 569.38,-1064 586.89,-1028.6 567.95,-1011.37 587.38,-977 590.13,-972.15 593.8,-967.6 597.77,-963.51"/>
<text text-anchor="middle" x="334.32" y="-1188.2" font-family="Times,serif" font-size="14.00">5,041</text>
</g>
<!-- mondo
24,201 -->
<g id="node6" class="node">
<title>mondo
24,201</title>
<ellipse fill="none" stroke="black" cx="774.91" cy="-693" rx="38.36" ry="28.99"/>
<text text-anchor="middle" x="774.91" y="-696.2" font-family="Times,serif" font-size="14.00">mondo</text>
<text text-anchor="middle" x="774.91" y="-679.7" font-family="Times,serif" font-size="14.00">24,201</text>
</g>
<!-- doid
11,537&#45;&#45;mondo
24,201 -->
<g id="edge5" class="edge">
<title>doid
11,537&#45;&#45;mondo
24,201</title>
<path fill="none" stroke="black" d="M75.53,-311.45C138.82,-320.08 271.59,-342.52 374.27,-389 536.68,-462.52 694.63,-612.57 751.61,-669.97"/>
<text text-anchor="middle" x="411.02" y="-419.2" font-family="Times,serif" font-size="14.00">11,316</text>
</g>
<!-- icdo
800 -->
<g id="node7" class="node">
<title>icdo
800</title>
<ellipse fill="none" stroke="black" cx="931.49" cy="-475" rx="27.75" ry="28.99"/>
<text text-anchor="middle" x="931.49" y="-478.2" font-family="Times,serif" font-size="14.00">icdo</text>
<text text-anchor="middle" x="931.49" y="-461.7" font-family="Times,serif" font-size="14.00">800</text>
</g>
<!-- doid
11,537&#45;&#45;icdo
800 -->
<g id="edge6" class="edge">
<title>doid
11,537&#45;&#45;icdo
800</title>
<path fill="none" stroke="black" d="M72.8,-295C133.55,-275.14 264.72,-239.57 374.27,-260 381.35,-261.32 797.23,-423.12 905.14,-465.13"/>
<text text-anchor="middle" x="480.83" y="-315.2" font-family="Times,serif" font-size="14.00">470</text>
</g>
<!-- icd10cm
21,556 -->
<g id="node8" class="node">
<title>icd10cm
21,556</title>
<ellipse fill="none" stroke="black" cx="931.49" cy="-1019" rx="44.72" ry="28.99"/>
<text text-anchor="middle" x="931.49" y="-1022.2" font-family="Times,serif" font-size="14.00">icd10cm</text>
<text text-anchor="middle" x="931.49" y="-1005.7" font-family="Times,serif" font-size="14.00">21,556</text>
</g>
<!-- doid
11,537&#45;&#45;icd10cm
21,556 -->
<g id="edge7" class="edge">
<title>doid
11,537&#45;&#45;icd10cm
21,556</title>
<path fill="none" stroke="black" d="M39.27,-336.32C41.11,-431.68 50.27,-741.33 93.66,-993 107.89,-1075.52 82.22,-1116.78 142.41,-1175 357.72,-1383.27 524.7,-1190.38 813.27,-1110 838.25,-1103.04 849.37,-1109.22 868.77,-1092 883.04,-1079.33 874.89,-1067.95 886.77,-1053 890.59,-1048.18 895.24,-1043.65 900.06,-1039.55"/>
<text text-anchor="middle" x="480.83" y="-1254.2" font-family="Times,serif" font-size="14.00">3,583</text>
</g>
<!-- icd9cm
9,236 -->
<g id="node9" class="node">
<title>icd9cm
9,236</title>
<ellipse fill="none" stroke="black" cx="334.32" cy="-179" rx="39.95" ry="28.99"/>
<text text-anchor="middle" x="334.32" y="-182.2" font-family="Times,serif" font-size="14.00">icd9cm</text>
<text text-anchor="middle" x="334.32" y="-165.7" font-family="Times,serif" font-size="14.00">9,236</text>
</g>
<!-- doid
11,537&#45;&#45;icd9cm
9,236 -->
<g id="edge8" class="edge">
<title>doid
11,537&#45;&#45;icd9cm
9,236</title>
<path fill="none" stroke="black" d="M50.66,-279.37C59.9,-260.78 74.41,-237.01 93.66,-222 152.17,-176.39 243.09,-173.11 294.49,-175.55"/>
<text text-anchor="middle" x="185.01" y="-197.2" font-family="Times,serif" font-size="14.00">2,237</text>
</g>
<!-- orphanet.ordo
14,473 -->
<g id="node10" class="node">
<title>orphanet.ordo
14,473</title>
<ellipse fill="none" stroke="black" cx="1107.84" cy="-921" rx="64.88" ry="28.99"/>
<text text-anchor="middle" x="1107.84" y="-924.2" font-family="Times,serif" font-size="14.00">orphanet.ordo</text>
<text text-anchor="middle" x="1107.84" y="-907.7" font-family="Times,serif" font-size="14.00">14,473</text>
</g>
<!-- doid
11,537&#45;&#45;orphanet.ordo
14,473 -->
<g id="edge9" class="edge">
<title>doid
11,537&#45;&#45;orphanet.ordo
14,473</title>
<path fill="none" stroke="black" d="M39.79,-336.4C44.01,-460.21 62.1,-939.48 93.66,-1087 116.38,-1193.18 75.43,-1314 184.01,-1314 184.01,-1314 184.01,-1314 481.83,-1314 723.8,-1314 788.58,-1238.78 976.21,-1086 1004.49,-1062.97 1009,-1052.79 1024.96,-1020 1038.09,-993.05 1024.21,-978.39 1042.96,-955 1047.44,-949.41 1053.1,-944.63 1059.18,-940.57"/>
<text text-anchor="middle" x="550.63" y="-1315.2" font-family="Times,serif" font-size="14.00">2,426</text>
</g>
<!-- gard
12,292 -->
<g id="node11" class="node">
<title>gard
12,292</title>
<ellipse fill="none" stroke="black" cx="931.49" cy="-399" rx="37.83" ry="28.99"/>
<text text-anchor="middle" x="931.49" y="-402.2" font-family="Times,serif" font-size="14.00">gard</text>
<text text-anchor="middle" x="931.49" y="-385.7" font-family="Times,serif" font-size="14.00">12,292</text>
</g>
<!-- doid
11,537&#45;&#45;gard
12,292 -->
<g id="edge10" class="edge">
<title>doid
11,537&#45;&#45;gard
12,292</title>
<path fill="none" stroke="black" d="M47.72,-278.84C56.35,-255.18 71.44,-221.68 93.66,-199 110.85,-181.46 119.33,-181.39 142.41,-173 297.83,-116.49 351.42,-120.6 513.88,-151.5 607.44,-169.3 634.3,-170.58 718.54,-215 766.04,-240.05 772.52,-255.02 813.27,-290 846.79,-318.78 883.89,-353.86 907.19,-376.31"/>
<text text-anchor="middle" x="480.83" y="-155.2" font-family="Times,serif" font-size="14.00">2,110</text>
</g>
<!-- omim
20,268 -->
<g id="node12" class="node">
<title>omim
20,268</title>
<ellipse fill="none" stroke="black" cx="1292" cy="-703" rx="37.83" ry="28.99"/>
<text text-anchor="middle" x="1292" y="-706.2" font-family="Times,serif" font-size="14.00">omim</text>
<text text-anchor="middle" x="1292" y="-689.7" font-family="Times,serif" font-size="14.00">20,268</text>
</g>
<!-- doid
11,537&#45;&#45;omim
20,268 -->
<g id="edge11" class="edge">
<title>doid
11,537&#45;&#45;omim
20,268</title>
<path fill="none" stroke="black" d="M45.59,-278.21C53.41,-249.63 68.55,-205.75 93.66,-175 110.21,-154.73 117.84,-150.99 142.41,-142 212.48,-116.37 754.74,-66.72 813.27,-113 840.49,-134.53 810.78,-160.98 831.27,-189 935.74,-331.89 1058.98,-258.37 1172.72,-394 1245.06,-480.27 1275.97,-615.57 1286.48,-674.25"/>
<text text-anchor="middle" x="625.21" y="-99.2" font-family="Times,serif" font-size="14.00">5,938</text>
</g>
<!-- omim.ps
576 -->
<g id="node13" class="node">
<title>omim.ps
576</title>
<ellipse fill="none" stroke="black" cx="1292" cy="-447" rx="45.79" ry="28.99"/>
<text text-anchor="middle" x="1292" y="-450.2" font-family="Times,serif" font-size="14.00">omim.ps</text>
<text text-anchor="middle" x="1292" y="-433.7" font-family="Times,serif" font-size="14.00">576</text>
</g>
<!-- doid
11,537&#45;&#45;omim.ps
576 -->
<g id="edge12" class="edge">
<title>doid
11,537&#45;&#45;omim.ps
576</title>
<path fill="none" stroke="black" d="M41.81,-278.08C48.2,-221.61 65.02,-99.58 93.66,-70 122.56,-40.15 142.46,-46 184.01,-46 184.01,-46 184.01,-46 551.63,-46 707.8,-46 1122.77,-120.81 1228.22,-236 1275.45,-287.59 1287.24,-373.24 1290.12,-417.9"/>
<text text-anchor="middle" x="625.21" y="-57.2" font-family="Times,serif" font-size="14.00">37</text>
</g>
<!-- orphanet
15,348 -->
<g id="node14" class="node">
<title>orphanet
15,348</title>
<ellipse fill="none" stroke="black" cx="1438.76" cy="-824" rx="44.72" ry="28.99"/>
<text text-anchor="middle" x="1438.76" y="-827.2" font-family="Times,serif" font-size="14.00">orphanet</text>
<text text-anchor="middle" x="1438.76" y="-810.7" font-family="Times,serif" font-size="14.00">15,348</text>
</g>
<!-- doid
11,537&#45;&#45;orphanet
15,348 -->
<g id="edge13" class="edge">
<title>doid
11,537&#45;&#45;orphanet
15,348</title>
<path fill="none" stroke="black" d="M41.76,-278.03C48.32,-217.94 65.86,-82.3 93.66,-46 121.06,-10.22 138.95,0 184.01,0 184.01,0 184.01,0 1293,0 1366.11,0 1353.76,-72.37 1376.04,-142 1415.9,-266.55 1432.83,-680.71 1436.81,-794.72"/>
<text text-anchor="middle" x="699.79" y="-3.2" font-family="Times,serif" font-size="14.00">358</text>
</g>
<!-- umls
178,734&#45;&#45;efo
2,080 -->
<g id="edge14" class="edge">
<title>umls
178,734&#45;&#45;efo
2,080</title>
<path fill="none" stroke="black" d="M221.67,-689.75C247.05,-678.9 280.7,-664.5 304.41,-654.36"/>
<text text-anchor="middle" x="260.99" y="-682.2" font-family="Times,serif" font-size="14.00">1,538</text>
</g>
<!-- umls
178,734&#45;&#45;mesh
3,125 -->
<g id="edge15" class="edge">
<title>umls
178,734&#45;&#45;mesh
3,125</title>
<path fill="none" stroke="black" d="M186.96,-734.27C189.98,-808.8 201.97,-1002.96 245.62,-1047 299.31,-1101.18 397.26,-1099.6 447.79,-1094.49"/>
<text text-anchor="middle" x="334.32" y="-1098.2" font-family="Times,serif" font-size="14.00">2,201</text>
</g>
<!-- umls
178,734&#45;&#45;ncit
20,095 -->
<g id="edge16" class="edge">
<title>umls
178,734&#45;&#45;ncit
20,095</title>
<path fill="none" stroke="black" d="M190.27,-733.98C196.65,-767.7 211.79,-823.08 245.62,-857 339.02,-950.67 511.71,-951.27 587.23,-946.44"/>
<text text-anchor="middle" x="411.02" y="-942.2" font-family="Times,serif" font-size="14.00">18,988</text>
</g>
<!-- umls
178,734&#45;&#45;mondo
24,201 -->
<g id="edge17" class="edge">
<title>umls
178,734&#45;&#45;mondo
24,201</title>
<path fill="none" stroke="black" d="M227.82,-704.15C337.34,-701.91 631.35,-695.91 736.16,-693.77"/>
<text text-anchor="middle" x="480.83" y="-702.2" font-family="Times,serif" font-size="14.00">16,239</text>
</g>
<!-- umls
178,734&#45;&#45;icd10cm
21,556 -->
<g id="edge18" class="edge">
<title>umls
178,734&#45;&#45;icd10cm
21,556</title>
<path fill="none" stroke="black" d="M190.77,-733.92C197.92,-770.99 214.09,-836.06 245.62,-883 261.56,-906.74 269.95,-910.11 294.37,-925 467.45,-1030.55 533.94,-1029.82 736.54,-1037 795.27,-1039.08 810.65,-1046.74 868.77,-1038 876.31,-1036.87 884.19,-1034.99 891.72,-1032.86"/>
<text text-anchor="middle" x="550.63" y="-1031.2" font-family="Times,serif" font-size="14.00">24,995</text>
</g>
<!-- umls
178,734&#45;&#45;icd9cm
9,236 -->
<g id="edge19" class="edge">
<title>umls
178,734&#45;&#45;icd9cm
9,236</title>
<path fill="none" stroke="black" d="M189.63,-675.77C202.13,-575.02 242.84,-248.21 245.62,-243.5 258.28,-222.01 281.21,-205.53 300.44,-194.61"/>
<text text-anchor="middle" x="260.99" y="-246.2" font-family="Times,serif" font-size="14.00">9,109</text>
</g>
<!-- umls
178,734&#45;&#45;orphanet.ordo
14,473 -->
<g id="edge20" class="edge">
<title>umls
178,734&#45;&#45;orphanet.ordo
14,473</title>
<path fill="none" stroke="black" d="M216.6,-725.06C263.85,-754.72 358.48,-808.92 447.77,-829 508.31,-842.61 525.33,-828.13 587.38,-827.5 621.01,-827.16 629.62,-823.85 663.04,-827.5 764.28,-838.57 787.11,-856.02 886.77,-877 941.29,-888.48 1003.57,-900.86 1047.93,-909.56"/>
<text text-anchor="middle" x="625.21" y="-830.2" font-family="Times,serif" font-size="14.00">8,068</text>
</g>
<!-- umls
178,734&#45;&#45;omim
20,268 -->
<g id="edge21" class="edge">
<title>umls
178,734&#45;&#45;omim
20,268</title>
<path fill="none" stroke="black" d="M198.3,-677.39C229.01,-612.49 316.25,-451.91 447.77,-401 557.6,-358.49 868.17,-314.13 976.21,-361 1128.35,-427 1239.08,-607.42 1276.85,-676.03"/>
<text text-anchor="middle" x="699.79" y="-353.2" font-family="Times,serif" font-size="14.00">18,057</text>
</g>
<!-- umls
178,734&#45;&#45;omim.ps
576 -->
<g id="edge22" class="edge">
<title>umls
178,734&#45;&#45;omim.ps
576</title>
<path fill="none" stroke="black" d="M192.45,-676.1C205.07,-624.38 236.94,-514.36 294.37,-439 454.23,-229.23 585.27,-228 849.02,-228 849.02,-228 849.02,-228 1108.84,-228 1164.94,-228 1188.39,-229.5 1228.22,-269 1269.17,-309.61 1283.49,-378.52 1288.44,-417.61"/>
<text text-anchor="middle" x="699.79" y="-233.2" font-family="Times,serif" font-size="14.00">33</text>
</g>
<!-- umls
178,734&#45;&#45;orphanet
15,348 -->
<g id="edge24" class="edge">
<title>umls
178,734&#45;&#45;orphanet
15,348</title>
<path fill="none" stroke="black" d="M193.39,-676.25C201.84,-643.18 216.01,-587.24 227.62,-539 248.95,-450.35 233.81,-413.17 294.37,-345 346.42,-286.4 376.53,-290.68 447.77,-258 683.71,-149.79 749.02,-95 1008.59,-95 1008.59,-95 1008.59,-95 1293,-95 1438.17,-95 1439.98,-658.14 1438.3,-794.52"/>
<text text-anchor="middle" x="774.91" y="-133.2" font-family="Times,serif" font-size="14.00">8,356</text>
</g>
<!-- icd10
2,345 -->
<g id="node15" class="node">
<title>icd10
2,345</title>
<ellipse fill="none" stroke="black" cx="1292" cy="-1304" rx="33.06" ry="28.99"/>
<text text-anchor="middle" x="1292" y="-1307.2" font-family="Times,serif" font-size="14.00">icd10</text>
<text text-anchor="middle" x="1292" y="-1290.7" font-family="Times,serif" font-size="14.00">2,345</text>
</g>
<!-- umls
178,734&#45;&#45;icd10
2,345 -->
<g id="edge23" class="edge">
<title>umls
178,734&#45;&#45;icd10
2,345</title>
<path fill="none" stroke="black" d="M186.13,-734.3C187.27,-804.21 195.27,-985.45 245.62,-1126 259.66,-1165.2 262.17,-1179.6 294.37,-1206 350.49,-1252.02 378.05,-1241.82 447.77,-1262 491.59,-1274.68 803.4,-1349 849.02,-1349 849.02,-1349 849.02,-1349 1108.84,-1349 1164.06,-1349 1226.01,-1329.27 1261.58,-1315.94"/>
<text text-anchor="middle" x="699.79" y="-1328.2" font-family="Times,serif" font-size="14.00">5,768</text>
</g>
<!-- efo
2,080&#45;&#45;mesh
3,125 -->
<g id="edge25" class="edge">
<title>efo
2,080&#45;&#45;mesh
3,125</title>
<path fill="none" stroke="black" d="M341.81,-670.7C350.83,-708.51 368.74,-776.71 392.27,-832 405.56,-863.22 417.04,-867.05 429.77,-898.5 452.27,-954.08 467.35,-1022.87 474.68,-1061.03"/>
<text text-anchor="middle" x="411.02" y="-901.2" font-family="Times,serif" font-size="14.00">363</text>
</g>
<!-- efo
2,080&#45;&#45;ncit
20,095 -->
<g id="edge26" class="edge">
<title>efo
2,080&#45;&#45;ncit
20,095</title>
<path fill="none" stroke="black" d="M354.09,-665.39C364.98,-678.7 379.1,-695.55 392.27,-710 415.87,-735.9 421.93,-742.33 447.77,-766 499.59,-813.45 525.08,-812.47 569.38,-867 580.17,-880.27 577.68,-886.92 587.38,-901 591.79,-907.39 597.03,-913.89 602.17,-919.8"/>
<text text-anchor="middle" x="480.83" y="-818.2" font-family="Times,serif" font-size="14.00">1,222</text>
</g>
<!-- efo
2,080&#45;&#45;mondo
24,201 -->
<g id="edge27" class="edge">
<title>efo
2,080&#45;&#45;mondo
24,201</title>
<path fill="none" stroke="black" d="M367.75,-644.37C433.93,-649.43 589.24,-662.45 718.54,-682 724.75,-682.94 731.31,-684.09 737.66,-685.3"/>
<text text-anchor="middle" x="550.63" y="-665.2" font-family="Times,serif" font-size="14.00">1,691</text>
</g>
<!-- efo
2,080&#45;&#45;icdo
800 -->
<g id="edge28" class="edge">
<title>efo
2,080&#45;&#45;icdo
800</title>
<path fill="none" stroke="black" d="M340.93,-613.14C347.91,-585.62 362.73,-545.44 392.27,-525 476.2,-466.94 806.02,-471.44 903.33,-474.11"/>
<text text-anchor="middle" x="625.21" y="-483.2" font-family="Times,serif" font-size="14.00">72</text>
</g>
<!-- efo
2,080&#45;&#45;icd10cm
21,556 -->
<g id="edge29" class="edge">
<title>efo
2,080&#45;&#45;icd10cm
21,556</title>
<path fill="none" stroke="black" d="M349.66,-667.84C361.07,-688.3 377.52,-717.58 392.27,-743 416.43,-784.63 418.55,-797.75 447.77,-836 461.35,-853.77 567.32,-971.12 587.38,-981 685.92,-1029.49 819.2,-1028.03 886.99,-1023.29"/>
<text text-anchor="middle" x="625.21" y="-1010.2" font-family="Times,serif" font-size="14.00">309</text>
</g>
<!-- efo
2,080&#45;&#45;orphanet.ordo
14,473 -->
<g id="edge30" class="edge">
<title>efo
2,080&#45;&#45;orphanet.ordo
14,473</title>
<path fill="none" stroke="black" d="M365.65,-652.5C374.23,-655.36 383.59,-658.39 392.27,-661 536.05,-704.22 582.97,-684.01 718.54,-748.5 774.37,-775.06 777.06,-800.27 831.27,-830 854.53,-842.76 861.6,-843.58 886.77,-852 947.18,-872.21 964.4,-870.26 1024.96,-890 1035.95,-893.58 1047.63,-897.77 1058.62,-901.88"/>
<text text-anchor="middle" x="699.79" y="-751.2" font-family="Times,serif" font-size="14.00">184</text>
</g>
<!-- efo
2,080&#45;&#45;gard
12,292 -->
<g id="edge31" class="edge">
<title>efo
2,080&#45;&#45;gard
12,292</title>
<path fill="none" stroke="black" d="M339.77,-613.17C346.09,-581.85 360.62,-532.35 392.27,-503 465.89,-434.72 783.78,-408.35 893.27,-401.18"/>
<text text-anchor="middle" x="625.21" y="-438.2" font-family="Times,serif" font-size="14.00">304</text>
</g>
<!-- efo
2,080&#45;&#45;omim
20,268 -->
<g id="edge32" class="edge">
<title>efo
2,080&#45;&#45;omim
20,268</title>
<path fill="none" stroke="black" d="M363.89,-628.52C437.25,-595.37 638.75,-513.45 813.27,-526.5 886.3,-531.96 906.24,-529.39 976.21,-551 1086.97,-585.2 1207.69,-652.98 1261.85,-685.19"/>
<text text-anchor="middle" x="774.91" y="-529.2" font-family="Times,serif" font-size="14.00">327</text>
</g>
<!-- efo
2,080&#45;&#45;omim.ps
576 -->
<g id="edge34" class="edge">
<title>efo
2,080&#45;&#45;omim.ps
576</title>
<path fill="none" stroke="black" d="M338.38,-612.93C343.6,-576.66 357.29,-514.61 392.27,-475 403.51,-462.27 523.18,-381.66 681.04,-335 798.05,-300.42 1127.19,-221.6 1228.22,-290 1270.51,-318.64 1284.32,-380.88 1288.82,-417.81"/>
<text text-anchor="middle" x="774.91" y="-322.2" font-family="Times,serif" font-size="14.00">26</text>
</g>
<!-- efo
2,080&#45;&#45;orphanet
15,348 -->
<g id="edge36" class="edge">
<title>efo
2,080&#45;&#45;orphanet
15,348</title>
<path fill="none" stroke="black" d="M338.21,-612.75C343.42,-571.84 357.28,-496.55 392.27,-443 429.42,-386.14 456.75,-318.26 681.04,-218 784.04,-171.96 817.67,-171 930.49,-171 930.49,-171 930.49,-171 1293,-171 1422.62,-171 1436.26,-667.61 1437.63,-794.67"/>
<text text-anchor="middle" x="850.02" y="-176.2" font-family="Times,serif" font-size="14.00">140</text>
</g>
<!-- efo
2,080&#45;&#45;icd10
2,345 -->
<g id="edge35" class="edge">
<title>efo
2,080&#45;&#45;icd10
2,345</title>
<path fill="none" stroke="black" d="M338.75,-671.09C350.27,-764.58 390.12,-1055.45 447.77,-1128 568.92,-1280.46 654.28,-1304 849.02,-1304 849.02,-1304 849.02,-1304 1108.84,-1304 1161.34,-1304 1222.35,-1304 1258.76,-1304"/>
<text text-anchor="middle" x="774.91" y="-1306.2" font-family="Times,serif" font-size="14.00">503</text>
</g>
<!-- icd9
3,984 -->
<g id="node16" class="node">
<title>icd9
3,984</title>
<ellipse fill="none" stroke="black" cx="931.49" cy="-589" rx="33.06" ry="28.99"/>
<text text-anchor="middle" x="931.49" y="-592.2" font-family="Times,serif" font-size="14.00">icd9</text>
<text text-anchor="middle" x="931.49" y="-575.7" font-family="Times,serif" font-size="14.00">3,984</text>
</g>
<!-- efo
2,080&#45;&#45;icd9
3,984 -->
<g id="edge33" class="edge">
<title>efo
2,080&#45;&#45;icd9
3,984</title>
<path fill="none" stroke="black" d="M366.69,-635.04C460.65,-614.32 738.92,-553.95 831.27,-545 847.85,-543.39 852.89,-539.92 868.77,-545 883.31,-549.65 897.34,-559.12 908.35,-568.09"/>
<text text-anchor="middle" x="625.21" y="-590.2" font-family="Times,serif" font-size="14.00">1,167</text>
</g>
<!-- mesh
3,125&#45;&#45;ncit
20,095 -->
<g id="edge37" class="edge">
<title>mesh
3,125&#45;&#45;ncit
20,095</title>
<path fill="none" stroke="black" d="M493.74,-1062.86C502.51,-1044.92 515.71,-1021.64 531.88,-1004.5 549.6,-985.73 574.06,-969.76 593.36,-958.8"/>
<text text-anchor="middle" x="550.63" y="-1007.2" font-family="Times,serif" font-size="14.00">370</text>
</g>
<!-- mesh
3,125&#45;&#45;mondo
24,201 -->
<g id="edge38" class="edge">
<title>mesh
3,125&#45;&#45;mondo
24,201</title>
<path fill="none" stroke="black" d="M491.37,-1062.33C500.45,-1037.3 515.16,-999.76 531.88,-969 552.64,-930.82 554.98,-917.46 587.38,-888.5 615.82,-863.08 640.99,-879.12 663.04,-848 693.22,-805.44 648.91,-773.1 681.04,-732 694.72,-714.51 717.68,-704.77 737.35,-699.4"/>
<text text-anchor="middle" x="625.21" y="-891.2" font-family="Times,serif" font-size="14.00">878</text>
</g>
<!-- mesh
3,125&#45;&#45;icd10cm
21,556 -->
<g id="edge39" class="edge">
<title>mesh
3,125&#45;&#45;icd10cm
21,556</title>
<path fill="none" stroke="black" d="M513.64,-1095.45C581.72,-1105.66 745.35,-1122.49 868.77,-1073 884.1,-1066.85 898.21,-1055.19 909.06,-1044.27"/>
<text text-anchor="middle" x="699.79" y="-1109.2" font-family="Times,serif" font-size="14.00">181</text>
</g>
<!-- mesh
3,125&#45;&#45;orphanet.ordo
14,473 -->
<g id="edge40" class="edge">
<title>mesh
3,125&#45;&#45;orphanet.ordo
14,473</title>
<path fill="none" stroke="black" d="M509.21,-1105.29C516.39,-1108.69 524.26,-1111.9 531.88,-1114 555.76,-1120.57 562.71,-1116.84 587.38,-1119 645.56,-1124.11 660.37,-1132.18 718.54,-1127 761.15,-1123.21 771.78,-1120.4 813.27,-1110 843.56,-1102.41 966.95,-1064.09 976.21,-1057 977.56,-1055.97 1041.71,-956.14 1042.96,-955 1048.44,-950 1054.78,-945.5 1061.3,-941.53"/>
<text text-anchor="middle" x="774.91" y="-1128.2" font-family="Times,serif" font-size="14.00">120</text>
</g>
<!-- mesh
3,125&#45;&#45;orphanet
15,348 -->
<g id="edge41" class="edge">
<title>mesh
3,125&#45;&#45;orphanet
15,348</title>
<path fill="none" stroke="black" d="M502.15,-1112.64C537.93,-1149.89 616.24,-1220 698.79,-1220 698.79,-1220 698.79,-1220 1293,-1220 1371.14,-1220 1419.63,-944.57 1433.58,-853.12"/>
<text text-anchor="middle" x="931.49" y="-1223.2" font-family="Times,serif" font-size="14.00">112</text>
</g>
<!-- ncit
20,095&#45;&#45;mondo
24,201 -->
<g id="edge42" class="edge">
<title>ncit
20,095&#45;&#45;mondo
24,201</title>
<path fill="none" stroke="black" d="M649.8,-920.68C654.88,-914.74 659.72,-908.01 663.04,-901 683.96,-856.82 653.94,-833.18 681.04,-792.5 691.95,-776.13 704.16,-782.41 718.54,-769 734.06,-754.53 748.1,-735.15 758.15,-719.59"/>
<text text-anchor="middle" x="699.79" y="-795.2" font-family="Times,serif" font-size="14.00">7,203</text>
</g>
<!-- ncit
20,095&#45;&#45;icd10cm
21,556 -->
<g id="edge43" class="edge">
<title>ncit
20,095&#45;&#45;icd10cm
21,556</title>
<path fill="none" stroke="black" d="M662.94,-938.06C701.29,-934.19 762.79,-931.64 813.27,-946.5 847.01,-956.43 880.65,-978.86 903.19,-996.16"/>
<text text-anchor="middle" x="774.91" y="-949.2" font-family="Times,serif" font-size="14.00">439</text>
</g>
<!-- ncit
20,095&#45;&#45;orphanet.ordo
14,473 -->
<g id="edge44" class="edge">
<title>ncit
20,095&#45;&#45;orphanet.ordo
14,473</title>
<path fill="none" stroke="black" d="M661.73,-934.19C668.13,-932.9 674.76,-931.75 681.04,-931 749.05,-922.84 941.6,-921.25 1042.83,-921"/>
<text text-anchor="middle" x="850.02" y="-926.2" font-family="Times,serif" font-size="14.00">416</text>
</g>
<!-- ncit
20,095&#45;&#45;omim
20,268 -->
<g id="edge45" class="edge">
<title>ncit
20,095&#45;&#45;omim
20,268</title>
<path fill="none" stroke="black" d="M658.33,-928.65C698.53,-910.81 769.6,-879.72 831.27,-855 877.87,-836.32 995.33,-791.88 1042.96,-776 1118.13,-750.95 1207.55,-725.74 1255.85,-712.5"/>
<text text-anchor="middle" x="931.49" y="-836.2" font-family="Times,serif" font-size="14.00">120</text>
</g>
<!-- ncit
20,095&#45;&#45;orphanet
15,348 -->
<g id="edge46" class="edge">
<title>ncit
20,095&#45;&#45;orphanet
15,348</title>
<path fill="none" stroke="black" d="M655.83,-960.33C702.9,-986.85 798.5,-1036.56 886.77,-1057 1034.72,-1091.27 1079.23,-1099.4 1228.22,-1070 1279.87,-1059.81 1297.4,-1058.77 1337.79,-1025 1392.35,-979.37 1419.93,-896.65 1431.27,-852.91"/>
<text text-anchor="middle" x="1009.59" y="-1087.2" font-family="Times,serif" font-size="14.00">411</text>
</g>
<!-- mondo
24,201&#45;&#45;icdo
800 -->
<g id="edge47" class="edge">
<title>mondo
24,201&#45;&#45;icdo
800</title>
<path fill="none" stroke="black" d="M788,-665.46C797.58,-646.05 812.46,-620.41 831.27,-602.5 845.02,-589.4 855.18,-595.28 868.77,-582 869.19,-581.59 898.2,-531.17 916.3,-499.7"/>
<text text-anchor="middle" x="850.02" y="-605.2" font-family="Times,serif" font-size="14.00">732</text>
</g>
<!-- mondo
24,201&#45;&#45;icd10cm
21,556 -->
<g id="edge48" class="edge">
<title>mondo
24,201&#45;&#45;icd10cm
21,556</title>
<path fill="none" stroke="black" d="M791.56,-719.36C810.9,-752.43 844.23,-811.16 868.77,-863.5 889.11,-906.9 908.87,-958.95 920.35,-990.47"/>
<text text-anchor="middle" x="850.02" y="-866.2" font-family="Times,serif" font-size="14.00">1,656</text>
</g>
<!-- mondo
24,201&#45;&#45;orphanet.ordo
14,473 -->
<g id="edge49" class="edge">
<title>mondo
24,201&#45;&#45;orphanet.ordo
14,473</title>
<path fill="none" stroke="black" d="M798.8,-716.21C808.21,-724.68 819.61,-733.72 831.27,-740 890.36,-771.86 920.46,-745.1 976.21,-782.5 1015.67,-808.97 1009.99,-831.8 1042.96,-866 1052.82,-876.22 1064.37,-886.59 1074.93,-895.53"/>
<text text-anchor="middle" x="931.49" y="-785.2" font-family="Times,serif" font-size="14.00">9,559</text>
</g>
<!-- mondo
24,201&#45;&#45;gard
12,292 -->
<g id="edge50" class="edge">
<title>mondo
24,201&#45;&#45;gard
12,292</title>
<path fill="none" stroke="black" d="M783.63,-664.3C798.01,-614.49 832.44,-510.37 886.77,-437 891.55,-430.53 897.62,-424.4 903.7,-419.02"/>
<text text-anchor="middle" x="850.02" y="-532.2" font-family="Times,serif" font-size="14.00">11,839</text>
</g>
<!-- mondo
24,201&#45;&#45;omim
20,268 -->
<g id="edge51" class="edge">
<title>mondo
24,201&#45;&#45;omim
20,268</title>
<path fill="none" stroke="black" d="M813.36,-693.73C908.63,-695.58 1159.3,-700.44 1254.03,-702.28"/>
<text text-anchor="middle" x="1009.59" y="-700.2" font-family="Times,serif" font-size="14.00">9,872</text>
</g>
<!-- mondo
24,201&#45;&#45;omim.ps
576 -->
<g id="edge53" class="edge">
<title>mondo
24,201&#45;&#45;omim.ps
576</title>
<path fill="none" stroke="black" d="M811.45,-683.63C852.13,-672.38 920.35,-651.87 976.21,-627 1084.63,-578.73 1204.06,-503.96 1259.5,-467.88"/>
<text text-anchor="middle" x="1009.59" y="-620.2" font-family="Times,serif" font-size="14.00">580</text>
</g>
<!-- mondo
24,201&#45;&#45;orphanet
15,348 -->
<g id="edge54" class="edge">
<title>mondo
24,201&#45;&#45;orphanet
15,348</title>
<path fill="none" stroke="black" d="M811.11,-703.52C907.77,-732.38 1171.4,-810.84 1190.72,-814 1261.04,-825.5 1344.04,-826.29 1393.71,-825.43"/>
<text text-anchor="middle" x="1107.84" y="-812.2" font-family="Times,serif" font-size="14.00">2,048</text>
</g>
<!-- mondo
24,201&#45;&#45;icd9
3,984 -->
<g id="edge52" class="edge">
<title>mondo
24,201&#45;&#45;icd9
3,984</title>
<path fill="none" stroke="black" d="M799.89,-670.67C809.34,-662.34 820.5,-653.08 831.27,-645.5 843.91,-636.6 877.99,-617.57 902.69,-604.05"/>
<text text-anchor="middle" x="850.02" y="-648.2" font-family="Times,serif" font-size="14.00">4,342</text>
</g>
<!-- icd10cm
21,556&#45;&#45;orphanet.ordo
14,473 -->
<g id="edge55" class="edge">
<title>icd10cm
21,556&#45;&#45;orphanet.ordo
14,473</title>
<path fill="none" stroke="black" d="M955.73,-994.32C966.65,-983.77 980.3,-971.96 994.21,-963.5 1012.25,-952.53 1033.58,-943.6 1052.81,-936.81"/>
<text text-anchor="middle" x="1009.59" y="-966.2" font-family="Times,serif" font-size="14.00">151</text>
</g>
<!-- icd10cm
21,556&#45;&#45;omim
20,268 -->
<g id="edge56" class="edge">
<title>icd10cm
21,556&#45;&#45;omim
20,268</title>
<path fill="none" stroke="black" d="M976.42,-1019.96C1029.52,-1018.73 1118.49,-1008.63 1172.72,-959 1190.76,-942.49 1181.31,-929.57 1190.72,-907 1217.83,-841.98 1255.89,-768.45 1276.45,-729.89"/>
<text text-anchor="middle" x="1107.84" y="-1016.2" font-family="Times,serif" font-size="14.00">38</text>
</g>
<!-- icd10cm
21,556&#45;&#45;orphanet
15,348 -->
<g id="edge57" class="edge">
<title>icd10cm
21,556&#45;&#45;orphanet
15,348</title>
<path fill="none" stroke="black" d="M972.97,-1030.57C1030.67,-1045.17 1139.41,-1065.71 1228.22,-1042 1305.58,-1021.34 1329.01,-1003.8 1376.04,-939 1396.27,-911.13 1414.24,-875.81 1425.5,-851.72"/>
<text text-anchor="middle" x="1209.47" y="-1052.2" font-family="Times,serif" font-size="14.00">140</text>
</g>
<!-- orphanet.ordo
14,473&#45;&#45;omim
20,268 -->
<g id="edge58" class="edge">
<title>orphanet.ordo
14,473&#45;&#45;omim
20,268</title>
<path fill="none" stroke="black" d="M1144.55,-896.88C1154.98,-888.24 1165.51,-877.72 1172.72,-866 1190.12,-837.72 1171.23,-820.38 1190.72,-793.5 1202.26,-777.57 1213.03,-782.5 1228.22,-770 1243.72,-757.23 1259.18,-740.8 1270.87,-727.41"/>
<text text-anchor="middle" x="1209.47" y="-796.2" font-family="Times,serif" font-size="14.00">11,166</text>
</g>
<!-- orphanet.ordo
14,473&#45;&#45;omim.ps
576 -->
<g id="edge59" class="edge">
<title>orphanet.ordo
14,473&#45;&#45;omim.ps
576</title>
<path fill="none" stroke="black" d="M1145.52,-896.98C1155.88,-888.41 1166.12,-877.9 1172.72,-866 1198.14,-820.19 1176.59,-799.95 1190.72,-749.5 1202.46,-707.57 1213.68,-700.04 1228.22,-659 1251.09,-594.41 1272.59,-516.82 1283.51,-475.77"/>
<text text-anchor="middle" x="1209.47" y="-752.2" font-family="Times,serif" font-size="14.00">26</text>
</g>
<!-- orphanet.ordo
14,473&#45;&#45;orphanet
15,348 -->
<g id="edge61" class="edge">
<title>orphanet.ordo
14,473&#45;&#45;orphanet
15,348</title>
<path fill="none" stroke="black" d="M1157.77,-940.01C1205.88,-955.55 1280.27,-970.94 1337.79,-944 1378.18,-925.08 1407.94,-880.92 1424.06,-851.78"/>
<text text-anchor="middle" x="1292" y="-961.2" font-family="Times,serif" font-size="14.00">2,159</text>
</g>
<!-- orphanet.ordo
14,473&#45;&#45;icd10
2,345 -->
<g id="edge60" class="edge">
<title>orphanet.ordo
14,473&#45;&#45;icd10
2,345</title>
<path fill="none" stroke="black" d="M1141.86,-946.08C1173.14,-970.48 1216.95,-1006.56 1228.22,-1025.5 1276.5,-1106.64 1287.69,-1221.24 1290.26,-1274.57"/>
<text text-anchor="middle" x="1209.47" y="-1028.2" font-family="Times,serif" font-size="14.00">7,623</text>
</g>
<!-- icd11
69,477 -->
<g id="node17" class="node">
<title>icd11
69,477</title>
<ellipse fill="none" stroke="black" cx="1292" cy="-906" rx="37.83" ry="28.99"/>
<text text-anchor="middle" x="1292" y="-909.2" font-family="Times,serif" font-size="14.00">icd11</text>
<text text-anchor="middle" x="1292" y="-892.7" font-family="Times,serif" font-size="14.00">69,477</text>
</g>
<!-- orphanet.ordo
14,473&#45;&#45;icd11
69,477 -->
<g id="edge62" class="edge">
<title>orphanet.ordo
14,473&#45;&#45;icd11
69,477</title>
<path fill="none" stroke="black" d="M1172.04,-915.8C1199.38,-913.55 1230.42,-910.99 1253.94,-909.05"/>
<text text-anchor="middle" x="1209.47" y="-916.2" font-family="Times,serif" font-size="14.00">5,484</text>
</g>
<!-- omim
20,268&#45;&#45;orphanet
15,348 -->
<g id="edge63" class="edge">
<title>omim
20,268&#45;&#45;orphanet
15,348</title>
<path fill="none" stroke="black" d="M1318.22,-724.08C1343.98,-745.61 1383.86,-778.94 1410.38,-801.11"/>
<text text-anchor="middle" x="1365.91" y="-773.2" font-family="Times,serif" font-size="14.00">136</text>
</g>
<!-- omim.ps
576&#45;&#45;orphanet
15,348 -->
<g id="edge64" class="edge">
<title>omim.ps
576&#45;&#45;orphanet
15,348</title>
<path fill="none" stroke="black" d="M1303.88,-475.34C1330.74,-545.29 1399.97,-725.57 1426.86,-795.59"/>
<text text-anchor="middle" x="1365.91" y="-661.2" font-family="Times,serif" font-size="14.00">23</text>
</g>
</g>
</svg>
