<?xml version="1.0" encoding="UTF-8" standalone="no"?>
<!DOCTYPE svg PUBLIC "-//W3C//DTD SVG 1.1//EN"
 "http://www.w3.org/Graphics/SVG/1.1/DTD/svg11.dtd">
<!-- Generated by graphviz version 10.0.1 (20240210.2158)
 -->
<!-- Pages: 1 -->
<svg width="1421pt" height="1362pt"
 viewBox="0.00 0.00 1421.16 1361.50" xmlns="http://www.w3.org/2000/svg" xmlns:xlink="http://www.w3.org/1999/xlink">
<g id="graph0" class="graph" transform="scale(1 1) rotate(0) translate(4 1357.5)">
<polygon fill="white" stroke="none" points="-4,4 -4,-1357.5 1417.16,-1357.5 1417.16,4 -4,4"/>
<!-- doid -->
<g id="node1" class="node">
<title>doid</title>
<ellipse fill="none" stroke="black" cx="27.3" cy="-362" rx="27.3" ry="18"/>
<text text-anchor="middle" x="27.3" y="-356.95" font-family="Times,serif" font-size="14.00">doid</text>
</g>
<!-- doid&#45;&#45;doid -->
<g id="edge1" class="edge">
<title>doid&#45;&#45;doid</title>
<path fill="none" stroke="black" stroke-width="1.18" d="M16.55,-379.04C14.35,-388.86 17.94,-398 27.3,-398 36.66,-398 40.24,-388.86 38.05,-379.04"/>
<text text-anchor="middle" x="27.3" y="-401.2" font-family="Times,serif" font-size="14.00">11,537</text>
</g>
<!-- umls -->
<g id="node2" class="node">
<title>umls</title>
<ellipse fill="none" stroke="black" cx="150.69" cy="-565" rx="29.34" ry="18"/>
<text text-anchor="middle" x="150.69" y="-559.95" font-family="Times,serif" font-size="14.00">umls</text>
</g>
<!-- doid&#45;&#45;umls -->
<g id="edge2" class="edge">
<title>doid&#45;&#45;umls</title>
<path fill="none" stroke="black" stroke-width="1.12" d="M38.23,-378.61C60.94,-416.58 116.44,-509.41 139.44,-547.87"/>
<text text-anchor="middle" x="87.97" y="-484.2" font-family="Times,serif" font-size="14.00">7,639</text>
</g>
<!-- mesh -->
<g id="node3" class="node">
<title>mesh</title>
<ellipse fill="none" stroke="black" cx="303.95" cy="-408" rx="30.88" ry="18"/>
<text text-anchor="middle" x="303.95" y="-402.95" font-family="Times,serif" font-size="14.00">mesh</text>
</g>
<!-- doid&#45;&#45;mesh -->
<g id="edge3" class="edge">
<title>doid&#45;&#45;mesh</title>
<path fill="none" stroke="black" stroke-width="1.07" d="M54.65,-359.47C95.7,-356.38 177,-353.71 242.28,-373 257.32,-377.45 272.61,-386.3 284.08,-393.99"/>
<text text-anchor="middle" x="150.69" y="-364.2" font-family="Times,serif" font-size="14.00">4,611</text>
</g>
<!-- efo -->
<g id="node4" class="node">
<title>efo</title>
<ellipse fill="none" stroke="black" cx="448.13" cy="-839" rx="27" ry="18"/>
<text text-anchor="middle" x="448.13" y="-833.95" font-family="Times,serif" font-size="14.00">efo</text>
</g>
<!-- doid&#45;&#45;efo -->
<g id="edge4" class="edge">
<title>doid&#45;&#45;efo</title>
<path fill="none" stroke="black" stroke-width="1.04" d="M30.31,-380.34C39.54,-454.33 85.28,-731.47 260.28,-827 311.92,-855.19 383.94,-849.52 421.71,-843.77"/>
<text text-anchor="middle" x="220.16" y="-819.2" font-family="Times,serif" font-size="14.00">2,271</text>
</g>
<!-- ncit -->
<g id="node5" class="node">
<title>ncit</title>
<ellipse fill="none" stroke="black" cx="575.63" cy="-438" rx="27" ry="18"/>
<text text-anchor="middle" x="575.63" y="-432.95" font-family="Times,serif" font-size="14.00">ncit</text>
</g>
<!-- doid&#45;&#45;ncit -->
<g id="edge5" class="edge">
<title>doid&#45;&#45;ncit</title>
<path fill="none" stroke="black" stroke-width="1.08" d="M46.82,-349.12C96.13,-316.49 234.58,-235.67 347.63,-272.5 395.62,-288.14 514.42,-386.69 558.14,-423.85"/>
<text text-anchor="middle" x="303.95" y="-276.2" font-family="Times,serif" font-size="14.00">5,040</text>
</g>
<!-- mondo -->
<g id="node6" class="node">
<title>mondo</title>
<ellipse fill="none" stroke="black" cx="719.9" cy="-1001" rx="37.02" ry="18"/>
<text text-anchor="middle" x="719.9" y="-995.95" font-family="Times,serif" font-size="14.00">mondo</text>
</g>
<!-- doid&#45;&#45;mondo -->
<g id="edge6" class="edge">
<title>doid&#45;&#45;mondo</title>
<path fill="none" stroke="black" stroke-width="1.18" d="M29.17,-380.44C34.99,-498.1 70.33,-1139 149.69,-1139 149.69,-1139 149.69,-1139 512.88,-1139 548.23,-1139 637.11,-1113.89 664.88,-1092 689.12,-1072.89 704.81,-1039.67 712.73,-1019.09"/>
<text text-anchor="middle" x="384.38" y="-1142.2" font-family="Times,serif" font-size="14.00">11,324</text>
</g>
<!-- icdo -->
<g id="node7" class="node">
<title>icdo</title>
<ellipse fill="none" stroke="black" cx="873.58" cy="-1182" rx="27" ry="18"/>
<text text-anchor="middle" x="873.58" y="-1176.95" font-family="Times,serif" font-size="14.00">icdo</text>
</g>
<!-- doid&#45;&#45;icdo -->
<g id="edge7" class="edge">
<title>doid&#45;&#45;icdo</title>
<path fill="none" stroke="black" stroke-width="1.01" d="M28.57,-380.27C30.18,-479.19 39.49,-951.4 72.59,-1093 92.68,-1178.94 61.43,-1276 149.69,-1276 149.69,-1276 149.69,-1276 385.38,-1276 566.71,-1276 779.25,-1212.44 849.07,-1189.85"/>
<text text-anchor="middle" x="448.13" y="-1278.2" font-family="Times,serif" font-size="14.00">470</text>
</g>
<!-- icd10cm -->
<g id="node8" class="node">
<title>icd10cm</title>
<ellipse fill="none" stroke="black" cx="873.58" cy="-459" rx="43.16" ry="18"/>
<text text-anchor="middle" x="873.58" y="-453.95" font-family="Times,serif" font-size="14.00">icd10cm</text>
</g>
<!-- doid&#45;&#45;icd10cm -->
<g id="edge8" class="edge">
<title>doid&#45;&#45;icd10cm</title>
<path fill="none" stroke="black" stroke-width="1.06" d="M30.88,-343.93C36.51,-307.44 51.11,-227.09 72.59,-211 179.05,-131.28 543.43,-242.79 664.88,-297 751.83,-335.81 752.93,-377.66 830.42,-433 835.88,-436.9 841.93,-440.83 847.69,-444.42"/>
<text text-anchor="middle" x="448.13" y="-234.2" font-family="Times,serif" font-size="14.00">3,583</text>
</g>
<!-- icd9cm -->
<g id="node9" class="node">
<title>icd9cm</title>
<ellipse fill="none" stroke="black" cx="303.95" cy="-316" rx="38.56" ry="18"/>
<text text-anchor="middle" x="303.95" y="-310.95" font-family="Times,serif" font-size="14.00">icd9cm</text>
</g>
<!-- doid&#45;&#45;icd9cm -->
<g id="edge9" class="edge">
<title>doid&#45;&#45;icd9cm</title>
<path fill="none" stroke="black" stroke-width="1.04" d="M52.57,-354.61C71.22,-349.18 97.71,-341.99 121.34,-337.5 170.78,-328.11 228.62,-322.11 265.5,-318.9"/>
<text text-anchor="middle" x="150.69" y="-341.2" font-family="Times,serif" font-size="14.00">2,237</text>
</g>
<!-- orphanet.ordo -->
<g id="node10" class="node">
<title>orphanet.ordo</title>
<ellipse fill="none" stroke="black" cx="1046.11" cy="-545" rx="62.61" ry="18"/>
<text text-anchor="middle" x="1046.11" y="-539.95" font-family="Times,serif" font-size="14.00">orphanet.ordo</text>
</g>
<!-- doid&#45;&#45;orphanet.ordo -->
<g id="edge10" class="edge">
<title>doid&#45;&#45;orphanet.ordo</title>
<path fill="none" stroke="black" stroke-width="1.04" d="M40.79,-345.95C57.02,-326.4 87.33,-294.14 121.34,-279 291.2,-203.39 345.12,-180.05 530.63,-192.5 631.88,-199.29 665.12,-179.75 756.92,-223 871.17,-276.83 887.89,-316.36 965.5,-416 975.76,-429.18 974.98,-434.63 983.5,-449 999.95,-476.77 1020.43,-508.1 1033.14,-527.19"/>
<text text-anchor="middle" x="511.88" y="-196.2" font-family="Times,serif" font-size="14.00">2,426</text>
</g>
<!-- gard -->
<g id="node11" class="node">
<title>gard</title>
<ellipse fill="none" stroke="black" cx="873.58" cy="-1128" rx="27.3" ry="18"/>
<text text-anchor="middle" x="873.58" y="-1122.95" font-family="Times,serif" font-size="14.00">gard</text>
</g>
<!-- doid&#45;&#45;gard -->
<g id="edge11" class="edge">
<title>doid&#45;&#45;gard</title>
<path fill="none" stroke="black" stroke-width="1.03" d="M27.99,-380.45C27.08,-456.46 26.83,-752.55 72.59,-990 90.23,-1081.51 56.49,-1185 149.69,-1185 149.69,-1185 149.69,-1185 385.38,-1185 575.45,-1185 629.97,-1215.28 812.42,-1162 827.51,-1157.59 842.91,-1148.79 854.35,-1141.25"/>
<text text-anchor="middle" x="448.13" y="-1190.2" font-family="Times,serif" font-size="14.00">2,110</text>
</g>
<!-- omim -->
<g id="node12" class="node">
<title>omim</title>
<ellipse fill="none" stroke="black" cx="1226.4" cy="-386" rx="33.44" ry="18"/>
<text text-anchor="middle" x="1226.4" y="-380.95" font-family="Times,serif" font-size="14.00">omim</text>
</g>
<!-- doid&#45;&#45;omim -->
<g id="edge12" class="edge">
<title>doid&#45;&#45;omim</title>
<path fill="none" stroke="black" stroke-width="1.09" d="M27.57,-343.67C26.06,-279.53 30.2,-69 149.69,-69 149.69,-69 149.69,-69 576.63,-69 674.71,-69 694.59,-114 792.67,-114 792.67,-114 792.67,-114 1047.11,-114 1107.29,-114 1130.44,-132.19 1164.22,-182 1205,-242.13 1219.22,-330.14 1223.63,-367.81"/>
<text text-anchor="middle" x="575.63" y="-72.2" font-family="Times,serif" font-size="14.00">5,938</text>
</g>
<!-- omim.ps -->
<g id="node13" class="node">
<title>omim.ps</title>
<ellipse fill="none" stroke="black" cx="1226.4" cy="-1173" rx="44.19" ry="18"/>
<text text-anchor="middle" x="1226.4" y="-1167.95" font-family="Times,serif" font-size="14.00">omim.ps</text>
</g>
<!-- doid&#45;&#45;omim.ps -->
<g id="edge13" class="edge">
<title>doid&#45;&#45;omim.ps</title>
<path fill="none" stroke="black" d="M28.27,-380.21C28.27,-486.62 30.38,-1028.76 72.59,-1189 91.48,-1260.72 75.52,-1337 149.69,-1337 149.69,-1337 149.69,-1337 1047.11,-1337 1132.69,-1337 1194.88,-1233.37 1216.78,-1190.86"/>
<text text-anchor="middle" x="575.63" y="-1340.2" font-family="Times,serif" font-size="14.00">37</text>
</g>
<!-- orphanet -->
<g id="node14" class="node">
<title>orphanet</title>
<ellipse fill="none" stroke="black" cx="1370" cy="-503" rx="43.16" ry="18"/>
<text text-anchor="middle" x="1370" y="-497.95" font-family="Times,serif" font-size="14.00">orphanet</text>
</g>
<!-- doid&#45;&#45;orphanet -->
<g id="edge14" class="edge">
<title>doid&#45;&#45;orphanet</title>
<path fill="none" stroke="black" stroke-width="1.01" d="M29.75,-343.72C34.32,-289.08 49.48,-127.83 72.59,-81 94.59,-36.43 99.99,0 149.69,0 149.69,0 149.69,0 1227.4,0 1276.91,0 1290.15,-30.16 1308.84,-76 1369.46,-224.7 1370.73,-423.99 1369.55,-484.7"/>
<text text-anchor="middle" x="642.75" y="-3.2" font-family="Times,serif" font-size="14.00">358</text>
</g>
<!-- umls&#45;&#45;umls -->
<g id="edge15" class="edge">
<title>umls&#45;&#45;umls</title>
<path fill="none" stroke="black" stroke-width="3.8" d="M139.57,-582.04C137.3,-591.86 141.01,-601 150.69,-601 160.36,-601 164.07,-591.86 161.8,-582.04"/>
<text text-anchor="middle" x="150.69" y="-604.2" font-family="Times,serif" font-size="14.00">178,734</text>
</g>
<!-- umls&#45;&#45;mesh -->
<g id="edge16" class="edge">
<title>umls&#45;&#45;mesh</title>
<path fill="none" stroke="black" stroke-width="1.23" d="M155.42,-547C161.03,-523.89 173.7,-483.78 198.03,-458.5 204.06,-452.24 249.35,-431.59 278.42,-418.72"/>
<text text-anchor="middle" x="220.16" y="-461.2" font-family="Times,serif" font-size="14.00">14,514</text>
</g>
<!-- umls&#45;&#45;efo -->
<g id="edge17" class="edge">
<title>umls&#45;&#45;efo</title>
<path fill="none" stroke="black" stroke-width="1.05" d="M153.12,-583.04C156.34,-612.56 166.54,-671.66 198.03,-709 259.51,-781.91 372.36,-819.27 422.27,-832.87"/>
<text text-anchor="middle" x="303.95" y="-809.2" font-family="Times,serif" font-size="14.00">2,877</text>
</g>
<!-- umls&#45;&#45;ncit -->
<g id="edge18" class="edge">
<title>umls&#45;&#45;ncit</title>
<path fill="none" stroke="black" stroke-width="1.46" d="M162.21,-548.32C170.5,-536.59 183.13,-521.53 198.03,-513 228.84,-495.37 469.09,-455.16 548.93,-442.14"/>
<text text-anchor="middle" x="384.38" y="-476.2" font-family="Times,serif" font-size="14.00">29,351</text>
</g>
<!-- umls&#45;&#45;mondo -->
<g id="edge19" class="edge">
<title>umls&#45;&#45;mondo</title>
<path fill="none" stroke="black" stroke-width="1.25" d="M154.08,-583.22C158.93,-616.35 171.78,-688.12 198.03,-743 218.08,-784.92 227.12,-794.45 260.28,-827 350.97,-916.04 375.09,-945.88 493.13,-993 564.41,-1021.45 588.45,-1018.01 664.88,-1011 671.62,-1010.38 678.78,-1009.34 685.6,-1008.15"/>
<text text-anchor="middle" x="448.13" y="-987.2" font-family="Times,serif" font-size="14.00">16,239</text>
</g>
<!-- umls&#45;&#45;icd10cm -->
<g id="edge20" class="edge">
<title>umls&#45;&#45;icd10cm</title>
<path fill="none" stroke="black" stroke-width="2.53" d="M176.98,-556.52C183.76,-554.48 191.12,-552.47 198.03,-551 375.32,-513.33 423.11,-524.94 602.63,-500 684.56,-488.62 780.23,-473.7 832.83,-465.36"/>
<text text-anchor="middle" x="511.88" y="-515.2" font-family="Times,serif" font-size="14.00">97,617</text>
</g>
<!-- umls&#45;&#45;icd9cm -->
<g id="edge21" class="edge">
<title>umls&#45;&#45;icd9cm</title>
<path fill="none" stroke="black" stroke-width="1.35" d="M152.73,-546.59C155.41,-513.29 164.89,-442.02 198.03,-393.5 217.96,-364.33 252.56,-341.93 276.55,-328.88"/>
<text text-anchor="middle" x="220.16" y="-396.2" font-family="Times,serif" font-size="14.00">22,406</text>
</g>
<!-- umls&#45;&#45;orphanet.ordo -->
<g id="edge22" class="edge">
<title>umls&#45;&#45;orphanet.ordo</title>
<path fill="none" stroke="black" stroke-width="1.14" d="M180.4,-565C210.83,-565 260.28,-565 302.95,-565 302.95,-565 302.95,-565 512.88,-565 683.94,-565 885.71,-554.56 984.47,-548.76"/>
<text text-anchor="middle" x="575.63" y="-567.2" font-family="Times,serif" font-size="14.00">9,147</text>
</g>
<!-- umls&#45;&#45;omim -->
<g id="edge23" class="edge">
<title>umls&#45;&#45;omim</title>
<path fill="none" stroke="black" stroke-width="2.67" d="M154.51,-546.76C159.38,-520.32 171.52,-470.9 198.03,-438 212.63,-419.88 225.9,-426.53 242.28,-410 252.96,-399.23 248.8,-390.92 260.28,-381 292.31,-353.31 321.63,-376.41 347.63,-343 378.05,-303.9 336.41,-273.01 365.63,-233 441.06,-129.72 513.86,-152 641.75,-152 641.75,-152 641.75,-152 1047.11,-152 1155.64,-152 1206.84,-313.23 1221.11,-368.03"/>
<text text-anchor="middle" x="642.75" y="-155.2" font-family="Times,serif" font-size="14.00">106,315</text>
</g>
<!-- umls&#45;&#45;omim.ps -->
<g id="edge24" class="edge">
<title>umls&#45;&#45;omim.ps</title>
<path fill="none" stroke="black" d="M151.6,-583.29C152.33,-676.27 169.68,-1096.51 421.13,-1208 700.49,-1331.87 806.51,-1255.37 1108.72,-1210 1133.67,-1206.25 1140.11,-1205.47 1164.22,-1198 1174.63,-1194.77 1185.74,-1190.5 1195.6,-1186.4"/>
<text text-anchor="middle" x="642.75" y="-1277.2" font-family="Times,serif" font-size="14.00">47</text>
</g>
<!-- umls&#45;&#45;orphanet -->
<g id="edge26" class="edge">
<title>umls&#45;&#45;orphanet</title>
<path fill="none" stroke="black" stroke-width="1.15" d="M177,-573.39C183.78,-575.43 191.14,-577.47 198.03,-579 402.7,-624.55 458.1,-612.23 664.88,-647 713.98,-655.26 725.81,-659.8 774.92,-668 818.17,-675.22 828.73,-682 872.58,-682 872.58,-682 872.58,-682 1227.4,-682 1308.83,-682 1350.77,-566.66 1364.15,-521.15"/>
<text text-anchor="middle" x="719.9" y="-667.2" font-family="Times,serif" font-size="14.00">9,479</text>
</g>
<!-- icd10 -->
<g id="node15" class="node">
<title>icd10</title>
<ellipse fill="none" stroke="black" cx="1226.4" cy="-732" rx="31.39" ry="18"/>
<text text-anchor="middle" x="1226.4" y="-726.95" font-family="Times,serif" font-size="14.00">icd10</text>
</g>
<!-- umls&#45;&#45;icd10 -->
<g id="edge25" class="edge">
<title>umls&#45;&#45;icd10</title>
<path fill="none" stroke="black" stroke-width="1.09" d="M156.1,-582.91C162.12,-603.67 174.92,-637.52 198.03,-657 220.15,-675.64 232,-669.92 260.28,-676 445.4,-715.78 493.93,-717.63 682.88,-730 877.43,-742.74 1112.07,-736.18 1194.77,-733.21"/>
<text text-anchor="middle" x="642.75" y="-731.2" font-family="Times,serif" font-size="14.00">5,768</text>
</g>
<!-- icd10pcs -->
<g id="node16" class="node">
<title>icd10pcs</title>
<ellipse fill="none" stroke="black" cx="303.95" cy="-649" rx="43.67" ry="18"/>
<text text-anchor="middle" x="303.95" y="-643.95" font-family="Times,serif" font-size="14.00">icd10pcs</text>
</g>
<!-- umls&#45;&#45;icd10pcs -->
<g id="edge27" class="edge">
<title>umls&#45;&#45;icd10pcs</title>
<path fill="none" stroke="black" stroke-width="4" d="M162.83,-581.73C171.25,-593.18 183.77,-607.87 198.03,-617 217.68,-629.58 242.55,-637.45 263.14,-642.23"/>
<text text-anchor="middle" x="220.16" y="-639.2" font-family="Times,serif" font-size="14.00">191,546</text>
</g>
<!-- mesh&#45;&#45;mesh -->
<g id="edge28" class="edge">
<title>mesh&#45;&#45;mesh</title>
<path fill="none" stroke="black" stroke-width="1.05" d="M289.94,-424.29C286.56,-434.39 291.23,-444 303.95,-444 316.68,-444 321.35,-434.39 317.97,-424.29"/>
<text text-anchor="middle" x="303.95" y="-447.2" font-family="Times,serif" font-size="14.00">3,120</text>
</g>
<!-- mesh&#45;&#45;efo -->
<g id="edge29" class="edge">
<title>mesh&#45;&#45;efo</title>
<path fill="none" stroke="black" stroke-width="1.02" d="M310.88,-425.97C334.06,-496.23 418.39,-751.88 441.33,-821.43"/>
<text text-anchor="middle" x="384.38" y="-702.2" font-family="Times,serif" font-size="14.00">1,176</text>
</g>
<!-- mesh&#45;&#45;ncit -->
<g id="edge30" class="edge">
<title>mesh&#45;&#45;ncit</title>
<path fill="none" stroke="black" stroke-width="1.02" d="M334.59,-411.3C387.67,-417.2 498.15,-429.49 548.55,-435.1"/>
<text text-anchor="middle" x="448.13" y="-429.2" font-family="Times,serif" font-size="14.00">1,260</text>
</g>
<!-- mesh&#45;&#45;mondo -->
<g id="edge31" class="edge">
<title>mesh&#45;&#45;mondo</title>
<path fill="none" stroke="black" stroke-width="1.13" d="M308.64,-426.02C316.16,-462.81 333.7,-549.26 347.63,-622 371.75,-747.94 340.78,-801.06 421.13,-901 485.96,-981.65 618.28,-997.68 682.42,-1000.58"/>
<text text-anchor="middle" x="511.88" y="-975.2" font-family="Times,serif" font-size="14.00">8,247</text>
</g>
<!-- mesh&#45;&#45;icd10cm -->
<g id="edge32" class="edge">
<title>mesh&#45;&#45;icd10cm</title>
<path fill="none" stroke="black" stroke-width="1.01" d="M334.94,-405.8C380.9,-402.56 471.55,-396.63 548.63,-394.5 572.62,-393.84 578.79,-391.69 602.63,-394.5 689.01,-404.68 787.78,-432.57 838.53,-448.13"/>
<text text-anchor="middle" x="575.63" y="-397.2" font-family="Times,serif" font-size="14.00">381</text>
</g>
<!-- mesh&#45;&#45;orphanet.ordo -->
<g id="edge33" class="edge">
<title>mesh&#45;&#45;orphanet.ordo</title>
<path fill="none" stroke="black" stroke-width="1.01" d="M324.55,-394.09C360.17,-369.06 433.15,-319 447.13,-319 447.13,-319 447.13,-319 720.9,-319 866.36,-319 993.24,-473.99 1032.56,-527.27"/>
<text text-anchor="middle" x="642.75" y="-322.2" font-family="Times,serif" font-size="14.00">440</text>
</g>
<!-- mesh&#45;&#45;omim -->
<g id="edge34" class="edge">
<title>mesh&#45;&#45;omim</title>
<path fill="none" stroke="black" stroke-width="1.02" d="M326.18,-395.1C333.62,-389.84 341.62,-383.28 347.63,-376 359.27,-361.9 356.7,-354.96 365.63,-339 388.03,-298.98 381.4,-274.91 421.13,-252 564.32,-169.45 627.39,-236 792.67,-236 792.67,-236 792.67,-236 1047.11,-236 1128.62,-236 1192.27,-328.93 1215.68,-368.5"/>
<text text-anchor="middle" x="719.9" y="-238.2" font-family="Times,serif" font-size="14.00">1,045</text>
</g>
<!-- mesh&#45;&#45;orphanet -->
<g id="edge35" class="edge">
<title>mesh&#45;&#45;orphanet</title>
<path fill="none" stroke="black" stroke-width="1.01" d="M327.41,-395.98C334.99,-390.82 342.76,-384.09 347.63,-376 374.09,-332.06 338.99,-305.84 365.63,-262 374.77,-246.96 478.61,-177.95 493.13,-168 612.86,-85.98 647.54,-38 792.67,-38 792.67,-38 792.67,-38 1227.4,-38 1283.35,-38 1290.98,-80.98 1308.84,-134 1352.57,-263.79 1365.08,-430.3 1368.13,-484.83"/>
<text text-anchor="middle" x="793.67" y="-42.2" font-family="Times,serif" font-size="14.00">395</text>
</g>
<!-- efo&#45;&#45;efo -->
<g id="edge36" class="edge">
<title>efo&#45;&#45;efo</title>
<path fill="none" stroke="black" stroke-width="1.03" d="M436.92,-855.66C434.43,-865.62 438.17,-875 448.13,-875 458.09,-875 461.83,-865.62 459.33,-855.66"/>
<text text-anchor="middle" x="448.13" y="-878.2" font-family="Times,serif" font-size="14.00">2,082</text>
</g>
<!-- efo&#45;&#45;ncit -->
<g id="edge37" class="edge">
<title>efo&#45;&#45;ncit</title>
<path fill="none" stroke="black" stroke-width="1.04" d="M454.25,-821C462.31,-792.87 478.51,-736.8 493.13,-689.5 520.38,-601.36 555.08,-496.58 568.73,-455.63"/>
<text text-anchor="middle" x="511.88" y="-692.2" font-family="Times,serif" font-size="14.00">2,363</text>
</g>
<!-- efo&#45;&#45;mondo -->
<g id="edge38" class="edge">
<title>efo&#45;&#45;mondo</title>
<path fill="none" stroke="black" stroke-width="1.05" d="M456,-856.5C463.09,-872.47 475.59,-895.71 493.13,-910 556.16,-961.36 590.47,-940.23 664.88,-973 674.74,-977.34 685.32,-982.67 694.48,-987.51"/>
<text text-anchor="middle" x="575.63" y="-956.2" font-family="Times,serif" font-size="14.00">3,225</text>
</g>
<!-- efo&#45;&#45;icdo -->
<g id="edge39" class="edge">
<title>efo&#45;&#45;icdo</title>
<path fill="none" stroke="black" stroke-width="1.01" d="M448.83,-857.47C449.16,-893.94 454.47,-976.28 493.13,-1030 573.91,-1142.25 642.59,-1121.81 774.92,-1162 798.93,-1169.29 827.08,-1174.74 846.97,-1178.09"/>
<text text-anchor="middle" x="642.75" y="-1138.2" font-family="Times,serif" font-size="14.00">323</text>
</g>
<!-- efo&#45;&#45;icd10cm -->
<g id="edge40" class="edge">
<title>efo&#45;&#45;icd10cm</title>
<path fill="none" stroke="black" stroke-width="1.01" d="M453.47,-821.16C459.53,-798.98 472.2,-760.79 493.13,-734 505.93,-717.61 515.45,-720.22 530.63,-706 575.6,-663.86 570.22,-635.96 620.63,-600.5 657.9,-574.29 775.01,-554.01 812.42,-528 832.52,-514.03 850.21,-491.9 861.11,-476.48"/>
<text text-anchor="middle" x="642.75" y="-603.2" font-family="Times,serif" font-size="14.00">476</text>
</g>
<!-- efo&#45;&#45;orphanet.ordo -->
<g id="edge41" class="edge">
<title>efo&#45;&#45;orphanet.ordo</title>
<path fill="none" stroke="black" stroke-width="1.01" d="M455.45,-821.27C462.22,-804.89 474.56,-781.17 493.13,-768 556.9,-722.77 591.05,-755.72 664.88,-730 802.83,-681.93 956.07,-596.81 1017.47,-561.28"/>
<text text-anchor="middle" x="719.9" y="-726.2" font-family="Times,serif" font-size="14.00">324</text>
</g>
<!-- efo&#45;&#45;gard -->
<g id="edge42" class="edge">
<title>efo&#45;&#45;gard</title>
<path fill="none" stroke="black" stroke-width="1.01" d="M448.7,-857.34C448.91,-891.04 454.24,-963.19 493.13,-1005 543.06,-1058.69 770,-1107.71 846.97,-1123.06"/>
<text text-anchor="middle" x="642.75" y="-1081.2" font-family="Times,serif" font-size="14.00">733</text>
</g>
<!-- efo&#45;&#45;omim -->
<g id="edge43" class="edge">
<title>efo&#45;&#45;omim</title>
<path fill="none" stroke="black" stroke-width="1.01" d="M474.67,-834.31C569.43,-816.87 896.53,-756.18 916.75,-746 1053.88,-676.97 1079.65,-633.14 1164.22,-505 1186.74,-470.88 1207.21,-427.43 1217.81,-403.6"/>
<text text-anchor="middle" x="793.67" y="-780.2" font-family="Times,serif" font-size="14.00">870</text>
</g>
<!-- efo&#45;&#45;omim.ps -->
<g id="edge45" class="edge">
<title>efo&#45;&#45;omim.ps</title>
<path fill="none" stroke="black" d="M453.4,-856.78C458.82,-879.65 468.29,-920.66 475.13,-956 484.46,-1004.21 470.19,-1021.59 493.13,-1065 525.65,-1126.56 555.63,-1131.05 620.63,-1156 745.45,-1203.92 783.27,-1216.76 916.75,-1209 1013.15,-1203.4 1125.65,-1188.03 1184.6,-1179.29"/>
<text text-anchor="middle" x="793.67" y="-1212.2" font-family="Times,serif" font-size="14.00">45</text>
</g>
<!-- efo&#45;&#45;orphanet -->
<g id="edge47" class="edge">
<title>efo&#45;&#45;orphanet</title>
<path fill="none" stroke="black" d="M475.16,-842.25C481.06,-842.91 487.3,-843.54 493.13,-844 681.01,-858.98 728.76,-850.01 916.75,-863.5 1026.83,-871.4 1060.59,-921.96 1164.22,-884 1318.64,-827.44 1358.72,-588.82 1367.08,-521.03"/>
<text text-anchor="middle" x="873.58" y="-866.2" font-family="Times,serif" font-size="14.00">240</text>
</g>
<!-- efo&#45;&#45;icd10 -->
<g id="edge46" class="edge">
<title>efo&#45;&#45;icd10</title>
<path fill="none" stroke="black" stroke-width="1.01" d="M475.48,-837.98C582.62,-833.66 985.59,-815.6 1108.72,-784 1143.3,-775.12 1180.54,-756.85 1203.41,-744.5"/>
<text text-anchor="middle" x="793.67" y="-824.2" font-family="Times,serif" font-size="14.00">804</text>
</g>
<!-- icd9 -->
<g id="node17" class="node">
<title>icd9</title>
<ellipse fill="none" stroke="black" cx="873.58" cy="-907" rx="27" ry="18"/>
<text text-anchor="middle" x="873.58" y="-901.95" font-family="Times,serif" font-size="14.00">icd9</text>
</g>
<!-- efo&#45;&#45;icd9 -->
<g id="edge44" class="edge">
<title>efo&#45;&#45;icd9</title>
<path fill="none" stroke="black" stroke-width="1.03" d="M464.14,-853.56C472.1,-860.37 482.44,-867.88 493.13,-872 557.87,-896.94 771.25,-904.51 846.24,-906.43"/>
<text text-anchor="middle" x="642.75" y="-900.2" font-family="Times,serif" font-size="14.00">1,766</text>
</g>
<!-- ncit&#45;&#45;ncit -->
<g id="edge48" class="edge">
<title>ncit&#45;&#45;ncit</title>
<path fill="none" stroke="black" stroke-width="1.31" d="M564.42,-454.66C561.93,-464.62 565.67,-474 575.63,-474 585.59,-474 589.33,-464.62 586.83,-454.66"/>
<text text-anchor="middle" x="575.63" y="-477.2" font-family="Times,serif" font-size="14.00">20,094</text>
</g>
<!-- ncit&#45;&#45;mondo -->
<g id="edge49" class="edge">
<title>ncit&#45;&#45;mondo</title>
<path fill="none" stroke="black" stroke-width="1.12" d="M581.13,-455.81C586.39,-476.68 595.29,-512.32 602.63,-543 610.9,-577.6 604.57,-589.25 620.63,-621 634.25,-647.93 652.12,-645.15 664.88,-672.5 691.14,-728.81 711.39,-922.24 717.21,-982.75"/>
<text text-anchor="middle" x="642.75" y="-675.2" font-family="Times,serif" font-size="14.00">7,560</text>
</g>
<!-- ncit&#45;&#45;icd10cm -->
<g id="edge50" class="edge">
<title>ncit&#45;&#45;icd10cm</title>
<path fill="none" stroke="black" stroke-width="1.01" d="M602.89,-439.86C654.32,-443.51 768.66,-451.63 830.66,-456.03"/>
<text text-anchor="middle" x="719.9" y="-453.2" font-family="Times,serif" font-size="14.00">460</text>
</g>
<!-- ncit&#45;&#45;orphanet.ordo -->
<g id="edge51" class="edge">
<title>ncit&#45;&#45;orphanet.ordo</title>
<path fill="none" stroke="black" stroke-width="1.01" d="M598.83,-447.64C605.75,-450.49 613.45,-453.52 620.63,-456 688.02,-479.31 705.35,-484.34 774.92,-500 848.1,-516.47 933.69,-529.73 988.6,-537.48"/>
<text text-anchor="middle" x="793.67" y="-510.2" font-family="Times,serif" font-size="14.00">415</text>
</g>
<!-- ncit&#45;&#45;omim -->
<g id="edge52" class="edge">
<title>ncit&#45;&#45;omim</title>
<path fill="none" stroke="black" d="M602.78,-435.19C667.35,-428.33 839.54,-410.42 983.5,-399 1047.08,-393.96 1063.02,-393.29 1126.72,-390 1148.81,-388.86 1173.69,-387.85 1192.95,-387.13"/>
<text text-anchor="middle" x="873.58" y="-415.2" font-family="Times,serif" font-size="14.00">129</text>
</g>
<!-- ncit&#45;&#45;orphanet -->
<g id="edge53" class="edge">
<title>ncit&#45;&#45;orphanet</title>
<path fill="none" stroke="black" stroke-width="1.01" d="M594.93,-425.22C597.99,-422.23 600.78,-418.79 602.63,-415 630.51,-357.99 581.48,-179.94 620.63,-130 670.07,-66.93 712.53,-76 792.67,-76 792.67,-76 792.67,-76 1227.4,-76 1314.88,-76 1357.68,-402.92 1367.02,-484.65"/>
<text text-anchor="middle" x="950.12" y="-79.2" font-family="Times,serif" font-size="14.00">411</text>
</g>
<!-- mondo&#45;&#45;mondo -->
<g id="edge54" class="edge">
<title>mondo&#45;&#45;mondo</title>
<path fill="none" stroke="black" stroke-width="1.38" d="M706.83,-1018.04C704.16,-1027.86 708.52,-1037 719.9,-1037 731.28,-1037 735.64,-1027.86 732.97,-1018.04"/>
<text text-anchor="middle" x="719.9" y="-1040.2" font-family="Times,serif" font-size="14.00">24,099</text>
</g>
<!-- mondo&#45;&#45;icdo -->
<g id="edge55" class="edge">
<title>mondo&#45;&#45;icdo</title>
<path fill="none" stroke="black" stroke-width="1.01" d="M727.69,-1018.89C736.52,-1040.78 753.39,-1078.34 774.92,-1106 795.13,-1131.97 804.15,-1135.18 830.42,-1155 837.5,-1160.34 845.63,-1165.71 852.85,-1170.24"/>
<text text-anchor="middle" x="793.67" y="-1144.2" font-family="Times,serif" font-size="14.00">732</text>
</g>
<!-- mondo&#45;&#45;icd10cm -->
<g id="edge56" class="edge">
<title>mondo&#45;&#45;icd10cm</title>
<path fill="none" stroke="black" stroke-width="1.03" d="M723.71,-982.77C730.59,-939.44 749.56,-827.07 774.92,-735.5 802.5,-635.9 847.75,-520.4 865.3,-476.84"/>
<text text-anchor="middle" x="793.67" y="-738.2" font-family="Times,serif" font-size="14.00">1,657</text>
</g>
<!-- mondo&#45;&#45;orphanet.ordo -->
<g id="edge57" class="edge">
<title>mondo&#45;&#45;orphanet.ordo</title>
<path fill="none" stroke="black" stroke-width="1.15" d="M752.5,-991.87C804.81,-976.51 904.87,-946.01 916.75,-934 1024.27,-825.3 1041.73,-624.8 1044.56,-563.37"/>
<text text-anchor="middle" x="873.58" y="-970.2" font-family="Times,serif" font-size="14.00">9,559</text>
</g>
<!-- mondo&#45;&#45;gard -->
<g id="edge58" class="edge">
<title>mondo&#45;&#45;gard</title>
<path fill="none" stroke="black" stroke-width="1.19" d="M733.73,-1017.98C744.02,-1030.93 759.27,-1048.74 774.92,-1062 789.93,-1074.71 796.05,-1074.6 812.42,-1085.5 826.68,-1095 842.5,-1106.2 854.33,-1114.71"/>
<text text-anchor="middle" x="793.67" y="-1088.2" font-family="Times,serif" font-size="14.00">11,839</text>
</g>
<!-- mondo&#45;&#45;omim -->
<g id="edge59" class="edge">
<title>mondo&#45;&#45;omim</title>
<path fill="none" stroke="black" stroke-width="1.15" d="M755.7,-1006.07C796.4,-1010.39 864.82,-1012.51 916.75,-988 1029.33,-934.86 1034.63,-884.06 1108.72,-784 1138.27,-744.08 1149.01,-734.28 1164.22,-687 1188.15,-612.57 1165.43,-588.37 1182.22,-512 1190.95,-472.25 1208.09,-427.6 1217.95,-403.58"/>
<text text-anchor="middle" x="950.12" y="-981.2" font-family="Times,serif" font-size="14.00">9,872</text>
</g>
<!-- mondo&#45;&#45;omim.ps -->
<g id="edge61" class="edge">
<title>mondo&#45;&#45;omim.ps</title>
<path fill="none" stroke="black" stroke-width="1.01" d="M741.26,-1016.16C751.11,-1023.07 763.29,-1031.02 774.92,-1037 798.38,-1049.06 805.41,-1049.64 830.42,-1058 960.82,-1101.58 1118.45,-1144.64 1188.62,-1163.33"/>
<text text-anchor="middle" x="950.12" y="-1102.2" font-family="Times,serif" font-size="14.00">580</text>
</g>
<!-- mondo&#45;&#45;orphanet -->
<g id="edge62" class="edge">
<title>mondo&#45;&#45;orphanet</title>
<path fill="none" stroke="black" stroke-width="1.03" d="M754.04,-1008.41C855.22,-1028.88 1162.18,-1074.45 1308.84,-912 1361.86,-853.27 1368.18,-592.28 1368.91,-521.03"/>
<text text-anchor="middle" x="1046.11" y="-1033.2" font-family="Times,serif" font-size="14.00">2,048</text>
</g>
<!-- mondo&#45;&#45;icd9 -->
<g id="edge60" class="edge">
<title>mondo&#45;&#45;icd9</title>
<path fill="none" stroke="black" stroke-width="1.07" d="M729.78,-983.45C738.91,-967.22 754.62,-943.7 774.92,-930.5 796.41,-916.52 825.42,-910.85 846.23,-908.55"/>
<text text-anchor="middle" x="793.67" y="-933.2" font-family="Times,serif" font-size="14.00">4,343</text>
</g>
<!-- icd10cm&#45;&#45;orphanet.ordo -->
<g id="edge63" class="edge">
<title>icd10cm&#45;&#45;orphanet.ordo</title>
<path fill="none" stroke="black" d="M908.56,-469.97C925.96,-476.07 947.27,-484.28 965.5,-493.5 985.32,-503.53 1006.38,-517.31 1021.85,-528.08"/>
<text text-anchor="middle" x="950.12" y="-496.2" font-family="Times,serif" font-size="14.00">151</text>
</g>
<!-- icd10cm&#45;&#45;omim -->
<g id="edge64" class="edge">
<title>icd10cm&#45;&#45;omim</title>
<path fill="none" stroke="black" d="M909.23,-448.57C930.54,-442.33 958.48,-434.48 983.5,-428.5 1046.62,-413.4 1062.74,-410.9 1126.72,-400 1148.89,-396.22 1174,-392.67 1193.33,-390.09"/>
<text text-anchor="middle" x="1046.11" y="-431.2" font-family="Times,serif" font-size="14.00">38</text>
</g>
<!-- icd10cm&#45;&#45;orphanet -->
<g id="edge65" class="edge">
<title>icd10cm&#45;&#45;orphanet</title>
<path fill="none" stroke="black" d="M916.31,-462.71C1009.67,-471.02 1234.47,-491.03 1327.56,-499.31"/>
<text text-anchor="middle" x="1145.47" y="-487.2" font-family="Times,serif" font-size="14.00">140</text>
</g>
<!-- orphanet.ordo&#45;&#45;omim -->
<g id="edge66" class="edge">
<title>orphanet.ordo&#45;&#45;omim</title>
<path fill="none" stroke="black" stroke-width="1.17" d="M1054.04,-527.07C1065.31,-500.17 1090.09,-449.46 1126.72,-420.5 1146.36,-404.96 1173.51,-396.15 1194.35,-391.33"/>
<text text-anchor="middle" x="1145.47" y="-423.2" font-family="Times,serif" font-size="14.00">11,166</text>
</g>
<!-- orphanet.ordo&#45;&#45;omim.ps -->
<g id="edge67" class="edge">
<title>orphanet.ordo&#45;&#45;omim.ps</title>
<path fill="none" stroke="black" d="M1052.25,-563.12C1078.17,-654.42 1194.27,-1063.34 1220.24,-1154.81"/>
<text text-anchor="middle" x="1145.47" y="-954.2" font-family="Times,serif" font-size="14.00">26</text>
</g>
<!-- orphanet.ordo&#45;&#45;orphanet -->
<g id="edge69" class="edge">
<title>orphanet.ordo&#45;&#45;orphanet</title>
<path fill="none" stroke="black" stroke-width="1.03" d="M1103.91,-537.59C1168.35,-529.18 1271.81,-515.68 1328.54,-508.28"/>
<text text-anchor="middle" x="1226.4" y="-529.2" font-family="Times,serif" font-size="14.00">2,159</text>
</g>
<!-- orphanet.ordo&#45;&#45;icd10 -->
<g id="edge68" class="edge">
<title>orphanet.ordo&#45;&#45;icd10</title>
<path fill="none" stroke="black" stroke-width="1.12" d="M1063.88,-562.59C1098.47,-598.87 1177.24,-681.49 1210.33,-716.19"/>
<text text-anchor="middle" x="1145.47" y="-669.2" font-family="Times,serif" font-size="14.00">7,623</text>
</g>
<!-- icd11 -->
<g id="node18" class="node">
<title>icd11</title>
<ellipse fill="none" stroke="black" cx="1226.4" cy="-601" rx="31.39" ry="18"/>
<text text-anchor="middle" x="1226.4" y="-595.95" font-family="Times,serif" font-size="14.00">icd11</text>
</g>
<!-- orphanet.ordo&#45;&#45;icd11 -->
<g id="edge70" class="edge">
<title>orphanet.ordo&#45;&#45;icd11</title>
<path fill="none" stroke="black" stroke-width="1.09" d="M1089.36,-558.27C1123.03,-568.85 1169.19,-583.34 1198.14,-592.44"/>
<text text-anchor="middle" x="1145.47" y="-584.2" font-family="Times,serif" font-size="14.00">5,484</text>
</g>
<!-- omim&#45;&#45;orphanet -->
<g id="edge71" class="edge">
<title>omim&#45;&#45;orphanet</title>
<path fill="none" stroke="black" d="M1254,-396.53C1270.77,-403.95 1292.31,-414.96 1308.84,-428.5 1328.9,-444.93 1346.86,-469 1357.82,-485.3"/>
<text text-anchor="middle" x="1298.71" y="-431.2" font-family="Times,serif" font-size="14.00">136</text>
</g>
<!-- omim.ps&#45;&#45;omim.ps -->
<g id="edge72" class="edge">
<title>omim.ps&#45;&#45;omim.ps</title>
<path fill="none" stroke="black" stroke-width="1.01" d="M1213.49,-1190.41C1211.08,-1200.09 1215.39,-1209 1226.4,-1209 1237.42,-1209 1241.72,-1200.09 1239.31,-1190.41"/>
<text text-anchor="middle" x="1226.4" y="-1212.2" font-family="Times,serif" font-size="14.00">576</text>
</g>
<!-- omim.ps&#45;&#45;orphanet -->
<g id="edge73" class="edge">
<title>omim.ps&#45;&#45;orphanet</title>
<path fill="none" stroke="black" d="M1243.13,-1156.18C1262.28,-1134.6 1293.91,-1095.12 1308.84,-1055 1346.59,-953.59 1364.4,-605.53 1368.21,-521.41"/>
<text text-anchor="middle" x="1298.71" y="-1096.2" font-family="Times,serif" font-size="14.00">23</text>
</g>
<!-- orphanet&#45;&#45;orphanet -->
<g id="edge75" class="edge">
<title>orphanet&#45;&#45;orphanet</title>
<path fill="none" stroke="black" stroke-width="1.24" d="M1357.28,-520.41C1354.9,-530.09 1359.14,-539 1370,-539 1380.86,-539 1385.1,-530.09 1382.73,-520.41"/>
<text text-anchor="middle" x="1370" y="-542.2" font-family="Times,serif" font-size="14.00">15,348</text>
</g>
<!-- icd10&#45;&#45;icd10 -->
<g id="edge74" class="edge">
<title>icd10&#45;&#45;icd10</title>
<path fill="none" stroke="black" stroke-width="1.04" d="M1213.69,-748.66C1210.87,-758.62 1215.11,-768 1226.4,-768 1237.7,-768 1241.94,-758.62 1239.11,-748.66"/>
<text text-anchor="middle" x="1226.4" y="-771.2" font-family="Times,serif" font-size="14.00">2,345</text>
</g>
<!-- icd11&#45;&#45;icd11 -->
<g id="edge76" class="edge">
<title>icd11&#45;&#45;icd11</title>
<path fill="none" stroke="black" stroke-width="2.09" d="M1213.69,-617.66C1210.87,-627.62 1215.11,-637 1226.4,-637 1237.7,-637 1241.94,-627.62 1239.11,-617.66"/>
<text text-anchor="middle" x="1226.4" y="-640.2" font-family="Times,serif" font-size="14.00">69,477</text>
</g>
</g>
</svg>
