<?xml version="1.0" encoding="UTF-8" standalone="no"?>
<!DOCTYPE svg PUBLIC "-//W3C//DTD SVG 1.1//EN"
 "http://www.w3.org/Graphics/SVG/1.1/DTD/svg11.dtd">
<!-- Generated by graphviz version 10.0.1 (20240210.2158)
 -->
<!-- Pages: 1 -->
<svg width="1482pt" height="1357pt"
 viewBox="0.00 0.00 1481.94 1357.00" xmlns="http://www.w3.org/2000/svg" xmlns:xlink="http://www.w3.org/1999/xlink">
<g id="graph0" class="graph" transform="scale(1 1) rotate(0) translate(4 1353)">
<polygon fill="white" stroke="none" points="-4,4 -4,-1353 1477.94,-1353 1477.94,4 -4,4"/>
<!-- doid
11,537 -->
<g id="node1" class="node">
<title>doid
11,537</title>
<ellipse fill="none" stroke="black" cx="37.83" cy="-307" rx="37.83" ry="28.99"/>
<text text-anchor="middle" x="37.83" y="-310.2" font-family="Times,serif" font-size="14.00">doid</text>
<text text-anchor="middle" x="37.83" y="-293.7" font-family="Times,serif" font-size="14.00">11,537</text>
</g>
<!-- umls
63,241 -->
<g id="node2" class="node">
<title>umls
63,241</title>
<ellipse fill="none" stroke="black" cx="180.24" cy="-705" rx="37.83" ry="28.99"/>
<text text-anchor="middle" x="180.24" y="-708.2" font-family="Times,serif" font-size="14.00">umls</text>
<text text-anchor="middle" x="180.24" y="-691.7" font-family="Times,serif" font-size="14.00">63,241</text>
</g>
<!-- doid
11,537&#45;&#45;umls
63,241 -->
<g id="edge1" class="edge">
<title>doid
11,537&#45;&#45;umls
63,241</title>
<path fill="none" stroke="black" d="M48.7,-334.99C74.45,-407.97 143.44,-603.53 169.28,-676.78"/>
<text text-anchor="middle" x="109.04" y="-544.2" font-family="Times,serif" font-size="14.00">7,639</text>
</g>
<!-- efo
1,822 -->
<g id="node3" class="node">
<title>efo
1,822</title>
<ellipse fill="none" stroke="black" cx="324.77" cy="-642" rx="33.06" ry="28.99"/>
<text text-anchor="middle" x="324.77" y="-645.2" font-family="Times,serif" font-size="14.00">efo</text>
<text text-anchor="middle" x="324.77" y="-628.7" font-family="Times,serif" font-size="14.00">1,822</text>
</g>
<!-- doid
11,537&#45;&#45;efo
1,822 -->
<g id="edge2" class="edge">
<title>doid
11,537&#45;&#45;efo
1,822</title>
<path fill="none" stroke="black" d="M59.32,-331.09C112.15,-393.2 252.45,-558.15 304.22,-619.02"/>
<text text-anchor="middle" x="180.24" y="-516.2" font-family="Times,serif" font-size="14.00">1,253</text>
</g>
<!-- mesh
1,190 -->
<g id="node4" class="node">
<title>mesh
1,190</title>
<ellipse fill="none" stroke="black" cx="471.28" cy="-1090" rx="33.06" ry="28.99"/>
<text text-anchor="middle" x="471.28" y="-1093.2" font-family="Times,serif" font-size="14.00">mesh</text>
<text text-anchor="middle" x="471.28" y="-1076.7" font-family="Times,serif" font-size="14.00">1,190</text>
</g>
<!-- doid
11,537&#45;&#45;mesh
1,190 -->
<g id="edge3" class="edge">
<title>doid
11,537&#45;&#45;mesh
1,190</title>
<path fill="none" stroke="black" d="M39.96,-336.28C45.32,-443.32 75.28,-820.32 236.07,-1072 281.06,-1142.43 338.78,-1128.73 420.22,-1110 427.25,-1108.39 434.57,-1105.93 441.39,-1103.29"/>
<text text-anchor="middle" x="251.45" y="-1108.2" font-family="Times,serif" font-size="14.00">726</text>
</g>
<!-- ncit
19,107 -->
<g id="node5" class="node">
<title>ncit
19,107</title>
<ellipse fill="none" stroke="black" cx="615.67" cy="-943" rx="37.83" ry="28.99"/>
<text text-anchor="middle" x="615.67" y="-946.2" font-family="Times,serif" font-size="14.00">ncit</text>
<text text-anchor="middle" x="615.67" y="-929.7" font-family="Times,serif" font-size="14.00">19,107</text>
</g>
<!-- doid
11,537&#45;&#45;ncit
19,107 -->
<g id="edge4" class="edge">
<title>doid
11,537&#45;&#45;ncit
19,107</title>
<path fill="none" stroke="black" d="M40.34,-336.21C48.62,-488.56 91.25,-1185 179.24,-1185 179.24,-1185 179.24,-1185 402.47,-1185 490.7,-1185 520.73,-1143.09 559.84,-1064 577.34,-1028.6 558.4,-1011.37 577.84,-977 580.58,-972.15 584.25,-967.6 588.22,-963.51"/>
<text text-anchor="middle" x="324.77" y="-1188.2" font-family="Times,serif" font-size="14.00">5,041</text>
</g>
<!-- mondo
24,201 -->
<g id="node6" class="node">
<title>mondo
24,201</title>
<ellipse fill="none" stroke="black" cx="765.36" cy="-693" rx="38.36" ry="28.99"/>
<text text-anchor="middle" x="765.36" y="-696.2" font-family="Times,serif" font-size="14.00">mondo</text>
<text text-anchor="middle" x="765.36" y="-679.7" font-family="Times,serif" font-size="14.00">24,201</text>
</g>
<!-- doid
11,537&#45;&#45;mondo
24,201 -->
<g id="edge5" class="edge">
<title>doid
11,537&#45;&#45;mondo
24,201</title>
<path fill="none" stroke="black" d="M75.47,-311.78C137.34,-320.81 265.49,-343.67 364.72,-389 526.88,-463.06 684.98,-612.79 742.03,-670.03"/>
<text text-anchor="middle" x="401.47" y="-419.2" font-family="Times,serif" font-size="14.00">11,316</text>
</g>
<!-- icdo
800 -->
<g id="node7" class="node">
<title>icdo
800</title>
<ellipse fill="none" stroke="black" cx="921.94" cy="-475" rx="27.75" ry="28.99"/>
<text text-anchor="middle" x="921.94" y="-478.2" font-family="Times,serif" font-size="14.00">icdo</text>
<text text-anchor="middle" x="921.94" y="-461.7" font-family="Times,serif" font-size="14.00">800</text>
</g>
<!-- doid
11,537&#45;&#45;icdo
800 -->
<g id="edge6" class="edge">
<title>doid
11,537&#45;&#45;icdo
800</title>
<path fill="none" stroke="black" d="M72.29,-294.96C131.5,-275.25 258.52,-240.19 364.72,-260 371.81,-261.32 787.68,-423.12 895.59,-465.13"/>
<text text-anchor="middle" x="471.28" y="-315.2" font-family="Times,serif" font-size="14.00">470</text>
</g>
<!-- icd10cm
21,556 -->
<g id="node8" class="node">
<title>icd10cm
21,556</title>
<ellipse fill="none" stroke="black" cx="921.94" cy="-1019" rx="44.72" ry="28.99"/>
<text text-anchor="middle" x="921.94" y="-1022.2" font-family="Times,serif" font-size="14.00">icd10cm</text>
<text text-anchor="middle" x="921.94" y="-1005.7" font-family="Times,serif" font-size="14.00">21,556</text>
</g>
<!-- doid
11,537&#45;&#45;icd10cm
21,556 -->
<g id="edge7" class="edge">
<title>doid
11,537&#45;&#45;icd10cm
21,556</title>
<path fill="none" stroke="black" d="M38.94,-336.23C39.78,-433.42 46.2,-754.23 93.66,-1014 107.56,-1090.06 85.22,-1128.96 142.41,-1181 361.04,-1379.96 518.96,-1189.32 803.72,-1110 828.7,-1103.04 839.83,-1109.22 859.22,-1092 873.5,-1079.33 865.35,-1067.95 877.22,-1053 881.05,-1048.18 885.69,-1043.65 890.51,-1039.55"/>
<text text-anchor="middle" x="471.28" y="-1255.2" font-family="Times,serif" font-size="14.00">3,583</text>
</g>
<!-- icd9cm
9,236 -->
<g id="node9" class="node">
<title>icd9cm
9,236</title>
<ellipse fill="none" stroke="black" cx="324.77" cy="-179" rx="39.95" ry="28.99"/>
<text text-anchor="middle" x="324.77" y="-182.2" font-family="Times,serif" font-size="14.00">icd9cm</text>
<text text-anchor="middle" x="324.77" y="-165.7" font-family="Times,serif" font-size="14.00">9,236</text>
</g>
<!-- doid
11,537&#45;&#45;icd9cm
9,236 -->
<g id="edge8" class="edge">
<title>doid
11,537&#45;&#45;icd9cm
9,236</title>
<path fill="none" stroke="black" d="M50.66,-279.37C59.9,-260.78 74.41,-237.01 93.66,-222 149.27,-178.65 235.2,-174.31 284.81,-176.01"/>
<text text-anchor="middle" x="180.24" y="-198.2" font-family="Times,serif" font-size="14.00">2,237</text>
</g>
<!-- orphanet.ordo
14,473 -->
<g id="node10" class="node">
<title>orphanet.ordo
14,473</title>
<ellipse fill="none" stroke="black" cx="1098.3" cy="-921" rx="64.88" ry="28.99"/>
<text text-anchor="middle" x="1098.3" y="-924.2" font-family="Times,serif" font-size="14.00">orphanet.ordo</text>
<text text-anchor="middle" x="1098.3" y="-907.7" font-family="Times,serif" font-size="14.00">14,473</text>
</g>
<!-- doid
11,537&#45;&#45;orphanet.ordo
14,473 -->
<g id="edge9" class="edge">
<title>doid
11,537&#45;&#45;orphanet.ordo
14,473</title>
<path fill="none" stroke="black" d="M39.62,-336.11C43.21,-460.9 59.25,-951 93.66,-1101 116.47,-1200.44 77.22,-1314 179.24,-1314 179.24,-1314 179.24,-1314 472.28,-1314 714.25,-1314 779.03,-1238.78 966.67,-1086 994.95,-1062.97 999.45,-1052.79 1015.42,-1020 1028.54,-993.05 1014.67,-978.39 1033.42,-955 1037.9,-949.41 1043.55,-944.63 1049.63,-940.57"/>
<text text-anchor="middle" x="541.09" y="-1315.2" font-family="Times,serif" font-size="14.00">2,426</text>
</g>
<!-- gard
12,292 -->
<g id="node11" class="node">
<title>gard
12,292</title>
<ellipse fill="none" stroke="black" cx="921.94" cy="-399" rx="37.83" ry="28.99"/>
<text text-anchor="middle" x="921.94" y="-402.2" font-family="Times,serif" font-size="14.00">gard</text>
<text text-anchor="middle" x="921.94" y="-385.7" font-family="Times,serif" font-size="14.00">12,292</text>
</g>
<!-- doid
11,537&#45;&#45;gard
12,292 -->
<g id="edge10" class="edge">
<title>doid
11,537&#45;&#45;gard
12,292</title>
<path fill="none" stroke="black" d="M47.63,-278.75C56.2,-255.03 71.25,-221.5 93.66,-199 110.84,-181.75 119.54,-182.37 142.41,-174 293.76,-118.62 346.01,-121.39 504.34,-151.5 597.9,-169.3 624.76,-170.58 709,-215 756.5,-240.05 762.98,-255.02 803.72,-290 837.25,-318.78 874.35,-353.86 897.65,-376.31"/>
<text text-anchor="middle" x="471.28" y="-155.2" font-family="Times,serif" font-size="14.00">2,110</text>
</g>
<!-- omim
20,268 -->
<g id="node12" class="node">
<title>omim
20,268</title>
<ellipse fill="none" stroke="black" cx="1282.46" cy="-703" rx="37.83" ry="28.99"/>
<text text-anchor="middle" x="1282.46" y="-706.2" font-family="Times,serif" font-size="14.00">omim</text>
<text text-anchor="middle" x="1282.46" y="-689.7" font-family="Times,serif" font-size="14.00">20,268</text>
</g>
<!-- doid
11,537&#45;&#45;omim
20,268 -->
<g id="edge11" class="edge">
<title>doid
11,537&#45;&#45;omim
20,268</title>
<path fill="none" stroke="black" d="M45.36,-278.2C53.01,-249.65 68.01,-205.97 93.66,-176 110.2,-156.67 118.44,-154.54 142.41,-146 211.72,-121.32 746.01,-67.36 803.72,-113 830.95,-134.53 801.23,-160.98 821.72,-189 926.19,-331.89 1049.43,-258.37 1163.17,-394 1235.52,-480.27 1266.42,-615.57 1276.93,-674.25"/>
<text text-anchor="middle" x="615.67" y="-101.2" font-family="Times,serif" font-size="14.00">5,938</text>
</g>
<!-- omim.ps
576 -->
<g id="node13" class="node">
<title>omim.ps
576</title>
<ellipse fill="none" stroke="black" cx="1282.46" cy="-447" rx="45.79" ry="28.99"/>
<text text-anchor="middle" x="1282.46" y="-450.2" font-family="Times,serif" font-size="14.00">omim.ps</text>
<text text-anchor="middle" x="1282.46" y="-433.7" font-family="Times,serif" font-size="14.00">576</text>
</g>
<!-- doid
11,537&#45;&#45;omim.ps
576 -->
<g id="edge12" class="edge">
<title>doid
11,537&#45;&#45;omim.ps
576</title>
<path fill="none" stroke="black" d="M41.89,-277.68C48.38,-221.08 65.3,-99.7 93.66,-70 120.94,-41.43 139.74,-46 179.24,-46 179.24,-46 179.24,-46 542.09,-46 698.26,-46 1113.22,-120.81 1218.67,-236 1265.9,-287.59 1277.69,-373.24 1280.57,-417.9"/>
<text text-anchor="middle" x="615.67" y="-57.2" font-family="Times,serif" font-size="14.00">37</text>
</g>
<!-- orphanet
15,348 -->
<g id="node14" class="node">
<title>orphanet
15,348</title>
<ellipse fill="none" stroke="black" cx="1429.22" cy="-824" rx="44.72" ry="28.99"/>
<text text-anchor="middle" x="1429.22" y="-827.2" font-family="Times,serif" font-size="14.00">orphanet</text>
<text text-anchor="middle" x="1429.22" y="-810.7" font-family="Times,serif" font-size="14.00">15,348</text>
</g>
<!-- doid
11,537&#45;&#45;orphanet
15,348 -->
<g id="edge13" class="edge">
<title>doid
11,537&#45;&#45;orphanet
15,348</title>
<path fill="none" stroke="black" d="M41.82,-278.08C48.51,-218.08 66.27,-82.61 93.66,-46 119.53,-11.42 136.06,0 179.24,0 179.24,0 179.24,0 1283.46,0 1356.57,0 1344.21,-72.37 1366.49,-142 1406.35,-266.55 1423.29,-680.71 1427.26,-794.72"/>
<text text-anchor="middle" x="690.25" y="-3.2" font-family="Times,serif" font-size="14.00">358</text>
</g>
<!-- umls
63,241&#45;&#45;efo
1,822 -->
<g id="edge14" class="edge">
<title>umls
63,241&#45;&#45;efo
1,822</title>
<path fill="none" stroke="black" d="M213.58,-690.7C238.06,-679.89 271.37,-665.16 294.94,-654.74"/>
<text text-anchor="middle" x="251.45" y="-682.2" font-family="Times,serif" font-size="14.00">1,538</text>
</g>
<!-- umls
63,241&#45;&#45;mesh
1,190 -->
<g id="edge15" class="edge">
<title>umls
63,241&#45;&#45;mesh
1,190</title>
<path fill="none" stroke="black" d="M181.75,-734.25C183.68,-808.72 192.82,-1002.77 236.07,-1047 289.39,-1101.54 387.51,-1099.8 438.15,-1094.57"/>
<text text-anchor="middle" x="324.77" y="-1099.2" font-family="Times,serif" font-size="14.00">2,201</text>
</g>
<!-- umls
63,241&#45;&#45;ncit
19,107 -->
<g id="edge16" class="edge">
<title>umls
63,241&#45;&#45;ncit
19,107</title>
<path fill="none" stroke="black" d="M184.54,-734.24C189.82,-767.96 203.16,-823.07 236.07,-857 328.29,-952.07 502,-951.86 577.77,-946.63"/>
<text text-anchor="middle" x="401.47" y="-943.2" font-family="Times,serif" font-size="14.00">18,988</text>
</g>
<!-- umls
63,241&#45;&#45;mondo
24,201 -->
<g id="edge17" class="edge">
<title>umls
63,241&#45;&#45;mondo
24,201</title>
<path fill="none" stroke="black" d="M218.16,-704.24C322.93,-702.08 621.35,-695.94 726.85,-693.77"/>
<text text-anchor="middle" x="471.28" y="-702.2" font-family="Times,serif" font-size="14.00">16,239</text>
</g>
<!-- umls
63,241&#45;&#45;icd10cm
21,556 -->
<g id="edge18" class="edge">
<title>umls
63,241&#45;&#45;icd10cm
21,556</title>
<path fill="none" stroke="black" d="M185.14,-734.24C191.18,-771.35 205.45,-836.18 236.07,-883 251.73,-906.93 260.4,-910.11 284.82,-925 457.9,-1030.55 524.4,-1029.82 727,-1037 785.73,-1039.08 801.11,-1046.74 859.22,-1038 866.76,-1036.87 874.65,-1034.99 882.17,-1032.86"/>
<text text-anchor="middle" x="541.09" y="-1031.2" font-family="Times,serif" font-size="14.00">24,995</text>
</g>
<!-- umls
63,241&#45;&#45;icd9cm
9,236 -->
<g id="edge19" class="edge">
<title>umls
63,241&#45;&#45;icd9cm
9,236</title>
<path fill="none" stroke="black" d="M184.4,-675.76C195.24,-575.74 230.58,-252.92 236.07,-243.5 248.63,-221.94 271.55,-205.47 290.82,-194.57"/>
<text text-anchor="middle" x="251.45" y="-246.2" font-family="Times,serif" font-size="14.00">9,109</text>
</g>
<!-- umls
63,241&#45;&#45;orphanet.ordo
14,473 -->
<g id="edge20" class="edge">
<title>umls
63,241&#45;&#45;orphanet.ordo
14,473</title>
<path fill="none" stroke="black" d="M209.33,-723.85C254.97,-753.21 349.13,-808.63 438.22,-829 498.72,-842.83 515.79,-828.13 577.84,-827.5 611.46,-827.16 620.07,-823.85 653.5,-827.5 754.73,-838.57 777.57,-856.02 877.22,-877 931.74,-888.48 994.02,-900.86 1038.38,-909.56"/>
<text text-anchor="middle" x="615.67" y="-830.2" font-family="Times,serif" font-size="14.00">8,068</text>
</g>
<!-- umls
63,241&#45;&#45;omim
20,268 -->
<g id="edge21" class="edge">
<title>umls
63,241&#45;&#45;omim
20,268</title>
<path fill="none" stroke="black" d="M193.12,-677.34C222.88,-612.33 307.72,-451.52 438.22,-401 548.05,-358.49 858.63,-314.13 966.67,-361 1118.81,-427 1229.54,-607.42 1267.3,-676.03"/>
<text text-anchor="middle" x="690.25" y="-353.2" font-family="Times,serif" font-size="14.00">18,057</text>
</g>
<!-- umls
63,241&#45;&#45;omim.ps
576 -->
<g id="edge22" class="edge">
<title>umls
63,241&#45;&#45;omim.ps
576</title>
<path fill="none" stroke="black" d="M187.11,-676.21C198.72,-624.68 228.49,-515.07 284.82,-440 443.21,-228.91 575.57,-228 839.47,-228 839.47,-228 839.47,-228 1099.3,-228 1155.39,-228 1178.84,-229.5 1218.67,-269 1259.62,-309.61 1273.94,-378.52 1278.89,-417.61"/>
<text text-anchor="middle" x="690.25" y="-233.2" font-family="Times,serif" font-size="14.00">33</text>
</g>
<!-- umls
63,241&#45;&#45;orphanet
15,348 -->
<g id="edge24" class="edge">
<title>umls
63,241&#45;&#45;orphanet
15,348</title>
<path fill="none" stroke="black" d="M187.4,-676.37C200.31,-616.6 229.54,-482.39 236.07,-462 253.12,-408.74 247.88,-387.99 284.82,-346 336.88,-286.82 366.69,-290.1 438.22,-257 673.68,-148.05 739.6,-95 999.04,-95 999.04,-95 999.04,-95 1283.46,-95 1428.62,-95 1430.44,-658.14 1428.75,-794.52"/>
<text text-anchor="middle" x="765.36" y="-133.2" font-family="Times,serif" font-size="14.00">8,356</text>
</g>
<!-- icd10
2,345 -->
<g id="node15" class="node">
<title>icd10
2,345</title>
<ellipse fill="none" stroke="black" cx="1282.46" cy="-1304" rx="33.06" ry="28.99"/>
<text text-anchor="middle" x="1282.46" y="-1307.2" font-family="Times,serif" font-size="14.00">icd10</text>
<text text-anchor="middle" x="1282.46" y="-1290.7" font-family="Times,serif" font-size="14.00">2,345</text>
</g>
<!-- umls
63,241&#45;&#45;icd10
2,345 -->
<g id="edge23" class="edge">
<title>umls
63,241&#45;&#45;icd10
2,345</title>
<path fill="none" stroke="black" d="M180.93,-734.29C181.07,-804.18 186.58,-985.38 236.07,-1126 249.89,-1165.28 252.62,-1179.6 284.82,-1206 340.95,-1252.02 368.51,-1241.82 438.22,-1262 482.04,-1274.68 793.85,-1349 839.47,-1349 839.47,-1349 839.47,-1349 1099.3,-1349 1154.51,-1349 1216.47,-1329.27 1252.03,-1315.94"/>
<text text-anchor="middle" x="690.25" y="-1328.2" font-family="Times,serif" font-size="14.00">5,768</text>
</g>
<!-- efo
1,822&#45;&#45;mesh
1,190 -->
<g id="edge25" class="edge">
<title>efo
1,822&#45;&#45;mesh
1,190</title>
<path fill="none" stroke="black" d="M332.26,-670.7C341.28,-708.51 359.19,-776.71 382.72,-832 396.01,-863.22 407.49,-867.05 420.22,-898.5 442.72,-954.08 457.81,-1022.87 465.13,-1061.03"/>
<text text-anchor="middle" x="401.47" y="-901.2" font-family="Times,serif" font-size="14.00">363</text>
</g>
<!-- efo
1,822&#45;&#45;ncit
19,107 -->
<g id="edge26" class="edge">
<title>efo
1,822&#45;&#45;ncit
19,107</title>
<path fill="none" stroke="black" d="M344.55,-665.39C355.43,-678.7 369.55,-695.55 382.72,-710 406.33,-735.9 412.38,-742.33 438.22,-766 490.04,-813.45 515.53,-812.47 559.84,-867 570.62,-880.27 568.14,-886.92 577.84,-901 582.24,-907.39 587.49,-913.89 592.62,-919.8"/>
<text text-anchor="middle" x="471.28" y="-818.2" font-family="Times,serif" font-size="14.00">1,222</text>
</g>
<!-- efo
1,822&#45;&#45;mondo
24,201 -->
<g id="edge27" class="edge">
<title>efo
1,822&#45;&#45;mondo
24,201</title>
<path fill="none" stroke="black" d="M358.2,-644.37C424.39,-649.43 579.69,-662.45 709,-682 715.2,-682.94 721.76,-684.09 728.11,-685.3"/>
<text text-anchor="middle" x="541.09" y="-665.2" font-family="Times,serif" font-size="14.00">1,691</text>
</g>
<!-- efo
1,822&#45;&#45;icdo
800 -->
<g id="edge28" class="edge">
<title>efo
1,822&#45;&#45;icdo
800</title>
<path fill="none" stroke="black" d="M331.38,-613.14C338.37,-585.62 353.18,-545.44 382.72,-525 466.65,-466.94 796.47,-471.44 893.78,-474.11"/>
<text text-anchor="middle" x="615.67" y="-483.2" font-family="Times,serif" font-size="14.00">72</text>
</g>
<!-- efo
1,822&#45;&#45;icd10cm
21,556 -->
<g id="edge29" class="edge">
<title>efo
1,822&#45;&#45;icd10cm
21,556</title>
<path fill="none" stroke="black" d="M340.11,-667.84C351.52,-688.3 367.97,-717.58 382.72,-743 406.88,-784.63 409.01,-797.75 438.22,-836 451.8,-853.77 557.77,-971.12 577.84,-981 676.38,-1029.49 809.65,-1028.03 877.44,-1023.29"/>
<text text-anchor="middle" x="615.67" y="-1010.2" font-family="Times,serif" font-size="14.00">309</text>
</g>
<!-- efo
1,822&#45;&#45;orphanet.ordo
14,473 -->
<g id="edge30" class="edge">
<title>efo
1,822&#45;&#45;orphanet.ordo
14,473</title>
<path fill="none" stroke="black" d="M356.11,-652.5C364.68,-655.36 374.04,-658.39 382.72,-661 526.5,-704.22 573.42,-684.01 709,-748.5 764.83,-775.06 767.52,-800.27 821.72,-830 844.98,-842.76 852.06,-843.58 877.22,-852 937.63,-872.21 954.85,-870.26 1015.42,-890 1026.4,-893.58 1038.08,-897.77 1049.07,-901.88"/>
<text text-anchor="middle" x="690.25" y="-751.2" font-family="Times,serif" font-size="14.00">184</text>
</g>
<!-- efo
1,822&#45;&#45;gard
12,292 -->
<g id="edge31" class="edge">
<title>efo
1,822&#45;&#45;gard
12,292</title>
<path fill="none" stroke="black" d="M330.23,-613.17C336.55,-581.85 351.08,-532.35 382.72,-503 456.34,-434.72 774.24,-408.35 883.72,-401.18"/>
<text text-anchor="middle" x="615.67" y="-438.2" font-family="Times,serif" font-size="14.00">304</text>
</g>
<!-- efo
1,822&#45;&#45;omim
20,268 -->
<g id="edge32" class="edge">
<title>efo
1,822&#45;&#45;omim
20,268</title>
<path fill="none" stroke="black" d="M354.34,-628.52C427.7,-595.37 629.21,-513.45 803.72,-526.5 876.75,-531.96 896.69,-529.39 966.67,-551 1077.42,-585.2 1198.14,-652.98 1252.3,-685.19"/>
<text text-anchor="middle" x="765.36" y="-529.2" font-family="Times,serif" font-size="14.00">327</text>
</g>
<!-- efo
1,822&#45;&#45;omim.ps
576 -->
<g id="edge34" class="edge">
<title>efo
1,822&#45;&#45;omim.ps
576</title>
<path fill="none" stroke="black" d="M328.83,-612.93C334.05,-576.66 347.75,-514.61 382.72,-475 393.96,-462.27 513.63,-381.66 671.5,-335 788.5,-300.42 1117.65,-221.6 1218.67,-290 1260.97,-318.64 1274.77,-380.88 1279.28,-417.81"/>
<text text-anchor="middle" x="765.36" y="-322.2" font-family="Times,serif" font-size="14.00">26</text>
</g>
<!-- efo
1,822&#45;&#45;orphanet
15,348 -->
<g id="edge36" class="edge">
<title>efo
1,822&#45;&#45;orphanet
15,348</title>
<path fill="none" stroke="black" d="M328.67,-612.75C333.87,-571.84 347.74,-496.55 382.72,-443 419.87,-386.14 447.2,-318.26 671.5,-218 774.49,-171.96 808.13,-171 920.94,-171 920.94,-171 920.94,-171 1283.46,-171 1413.08,-171 1426.71,-667.61 1428.08,-794.67"/>
<text text-anchor="middle" x="840.47" y="-176.2" font-family="Times,serif" font-size="14.00">140</text>
</g>
<!-- efo
1,822&#45;&#45;icd10
2,345 -->
<g id="edge35" class="edge">
<title>efo
1,822&#45;&#45;icd10
2,345</title>
<path fill="none" stroke="black" d="M329.2,-671.1C340.71,-764.6 380.51,-1055.5 438.22,-1128 559.51,-1280.35 644.74,-1304 839.47,-1304 839.47,-1304 839.47,-1304 1099.3,-1304 1151.79,-1304 1212.8,-1304 1249.21,-1304"/>
<text text-anchor="middle" x="765.36" y="-1306.2" font-family="Times,serif" font-size="14.00">503</text>
</g>
<!-- icd9
3,984 -->
<g id="node16" class="node">
<title>icd9
3,984</title>
<ellipse fill="none" stroke="black" cx="921.94" cy="-589" rx="33.06" ry="28.99"/>
<text text-anchor="middle" x="921.94" y="-592.2" font-family="Times,serif" font-size="14.00">icd9</text>
<text text-anchor="middle" x="921.94" y="-575.7" font-family="Times,serif" font-size="14.00">3,984</text>
</g>
<!-- efo
1,822&#45;&#45;icd9
3,984 -->
<g id="edge33" class="edge">
<title>efo
1,822&#45;&#45;icd9
3,984</title>
<path fill="none" stroke="black" d="M357.15,-635.04C451.1,-614.32 729.37,-553.95 821.72,-545 838.31,-543.39 843.35,-539.92 859.22,-545 873.76,-549.65 887.8,-559.12 898.8,-568.09"/>
<text text-anchor="middle" x="615.67" y="-590.2" font-family="Times,serif" font-size="14.00">1,167</text>
</g>
<!-- mesh
1,190&#45;&#45;ncit
19,107 -->
<g id="edge37" class="edge">
<title>mesh
1,190&#45;&#45;ncit
19,107</title>
<path fill="none" stroke="black" d="M484.19,-1062.86C492.97,-1044.92 506.17,-1021.64 522.34,-1004.5 540.05,-985.73 564.52,-969.76 583.82,-958.8"/>
<text text-anchor="middle" x="541.09" y="-1007.2" font-family="Times,serif" font-size="14.00">370</text>
</g>
<!-- mesh
1,190&#45;&#45;mondo
24,201 -->
<g id="edge38" class="edge">
<title>mesh
1,190&#45;&#45;mondo
24,201</title>
<path fill="none" stroke="black" d="M481.83,-1062.33C490.9,-1037.3 505.62,-999.76 522.34,-969 543.09,-930.82 545.44,-917.46 577.84,-888.5 606.28,-863.08 631.44,-879.12 653.5,-848 683.67,-805.44 639.36,-773.1 671.5,-732 685.18,-714.51 708.14,-704.77 727.8,-699.4"/>
<text text-anchor="middle" x="615.67" y="-891.2" font-family="Times,serif" font-size="14.00">878</text>
</g>
<!-- mesh
1,190&#45;&#45;icd10cm
21,556 -->
<g id="edge39" class="edge">
<title>mesh
1,190&#45;&#45;icd10cm
21,556</title>
<path fill="none" stroke="black" d="M504.09,-1095.45C572.17,-1105.66 735.8,-1122.49 859.22,-1073 874.55,-1066.85 888.66,-1055.19 899.51,-1044.27"/>
<text text-anchor="middle" x="690.25" y="-1109.2" font-family="Times,serif" font-size="14.00">181</text>
</g>
<!-- mesh
1,190&#45;&#45;orphanet.ordo
14,473 -->
<g id="edge40" class="edge">
<title>mesh
1,190&#45;&#45;orphanet.ordo
14,473</title>
<path fill="none" stroke="black" d="M499.66,-1105.29C506.84,-1108.69 514.72,-1111.9 522.34,-1114 546.22,-1120.57 553.17,-1116.84 577.84,-1119 636.02,-1124.11 650.83,-1132.18 709,-1127 751.6,-1123.21 762.23,-1120.4 803.72,-1110 834.01,-1102.41 957.4,-1064.09 966.67,-1057 968.01,-1055.97 1032.17,-956.14 1033.42,-955 1038.89,-950 1045.23,-945.5 1051.76,-941.53"/>
<text text-anchor="middle" x="765.36" y="-1128.2" font-family="Times,serif" font-size="14.00">120</text>
</g>
<!-- mesh
1,190&#45;&#45;orphanet
15,348 -->
<g id="edge41" class="edge">
<title>mesh
1,190&#45;&#45;orphanet
15,348</title>
<path fill="none" stroke="black" d="M492.6,-1112.64C528.38,-1149.89 606.69,-1220 689.25,-1220 689.25,-1220 689.25,-1220 1283.46,-1220 1361.6,-1220 1410.09,-944.57 1424.03,-853.12"/>
<text text-anchor="middle" x="921.94" y="-1223.2" font-family="Times,serif" font-size="14.00">112</text>
</g>
<!-- ncit
19,107&#45;&#45;mondo
24,201 -->
<g id="edge42" class="edge">
<title>ncit
19,107&#45;&#45;mondo
24,201</title>
<path fill="none" stroke="black" d="M640.25,-920.68C645.34,-914.74 650.18,-908.01 653.5,-901 674.41,-856.82 644.4,-833.18 671.5,-792.5 682.4,-776.13 694.61,-782.41 709,-769 724.52,-754.53 738.55,-735.15 748.61,-719.59"/>
<text text-anchor="middle" x="690.25" y="-795.2" font-family="Times,serif" font-size="14.00">7,203</text>
</g>
<!-- ncit
19,107&#45;&#45;icd10cm
21,556 -->
<g id="edge43" class="edge">
<title>ncit
19,107&#45;&#45;icd10cm
21,556</title>
<path fill="none" stroke="black" d="M653.39,-938.06C691.75,-934.19 753.24,-931.64 803.72,-946.5 837.46,-956.43 871.11,-978.86 893.64,-996.16"/>
<text text-anchor="middle" x="765.36" y="-949.2" font-family="Times,serif" font-size="14.00">439</text>
</g>
<!-- ncit
19,107&#45;&#45;orphanet.ordo
14,473 -->
<g id="edge44" class="edge">
<title>ncit
19,107&#45;&#45;orphanet.ordo
14,473</title>
<path fill="none" stroke="black" d="M652.19,-934.19C658.58,-932.9 665.21,-931.75 671.5,-931 739.5,-922.84 932.05,-921.25 1033.29,-921"/>
<text text-anchor="middle" x="840.47" y="-926.2" font-family="Times,serif" font-size="14.00">416</text>
</g>
<!-- ncit
19,107&#45;&#45;omim
20,268 -->
<g id="edge45" class="edge">
<title>ncit
19,107&#45;&#45;omim
20,268</title>
<path fill="none" stroke="black" d="M648.79,-928.65C688.98,-910.81 760.05,-879.72 821.72,-855 868.33,-836.32 985.78,-791.88 1033.42,-776 1108.58,-750.95 1198.01,-725.74 1246.3,-712.5"/>
<text text-anchor="middle" x="921.94" y="-836.2" font-family="Times,serif" font-size="14.00">120</text>
</g>
<!-- ncit
19,107&#45;&#45;orphanet
15,348 -->
<g id="edge46" class="edge">
<title>ncit
19,107&#45;&#45;orphanet
15,348</title>
<path fill="none" stroke="black" d="M646.29,-960.33C693.35,-986.85 788.95,-1036.56 877.22,-1057 1025.17,-1091.27 1069.68,-1099.4 1218.67,-1070 1270.32,-1059.81 1287.86,-1058.77 1328.24,-1025 1382.81,-979.37 1410.38,-896.65 1421.72,-852.91"/>
<text text-anchor="middle" x="1000.04" y="-1087.2" font-family="Times,serif" font-size="14.00">411</text>
</g>
<!-- mondo
24,201&#45;&#45;icdo
800 -->
<g id="edge47" class="edge">
<title>mondo
24,201&#45;&#45;icdo
800</title>
<path fill="none" stroke="black" d="M778.45,-665.46C788.03,-646.05 802.91,-620.41 821.72,-602.5 835.47,-589.4 845.64,-595.28 859.22,-582 859.64,-581.59 888.66,-531.17 906.75,-499.7"/>
<text text-anchor="middle" x="840.47" y="-605.2" font-family="Times,serif" font-size="14.00">732</text>
</g>
<!-- mondo
24,201&#45;&#45;icd10cm
21,556 -->
<g id="edge48" class="edge">
<title>mondo
24,201&#45;&#45;icd10cm
21,556</title>
<path fill="none" stroke="black" d="M782.01,-719.36C801.35,-752.43 834.69,-811.16 859.22,-863.5 879.56,-906.9 899.32,-958.95 910.8,-990.47"/>
<text text-anchor="middle" x="840.47" y="-866.2" font-family="Times,serif" font-size="14.00">1,656</text>
</g>
<!-- mondo
24,201&#45;&#45;orphanet.ordo
14,473 -->
<g id="edge49" class="edge">
<title>mondo
24,201&#45;&#45;orphanet.ordo
14,473</title>
<path fill="none" stroke="black" d="M789.26,-716.21C798.66,-724.68 810.07,-733.72 821.72,-740 880.81,-771.86 910.92,-745.1 966.67,-782.5 1006.13,-808.97 1000.44,-831.8 1033.42,-866 1043.27,-876.22 1054.83,-886.59 1065.38,-895.53"/>
<text text-anchor="middle" x="921.94" y="-785.2" font-family="Times,serif" font-size="14.00">9,559</text>
</g>
<!-- mondo
24,201&#45;&#45;gard
12,292 -->
<g id="edge50" class="edge">
<title>mondo
24,201&#45;&#45;gard
12,292</title>
<path fill="none" stroke="black" d="M774.09,-664.3C788.47,-614.49 822.89,-510.37 877.22,-437 882.01,-430.53 888.07,-424.4 894.15,-419.02"/>
<text text-anchor="middle" x="840.47" y="-532.2" font-family="Times,serif" font-size="14.00">11,839</text>
</g>
<!-- mondo
24,201&#45;&#45;omim
20,268 -->
<g id="edge51" class="edge">
<title>mondo
24,201&#45;&#45;omim
20,268</title>
<path fill="none" stroke="black" d="M803.82,-693.73C899.09,-695.58 1149.75,-700.44 1244.49,-702.28"/>
<text text-anchor="middle" x="1000.04" y="-700.2" font-family="Times,serif" font-size="14.00">9,872</text>
</g>
<!-- mondo
24,201&#45;&#45;omim.ps
576 -->
<g id="edge53" class="edge">
<title>mondo
24,201&#45;&#45;omim.ps
576</title>
<path fill="none" stroke="black" d="M801.9,-683.63C842.59,-672.38 910.81,-651.87 966.67,-627 1075.08,-578.73 1194.51,-503.96 1249.96,-467.88"/>
<text text-anchor="middle" x="1000.04" y="-620.2" font-family="Times,serif" font-size="14.00">580</text>
</g>
<!-- mondo
24,201&#45;&#45;orphanet
15,348 -->
<g id="edge54" class="edge">
<title>mondo
24,201&#45;&#45;orphanet
15,348</title>
<path fill="none" stroke="black" d="M801.56,-703.52C898.22,-732.38 1161.85,-810.84 1181.17,-814 1251.49,-825.5 1334.49,-826.29 1384.16,-825.43"/>
<text text-anchor="middle" x="1098.3" y="-812.2" font-family="Times,serif" font-size="14.00">2,048</text>
</g>
<!-- mondo
24,201&#45;&#45;icd9
3,984 -->
<g id="edge52" class="edge">
<title>mondo
24,201&#45;&#45;icd9
3,984</title>
<path fill="none" stroke="black" d="M790.34,-670.67C799.79,-662.34 810.95,-653.08 821.72,-645.5 834.36,-636.6 868.44,-617.57 893.14,-604.05"/>
<text text-anchor="middle" x="840.47" y="-648.2" font-family="Times,serif" font-size="14.00">4,342</text>
</g>
<!-- icd10cm
21,556&#45;&#45;orphanet.ordo
14,473 -->
<g id="edge55" class="edge">
<title>icd10cm
21,556&#45;&#45;orphanet.ordo
14,473</title>
<path fill="none" stroke="black" d="M946.18,-994.32C957.1,-983.77 970.76,-971.96 984.67,-963.5 1002.7,-952.53 1024.04,-943.6 1043.26,-936.81"/>
<text text-anchor="middle" x="1000.04" y="-966.2" font-family="Times,serif" font-size="14.00">151</text>
</g>
<!-- icd10cm
21,556&#45;&#45;omim
20,268 -->
<g id="edge56" class="edge">
<title>icd10cm
21,556&#45;&#45;omim
20,268</title>
<path fill="none" stroke="black" d="M966.87,-1019.96C1019.98,-1018.73 1108.95,-1008.63 1163.17,-959 1181.21,-942.49 1171.76,-929.57 1181.17,-907 1208.29,-841.98 1246.35,-768.45 1266.9,-729.89"/>
<text text-anchor="middle" x="1098.3" y="-1016.2" font-family="Times,serif" font-size="14.00">38</text>
</g>
<!-- icd10cm
21,556&#45;&#45;orphanet
15,348 -->
<g id="edge57" class="edge">
<title>icd10cm
21,556&#45;&#45;orphanet
15,348</title>
<path fill="none" stroke="black" d="M963.43,-1030.57C1021.12,-1045.17 1129.86,-1065.71 1218.67,-1042 1296.04,-1021.34 1319.46,-1003.8 1366.49,-939 1386.72,-911.13 1404.69,-875.81 1415.95,-851.72"/>
<text text-anchor="middle" x="1199.92" y="-1052.2" font-family="Times,serif" font-size="14.00">140</text>
</g>
<!-- orphanet.ordo
14,473&#45;&#45;omim
20,268 -->
<g id="edge58" class="edge">
<title>orphanet.ordo
14,473&#45;&#45;omim
20,268</title>
<path fill="none" stroke="black" d="M1135,-896.88C1145.44,-888.24 1155.96,-877.72 1163.17,-866 1180.57,-837.72 1161.69,-820.38 1181.17,-793.5 1192.72,-777.57 1203.49,-782.5 1218.67,-770 1234.18,-757.23 1249.63,-740.8 1261.33,-727.41"/>
<text text-anchor="middle" x="1199.92" y="-796.2" font-family="Times,serif" font-size="14.00">11,166</text>
</g>
<!-- orphanet.ordo
14,473&#45;&#45;omim.ps
576 -->
<g id="edge59" class="edge">
<title>orphanet.ordo
14,473&#45;&#45;omim.ps
576</title>
<path fill="none" stroke="black" d="M1135.98,-896.98C1146.33,-888.41 1156.57,-877.9 1163.17,-866 1188.59,-820.19 1167.04,-799.95 1181.17,-749.5 1192.91,-707.57 1204.14,-700.04 1218.67,-659 1241.55,-594.41 1263.05,-516.82 1273.97,-475.77"/>
<text text-anchor="middle" x="1199.92" y="-752.2" font-family="Times,serif" font-size="14.00">26</text>
</g>
<!-- orphanet.ordo
14,473&#45;&#45;orphanet
15,348 -->
<g id="edge61" class="edge">
<title>orphanet.ordo
14,473&#45;&#45;orphanet
15,348</title>
<path fill="none" stroke="black" d="M1148.22,-940.01C1196.34,-955.55 1270.72,-970.94 1328.24,-944 1368.64,-925.08 1398.4,-880.92 1414.51,-851.78"/>
<text text-anchor="middle" x="1282.46" y="-961.2" font-family="Times,serif" font-size="14.00">2,159</text>
</g>
<!-- orphanet.ordo
14,473&#45;&#45;icd10
2,345 -->
<g id="edge60" class="edge">
<title>orphanet.ordo
14,473&#45;&#45;icd10
2,345</title>
<path fill="none" stroke="black" d="M1132.31,-946.08C1163.59,-970.48 1207.41,-1006.56 1218.67,-1025.5 1266.95,-1106.64 1278.15,-1221.24 1280.71,-1274.57"/>
<text text-anchor="middle" x="1199.92" y="-1028.2" font-family="Times,serif" font-size="14.00">7,623</text>
</g>
<!-- icd11
69,477 -->
<g id="node17" class="node">
<title>icd11
69,477</title>
<ellipse fill="none" stroke="black" cx="1282.46" cy="-906" rx="37.83" ry="28.99"/>
<text text-anchor="middle" x="1282.46" y="-909.2" font-family="Times,serif" font-size="14.00">icd11</text>
<text text-anchor="middle" x="1282.46" y="-892.7" font-family="Times,serif" font-size="14.00">69,477</text>
</g>
<!-- orphanet.ordo
14,473&#45;&#45;icd11
69,477 -->
<g id="edge62" class="edge">
<title>orphanet.ordo
14,473&#45;&#45;icd11
69,477</title>
<path fill="none" stroke="black" d="M1162.5,-915.8C1189.83,-913.55 1220.87,-910.99 1244.39,-909.05"/>
<text text-anchor="middle" x="1199.92" y="-916.2" font-family="Times,serif" font-size="14.00">5,484</text>
</g>
<!-- omim
20,268&#45;&#45;orphanet
15,348 -->
<g id="edge63" class="edge">
<title>omim
20,268&#45;&#45;orphanet
15,348</title>
<path fill="none" stroke="black" d="M1308.67,-724.08C1334.43,-745.61 1374.31,-778.94 1400.83,-801.11"/>
<text text-anchor="middle" x="1356.37" y="-773.2" font-family="Times,serif" font-size="14.00">136</text>
</g>
<!-- omim.ps
576&#45;&#45;orphanet
15,348 -->
<g id="edge64" class="edge">
<title>omim.ps
576&#45;&#45;orphanet
15,348</title>
<path fill="none" stroke="black" d="M1294.34,-475.34C1321.2,-545.29 1390.42,-725.57 1417.31,-795.59"/>
<text text-anchor="middle" x="1356.37" y="-661.2" font-family="Times,serif" font-size="14.00">23</text>
</g>
</g>
</svg>
