<?xml version="1.0" encoding="UTF-8" standalone="no"?>
<!DOCTYPE svg PUBLIC "-//W3C//DTD SVG 1.1//EN"
 "http://www.w3.org/Graphics/SVG/1.1/DTD/svg11.dtd">
<!-- Generated by graphviz version 13.1.0 (20250701.0955)
 -->
<!-- Pages: 1 -->
<svg width="445pt" height="128pt"
 viewBox="0.00 0.00 445.00 128.00" xmlns="http://www.w3.org/2000/svg" xmlns:xlink="http://www.w3.org/1999/xlink">
<g id="graph0" class="graph" transform="scale(1 1) rotate(0) translate(4 124.1)">
<polygon fill="white" stroke="none" points="-4,4 -4,-124.1 441.21,-124.1 441.21,4 -4,4"/>
<!-- bto -->
<g id="node1" class="node">
<title>bto</title>
<ellipse fill="none" stroke="black" cx="27" cy="-48.1" rx="27" ry="18"/>
<text xml:space="preserve" text-anchor="middle" x="27" y="-43.05" font-family="Times,serif" font-size="14.00">bto</text>
</g>
<!-- uberon -->
<g id="node2" class="node">
<title>uberon</title>
<ellipse fill="none" stroke="black" cx="157.26" cy="-48.1" rx="36.51" ry="18"/>
<text xml:space="preserve" text-anchor="middle" x="157.26" y="-43.05" font-family="Times,serif" font-size="14.00">uberon</text>
</g>
<!-- bto&#45;&#45;uberon -->
<g id="edge1" class="edge">
<title>bto&#45;&#45;uberon</title>
<path fill="none" stroke="black" stroke-width="2.7" d="M54.26,-48.1C73.32,-48.1 99.32,-48.1 120.31,-48.1"/>
<text xml:space="preserve" text-anchor="middle" x="87.38" y="-51.3" font-family="Times,serif" font-size="14.00">1,412</text>
</g>
<!-- mesh -->
<g id="node3" class="node">
<title>mesh</title>
<ellipse fill="none" stroke="black" cx="291.4" cy="-102.1" rx="30.88" ry="18"/>
<text xml:space="preserve" text-anchor="middle" x="291.4" y="-97.05" font-family="Times,serif" font-size="14.00">mesh</text>
</g>
<!-- uberon&#45;&#45;mesh -->
<g id="edge2" class="edge">
<title>uberon&#45;&#45;mesh</title>
<path fill="none" stroke="black" stroke-width="2.22" d="M186.28,-59.55C209.77,-69.15 242.98,-82.72 265.53,-91.94"/>
<text xml:space="preserve" text-anchor="middle" x="227.14" y="-84.72" font-family="Times,serif" font-size="14.00">1,018</text>
</g>
<!-- ncit -->
<g id="node4" class="node">
<title>ncit</title>
<ellipse fill="none" stroke="black" cx="291.4" cy="-48.1" rx="27" ry="18"/>
<text xml:space="preserve" text-anchor="middle" x="291.4" y="-43.05" font-family="Times,serif" font-size="14.00">ncit</text>
</g>
<!-- uberon&#45;&#45;ncit -->
<g id="edge3" class="edge">
<title>uberon&#45;&#45;ncit</title>
<path fill="none" stroke="black" stroke-width="4" d="M194.02,-48.1C216.18,-48.1 244.16,-48.1 264.25,-48.1"/>
<text xml:space="preserve" text-anchor="middle" x="227.14" y="-51.3" font-family="Times,serif" font-size="14.00">2,481</text>
</g>
<!-- umls -->
<g id="node5" class="node">
<title>umls</title>
<ellipse fill="none" stroke="black" cx="407.87" cy="-48.1" rx="29.34" ry="18"/>
<text xml:space="preserve" text-anchor="middle" x="407.87" y="-43.05" font-family="Times,serif" font-size="14.00">umls</text>
</g>
<!-- uberon&#45;&#45;umls -->
<g id="edge4" class="edge">
<title>uberon&#45;&#45;umls</title>
<path fill="none" stroke="black" stroke-width="1.37" d="M182.16,-34.66C202.33,-24.14 232.35,-10.34 260.52,-4.6 287.41,0.88 295.6,1.86 322.28,-4.6 346.19,-10.39 370.93,-24.17 387.42,-34.69"/>
<text xml:space="preserve" text-anchor="middle" x="291.4" y="-7.8" font-family="Times,serif" font-size="14.00">323</text>
</g>
<!-- mesh&#45;&#45;umls -->
<g id="edge5" class="edge">
<title>mesh&#45;&#45;umls</title>
<path fill="none" stroke="black" stroke-width="1.04" d="M316.12,-90.91C336.02,-81.52 364.29,-68.19 383.96,-58.91"/>
<text xml:space="preserve" text-anchor="middle" x="350.4" y="-81.53" font-family="Times,serif" font-size="14.00">46</text>
</g>
<!-- ncit&#45;&#45;umls -->
<g id="edge6" class="edge">
<title>ncit&#45;&#45;umls</title>
<path fill="none" stroke="black" stroke-width="1.23" d="M318.66,-48.1C336.48,-48.1 360.04,-48.1 378.32,-48.1"/>
<text xml:space="preserve" text-anchor="middle" x="350.4" y="-51.3" font-family="Times,serif" font-size="14.00">208</text>
</g>
</g>
</svg>
