<?xml version="1.0" encoding="UTF-8" standalone="no"?>
<!DOCTYPE svg PUBLIC "-//W3C//DTD SVG 1.1//EN"
 "http://www.w3.org/Graphics/SVG/1.1/DTD/svg11.dtd">
<!-- Generated by graphviz version 13.1.0 (20250701.0955)
 -->
<!-- Pages: 1 -->
<svg width="594pt" height="247pt"
 viewBox="0.00 0.00 594.00 247.00" xmlns="http://www.w3.org/2000/svg" xmlns:xlink="http://www.w3.org/1999/xlink">
<g id="graph0" class="graph" transform="scale(1 1) rotate(0) translate(4 243.49)">
<polygon fill="white" stroke="none" points="-4,4 -4,-243.49 590.12,-243.49 590.12,4 -4,4"/>
<!-- mesh
1,797 -->
<g id="node1" class="node">
<title>mesh
1,797</title>
<ellipse fill="none" stroke="black" cx="33.06" cy="-112.99" rx="33.06" ry="28.99"/>
<text xml:space="preserve" text-anchor="middle" x="33.06" y="-116.19" font-family="Times,serif" font-size="14.00">mesh</text>
<text xml:space="preserve" text-anchor="middle" x="33.06" y="-99.69" font-family="Times,serif" font-size="14.00">1,797</text>
</g>
<!-- ncit
7,579 -->
<g id="node2" class="node">
<title>ncit
7,579</title>
<ellipse fill="none" stroke="black" cx="155.42" cy="-141.99" rx="33.06" ry="28.99"/>
<text xml:space="preserve" text-anchor="middle" x="155.42" y="-145.19" font-family="Times,serif" font-size="14.00">ncit</text>
<text xml:space="preserve" text-anchor="middle" x="155.42" y="-128.69" font-family="Times,serif" font-size="14.00">7,579</text>
</g>
<!-- mesh
1,797&#45;&#45;ncit
7,579 -->
<g id="edge1" class="edge">
<title>mesh
1,797&#45;&#45;ncit
7,579</title>
<path fill="none" stroke="black" d="M65.37,-120.54C83.2,-124.83 105.46,-130.2 123.27,-134.49"/>
<text xml:space="preserve" text-anchor="middle" x="94.24" y="-132.43" font-family="Times,serif" font-size="14.00">859</text>
</g>
<!-- uberon
15,693 -->
<g id="node3" class="node">
<title>uberon
15,693</title>
<ellipse fill="none" stroke="black" cx="293.06" cy="-28.99" rx="37.83" ry="28.99"/>
<text xml:space="preserve" text-anchor="middle" x="293.06" y="-32.19" font-family="Times,serif" font-size="14.00">uberon</text>
<text xml:space="preserve" text-anchor="middle" x="293.06" y="-15.69" font-family="Times,serif" font-size="14.00">15,693</text>
</g>
<!-- mesh
1,797&#45;&#45;uberon
15,693 -->
<g id="edge2" class="edge">
<title>mesh
1,797&#45;&#45;uberon
15,693</title>
<path fill="none" stroke="black" d="M53.66,-89.9C62.31,-80.69 73.03,-70.51 84.11,-62.99 135.73,-27.98 210.83,-24.52 255.24,-26.12"/>
<text xml:space="preserve" text-anchor="middle" x="155.42" y="-46.49" font-family="Times,serif" font-size="14.00">1,107</text>
</g>
<!-- bto
6,566 -->
<g id="node4" class="node">
<title>bto
6,566</title>
<ellipse fill="none" stroke="black" cx="430.7" cy="-96.99" rx="33.06" ry="28.99"/>
<text xml:space="preserve" text-anchor="middle" x="430.7" y="-100.19" font-family="Times,serif" font-size="14.00">bto</text>
<text xml:space="preserve" text-anchor="middle" x="430.7" y="-83.69" font-family="Times,serif" font-size="14.00">6,566</text>
</g>
<!-- mesh
1,797&#45;&#45;bto
6,566 -->
<g id="edge3" class="edge">
<title>mesh
1,797&#45;&#45;bto
6,566</title>
<path fill="none" stroke="black" d="M64.86,-103.96C99.09,-94.43 156.18,-80.04 206.48,-74.49 274.81,-66.96 355.02,-80.51 398.26,-89.65"/>
<text xml:space="preserve" text-anchor="middle" x="221.85" y="-77.69" font-family="Times,serif" font-size="14.00">602</text>
</g>
<!-- umls
7,719 -->
<g id="node5" class="node">
<title>umls
7,719</title>
<ellipse fill="none" stroke="black" cx="553.06" cy="-164.99" rx="33.06" ry="28.99"/>
<text xml:space="preserve" text-anchor="middle" x="553.06" y="-168.19" font-family="Times,serif" font-size="14.00">umls</text>
<text xml:space="preserve" text-anchor="middle" x="553.06" y="-151.69" font-family="Times,serif" font-size="14.00">7,719</text>
</g>
<!-- mesh
1,797&#45;&#45;umls
7,719 -->
<g id="edge4" class="edge">
<title>mesh
1,797&#45;&#45;umls
7,719</title>
<path fill="none" stroke="black" d="M47.87,-139.34C67.04,-171.88 105.02,-222.99 154.42,-222.99 154.42,-222.99 154.42,-222.99 431.7,-222.99 468.11,-222.99 505.13,-201.18 528.32,-184.3"/>
<text xml:space="preserve" text-anchor="middle" x="293.06" y="-226.19" font-family="Times,serif" font-size="14.00">170</text>
</g>
<!-- ncit
7,579&#45;&#45;uberon
15,693 -->
<g id="edge5" class="edge">
<title>ncit
7,579&#45;&#45;uberon
15,693</title>
<path fill="none" stroke="black" d="M184.93,-128.55C201.17,-120.16 221.37,-108.41 237.23,-94.99 251.22,-83.16 264.42,-67.46 274.37,-54.34"/>
<text xml:space="preserve" text-anchor="middle" x="221.85" y="-118.87" font-family="Times,serif" font-size="14.00">2,536</text>
</g>
<!-- ncit
7,579&#45;&#45;bto
6,566 -->
<g id="edge6" class="edge">
<title>ncit
7,579&#45;&#45;bto
6,566</title>
<path fill="none" stroke="black" d="M188.76,-140C203.57,-138.88 221.33,-137.24 237.23,-134.99 294.39,-126.9 360.23,-112.86 398.2,-104.3"/>
<text xml:space="preserve" text-anchor="middle" x="293.06" y="-135.11" font-family="Times,serif" font-size="14.00">813</text>
</g>
<!-- ncit
7,579&#45;&#45;umls
7,719 -->
<g id="edge7" class="edge">
<title>ncit
7,579&#45;&#45;umls
7,719</title>
<path fill="none" stroke="black" d="M188.1,-148.37C194.18,-149.4 200.51,-150.34 206.48,-150.99 321.08,-163.55 458.17,-165.15 519.55,-165.16"/>
<text xml:space="preserve" text-anchor="middle" x="364.26" y="-165.76" font-family="Times,serif" font-size="14.00">547</text>
</g>
<!-- uberon
15,693&#45;&#45;bto
6,566 -->
<g id="edge8" class="edge">
<title>uberon
15,693&#45;&#45;bto
6,566</title>
<path fill="none" stroke="black" d="M329.87,-36.73C345.7,-40.98 364.18,-47.12 379.64,-55.49 389.76,-60.97 399.77,-68.68 408.14,-75.96"/>
<text xml:space="preserve" text-anchor="middle" x="364.26" y="-58.69" font-family="Times,serif" font-size="14.00">1,465</text>
</g>
<!-- uberon
15,693&#45;&#45;umls
7,719 -->
<g id="edge9" class="edge">
<title>uberon
15,693&#45;&#45;umls
7,719</title>
<path fill="none" stroke="black" d="M330.37,-23.48C366.56,-19.82 422.55,-19.29 463.75,-42.49 501.45,-63.71 527.24,-108.47 540.81,-137.6"/>
<text xml:space="preserve" text-anchor="middle" x="430.7" y="-45.69" font-family="Times,serif" font-size="14.00">344</text>
</g>
<!-- bto
6,566&#45;&#45;umls
7,719 -->
<g id="edge10" class="edge">
<title>bto
6,566&#45;&#45;umls
7,719</title>
<path fill="none" stroke="black" d="M459.01,-112.42C478.71,-123.55 505.18,-138.51 524.86,-149.62"/>
<text xml:space="preserve" text-anchor="middle" x="491.88" y="-138.26" font-family="Times,serif" font-size="14.00">150</text>
</g>
</g>
</svg>
