<?xml version="1.0" encoding="UTF-8" standalone="no"?>
<!DOCTYPE svg PUBLIC "-//W3C//DTD SVG 1.1//EN"
 "http://www.w3.org/Graphics/SVG/1.1/DTD/svg11.dtd">
<!-- Generated by graphviz version 10.0.1 (20240210.2158)
 -->
<!-- Pages: 1 -->
<svg width="811pt" height="314pt"
 viewBox="0.00 0.00 810.69 313.50" xmlns="http://www.w3.org/2000/svg" xmlns:xlink="http://www.w3.org/1999/xlink">
<g id="graph0" class="graph" transform="scale(1 1) rotate(0) translate(4 309.5)">
<polygon fill="white" stroke="none" points="-4,4 -4,-309.5 806.69,-309.5 806.69,4 -4,4"/>
<!-- bto
6,511 -->
<g id="node1" class="node">
<title>bto
6,511</title>
<ellipse fill="none" stroke="black" cx="33.06" cy="-177" rx="33.06" ry="28.99"/>
<text text-anchor="middle" x="33.06" y="-180.2" font-family="Times,serif" font-size="14.00">bto</text>
<text text-anchor="middle" x="33.06" y="-163.7" font-family="Times,serif" font-size="14.00">6,511</text>
</g>
<!-- cl
2,746 -->
<g id="node2" class="node">
<title>cl
2,746</title>
<ellipse fill="none" stroke="black" cx="239.54" cy="-249" rx="33.06" ry="28.99"/>
<text text-anchor="middle" x="239.54" y="-252.2" font-family="Times,serif" font-size="14.00">cl</text>
<text text-anchor="middle" x="239.54" y="-235.7" font-family="Times,serif" font-size="14.00">2,746</text>
</g>
<!-- bto
6,511&#45;&#45;cl
2,746 -->
<g id="edge1" class="edge">
<title>bto
6,511&#45;&#45;cl
2,746</title>
<path fill="none" stroke="black" d="M59.5,-194.77C67.16,-199.55 75.76,-204.4 84.11,-208 124.87,-225.57 175,-237.19 206.87,-243.44"/>
<text text-anchor="middle" x="94.24" y="-219.2" font-family="Times,serif" font-size="14.00">328</text>
</g>
<!-- ccle
1,061 -->
<g id="node3" class="node">
<title>ccle
1,061</title>
<ellipse fill="none" stroke="black" cx="155.42" cy="-129" rx="33.06" ry="28.99"/>
<text text-anchor="middle" x="155.42" y="-132.2" font-family="Times,serif" font-size="14.00">ccle</text>
<text text-anchor="middle" x="155.42" y="-115.7" font-family="Times,serif" font-size="14.00">1,061</text>
</g>
<!-- bto
6,511&#45;&#45;ccle
1,061 -->
<g id="edge2" class="edge">
<title>bto
6,511&#45;&#45;ccle
1,061</title>
<path fill="none" stroke="black" d="M63.5,-165.26C82.15,-157.82 106.19,-148.23 124.86,-140.79"/>
<text text-anchor="middle" x="94.24" y="-159.2" font-family="Times,serif" font-size="14.00">641</text>
</g>
<!-- cellosaurus
148,681 -->
<g id="node4" class="node">
<title>cellosaurus
148,681</title>
<ellipse fill="none" stroke="black" cx="344.86" cy="-194" rx="54.27" ry="28.99"/>
<text text-anchor="middle" x="344.86" y="-197.2" font-family="Times,serif" font-size="14.00">cellosaurus</text>
<text text-anchor="middle" x="344.86" y="-180.7" font-family="Times,serif" font-size="14.00">148,681</text>
</g>
<!-- bto
6,511&#45;&#45;cellosaurus
148,681 -->
<g id="edge3" class="edge">
<title>bto
6,511&#45;&#45;cellosaurus
148,681</title>
<path fill="none" stroke="black" d="M66.34,-178.77C119.49,-181.69 225.98,-187.53 290.49,-191.07"/>
<text text-anchor="middle" x="155.42" y="-189.2" font-family="Times,serif" font-size="14.00">2,415</text>
</g>
<!-- depmap
1,719 -->
<g id="node5" class="node">
<title>depmap
1,719</title>
<ellipse fill="none" stroke="black" cx="507.96" cy="-129" rx="42.07" ry="28.99"/>
<text text-anchor="middle" x="507.96" y="-132.2" font-family="Times,serif" font-size="14.00">depmap</text>
<text text-anchor="middle" x="507.96" y="-115.7" font-family="Times,serif" font-size="14.00">1,719</text>
</g>
<!-- bto
6,511&#45;&#45;depmap
1,719 -->
<g id="edge4" class="edge">
<title>bto
6,511&#45;&#45;depmap
1,719</title>
<path fill="none" stroke="black" d="M51.38,-152.85C67.35,-132.63 92.97,-104.92 122.36,-91 253.19,-29.04 311.72,-30.88 447.88,-80 461.8,-85.02 474.75,-94.9 484.96,-104.48"/>
<text text-anchor="middle" x="239.54" y="-60.2" font-family="Times,serif" font-size="14.00">668</text>
</g>
<!-- mesh
636 -->
<g id="node6" class="node">
<title>mesh
636</title>
<ellipse fill="none" stroke="black" cx="507.96" cy="-259" rx="32" ry="28.99"/>
<text text-anchor="middle" x="507.96" y="-262.2" font-family="Times,serif" font-size="14.00">mesh</text>
<text text-anchor="middle" x="507.96" y="-245.7" font-family="Times,serif" font-size="14.00">636</text>
</g>
<!-- bto
6,511&#45;&#45;mesh
636 -->
<g id="edge5" class="edge">
<title>bto
6,511&#45;&#45;mesh
636</title>
<path fill="none" stroke="black" d="M50.71,-202C59.51,-213.63 71.15,-226.88 84.11,-236 131.62,-269.45 149.32,-271.61 206.48,-282 304.28,-299.78 422.43,-278.5 476.84,-266.34"/>
<text text-anchor="middle" x="239.54" y="-292.2" font-family="Times,serif" font-size="14.00">62</text>
</g>
<!-- clo
39,080 -->
<g id="node7" class="node">
<title>clo
39,080</title>
<ellipse fill="none" stroke="black" cx="654.61" cy="-129" rx="37.83" ry="28.99"/>
<text text-anchor="middle" x="654.61" y="-132.2" font-family="Times,serif" font-size="14.00">clo</text>
<text text-anchor="middle" x="654.61" y="-115.7" font-family="Times,serif" font-size="14.00">39,080</text>
</g>
<!-- bto
6,511&#45;&#45;clo
39,080 -->
<g id="edge6" class="edge">
<title>bto
6,511&#45;&#45;clo
39,080</title>
<path fill="none" stroke="black" d="M39.76,-148.17C51.54,-98.01 83.63,0 154.42,0 154.42,0 154.42,0 508.96,0 569.86,0 616.95,-64.49 639.32,-102.27"/>
<text text-anchor="middle" x="344.86" y="-3.2" font-family="Times,serif" font-size="14.00">1,435</text>
</g>
<!-- cl
2,746&#45;&#45;mesh
636 -->
<g id="edge7" class="edge">
<title>cl
2,746&#45;&#45;mesh
636</title>
<path fill="none" stroke="black" d="M272.94,-250.22C324.53,-252.15 424.69,-255.91 475.61,-257.82"/>
<text text-anchor="middle" x="344.86" y="-258.2" font-family="Times,serif" font-size="14.00">84</text>
</g>
<!-- ccle
1,061&#45;&#45;cellosaurus
148,681 -->
<g id="edge8" class="edge">
<title>ccle
1,061&#45;&#45;cellosaurus
148,681</title>
<path fill="none" stroke="black" d="M187.31,-137.12C210.9,-143.58 244.1,-153.21 272.59,-163.5 282.47,-167.07 292.94,-171.29 302.73,-175.44"/>
<text text-anchor="middle" x="239.54" y="-167.2" font-family="Times,serif" font-size="14.00">1,655</text>
</g>
<!-- ccle
1,061&#45;&#45;depmap
1,719 -->
<g id="edge9" class="edge">
<title>ccle
1,061&#45;&#45;depmap
1,719</title>
<path fill="none" stroke="black" d="M188.77,-129C252.67,-129 394.98,-129 465.59,-129"/>
<text text-anchor="middle" x="344.86" y="-132.2" font-family="Times,serif" font-size="14.00">1,536</text>
</g>
<!-- ccle
1,061&#45;&#45;clo
39,080 -->
<g id="edge10" class="edge">
<title>ccle
1,061&#45;&#45;clo
39,080</title>
<path fill="none" stroke="black" d="M187.27,-120.37C253.93,-102.96 416.19,-67.22 550.03,-91 574.92,-95.42 601.69,-105.39 621.77,-114"/>
<text text-anchor="middle" x="432.51" y="-87.2" font-family="Times,serif" font-size="14.00">1,416</text>
</g>
<!-- cellosaurus
148,681&#45;&#45;depmap
1,719 -->
<g id="edge11" class="edge">
<title>cellosaurus
148,681&#45;&#45;depmap
1,719</title>
<path fill="none" stroke="black" d="M387.59,-175.83C397.26,-171.71 407.53,-167.4 417.13,-163.5 434.63,-156.4 454.18,-148.85 470.56,-142.62"/>
<text text-anchor="middle" x="432.51" y="-167.2" font-family="Times,serif" font-size="14.00">1,912</text>
</g>
<!-- cellosaurus
148,681&#45;&#45;mesh
636 -->
<g id="edge12" class="edge">
<title>cellosaurus
148,681&#45;&#45;mesh
636</title>
<path fill="none" stroke="black" d="M392.63,-208.18C410.18,-213.92 430.16,-220.98 447.88,-228.5 458.62,-233.05 470.07,-238.76 480.02,-244"/>
<text text-anchor="middle" x="432.51" y="-232.2" font-family="Times,serif" font-size="14.00">32</text>
</g>
<!-- cellosaurus
148,681&#45;&#45;clo
39,080 -->
<g id="edge13" class="edge">
<title>cellosaurus
148,681&#45;&#45;clo
39,080</title>
<path fill="none" stroke="black" d="M398.91,-190.21C440.47,-186.46 499.52,-179.44 550.03,-167 574.39,-161 600.95,-151.19 621.07,-143.04"/>
<text text-anchor="middle" x="507.96" y="-186.2" font-family="Times,serif" font-size="14.00">34,150</text>
</g>
<!-- depmap
1,719&#45;&#45;clo
39,080 -->
<g id="edge14" class="edge">
<title>depmap
1,719&#45;&#45;clo
39,080</title>
<path fill="none" stroke="black" d="M550.41,-129C571.28,-129 596.37,-129 616.59,-129"/>
<text text-anchor="middle" x="583.41" y="-132.2" font-family="Times,serif" font-size="14.00">1,472</text>
</g>
<!-- mesh
636&#45;&#45;clo
39,080 -->
<g id="edge15" class="edge">
<title>mesh
636&#45;&#45;clo
39,080</title>
<path fill="none" stroke="black" d="M536.84,-245.99C555.64,-236.36 580.3,-222 598.78,-205 614.47,-190.57 628.46,-171.01 638.38,-155.35"/>
<text text-anchor="middle" x="583.41" y="-231.2" font-family="Times,serif" font-size="14.00">34</text>
</g>
<!-- umls
6,057 -->
<g id="node8" class="node">
<title>umls
6,057</title>
<ellipse fill="none" stroke="black" cx="654.61" cy="-267" rx="33.06" ry="28.99"/>
<text text-anchor="middle" x="654.61" y="-270.2" font-family="Times,serif" font-size="14.00">umls</text>
<text text-anchor="middle" x="654.61" y="-253.7" font-family="Times,serif" font-size="14.00">6,057</text>
</g>
<!-- mesh
636&#45;&#45;umls
6,057 -->
<g id="edge16" class="edge">
<title>mesh
636&#45;&#45;umls
6,057</title>
<path fill="none" stroke="black" d="M540.34,-260.74C564.28,-262.06 597.12,-263.88 621.28,-265.21"/>
<text text-anchor="middle" x="583.41" y="-267.2" font-family="Times,serif" font-size="14.00">433</text>
</g>
<!-- ncit
503 -->
<g id="node9" class="node">
<title>ncit
503</title>
<ellipse fill="none" stroke="black" cx="775.69" cy="-267" rx="27" ry="28.99"/>
<text text-anchor="middle" x="775.69" y="-270.2" font-family="Times,serif" font-size="14.00">ncit</text>
<text text-anchor="middle" x="775.69" y="-253.7" font-family="Times,serif" font-size="14.00">503</text>
</g>
<!-- umls
6,057&#45;&#45;ncit
503 -->
<g id="edge17" class="edge">
<title>umls
6,057&#45;&#45;ncit
503</title>
<path fill="none" stroke="black" d="M688.15,-267C707.02,-267 730.48,-267 748.21,-267"/>
<text text-anchor="middle" x="720.57" y="-270.2" font-family="Times,serif" font-size="14.00">495</text>
</g>
</g>
</svg>
