<?xml version="1.0" encoding="UTF-8" standalone="no"?>
<!DOCTYPE svg PUBLIC "-//W3C//DTD SVG 1.1//EN"
 "http://www.w3.org/Graphics/SVG/1.1/DTD/svg11.dtd">
<!-- Generated by graphviz version 12.0.0 (20240704.0754)
 -->
<!-- Pages: 1 -->
<svg width="522pt" height="233pt"
 viewBox="0.00 0.00 521.71 232.98" xmlns="http://www.w3.org/2000/svg" xmlns:xlink="http://www.w3.org/1999/xlink">
<g id="graph0" class="graph" transform="scale(1 1) rotate(0) translate(4 228.98)">
<polygon fill="white" stroke="none" points="-4,4 -4,-228.98 517.71,-228.98 517.71,4 -4,4"/>
<!-- bto
6,511 -->
<g id="node1" class="node">
<title>bto
6,511</title>
<ellipse fill="none" stroke="black" cx="33.06" cy="-195.99" rx="33.06" ry="28.99"/>
<text text-anchor="middle" x="33.06" y="-199.19" font-family="Times,serif" font-size="14.00">bto</text>
<text text-anchor="middle" x="33.06" y="-182.69" font-family="Times,serif" font-size="14.00">6,511</text>
</g>
<!-- cl
3,060 -->
<g id="node2" class="node">
<title>cl
3,060</title>
<ellipse fill="none" stroke="black" cx="176.63" cy="-195.99" rx="33.06" ry="28.99"/>
<text text-anchor="middle" x="176.63" y="-199.19" font-family="Times,serif" font-size="14.00">cl</text>
<text text-anchor="middle" x="176.63" y="-182.69" font-family="Times,serif" font-size="14.00">3,060</text>
</g>
<!-- bto
6,511&#45;&#45;cl
3,060 -->
<g id="edge1" class="edge">
<title>bto
6,511&#45;&#45;cl
3,060</title>
<path fill="none" stroke="black" d="M66.54,-195.99C89.56,-195.99 120.32,-195.99 143.31,-195.99"/>
<text text-anchor="middle" x="94.24" y="-199.19" font-family="Times,serif" font-size="14.00">74</text>
</g>
<!-- mesh
636 -->
<g id="node3" class="node">
<title>mesh
636</title>
<ellipse fill="none" stroke="black" cx="339.73" cy="-195.99" rx="32" ry="28.99"/>
<text text-anchor="middle" x="339.73" y="-199.19" font-family="Times,serif" font-size="14.00">mesh</text>
<text text-anchor="middle" x="339.73" y="-182.69" font-family="Times,serif" font-size="14.00">636</text>
</g>
<!-- cl
3,060&#45;&#45;mesh
636 -->
<g id="edge2" class="edge">
<title>cl
3,060&#45;&#45;mesh
636</title>
<path fill="none" stroke="black" d="M209.85,-195.99C238.22,-195.99 279.29,-195.99 307.39,-195.99"/>
<text text-anchor="middle" x="264.28" y="-199.19" font-family="Times,serif" font-size="14.00">81</text>
</g>
<!-- clo
39,099 -->
<g id="node7" class="node">
<title>clo
39,099</title>
<ellipse fill="none" stroke="black" cx="475.88" cy="-115.99" rx="37.83" ry="28.99"/>
<text text-anchor="middle" x="475.88" y="-119.19" font-family="Times,serif" font-size="14.00">clo</text>
<text text-anchor="middle" x="475.88" y="-102.69" font-family="Times,serif" font-size="14.00">39,099</text>
</g>
<!-- mesh
636&#45;&#45;clo
39,099 -->
<g id="edge9" class="edge">
<title>mesh
636&#45;&#45;clo
39,099</title>
<path fill="none" stroke="black" d="M368.26,-181.91C383.7,-173.8 403.17,-163.23 420.05,-152.99 429.08,-147.51 438.71,-141.19 447.33,-135.34"/>
<text text-anchor="middle" x="409.93" y="-167.19" font-family="Times,serif" font-size="14.00">34</text>
</g>
<!-- ccle
1,061 -->
<g id="node4" class="node">
<title>ccle
1,061</title>
<ellipse fill="none" stroke="black" cx="33.06" cy="-81.99" rx="33.06" ry="28.99"/>
<text text-anchor="middle" x="33.06" y="-85.19" font-family="Times,serif" font-size="14.00">ccle</text>
<text text-anchor="middle" x="33.06" y="-68.69" font-family="Times,serif" font-size="14.00">1,061</text>
</g>
<!-- cellosaurus
161,202 -->
<g id="node5" class="node">
<title>cellosaurus
161,202</title>
<ellipse fill="none" stroke="black" cx="176.63" cy="-81.99" rx="54.27" ry="28.99"/>
<text text-anchor="middle" x="176.63" y="-85.19" font-family="Times,serif" font-size="14.00">cellosaurus</text>
<text text-anchor="middle" x="176.63" y="-68.69" font-family="Times,serif" font-size="14.00">161,202</text>
</g>
<!-- ccle
1,061&#45;&#45;cellosaurus
161,202 -->
<g id="edge3" class="edge">
<title>ccle
1,061&#45;&#45;cellosaurus
161,202</title>
<path fill="none" stroke="black" d="M66.54,-81.99C82.95,-81.99 103.29,-81.99 121.94,-81.99"/>
<text text-anchor="middle" x="94.24" y="-85.19" font-family="Times,serif" font-size="14.00">113</text>
</g>
<!-- depmap
1,814 -->
<g id="node6" class="node">
<title>depmap
1,814</title>
<ellipse fill="none" stroke="black" cx="339.73" cy="-28.99" rx="42.07" ry="28.99"/>
<text text-anchor="middle" x="339.73" y="-32.19" font-family="Times,serif" font-size="14.00">depmap</text>
<text text-anchor="middle" x="339.73" y="-15.69" font-family="Times,serif" font-size="14.00">1,814</text>
</g>
<!-- ccle
1,061&#45;&#45;depmap
1,814 -->
<g id="edge4" class="edge">
<title>ccle
1,061&#45;&#45;depmap
1,814</title>
<path fill="none" stroke="black" d="M57.8,-62.25C74.65,-49.58 98.45,-34.28 122.36,-27.49 181.81,-10.62 254.2,-16.05 298.35,-22.09"/>
<text text-anchor="middle" x="176.63" y="-31.19" font-family="Times,serif" font-size="14.00">49</text>
</g>
<!-- ccle
1,061&#45;&#45;clo
39,099 -->
<g id="edge5" class="edge">
<title>ccle
1,061&#45;&#45;clo
39,099</title>
<path fill="none" stroke="black" d="M61.78,-97.14C78.74,-105.58 101.18,-115.31 122.36,-119.99 235.47,-144.98 374,-130.84 438.55,-121.76"/>
<text text-anchor="middle" x="264.28" y="-137.19" font-family="Times,serif" font-size="14.00">43</text>
</g>
<!-- cellosaurus
161,202&#45;&#45;depmap
1,814 -->
<g id="edge6" class="edge">
<title>cellosaurus
161,202&#45;&#45;depmap
1,814</title>
<path fill="none" stroke="black" d="M223.37,-66.95C248.02,-58.84 278.05,-48.95 301.3,-41.31"/>
<text text-anchor="middle" x="264.28" y="-61.19" font-family="Times,serif" font-size="14.00">1,678</text>
</g>
<!-- cellosaurus
161,202&#45;&#45;clo
39,099 -->
<g id="edge7" class="edge">
<title>cellosaurus
161,202&#45;&#45;clo
39,099</title>
<path fill="none" stroke="black" d="M230.09,-87.99C289.76,-94.82 385.66,-105.79 437.96,-111.77"/>
<text text-anchor="middle" x="339.73" y="-108.19" font-family="Times,serif" font-size="14.00">540</text>
</g>
<!-- depmap
1,814&#45;&#45;clo
39,099 -->
<g id="edge8" class="edge">
<title>depmap
1,814&#45;&#45;clo
39,099</title>
<path fill="none" stroke="black" d="M377.66,-41.89C391.52,-47.53 407.05,-54.84 420.05,-63.49 432.12,-71.52 443.94,-82.34 453.5,-92.08"/>
<text text-anchor="middle" x="409.93" y="-67.19" font-family="Times,serif" font-size="14.00">474</text>
</g>
</g>
</svg>
