<?xml version="1.0" encoding="UTF-8" standalone="no"?>
<!DOCTYPE svg PUBLIC "-//W3C//DTD SVG 1.1//EN"
 "http://www.w3.org/Graphics/SVG/1.1/DTD/svg11.dtd">
<!-- Generated by graphviz version 12.0.0 (20240704.0754)
 -->
<!-- Pages: 1 -->
<svg width="811pt" height="319pt"
 viewBox="0.00 0.00 810.69 319.49" xmlns="http://www.w3.org/2000/svg" xmlns:xlink="http://www.w3.org/1999/xlink">
<g id="graph0" class="graph" transform="scale(1 1) rotate(0) translate(4 315.49)">
<polygon fill="white" stroke="none" points="-4,4 -4,-315.49 806.69,-315.49 806.69,4 -4,4"/>
<!-- bto
6,511 -->
<g id="node1" class="node">
<title>bto
6,511</title>
<ellipse fill="none" stroke="black" cx="33.06" cy="-165.99" rx="33.06" ry="28.99"/>
<text text-anchor="middle" x="33.06" y="-169.19" font-family="Times,serif" font-size="14.00">bto</text>
<text text-anchor="middle" x="33.06" y="-152.69" font-family="Times,serif" font-size="14.00">6,511</text>
</g>
<!-- cl
3,060 -->
<g id="node2" class="node">
<title>cl
3,060</title>
<ellipse fill="none" stroke="black" cx="239.54" cy="-40.99" rx="33.06" ry="28.99"/>
<text text-anchor="middle" x="239.54" y="-44.19" font-family="Times,serif" font-size="14.00">cl</text>
<text text-anchor="middle" x="239.54" y="-27.69" font-family="Times,serif" font-size="14.00">3,060</text>
</g>
<!-- bto
6,511&#45;&#45;cl
3,060 -->
<g id="edge1" class="edge">
<title>bto
6,511&#45;&#45;cl
3,060</title>
<path fill="none" stroke="black" d="M41.54,-137.71C48.79,-115.94 62.02,-86.89 84.11,-70.49 119.73,-44.06 172.35,-39.3 206.04,-39.35"/>
<text text-anchor="middle" x="94.24" y="-73.19" font-family="Times,serif" font-size="14.00">74</text>
</g>
<!-- ccle
1,061 -->
<g id="node3" class="node">
<title>ccle
1,061</title>
<ellipse fill="none" stroke="black" cx="155.42" cy="-165.99" rx="33.06" ry="28.99"/>
<text text-anchor="middle" x="155.42" y="-169.19" font-family="Times,serif" font-size="14.00">ccle</text>
<text text-anchor="middle" x="155.42" y="-152.69" font-family="Times,serif" font-size="14.00">1,061</text>
</g>
<!-- bto
6,511&#45;&#45;ccle
1,061 -->
<g id="edge2" class="edge">
<title>bto
6,511&#45;&#45;ccle
1,061</title>
<path fill="none" stroke="black" d="M66.31,-165.99C83.58,-165.99 104.79,-165.99 122.08,-165.99"/>
<text text-anchor="middle" x="94.24" y="-169.19" font-family="Times,serif" font-size="14.00">641</text>
</g>
<!-- cellosaurus
161,202 -->
<g id="node4" class="node">
<title>cellosaurus
161,202</title>
<ellipse fill="none" stroke="black" cx="344.86" cy="-100.99" rx="54.27" ry="28.99"/>
<text text-anchor="middle" x="344.86" y="-104.19" font-family="Times,serif" font-size="14.00">cellosaurus</text>
<text text-anchor="middle" x="344.86" y="-87.69" font-family="Times,serif" font-size="14.00">161,202</text>
</g>
<!-- bto
6,511&#45;&#45;cellosaurus
161,202 -->
<g id="edge3" class="edge">
<title>bto
6,511&#45;&#45;cellosaurus
161,202</title>
<path fill="none" stroke="black" d="M57.91,-146.61C74.81,-134.11 98.61,-118.84 122.36,-111.49 178.08,-94.25 245.43,-93.74 291.12,-96.19"/>
<text text-anchor="middle" x="155.42" y="-114.19" font-family="Times,serif" font-size="14.00">2,433</text>
</g>
<!-- depmap
1,814 -->
<g id="node5" class="node">
<title>depmap
1,814</title>
<ellipse fill="none" stroke="black" cx="507.96" cy="-163.99" rx="42.07" ry="28.99"/>
<text text-anchor="middle" x="507.96" y="-167.19" font-family="Times,serif" font-size="14.00">depmap</text>
<text text-anchor="middle" x="507.96" y="-150.69" font-family="Times,serif" font-size="14.00">1,814</text>
</g>
<!-- bto
6,511&#45;&#45;depmap
1,814 -->
<g id="edge4" class="edge">
<title>bto
6,511&#45;&#45;depmap
1,814</title>
<path fill="none" stroke="black" d="M62.63,-179.69C79.7,-187.51 101.96,-197.11 122.36,-203.99 247.18,-246.12 285.44,-231.87 417.13,-234.99 430.8,-235.32 435.51,-240.79 447.88,-234.99 467.19,-225.94 482.38,-207.13 492.52,-191.14"/>
<text text-anchor="middle" x="239.54" y="-237.19" font-family="Times,serif" font-size="14.00">668</text>
</g>
<!-- clo
39,099 -->
<g id="node6" class="node">
<title>clo
39,099</title>
<ellipse fill="none" stroke="black" cx="654.61" cy="-163.99" rx="37.83" ry="28.99"/>
<text text-anchor="middle" x="654.61" y="-167.19" font-family="Times,serif" font-size="14.00">clo</text>
<text text-anchor="middle" x="654.61" y="-150.69" font-family="Times,serif" font-size="14.00">39,099</text>
</g>
<!-- bto
6,511&#45;&#45;clo
39,099 -->
<g id="edge5" class="edge">
<title>bto
6,511&#45;&#45;clo
39,099</title>
<path fill="none" stroke="black" d="M45.01,-193.35C62.18,-231.22 99.29,-294.99 154.42,-294.99 154.42,-294.99 154.42,-294.99 508.96,-294.99 570.45,-294.99 617.46,-229.14 639.61,-190.82"/>
<text text-anchor="middle" x="344.86" y="-298.19" font-family="Times,serif" font-size="14.00">1,436</text>
</g>
<!-- mesh
636 -->
<g id="node7" class="node">
<title>mesh
636</title>
<ellipse fill="none" stroke="black" cx="507.96" cy="-35.99" rx="32" ry="28.99"/>
<text text-anchor="middle" x="507.96" y="-39.19" font-family="Times,serif" font-size="14.00">mesh</text>
<text text-anchor="middle" x="507.96" y="-22.69" font-family="Times,serif" font-size="14.00">636</text>
</g>
<!-- cl
3,060&#45;&#45;mesh
636 -->
<g id="edge6" class="edge">
<title>cl
3,060&#45;&#45;mesh
636</title>
<path fill="none" stroke="black" d="M272.94,-40.38C324.53,-39.42 424.69,-37.54 475.61,-36.58"/>
<text text-anchor="middle" x="344.86" y="-43.19" font-family="Times,serif" font-size="14.00">81</text>
</g>
<!-- ccle
1,061&#45;&#45;cellosaurus
161,202 -->
<g id="edge7" class="edge">
<title>ccle
1,061&#45;&#45;cellosaurus
161,202</title>
<path fill="none" stroke="black" d="M182.13,-148.3C189.72,-143.64 198.22,-138.95 206.48,-135.49 234.04,-123.95 266.38,-115.59 292.77,-110"/>
<text text-anchor="middle" x="239.54" y="-138.19" font-family="Times,serif" font-size="14.00">1,655</text>
</g>
<!-- ccle
1,061&#45;&#45;depmap
1,814 -->
<g id="edge8" class="edge">
<title>ccle
1,061&#45;&#45;depmap
1,814</title>
<path fill="none" stroke="black" d="M188.77,-165.81C252.67,-165.44 394.98,-164.63 465.59,-164.23"/>
<text text-anchor="middle" x="344.86" y="-168.19" font-family="Times,serif" font-size="14.00">1,629</text>
</g>
<!-- ccle
1,061&#45;&#45;clo
39,099 -->
<g id="edge9" class="edge">
<title>ccle
1,061&#45;&#45;clo
39,099</title>
<path fill="none" stroke="black" d="M187.22,-174.84C193.55,-176.42 200.2,-177.9 206.48,-178.99 357.27,-205.07 399.15,-227.54 550.03,-201.99 574.96,-197.77 601.72,-187.8 621.79,-179.13"/>
<text text-anchor="middle" x="432.51" y="-216.19" font-family="Times,serif" font-size="14.00">1,417</text>
</g>
<!-- cellosaurus
161,202&#45;&#45;depmap
1,814 -->
<g id="edge10" class="edge">
<title>cellosaurus
161,202&#45;&#45;depmap
1,814</title>
<path fill="none" stroke="black" d="M392.52,-115.43C410.06,-121.2 430.06,-128.21 447.88,-135.49 456.32,-138.94 465.25,-143.01 473.54,-146.99"/>
<text text-anchor="middle" x="432.51" y="-138.19" font-family="Times,serif" font-size="14.00">1,913</text>
</g>
<!-- cellosaurus
161,202&#45;&#45;clo
39,099 -->
<g id="edge12" class="edge">
<title>cellosaurus
161,202&#45;&#45;clo
39,099</title>
<path fill="none" stroke="black" d="M398.85,-96.89C440.64,-95.16 500.02,-96.03 550.03,-109.49 577.3,-116.83 605.5,-132.27 625.57,-144.85"/>
<text text-anchor="middle" x="507.96" y="-112.19" font-family="Times,serif" font-size="14.00">34,153</text>
</g>
<!-- cellosaurus
161,202&#45;&#45;mesh
636 -->
<g id="edge11" class="edge">
<title>cellosaurus
161,202&#45;&#45;mesh
636</title>
<path fill="none" stroke="black" d="M387.59,-82.83C397.26,-78.7 407.53,-74.39 417.13,-70.49 437.41,-62.26 460.46,-53.42 478.13,-46.75"/>
<text text-anchor="middle" x="432.51" y="-73.19" font-family="Times,serif" font-size="14.00">32</text>
</g>
<!-- depmap
1,814&#45;&#45;clo
39,099 -->
<g id="edge13" class="edge">
<title>depmap
1,814&#45;&#45;clo
39,099</title>
<path fill="none" stroke="black" d="M550.41,-163.99C571.28,-163.99 596.37,-163.99 616.59,-163.99"/>
<text text-anchor="middle" x="583.41" y="-167.19" font-family="Times,serif" font-size="14.00">1,473</text>
</g>
<!-- mesh
636&#45;&#45;clo
39,099 -->
<g id="edge14" class="edge">
<title>mesh
636&#45;&#45;clo
39,099</title>
<path fill="none" stroke="black" d="M539.51,-42.28C558.26,-47.37 581.84,-56.12 598.78,-70.49 619.44,-88.02 634.21,-115.41 643.17,-136.03"/>
<text text-anchor="middle" x="583.41" y="-73.19" font-family="Times,serif" font-size="14.00">34</text>
</g>
<!-- umls
6,312 -->
<g id="node8" class="node">
<title>umls
6,312</title>
<ellipse fill="none" stroke="black" cx="654.61" cy="-28.99" rx="33.06" ry="28.99"/>
<text text-anchor="middle" x="654.61" y="-32.19" font-family="Times,serif" font-size="14.00">umls</text>
<text text-anchor="middle" x="654.61" y="-15.69" font-family="Times,serif" font-size="14.00">6,312</text>
</g>
<!-- mesh
636&#45;&#45;umls
6,312 -->
<g id="edge15" class="edge">
<title>mesh
636&#45;&#45;umls
6,312</title>
<path fill="none" stroke="black" d="M540.2,-32.64C549.17,-31.8 558.98,-30.99 568.03,-30.49 585.54,-29.52 605.09,-29.13 621.08,-28.99"/>
<text text-anchor="middle" x="583.41" y="-33.19" font-family="Times,serif" font-size="14.00">433</text>
</g>
<!-- ncit
503 -->
<g id="node9" class="node">
<title>ncit
503</title>
<ellipse fill="none" stroke="black" cx="775.69" cy="-28.99" rx="27" ry="28.99"/>
<text text-anchor="middle" x="775.69" y="-32.19" font-family="Times,serif" font-size="14.00">ncit</text>
<text text-anchor="middle" x="775.69" y="-15.69" font-family="Times,serif" font-size="14.00">503</text>
</g>
<!-- umls
6,312&#45;&#45;ncit
503 -->
<g id="edge16" class="edge">
<title>umls
6,312&#45;&#45;ncit
503</title>
<path fill="none" stroke="black" d="M688.15,-28.99C707.02,-28.99 730.48,-28.99 748.21,-28.99"/>
<text text-anchor="middle" x="720.57" y="-32.19" font-family="Times,serif" font-size="14.00">498</text>
</g>
</g>
</svg>
