<?xml version="1.0" encoding="UTF-8" standalone="no"?>
<!DOCTYPE svg PUBLIC "-//W3C//DTD SVG 1.1//EN"
 "http://www.w3.org/Graphics/SVG/1.1/DTD/svg11.dtd">
<!-- Generated by graphviz version 12.2.1 (20241206.2353)
 -->
<!-- Pages: 1 -->
<svg width="486pt" height="181pt"
 viewBox="0.00 0.00 486.43 180.98" xmlns="http://www.w3.org/2000/svg" xmlns:xlink="http://www.w3.org/1999/xlink">
<g id="graph0" class="graph" transform="scale(1 1) rotate(0) translate(4 176.98)">
<polygon fill="white" stroke="none" points="-4,4 -4,-176.98 482.43,-176.98 482.43,4 -4,4"/>
<!-- bto
6,570 -->
<g id="node1" class="node">
<title>bto
6,570</title>
<ellipse fill="none" stroke="black" cx="33.06" cy="-143.99" rx="33.06" ry="28.99"/>
<text text-anchor="middle" x="33.06" y="-147.19" font-family="Times,serif" font-size="14.00">bto</text>
<text text-anchor="middle" x="33.06" y="-130.69" font-family="Times,serif" font-size="14.00">6,570</text>
</g>
<!-- cl
3,046 -->
<g id="node2" class="node">
<title>cl
3,046</title>
<ellipse fill="none" stroke="black" cx="148.67" cy="-143.99" rx="33.06" ry="28.99"/>
<text text-anchor="middle" x="148.67" y="-147.19" font-family="Times,serif" font-size="14.00">cl</text>
<text text-anchor="middle" x="148.67" y="-130.69" font-family="Times,serif" font-size="14.00">3,046</text>
</g>
<!-- bto
6,570&#45;&#45;cl
3,046 -->
<g id="edge1" class="edge">
<title>bto
6,570&#45;&#45;cl
3,046</title>
<path fill="none" stroke="black" d="M66.31,-143.99C81.66,-143.99 99.98,-143.99 115.34,-143.99"/>
<text text-anchor="middle" x="90.86" y="-147.19" font-family="Times,serif" font-size="14.00">74</text>
</g>
<!-- mesh
636 -->
<g id="node3" class="node">
<title>mesh
636</title>
<ellipse fill="none" stroke="black" cx="292.25" cy="-143.99" rx="32" ry="28.99"/>
<text text-anchor="middle" x="292.25" y="-147.19" font-family="Times,serif" font-size="14.00">mesh</text>
<text text-anchor="middle" x="292.25" y="-130.69" font-family="Times,serif" font-size="14.00">636</text>
</g>
<!-- cl
3,046&#45;&#45;mesh
636 -->
<g id="edge2" class="edge">
<title>cl
3,046&#45;&#45;mesh
636</title>
<path fill="none" stroke="black" d="M182.15,-143.99C205.5,-143.99 236.81,-143.99 259.89,-143.99"/>
<text text-anchor="middle" x="209.85" y="-147.19" font-family="Times,serif" font-size="14.00">81</text>
</g>
<!-- clo
39,125 -->
<g id="node6" class="node">
<title>clo
39,125</title>
<ellipse fill="none" stroke="black" cx="440.6" cy="-67.99" rx="37.83" ry="28.99"/>
<text text-anchor="middle" x="440.6" y="-71.19" font-family="Times,serif" font-size="14.00">clo</text>
<text text-anchor="middle" x="440.6" y="-54.69" font-family="Times,serif" font-size="14.00">39,125</text>
</g>
<!-- mesh
636&#45;&#45;clo
39,125 -->
<g id="edge6" class="edge">
<title>mesh
636&#45;&#45;clo
39,125</title>
<path fill="none" stroke="black" d="M320.43,-129.87C345.48,-116.87 382.62,-97.58 408.76,-84.01"/>
<text text-anchor="middle" x="374.64" y="-109.19" font-family="Times,serif" font-size="14.00">34</text>
</g>
<!-- ccle
1,061 -->
<g id="node4" class="node">
<title>ccle
1,061</title>
<ellipse fill="none" stroke="black" cx="148.67" cy="-28.99" rx="33.06" ry="28.99"/>
<text text-anchor="middle" x="148.67" y="-32.19" font-family="Times,serif" font-size="14.00">ccle</text>
<text text-anchor="middle" x="148.67" y="-15.69" font-family="Times,serif" font-size="14.00">1,061</text>
</g>
<!-- cellosaurus
159,463 -->
<g id="node5" class="node">
<title>cellosaurus
159,463</title>
<ellipse fill="none" stroke="black" cx="292.25" cy="-67.99" rx="54.27" ry="28.99"/>
<text text-anchor="middle" x="292.25" y="-71.19" font-family="Times,serif" font-size="14.00">cellosaurus</text>
<text text-anchor="middle" x="292.25" y="-54.69" font-family="Times,serif" font-size="14.00">159,463</text>
</g>
<!-- ccle
1,061&#45;&#45;cellosaurus
159,463 -->
<g id="edge3" class="edge">
<title>ccle
1,061&#45;&#45;cellosaurus
159,463</title>
<path fill="none" stroke="black" d="M180.74,-37.55C199.14,-42.62 222.82,-49.14 243.55,-54.85"/>
<text text-anchor="middle" x="209.85" y="-50.52" font-family="Times,serif" font-size="14.00">113</text>
</g>
<!-- ccle
1,061&#45;&#45;clo
39,125 -->
<g id="edge4" class="edge">
<title>ccle
1,061&#45;&#45;clo
39,125</title>
<path fill="none" stroke="black" d="M180.62,-20.18C219.91,-10.43 289.45,1.99 346.52,-13.49 370.92,-20.11 395.47,-34.9 413.23,-47.41"/>
<text text-anchor="middle" x="292.25" y="-16.69" font-family="Times,serif" font-size="14.00">43</text>
</g>
<!-- cellosaurus
159,463&#45;&#45;clo
39,125 -->
<g id="edge5" class="edge">
<title>cellosaurus
159,463&#45;&#45;clo
39,125</title>
<path fill="none" stroke="black" d="M346.91,-67.99C365.35,-67.99 385.57,-67.99 402.41,-67.99"/>
<text text-anchor="middle" x="374.64" y="-71.19" font-family="Times,serif" font-size="14.00">540</text>
</g>
</g>
</svg>
