<?xml version="1.0" encoding="UTF-8" standalone="no"?>
<!DOCTYPE svg PUBLIC "-//W3C//DTD SVG 1.1//EN"
 "http://www.w3.org/Graphics/SVG/1.1/DTD/svg11.dtd">
<!-- Generated by graphviz version 12.2.1 (20241206.2353)
 -->
<!-- Pages: 1 -->
<svg width="700pt" height="358pt"
 viewBox="0.00 0.00 700.44 358.49" xmlns="http://www.w3.org/2000/svg" xmlns:xlink="http://www.w3.org/1999/xlink">
<g id="graph0" class="graph" transform="scale(1 1) rotate(0) translate(4 354.49)">
<polygon fill="white" stroke="none" points="-4,4 -4,-354.49 696.44,-354.49 696.44,4 -4,4"/>
<!-- bto
6,570 -->
<g id="node1" class="node">
<title>bto
6,570</title>
<ellipse fill="none" stroke="black" cx="33.06" cy="-161.99" rx="33.06" ry="28.99"/>
<text text-anchor="middle" x="33.06" y="-165.19" font-family="Times,serif" font-size="14.00">bto</text>
<text text-anchor="middle" x="33.06" y="-148.69" font-family="Times,serif" font-size="14.00">6,570</text>
</g>
<!-- cl
3,046 -->
<g id="node2" class="node">
<title>cl
3,046</title>
<ellipse fill="none" stroke="black" cx="239.54" cy="-28.99" rx="33.06" ry="28.99"/>
<text text-anchor="middle" x="239.54" y="-32.19" font-family="Times,serif" font-size="14.00">cl</text>
<text text-anchor="middle" x="239.54" y="-15.69" font-family="Times,serif" font-size="14.00">3,046</text>
</g>
<!-- bto
6,570&#45;&#45;cl
3,046 -->
<g id="edge1" class="edge">
<title>bto
6,570&#45;&#45;cl
3,046</title>
<path fill="none" stroke="black" d="M38.94,-133.09C44.92,-107.18 57.72,-70.29 84.11,-50.49 119.52,-23.93 172.69,-22.53 206.49,-24.98"/>
<text text-anchor="middle" x="94.24" y="-53.69" font-family="Times,serif" font-size="14.00">330</text>
</g>
<!-- ccle
1,061 -->
<g id="node3" class="node">
<title>ccle
1,061</title>
<ellipse fill="none" stroke="black" cx="155.42" cy="-193.99" rx="33.06" ry="28.99"/>
<text text-anchor="middle" x="155.42" y="-197.19" font-family="Times,serif" font-size="14.00">ccle</text>
<text text-anchor="middle" x="155.42" y="-180.69" font-family="Times,serif" font-size="14.00">1,061</text>
</g>
<!-- bto
6,570&#45;&#45;ccle
1,061 -->
<g id="edge2" class="edge">
<title>bto
6,570&#45;&#45;ccle
1,061</title>
<path fill="none" stroke="black" d="M65.05,-170.23C83.02,-175.01 105.58,-181.01 123.53,-185.78"/>
<text text-anchor="middle" x="94.24" y="-183.11" font-family="Times,serif" font-size="14.00">641</text>
</g>
<!-- cellosaurus
159,463 -->
<g id="node4" class="node">
<title>cellosaurus
159,463</title>
<ellipse fill="none" stroke="black" cx="344.86" cy="-137.99" rx="54.27" ry="28.99"/>
<text text-anchor="middle" x="344.86" y="-141.19" font-family="Times,serif" font-size="14.00">cellosaurus</text>
<text text-anchor="middle" x="344.86" y="-124.69" font-family="Times,serif" font-size="14.00">159,463</text>
</g>
<!-- bto
6,570&#45;&#45;cellosaurus
159,463 -->
<g id="edge3" class="edge">
<title>bto
6,570&#45;&#45;cellosaurus
159,463</title>
<path fill="none" stroke="black" d="M64.35,-152.33C81.24,-147.44 102.75,-142.02 122.36,-139.49 179.58,-132.12 245.79,-132.87 290.81,-134.76"/>
<text text-anchor="middle" x="155.42" y="-142.69" font-family="Times,serif" font-size="14.00">2,436</text>
</g>
<!-- depmap
1,814 -->
<g id="node5" class="node">
<title>depmap
1,814</title>
<ellipse fill="none" stroke="black" cx="507.96" cy="-255.99" rx="42.07" ry="28.99"/>
<text text-anchor="middle" x="507.96" y="-259.19" font-family="Times,serif" font-size="14.00">depmap</text>
<text text-anchor="middle" x="507.96" y="-242.69" font-family="Times,serif" font-size="14.00">1,814</text>
</g>
<!-- bto
6,570&#45;&#45;depmap
1,814 -->
<g id="edge4" class="edge">
<title>bto
6,570&#45;&#45;depmap
1,814</title>
<path fill="none" stroke="black" d="M55.32,-183.61C72.1,-199.39 96.85,-220.05 122.36,-231.99 237.64,-285.94 393.99,-272.96 466.69,-262.73"/>
<text text-anchor="middle" x="239.54" y="-272.03" font-family="Times,serif" font-size="14.00">668</text>
</g>
<!-- mesh
636 -->
<g id="node6" class="node">
<title>mesh
636</title>
<ellipse fill="none" stroke="black" cx="507.96" cy="-80.99" rx="32" ry="28.99"/>
<text text-anchor="middle" x="507.96" y="-84.19" font-family="Times,serif" font-size="14.00">mesh</text>
<text text-anchor="middle" x="507.96" y="-67.69" font-family="Times,serif" font-size="14.00">636</text>
</g>
<!-- bto
6,570&#45;&#45;mesh
636 -->
<g id="edge5" class="edge">
<title>bto
6,570&#45;&#45;mesh
636</title>
<path fill="none" stroke="black" d="M62.24,-147.85C69.28,-144.66 76.88,-141.48 84.11,-138.99 100.63,-133.32 105.31,-133.77 122.36,-129.99 159.64,-121.73 168.89,-119.19 206.48,-112.49 303.82,-95.15 420.72,-86.27 475.61,-82.79"/>
<text text-anchor="middle" x="239.54" y="-115.69" font-family="Times,serif" font-size="14.00">62</text>
</g>
<!-- clo
39,125 -->
<g id="node7" class="node">
<title>clo
39,125</title>
<ellipse fill="none" stroke="black" cx="654.61" cy="-190.99" rx="37.83" ry="28.99"/>
<text text-anchor="middle" x="654.61" y="-194.19" font-family="Times,serif" font-size="14.00">clo</text>
<text text-anchor="middle" x="654.61" y="-177.69" font-family="Times,serif" font-size="14.00">39,125</text>
</g>
<!-- bto
6,570&#45;&#45;clo
39,125 -->
<g id="edge6" class="edge">
<title>bto
6,570&#45;&#45;clo
39,125</title>
<path fill="none" stroke="black" d="M40.22,-190.78C52.59,-239.74 85.36,-333.99 154.42,-333.99 154.42,-333.99 154.42,-333.99 508.96,-333.99 573.93,-333.99 620.23,-260.12 641.14,-218.56"/>
<text text-anchor="middle" x="344.86" y="-337.19" font-family="Times,serif" font-size="14.00">1,436</text>
</g>
<!-- cl
3,046&#45;&#45;mesh
636 -->
<g id="edge7" class="edge">
<title>cl
3,046&#45;&#45;mesh
636</title>
<path fill="none" stroke="black" d="M272.66,-32C304.86,-35.34 355.75,-41.46 399.13,-50.49 425.99,-56.08 455.97,-64.77 477.49,-71.44"/>
<text text-anchor="middle" x="344.86" y="-53.69" font-family="Times,serif" font-size="14.00">85</text>
</g>
<!-- ccle
1,061&#45;&#45;cellosaurus
159,463 -->
<g id="edge8" class="edge">
<title>ccle
1,061&#45;&#45;cellosaurus
159,463</title>
<path fill="none" stroke="black" d="M182.33,-176.46C189.86,-172 198.27,-167.6 206.48,-164.49 233.63,-154.22 265.37,-147.77 291.5,-143.8"/>
<text text-anchor="middle" x="239.54" y="-167.69" font-family="Times,serif" font-size="14.00">1,655</text>
</g>
<!-- ccle
1,061&#45;&#45;depmap
1,814 -->
<g id="edge9" class="edge">
<title>ccle
1,061&#45;&#45;depmap
1,814</title>
<path fill="none" stroke="black" d="M186.99,-203.7C193.4,-205.58 200.13,-207.44 206.48,-208.99 299.06,-231.59 322.67,-236.38 417.13,-248.99 432.95,-251.1 450.42,-252.64 465.72,-253.73"/>
<text text-anchor="middle" x="344.86" y="-249.38" font-family="Times,serif" font-size="14.00">1,629</text>
</g>
<!-- ccle
1,061&#45;&#45;clo
39,125 -->
<g id="edge10" class="edge">
<title>ccle
1,061&#45;&#45;clo
39,125</title>
<path fill="none" stroke="black" d="M188.77,-192.85C242.54,-191.08 353.75,-187.92 447.88,-188.49 506.82,-188.85 575.25,-189.78 616.45,-190.4"/>
<text text-anchor="middle" x="432.51" y="-191.69" font-family="Times,serif" font-size="14.00">1,417</text>
</g>
<!-- cellosaurus
159,463&#45;&#45;depmap
1,814 -->
<g id="edge11" class="edge">
<title>cellosaurus
159,463&#45;&#45;depmap
1,814</title>
<path fill="none" stroke="black" d="M368.61,-164.26C381.85,-178.57 399.39,-195.98 417.13,-208.99 434.02,-221.38 454.62,-232.4 471.83,-240.66"/>
<text text-anchor="middle" x="432.51" y="-231.45" font-family="Times,serif" font-size="14.00">1,913</text>
</g>
<!-- cellosaurus
159,463&#45;&#45;mesh
636 -->
<g id="edge12" class="edge">
<title>cellosaurus
159,463&#45;&#45;mesh
636</title>
<path fill="none" stroke="black" d="M390.74,-122.11C418.48,-112.3 453.3,-99.98 477.56,-91.39"/>
<text text-anchor="middle" x="432.51" y="-114.4" font-family="Times,serif" font-size="14.00">32</text>
</g>
<!-- cellosaurus
159,463&#45;&#45;clo
39,125 -->
<g id="edge13" class="edge">
<title>cellosaurus
159,463&#45;&#45;clo
39,125</title>
<path fill="none" stroke="black" d="M399.14,-141.27C440.57,-144.45 499.33,-150.32 550.03,-160.49 573.56,-165.21 599.45,-172.84 619.46,-179.28"/>
<text text-anchor="middle" x="507.96" y="-163.69" font-family="Times,serif" font-size="14.00">34,153</text>
</g>
<!-- depmap
1,814&#45;&#45;clo
39,125 -->
<g id="edge14" class="edge">
<title>depmap
1,814&#45;&#45;clo
39,125</title>
<path fill="none" stroke="black" d="M543.61,-240.42C567.34,-229.76 598.59,-215.71 621.72,-205.32"/>
<text text-anchor="middle" x="583.41" y="-232.51" font-family="Times,serif" font-size="14.00">1,473</text>
</g>
<!-- mesh
636&#45;&#45;clo
39,125 -->
<g id="edge15" class="edge">
<title>mesh
636&#45;&#45;clo
39,125</title>
<path fill="none" stroke="black" d="M539.45,-87.98C557.95,-93.31 581.29,-102.06 598.78,-115.49 615.74,-128.51 629.79,-148.18 639.42,-164.18"/>
<text text-anchor="middle" x="583.41" y="-118.69" font-family="Times,serif" font-size="14.00">34</text>
</g>
</g>
</svg>
