<?xml version="1.0" encoding="UTF-8" standalone="no"?>
<!DOCTYPE svg PUBLIC "-//W3C//DTD SVG 1.1//EN"
 "http://www.w3.org/Graphics/SVG/1.1/DTD/svg11.dtd">
<!-- Generated by graphviz version 12.2.1 (20241206.2353)
 -->
<!-- Pages: 1 -->
<svg width="393pt" height="284pt"
 viewBox="0.00 0.00 392.89 284.00" xmlns="http://www.w3.org/2000/svg" xmlns:xlink="http://www.w3.org/1999/xlink">
<g id="graph0" class="graph" transform="scale(1 1) rotate(0) translate(4 280)">
<polygon fill="white" stroke="none" points="-4,4 -4,-280 388.89,-280 388.89,4 -4,4"/>
<!-- bto -->
<g id="node1" class="node">
<title>bto</title>
<ellipse fill="none" stroke="black" cx="29.34" cy="-151" rx="27" ry="18"/>
<text text-anchor="middle" x="29.34" y="-145.95" font-family="Times,serif" font-size="14.00">bto</text>
</g>
<!-- mesh -->
<g id="node2" class="node">
<title>mesh</title>
<ellipse fill="none" stroke="black" cx="177.81" cy="-204" rx="30.88" ry="18"/>
<text text-anchor="middle" x="177.81" y="-198.95" font-family="Times,serif" font-size="14.00">mesh</text>
</g>
<!-- bto&#45;&#45;mesh -->
<g id="edge1" class="edge">
<title>bto&#45;&#45;mesh</title>
<path fill="none" stroke="black" stroke-width="1.01" d="M53.55,-159.4C80.17,-169.03 123.68,-184.77 151.25,-194.75"/>
<text text-anchor="middle" x="92.06" y="-180.7" font-family="Times,serif" font-size="14.00">62</text>
</g>
<!-- cl -->
<g id="node3" class="node">
<title>cl</title>
<ellipse fill="none" stroke="black" cx="344.29" cy="-187" rx="27" ry="18"/>
<text text-anchor="middle" x="344.29" y="-181.95" font-family="Times,serif" font-size="14.00">cl</text>
</g>
<!-- bto&#45;&#45;cl -->
<g id="edge2" class="edge">
<title>bto&#45;&#45;cl</title>
<path fill="none" stroke="black" stroke-width="1.02" d="M56.67,-150.73C95.03,-150.67 168.44,-151.87 230.19,-160.5 261.35,-164.85 296.53,-173.74 319.26,-180.02"/>
<text text-anchor="middle" x="177.81" y="-163.7" font-family="Times,serif" font-size="14.00">275</text>
</g>
<!-- cellosaurus -->
<g id="node4" class="node">
<title>cellosaurus</title>
<ellipse fill="none" stroke="black" cx="177.81" cy="-88" rx="52.38" ry="18"/>
<text text-anchor="middle" x="177.81" y="-82.95" font-family="Times,serif" font-size="14.00">cellosaurus</text>
</g>
<!-- bto&#45;&#45;cellosaurus -->
<g id="edge3" class="edge">
<title>bto&#45;&#45;cellosaurus</title>
<path fill="none" stroke="black" stroke-width="1.21" d="M48.17,-137.65C56.52,-131.82 66.79,-125.26 76.69,-120.5 95.3,-111.56 116.99,-104.17 135.41,-98.72"/>
<text text-anchor="middle" x="92.06" y="-123.7" font-family="Times,serif" font-size="14.00">2,421</text>
</g>
<!-- mesh&#45;&#45;cl -->
<g id="edge4" class="edge">
<title>mesh&#45;&#45;cl</title>
<path fill="none" stroke="black" stroke-width="1.01" d="M208.6,-200.92C239.61,-197.72 287.7,-192.75 317.25,-189.69"/>
<text text-anchor="middle" x="266.94" y="-199.72" font-family="Times,serif" font-size="14.00">81</text>
</g>
<!-- ccle -->
<g id="node5" class="node">
<title>ccle</title>
<ellipse fill="none" stroke="black" cx="344.29" cy="-126" rx="27" ry="18"/>
<text text-anchor="middle" x="344.29" y="-120.95" font-family="Times,serif" font-size="14.00">ccle</text>
</g>
<!-- cellosaurus&#45;&#45;ccle -->
<g id="edge5" class="edge">
<title>cellosaurus&#45;&#45;ccle</title>
<path fill="none" stroke="black" stroke-width="1.15" d="M222.03,-97.98C252.68,-105.06 292.74,-114.32 318.25,-120.21"/>
<text text-anchor="middle" x="266.94" y="-115.82" font-family="Times,serif" font-size="14.00">1,686</text>
</g>
<!-- clo -->
<g id="node6" class="node">
<title>clo</title>
<ellipse fill="none" stroke="black" cx="344.29" cy="-72" rx="27" ry="18"/>
<text text-anchor="middle" x="344.29" y="-66.95" font-family="Times,serif" font-size="14.00">clo</text>
</g>
<!-- cellosaurus&#45;&#45;clo -->
<g id="edge6" class="edge">
<title>cellosaurus&#45;&#45;clo</title>
<path fill="none" stroke="black" stroke-width="4" d="M228.07,-82.56C234.83,-81.85 241.68,-81.14 248.19,-80.5 271.45,-78.2 297.94,-75.86 317.04,-74.21"/>
<text text-anchor="middle" x="266.94" y="-83.7" font-family="Times,serif" font-size="14.00">34,113</text>
</g>
<!-- depmap -->
<g id="node7" class="node">
<title>depmap</title>
<ellipse fill="none" stroke="black" cx="344.29" cy="-18" rx="40.6" ry="18"/>
<text text-anchor="middle" x="344.29" y="-12.95" font-family="Times,serif" font-size="14.00">depmap</text>
</g>
<!-- cellosaurus&#45;&#45;depmap -->
<g id="edge7" class="edge">
<title>cellosaurus&#45;&#45;depmap</title>
<path fill="none" stroke="black" stroke-width="1.17" d="M210.12,-73.45C221.99,-68.02 235.67,-61.87 248.19,-56.5 269.79,-47.23 294.4,-37.28 313.18,-29.82"/>
<text text-anchor="middle" x="266.94" y="-59.7" font-family="Times,serif" font-size="14.00">1,906</text>
</g>
<!-- umls -->
<g id="node8" class="node">
<title>umls</title>
<ellipse fill="none" stroke="black" cx="29.34" cy="-258" rx="29.34" ry="18"/>
<text text-anchor="middle" x="29.34" y="-252.95" font-family="Times,serif" font-size="14.00">umls</text>
</g>
<!-- ncit -->
<g id="node9" class="node">
<title>ncit</title>
<ellipse fill="none" stroke="black" cx="177.81" cy="-258" rx="27" ry="18"/>
<text text-anchor="middle" x="177.81" y="-252.95" font-family="Times,serif" font-size="14.00">ncit</text>
</g>
<!-- umls&#45;&#45;ncit -->
<g id="edge8" class="edge">
<title>umls&#45;&#45;ncit</title>
<path fill="none" stroke="black" stroke-width="1.04" d="M58.93,-258C85.57,-258 124.96,-258 150.75,-258"/>
<text text-anchor="middle" x="92.06" y="-261.2" font-family="Times,serif" font-size="14.00">479</text>
</g>
</g>
</svg>
