<?xml version="1.0" encoding="UTF-8" standalone="no"?>
<!DOCTYPE svg PUBLIC "-//W3C//DTD SVG 1.1//EN"
 "http://www.w3.org/Graphics/SVG/1.1/DTD/svg11.dtd">
<!-- Generated by graphviz version 10.0.1 (20240210.2158)
 -->
<!-- Pages: 1 -->
<svg width="549pt" height="334pt"
 viewBox="0.00 0.00 548.71 333.50" xmlns="http://www.w3.org/2000/svg" xmlns:xlink="http://www.w3.org/1999/xlink">
<g id="graph0" class="graph" transform="scale(1 1) rotate(0) translate(4 329.5)">
<polygon fill="white" stroke="none" points="-4,4 -4,-329.5 544.71,-329.5 544.71,4 -4,4"/>
<!-- mesh -->
<g id="node1" class="node">
<title>mesh</title>
<ellipse fill="none" stroke="black" cx="30.88" cy="-192" rx="30.88" ry="18"/>
<text text-anchor="middle" x="30.88" y="-186.95" font-family="Times,serif" font-size="14.00">mesh</text>
</g>
<!-- mesh&#45;&#45;mesh -->
<g id="edge1" class="edge">
<title>mesh&#45;&#45;mesh</title>
<path fill="none" stroke="black" stroke-width="1.37" d="M20.95,-209.41C19.09,-219.09 22.4,-228 30.88,-228 39.35,-228 42.66,-219.09 40.81,-209.41"/>
<text text-anchor="middle" x="30.88" y="-231.2" font-family="Times,serif" font-size="14.00">1,776</text>
</g>
<!-- ncit -->
<g id="node2" class="node">
<title>ncit</title>
<ellipse fill="none" stroke="black" cx="138.26" cy="-218" rx="27" ry="18"/>
<text text-anchor="middle" x="138.26" y="-212.95" font-family="Times,serif" font-size="14.00">ncit</text>
</g>
<!-- mesh&#45;&#45;ncit -->
<g id="edge2" class="edge">
<title>mesh&#45;&#45;ncit</title>
<path fill="none" stroke="black" stroke-width="1.02" d="M59.84,-198.9C76.18,-202.93 96.63,-207.98 112.4,-211.87"/>
<text text-anchor="middle" x="86.51" y="-210.2" font-family="Times,serif" font-size="14.00">83</text>
</g>
<!-- uberon -->
<g id="node3" class="node">
<title>uberon</title>
<ellipse fill="none" stroke="black" cx="268.52" cy="-91" rx="36.51" ry="18"/>
<text text-anchor="middle" x="268.52" y="-85.95" font-family="Times,serif" font-size="14.00">uberon</text>
</g>
<!-- mesh&#45;&#45;uberon -->
<g id="edge3" class="edge">
<title>mesh&#45;&#45;uberon</title>
<path fill="none" stroke="black" stroke-width="1.23" d="M46.48,-176.28C55.52,-167.07 67.68,-155.6 79.76,-147 126.18,-113.97 192.24,-100.19 232.36,-94.61"/>
<text text-anchor="middle" x="138.26" y="-131.2" font-family="Times,serif" font-size="14.00">1,107</text>
</g>
<!-- bto -->
<g id="node4" class="node">
<title>bto</title>
<ellipse fill="none" stroke="black" cx="398.78" cy="-177" rx="27" ry="18"/>
<text text-anchor="middle" x="398.78" y="-171.95" font-family="Times,serif" font-size="14.00">bto</text>
</g>
<!-- mesh&#45;&#45;bto -->
<g id="edge4" class="edge">
<title>mesh&#45;&#45;bto</title>
<path fill="none" stroke="black" stroke-width="1.01" d="M59.2,-184.06C89.29,-175.77 139.24,-163.31 183.26,-158.5 251.63,-151.02 332.54,-163.85 372.64,-171.66"/>
<text text-anchor="middle" x="198.63" y="-162.2" font-family="Times,serif" font-size="14.00">61</text>
</g>
<!-- umls -->
<g id="node5" class="node">
<title>umls</title>
<ellipse fill="none" stroke="black" cx="511.37" cy="-245" rx="29.34" ry="18"/>
<text text-anchor="middle" x="511.37" y="-239.95" font-family="Times,serif" font-size="14.00">umls</text>
</g>
<!-- mesh&#45;&#45;umls -->
<g id="edge5" class="edge">
<title>mesh&#45;&#45;umls</title>
<path fill="none" stroke="black" stroke-width="1.37" d="M38.3,-209.77C51.4,-242.5 84.5,-309 137.26,-309 137.26,-309 137.26,-309 399.78,-309 438.38,-309 475.6,-279.43 495.48,-260.49"/>
<text text-anchor="middle" x="268.52" y="-312.2" font-family="Times,serif" font-size="14.00">1,776</text>
</g>
<!-- ncit&#45;&#45;ncit -->
<g id="edge6" class="edge">
<title>ncit&#45;&#45;ncit</title>
<path fill="none" stroke="black" stroke-width="2.56" d="M129.02,-235.41C127.29,-245.09 130.37,-254 138.26,-254 146.14,-254 149.22,-245.09 147.5,-235.41"/>
<text text-anchor="middle" x="138.26" y="-257.2" font-family="Times,serif" font-size="14.00">7,555</text>
</g>
<!-- ncit&#45;&#45;uberon -->
<g id="edge7" class="edge">
<title>ncit&#45;&#45;uberon</title>
<path fill="none" stroke="black" stroke-width="1.54" d="M162.52,-209.72C178.4,-203.21 199.16,-192.91 214.01,-179 235.54,-158.83 251.55,-128.1 260.2,-108.81"/>
<text text-anchor="middle" x="198.63" y="-203.2" font-family="Times,serif" font-size="14.00">2,613</text>
</g>
<!-- ncit&#45;&#45;bto -->
<g id="edge8" class="edge">
<title>ncit&#45;&#45;bto</title>
<path fill="none" stroke="black" stroke-width="1.17" d="M165.28,-219.95C179.69,-220.62 197.89,-220.82 214.01,-219 272.22,-212.43 338.87,-194.52 373.7,-184.33"/>
<text text-anchor="middle" x="268.52" y="-219.2" font-family="Times,serif" font-size="14.00">820</text>
</g>
<!-- ncit&#45;&#45;umls -->
<g id="edge9" class="edge">
<title>ncit&#45;&#45;umls</title>
<path fill="none" stroke="black" stroke-width="2.56" d="M162.25,-227.03C168.93,-229.33 176.31,-231.55 183.26,-233 204.54,-237.43 210.3,-235.8 232.01,-237 323.24,-242.05 431.49,-244 481.9,-244.68"/>
<text text-anchor="middle" x="338.4" y="-244.2" font-family="Times,serif" font-size="14.00">7,515</text>
</g>
<!-- uberon&#45;&#45;uberon -->
<g id="edge10" class="edge">
<title>uberon&#45;&#45;uberon</title>
<path fill="none" stroke="black" stroke-width="4" d="M256.04,-108.41C253.71,-118.09 257.87,-127 268.52,-127 279.16,-127 283.32,-118.09 280.99,-108.41"/>
<text text-anchor="middle" x="268.52" y="-130.2" font-family="Times,serif" font-size="14.00">14,480</text>
</g>
<!-- uberon&#45;&#45;bto -->
<g id="edge11" class="edge">
<title>uberon&#45;&#45;bto</title>
<path fill="none" stroke="black" stroke-width="1.3" d="M293.68,-104.29C310.83,-114.01 334.2,-127.83 353.78,-141.5 363.27,-148.13 373.36,-156.19 381.48,-162.95"/>
<text text-anchor="middle" x="338.4" y="-145.2" font-family="Times,serif" font-size="14.00">1,461</text>
</g>
<!-- uberon&#45;&#45;umls -->
<g id="edge12" class="edge">
<title>uberon&#45;&#45;umls</title>
<path fill="none" stroke="black" stroke-width="1.66" d="M304.81,-94.03C338.39,-98.35 389.07,-108.73 425.78,-133.5 462.03,-157.97 489.12,-203.15 502.02,-227.82"/>
<text text-anchor="middle" x="398.78" y="-137.2" font-family="Times,serif" font-size="14.00">3,172</text>
</g>
<!-- caro -->
<g id="node6" class="node">
<title>caro</title>
<ellipse fill="none" stroke="black" cx="398.78" cy="-18" rx="27" ry="18"/>
<text text-anchor="middle" x="398.78" y="-12.95" font-family="Times,serif" font-size="14.00">caro</text>
</g>
<!-- uberon&#45;&#45;caro -->
<g id="edge13" class="edge">
<title>uberon&#45;&#45;caro</title>
<path fill="none" stroke="black" stroke-width="1.01" d="M293.34,-77.44C317.54,-63.67 354.61,-42.57 377.46,-29.56"/>
<text text-anchor="middle" x="338.4" y="-62.2" font-family="Times,serif" font-size="14.00">52</text>
</g>
<!-- bto&#45;&#45;bto -->
<g id="edge14" class="edge">
<title>bto&#45;&#45;bto</title>
<path fill="none" stroke="black" stroke-width="2.35" d="M389.01,-194.04C387.01,-203.86 390.27,-213 398.78,-213 407.28,-213 410.54,-203.86 408.54,-194.04"/>
<text text-anchor="middle" x="398.78" y="-216.2" font-family="Times,serif" font-size="14.00">6,511</text>
</g>
<!-- bto&#45;&#45;umls -->
<g id="edge15" class="edge">
<title>bto&#45;&#45;umls</title>
<path fill="none" stroke="black" stroke-width="1.18" d="M419.29,-189C439.14,-201.2 469.75,-220.03 489.92,-232.43"/>
<text text-anchor="middle" x="453.9" y="-218.2" font-family="Times,serif" font-size="14.00">889</text>
</g>
<!-- umls&#45;&#45;umls -->
<g id="edge16" class="edge">
<title>umls&#45;&#45;umls</title>
<path fill="none" stroke="black" stroke-width="2.55" d="M501.19,-262.04C499.11,-271.86 502.5,-281 511.37,-281 520.24,-281 523.63,-271.86 521.55,-262.04"/>
<text text-anchor="middle" x="511.37" y="-284.2" font-family="Times,serif" font-size="14.00">7,490</text>
</g>
<!-- caro&#45;&#45;caro -->
<g id="edge17" class="edge">
<title>caro&#45;&#45;caro</title>
<path fill="none" stroke="black" stroke-width="1.02" d="M389.01,-35.04C387.01,-44.86 390.27,-54 398.78,-54 407.28,-54 410.54,-44.86 408.54,-35.04"/>
<text text-anchor="middle" x="398.78" y="-57.2" font-family="Times,serif" font-size="14.00">84</text>
</g>
</g>
</svg>
