<?xml version="1.0" encoding="UTF-8" standalone="no"?>
<!DOCTYPE svg PUBLIC "-//W3C//DTD SVG 1.1//EN"
 "http://www.w3.org/Graphics/SVG/1.1/DTD/svg11.dtd">
<!-- Generated by graphviz version 10.0.1 (20240210.2158)
 -->
<!-- Pages: 1 -->
<svg width="582pt" height="316pt"
 viewBox="0.00 0.00 582.07 316.49" xmlns="http://www.w3.org/2000/svg" xmlns:xlink="http://www.w3.org/1999/xlink">
<g id="graph0" class="graph" transform="scale(1 1) rotate(0) translate(4 312.49)">
<polygon fill="white" stroke="none" points="-4,4 -4,-312.49 578.07,-312.49 578.07,4 -4,4"/>
<!-- mesh
1,079 -->
<g id="node1" class="node">
<title>mesh
1,079</title>
<ellipse fill="none" stroke="black" cx="33.06" cy="-181.99" rx="33.06" ry="28.99"/>
<text text-anchor="middle" x="33.06" y="-185.19" font-family="Times,serif" font-size="14.00">mesh</text>
<text text-anchor="middle" x="33.06" y="-168.69" font-family="Times,serif" font-size="14.00">1,079</text>
</g>
<!-- ncit
2,783 -->
<g id="node2" class="node">
<title>ncit
2,783</title>
<ellipse fill="none" stroke="black" cx="148.67" cy="-210.99" rx="33.06" ry="28.99"/>
<text text-anchor="middle" x="148.67" y="-214.19" font-family="Times,serif" font-size="14.00">ncit</text>
<text text-anchor="middle" x="148.67" y="-197.69" font-family="Times,serif" font-size="14.00">2,783</text>
</g>
<!-- mesh
1,079&#45;&#45;ncit
2,783 -->
<g id="edge1" class="edge">
<title>mesh
1,079&#45;&#45;ncit
2,783</title>
<path fill="none" stroke="black" d="M65.1,-189.92C81.13,-194.01 100.64,-198.99 116.66,-203.08"/>
<text text-anchor="middle" x="90.86" y="-201.19" font-family="Times,serif" font-size="14.00">75</text>
</g>
<!-- uberon
14,480 -->
<g id="node3" class="node">
<title>uberon
14,480</title>
<ellipse fill="none" stroke="black" cx="286.31" cy="-97.99" rx="37.83" ry="28.99"/>
<text text-anchor="middle" x="286.31" y="-101.19" font-family="Times,serif" font-size="14.00">uberon</text>
<text text-anchor="middle" x="286.31" y="-84.69" font-family="Times,serif" font-size="14.00">14,480</text>
</g>
<!-- mesh
1,079&#45;&#45;uberon
14,480 -->
<g id="edge2" class="edge">
<title>mesh
1,079&#45;&#45;uberon
14,480</title>
<path fill="none" stroke="black" d="M53.39,-158.63C68.4,-142.62 90.77,-122.98 115.61,-115.49 159.85,-102.16 213.19,-98.58 248.11,-97.81"/>
<text text-anchor="middle" x="148.67" y="-119.19" font-family="Times,serif" font-size="14.00">1,082</text>
</g>
<!-- bto
6,511 -->
<g id="node4" class="node">
<title>bto
6,511</title>
<ellipse fill="none" stroke="black" cx="423.95" cy="-173.99" rx="33.06" ry="28.99"/>
<text text-anchor="middle" x="423.95" y="-177.19" font-family="Times,serif" font-size="14.00">bto</text>
<text text-anchor="middle" x="423.95" y="-160.69" font-family="Times,serif" font-size="14.00">6,511</text>
</g>
<!-- mesh
1,079&#45;&#45;bto
6,511 -->
<g id="edge3" class="edge">
<title>mesh
1,079&#45;&#45;bto
6,511</title>
<path fill="none" stroke="black" d="M64.83,-172.61C97.82,-163.08 151.91,-148.97 199.73,-143.49 268.7,-135.58 349.34,-153.3 392.31,-164.92"/>
<text text-anchor="middle" x="215.1" y="-147.19" font-family="Times,serif" font-size="14.00">55</text>
</g>
<!-- umls
599 -->
<g id="node5" class="node">
<title>umls
599</title>
<ellipse fill="none" stroke="black" cx="543.66" cy="-227.99" rx="30.41" ry="28.99"/>
<text text-anchor="middle" x="543.66" y="-231.19" font-family="Times,serif" font-size="14.00">umls</text>
<text text-anchor="middle" x="543.66" y="-214.69" font-family="Times,serif" font-size="14.00">599</text>
</g>
<!-- mesh
1,079&#45;&#45;umls
599 -->
<g id="edge4" class="edge">
<title>mesh
1,079&#45;&#45;umls
599</title>
<path fill="none" stroke="black" d="M46.86,-208.62C64.58,-241.17 99.9,-291.99 147.67,-291.99 147.67,-291.99 147.67,-291.99 424.95,-291.99 462.4,-291.99 499.3,-266.68 521.53,-247.89"/>
<text text-anchor="middle" x="286.31" y="-295.19" font-family="Times,serif" font-size="14.00">160</text>
</g>
<!-- ncit
2,783&#45;&#45;uberon
14,480 -->
<g id="edge5" class="edge">
<title>ncit
2,783&#45;&#45;uberon
14,480</title>
<path fill="none" stroke="black" d="M178.18,-197.55C194.42,-189.16 214.62,-177.41 230.48,-163.99 244.47,-152.16 257.67,-136.46 267.62,-123.34"/>
<text text-anchor="middle" x="215.1" y="-188.19" font-family="Times,serif" font-size="14.00">2,555</text>
</g>
<!-- ncit
2,783&#45;&#45;bto
6,511 -->
<g id="edge6" class="edge">
<title>ncit
2,783&#45;&#45;bto
6,511</title>
<path fill="none" stroke="black" d="M181.97,-208.7C196.78,-207.52 214.54,-205.92 230.48,-203.99 287.22,-197.12 352.92,-186.25 391.03,-179.65"/>
<text text-anchor="middle" x="286.31" y="-205.19" font-family="Times,serif" font-size="14.00">814</text>
</g>
<!-- ncit
2,783&#45;&#45;umls
599 -->
<g id="edge7" class="edge">
<title>ncit
2,783&#45;&#45;umls
599</title>
<path fill="none" stroke="black" d="M181.4,-216.44C187.47,-217.37 193.79,-218.27 199.73,-218.99 221.31,-221.6 226.77,-221.92 248.48,-222.99 345.16,-227.77 459.9,-228.22 512.99,-228.12"/>
<text text-anchor="middle" x="357.51" y="-229.19" font-family="Times,serif" font-size="14.00">529</text>
</g>
<!-- uberon
14,480&#45;&#45;bto
6,511 -->
<g id="edge8" class="edge">
<title>uberon
14,480&#45;&#45;bto
6,511</title>
<path fill="none" stroke="black" d="M322.44,-107.07C338.48,-112.06 357.33,-119.16 372.89,-128.49 383.57,-134.89 393.98,-143.79 402.53,-152.03"/>
<text text-anchor="middle" x="357.51" y="-132.19" font-family="Times,serif" font-size="14.00">1,461</text>
</g>
<!-- uberon
14,480&#45;&#45;umls
599 -->
<g id="edge9" class="edge">
<title>uberon
14,480&#45;&#45;umls
599</title>
<path fill="none" stroke="black" d="M324.23,-94.91C360.39,-93.6 415.89,-96.27 457,-119.49 490.64,-138.5 515.85,-176.51 529.93,-202.11"/>
<text text-anchor="middle" x="423.95" y="-123.19" font-family="Times,serif" font-size="14.00">311</text>
</g>
<!-- caro
84 -->
<g id="node6" class="node">
<title>caro
84</title>
<ellipse fill="none" stroke="black" cx="423.95" cy="-28.99" rx="27.75" ry="28.99"/>
<text text-anchor="middle" x="423.95" y="-32.19" font-family="Times,serif" font-size="14.00">caro</text>
<text text-anchor="middle" x="423.95" y="-15.69" font-family="Times,serif" font-size="14.00">84</text>
</g>
<!-- uberon
14,480&#45;&#45;caro
84 -->
<g id="edge10" class="edge">
<title>uberon
14,480&#45;&#45;caro
84</title>
<path fill="none" stroke="black" d="M315.55,-79.03C323.94,-73.72 333.27,-68.14 342.14,-63.49 360.11,-54.08 381.22,-45.13 397.36,-38.71"/>
<text text-anchor="middle" x="357.51" y="-67.19" font-family="Times,serif" font-size="14.00">52</text>
</g>
<!-- bto
6,511&#45;&#45;umls
599 -->
<g id="edge11" class="edge">
<title>bto
6,511&#45;&#45;umls
599</title>
<path fill="none" stroke="black" d="M453.74,-187.2C472.66,-195.88 497.25,-207.16 515.77,-215.66"/>
<text text-anchor="middle" x="485.13" y="-208.19" font-family="Times,serif" font-size="14.00">122</text>
</g>
</g>
</svg>
