<?xml version="1.0" encoding="UTF-8" standalone="no"?>
<!DOCTYPE svg PUBLIC "-//W3C//DTD SVG 1.1//EN"
 "http://www.w3.org/Graphics/SVG/1.1/DTD/svg11.dtd">
<!-- Generated by graphviz version 10.0.1 (20240210.2158)
 -->
<!-- Pages: 1 -->
<svg width="1123pt" height="947pt"
 viewBox="0.00 0.00 1122.67 947.00" xmlns="http://www.w3.org/2000/svg" xmlns:xlink="http://www.w3.org/1999/xlink">
<g id="graph0" class="graph" transform="scale(1 1) rotate(0) translate(4 943)">
<polygon fill="white" stroke="none" points="-4,4 -4,-943 1118.67,-943 1118.67,4 -4,4"/>
<!-- hgnc
43,865 -->
<g id="node1" class="node">
<title>hgnc
43,865</title>
<ellipse fill="none" stroke="black" cx="37.83" cy="-468" rx="37.83" ry="28.99"/>
<text text-anchor="middle" x="37.83" y="-471.2" font-family="Times,serif" font-size="14.00">hgnc</text>
<text text-anchor="middle" x="37.83" y="-454.7" font-family="Times,serif" font-size="14.00">43,865</text>
</g>
<!-- ccds -->
<g id="node2" class="node">
<title>ccds</title>
<ellipse fill="none" stroke="black" cx="215.87" cy="-921" rx="27.3" ry="18"/>
<text text-anchor="middle" x="215.87" y="-915.95" font-family="Times,serif" font-size="14.00">ccds</text>
</g>
<!-- hgnc
43,865&#45;&#45;ccds -->
<g id="edge1" class="edge">
<title>hgnc
43,865&#45;&#45;ccds</title>
<path fill="none" stroke="black" d="M38.87,-497.37C39.58,-581.4 45.84,-820.46 93.66,-879 116.84,-907.37 160.27,-916.62 188.36,-919.61"/>
<text text-anchor="middle" x="112.41" y="-907.2" font-family="Times,serif" font-size="14.00">35,511</text>
</g>
<!-- ena.embl -->
<g id="node3" class="node">
<title>ena.embl</title>
<ellipse fill="none" stroke="black" cx="215.87" cy="-867" rx="45.21" ry="18"/>
<text text-anchor="middle" x="215.87" y="-861.95" font-family="Times,serif" font-size="14.00">ena.embl</text>
</g>
<!-- hgnc
43,865&#45;&#45;ena.embl -->
<g id="edge2" class="edge">
<title>hgnc
43,865&#45;&#45;ena.embl</title>
<path fill="none" stroke="black" d="M39.19,-497.45C40.76,-575.53 49.12,-785.28 93.66,-835 112.76,-856.32 144.22,-864.18 170.3,-866.78"/>
<text text-anchor="middle" x="112.41" y="-861.2" font-family="Times,serif" font-size="14.00">20,710</text>
</g>
<!-- ensembl -->
<g id="node4" class="node">
<title>ensembl</title>
<ellipse fill="none" stroke="black" cx="215.87" cy="-90" rx="42.14" ry="18"/>
<text text-anchor="middle" x="215.87" y="-84.95" font-family="Times,serif" font-size="14.00">ensembl</text>
</g>
<!-- hgnc
43,865&#45;&#45;ensembl -->
<g id="edge3" class="edge">
<title>hgnc
43,865&#45;&#45;ensembl</title>
<path fill="none" stroke="black" d="M41.31,-438.88C47.47,-371.38 65.1,-206.44 93.66,-159.5 112.64,-128.31 151.19,-109.77 179.75,-99.79"/>
<text text-anchor="middle" x="112.41" y="-163.2" font-family="Times,serif" font-size="14.00">44,362</text>
</g>
<!-- iuphar.receptor -->
<g id="node5" class="node">
<title>iuphar.receptor</title>
<ellipse fill="none" stroke="black" cx="215.87" cy="-775" rx="66.71" ry="18"/>
<text text-anchor="middle" x="215.87" y="-769.95" font-family="Times,serif" font-size="14.00">iuphar.receptor</text>
</g>
<!-- hgnc
43,865&#45;&#45;iuphar.receptor -->
<g id="edge4" class="edge">
<title>hgnc
43,865&#45;&#45;iuphar.receptor</title>
<path fill="none" stroke="black" d="M40.8,-497.1C45.68,-560.38 60.39,-707.63 93.66,-743 108.35,-758.62 129.68,-766.95 150.36,-771.3"/>
<text text-anchor="middle" x="112.41" y="-768.2" font-family="Times,serif" font-size="14.00">3,063</text>
</g>
<!-- ncbigene
47,782,242 -->
<g id="node6" class="node">
<title>ncbigene
47,782,242</title>
<ellipse fill="none" stroke="black" cx="417.62" cy="-469" rx="54.8" ry="28.99"/>
<text text-anchor="middle" x="417.62" y="-472.2" font-family="Times,serif" font-size="14.00">ncbigene</text>
<text text-anchor="middle" x="417.62" y="-455.7" font-family="Times,serif" font-size="14.00">47,782,242</text>
</g>
<!-- hgnc
43,865&#45;&#45;ncbigene
47,782,242 -->
<g id="edge5" class="edge">
<title>hgnc
43,865&#45;&#45;ncbigene
47,782,242</title>
<path fill="none" stroke="black" d="M44.07,-496.91C54.41,-543.64 82.5,-632.97 149.16,-657 204.94,-677.11 229.86,-684.15 282.57,-657 347.96,-623.31 388.49,-541.33 406.19,-497.59"/>
<text text-anchor="middle" x="215.87" y="-677.2" font-family="Times,serif" font-size="14.00">44,190</text>
</g>
<!-- omim
26,952 -->
<g id="node7" class="node">
<title>omim
26,952</title>
<ellipse fill="none" stroke="black" cx="588.53" cy="-174" rx="37.83" ry="28.99"/>
<text text-anchor="middle" x="588.53" y="-177.2" font-family="Times,serif" font-size="14.00">omim</text>
<text text-anchor="middle" x="588.53" y="-160.7" font-family="Times,serif" font-size="14.00">26,952</text>
</g>
<!-- hgnc
43,865&#45;&#45;omim
26,952 -->
<g id="edge6" class="edge">
<title>hgnc
43,865&#45;&#45;omim
26,952</title>
<path fill="none" stroke="black" d="M41.15,-438.74C47.32,-365.49 65.59,-176.06 93.66,-120 109.49,-88.38 116.58,-76.75 149.16,-63 297.25,-0.5 488.87,-108.98 559.66,-154.92"/>
<text text-anchor="middle" x="322.7" y="-60.2" font-family="Times,serif" font-size="14.00">17,533</text>
</g>
<!-- refseq -->
<g id="node8" class="node">
<title>refseq</title>
<ellipse fill="none" stroke="black" cx="215.87" cy="-630" rx="33.44" ry="18"/>
<text text-anchor="middle" x="215.87" y="-624.95" font-family="Times,serif" font-size="14.00">refseq</text>
</g>
<!-- hgnc
43,865&#45;&#45;refseq -->
<g id="edge7" class="edge">
<title>hgnc
43,865&#45;&#45;refseq</title>
<path fill="none" stroke="black" d="M51.11,-495.44C60.83,-515.29 75.74,-542.03 93.66,-562 119.28,-590.55 159.83,-609.87 186.88,-620.41"/>
<text text-anchor="middle" x="112.41" y="-593.2" font-family="Times,serif" font-size="14.00">42,273</text>
</g>
<!-- ucsc -->
<g id="node9" class="node">
<title>ucsc</title>
<ellipse fill="none" stroke="black" cx="215.87" cy="-576" rx="27.3" ry="18"/>
<text text-anchor="middle" x="215.87" y="-570.95" font-family="Times,serif" font-size="14.00">ucsc</text>
</g>
<!-- hgnc
43,865&#45;&#45;ucsc -->
<g id="edge8" class="edge">
<title>hgnc
43,865&#45;&#45;ucsc</title>
<path fill="none" stroke="black" d="M60.41,-491.82C70,-501.59 81.79,-512.56 93.66,-521 124.55,-542.95 165.61,-559.35 191.12,-568.3"/>
<text text-anchor="middle" x="112.41" y="-544.2" font-family="Times,serif" font-size="14.00">24,324</text>
</g>
<!-- vega -->
<g id="node10" class="node">
<title>vega</title>
<ellipse fill="none" stroke="black" cx="215.87" cy="-522" rx="28.32" ry="18"/>
<text text-anchor="middle" x="215.87" y="-516.95" font-family="Times,serif" font-size="14.00">vega</text>
</g>
<!-- hgnc
43,865&#45;&#45;vega -->
<g id="edge9" class="edge">
<title>hgnc
43,865&#45;&#45;vega</title>
<path fill="none" stroke="black" d="M71.98,-481.31C79.09,-483.99 86.59,-486.69 93.66,-489 126.21,-499.63 164.42,-509.64 189.11,-515.78"/>
<text text-anchor="middle" x="112.41" y="-503.2" font-family="Times,serif" font-size="14.00">32,398</text>
</g>
<!-- orphanet -->
<g id="node11" class="node">
<title>orphanet</title>
<ellipse fill="none" stroke="black" cx="215.87" cy="-468" rx="43.16" ry="18"/>
<text text-anchor="middle" x="215.87" y="-462.95" font-family="Times,serif" font-size="14.00">orphanet</text>
</g>
<!-- hgnc
43,865&#45;&#45;orphanet -->
<g id="edge10" class="edge">
<title>hgnc
43,865&#45;&#45;orphanet</title>
<path fill="none" stroke="black" d="M75.73,-468C103.96,-468 142.93,-468 172.44,-468"/>
<text text-anchor="middle" x="112.41" y="-471.2" font-family="Times,serif" font-size="14.00">4,418</text>
</g>
<!-- lrg -->
<g id="node12" class="node">
<title>lrg</title>
<ellipse fill="none" stroke="black" cx="215.87" cy="-414" rx="27" ry="18"/>
<text text-anchor="middle" x="215.87" y="-408.95" font-family="Times,serif" font-size="14.00">lrg</text>
</g>
<!-- hgnc
43,865&#45;&#45;lrg -->
<g id="edge11" class="edge">
<title>hgnc
43,865&#45;&#45;lrg</title>
<path fill="none" stroke="black" d="M72.01,-455.06C79.11,-452.44 86.6,-449.79 93.66,-447.5 126.68,-436.79 165.44,-426.46 190.07,-420.17"/>
<text text-anchor="middle" x="112.41" y="-450.2" font-family="Times,serif" font-size="14.00">1,325</text>
</g>
<!-- merops.entry -->
<g id="node13" class="node">
<title>merops.entry</title>
<ellipse fill="none" stroke="black" cx="215.87" cy="-360" rx="60.05" ry="18"/>
<text text-anchor="middle" x="215.87" y="-354.95" font-family="Times,serif" font-size="14.00">merops.entry</text>
</g>
<!-- hgnc
43,865&#45;&#45;merops.entry -->
<g id="edge12" class="edge">
<title>hgnc
43,865&#45;&#45;merops.entry</title>
<path fill="none" stroke="black" d="M60.47,-444.46C70.07,-434.79 81.85,-423.91 93.66,-415.5 118.82,-397.57 150.7,-383.25 175.45,-373.65"/>
<text text-anchor="middle" x="112.41" y="-418.2" font-family="Times,serif" font-size="14.00">720</text>
</g>
<!-- cosmic -->
<g id="node14" class="node">
<title>cosmic</title>
<ellipse fill="none" stroke="black" cx="215.87" cy="-306" rx="37.53" ry="18"/>
<text text-anchor="middle" x="215.87" y="-300.95" font-family="Times,serif" font-size="14.00">cosmic</text>
</g>
<!-- hgnc
43,865&#45;&#45;cosmic -->
<g id="edge13" class="edge">
<title>hgnc
43,865&#45;&#45;cosmic</title>
<path fill="none" stroke="black" d="M51.04,-440.38C60.74,-420.4 75.64,-393.52 93.66,-373.5 118.56,-345.85 157.55,-326.99 184.56,-316.38"/>
<text text-anchor="middle" x="112.41" y="-376.2" font-family="Times,serif" font-size="14.00">569</text>
</g>
<!-- pseudogene -->
<g id="node15" class="node">
<title>pseudogene</title>
<ellipse fill="none" stroke="black" cx="215.87" cy="-252" rx="54.42" ry="18"/>
<text text-anchor="middle" x="215.87" y="-246.95" font-family="Times,serif" font-size="14.00">pseudogene</text>
</g>
<!-- hgnc
43,865&#45;&#45;pseudogene -->
<g id="edge14" class="edge">
<title>hgnc
43,865&#45;&#45;pseudogene</title>
<path fill="none" stroke="black" d="M44.96,-439.22C52.55,-408.38 67.78,-359.09 93.66,-323.5 114.21,-295.25 149.62,-276.25 176.88,-264.98"/>
<text text-anchor="middle" x="112.41" y="-326.2" font-family="Times,serif" font-size="14.00">8,501</text>
</g>
<!-- iuphar.ligand -->
<g id="node16" class="node">
<title>iuphar.ligand</title>
<ellipse fill="none" stroke="black" cx="215.87" cy="-198" rx="59.54" ry="18"/>
<text text-anchor="middle" x="215.87" y="-192.95" font-family="Times,serif" font-size="14.00">iuphar.ligand</text>
</g>
<!-- hgnc
43,865&#45;&#45;iuphar.ligand -->
<g id="edge15" class="edge">
<title>hgnc
43,865&#45;&#45;iuphar.ligand</title>
<path fill="none" stroke="black" d="M41.1,-438.9C45.5,-397.81 58.14,-321.88 93.66,-268.5 112.41,-240.33 146.53,-221.97 173.8,-211.06"/>
<text text-anchor="middle" x="112.41" y="-271.2" font-family="Times,serif" font-size="14.00">460</text>
</g>
<!-- lncipedia -->
<g id="node17" class="node">
<title>lncipedia</title>
<ellipse fill="none" stroke="black" cx="215.87" cy="-144" rx="44.7" ry="18"/>
<text text-anchor="middle" x="215.87" y="-138.95" font-family="Times,serif" font-size="14.00">lncipedia</text>
</g>
<!-- hgnc
43,865&#45;&#45;lncipedia -->
<g id="edge16" class="edge">
<title>hgnc
43,865&#45;&#45;lncipedia</title>
<path fill="none" stroke="black" d="M38.75,-438.86C39.93,-388.89 48.18,-285.28 93.66,-213.5 112.94,-183.07 150.64,-164.56 178.9,-154.38"/>
<text text-anchor="middle" x="112.41" y="-216.2" font-family="Times,serif" font-size="14.00">2,466</text>
</g>
<!-- civic.gid
506 -->
<g id="node18" class="node">
<title>civic.gid
506</title>
<ellipse fill="none" stroke="black" cx="756.1" cy="-239" rx="44.72" ry="28.99"/>
<text text-anchor="middle" x="756.1" y="-242.2" font-family="Times,serif" font-size="14.00">civic.gid</text>
<text text-anchor="middle" x="756.1" y="-225.7" font-family="Times,serif" font-size="14.00">506</text>
</g>
<!-- hgnc
43,865&#45;&#45;civic.gid
506 -->
<g id="edge17" class="edge">
<title>hgnc
43,865&#45;&#45;civic.gid
506</title>
<path fill="none" stroke="black" d="M41.24,-496.97C47.59,-551.06 70.21,-664.68 149.16,-695 252.92,-734.85 554.84,-746.72 631.13,-674 657.99,-648.4 639.51,-543.84 649.13,-508 661.73,-461.06 675.2,-453.07 693.38,-408 713.07,-359.19 733.58,-301.42 745.3,-267.63"/>
<text text-anchor="middle" x="417.62" y="-729.2" font-family="Times,serif" font-size="14.00">491</text>
</g>
<!-- ncit
181,982 -->
<g id="node19" class="node">
<title>ncit
181,982</title>
<ellipse fill="none" stroke="black" cx="916.93" cy="-220" rx="42.6" ry="28.99"/>
<text text-anchor="middle" x="916.93" y="-223.2" font-family="Times,serif" font-size="14.00">ncit</text>
<text text-anchor="middle" x="916.93" y="-206.7" font-family="Times,serif" font-size="14.00">181,982</text>
</g>
<!-- hgnc
43,865&#45;&#45;ncit
181,982 -->
<g id="edge18" class="edge">
<title>hgnc
43,865&#45;&#45;ncit
181,982</title>
<path fill="none" stroke="black" d="M40.01,-497.28C43.42,-567.64 55.64,-743.53 93.66,-786 131.06,-827.77 158.8,-821 214.87,-821 214.87,-821 214.87,-821 757.1,-821 876.76,-821 908.29,-370.06 914.59,-249.39"/>
<text text-anchor="middle" x="509.17" y="-824.2" font-family="Times,serif" font-size="14.00">5,893</text>
</g>
<!-- wikidata
797,967 -->
<g id="node20" class="node">
<title>wikidata
797,967</title>
<ellipse fill="none" stroke="black" cx="1070.48" cy="-121" rx="44.19" ry="28.99"/>
<text text-anchor="middle" x="1070.48" y="-124.2" font-family="Times,serif" font-size="14.00">wikidata</text>
<text text-anchor="middle" x="1070.48" y="-107.7" font-family="Times,serif" font-size="14.00">797,967</text>
</g>
<!-- hgnc
43,865&#45;&#45;wikidata
797,967 -->
<g id="edge19" class="edge">
<title>hgnc
43,865&#45;&#45;wikidata
797,967</title>
<path fill="none" stroke="black" d="M39.56,-438.71C42.08,-357.16 52.71,-129.51 93.66,-69 128.4,-17.66 152.88,0 214.87,0 214.87,0 214.87,0 917.93,0 977.86,0 1027.72,-58.5 1052.54,-94.15"/>
<text text-anchor="middle" x="588.53" y="-3.2" font-family="Times,serif" font-size="14.00">43,557</text>
</g>
<!-- ensembl&#45;&#45;ncbigene
47,782,242 -->
<g id="edge20" class="edge">
<title>ensembl&#45;&#45;ncbigene
47,782,242</title>
<path fill="none" stroke="black" d="M254.7,-97.59C265.36,-101.59 275.86,-107.7 282.57,-117 316.58,-164.15 273.35,-326.63 300.57,-378 317.3,-409.56 350.25,-433.74 376.79,-449.22"/>
<text text-anchor="middle" x="322.7" y="-428.2" font-family="Times,serif" font-size="14.00">155,882</text>
</g>
<!-- ensembl&#45;&#45;omim
26,952 -->
<g id="edge21" class="edge">
<title>ensembl&#45;&#45;omim
26,952</title>
<path fill="none" stroke="black" d="M251.87,-99.75C262.52,-103.88 273.72,-109.51 282.57,-117 294.15,-126.8 287.69,-137.99 300.57,-146 379,-194.76 493.43,-187.78 551.23,-180.08"/>
<text text-anchor="middle" x="417.62" y="-188.2" font-family="Times,serif" font-size="14.00">19,092</text>
</g>
<!-- ensembl&#45;&#45;civic.gid
506 -->
<g id="edge25" class="edge">
<title>ensembl&#45;&#45;civic.gid
506</title>
<path fill="none" stroke="black" d="M253.34,-98.71C263.93,-102.76 274.74,-108.62 282.57,-117 299.84,-135.49 284.47,-151.49 300.57,-171 320.78,-195.48 332.48,-196.68 362.82,-206 484.83,-243.48 637.59,-243.84 711.3,-241.29"/>
<text text-anchor="middle" x="509.17" y="-239.2" font-family="Times,serif" font-size="14.00">543</text>
</g>
<!-- ensembl&#45;&#45;ncit
181,982 -->
<g id="edge26" class="edge">
<title>ensembl&#45;&#45;ncit
181,982</title>
<path fill="none" stroke="black" d="M258.37,-90.11C333.38,-90.95 496.23,-95.65 631.13,-119.5 733.65,-137.63 760.89,-142.39 856.33,-184 866.3,-188.35 876.63,-194.09 885.83,-199.7"/>
<text text-anchor="middle" x="588.53" y="-123.2" font-family="Times,serif" font-size="14.00">6,785</text>
</g>
<!-- ensembl&#45;&#45;wikidata
797,967 -->
<g id="edge27" class="edge">
<title>ensembl&#45;&#45;wikidata
797,967</title>
<path fill="none" stroke="black" d="M248.55,-78.29C287.53,-64.96 356.01,-45 416.62,-45 416.62,-45 416.62,-45 917.93,-45 965.76,-45 1013.93,-75.62 1042.74,-97.99"/>
<text text-anchor="middle" x="671.25" y="-48.2" font-family="Times,serif" font-size="14.00">156,630</text>
</g>
<!-- mgi
682,164 -->
<g id="node21" class="node">
<title>mgi
682,164</title>
<ellipse fill="none" stroke="black" cx="588.53" cy="-315" rx="42.6" ry="28.99"/>
<text text-anchor="middle" x="588.53" y="-318.2" font-family="Times,serif" font-size="14.00">mgi</text>
<text text-anchor="middle" x="588.53" y="-301.7" font-family="Times,serif" font-size="14.00">682,164</text>
</g>
<!-- ensembl&#45;&#45;mgi
682,164 -->
<g id="edge22" class="edge">
<title>ensembl&#45;&#45;mgi
682,164</title>
<path fill="none" stroke="black" d="M254.35,-97.85C264.99,-101.86 275.57,-107.91 282.57,-117 319.77,-165.31 259.58,-207.86 300.57,-253 363.28,-322.05 482.97,-324.06 546.13,-319.59"/>
<text text-anchor="middle" x="417.62" y="-322.2" font-family="Times,serif" font-size="14.00">56,682</text>
</g>
<!-- rgd
61,339 -->
<g id="node22" class="node">
<title>rgd
61,339</title>
<ellipse fill="none" stroke="black" cx="588.53" cy="-636" rx="37.83" ry="28.99"/>
<text text-anchor="middle" x="588.53" y="-639.2" font-family="Times,serif" font-size="14.00">rgd</text>
<text text-anchor="middle" x="588.53" y="-622.7" font-family="Times,serif" font-size="14.00">61,339</text>
</g>
<!-- ensembl&#45;&#45;rgd
61,339 -->
<g id="edge23" class="edge">
<title>ensembl&#45;&#45;rgd
61,339</title>
<path fill="none" stroke="black" d="M254.78,-97.53C265.44,-101.53 275.93,-107.65 282.57,-117 324.98,-176.69 270.46,-379.26 300.57,-446 349.28,-553.96 381.54,-586.4 490.42,-633 509.34,-641.1 532.28,-642.16 551.11,-641.05"/>
<text text-anchor="middle" x="417.62" y="-626.2" font-family="Times,serif" font-size="14.00">52,906</text>
</g>
<!-- cgnc
25,936 -->
<g id="node23" class="node">
<title>cgnc
25,936</title>
<ellipse fill="none" stroke="black" cx="588.53" cy="-396" rx="37.83" ry="28.99"/>
<text text-anchor="middle" x="588.53" y="-399.2" font-family="Times,serif" font-size="14.00">cgnc</text>
<text text-anchor="middle" x="588.53" y="-382.7" font-family="Times,serif" font-size="14.00">25,936</text>
</g>
<!-- ensembl&#45;&#45;cgnc
25,936 -->
<g id="edge24" class="edge">
<title>ensembl&#45;&#45;cgnc
25,936</title>
<path fill="none" stroke="black" d="M254.48,-97.74C265.13,-101.76 275.68,-107.83 282.57,-117 327.4,-176.69 266.58,-217.54 300.57,-284 317.52,-317.13 329.8,-322.83 362.82,-340 429.63,-374.73 455.15,-358.66 527.92,-378 536.07,-380.17 544.79,-382.68 552.97,-385.14"/>
<text text-anchor="middle" x="417.62" y="-370.2" font-family="Times,serif" font-size="14.00">15,259</text>
</g>
<!-- ncbigene
47,782,242&#45;&#45;omim
26,952 -->
<g id="edge28" class="edge">
<title>ncbigene
47,782,242&#45;&#45;omim
26,952</title>
<path fill="none" stroke="black" d="M437.43,-441.52C448.18,-425.36 461.63,-404.36 472.42,-385 481.43,-368.85 481.9,-363.91 490.42,-347.5 517.86,-294.65 552.41,-234.25 572.03,-200.47"/>
<text text-anchor="middle" x="509.17" y="-350.2" font-family="Times,serif" font-size="14.00">18,253</text>
</g>
<!-- ncbigene
47,782,242&#45;&#45;civic.gid
506 -->
<g id="edge32" class="edge">
<title>ncbigene
47,782,242&#45;&#45;civic.gid
506</title>
<path fill="none" stroke="black" d="M472.16,-472.31C518.17,-472.51 584.31,-466.21 631.13,-434 691.61,-392.39 728.97,-310.62 745.37,-267.38"/>
<text text-anchor="middle" x="588.53" y="-469.2" font-family="Times,serif" font-size="14.00">528</text>
</g>
<!-- ncbigene
47,782,242&#45;&#45;ncit
181,982 -->
<g id="edge33" class="edge">
<title>ncbigene
47,782,242&#45;&#45;ncit
181,982</title>
<path fill="none" stroke="black" d="M464.29,-484.35C508.53,-496.61 576.73,-508.51 631.13,-487 756.55,-437.4 859.08,-303.58 898.52,-246.44"/>
<text text-anchor="middle" x="671.25" y="-482.2" font-family="Times,serif" font-size="14.00">5,877</text>
</g>
<!-- ncbigene
47,782,242&#45;&#45;wikidata
797,967 -->
<g id="edge34" class="edge">
<title>ncbigene
47,782,242&#45;&#45;wikidata
797,967</title>
<path fill="none" stroke="black" d="M442.11,-495.24C472.41,-526.05 528.3,-573 587.53,-573 587.53,-573 587.53,-573 917.93,-573 1007.42,-573 1053.86,-250.47 1066.13,-150.31"/>
<text text-anchor="middle" x="756.1" y="-576.2" font-family="Times,serif" font-size="14.00">788,875</text>
</g>
<!-- ncbigene
47,782,242&#45;&#45;mgi
682,164 -->
<g id="edge29" class="edge">
<title>ncbigene
47,782,242&#45;&#45;mgi
682,164</title>
<path fill="none" stroke="black" d="M445.82,-443.65C459.21,-431.21 475.62,-416.02 490.42,-402.5 514.55,-380.46 542.26,-355.53 561.88,-337.93"/>
<text text-anchor="middle" x="509.17" y="-405.2" font-family="Times,serif" font-size="14.00">76,239</text>
</g>
<!-- ncbigene
47,782,242&#45;&#45;rgd
61,339 -->
<g id="edge30" class="edge">
<title>ncbigene
47,782,242&#45;&#45;rgd
61,339</title>
<path fill="none" stroke="black" d="M430.47,-497.58C442.42,-523.6 463.03,-561.7 490.42,-587 508.59,-603.78 533.6,-616.22 553.68,-624.37"/>
<text text-anchor="middle" x="509.17" y="-615.2" font-family="Times,serif" font-size="14.00">48,324</text>
</g>
<!-- ncbigene
47,782,242&#45;&#45;cgnc
25,936 -->
<g id="edge31" class="edge">
<title>ncbigene
47,782,242&#45;&#45;cgnc
25,936</title>
<path fill="none" stroke="black" d="M460.81,-450.77C489.93,-438.18 528.08,-421.69 554.88,-410.11"/>
<text text-anchor="middle" x="509.17" y="-439.2" font-family="Times,serif" font-size="14.00">25,931</text>
</g>
<!-- omim
26,952&#45;&#45;civic.gid
506 -->
<g id="edge35" class="edge">
<title>omim
26,952&#45;&#45;civic.gid
506</title>
<path fill="none" stroke="black" d="M624.11,-184.17C644.52,-190.5 670.71,-199.19 693.38,-208.5 702.34,-212.18 711.8,-216.58 720.56,-220.89"/>
<text text-anchor="middle" x="671.25" y="-211.2" font-family="Times,serif" font-size="14.00">491</text>
</g>
<!-- omim
26,952&#45;&#45;ncit
181,982 -->
<g id="edge36" class="edge">
<title>omim
26,952&#45;&#45;ncit
181,982</title>
<path fill="none" stroke="black" d="M626.48,-173.07C668.91,-172.63 740.42,-173.86 800.83,-184.5 827.6,-189.22 856.87,-198.3 879.19,-206.09"/>
<text text-anchor="middle" x="756.1" y="-187.2" font-family="Times,serif" font-size="14.00">5,757</text>
</g>
<!-- omim
26,952&#45;&#45;wikidata
797,967 -->
<g id="edge37" class="edge">
<title>omim
26,952&#45;&#45;wikidata
797,967</title>
<path fill="none" stroke="black" d="M626.06,-168.3C694.7,-157.85 847.75,-135.81 977.54,-126 993.32,-124.81 1010.64,-123.79 1025.96,-122.99"/>
<text text-anchor="middle" x="837.58" y="-145.2" font-family="Times,serif" font-size="14.00">28,143</text>
</g>
<!-- civic.gid
506&#45;&#45;ncit
181,982 -->
<g id="edge38" class="edge">
<title>civic.gid
506&#45;&#45;ncit
181,982</title>
<path fill="none" stroke="black" d="M800.5,-233.81C823.56,-231.05 851.75,-227.68 874.5,-224.96"/>
<text text-anchor="middle" x="837.58" y="-234.2" font-family="Times,serif" font-size="14.00">457</text>
</g>
<!-- civic.gid
506&#45;&#45;wikidata
797,967 -->
<g id="edge39" class="edge">
<title>civic.gid
506&#45;&#45;wikidata
797,967</title>
<path fill="none" stroke="black" d="M785.95,-217.04C808.81,-200.62 842.14,-178.81 874.33,-165.5 924.58,-144.72 986.33,-132.71 1026.73,-126.52"/>
<text text-anchor="middle" x="916.93" y="-169.2" font-family="Times,serif" font-size="14.00">491</text>
</g>
<!-- ncit
181,982&#45;&#45;wikidata
797,967 -->
<g id="edge40" class="edge">
<title>ncit
181,982&#45;&#45;wikidata
797,967</title>
<path fill="none" stroke="black" d="M949.57,-201C967.04,-190.36 989.04,-176.71 1008.29,-164 1018.69,-157.13 1029.89,-149.37 1039.84,-142.34"/>
<text text-anchor="middle" x="992.91" y="-186.2" font-family="Times,serif" font-size="14.00">5,880</text>
</g>
</g>
</svg>
