<?xml version="1.0" encoding="UTF-8" standalone="no"?>
<!DOCTYPE svg PUBLIC "-//W3C//DTD SVG 1.1//EN"
 "http://www.w3.org/Graphics/SVG/1.1/DTD/svg11.dtd">
<!-- Generated by graphviz version 10.0.1 (20240210.2158)
 -->
<!-- Pages: 1 -->
<svg width="1045pt" height="944pt"
 viewBox="0.00 0.00 1045.10 944.00" xmlns="http://www.w3.org/2000/svg" xmlns:xlink="http://www.w3.org/1999/xlink">
<g id="graph0" class="graph" transform="scale(1 1) rotate(0) translate(4 940)">
<polygon fill="white" stroke="none" points="-4,4 -4,-940 1041.1,-940 1041.1,4 -4,4"/>
<!-- hgnc -->
<g id="node1" class="node">
<title>hgnc</title>
<ellipse fill="none" stroke="black" cx="37.53" cy="-465" rx="28.83" ry="18"/>
<text text-anchor="middle" x="37.53" y="-459.95" font-family="Times,serif" font-size="14.00">hgnc</text>
</g>
<!-- hgnc&#45;&#45;hgnc -->
<g id="edge1" class="edge">
<title>hgnc&#45;&#45;hgnc</title>
<path fill="none" stroke="black" d="M24.59,-481.29C21.47,-491.39 25.78,-501 37.53,-501 49.28,-501 53.6,-491.39 50.48,-481.29"/>
<text text-anchor="middle" x="37.53" y="-504.2" font-family="Times,serif" font-size="14.00">43,865</text>
</g>
<!-- ccds -->
<g id="node2" class="node">
<title>ccds</title>
<ellipse fill="none" stroke="black" cx="215.27" cy="-918" rx="27.3" ry="18"/>
<text text-anchor="middle" x="215.27" y="-912.95" font-family="Times,serif" font-size="14.00">ccds</text>
</g>
<!-- hgnc&#45;&#45;ccds -->
<g id="edge2" class="edge">
<title>hgnc&#45;&#45;ccds</title>
<path fill="none" stroke="black" d="M51.14,-481.34C59.58,-493.28 70.03,-510.25 75.07,-527 86.24,-564.19 69.74,-844.96 93.07,-876 115.14,-905.38 159.11,-914.33 187.58,-916.99"/>
<text text-anchor="middle" x="111.82" y="-905.2" font-family="Times,serif" font-size="14.00">35,511</text>
</g>
<!-- ena.embl -->
<g id="node3" class="node">
<title>ena.embl</title>
<ellipse fill="none" stroke="black" cx="215.27" cy="-864" rx="45.21" ry="18"/>
<text text-anchor="middle" x="215.27" y="-858.95" font-family="Times,serif" font-size="14.00">ena.embl</text>
</g>
<!-- hgnc&#45;&#45;ena.embl -->
<g id="edge3" class="edge">
<title>hgnc&#45;&#45;ena.embl</title>
<path fill="none" stroke="black" d="M51.1,-481.35C59.52,-493.29 69.97,-510.27 75.07,-527 84.96,-559.47 71.57,-805.73 93.07,-832 111.33,-854.32 143.15,-862.1 169.61,-864.42"/>
<text text-anchor="middle" x="111.82" y="-858.2" font-family="Times,serif" font-size="14.00">20,710</text>
</g>
<!-- ensembl -->
<g id="node4" class="node">
<title>ensembl</title>
<ellipse fill="none" stroke="black" cx="215.27" cy="-87" rx="42.14" ry="18"/>
<text text-anchor="middle" x="215.27" y="-81.95" font-family="Times,serif" font-size="14.00">ensembl</text>
</g>
<!-- hgnc&#45;&#45;ensembl -->
<g id="edge4" class="edge">
<title>hgnc&#45;&#45;ensembl</title>
<path fill="none" stroke="black" d="M40.01,-446.83C45.04,-388.4 62.84,-206.23 93.07,-156.5 112.03,-125.3 150.58,-106.77 179.14,-96.79"/>
<text text-anchor="middle" x="111.82" y="-160.2" font-family="Times,serif" font-size="14.00">44,362</text>
</g>
<!-- iuphar.receptor -->
<g id="node5" class="node">
<title>iuphar.receptor</title>
<ellipse fill="none" stroke="black" cx="215.27" cy="-772" rx="66.71" ry="18"/>
<text text-anchor="middle" x="215.27" y="-766.95" font-family="Times,serif" font-size="14.00">iuphar.receptor</text>
</g>
<!-- hgnc&#45;&#45;iuphar.receptor -->
<g id="edge5" class="edge">
<title>hgnc&#45;&#45;iuphar.receptor</title>
<path fill="none" stroke="black" d="M50.97,-481.39C59.33,-493.35 69.76,-510.33 75.07,-527 89.48,-572.26 62.52,-703.62 93.07,-740 106.92,-756.5 128.19,-765.02 149.06,-769.27"/>
<text text-anchor="middle" x="111.82" y="-766.2" font-family="Times,serif" font-size="14.00">3,063</text>
</g>
<!-- ncbigene -->
<g id="node6" class="node">
<title>ncbigene</title>
<ellipse fill="none" stroke="black" cx="406.41" cy="-485" rx="44.19" ry="18"/>
<text text-anchor="middle" x="406.41" y="-479.95" font-family="Times,serif" font-size="14.00">ncbigene</text>
</g>
<!-- hgnc&#45;&#45;ncbigene -->
<g id="edge6" class="edge">
<title>hgnc&#45;&#45;ncbigene</title>
<path fill="none" stroke="black" d="M50.3,-481.63C58.34,-493.7 68.67,-510.72 75.07,-527 88.71,-561.73 73.47,-577.25 93.07,-609 109.74,-636.03 118.63,-643.39 148.57,-654 204.45,-673.81 229.11,-680.85 281.98,-654 345.47,-621.75 384.09,-539.82 398.71,-503.18"/>
<text text-anchor="middle" x="215.27" y="-674.2" font-family="Times,serif" font-size="14.00">44,190</text>
</g>
<!-- omim -->
<g id="node7" class="node">
<title>omim</title>
<ellipse fill="none" stroke="black" cx="557.54" cy="-171" rx="33.44" ry="18"/>
<text text-anchor="middle" x="557.54" y="-165.95" font-family="Times,serif" font-size="14.00">omim</text>
</g>
<!-- hgnc&#45;&#45;omim -->
<g id="edge7" class="edge">
<title>hgnc&#45;&#45;omim</title>
<path fill="none" stroke="black" d="M39.91,-446.93C44.92,-384.17 63.45,-176.21 93.07,-117 108.88,-85.38 115.99,-73.75 148.57,-60 291.6,0.37 476.76,-114.78 536.81,-156.63"/>
<text text-anchor="middle" x="322.1" y="-63.2" font-family="Times,serif" font-size="14.00">17,533</text>
</g>
<!-- refseq -->
<g id="node8" class="node">
<title>refseq</title>
<ellipse fill="none" stroke="black" cx="215.27" cy="-627" rx="33.44" ry="18"/>
<text text-anchor="middle" x="215.27" y="-621.95" font-family="Times,serif" font-size="14.00">refseq</text>
</g>
<!-- hgnc&#45;&#45;refseq -->
<g id="edge8" class="edge">
<title>hgnc&#45;&#45;refseq</title>
<path fill="none" stroke="black" d="M48.7,-482.05C56.09,-494.48 66.28,-511.73 75.07,-527 83.21,-541.14 82.26,-546.77 93.07,-559 118.46,-587.75 159.07,-607.02 186.19,-617.49"/>
<text text-anchor="middle" x="111.82" y="-591.2" font-family="Times,serif" font-size="14.00">42,273</text>
</g>
<!-- ucsc -->
<g id="node9" class="node">
<title>ucsc</title>
<ellipse fill="none" stroke="black" cx="215.27" cy="-573" rx="27.3" ry="18"/>
<text text-anchor="middle" x="215.27" y="-567.95" font-family="Times,serif" font-size="14.00">ucsc</text>
</g>
<!-- hgnc&#45;&#45;ucsc -->
<g id="edge9" class="edge">
<title>hgnc&#45;&#45;ucsc</title>
<path fill="none" stroke="black" d="M52.26,-480.7C62.69,-492 77.8,-507.12 93.07,-518 123.93,-539.99 164.99,-556.38 190.52,-565.32"/>
<text text-anchor="middle" x="111.82" y="-541.2" font-family="Times,serif" font-size="14.00">24,324</text>
</g>
<!-- vega -->
<g id="node10" class="node">
<title>vega</title>
<ellipse fill="none" stroke="black" cx="215.27" cy="-519" rx="28.32" ry="18"/>
<text text-anchor="middle" x="215.27" y="-513.95" font-family="Times,serif" font-size="14.00">vega</text>
</g>
<!-- hgnc&#45;&#45;vega -->
<g id="edge10" class="edge">
<title>hgnc&#45;&#45;vega</title>
<path fill="none" stroke="black" d="M62.23,-474.73C71.74,-478.47 82.85,-482.65 93.07,-486 125.6,-496.66 163.82,-506.66 188.51,-512.8"/>
<text text-anchor="middle" x="111.82" y="-500.2" font-family="Times,serif" font-size="14.00">32,398</text>
</g>
<!-- orphanet -->
<g id="node11" class="node">
<title>orphanet</title>
<ellipse fill="none" stroke="black" cx="215.27" cy="-465" rx="43.16" ry="18"/>
<text text-anchor="middle" x="215.27" y="-459.95" font-family="Times,serif" font-size="14.00">orphanet</text>
</g>
<!-- hgnc&#45;&#45;orphanet -->
<g id="edge11" class="edge">
<title>hgnc&#45;&#45;orphanet</title>
<path fill="none" stroke="black" d="M66.77,-465C95.1,-465 139.09,-465 171.67,-465"/>
<text text-anchor="middle" x="111.82" y="-468.2" font-family="Times,serif" font-size="14.00">4,418</text>
</g>
<!-- lrg -->
<g id="node12" class="node">
<title>lrg</title>
<ellipse fill="none" stroke="black" cx="215.27" cy="-411" rx="27" ry="18"/>
<text text-anchor="middle" x="215.27" y="-405.95" font-family="Times,serif" font-size="14.00">lrg</text>
</g>
<!-- hgnc&#45;&#45;lrg -->
<g id="edge12" class="edge">
<title>hgnc&#45;&#45;lrg</title>
<path fill="none" stroke="black" d="M62.53,-455.45C71.98,-451.83 82.97,-447.79 93.07,-444.5 126.07,-433.76 164.84,-423.44 189.47,-417.16"/>
<text text-anchor="middle" x="111.82" y="-447.2" font-family="Times,serif" font-size="14.00">1,325</text>
</g>
<!-- merops.entry -->
<g id="node13" class="node">
<title>merops.entry</title>
<ellipse fill="none" stroke="black" cx="215.27" cy="-357" rx="60.05" ry="18"/>
<text text-anchor="middle" x="215.27" y="-351.95" font-family="Times,serif" font-size="14.00">merops.entry</text>
</g>
<!-- hgnc&#45;&#45;merops.entry -->
<g id="edge13" class="edge">
<title>hgnc&#45;&#45;merops.entry</title>
<path fill="none" stroke="black" d="M52.31,-449.49C62.76,-438.32 77.88,-423.35 93.07,-412.5 118.2,-394.54 150.09,-380.22 174.84,-370.62"/>
<text text-anchor="middle" x="111.82" y="-415.2" font-family="Times,serif" font-size="14.00">720</text>
</g>
<!-- cosmic -->
<g id="node14" class="node">
<title>cosmic</title>
<ellipse fill="none" stroke="black" cx="215.27" cy="-303" rx="37.53" ry="18"/>
<text text-anchor="middle" x="215.27" y="-297.95" font-family="Times,serif" font-size="14.00">cosmic</text>
</g>
<!-- hgnc&#45;&#45;cosmic -->
<g id="edge14" class="edge">
<title>hgnc&#45;&#45;cosmic</title>
<path fill="none" stroke="black" d="M45.9,-447.57C54.96,-427.47 71.8,-394.17 93.07,-370.5 117.93,-342.82 156.93,-323.96 183.95,-313.36"/>
<text text-anchor="middle" x="111.82" y="-373.2" font-family="Times,serif" font-size="14.00">569</text>
</g>
<!-- pseudogene -->
<g id="node15" class="node">
<title>pseudogene</title>
<ellipse fill="none" stroke="black" cx="215.27" cy="-249" rx="54.42" ry="18"/>
<text text-anchor="middle" x="215.27" y="-243.95" font-family="Times,serif" font-size="14.00">pseudogene</text>
</g>
<!-- hgnc&#45;&#45;pseudogene -->
<g id="edge15" class="edge">
<title>hgnc&#45;&#45;pseudogene</title>
<path fill="none" stroke="black" d="M42.07,-447.08C48.42,-418.23 63.92,-360.64 93.07,-320.5 113.59,-292.23 149,-273.23 176.27,-261.97"/>
<text text-anchor="middle" x="111.82" y="-323.2" font-family="Times,serif" font-size="14.00">8,501</text>
</g>
<!-- iuphar.ligand -->
<g id="node16" class="node">
<title>iuphar.ligand</title>
<ellipse fill="none" stroke="black" cx="215.27" cy="-195" rx="59.54" ry="18"/>
<text text-anchor="middle" x="215.27" y="-189.95" font-family="Times,serif" font-size="14.00">iuphar.ligand</text>
</g>
<!-- hgnc&#45;&#45;iuphar.ligand -->
<g id="edge16" class="edge">
<title>hgnc&#45;&#45;iuphar.ligand</title>
<path fill="none" stroke="black" d="M39.72,-446.64C42.9,-409.48 54.22,-323.97 93.07,-265.5 111.79,-237.32 145.91,-218.95 173.19,-208.06"/>
<text text-anchor="middle" x="111.82" y="-268.2" font-family="Times,serif" font-size="14.00">460</text>
</g>
<!-- lncipedia -->
<g id="node17" class="node">
<title>lncipedia</title>
<ellipse fill="none" stroke="black" cx="215.27" cy="-141" rx="44.7" ry="18"/>
<text text-anchor="middle" x="215.27" y="-135.95" font-family="Times,serif" font-size="14.00">lncipedia</text>
</g>
<!-- hgnc&#45;&#45;lncipedia -->
<g id="edge17" class="edge">
<title>hgnc&#45;&#45;lncipedia</title>
<path fill="none" stroke="black" d="M38.27,-446.76C38.47,-402.63 44.02,-288.01 93.07,-210.5 112.33,-180.06 150.03,-161.55 178.29,-151.37"/>
<text text-anchor="middle" x="111.82" y="-213.2" font-family="Times,serif" font-size="14.00">2,466</text>
</g>
<!-- civic.gid -->
<g id="node18" class="node">
<title>civic.gid</title>
<ellipse fill="none" stroke="black" cx="714.39" cy="-232" rx="43.16" ry="18"/>
<text text-anchor="middle" x="714.39" y="-226.95" font-family="Times,serif" font-size="14.00">civic.gid</text>
</g>
<!-- hgnc&#45;&#45;civic.gid -->
<g id="edge18" class="edge">
<title>hgnc&#45;&#45;civic.gid</title>
<path fill="none" stroke="black" d="M50.6,-481.51C58.79,-493.54 69.16,-510.54 75.07,-527 92.39,-575.28 68.83,-595.79 93.07,-641 108.89,-670.52 117.48,-679.5 148.57,-692 239.8,-728.68 517.99,-765.9 590.97,-700 620.15,-673.65 598.53,-561.9 608.97,-524 621.35,-479.1 636.55,-472.49 653.22,-429 677.94,-364.56 699.58,-285.31 708.74,-250.21"/>
<text text-anchor="middle" x="406.41" y="-739.2" font-family="Times,serif" font-size="14.00">491</text>
</g>
<!-- ncit -->
<g id="node19" class="node">
<title>ncit</title>
<ellipse fill="none" stroke="black" cx="858.05" cy="-208" rx="27" ry="18"/>
<text text-anchor="middle" x="858.05" y="-202.95" font-family="Times,serif" font-size="14.00">ncit</text>
</g>
<!-- hgnc&#45;&#45;ncit -->
<g id="edge19" class="edge">
<title>hgnc&#45;&#45;ncit</title>
<path fill="none" stroke="black" d="M51.04,-481.36C59.44,-493.32 69.88,-510.3 75.07,-527 92.05,-581.67 56.91,-739.61 93.07,-784 128.4,-827.38 158.32,-818 214.27,-818 214.27,-818 214.27,-818 715.39,-818 840.14,-818 855.07,-327.75 856.82,-226.26"/>
<text text-anchor="middle" x="487.35" y="-821.2" font-family="Times,serif" font-size="14.00">5,893</text>
</g>
<!-- wikidata -->
<g id="node20" class="node">
<title>wikidata</title>
<ellipse fill="none" stroke="black" cx="994.45" cy="-121" rx="42.65" ry="18"/>
<text text-anchor="middle" x="994.45" y="-115.95" font-family="Times,serif" font-size="14.00">wikidata</text>
</g>
<!-- hgnc&#45;&#45;wikidata -->
<g id="edge20" class="edge">
<title>hgnc&#45;&#45;wikidata</title>
<path fill="none" stroke="black" d="M38.88,-446.83C40.55,-377.34 49.49,-129.16 93.07,-66 127.9,-15.51 152.93,0 214.27,0 214.27,0 214.27,0 859.05,0 919.96,0 965.74,-69.49 984.34,-103.15"/>
<text text-anchor="middle" x="557.54" y="-3.2" font-family="Times,serif" font-size="14.00">43,557</text>
</g>
<!-- ensembl&#45;&#45;ncbigene -->
<g id="edge21" class="edge">
<title>ensembl&#45;&#45;ncbigene</title>
<path fill="none" stroke="black" stroke-width="1.01" d="M254.11,-94.58C264.76,-98.59 275.27,-104.7 281.98,-114 316.23,-161.52 276.04,-323.53 299.98,-377 317.85,-416.94 357.28,-450.73 382.53,-469.4"/>
<text text-anchor="middle" x="322.1" y="-438.2" font-family="Times,serif" font-size="14.00">155,882</text>
</g>
<!-- ensembl&#45;&#45;omim -->
<g id="edge22" class="edge">
<title>ensembl&#45;&#45;omim</title>
<path fill="none" stroke="black" d="M251.28,-96.75C261.92,-100.88 273.13,-106.51 281.98,-114 293.55,-123.8 287.14,-134.92 299.98,-143 370.31,-187.29 473.42,-182.1 524.88,-175.88"/>
<text text-anchor="middle" x="406.41" y="-183.2" font-family="Times,serif" font-size="14.00">19,092</text>
</g>
<!-- ensembl&#45;&#45;civic.gid -->
<g id="edge26" class="edge">
<title>ensembl&#45;&#45;civic.gid</title>
<path fill="none" stroke="black" d="M252.71,-95.73C263.31,-99.79 274.12,-105.64 281.98,-114 299.01,-132.13 283.97,-147.96 299.98,-167 320.26,-191.13 332.05,-191.87 362.23,-201 469.86,-233.59 603.9,-235.36 670.98,-233.77"/>
<text text-anchor="middle" x="487.35" y="-230.2" font-family="Times,serif" font-size="14.00">543</text>
</g>
<!-- ensembl&#45;&#45;ncit -->
<g id="edge27" class="edge">
<title>ensembl&#45;&#45;ncit</title>
<path fill="none" stroke="black" d="M257.22,-88.98C313.5,-92.02 417.82,-98.8 506.1,-111 645.32,-130.24 681.2,-138.34 813.05,-187 820.83,-189.87 829.1,-193.62 836.35,-197.16"/>
<text text-anchor="middle" x="557.54" y="-127.2" font-family="Times,serif" font-size="14.00">6,785</text>
</g>
<!-- ensembl&#45;&#45;wikidata -->
<g id="edge28" class="edge">
<title>ensembl&#45;&#45;wikidata</title>
<path fill="none" stroke="black" stroke-width="1.01" d="M248.25,-75.41C285.49,-62.98 349.07,-45 405.41,-45 405.41,-45 405.41,-45 859.05,-45 906.76,-45 953.1,-81.74 976.91,-104.13"/>
<text text-anchor="middle" x="631.1" y="-48.2" font-family="Times,serif" font-size="14.00">156,630</text>
</g>
<!-- mgi -->
<g id="node21" class="node">
<title>mgi</title>
<ellipse fill="none" stroke="black" cx="557.54" cy="-307" rx="27" ry="18"/>
<text text-anchor="middle" x="557.54" y="-301.95" font-family="Times,serif" font-size="14.00">mgi</text>
</g>
<!-- ensembl&#45;&#45;mgi -->
<g id="edge23" class="edge">
<title>ensembl&#45;&#45;mgi</title>
<path fill="none" stroke="black" d="M253.75,-94.85C264.39,-98.86 274.98,-104.91 281.98,-114 319.18,-162.31 259.61,-204.31 299.98,-250 359.19,-317.02 478.12,-314.83 530.62,-310.12"/>
<text text-anchor="middle" x="406.41" y="-313.2" font-family="Times,serif" font-size="14.00">56,682</text>
</g>
<!-- rgd -->
<g id="node22" class="node">
<title>rgd</title>
<ellipse fill="none" stroke="black" cx="557.54" cy="-638" rx="27" ry="18"/>
<text text-anchor="middle" x="557.54" y="-632.95" font-family="Times,serif" font-size="14.00">rgd</text>
</g>
<!-- ensembl&#45;&#45;rgd -->
<g id="edge24" class="edge">
<title>ensembl&#45;&#45;rgd</title>
<path fill="none" stroke="black" d="M254.19,-94.52C264.86,-98.52 275.34,-104.64 281.98,-114 303.99,-145.04 287.78,-419.95 299.98,-456 336.06,-562.63 363.74,-604.06 468.6,-645 489.14,-653.02 514.4,-649.8 532.57,-645.45"/>
<text text-anchor="middle" x="406.41" y="-639.2" font-family="Times,serif" font-size="14.00">52,906</text>
</g>
<!-- cgnc -->
<g id="node23" class="node">
<title>cgnc</title>
<ellipse fill="none" stroke="black" cx="557.54" cy="-396" rx="28.32" ry="18"/>
<text text-anchor="middle" x="557.54" y="-390.95" font-family="Times,serif" font-size="14.00">cgnc</text>
</g>
<!-- ensembl&#45;&#45;cgnc -->
<g id="edge25" class="edge">
<title>ensembl&#45;&#45;cgnc</title>
<path fill="none" stroke="black" d="M253.88,-94.75C264.53,-98.76 275.09,-104.83 281.98,-114 326.56,-173.33 264.65,-214.74 299.98,-280 317,-311.45 330.8,-313.92 362.23,-331 421.21,-363.06 442.7,-354.94 506.1,-377 514.85,-380.04 524.37,-383.58 532.77,-386.76"/>
<text text-anchor="middle" x="406.41" y="-364.2" font-family="Times,serif" font-size="14.00">15,259</text>
</g>
<!-- ncbigene&#45;&#45;ncbigene -->
<g id="edge29" class="edge">
<title>ncbigene&#45;&#45;ncbigene</title>
<path fill="none" stroke="black" stroke-width="4" d="M391.96,-502.41C389.27,-512.09 394.08,-521 406.41,-521 418.74,-521 423.56,-512.09 420.86,-502.41"/>
<text text-anchor="middle" x="406.41" y="-524.2" font-family="Times,serif" font-size="14.00">47,782,242</text>
</g>
<!-- ncbigene&#45;&#45;omim -->
<g id="edge30" class="edge">
<title>ncbigene&#45;&#45;omim</title>
<path fill="none" stroke="black" d="M415.12,-467.01C430.28,-431.62 463.03,-355.34 468.6,-343.5 495.65,-286.01 530.69,-219.39 547.18,-188.45"/>
<text text-anchor="middle" x="487.35" y="-346.2" font-family="Times,serif" font-size="14.00">18,253</text>
</g>
<!-- ncbigene&#45;&#45;civic.gid -->
<g id="edge34" class="edge">
<title>ncbigene&#45;&#45;civic.gid</title>
<path fill="none" stroke="black" d="M449.94,-489.01C489.88,-490.57 549.53,-486.98 590.97,-458 665.21,-406.09 698.69,-294.4 709.36,-250.37"/>
<text text-anchor="middle" x="557.54" y="-487.2" font-family="Times,serif" font-size="14.00">528</text>
</g>
<!-- ncbigene&#45;&#45;ncit -->
<g id="edge35" class="edge">
<title>ncbigene&#45;&#45;ncit</title>
<path fill="none" stroke="black" d="M438.46,-497.66C476.22,-511.02 541.07,-527.29 590.97,-505 725.61,-444.86 820.4,-279.19 848.45,-225.23"/>
<text text-anchor="middle" x="631.1" y="-499.2" font-family="Times,serif" font-size="14.00">5,877</text>
</g>
<!-- ncbigene&#45;&#45;wikidata -->
<g id="edge36" class="edge">
<title>ncbigene&#45;&#45;wikidata</title>
<path fill="none" stroke="black" stroke-width="1.05" d="M420.08,-502.17C443.47,-531.71 496.57,-589 556.54,-589 556.54,-589 556.54,-589 859.05,-589 954.36,-589 986.04,-225.87 992.24,-139.35"/>
<text text-anchor="middle" x="714.39" y="-592.2" font-family="Times,serif" font-size="14.00">788,875</text>
</g>
<!-- ncbigene&#45;&#45;mgi -->
<g id="edge31" class="edge">
<title>ncbigene&#45;&#45;mgi</title>
<path fill="none" stroke="black" d="M420.48,-467.61C432.67,-451.54 451.49,-427.11 468.6,-406.5 493.93,-375.99 524.92,-341.56 542.53,-322.25"/>
<text text-anchor="middle" x="487.35" y="-409.2" font-family="Times,serif" font-size="14.00">76,239</text>
</g>
<!-- ncbigene&#45;&#45;rgd -->
<g id="edge32" class="edge">
<title>ncbigene&#45;&#45;rgd</title>
<path fill="none" stroke="black" d="M412.38,-503.08C420.26,-528.63 437.97,-575.28 468.6,-603 486.26,-618.99 512.13,-628.09 531.24,-632.98"/>
<text text-anchor="middle" x="487.35" y="-627.2" font-family="Times,serif" font-size="14.00">48,324</text>
</g>
<!-- ncbigene&#45;&#45;cgnc -->
<g id="edge33" class="edge">
<title>ncbigene&#45;&#45;cgnc</title>
<path fill="none" stroke="black" d="M432.64,-470.36C452.63,-458.71 481.23,-441.95 506.1,-427 516.14,-420.96 527.24,-414.16 536.47,-408.46"/>
<text text-anchor="middle" x="487.35" y="-450.2" font-family="Times,serif" font-size="14.00">25,931</text>
</g>
<!-- omim&#45;&#45;civic.gid -->
<g id="edge37" class="edge">
<title>omim&#45;&#45;civic.gid</title>
<path fill="none" stroke="black" d="M586.48,-180.64C605.43,-187.31 630.98,-196.56 653.22,-205.5 663.39,-209.59 674.39,-214.33 684.17,-218.67"/>
<text text-anchor="middle" x="631.1" y="-208.2" font-family="Times,serif" font-size="14.00">491</text>
</g>
<!-- omim&#45;&#45;ncit -->
<g id="edge38" class="edge">
<title>omim&#45;&#45;ncit</title>
<path fill="none" stroke="black" d="M591.06,-172.8C630.56,-175.23 699.17,-180.24 757.55,-188.5 783.17,-192.13 812.18,-198.02 832.23,-202.38"/>
<text text-anchor="middle" x="714.39" y="-191.2" font-family="Times,serif" font-size="14.00">5,757</text>
</g>
<!-- omim&#45;&#45;wikidata -->
<g id="edge39" class="edge">
<title>omim&#45;&#45;wikidata</title>
<path fill="none" stroke="black" d="M590.32,-166.77C651.02,-158.77 787.7,-141.13 903.05,-129 919.19,-127.3 936.98,-125.68 952.47,-124.34"/>
<text text-anchor="middle" x="794.3" y="-147.2" font-family="Times,serif" font-size="14.00">28,143</text>
</g>
<!-- civic.gid&#45;&#45;civic.gid -->
<g id="edge43" class="edge">
<title>civic.gid&#45;&#45;civic.gid</title>
<path fill="none" stroke="black" d="M700.12,-249.41C697.46,-259.09 702.21,-268 714.39,-268 726.56,-268 731.32,-259.09 728.65,-249.41"/>
<text text-anchor="middle" x="714.39" y="-271.2" font-family="Times,serif" font-size="14.00">506</text>
</g>
<!-- civic.gid&#45;&#45;ncit -->
<g id="edge44" class="edge">
<title>civic.gid&#45;&#45;ncit</title>
<path fill="none" stroke="black" d="M754.85,-225.31C779.41,-221.15 810.28,-215.92 831.63,-212.31"/>
<text text-anchor="middle" x="794.3" y="-224.2" font-family="Times,serif" font-size="14.00">457</text>
</g>
<!-- civic.gid&#45;&#45;wikidata -->
<g id="edge45" class="edge">
<title>civic.gid&#45;&#45;wikidata</title>
<path fill="none" stroke="black" d="M741.8,-217.83C747.05,-214.95 752.49,-211.91 757.55,-209 790.65,-189.96 795.92,-179.48 831.05,-164.5 871.73,-147.16 921.14,-135.1 954.69,-128.16"/>
<text text-anchor="middle" x="858.05" y="-168.2" font-family="Times,serif" font-size="14.00">491</text>
</g>
<!-- ncit&#45;&#45;ncit -->
<g id="edge46" class="edge">
<title>ncit&#45;&#45;ncit</title>
<path fill="none" stroke="black" stroke-width="1.01" d="M847.35,-225.04C845.17,-234.86 848.73,-244 858.05,-244 867.37,-244 870.93,-234.86 868.75,-225.04"/>
<text text-anchor="middle" x="858.05" y="-247.2" font-family="Times,serif" font-size="14.00">181,982</text>
</g>
<!-- ncit&#45;&#45;wikidata -->
<g id="edge47" class="edge">
<title>ncit&#45;&#45;wikidata</title>
<path fill="none" stroke="black" d="M879.34,-196.73C894.56,-188.12 915.77,-175.77 933.8,-164 946.95,-155.42 961.23,-145.16 972.53,-136.81"/>
<text text-anchor="middle" x="918.42" y="-185.2" font-family="Times,serif" font-size="14.00">5,880</text>
</g>
<!-- mgi&#45;&#45;mgi -->
<g id="edge40" class="edge">
<title>mgi&#45;&#45;mgi</title>
<path fill="none" stroke="black" stroke-width="1.04" d="M545.31,-323.29C542.36,-333.39 546.43,-343 557.54,-343 568.64,-343 572.72,-333.39 569.77,-323.29"/>
<text text-anchor="middle" x="557.54" y="-346.2" font-family="Times,serif" font-size="14.00">682,164</text>
</g>
<!-- rgd&#45;&#45;rgd -->
<g id="edge41" class="edge">
<title>rgd&#45;&#45;rgd</title>
<path fill="none" stroke="black" d="M545.31,-654.29C542.36,-664.39 546.43,-674 557.54,-674 568.64,-674 572.72,-664.39 569.77,-654.29"/>
<text text-anchor="middle" x="557.54" y="-677.2" font-family="Times,serif" font-size="14.00">61,339</text>
</g>
<!-- cgnc&#45;&#45;cgnc -->
<g id="edge42" class="edge">
<title>cgnc&#45;&#45;cgnc</title>
<path fill="none" stroke="black" d="M545.2,-412.66C542.46,-422.62 546.57,-432 557.54,-432 568.5,-432 572.62,-422.62 569.87,-412.66"/>
<text text-anchor="middle" x="557.54" y="-435.2" font-family="Times,serif" font-size="14.00">25,936</text>
</g>
<!-- flybase -->
<g id="node24" class="node">
<title>flybase</title>
<ellipse fill="none" stroke="black" cx="37.53" cy="-554" rx="37.53" ry="18"/>
<text text-anchor="middle" x="37.53" y="-548.95" font-family="Times,serif" font-size="14.00">flybase</text>
</g>
<!-- flybase&#45;&#45;flybase -->
<g id="edge48" class="edge">
<title>flybase&#45;&#45;flybase</title>
<path fill="none" stroke="black" d="M24.37,-571.04C21.68,-580.86 26.07,-590 37.53,-590 48.99,-590 53.38,-580.86 50.7,-571.04"/>
<text text-anchor="middle" x="37.53" y="-593.2" font-family="Times,serif" font-size="14.00">17,883</text>
</g>
<!-- sgd -->
<g id="node25" class="node">
<title>sgd</title>
<ellipse fill="none" stroke="black" cx="37.53" cy="-643" rx="27" ry="18"/>
<text text-anchor="middle" x="37.53" y="-637.95" font-family="Times,serif" font-size="14.00">sgd</text>
</g>
<!-- sgd&#45;&#45;sgd -->
<g id="edge49" class="edge">
<title>sgd&#45;&#45;sgd</title>
<path fill="none" stroke="black" d="M24.59,-659.29C21.47,-669.39 25.78,-679 37.53,-679 49.28,-679 53.6,-669.39 50.48,-659.29"/>
<text text-anchor="middle" x="37.53" y="-682.2" font-family="Times,serif" font-size="14.00">6,600</text>
</g>
<!-- umls -->
<g id="node26" class="node">
<title>umls</title>
<ellipse fill="none" stroke="black" cx="37.53" cy="-732" rx="29.34" ry="18"/>
<text text-anchor="middle" x="37.53" y="-726.95" font-family="Times,serif" font-size="14.00">umls</text>
</g>
<!-- umls&#45;&#45;umls -->
<g id="edge50" class="edge">
<title>umls&#45;&#45;umls</title>
<path fill="none" stroke="black" stroke-width="1.2" d="M24.59,-748.29C21.47,-758.39 25.78,-768 37.53,-768 49.28,-768 53.6,-758.39 50.48,-748.29"/>
<text text-anchor="middle" x="37.53" y="-771.2" font-family="Times,serif" font-size="14.00">3,185,657</text>
</g>
</g>
</svg>
