<?xml version="1.0" encoding="UTF-8" standalone="no"?>
<!DOCTYPE svg PUBLIC "-//W3C//DTD SVG 1.1//EN"
 "http://www.w3.org/Graphics/SVG/1.1/DTD/svg11.dtd">
<!-- Generated by graphviz version 12.0.0 (20240704.0754)
 -->
<!-- Pages: 1 -->
<svg width="2326pt" height="2840pt"
 viewBox="0.00 0.00 2325.95 2839.50" xmlns="http://www.w3.org/2000/svg" xmlns:xlink="http://www.w3.org/1999/xlink">
<g id="graph0" class="graph" transform="scale(1 1) rotate(0) translate(4 2835.5)">
<polygon fill="white" stroke="none" points="-4,4 -4,-2835.5 2321.95,-2835.5 2321.95,4 -4,4"/>
<!-- hgnc
44,071 -->
<g id="node1" class="node">
<title>hgnc
44,071</title>
<ellipse fill="none" stroke="black" cx="37.83" cy="-1143" rx="37.83" ry="28.99"/>
<text text-anchor="middle" x="37.83" y="-1146.2" font-family="Times,serif" font-size="14.00">hgnc</text>
<text text-anchor="middle" x="37.83" y="-1129.7" font-family="Times,serif" font-size="14.00">44,071</text>
</g>
<!-- ccds -->
<g id="node2" class="node">
<title>ccds</title>
<ellipse fill="none" stroke="black" cx="176.46" cy="-1105" rx="27.3" ry="18"/>
<text text-anchor="middle" x="176.46" y="-1099.95" font-family="Times,serif" font-size="14.00">ccds</text>
</g>
<!-- hgnc
44,071&#45;&#45;ccds -->
<g id="edge1" class="edge">
<title>hgnc
44,071&#45;&#45;ccds</title>
<path fill="none" stroke="black" d="M73.66,-1133.31C97.85,-1126.58 129.49,-1117.79 151.03,-1111.79"/>
<text text-anchor="middle" x="112.41" y="-1130.2" font-family="Times,serif" font-size="14.00">16,543</text>
</g>
<!-- ena.embl -->
<g id="node3" class="node">
<title>ena.embl</title>
<ellipse fill="none" stroke="black" cx="322.46" cy="-1105" rx="45.21" ry="18"/>
<text text-anchor="middle" x="322.46" y="-1099.95" font-family="Times,serif" font-size="14.00">ena.embl</text>
</g>
<!-- hgnc
44,071&#45;&#45;ena.embl -->
<g id="edge2" class="edge">
<title>hgnc
44,071&#45;&#45;ena.embl</title>
<path fill="none" stroke="black" d="M75.99,-1144.54C81.9,-1144.73 87.95,-1144.9 93.66,-1145 167.73,-1146.35 187.23,-1143.35 259.25,-1126 268.89,-1123.68 279.17,-1120.51 288.53,-1117.34"/>
<text text-anchor="middle" x="176.46" y="-1147.2" font-family="Times,serif" font-size="14.00">20,684</text>
</g>
<!-- ensembl -->
<g id="node4" class="node">
<title>ensembl</title>
<ellipse fill="none" stroke="black" cx="483.31" cy="-1552" rx="42.14" ry="18"/>
<text text-anchor="middle" x="483.31" y="-1546.95" font-family="Times,serif" font-size="14.00">ensembl</text>
</g>
<!-- hgnc
44,071&#45;&#45;ensembl -->
<g id="edge3" class="edge">
<title>hgnc
44,071&#45;&#45;ensembl</title>
<path fill="none" stroke="black" d="M39.13,-1172.31C41.03,-1345.71 52.73,-2231.01 93.66,-2270 137.75,-2312 321.35,-2309.52 367.67,-2270 477.88,-2176 482.62,-1673.49 482.42,-1570.47"/>
<text text-anchor="middle" x="240.5" y="-2303.2" font-family="Times,serif" font-size="14.00">44,695</text>
</g>
<!-- iuphar.receptor -->
<g id="node5" class="node">
<title>iuphar.receptor</title>
<ellipse fill="none" stroke="black" cx="665.66" cy="-758" rx="66.71" ry="18"/>
<text text-anchor="middle" x="665.66" y="-752.95" font-family="Times,serif" font-size="14.00">iuphar.receptor</text>
</g>
<!-- hgnc
44,071&#45;&#45;iuphar.receptor -->
<g id="edge4" class="edge">
<title>hgnc
44,071&#45;&#45;iuphar.receptor</title>
<path fill="none" stroke="black" d="M38.96,-1113.88C39.82,-988.56 46.19,-499.41 93.66,-452 216.97,-328.85 532.85,-518.01 580.95,-564 633.18,-613.94 654.59,-701.9 661.69,-739.79"/>
<text text-anchor="middle" x="322.46" y="-448.2" font-family="Times,serif" font-size="14.00">3,098</text>
</g>
<!-- ncbigene
59,499,014 -->
<g id="node6" class="node">
<title>ncbigene
59,499,014</title>
<ellipse fill="none" stroke="black" cx="860.66" cy="-1806" rx="54.8" ry="28.99"/>
<text text-anchor="middle" x="860.66" y="-1809.2" font-family="Times,serif" font-size="14.00">ncbigene</text>
<text text-anchor="middle" x="860.66" y="-1792.7" font-family="Times,serif" font-size="14.00">59,499,014</text>
</g>
<!-- hgnc
44,071&#45;&#45;ncbigene
59,499,014 -->
<g id="edge5" class="edge">
<title>hgnc
44,071&#45;&#45;ncbigene
59,499,014</title>
<path fill="none" stroke="black" d="M38.78,-1172.46C38.67,-1342.15 40.81,-2190.8 93.66,-2293 114.86,-2334 129.3,-2357 175.46,-2357 175.46,-2357 175.46,-2357 405.42,-2357 586.12,-2357 677.25,-2361.89 787.86,-2219 814.23,-2184.94 798.73,-2068.48 805.86,-2026 817.52,-1956.59 839.18,-1876.69 851.15,-1834.9"/>
<text text-anchor="middle" x="404.42" y="-2360.2" font-family="Times,serif" font-size="14.00">44,328</text>
</g>
<!-- omim
27,201 -->
<g id="node7" class="node">
<title>omim
27,201</title>
<ellipse fill="none" stroke="black" cx="1038.32" cy="-1376" rx="37.83" ry="28.99"/>
<text text-anchor="middle" x="1038.32" y="-1379.2" font-family="Times,serif" font-size="14.00">omim</text>
<text text-anchor="middle" x="1038.32" y="-1362.7" font-family="Times,serif" font-size="14.00">27,201</text>
</g>
<!-- hgnc
44,071&#45;&#45;omim
27,201 -->
<g id="edge6" class="edge">
<title>hgnc
44,071&#45;&#45;omim
27,201</title>
<path fill="none" stroke="black" d="M50.5,-1170.37C78.7,-1232.5 157.22,-1383.31 277.25,-1441 313.47,-1458.41 327.62,-1444.27 367.67,-1441 471.5,-1432.53 495.44,-1414.66 598.95,-1403 747.08,-1386.31 924.62,-1379.37 1000.26,-1377.02"/>
<text text-anchor="middle" x="483.31" y="-1434.2" font-family="Times,serif" font-size="14.00">17,785</text>
</g>
<!-- refseq -->
<g id="node8" class="node">
<title>refseq</title>
<ellipse fill="none" stroke="black" cx="1187.86" cy="-1376" rx="33.44" ry="18"/>
<text text-anchor="middle" x="1187.86" y="-1370.95" font-family="Times,serif" font-size="14.00">refseq</text>
</g>
<!-- hgnc
44,071&#45;&#45;refseq -->
<g id="edge7" class="edge">
<title>hgnc
44,071&#45;&#45;refseq</title>
<path fill="none" stroke="black" d="M44.2,-1114.15C61.39,-1030.3 123.26,-785.06 277.25,-666 364.96,-598.19 415.16,-629.69 525.45,-641 625.21,-651.23 644.03,-683.51 732.36,-731 946.83,-846.3 1033.71,-880.22 1136.42,-1101 1178.19,-1190.78 1185.42,-1312.1 1186.63,-1357.68"/>
<text text-anchor="middle" x="562.2" y="-654.2" font-family="Times,serif" font-size="14.00">42,273</text>
</g>
<!-- ucsc -->
<g id="node9" class="node">
<title>ucsc</title>
<ellipse fill="none" stroke="black" cx="1322.09" cy="-1762" rx="27.3" ry="18"/>
<text text-anchor="middle" x="1322.09" y="-1756.95" font-family="Times,serif" font-size="14.00">ucsc</text>
</g>
<!-- hgnc
44,071&#45;&#45;ucsc -->
<g id="edge8" class="edge">
<title>hgnc
44,071&#45;&#45;ucsc</title>
<path fill="none" stroke="black" d="M39.09,-1172.45C40.77,-1344.95 51.31,-2220.64 93.66,-2332 114.19,-2385.99 117.69,-2433 175.46,-2433 175.46,-2433 175.46,-2433 563.2,-2433 795.22,-2433 886.33,-2492.36 1080.92,-2366 1118.38,-2341.68 1243.78,-2054.97 1276.8,-1948 1289.08,-1908.19 1285.18,-1896.54 1294.8,-1856 1301.13,-1829.29 1309.98,-1798.74 1315.62,-1779.91"/>
<text text-anchor="middle" x="665.66" y="-2444.2" font-family="Times,serif" font-size="14.00">24,301</text>
</g>
<!-- vega -->
<g id="node10" class="node">
<title>vega</title>
<ellipse fill="none" stroke="black" cx="1457.96" cy="-1421" rx="28.32" ry="18"/>
<text text-anchor="middle" x="1457.96" y="-1415.95" font-family="Times,serif" font-size="14.00">vega</text>
</g>
<!-- hgnc
44,071&#45;&#45;vega -->
<g id="edge9" class="edge">
<title>hgnc
44,071&#45;&#45;vega</title>
<path fill="none" stroke="black" d="M39.4,-1172.26C42.91,-1348.67 62.6,-2266.84 93.66,-2388 114.08,-2467.67 93.21,-2554 175.46,-2554 175.46,-2554 175.46,-2554 563.2,-2554 803.01,-2554 877.96,-2529.74 1080.92,-2402 1182.78,-2337.89 1225.63,-2323.94 1276.8,-2215 1301.23,-2162.98 1265.16,-2006.24 1294.8,-1957 1309.53,-1932.51 1332.46,-1946.03 1349.39,-1923 1414.65,-1834.2 1392.11,-1791.45 1411.64,-1683 1425.49,-1606.05 1413.85,-1584.58 1429.64,-1508 1434.69,-1483.5 1443.91,-1456.1 1450.23,-1438.72"/>
<text text-anchor="middle" x="769.11" y="-2547.2" font-family="Times,serif" font-size="14.00">32,363</text>
</g>
<!-- orphanet -->
<g id="node11" class="node">
<title>orphanet</title>
<ellipse fill="none" stroke="black" cx="1620.95" cy="-827" rx="43.16" ry="18"/>
<text text-anchor="middle" x="1620.95" y="-821.95" font-family="Times,serif" font-size="14.00">orphanet</text>
</g>
<!-- hgnc
44,071&#45;&#45;orphanet -->
<g id="edge10" class="edge">
<title>hgnc
44,071&#45;&#45;orphanet</title>
<path fill="none" stroke="black" d="M38.95,-1113.6C39.76,-995.15 45.99,-553.07 93.66,-423 114.99,-364.79 113.46,-310 175.46,-310 175.46,-310 175.46,-310 405.42,-310 779.41,-310 880.86,-361.18 1221.3,-516 1373.78,-585.34 1431.6,-583.05 1548.53,-703 1579.74,-735.02 1602.37,-783.32 1613.06,-809.17"/>
<text text-anchor="middle" x="860.66" y="-387.2" font-family="Times,serif" font-size="14.00">4,418</text>
</g>
<!-- lrg -->
<g id="node12" class="node">
<title>lrg</title>
<ellipse fill="none" stroke="black" cx="176.46" cy="-1051" rx="27" ry="18"/>
<text text-anchor="middle" x="176.46" y="-1045.95" font-family="Times,serif" font-size="14.00">lrg</text>
</g>
<!-- hgnc
44,071&#45;&#45;lrg -->
<g id="edge11" class="edge">
<title>hgnc
44,071&#45;&#45;lrg</title>
<path fill="none" stroke="black" d="M63.22,-1121.2C72.47,-1113.35 83.28,-1104.67 93.66,-1097.5 113.41,-1083.85 137.45,-1070.54 154.34,-1061.69"/>
<text text-anchor="middle" x="112.41" y="-1100.2" font-family="Times,serif" font-size="14.00">1,325</text>
</g>
<!-- cosmic -->
<g id="node13" class="node">
<title>cosmic</title>
<ellipse fill="none" stroke="black" cx="1808.41" cy="-898" rx="37.53" ry="18"/>
<text text-anchor="middle" x="1808.41" y="-892.95" font-family="Times,serif" font-size="14.00">cosmic</text>
</g>
<!-- hgnc
44,071&#45;&#45;cosmic -->
<g id="edge12" class="edge">
<title>hgnc
44,071&#45;&#45;cosmic</title>
<path fill="none" stroke="black" d="M39.02,-1113.66C40.13,-985.61 47.4,-475.4 93.66,-323 114.81,-253.31 102.62,-181 175.46,-181 175.46,-181 175.46,-181 770.11,-181 978.75,-181 1525.13,-285.23 1675.37,-430 1716.53,-469.66 1716.71,-490.63 1730.87,-546 1739.97,-581.58 1727.15,-846.39 1748.87,-876 1754.59,-883.79 1763.41,-888.82 1772.48,-892.08"/>
<text text-anchor="middle" x="955.59" y="-203.2" font-family="Times,serif" font-size="14.00">569</text>
</g>
<!-- pseudogene -->
<g id="node14" class="node">
<title>pseudogene</title>
<ellipse fill="none" stroke="black" cx="1620.95" cy="-2411" rx="54.42" ry="18"/>
<text text-anchor="middle" x="1620.95" y="-2405.95" font-family="Times,serif" font-size="14.00">pseudogene</text>
</g>
<!-- hgnc
44,071&#45;&#45;pseudogene -->
<g id="edge13" class="edge">
<title>hgnc
44,071&#45;&#45;pseudogene</title>
<path fill="none" stroke="black" d="M38.8,-1172.19C38.73,-1368.23 40.67,-2489.7 93.66,-2631 113.94,-2685.09 117.69,-2732 175.46,-2732 175.46,-2732 175.46,-2732 770.11,-2732 1055.49,-2732 1140.5,-2794 1411.64,-2705 1443.2,-2694.64 1526.45,-2669.82 1548.53,-2645 1605.55,-2580.89 1617.05,-2472.26 1619.37,-2429.29"/>
<text text-anchor="middle" x="860.66" y="-2740.2" font-family="Times,serif" font-size="14.00">8,507</text>
</g>
<!-- iuphar.ligand -->
<g id="node15" class="node">
<title>iuphar.ligand</title>
<ellipse fill="none" stroke="black" cx="1808.41" cy="-1617" rx="59.54" ry="18"/>
<text text-anchor="middle" x="1808.41" y="-1611.95" font-family="Times,serif" font-size="14.00">iuphar.ligand</text>
</g>
<!-- hgnc
44,071&#45;&#45;iuphar.ligand -->
<g id="edge14" class="edge">
<title>hgnc
44,071&#45;&#45;iuphar.ligand</title>
<path fill="none" stroke="black" d="M39.14,-1172.29C41.18,-1356.25 53.99,-2348.47 93.66,-2477 171.28,-2728.53 343.23,-2723.55 598.95,-2786 805.47,-2836.44 1397.24,-2819.35 1548.53,-2670 1798.65,-2423.08 1689.83,-2251.47 1748.87,-1905 1766.36,-1802.39 1793.15,-1680.43 1803.31,-1635.12"/>
<text text-anchor="middle" x="955.59" y="-2814.2" font-family="Times,serif" font-size="14.00">463</text>
</g>
<!-- lncipedia -->
<g id="node16" class="node">
<title>lncipedia</title>
<ellipse fill="none" stroke="black" cx="1620.95" cy="-2077" rx="44.7" ry="18"/>
<text text-anchor="middle" x="1620.95" y="-2071.95" font-family="Times,serif" font-size="14.00">lncipedia</text>
</g>
<!-- hgnc
44,071&#45;&#45;lncipedia -->
<g id="edge15" class="edge">
<title>hgnc
44,071&#45;&#45;lncipedia</title>
<path fill="none" stroke="black" d="M38.96,-1172.26C40,-1373.57 47.99,-2547.33 93.66,-2606 116.93,-2635.9 137.57,-2630 175.46,-2630 175.46,-2630 175.46,-2630 563.2,-2630 794.84,-2630 866.77,-2658.29 1080.92,-2570 1203.42,-2519.49 1481.4,-2314.25 1548.53,-2200 1571.41,-2161.07 1538.44,-2135.36 1566.53,-2100 1570.92,-2094.46 1576.91,-2090.24 1583.29,-2087.02"/>
<text text-anchor="middle" x="860.66" y="-2636.2" font-family="Times,serif" font-size="14.00">2,433</text>
</g>
<!-- civic.gid
890 -->
<g id="node17" class="node">
<title>civic.gid
890</title>
<ellipse fill="none" stroke="black" cx="1986.18" cy="-973" rx="44.72" ry="28.99"/>
<text text-anchor="middle" x="1986.18" y="-976.2" font-family="Times,serif" font-size="14.00">civic.gid</text>
<text text-anchor="middle" x="1986.18" y="-959.7" font-family="Times,serif" font-size="14.00">890</text>
</g>
<!-- hgnc
44,071&#45;&#45;civic.gid
890 -->
<g id="edge16" class="edge">
<title>hgnc
44,071&#45;&#45;civic.gid
890</title>
<path fill="none" stroke="black" d="M39.48,-1113.63C42.96,-963.19 60.44,-282.68 93.66,-195 114.49,-140.01 116.65,-91 175.46,-91 175.46,-91 175.46,-91 956.59,-91 1379.68,-91 1632.23,-14.66 1867.95,-366 1994.08,-553.98 1890.7,-649.39 1941.45,-870 1947.6,-896.69 1960.24,-925.23 1970.35,-945.48"/>
<text text-anchor="middle" x="1038.32" y="-94.2" font-family="Times,serif" font-size="14.00">622</text>
</g>
<!-- ncit
12,711 -->
<g id="node18" class="node">
<title>ncit
12,711</title>
<ellipse fill="none" stroke="black" cx="2124.98" cy="-1306" rx="37.83" ry="28.99"/>
<text text-anchor="middle" x="2124.98" y="-1309.2" font-family="Times,serif" font-size="14.00">ncit</text>
<text text-anchor="middle" x="2124.98" y="-1292.7" font-family="Times,serif" font-size="14.00">12,711</text>
</g>
<!-- hgnc
44,071&#45;&#45;ncit
12,711 -->
<g id="edge17" class="edge">
<title>hgnc
44,071&#45;&#45;ncit
12,711</title>
<path fill="none" stroke="black" d="M38.89,-1113.57C39.43,-953.94 44.58,-195.85 93.66,-105 115.09,-65.33 130.37,-45 175.46,-45 175.46,-45 175.46,-45 1259.05,-45 1618.56,-45 1874.22,36.58 2030.9,-287 2121.66,-474.43 2057.03,-546.1 2069.15,-754 2072.5,-811.49 2063.14,-1219.65 2087.15,-1272 2089.55,-1277.22 2093.16,-1282.01 2097.19,-1286.24"/>
<text text-anchor="middle" x="1117.67" y="-48.2" font-family="Times,serif" font-size="14.00">5,978</text>
</g>
<!-- wikidata
797,967 -->
<g id="node19" class="node">
<title>wikidata
797,967</title>
<ellipse fill="none" stroke="black" cx="2273.76" cy="-1882" rx="44.19" ry="28.99"/>
<text text-anchor="middle" x="2273.76" y="-1885.2" font-family="Times,serif" font-size="14.00">wikidata</text>
<text text-anchor="middle" x="2273.76" y="-1868.7" font-family="Times,serif" font-size="14.00">797,967</text>
</g>
<!-- hgnc
44,071&#45;&#45;wikidata
797,967 -->
<g id="edge18" class="edge">
<title>hgnc
44,071&#45;&#45;wikidata
797,967</title>
<path fill="none" stroke="black" d="M38.73,-1113.67C38.35,-949.39 39.33,-147.23 93.66,-53 115.3,-15.47 132.14,0 175.46,0 175.46,0 175.46,0 2125.98,0 2178.91,0 2188.48,-130.08 2211.56,-316 2250.53,-629.89 2269.19,-1665.32 2272.29,-1852.77"/>
<text text-anchor="middle" x="1187.86" y="-3.2" font-family="Times,serif" font-size="14.00">44,599</text>
</g>
<!-- ccds&#45;&#45;ena.embl -->
<g id="edge19" class="edge">
<title>ccds&#45;&#45;ena.embl</title>
<path fill="none" stroke="black" d="M204.21,-1105C224.62,-1105 253.2,-1105 277.03,-1105"/>
<text text-anchor="middle" x="240.5" y="-1108.2" font-family="Times,serif" font-size="14.00">8,240</text>
</g>
<!-- ccds&#45;&#45;ensembl -->
<g id="edge20" class="edge">
<title>ccds&#45;&#45;ensembl</title>
<path fill="none" stroke="black" d="M193.18,-1119.57C197.1,-1123.89 200.98,-1128.85 203.75,-1134 218.99,-1162.28 207.86,-1175.04 221.75,-1204 289.8,-1345.89 419.84,-1487.49 465.76,-1535.16"/>
<text text-anchor="middle" x="322.46" y="-1423.2" font-family="Times,serif" font-size="14.00">11,944</text>
</g>
<!-- ccds&#45;&#45;iuphar.receptor -->
<g id="edge21" class="edge">
<title>ccds&#45;&#45;iuphar.receptor</title>
<path fill="none" stroke="black" d="M194.48,-1090.97C198.11,-1087.14 201.52,-1082.73 203.75,-1078 234.7,-1012.5 197.62,-984.3 221.75,-916 266.83,-788.44 267.01,-724.49 385.67,-659.5 477.13,-609.41 598.96,-700.7 645.49,-740.64"/>
<text text-anchor="middle" x="404.42" y="-663.2" font-family="Times,serif" font-size="14.00">1,509</text>
</g>
<!-- ccds&#45;&#45;ncbigene
59,499,014 -->
<g id="edge22" class="edge">
<title>ccds&#45;&#45;ncbigene
59,499,014</title>
<path fill="none" stroke="black" d="M193.51,-1119.4C197.44,-1123.72 201.23,-1128.73 203.75,-1134 226.06,-1180.67 210.55,-1198.49 221.75,-1249 281.6,-1518.75 319.67,-1618.92 543.45,-1781 632.78,-1845.7 678.4,-1837.51 787.86,-1824 795.77,-1823.02 804.06,-1821.46 812.08,-1819.66"/>
<text text-anchor="middle" x="483.31" y="-1769.2" font-family="Times,serif" font-size="14.00">10,615</text>
</g>
<!-- ccds&#45;&#45;omim
27,201 -->
<g id="edge23" class="edge">
<title>ccds&#45;&#45;omim
27,201</title>
<path fill="none" stroke="black" d="M198.81,-1115.9C206,-1119.36 214.13,-1123.05 221.75,-1126 292.78,-1153.5 310.34,-1164.77 385.67,-1176 473.34,-1189.07 493.91,-1118.77 580.95,-1135.5 738.15,-1165.71 779.01,-1185.31 915.46,-1269 954.1,-1292.7 992.34,-1328.91 1015.39,-1352.52"/>
<text text-anchor="middle" x="562.2" y="-1138.2" font-family="Times,serif" font-size="14.00">8,615</text>
</g>
<!-- ccds&#45;&#45;refseq -->
<g id="edge24" class="edge">
<title>ccds&#45;&#45;refseq</title>
<path fill="none" stroke="black" d="M198.96,-1094.43C236,-1076.86 314.7,-1042.39 385.67,-1030 496.23,-1010.7 489.86,-1019.03 732.36,-1093.5 766.17,-1103.88 772.31,-1112.82 805.86,-1124 853.56,-1139.9 868.58,-1133.84 915.46,-1152 993.13,-1182.08 1016.55,-1187.14 1080.92,-1240 1111.07,-1264.76 1112.46,-1277.21 1136.42,-1308 1149.78,-1325.17 1164.55,-1345.21 1174.64,-1359.07"/>
<text text-anchor="middle" x="665.66" y="-1096.2" font-family="Times,serif" font-size="14.00">10,592</text>
</g>
<!-- ccds&#45;&#45;ucsc -->
<g id="edge25" class="edge">
<title>ccds&#45;&#45;ucsc</title>
<path fill="none" stroke="black" d="M194,-1119.19C197.93,-1123.51 201.6,-1128.57 203.75,-1134 225.38,-1188.66 193.98,-2140.19 221.75,-2192 224.37,-2196.87 380.45,-2303.19 385.67,-2305 458.79,-2330.28 1023.22,-2394.54 1080.92,-2343 1107.44,-2319.31 1087.16,-2217.56 1098.92,-2184 1148.03,-2043.79 1214.22,-2035.74 1276.8,-1901 1296.11,-1859.42 1310.25,-1807.15 1316.89,-1780.1"/>
<text text-anchor="middle" x="769.11" y="-2359.2" font-family="Times,serif" font-size="14.00">10,084</text>
</g>
<!-- ccds&#45;&#45;vega -->
<g id="edge26" class="edge">
<title>ccds&#45;&#45;vega</title>
<path fill="none" stroke="black" d="M192.47,-1090.12C196.23,-1086.24 200.21,-1082.03 203.75,-1078 259.3,-1014.93 237.42,-930 321.46,-930 321.46,-930 321.46,-930 563.2,-930 821.37,-930 907.78,-904.11 1136.42,-1024 1187.43,-1050.75 1348.54,-1224.18 1411.64,-1323 1422.57,-1340.12 1421.18,-1346.53 1429.64,-1365 1435.67,-1378.18 1442.88,-1392.91 1448.37,-1403.95"/>
<text text-anchor="middle" x="860.66" y="-942.2" font-family="Times,serif" font-size="14.00">10,534</text>
</g>
<!-- ccds&#45;&#45;orphanet -->
<g id="edge27" class="edge">
<title>ccds&#45;&#45;orphanet</title>
<path fill="none" stroke="black" d="M194.64,-1091.04C198.26,-1087.21 201.63,-1082.78 203.75,-1078 228.91,-1021.43 207.72,-860.3 221.75,-800 236.37,-737.22 227.68,-707.21 277.25,-666 315.13,-634.51 336.78,-649.02 385.67,-643 871.73,-583.14 1050.36,-472.84 1486.28,-696 1540.37,-723.69 1586.76,-780.83 1607.84,-809.61"/>
<text text-anchor="middle" x="955.59" y="-568.2" font-family="Times,serif" font-size="14.00">2,037</text>
</g>
<!-- ccds&#45;&#45;cosmic -->
<g id="edge28" class="edge">
<title>ccds&#45;&#45;cosmic</title>
<path fill="none" stroke="black" d="M194.7,-1091.07C198.32,-1087.24 201.67,-1082.8 203.75,-1078 238.94,-996.76 190.25,-762.74 221.75,-680 249.26,-607.75 372.88,-446.24 441.17,-410 550.45,-352.02 872.32,-370.3 995.71,-361.5 1180.32,-348.34 1236.14,-282.22 1411.64,-341 1499.06,-370.28 1696.43,-520.48 1730.87,-606 1753.34,-661.78 1713.01,-827.73 1748.87,-876 1754.64,-883.76 1763.47,-888.78 1772.54,-892.03"/>
<text text-anchor="middle" x="1038.32" y="-365.2" font-family="Times,serif" font-size="14.00">212</text>
</g>
<!-- ccds&#45;&#45;pseudogene -->
<g id="edge29" class="edge">
<title>ccds&#45;&#45;pseudogene</title>
<path fill="none" stroke="black" d="M194,-1119.19C197.93,-1123.51 201.6,-1128.56 203.75,-1134 248.01,-1245.92 176.47,-2105.49 221.75,-2217 233.19,-2245.18 290.76,-2329.09 441.17,-2447 586.83,-2561.18 630.19,-2589.76 805.86,-2648 933.87,-2690.43 1290.77,-2743.81 1411.64,-2684 1523.58,-2628.61 1591.82,-2481.05 1612.91,-2429.27"/>
<text text-anchor="middle" x="955.59" y="-2690.2" font-family="Times,serif" font-size="14.00">65</text>
</g>
<!-- ccds&#45;&#45;iuphar.ligand -->
<g id="edge30" class="edge">
<title>ccds&#45;&#45;iuphar.ligand</title>
<path fill="none" stroke="black" d="M193.75,-1119.3C197.68,-1123.61 201.41,-1128.64 203.75,-1134 240.22,-1217.39 206.38,-1248.29 221.75,-1338 238.5,-1435.69 240.58,-1461.91 277.25,-1554 386.3,-1827.86 391.05,-1925.03 598.95,-2134 733.17,-2268.91 807.55,-2266.52 995.71,-2295 1033.16,-2300.67 1051.89,-2319.32 1080.92,-2295 1115.88,-2265.72 1065.1,-2224.58 1098.92,-2194 1119.62,-2175.28 1322.34,-2181.88 1349.39,-2175 1378.79,-2167.52 1392.81,-2170.79 1411.64,-2147 1437.77,-2113.99 1410.71,-2091.61 1429.64,-2054 1449.15,-2015.24 1661.2,-1795.11 1693.37,-1766 1708.8,-1752.05 1717.34,-1753.8 1730.87,-1738 1741.99,-1725.01 1740.09,-1718.67 1748.87,-1704 1763.56,-1679.48 1782.25,-1652.31 1794.51,-1634.97"/>
<text text-anchor="middle" x="1038.32" y="-2310.2" font-family="Times,serif" font-size="14.00">302</text>
</g>
<!-- ccds&#45;&#45;civic.gid
890 -->
<g id="edge31" class="edge">
<title>ccds&#45;&#45;civic.gid
890</title>
<path fill="none" stroke="black" d="M194.73,-1091.08C198.35,-1087.25 201.69,-1082.81 203.75,-1078 224.36,-1029.97 212.82,-659.49 221.75,-608 231.23,-553.36 244.27,-542.39 259.25,-489 268.28,-456.83 253.26,-439.26 277.25,-416 389.73,-307 1027.67,-323.99 1098.92,-319.5 1354.68,-303.37 1440.01,-231.62 1675.37,-333 1829.3,-399.3 1870.82,-457.88 1923.45,-617 1962.26,-734.32 1977.9,-881.89 1983.04,-943.68"/>
<text text-anchor="middle" x="1117.67" y="-323.2" font-family="Times,serif" font-size="14.00">250</text>
</g>
<!-- ccds&#45;&#45;ncit
12,711 -->
<g id="edge32" class="edge">
<title>ccds&#45;&#45;ncit
12,711</title>
<path fill="none" stroke="black" d="M194.75,-1091.09C198.37,-1087.26 201.71,-1082.82 203.75,-1078 229.21,-1018.04 207.07,-555.47 221.75,-492 235.27,-433.57 231.02,-407.2 277.25,-369 277.25,-369 977.71,-202 977.71,-202 993.25,-188.92 979.36,-172.04 995.71,-160 1052.82,-117.95 1083.77,-149.7 1154.42,-143.5 1385.44,-123.23 1451.11,-54.94 1675.37,-114 2060.14,-215.34 2009.32,-524.63 2069.15,-918 2081,-995.87 2053.74,-1200.67 2087.15,-1272 2089.59,-1277.2 2093.22,-1281.98 2097.26,-1286.21"/>
<text text-anchor="middle" x="1187.86" y="-147.2" font-family="Times,serif" font-size="14.00">2,762</text>
</g>
<!-- ccds&#45;&#45;wikidata
797,967 -->
<g id="edge33" class="edge">
<title>ccds&#45;&#45;wikidata
797,967</title>
<path fill="none" stroke="black" d="M194.01,-1119.19C197.94,-1123.51 201.61,-1128.56 203.75,-1134 227.9,-1195.19 192.68,-2258.99 221.75,-2318 256.72,-2388.98 724.08,-2725.53 805.86,-2758 899.79,-2795.29 1155.99,-2815 1257.05,-2815 1257.05,-2815 1257.05,-2815 2125.98,-2815 2180.54,-2815 2192.26,-2778.03 2211.56,-2727 2269.85,-2572.92 2272.99,-2041.53 2272.86,-1911.09"/>
<text text-anchor="middle" x="1258.05" y="-2818.2" font-family="Times,serif" font-size="14.00">10,647</text>
</g>
<!-- ena.embl&#45;&#45;ensembl -->
<g id="edge34" class="edge">
<title>ena.embl&#45;&#45;ensembl</title>
<path fill="none" stroke="black" d="M331.32,-1122.93C348.99,-1163.64 392.72,-1266.31 423.17,-1354.5 432.47,-1381.42 433.05,-1388.7 441.17,-1416 453.77,-1458.32 468.86,-1507.95 476.8,-1533.98"/>
<text text-anchor="middle" x="404.42" y="-1357.2" font-family="Times,serif" font-size="14.00">20,207</text>
</g>
<!-- ena.embl&#45;&#45;iuphar.receptor -->
<g id="edge35" class="edge">
<title>ena.embl&#45;&#45;iuphar.receptor</title>
<path fill="none" stroke="black" d="M333.57,-1087.2C345.36,-1066.85 365.77,-1032.74 385.67,-1005 408.31,-973.44 413.55,-964.81 441.17,-937.5 507.88,-871.55 597.52,-805.4 640.15,-775.1"/>
<text text-anchor="middle" x="483.31" y="-940.2" font-family="Times,serif" font-size="14.00">2,577</text>
</g>
<!-- ena.embl&#45;&#45;ncbigene
59,499,014 -->
<g id="edge36" class="edge">
<title>ena.embl&#45;&#45;ncbigene
59,499,014</title>
<path fill="none" stroke="black" d="M327.68,-1123.32C341.54,-1183.55 384.89,-1371.87 385.67,-1375 408.56,-1466.13 398.16,-1495.46 441.17,-1579 491.89,-1677.5 502.13,-1718.15 598.95,-1772 663.57,-1807.94 750.81,-1812.01 806.16,-1810.15"/>
<text text-anchor="middle" x="562.2" y="-1763.2" font-family="Times,serif" font-size="14.00">19,054</text>
</g>
<!-- ena.embl&#45;&#45;omim
27,201 -->
<g id="edge37" class="edge">
<title>ena.embl&#45;&#45;omim
27,201</title>
<path fill="none" stroke="black" d="M353.1,-1118.52C395.12,-1137.52 474.56,-1172.84 543.45,-1200 706.8,-1264.4 771.97,-1231.81 915.46,-1333 925.79,-1340.28 922.64,-1348.48 933.46,-1355 953.63,-1367.15 979.59,-1372.4 1000.52,-1374.61"/>
<text text-anchor="middle" x="665.66" y="-1254.2" font-family="Times,serif" font-size="14.00">14,137</text>
</g>
<!-- ena.embl&#45;&#45;refseq -->
<g id="edge38" class="edge">
<title>ena.embl&#45;&#45;refseq</title>
<path fill="none" stroke="black" d="M367.9,-1104.26C443.61,-1103.89 602.06,-1106.95 732.36,-1135 817.08,-1153.23 837.48,-1164.21 915.46,-1202 1019.23,-1252.29 1041.16,-1273.01 1136.42,-1338 1147.11,-1345.29 1158.66,-1353.93 1168.01,-1361.13"/>
<text text-anchor="middle" x="769.11" y="-1151.2" font-family="Times,serif" font-size="14.00">18,274</text>
</g>
<!-- ena.embl&#45;&#45;ucsc -->
<g id="edge39" class="edge">
<title>ena.embl&#45;&#45;ucsc</title>
<path fill="none" stroke="black" d="M328.42,-1123.12C337.52,-1157 356.93,-1232.38 367.67,-1297 394.8,-1460.24 362.36,-1516.49 441.17,-1662 474.39,-1723.32 486.97,-1740.09 543.45,-1781 762.92,-1939.96 866.9,-1951.26 1136.42,-1923 1202.59,-1916.06 1233.75,-1921.73 1276.8,-1871 1299.79,-1843.9 1311.99,-1803.28 1317.45,-1780.04"/>
<text text-anchor="middle" x="860.66" y="-1937.2" font-family="Times,serif" font-size="14.00">16,093</text>
</g>
<!-- ena.embl&#45;&#45;vega -->
<g id="edge40" class="edge">
<title>ena.embl&#45;&#45;vega</title>
<path fill="none" stroke="black" d="M356.41,-1092.66C453.32,-1058.15 745.25,-967.08 977.71,-1028.5 1052.69,-1048.31 1073.97,-1055.02 1136.42,-1101 1221.42,-1163.59 1220.73,-1202.78 1294.8,-1278 1325.6,-1309.28 1334.51,-1315.9 1367.39,-1345 1392.28,-1367.03 1421.79,-1391.82 1439.94,-1406.92"/>
<text text-anchor="middle" x="955.59" y="-1031.2" font-family="Times,serif" font-size="14.00">17,799</text>
</g>
<!-- ena.embl&#45;&#45;orphanet -->
<g id="edge41" class="edge">
<title>ena.embl&#45;&#45;orphanet</title>
<path fill="none" stroke="black" d="M329.65,-1087.15C339.94,-1058.18 361.79,-999.37 385.67,-952 447.12,-830.11 473.25,-784.21 598.95,-731 962.28,-577.2 1093.51,-667.73 1486.28,-705 1514.11,-707.64 1525.08,-698.79 1548.53,-714 1583.58,-736.73 1604.65,-783.36 1614.07,-809.05"/>
<text text-anchor="middle" x="1038.32" y="-654.2" font-family="Times,serif" font-size="14.00">3,609</text>
</g>
<!-- ena.embl&#45;&#45;cosmic -->
<g id="edge42" class="edge">
<title>ena.embl&#45;&#45;cosmic</title>
<path fill="none" stroke="black" d="M326.61,-1086.69C336.41,-1033.4 370.06,-875.23 441.17,-765 480.08,-704.68 483.68,-679.76 543.45,-640 644.76,-572.61 685.9,-582.34 805.86,-562 996.48,-529.68 1526.96,-468.08 1675.37,-592 1729.3,-637.03 1713.82,-671.85 1730.87,-740 1738.27,-769.57 1729.91,-852.13 1748.87,-876 1754.88,-883.57 1763.79,-888.53 1772.85,-891.79"/>
<text text-anchor="middle" x="1117.67" y="-530.2" font-family="Times,serif" font-size="14.00">461</text>
</g>
<!-- ena.embl&#45;&#45;pseudogene -->
<g id="edge43" class="edge">
<title>ena.embl&#45;&#45;pseudogene</title>
<path fill="none" stroke="black" d="M329.01,-1123.31C338.98,-1157.2 359.64,-1232.16 367.67,-1297 379.77,-1394.61 360.25,-2086.99 385.67,-2182 429.18,-2344.62 465.36,-2392.57 598.95,-2495 668.86,-2548.6 699.8,-2557.52 787.86,-2555 1099.52,-2546.07 1181.09,-2552.81 1486.28,-2489 1514.47,-2483.11 1523.12,-2484.56 1548.53,-2471 1569.53,-2459.79 1589.96,-2441.67 1603.56,-2428.28"/>
<text text-anchor="middle" x="1038.32" y="-2552.2" font-family="Times,serif" font-size="14.00">922</text>
</g>
<!-- ena.embl&#45;&#45;iuphar.ligand -->
<g id="edge44" class="edge">
<title>ena.embl&#45;&#45;iuphar.ligand</title>
<path fill="none" stroke="black" d="M328.66,-1123.08C338.14,-1156.9 358.15,-1232.19 367.67,-1297 385.47,-1418.18 366.76,-1450.98 385.67,-1572 446.31,-1960.07 388.43,-2224.42 750.36,-2377 1051.75,-2504.06 1221.63,-2565.2 1486.28,-2373 1497.65,-2364.74 1494.14,-2356.73 1504.28,-2347 1521.07,-2330.89 1532.33,-2335.71 1548.53,-2319 1625.75,-2239.34 1633.46,-2206.73 1675.37,-2104 1688,-2073.06 1684.94,-2063.33 1693.37,-2031 1733.47,-1877.35 1785.79,-1692.78 1802.24,-1635.11"/>
<text text-anchor="middle" x="1117.67" y="-2497.2" font-family="Times,serif" font-size="14.00">349</text>
</g>
<!-- ena.embl&#45;&#45;lncipedia -->
<g id="edge45" class="edge">
<title>ena.embl&#45;&#45;lncipedia</title>
<path fill="none" stroke="black" d="M329,-1123.31C338.96,-1157.2 359.6,-1232.17 367.67,-1297 379.13,-1388.98 356.78,-2042.93 385.67,-2131 430.61,-2267.98 517.9,-2260.35 580.95,-2390 595.38,-2419.66 573.86,-2440.59 598.95,-2462 689.89,-2539.58 1028.56,-2491.53 1136.42,-2440 1213.07,-2403.38 1223.77,-2379.6 1294.8,-2333 1407.46,-2259.07 1450.63,-2259.61 1548.53,-2167 1572.44,-2144.38 1595.2,-2113.53 1608.36,-2094.46"/>
<text text-anchor="middle" x="1038.32" y="-2483.2" font-family="Times,serif" font-size="14.00">958</text>
</g>
<!-- ena.embl&#45;&#45;civic.gid
890 -->
<g id="edge46" class="edge">
<title>ena.embl&#45;&#45;civic.gid
890</title>
<path fill="none" stroke="black" d="M322.73,-1086.75C321.04,-1019.69 324.05,-783.87 441.17,-650 563.18,-510.55 628.13,-500.37 805.86,-448 1176.85,-338.67 1317.6,-336.1 1675.37,-483 1767.17,-520.69 1805.51,-518.87 1867.95,-596 1954.85,-703.35 1977.58,-875.27 1983.32,-943.61"/>
<text text-anchor="middle" x="1187.86" y="-375.2" font-family="Times,serif" font-size="14.00">494</text>
</g>
<!-- ena.embl&#45;&#45;ncit
12,711 -->
<g id="edge47" class="edge">
<title>ena.embl&#45;&#45;ncit
12,711</title>
<path fill="none" stroke="black" d="M346.74,-1089.58C358.27,-1082.15 372.52,-1073.3 385.67,-1066 409.66,-1052.7 415.97,-1049.83 441.17,-1039 608.43,-967.13 1047.56,-734.64 1221.3,-789 1249.95,-797.96 1254.39,-807.52 1276.8,-827.5 1382.09,-921.4 1413.77,-944.97 1486.28,-1066 1497.99,-1085.55 1487.45,-1098.64 1504.28,-1114 1575.62,-1179.12 1831.68,-1198.87 1923.45,-1229 1983.51,-1248.72 2051.95,-1276.08 2091.34,-1292.32"/>
<text text-anchor="middle" x="1258.05" y="-831.2" font-family="Times,serif" font-size="14.00">4,731</text>
</g>
<!-- ena.embl&#45;&#45;wikidata
797,967 -->
<g id="edge48" class="edge">
<title>ena.embl&#45;&#45;wikidata
797,967</title>
<path fill="none" stroke="black" d="M322.91,-1086.62C321.62,-1022.83 322.43,-805.97 385.67,-643 401.33,-602.66 409.74,-592.74 441.17,-563 470.7,-535.06 802.45,-347.55 805.86,-346 1261.29,-139.34 1403.58,-99 1903.7,-99 1903.7,-99 1903.7,-99 2125.98,-99 2217.8,-99 2265.24,-1620.72 2271.93,-1852.54"/>
<text text-anchor="middle" x="1322.09" y="-159.2" font-family="Times,serif" font-size="14.00">19,123</text>
</g>
<!-- ensembl&#45;&#45;iuphar.receptor -->
<g id="edge49" class="edge">
<title>ensembl&#45;&#45;iuphar.receptor</title>
<path fill="none" stroke="black" d="M491.19,-1533.84C500.64,-1508.05 517.38,-1459.16 525.45,-1416 535.14,-1364.19 516.19,-1224.61 543.45,-1179.5 553.62,-1162.67 570.2,-1172.47 580.95,-1156 611.14,-1109.73 588.52,-1087.26 598.95,-1033 617.72,-935.39 647.91,-820.13 659.71,-776.22"/>
<text text-anchor="middle" x="562.2" y="-1182.2" font-family="Times,serif" font-size="14.00">3,521</text>
</g>
<!-- ensembl&#45;&#45;ncbigene
59,499,014 -->
<g id="edge50" class="edge">
<title>ensembl&#45;&#45;ncbigene
59,499,014</title>
<path fill="none" stroke="black" d="M493.69,-1569.68C503.99,-1587.82 521.97,-1616.02 543.45,-1635 627.75,-1709.49 750.1,-1763.86 815.13,-1789.51"/>
<text text-anchor="middle" x="665.66" y="-1754.2" font-family="Times,serif" font-size="14.00">174,324</text>
</g>
<!-- ensembl&#45;&#45;omim
27,201 -->
<g id="edge51" class="edge">
<title>ensembl&#45;&#45;omim
27,201</title>
<path fill="none" stroke="black" d="M494.75,-1534.24C505.14,-1518.09 522.52,-1494.72 543.45,-1481 637.03,-1419.64 681.07,-1387.06 787.86,-1420.5 797.16,-1423.41 796.57,-1430.09 805.86,-1433 852.35,-1447.56 866.77,-1434.17 915.46,-1433 943.15,-1432.33 952.12,-1440.59 977.71,-1430 986.23,-1426.48 1001.81,-1412.23 1014.91,-1399.26"/>
<text text-anchor="middle" x="769.11" y="-1423.2" font-family="Times,serif" font-size="14.00">19,410</text>
</g>
<!-- ensembl&#45;&#45;refseq -->
<g id="edge52" class="edge">
<title>ensembl&#45;&#45;refseq</title>
<path fill="none" stroke="black" d="M491.52,-1534.07C506.03,-1500.75 542.32,-1430.21 598.95,-1403 696.37,-1356.2 974.44,-1319.48 1080.92,-1338 1109.6,-1342.99 1140.78,-1355.04 1161.84,-1364.25"/>
<text text-anchor="middle" x="860.66" y="-1353.2" font-family="Times,serif" font-size="14.00">43,049</text>
</g>
<!-- ensembl&#45;&#45;ucsc -->
<g id="edge53" class="edge">
<title>ensembl&#45;&#45;ucsc</title>
<path fill="none" stroke="black" d="M514.21,-1564.56C518.49,-1567.45 522.45,-1570.91 525.45,-1575 548.79,-1606.85 530.44,-1624.72 543.45,-1662 561.49,-1713.7 557.75,-1735.93 598.95,-1772 672.2,-1836.14 712.16,-1817.52 805.86,-1844 1007.28,-1900.92 1102.42,-1961.77 1276.8,-1846 1299.73,-1830.77 1311.6,-1799.66 1317.07,-1779.88"/>
<text text-anchor="middle" x="955.59" y="-1897.2" font-family="Times,serif" font-size="14.00">26,258</text>
</g>
<!-- ensembl&#45;&#45;vega -->
<g id="edge54" class="edge">
<title>ensembl&#45;&#45;vega</title>
<path fill="none" stroke="black" d="M506.99,-1536.75C517.63,-1530.28 530.75,-1523.27 543.45,-1519 567.5,-1510.92 970.4,-1457.27 995.71,-1455.5 1033.49,-1452.86 1043.82,-1447.89 1080.92,-1455.5 1115.73,-1462.65 1119.61,-1479.85 1154.42,-1487 1183.54,-1492.98 1191.73,-1490.08 1221.3,-1487 1279.16,-1480.97 1293.44,-1475.95 1349.39,-1460 1379,-1451.56 1412.19,-1439.04 1433.77,-1430.48"/>
<text text-anchor="middle" x="1038.32" y="-1458.2" font-family="Times,serif" font-size="14.00">34,406</text>
</g>
<!-- ensembl&#45;&#45;orphanet -->
<g id="edge55" class="edge">
<title>ensembl&#45;&#45;orphanet</title>
<path fill="none" stroke="black" d="M493.66,-1534.14C503.42,-1514.56 518.3,-1481.94 525.45,-1452 537.26,-1402.57 518.9,-1268.5 543.45,-1224 553.5,-1205.79 567.42,-1211.8 580.95,-1196 592.07,-1183.01 585.3,-1172.3 598.95,-1162 667.46,-1110.32 729.4,-1184.83 787.86,-1122 827.89,-1078.97 769.7,-1037.33 805.86,-991 838.16,-949.62 877.24,-982.97 915.46,-947 929.07,-934.19 922.21,-923.92 933.46,-909 992.41,-830.8 1009.61,-803.67 1098.92,-763.5 1272.61,-685.38 1509.98,-777.14 1591.28,-813.47"/>
<text text-anchor="middle" x="1117.67" y="-767.2" font-family="Times,serif" font-size="14.00">4,889</text>
</g>
<!-- ensembl&#45;&#45;cosmic -->
<g id="edge56" class="edge">
<title>ensembl&#45;&#45;cosmic</title>
<path fill="none" stroke="black" d="M493.25,-1534.03C502.66,-1514.37 517.23,-1481.67 525.45,-1452 554.89,-1345.72 517.39,-1289.23 598.95,-1215 664.95,-1154.94 705.52,-1181.4 787.86,-1147 845.86,-1122.77 875.62,-1134.62 915.46,-1086 936.1,-1060.82 919.42,-1044.37 933.46,-1015 953.35,-973.4 962.24,-963.71 995.71,-932 1018.95,-909.99 1237.73,-774.46 1239.3,-774 1324.8,-749.18 1182.75,-766.15 1566.53,-854 1639.05,-870.6 1724.99,-885.07 1772.11,-892.56"/>
<text text-anchor="middle" x="1187.86" y="-830.2" font-family="Times,serif" font-size="14.00">617</text>
</g>
<!-- ensembl&#45;&#45;pseudogene -->
<g id="edge57" class="edge">
<title>ensembl&#45;&#45;pseudogene</title>
<path fill="none" stroke="black" d="M493.25,-1569.84C503.1,-1590.49 518.49,-1625.78 525.45,-1658 540.72,-1728.7 511.23,-1918.24 543.45,-1983 557.85,-2011.94 570.38,-2014.88 598.95,-2030 653.34,-2058.77 687.12,-2025.3 732.36,-2067 749.42,-2082.72 735.89,-2097.87 750.36,-2116 768.7,-2138.98 778.86,-2140.36 805.86,-2152 921.4,-2201.83 969.27,-2160.99 1080.92,-2219 1231.13,-2297.05 1208.95,-2410.41 1367.39,-2470 1447.25,-2500.04 1547.27,-2453.28 1593.85,-2426.96"/>
<text text-anchor="middle" x="1117.67" y="-2257.2" font-family="Times,serif" font-size="14.00">8,112</text>
</g>
<!-- ensembl&#45;&#45;iuphar.ligand -->
<g id="edge58" class="edge">
<title>ensembl&#45;&#45;iuphar.ligand</title>
<path fill="none" stroke="black" d="M525.7,-1551.89C542.8,-1551.87 562.83,-1551.89 580.95,-1552 803.17,-1553.33 866.49,-1499.67 1080.92,-1558 1117.22,-1567.87 1120.54,-1583.63 1154.42,-1600 1191.01,-1617.68 1199.39,-1626.31 1239.3,-1634 1255.66,-1637.16 1260.13,-1634.27 1276.8,-1634 1448.44,-1631.25 1651.19,-1623.5 1748.93,-1619.49"/>
<text text-anchor="middle" x="1187.86" y="-1632.2" font-family="Times,serif" font-size="14.00">516</text>
</g>
<!-- ensembl&#45;&#45;lncipedia -->
<g id="edge59" class="edge">
<title>ensembl&#45;&#45;lncipedia</title>
<path fill="none" stroke="black" d="M493.21,-1569.85C503.04,-1590.5 518.4,-1625.8 525.45,-1658 532.47,-1690.08 524.85,-1925.94 543.45,-1953 595.71,-2029.02 670.06,-1970.97 732.36,-2039 748.6,-2056.73 733.01,-2073.36 750.36,-2090 830.66,-2166.99 1235.79,-2204.51 1239.3,-2205 1287.8,-2211.71 1300.61,-2213.24 1349.39,-2209 1440.52,-2201.07 1474.74,-2211.06 1548.53,-2157 1572.71,-2139.28 1594.72,-2112.21 1607.73,-2094.55"/>
<text text-anchor="middle" x="1117.67" y="-2196.2" font-family="Times,serif" font-size="14.00">2,488</text>
</g>
<!-- ensembl&#45;&#45;civic.gid
890 -->
<g id="edge63" class="edge">
<title>ensembl&#45;&#45;civic.gid
890</title>
<path fill="none" stroke="black" d="M491.63,-1534.13C507.03,-1496.59 541.52,-1412.69 543.45,-1410 562.6,-1383.24 572.87,-1381.06 598.95,-1361 655.44,-1317.54 673.31,-1311.91 732.36,-1272 841.86,-1197.99 868.81,-1178.88 977.71,-1104 1056.35,-1049.93 1073.19,-1032.1 1154.42,-982 1191.03,-959.42 1198.09,-947.84 1239.3,-935.5 1286.21,-921.45 1300.56,-927.33 1349.39,-931 1503.57,-942.59 1539.19,-971.41 1693.37,-983 1709.99,-984.25 1714.21,-983.33 1730.87,-983 1804.65,-981.55 1890.39,-977.74 1941.09,-975.26"/>
<text text-anchor="middle" x="1258.05" y="-938.2" font-family="Times,serif" font-size="14.00">696</text>
</g>
<!-- ensembl&#45;&#45;ncit
12,711 -->
<g id="edge64" class="edge">
<title>ensembl&#45;&#45;ncit
12,711</title>
<path fill="none" stroke="black" d="M514.5,-1564.35C518.75,-1567.27 522.62,-1570.79 525.45,-1575 561.93,-1629.26 522.24,-1659.16 543.45,-1721 559.06,-1766.53 565.95,-1778.96 598.95,-1814 675.24,-1895.02 712.9,-1893.83 805.86,-1955 889.5,-2010.03 1470.39,-2410.06 1566.53,-2438 1612.98,-2451.5 1633.64,-2462.46 1675.37,-2438 1840.62,-2341.15 1786.81,-2225.88 1885.95,-2062 1954.61,-1948.52 1976.43,-1923.07 2048.9,-1812 2057.9,-1798.22 2063.56,-1796.48 2069.15,-1781 2099.13,-1698.05 2117.12,-1425.52 2122.37,-1335.3"/>
<text text-anchor="middle" x="1322.09" y="-2317.2" font-family="Times,serif" font-size="14.00">6,882</text>
</g>
<!-- ensembl&#45;&#45;wikidata
797,967 -->
<g id="edge65" class="edge">
<title>ensembl&#45;&#45;wikidata
797,967</title>
<path fill="none" stroke="black" d="M490.79,-1569.76C500.24,-1596.52 517.52,-1648.92 525.45,-1695 559.02,-1889.96 496.27,-1964.91 598.95,-2134 645.43,-2210.54 692.11,-2205 732.36,-2285 749.72,-2319.5 730.25,-2337.03 750.36,-2370 823.63,-2490.1 874.2,-2499.09 995.71,-2570 1050.29,-2601.85 1462.21,-2777 1525.4,-2777 1525.4,-2777 1525.4,-2777 2125.98,-2777 2184.48,-2777 2189.2,-2731.05 2211.56,-2677 2270.58,-2534.38 2273.21,-2036.98 2272.91,-1911.12"/>
<text text-anchor="middle" x="1389.51" y="-2747.2" font-family="Times,serif" font-size="14.00">159,560</text>
</g>
<!-- mgi
737,779 -->
<g id="node20" class="node">
<title>mgi
737,779</title>
<ellipse fill="none" stroke="black" cx="1038.32" cy="-2257" rx="42.6" ry="28.99"/>
<text text-anchor="middle" x="1038.32" y="-2260.2" font-family="Times,serif" font-size="14.00">mgi</text>
<text text-anchor="middle" x="1038.32" y="-2243.7" font-family="Times,serif" font-size="14.00">737,779</text>
</g>
<!-- ensembl&#45;&#45;mgi
737,779 -->
<g id="edge60" class="edge">
<title>ensembl&#45;&#45;mgi
737,779</title>
<path fill="none" stroke="black" d="M486.37,-1570.27C495.88,-1652.12 537.73,-1984.68 598.95,-2067 697.2,-2199.12 906.65,-2240.58 995.78,-2252.55"/>
<text text-anchor="middle" x="769.11" y="-2201.2" font-family="Times,serif" font-size="14.00">78,642</text>
</g>
<!-- rgd
61,335 -->
<g id="node21" class="node">
<title>rgd
61,335</title>
<ellipse fill="none" stroke="black" cx="1038.32" cy="-1672" rx="37.83" ry="28.99"/>
<text text-anchor="middle" x="1038.32" y="-1675.2" font-family="Times,serif" font-size="14.00">rgd</text>
<text text-anchor="middle" x="1038.32" y="-1658.7" font-family="Times,serif" font-size="14.00">61,335</text>
</g>
<!-- ensembl&#45;&#45;rgd
61,335 -->
<g id="edge61" class="edge">
<title>ensembl&#45;&#45;rgd
61,335</title>
<path fill="none" stroke="black" d="M515.92,-1563.87C524.74,-1566.86 534.39,-1569.83 543.45,-1572 638.28,-1594.71 886.11,-1601.58 977.71,-1635 989.04,-1639.13 1000.52,-1645.6 1010.34,-1651.98"/>
<text text-anchor="middle" x="769.11" y="-1604.2" font-family="Times,serif" font-size="14.00">42,363</text>
</g>
<!-- cgnc
26,075 -->
<g id="node22" class="node">
<title>cgnc
26,075</title>
<ellipse fill="none" stroke="black" cx="1038.32" cy="-1596" rx="37.83" ry="28.99"/>
<text text-anchor="middle" x="1038.32" y="-1599.2" font-family="Times,serif" font-size="14.00">cgnc</text>
<text text-anchor="middle" x="1038.32" y="-1582.7" font-family="Times,serif" font-size="14.00">26,075</text>
</g>
<!-- ensembl&#45;&#45;cgnc
26,075 -->
<g id="edge62" class="edge">
<title>ensembl&#45;&#45;cgnc
26,075</title>
<path fill="none" stroke="black" d="M524.98,-1555.24C628.49,-1563.47 900.8,-1585.14 1000.26,-1593.05"/>
<text text-anchor="middle" x="769.11" y="-1579.2" font-family="Times,serif" font-size="14.00">15,327</text>
</g>
<!-- iuphar.receptor&#45;&#45;ncbigene
59,499,014 -->
<g id="edge66" class="edge">
<title>iuphar.receptor&#45;&#45;ncbigene
59,499,014</title>
<path fill="none" stroke="black" d="M672.26,-776.11C685.48,-819.79 718.56,-934.56 732.36,-1033 757.57,-1212.75 711.37,-1263.73 750.36,-1441 759.8,-1483.92 773.92,-1490.82 787.86,-1532.5 817.14,-1620.02 842.14,-1726.5 853.35,-1776.89"/>
<text text-anchor="middle" x="769.11" y="-1535.2" font-family="Times,serif" font-size="14.00">3,099</text>
</g>
<!-- iuphar.receptor&#45;&#45;omim
27,201 -->
<g id="edge67" class="edge">
<title>iuphar.receptor&#45;&#45;omim
27,201</title>
<path fill="none" stroke="black" d="M677.55,-776.16C730.28,-864.08 959.08,-1245.56 1021.52,-1349.67"/>
<text text-anchor="middle" x="860.66" y="-1171.2" font-family="Times,serif" font-size="14.00">3,054</text>
</g>
<!-- iuphar.receptor&#45;&#45;refseq -->
<g id="edge68" class="edge">
<title>iuphar.receptor&#45;&#45;refseq</title>
<path fill="none" stroke="black" d="M692.03,-774.98C708.49,-785.84 730.49,-800.07 750.36,-812 822.38,-855.24 868.52,-834.34 915.46,-904 951.75,-957.85 894.22,-997.26 933.46,-1049 992.56,-1126.92 1074.18,-1058.57 1136.42,-1134 1150.83,-1151.46 1175.75,-1304.54 1184.07,-1357.81"/>
<text text-anchor="middle" x="955.59" y="-1086.2" font-family="Times,serif" font-size="14.00">3,076</text>
</g>
<!-- iuphar.receptor&#45;&#45;ucsc -->
<g id="edge69" class="edge">
<title>iuphar.receptor&#45;&#45;ucsc</title>
<path fill="none" stroke="black" d="M671.26,-776.29C682.3,-820.36 710.96,-935.93 732.36,-1033 765.09,-1181.43 718.28,-1242.78 805.86,-1367 889.29,-1485.32 989.46,-1429.28 1080.92,-1541.5 1095.18,-1559 1090.37,-1568.11 1098.92,-1589 1122.1,-1645.63 1108.23,-1674.86 1154.42,-1715 1194.48,-1749.8 1258.53,-1758.96 1294.44,-1761.29"/>
<text text-anchor="middle" x="1038.32" y="-1544.2" font-family="Times,serif" font-size="14.00">3,022</text>
</g>
<!-- iuphar.receptor&#45;&#45;vega -->
<g id="edge70" class="edge">
<title>iuphar.receptor&#45;&#45;vega</title>
<path fill="none" stroke="black" d="M732.18,-760.45C819.57,-766.75 975.48,-788.89 1080.92,-866 1273.5,-1006.85 1198.79,-1151.19 1367.39,-1320 1383.83,-1336.47 1395.25,-1331.47 1411.64,-1348 1427.92,-1364.42 1441.1,-1387.72 1448.96,-1403.54"/>
<text text-anchor="middle" x="1117.67" y="-915.2" font-family="Times,serif" font-size="14.00">3,093</text>
</g>
<!-- iuphar.receptor&#45;&#45;orphanet -->
<g id="edge71" class="edge">
<title>iuphar.receptor&#45;&#45;orphanet</title>
<path fill="none" stroke="black" d="M721.98,-748.1C838.2,-728.56 1116.26,-688.51 1349.39,-707 1438.68,-714.08 1471,-693.15 1548.53,-738 1577.68,-754.87 1599.61,-788.58 1611.06,-809.33"/>
<text text-anchor="middle" x="1187.86" y="-707.2" font-family="Times,serif" font-size="14.00">1,074</text>
</g>
<!-- iuphar.receptor&#45;&#45;cosmic -->
<g id="edge72" class="edge">
<title>iuphar.receptor&#45;&#45;cosmic</title>
<path fill="none" stroke="black" d="M707.23,-743.48C859.38,-690.04 1395.07,-511.23 1548.53,-586 1666.74,-643.6 1669.57,-702.66 1730.87,-819 1743.26,-842.5 1730.6,-856.72 1748.87,-876 1755.45,-882.93 1764.42,-887.7 1773.36,-890.97"/>
<text text-anchor="middle" x="1258.05" y="-595.2" font-family="Times,serif" font-size="14.00">170</text>
</g>
<!-- iuphar.receptor&#45;&#45;civic.gid
890 -->
<g id="edge73" class="edge">
<title>iuphar.receptor&#45;&#45;civic.gid
890</title>
<path fill="none" stroke="black" d="M691.66,-741C719.03,-722.76 764.54,-693.51 805.86,-672 879.62,-633.6 905.66,-639.51 977.71,-598 1035.85,-564.51 1036.58,-532.8 1098.92,-508 1285,-433.96 1365.48,-396.74 1548.53,-478 1754.67,-569.51 1794.73,-634.79 1923.45,-820 1950.59,-859.04 1968.49,-911.78 1977.72,-944.04"/>
<text text-anchor="middle" x="1322.09" y="-443.2" font-family="Times,serif" font-size="14.00">228</text>
</g>
<!-- iuphar.receptor&#45;&#45;ncit
12,711 -->
<g id="edge74" class="edge">
<title>iuphar.receptor&#45;&#45;ncit
12,711</title>
<path fill="none" stroke="black" d="M684.94,-740.52C701.9,-724.31 727.83,-699.52 750.36,-678 775.02,-654.44 778.66,-645.58 805.86,-625 883.99,-565.89 906.92,-554.38 995.71,-513 1278.95,-381 1364.49,-301.38 1675.37,-333 1787.36,-344.39 1844.92,-303.36 1923.45,-384 1955.27,-416.66 1931.82,-440.43 1941.45,-485 1990.02,-709.59 2033.4,-759.01 2069.15,-986 2079.06,-1048.91 2059.79,-1214.5 2087.15,-1272 2089.62,-1277.19 2093.26,-1281.96 2097.31,-1286.18"/>
<text text-anchor="middle" x="1389.51" y="-352.2" font-family="Times,serif" font-size="14.00">1,605</text>
</g>
<!-- iuphar.receptor&#45;&#45;wikidata
797,967 -->
<g id="edge75" class="edge">
<title>iuphar.receptor&#45;&#45;wikidata
797,967</title>
<path fill="none" stroke="black" d="M675.11,-739.72C693.91,-700.62 742.57,-607.7 805.86,-549 851.56,-506.62 1237.94,-299.54 1294.8,-274 1528.23,-169.13 1690.08,-145.02 1867.95,-329 2087.21,-555.77 2122.73,-647.33 2211.56,-950 2263.05,-1125.43 2271.31,-1714.95 2272.55,-1852.93"/>
<text text-anchor="middle" x="1457.96" y="-224.2" font-family="Times,serif" font-size="14.00">3,122</text>
</g>
<!-- ncbigene
59,499,014&#45;&#45;omim
27,201 -->
<g id="edge76" class="edge">
<title>ncbigene
59,499,014&#45;&#45;omim
27,201</title>
<path fill="none" stroke="black" d="M871.27,-1777.18C882.91,-1744.75 904.6,-1691.4 933.46,-1651.5 949.27,-1629.65 965.85,-1634.21 977.71,-1610 1015.24,-1533.44 960.06,-1496.45 995.71,-1419 999.45,-1410.89 1005.37,-1403.37 1011.59,-1396.97"/>
<text text-anchor="middle" x="955.59" y="-1654.2" font-family="Times,serif" font-size="14.00">18,502</text>
</g>
<!-- ncbigene
59,499,014&#45;&#45;refseq -->
<g id="edge77" class="edge">
<title>ncbigene
59,499,014&#45;&#45;refseq</title>
<path fill="none" stroke="black" d="M904.7,-1788.23C966.74,-1762.46 1074.61,-1717.02 1080.92,-1710 1124.96,-1661.04 1170.28,-1456.01 1183.22,-1393.9"/>
<text text-anchor="middle" x="1038.32" y="-1752.2" font-family="Times,serif" font-size="14.00">41,522</text>
</g>
<!-- ncbigene
59,499,014&#45;&#45;ucsc -->
<g id="edge78" class="edge">
<title>ncbigene
59,499,014&#45;&#45;ucsc</title>
<path fill="none" stroke="black" d="M914.66,-1812.16C1019.45,-1823.89 1245.74,-1846.84 1276.8,-1830 1296.37,-1819.39 1308.65,-1795.98 1315.19,-1779.6"/>
<text text-anchor="middle" x="1117.67" y="-1835.2" font-family="Times,serif" font-size="14.00">23,840</text>
</g>
<!-- ncbigene
59,499,014&#45;&#45;vega -->
<g id="edge79" class="edge">
<title>ncbigene
59,499,014&#45;&#45;vega</title>
<path fill="none" stroke="black" d="M915.15,-1801.2C988.33,-1792.75 1121.92,-1770.52 1221.3,-1715 1284.11,-1679.91 1309.5,-1675.88 1349.39,-1616 1366.48,-1590.34 1354.35,-1576.94 1367.39,-1549 1387.91,-1505 1423.53,-1459.95 1443.09,-1436.83"/>
<text text-anchor="middle" x="1187.86" y="-1748.2" font-family="Times,serif" font-size="14.00">31,739</text>
</g>
<!-- ncbigene
59,499,014&#45;&#45;orphanet -->
<g id="edge80" class="edge">
<title>ncbigene
59,499,014&#45;&#45;orphanet</title>
<path fill="none" stroke="black" d="M867.76,-1777.03C885.71,-1692.32 940.63,-1437.82 995.71,-1229 998.29,-1219.22 1091.3,-886.65 1098.92,-880 1134.75,-848.72 1460.12,-833.17 1577.75,-828.53"/>
<text text-anchor="middle" x="1258.05" y="-854.2" font-family="Times,serif" font-size="14.00">4,409</text>
</g>
<!-- ncbigene
59,499,014&#45;&#45;cosmic -->
<g id="edge81" class="edge">
<title>ncbigene
59,499,014&#45;&#45;cosmic</title>
<path fill="none" stroke="black" d="M865.3,-1776.8C876.39,-1693.91 914.07,-1451.26 995.71,-1267 1044.7,-1156.44 1065.17,-1127.59 1154.42,-1046 1210.3,-994.92 1223.71,-975.54 1294.8,-949.5 1382.56,-917.35 1668.69,-903.37 1770.8,-899.32"/>
<text text-anchor="middle" x="1322.09" y="-952.2" font-family="Times,serif" font-size="14.00">570</text>
</g>
<!-- ncbigene
59,499,014&#45;&#45;pseudogene -->
<g id="edge82" class="edge">
<title>ncbigene
59,499,014&#45;&#45;pseudogene</title>
<path fill="none" stroke="black" d="M871.52,-1834.85C882.84,-1864.79 903.77,-1911.69 933.46,-1944 949.21,-1961.14 958.43,-1958.97 977.71,-1972 1216.67,-2133.38 1258.64,-2199.99 1504.28,-2351 1531.84,-2367.94 1564.7,-2384.68 1588.34,-2396.15"/>
<text text-anchor="middle" x="1258.05" y="-2197.2" font-family="Times,serif" font-size="14.00">8,359</text>
</g>
<!-- ncbigene
59,499,014&#45;&#45;iuphar.ligand -->
<g id="edge83" class="edge">
<title>ncbigene
59,499,014&#45;&#45;iuphar.ligand</title>
<path fill="none" stroke="black" d="M902.29,-1825.26C977.66,-1859.9 1145.07,-1931.82 1294.8,-1961 1345.78,-1970.94 1371.84,-1997.39 1411.64,-1964 1446.9,-1934.41 1404.22,-1900.38 1429.64,-1862 1452.52,-1827.46 1696.58,-1682.11 1779.8,-1633.16"/>
<text text-anchor="middle" x="1322.09" y="-1979.2" font-family="Times,serif" font-size="14.00">465</text>
</g>
<!-- ncbigene
59,499,014&#45;&#45;lncipedia -->
<g id="edge84" class="edge">
<title>ncbigene
59,499,014&#45;&#45;lncipedia</title>
<path fill="none" stroke="black" d="M873.96,-1834.28C886.04,-1859.29 906.56,-1895.39 933.46,-1919 1006.33,-1982.96 1063.64,-1934.94 1136.42,-1999 1149.55,-2010.56 1142.91,-2020.83 1154.42,-2034 1198.07,-2083.97 1228.86,-2073.62 1276.8,-2119.5 1286.3,-2128.6 1284.59,-2134.69 1294.8,-2143 1322.57,-2165.61 1332.47,-2170.02 1367.39,-2178 1458.54,-2198.83 1559.78,-2127.02 1600.97,-2093.41"/>
<text text-anchor="middle" x="1258.05" y="-2122.2" font-family="Times,serif" font-size="14.00">2,444</text>
</g>
<!-- ncbigene
59,499,014&#45;&#45;civic.gid
890 -->
<g id="edge88" class="edge">
<title>ncbigene
59,499,014&#45;&#45;civic.gid
890</title>
<path fill="none" stroke="black" d="M869.43,-1777.01C895.13,-1681.34 976.87,-1379.33 995.71,-1338 1024.53,-1274.81 1049.61,-1268.99 1080.92,-1207 1091.19,-1186.66 1083.04,-1175.34 1098.92,-1159 1188.73,-1066.59 1240.93,-1074.3 1367.39,-1049.5 1386.69,-1045.72 1396.34,-1037.15 1411.64,-1049.5 1441.18,-1073.35 1400.1,-1109.15 1429.64,-1133 1449.22,-1148.81 1465.94,-1147.83 1486.28,-1133 1507.4,-1117.6 1484.62,-1094.23 1504.28,-1077 1522.08,-1061.4 1900.86,-1008.05 1923.45,-1001 1932.33,-998.23 1941.6,-994.5 1950.19,-990.67"/>
<text text-anchor="middle" x="1389.51" y="-1052.2" font-family="Times,serif" font-size="14.00">621</text>
</g>
<!-- ncbigene
59,499,014&#45;&#45;ncit
12,711 -->
<g id="edge89" class="edge">
<title>ncbigene
59,499,014&#45;&#45;ncit
12,711</title>
<path fill="none" stroke="black" d="M890.9,-1830.55C903.63,-1840.77 918.93,-1852.45 933.46,-1862 959.81,-1879.31 966.84,-1883.35 995.71,-1896 1124.23,-1952.28 1156.35,-1974.25 1294.8,-1997 1346.27,-2005.46 1368.33,-2015.07 1411.64,-1986 1424.08,-1977.65 1418.11,-1967.07 1429.64,-1957.5 1450.48,-1940.2 1462.42,-1947.82 1486.28,-1935 1585.04,-1881.96 1596.4,-1847.26 1693.37,-1791 1767.69,-1747.89 1792.98,-1749.96 1867.95,-1708 1943.35,-1665.8 1973.11,-1666.22 2030.9,-1602 2101.18,-1523.92 2118.4,-1393.05 2122.62,-1335.11"/>
<text text-anchor="middle" x="1457.96" y="-1960.2" font-family="Times,serif" font-size="14.00">5,957</text>
</g>
<!-- ncbigene
59,499,014&#45;&#45;wikidata
797,967 -->
<g id="edge90" class="edge">
<title>ncbigene
59,499,014&#45;&#45;wikidata
797,967</title>
<path fill="none" stroke="black" d="M876.97,-1833.9C888.42,-1855.41 904.02,-1886.09 915.46,-1914 925.22,-1937.8 917.66,-1948.7 933.46,-1969 947.76,-1987.36 961.57,-1980.23 977.71,-1997 988.76,-2008.48 986.33,-2015.13 995.71,-2028 1050.72,-2103.45 1093.27,-2101.2 1136.42,-2184 1152.86,-2215.55 1137,-2230.98 1154.42,-2262 1210.88,-2362.58 1410.06,-2625 1525.4,-2625 1525.4,-2625 1525.4,-2625 2125.98,-2625 2274.23,-2625 2275.19,-2048.5 2273.32,-1911.13"/>
<text text-anchor="middle" x="1526.4" y="-2628.2" font-family="Times,serif" font-size="14.00">788,877</text>
</g>
<!-- ncbigene
59,499,014&#45;&#45;mgi
737,779 -->
<g id="edge85" class="edge">
<title>ncbigene
59,499,014&#45;&#45;mgi
737,779</title>
<path fill="none" stroke="black" d="M869.24,-1834.89C881.14,-1879.07 905.74,-1965.77 933.46,-2037 961.19,-2108.24 1001.63,-2188.72 1022.94,-2229.76"/>
<text text-anchor="middle" x="955.59" y="-2137.2" font-family="Times,serif" font-size="14.00">111,824</text>
</g>
<!-- ncbigene
59,499,014&#45;&#45;rgd
61,335 -->
<g id="edge86" class="edge">
<title>ncbigene
59,499,014&#45;&#45;rgd
61,335</title>
<path fill="none" stroke="black" d="M884.99,-1779.65C898.32,-1765.52 915.85,-1748.4 933.46,-1735.5 951.43,-1722.34 958.61,-1723.44 977.71,-1712 988.4,-1705.6 999.84,-1698.09 1009.8,-1691.32"/>
<text text-anchor="middle" x="955.59" y="-1738.2" font-family="Times,serif" font-size="14.00">48,327</text>
</g>
<!-- ncbigene
59,499,014&#45;&#45;cgnc
26,075 -->
<g id="edge87" class="edge">
<title>ncbigene
59,499,014&#45;&#45;cgnc
26,075</title>
<path fill="none" stroke="black" d="M873.53,-1777.7C885.43,-1752.24 905.95,-1715.29 933.46,-1691.5 949.72,-1677.44 962.31,-1686.99 977.71,-1672 991.11,-1658.97 984.61,-1649.03 995.71,-1634 1000.25,-1627.86 1005.88,-1621.94 1011.52,-1616.67"/>
<text text-anchor="middle" x="955.59" y="-1694.2" font-family="Times,serif" font-size="14.00">26,069</text>
</g>
<!-- omim
27,201&#45;&#45;refseq -->
<g id="edge91" class="edge">
<title>omim
27,201&#45;&#45;refseq</title>
<path fill="none" stroke="black" d="M1076.55,-1376C1100.45,-1376 1131.2,-1376 1154.16,-1376"/>
<text text-anchor="middle" x="1117.67" y="-1379.2" font-family="Times,serif" font-size="14.00">17,245</text>
</g>
<!-- omim
27,201&#45;&#45;ucsc -->
<g id="edge92" class="edge">
<title>omim
27,201&#45;&#45;ucsc</title>
<path fill="none" stroke="black" d="M1064.27,-1397.36C1070.48,-1403.77 1076.6,-1411.18 1080.92,-1419 1097.1,-1448.24 1080.16,-1464.34 1098.92,-1492 1103.61,-1498.92 1216.34,-1572.77 1221.3,-1579.5 1236.42,-1600.04 1228.34,-1610.96 1239.3,-1634 1259.57,-1676.63 1291.48,-1722.23 1308.85,-1745.8"/>
<text text-anchor="middle" x="1187.86" y="-1582.2" font-family="Times,serif" font-size="14.00">16,706</text>
</g>
<!-- omim
27,201&#45;&#45;vega -->
<g id="edge93" class="edge">
<title>omim
27,201&#45;&#45;vega</title>
<path fill="none" stroke="black" d="M1069.48,-1392.81C1125.68,-1421.85 1249.76,-1475.18 1349.39,-1441 1358.98,-1437.71 1357.92,-1430.61 1367.39,-1427 1387.2,-1419.45 1411.24,-1418.23 1429.42,-1418.75"/>
<text text-anchor="middle" x="1258.05" y="-1455.2" font-family="Times,serif" font-size="14.00">16,863</text>
</g>
<!-- omim
27,201&#45;&#45;orphanet -->
<g id="edge94" class="edge">
<title>omim
27,201&#45;&#45;orphanet</title>
<path fill="none" stroke="black" d="M1050.33,-1348.49C1059.55,-1324.62 1072.51,-1288.96 1080.92,-1257 1092.41,-1213.33 1074.62,-1195.06 1098.92,-1157 1161.5,-1058.97 1493.1,-889.66 1592.05,-840.66"/>
<text text-anchor="middle" x="1322.09" y="-1004.2" font-family="Times,serif" font-size="14.00">4,399</text>
</g>
<!-- omim
27,201&#45;&#45;cosmic -->
<g id="edge95" class="edge">
<title>omim
27,201&#45;&#45;cosmic</title>
<path fill="none" stroke="black" d="M1055.27,-1349.88C1064.05,-1334.42 1074.45,-1314.17 1080.92,-1295 1095.5,-1251.8 1068.09,-1227.6 1098.92,-1194 1196.21,-1087.96 1302.05,-1203.28 1411.64,-1110 1426.48,-1097.36 1418.19,-1085.78 1429.64,-1070 1455.98,-1033.67 1466.6,-1026.37 1504.28,-1002 1529.6,-985.62 1538.22,-985.41 1566.53,-975 1638.19,-948.66 1658.34,-948.82 1730.87,-925 1746.4,-919.9 1763.57,-913.88 1777.71,-908.82"/>
<text text-anchor="middle" x="1389.51" y="-1140.2" font-family="Times,serif" font-size="14.00">569</text>
</g>
<!-- omim
27,201&#45;&#45;pseudogene -->
<g id="edge96" class="edge">
<title>omim
27,201&#45;&#45;pseudogene</title>
<path fill="none" stroke="black" d="M1064.99,-1397C1071.2,-1403.4 1077.14,-1410.91 1080.92,-1419 1113.09,-1487.83 1083.48,-1514.61 1098.92,-1589 1157.39,-1870.68 1190.39,-1951.21 1367.39,-2178 1439.7,-2270.65 1550.28,-2358.68 1597.41,-2394.34"/>
<text text-anchor="middle" x="1322.09" y="-2157.2" font-family="Times,serif" font-size="14.00">88</text>
</g>
<!-- omim
27,201&#45;&#45;iuphar.ligand -->
<g id="edge97" class="edge">
<title>omim
27,201&#45;&#45;iuphar.ligand</title>
<path fill="none" stroke="black" d="M1061.76,-1398.91C1072.4,-1408.98 1085.67,-1420.42 1098.92,-1429 1156.33,-1466.15 1174.7,-1469.55 1239.3,-1492 1336.24,-1525.69 1637.36,-1584.68 1757.34,-1607.56"/>
<text text-anchor="middle" x="1389.51" y="-1539.2" font-family="Times,serif" font-size="14.00">460</text>
</g>
<!-- omim
27,201&#45;&#45;lncipedia -->
<g id="edge98" class="edge">
<title>omim
27,201&#45;&#45;lncipedia</title>
<path fill="none" stroke="black" d="M1064.79,-1397.09C1071.01,-1403.49 1076.99,-1410.98 1080.92,-1419 1105.8,-1469.8 1078.09,-1492.41 1098.92,-1545 1114.72,-1584.89 1124.23,-1593.51 1154.42,-1624 1180.16,-1650 1199.9,-1642.32 1221.3,-1672 1237.08,-1693.89 1229.98,-1704.67 1239.3,-1730 1260.97,-1788.97 1264.69,-1804.86 1294.8,-1860 1301.68,-1872.61 1357.33,-1956.74 1367.39,-1967 1417.54,-2018.12 1437.19,-2026.93 1504.28,-2052 1528.14,-2060.92 1556.03,-2067.06 1578.44,-2071.03"/>
<text text-anchor="middle" x="1322.09" y="-1945.2" font-family="Times,serif" font-size="14.00">211</text>
</g>
<!-- omim
27,201&#45;&#45;civic.gid
890 -->
<g id="edge99" class="edge">
<title>omim
27,201&#45;&#45;civic.gid
890</title>
<path fill="none" stroke="black" d="M1052.91,-1348.89C1068.15,-1318.96 1091.68,-1274.28 1098.92,-1269 1403.02,-1047.25 1659.05,-1343.84 1923.45,-1076 1945.72,-1053.45 1924.02,-1033.47 1941.45,-1007 1944.73,-1002.02 1948.99,-997.46 1953.56,-993.41"/>
<text text-anchor="middle" x="1457.96" y="-1188.2" font-family="Times,serif" font-size="14.00">622</text>
</g>
<!-- omim
27,201&#45;&#45;ncit
12,711 -->
<g id="edge100" class="edge">
<title>omim
27,201&#45;&#45;ncit
12,711</title>
<path fill="none" stroke="black" d="M1072.57,-1363.3C1154.8,-1332.64 1374.95,-1255.21 1566.53,-1229 1708.51,-1209.58 1744.76,-1248.49 1885.95,-1273 1956.86,-1285.31 2040.29,-1296.01 2087.16,-1301.69"/>
<text text-anchor="middle" x="1526.4" y="-1241.2" font-family="Times,serif" font-size="14.00">5,847</text>
</g>
<!-- omim
27,201&#45;&#45;wikidata
797,967 -->
<g id="edge101" class="edge">
<title>omim
27,201&#45;&#45;wikidata
797,967</title>
<path fill="none" stroke="black" d="M1056.74,-1401.73C1065,-1414.83 1074.44,-1431.28 1080.92,-1447 1093.16,-1476.7 1081.03,-1490.32 1098.92,-1517 1110.5,-1534.28 1124.09,-1528.25 1136.42,-1545 1150.67,-1564.36 1137.92,-1578.52 1154.42,-1596 1176.54,-1619.43 1199.51,-1600.26 1221.3,-1624 1238.97,-1643.26 1227.61,-1656.61 1239.3,-1680 1252.19,-1705.81 1263.9,-1707.19 1276.8,-1733 1288.48,-1756.39 1282.65,-1765.85 1294.8,-1789 1313.29,-1824.25 1332.44,-1823.98 1349.39,-1860 1364.72,-1892.58 1339.24,-1916.54 1367.39,-1939 1382.76,-1951.26 1392.4,-1943.08 1411.64,-1939 1420.2,-1937.18 1421.07,-1932.82 1429.64,-1931 1454.26,-1925.77 1461.14,-1929.62 1486.28,-1931 1672.64,-1941.24 1717.06,-1977 1903.7,-1977 1903.7,-1977 1903.7,-1977 2125.98,-1977 2177.28,-1977 2224.81,-1935.6 2251.2,-1907.46"/>
<text text-anchor="middle" x="1620.95" y="-1957.2" font-family="Times,serif" font-size="14.00">28,393</text>
</g>
<!-- refseq&#45;&#45;ucsc -->
<g id="edge102" class="edge">
<title>refseq&#45;&#45;ucsc</title>
<path fill="none" stroke="black" d="M1192.29,-1394.05C1201.67,-1442.67 1227.74,-1573.86 1239.3,-1590 1250.74,-1605.99 1264.89,-1597.85 1276.8,-1613.5 1292.64,-1634.32 1309.98,-1709.22 1317.39,-1744.01"/>
<text text-anchor="middle" x="1258.05" y="-1616.2" font-family="Times,serif" font-size="14.00">23,592</text>
</g>
<!-- refseq&#45;&#45;vega -->
<g id="edge103" class="edge">
<title>refseq&#45;&#45;vega</title>
<path fill="none" stroke="black" d="M1205.65,-1391.54C1214.85,-1398.99 1226.89,-1407.12 1239.3,-1411 1285.99,-1425.61 1301.77,-1422.24 1349.39,-1411 1358.09,-1408.95 1358.68,-1404.05 1367.39,-1402 1386.53,-1397.48 1392.36,-1398.12 1411.64,-1402 1419.67,-1403.62 1428.05,-1406.69 1435.39,-1409.9"/>
<text text-anchor="middle" x="1322.09" y="-1423.2" font-family="Times,serif" font-size="14.00">31,349</text>
</g>
<!-- refseq&#45;&#45;orphanet -->
<g id="edge104" class="edge">
<title>refseq&#45;&#45;orphanet</title>
<path fill="none" stroke="black" d="M1196.15,-1358.24C1216.65,-1310.12 1279.11,-1175.36 1367.39,-1093.5 1383.72,-1078.36 1395.25,-1085.08 1411.64,-1070 1422.53,-1059.98 1421.57,-1054.4 1429.64,-1042 1454.6,-1003.64 1461.62,-994.56 1486.28,-956 1494.45,-943.22 1493.6,-937.77 1504.28,-927 1520.66,-910.47 1530.39,-913.58 1548.53,-899 1569.67,-882.02 1591.22,-859.41 1605.04,-844.09"/>
<text text-anchor="middle" x="1389.51" y="-1096.2" font-family="Times,serif" font-size="14.00">4,351</text>
</g>
<!-- refseq&#45;&#45;cosmic -->
<g id="edge105" class="edge">
<title>refseq&#45;&#45;cosmic</title>
<path fill="none" stroke="black" d="M1207.94,-1361.17C1259.57,-1320.16 1403.65,-1199.63 1486.28,-1070 1497.41,-1052.53 1488.77,-1040.74 1504.28,-1027 1543.45,-992.31 1684.7,-987.61 1730.87,-963 1754.72,-950.29 1777.75,-929.14 1792.21,-914.43"/>
<text text-anchor="middle" x="1457.96" y="-1147.2" font-family="Times,serif" font-size="14.00">560</text>
</g>
<!-- refseq&#45;&#45;pseudogene -->
<g id="edge106" class="edge">
<title>refseq&#45;&#45;pseudogene</title>
<path fill="none" stroke="black" d="M1193.18,-1393.8C1199.97,-1422.23 1213.17,-1479.7 1221.3,-1529 1256.05,-1739.78 1207.28,-1809.13 1294.8,-2004 1315.31,-2049.69 1543.75,-2321.01 1604.94,-2393.31"/>
<text text-anchor="middle" x="1389.51" y="-2160.2" font-family="Times,serif" font-size="14.00">8,202</text>
</g>
<!-- refseq&#45;&#45;iuphar.ligand -->
<g id="edge107" class="edge">
<title>refseq&#45;&#45;iuphar.ligand</title>
<path fill="none" stroke="black" d="M1193.12,-1394.2C1199.32,-1416.45 1213.07,-1453.55 1239.3,-1473 1261.61,-1489.55 1705.19,-1554.41 1730.87,-1565 1751.67,-1573.57 1772.61,-1588.32 1787.32,-1599.92"/>
<text text-anchor="middle" x="1457.96" y="-1524.2" font-family="Times,serif" font-size="14.00">457</text>
</g>
<!-- refseq&#45;&#45;lncipedia -->
<g id="edge108" class="edge">
<title>refseq&#45;&#45;lncipedia</title>
<path fill="none" stroke="black" d="M1192.84,-1393.86C1199.16,-1422.38 1211.73,-1479.96 1221.3,-1529 1230.03,-1573.75 1224.95,-1586.72 1239.3,-1630 1251.02,-1665.38 1264.46,-1669.83 1276.8,-1705 1289.43,-1741.03 1279.39,-1754.07 1294.8,-1789 1300,-1800.8 1419.9,-1969.54 1429.64,-1978 1477.57,-2019.65 1546.07,-2049.74 1586.49,-2065.19"/>
<text text-anchor="middle" x="1389.51" y="-1957.2" font-family="Times,serif" font-size="14.00">2,308</text>
</g>
<!-- refseq&#45;&#45;civic.gid
890 -->
<g id="edge109" class="edge">
<title>refseq&#45;&#45;civic.gid
890</title>
<path fill="none" stroke="black" d="M1192.61,-1357.81C1199.57,-1325.73 1215.93,-1257.32 1239.3,-1203 1284.88,-1097.03 1456.49,-834.64 1566.53,-800 1617.27,-784.03 1853.3,-807.84 1867.95,-814 1924.39,-837.72 1959.12,-905.67 1974.97,-944.63"/>
<text text-anchor="middle" x="1526.4" y="-839.2" font-family="Times,serif" font-size="14.00">613</text>
</g>
<!-- refseq&#45;&#45;ncit
12,711 -->
<g id="edge110" class="edge">
<title>refseq&#45;&#45;ncit
12,711</title>
<path fill="none" stroke="black" d="M1214.56,-1364.7C1257.9,-1346.34 1348.69,-1310.78 1429.64,-1298 1454.5,-1294.07 1461.11,-1297.84 1486.28,-1298 1604.47,-1298.74 1969.07,-1303.81 2086.86,-1305.47"/>
<text text-anchor="middle" x="1620.95" y="-1302.2" font-family="Times,serif" font-size="14.00">5,899</text>
</g>
<!-- refseq&#45;&#45;wikidata
797,967 -->
<g id="edge111" class="edge">
<title>refseq&#45;&#45;wikidata
797,967</title>
<path fill="none" stroke="black" d="M1193.84,-1394.1C1209.27,-1446.16 1261.7,-1596.21 1367.39,-1654 1438.37,-1692.82 1472.12,-1645.41 1548.53,-1672 1620.78,-1697.15 1622.47,-1736.27 1693.37,-1765 1792.52,-1805.18 2114.49,-1857.52 2230.56,-1875.56"/>
<text text-anchor="middle" x="1712.12" y="-1780.2" font-family="Times,serif" font-size="14.00">41,494</text>
</g>
<!-- ucsc&#45;&#45;vega -->
<g id="edge112" class="edge">
<title>ucsc&#45;&#45;vega</title>
<path fill="none" stroke="black" d="M1330.14,-1744.44C1338.39,-1724.31 1352.8,-1690.5 1367.39,-1662.5 1385.01,-1628.69 1398.54,-1624.81 1411.64,-1589 1428.96,-1541.65 1414.42,-1525.07 1429.64,-1477 1434.01,-1463.18 1441.29,-1448.49 1447.24,-1437.62"/>
<text text-anchor="middle" x="1389.51" y="-1665.2" font-family="Times,serif" font-size="14.00">20,204</text>
</g>
<!-- ucsc&#45;&#45;orphanet -->
<g id="edge113" class="edge">
<title>ucsc&#45;&#45;orphanet</title>
<path fill="none" stroke="black" d="M1325.62,-1743.82C1331.33,-1704.09 1346.4,-1606.69 1367.39,-1527 1389.21,-1444.13 1398.72,-1424.43 1429.64,-1344.5 1452.45,-1285.53 1471,-1275.35 1486.28,-1214 1510.85,-1115.37 1468.36,-1081.09 1504.28,-986 1515.86,-955.34 1529.17,-953.45 1548.53,-927 1569.57,-898.25 1593.55,-864.45 1607.69,-844.43"/>
<text text-anchor="middle" x="1457.96" y="-1347.2" font-family="Times,serif" font-size="14.00">4,362</text>
</g>
<!-- ucsc&#45;&#45;cosmic -->
<g id="edge114" class="edge">
<title>ucsc&#45;&#45;cosmic</title>
<path fill="none" stroke="black" d="M1325.05,-1743.78C1329.45,-1706.7 1341.78,-1620.19 1367.39,-1552 1381.54,-1514.33 1397.19,-1510.56 1411.64,-1473 1424.57,-1439.39 1408.32,-1423.02 1429.64,-1394 1446.89,-1370.52 1470.47,-1385.47 1486.28,-1361 1528.11,-1296.25 1467.88,-1256.45 1504.28,-1188.5 1535.14,-1130.89 1685.88,-1048.41 1730.87,-1001 1757.1,-973.37 1782.44,-936.69 1796.38,-915.39"/>
<text text-anchor="middle" x="1526.4" y="-1191.2" font-family="Times,serif" font-size="14.00">564</text>
</g>
<!-- ucsc&#45;&#45;pseudogene -->
<g id="edge115" class="edge">
<title>ucsc&#45;&#45;pseudogene</title>
<path fill="none" stroke="black" d="M1330.37,-1779.39C1338.3,-1797.49 1351.94,-1826.3 1367.39,-1849 1384.09,-1873.53 1398.09,-1872.6 1411.64,-1899 1428.08,-1931.04 1418.99,-1943.6 1429.64,-1978 1481.46,-2145.48 1579.21,-2334.77 1610.24,-2393.01"/>
<text text-anchor="middle" x="1457.96" y="-2130.2" font-family="Times,serif" font-size="14.00">42</text>
</g>
<!-- ucsc&#45;&#45;iuphar.ligand -->
<g id="edge116" class="edge">
<title>ucsc&#45;&#45;iuphar.ligand</title>
<path fill="none" stroke="black" d="M1340.39,-1748.3C1348.26,-1742.6 1357.92,-1736.31 1367.39,-1732 1438.07,-1699.78 1660.02,-1649.16 1758.97,-1627.45"/>
<text text-anchor="middle" x="1526.4" y="-1690.2" font-family="Times,serif" font-size="14.00">460</text>
</g>
<!-- ucsc&#45;&#45;lncipedia -->
<g id="edge117" class="edge">
<title>ucsc&#45;&#45;lncipedia</title>
<path fill="none" stroke="black" d="M1336.68,-1777.59C1340.91,-1782.69 1345.49,-1788.48 1349.39,-1794 1358.35,-1806.71 1356.53,-1812.88 1367.39,-1824 1383.65,-1840.65 1393.05,-1837.99 1411.64,-1852 1497.29,-1916.57 1577.17,-2018.89 1607.29,-2059.53"/>
<text text-anchor="middle" x="1457.96" y="-1919.2" font-family="Times,serif" font-size="14.00">1,311</text>
</g>
<!-- ucsc&#45;&#45;civic.gid
890 -->
<g id="edge118" class="edge">
<title>ucsc&#45;&#45;civic.gid
890</title>
<path fill="none" stroke="black" d="M1335.51,-1746.38C1344,-1736.12 1355.78,-1722.67 1367.39,-1712 1385.45,-1695.4 1394.81,-1696.85 1411.64,-1679 1497.57,-1587.84 1472.33,-1526.09 1566.53,-1443.5 1627.54,-1390.01 1662.75,-1408.08 1730.87,-1364 1797.64,-1320.8 1812.5,-1306 1867.95,-1249 1895.64,-1220.54 1908.46,-1215.76 1923.45,-1179 1952.49,-1107.83 1904.13,-1074.19 1941.45,-1007 1944.44,-1001.62 1948.67,-996.81 1953.33,-992.61"/>
<text text-anchor="middle" x="1620.95" y="-1446.2" font-family="Times,serif" font-size="14.00">613</text>
</g>
<!-- ucsc&#45;&#45;ncit
12,711 -->
<g id="edge119" class="edge">
<title>ucsc&#45;&#45;ncit
12,711</title>
<path fill="none" stroke="black" d="M1346.36,-1770.58C1387.5,-1784.56 1475.63,-1809.17 1548.53,-1793 1665.32,-1767.1 1952.69,-1644.52 2030.9,-1554 2087.58,-1488.41 2111.26,-1384.95 2119.8,-1334.95"/>
<text text-anchor="middle" x="1712.12" y="-1747.2" font-family="Times,serif" font-size="14.00">5,834</text>
</g>
<!-- ucsc&#45;&#45;wikidata
797,967 -->
<g id="edge120" class="edge">
<title>ucsc&#45;&#45;wikidata
797,967</title>
<path fill="none" stroke="black" d="M1339.67,-1775.94C1349.64,-1784.08 1361.5,-1793.27 1367.39,-1796 1646.93,-1925.76 1741.04,-1909.86 2048.9,-1924 2121.23,-1927.32 2143.03,-1938.37 2211.56,-1915 2221.5,-1911.61 2231.75,-1906.71 2240.96,-1901.73"/>
<text text-anchor="middle" x="1808.41" y="-1919.2" font-family="Times,serif" font-size="14.00">23,945</text>
</g>
<!-- vega&#45;&#45;orphanet -->
<g id="edge121" class="edge">
<title>vega&#45;&#45;orphanet</title>
<path fill="none" stroke="black" d="M1467.4,-1403.62C1473.74,-1389.72 1482.02,-1369.56 1486.28,-1351 1509.04,-1251.71 1481.47,-1221.78 1504.28,-1122.5 1529.51,-1012.7 1588.24,-889.76 1610.85,-844.73"/>
<text text-anchor="middle" x="1526.4" y="-1125.2" font-family="Times,serif" font-size="14.00">4,357</text>
</g>
<!-- vega&#45;&#45;cosmic -->
<g id="edge122" class="edge">
<title>vega&#45;&#45;cosmic</title>
<path fill="none" stroke="black" d="M1473.64,-1405.82C1478.07,-1400.73 1482.7,-1394.86 1486.28,-1389 1497.28,-1370.96 1493.07,-1362.91 1504.28,-1345 1580.43,-1223.37 1653.66,-1235.95 1730.87,-1115 1773.43,-1048.33 1795.95,-954.98 1803.96,-916.1"/>
<text text-anchor="middle" x="1620.95" y="-1271.2" font-family="Times,serif" font-size="14.00">569</text>
</g>
<!-- vega&#45;&#45;pseudogene -->
<g id="edge123" class="edge">
<title>vega&#45;&#45;pseudogene</title>
<path fill="none" stroke="black" d="M1469.53,-1437.94C1475.64,-1448.7 1482.79,-1463.15 1486.28,-1477 1511.19,-1575.99 1490.13,-1834.91 1504.28,-1936 1529.63,-2117.14 1594.27,-2329.91 1614.09,-2392.7"/>
<text text-anchor="middle" x="1526.4" y="-2149.2" font-family="Times,serif" font-size="14.00">7,206</text>
</g>
<!-- vega&#45;&#45;iuphar.ligand -->
<g id="edge124" class="edge">
<title>vega&#45;&#45;iuphar.ligand</title>
<path fill="none" stroke="black" d="M1482.42,-1430.49C1504.19,-1439.27 1537.5,-1452.63 1566.53,-1464 1639.37,-1492.52 1667.03,-1481.8 1730.87,-1527 1758.83,-1546.79 1782.88,-1579.06 1796.23,-1599.11"/>
<text text-anchor="middle" x="1620.95" y="-1499.2" font-family="Times,serif" font-size="14.00">462</text>
</g>
<!-- vega&#45;&#45;lncipedia -->
<g id="edge125" class="edge">
<title>vega&#45;&#45;lncipedia</title>
<path fill="none" stroke="black" d="M1469.37,-1437.98C1475.42,-1448.75 1482.57,-1463.21 1486.28,-1477 1515.33,-1585 1487.38,-1617.44 1504.28,-1728 1517.22,-1812.64 1528.89,-1832.16 1548.53,-1915.5 1556.54,-1949.5 1553.05,-1959.78 1566.53,-1992 1577.02,-2017.08 1594.56,-2043.16 1606.67,-2059.71"/>
<text text-anchor="middle" x="1526.4" y="-1918.2" font-family="Times,serif" font-size="14.00">2,387</text>
</g>
<!-- vega&#45;&#45;civic.gid
890 -->
<g id="edge126" class="edge">
<title>vega&#45;&#45;civic.gid
890</title>
<path fill="none" stroke="black" d="M1473.65,-1405.75C1481.96,-1397.91 1492.95,-1388.81 1504.28,-1383 1550.52,-1359.27 1692.63,-1360.2 1730.87,-1325 1748.87,-1308.44 1734.35,-1292.68 1748.87,-1273 1806,-1195.58 1874.49,-1227.82 1923.45,-1145 1954.93,-1091.76 1910.73,-1060.68 1941.45,-1007 1944.51,-1001.66 1948.77,-996.86 1953.44,-992.67"/>
<text text-anchor="middle" x="1712.12" y="-1346.2" font-family="Times,serif" font-size="14.00">617</text>
</g>
<!-- vega&#45;&#45;ncit
12,711 -->
<g id="edge127" class="edge">
<title>vega&#45;&#45;ncit
12,711</title>
<path fill="none" stroke="black" d="M1486.64,-1421.22C1574.57,-1421.11 1854.34,-1414.43 2069.15,-1339 2078.59,-1335.69 2088.17,-1330.63 2096.62,-1325.45"/>
<text text-anchor="middle" x="1808.41" y="-1408.2" font-family="Times,serif" font-size="14.00">5,747</text>
</g>
<!-- vega&#45;&#45;wikidata
797,967 -->
<g id="edge128" class="edge">
<title>vega&#45;&#45;wikidata
797,967</title>
<path fill="none" stroke="black" d="M1466.17,-1438.24C1496.54,-1509.93 1616.02,-1783.04 1693.37,-1831 1780.43,-1884.98 1836.76,-1789.93 1923.45,-1844.5 1937.43,-1853.3 1927.29,-1868.51 1941.45,-1877 2033.22,-1932.01 2166.53,-1909.73 2232.58,-1893.42"/>
<text text-anchor="middle" x="1904.7" y="-1847.2" font-family="Times,serif" font-size="14.00">31,847</text>
</g>
<!-- orphanet&#45;&#45;cosmic -->
<g id="edge129" class="edge">
<title>orphanet&#45;&#45;cosmic</title>
<path fill="none" stroke="black" d="M1662.86,-821.87C1683.88,-820.81 1709.5,-822.03 1730.87,-830.5 1757.23,-840.95 1780.54,-864.7 1794.31,-881.05"/>
<text text-anchor="middle" x="1712.12" y="-834.2" font-family="Times,serif" font-size="14.00">396</text>
</g>
<!-- orphanet&#45;&#45;iuphar.ligand -->
<g id="edge130" class="edge">
<title>orphanet&#45;&#45;iuphar.ligand</title>
<path fill="none" stroke="black" d="M1626.57,-845.27C1642.52,-908.88 1696.3,-1126.63 1730.87,-1308.5 1740.66,-1359.97 1737.2,-1373.92 1748.87,-1425 1763.7,-1489.89 1788.99,-1564.83 1800.88,-1598.7"/>
<text text-anchor="middle" x="1712.12" y="-1311.2" font-family="Times,serif" font-size="14.00">177</text>
</g>
<!-- orphanet&#45;&#45;civic.gid
890 -->
<g id="edge131" class="edge">
<title>orphanet&#45;&#45;civic.gid
890</title>
<path fill="none" stroke="black" d="M1662.68,-821.64C1672.69,-820.55 1683.41,-819.56 1693.37,-819 1772.43,-814.59 1799.32,-815.01 1867.95,-854.5 1908.84,-878.02 1945.18,-919.63 1966.19,-946.76"/>
<text text-anchor="middle" x="1808.41" y="-858.2" font-family="Times,serif" font-size="14.00">379</text>
</g>
<!-- orphanet&#45;&#45;ncit
12,711 -->
<g id="edge132" class="edge">
<title>orphanet&#45;&#45;ncit
12,711</title>
<path fill="none" stroke="black" d="M1642.54,-843.05C1667.59,-862.55 1711.19,-896.37 1748.87,-925 1833.97,-989.66 1854.31,-1007.13 1941.45,-1069 1997.25,-1108.61 2032.5,-1097.22 2069.15,-1155 2097.34,-1199.42 2062.44,-1225.55 2087.15,-1272 2089.77,-1276.92 2093.38,-1281.5 2097.32,-1285.61"/>
<text text-anchor="middle" x="1904.7" y="-1058.2" font-family="Times,serif" font-size="14.00">2,388</text>
</g>
<!-- orphanet&#45;&#45;wikidata
797,967 -->
<g id="edge133" class="edge">
<title>orphanet&#45;&#45;wikidata
797,967</title>
<path fill="none" stroke="black" d="M1659.96,-818.77C1670.71,-816.8 1682.45,-814.99 1693.37,-814 1770.65,-807.02 1791.74,-799.46 1867.95,-814 2007.1,-840.54 2059.64,-837.94 2162.81,-935 2197.96,-968.06 2198.75,-985.48 2211.56,-1032 2255.52,-1191.58 2269.39,-1721.54 2272.18,-1852.53"/>
<text text-anchor="middle" x="1986.18" y="-852.2" font-family="Times,serif" font-size="14.00">4,480</text>
</g>
<!-- cosmic&#45;&#45;civic.gid
890 -->
<g id="edge134" class="edge">
<title>cosmic&#45;&#45;civic.gid
890</title>
<path fill="none" stroke="black" d="M1837.26,-909.88C1867.27,-922.69 1915.17,-943.13 1948.29,-957.26"/>
<text text-anchor="middle" x="1904.7" y="-949.2" font-family="Times,serif" font-size="14.00">275</text>
</g>
<!-- cosmic&#45;&#45;ncit
12,711 -->
<g id="edge135" class="edge">
<title>cosmic&#45;&#45;ncit
12,711</title>
<path fill="none" stroke="black" d="M1826.46,-913.94C1841.8,-928.13 1865.05,-949.32 1885.95,-967 1909.99,-987.33 1915.28,-993.52 1941.45,-1011 1995.45,-1047.07 2029.77,-1030.37 2069.15,-1082 2113.84,-1140.57 2122.61,-1230.66 2124.02,-1276.71"/>
<text text-anchor="middle" x="1986.18" y="-1051.2" font-family="Times,serif" font-size="14.00">569</text>
</g>
<!-- cosmic&#45;&#45;wikidata
797,967 -->
<g id="edge136" class="edge">
<title>cosmic&#45;&#45;wikidata
797,967</title>
<path fill="none" stroke="black" d="M1846.13,-895.64C1920.69,-893.12 2089.05,-899.57 2162.81,-1001 2264.81,-1141.24 2272.44,-1715.52 2272.8,-1852.54"/>
<text text-anchor="middle" x="2059.03" y="-932.2" font-family="Times,serif" font-size="14.00">577</text>
</g>
<!-- pseudogene&#45;&#45;wikidata
797,967 -->
<g id="edge137" class="edge">
<title>pseudogene&#45;&#45;wikidata
797,967</title>
<path fill="none" stroke="black" d="M1634.26,-2393.07C1661.08,-2356.35 1728.76,-2276 1807.41,-2276 1807.41,-2276 1807.41,-2276 2125.98,-2276 2203.91,-2276 2253.94,-2001.96 2268.41,-1910.97"/>
<text text-anchor="middle" x="1986.18" y="-2279.2" font-family="Times,serif" font-size="14.00">8,262</text>
</g>
<!-- iuphar.ligand&#45;&#45;civic.gid
890 -->
<g id="edge138" class="edge">
<title>iuphar.ligand&#45;&#45;civic.gid
890</title>
<path fill="none" stroke="black" d="M1815.07,-1598.76C1825.62,-1564.67 1848.96,-1488.97 1867.95,-1425 1893.24,-1339.85 1907.37,-1320.36 1923.45,-1233 1932.22,-1185.41 1920.92,-1059.81 1941.45,-1016 1945.07,-1008.29 1950.69,-1001.2 1956.72,-995.09"/>
<text text-anchor="middle" x="1904.7" y="-1368.2" font-family="Times,serif" font-size="14.00">38</text>
</g>
<!-- iuphar.ligand&#45;&#45;ncit
12,711 -->
<g id="edge139" class="edge">
<title>iuphar.ligand&#45;&#45;ncit
12,711</title>
<path fill="none" stroke="black" d="M1838.26,-1601.03C1890.24,-1571.04 2000.59,-1501.73 2069.15,-1418 2089.86,-1392.71 2105.22,-1358.29 2114.33,-1334.3"/>
<text text-anchor="middle" x="1986.18" y="-1536.2" font-family="Times,serif" font-size="14.00">345</text>
</g>
<!-- iuphar.ligand&#45;&#45;wikidata
797,967 -->
<g id="edge140" class="edge">
<title>iuphar.ligand&#45;&#45;wikidata
797,967</title>
<path fill="none" stroke="black" d="M1837.35,-1632.98C1918.26,-1679.25 2152.47,-1813.21 2239.6,-1863.03"/>
<text text-anchor="middle" x="2059.03" y="-1767.2" font-family="Times,serif" font-size="14.00">469</text>
</g>
<!-- lncipedia&#45;&#45;ncit
12,711 -->
<g id="edge141" class="edge">
<title>lncipedia&#45;&#45;ncit
12,711</title>
<path fill="none" stroke="black" d="M1645.8,-2061.65C1705.74,-2023.03 1858.6,-1924.22 1867.95,-1915 1878.09,-1905 1875.7,-1898.38 1885.95,-1888.5 1900.12,-1874.85 1911.3,-1880.46 1923.45,-1865 1939.09,-1845.11 1924.16,-1829.46 1941.45,-1811 1983.36,-1766.28 2031.96,-1807.7 2069.15,-1759 2120.18,-1692.19 2124.29,-1424.77 2124.2,-1335.32"/>
<text text-anchor="middle" x="1904.7" y="-1891.2" font-family="Times,serif" font-size="14.00">29</text>
</g>
<!-- lncipedia&#45;&#45;wikidata
797,967 -->
<g id="edge142" class="edge">
<title>lncipedia&#45;&#45;wikidata
797,967</title>
<path fill="none" stroke="black" d="M1665.79,-2076.63C1703.37,-2076.35 1758.95,-2076 1807.41,-2076 1807.41,-2076 1807.41,-2076 2125.98,-2076 2207.92,-2076 2249.96,-1964.59 2265.52,-1910.63"/>
<text text-anchor="middle" x="1986.18" y="-2079.2" font-family="Times,serif" font-size="14.00">2,455</text>
</g>
<!-- civic.gid
890&#45;&#45;ncit
12,711 -->
<g id="edge144" class="edge">
<title>civic.gid
890&#45;&#45;ncit
12,711</title>
<path fill="none" stroke="black" d="M2028.92,-981.81C2043.68,-986.94 2059.09,-994.98 2069.15,-1007.5 2102.41,-1048.88 2117.28,-1210.05 2122.11,-1276.8"/>
<text text-anchor="middle" x="2059.03" y="-1010.2" font-family="Times,serif" font-size="14.00">577</text>
</g>
<!-- civic.gid
890&#45;&#45;wikidata
797,967 -->
<g id="edge145" class="edge">
<title>civic.gid
890&#45;&#45;wikidata
797,967</title>
<path fill="none" stroke="black" d="M2031.22,-972.16C2044.67,-973.96 2058.66,-978.17 2069.15,-987 2164.55,-1067.32 2130.8,-1130.97 2162.81,-1251.5 2223.29,-1479.17 2259,-1762.15 2269.49,-1852.7"/>
<text text-anchor="middle" x="2124.98" y="-1254.2" font-family="Times,serif" font-size="14.00">630</text>
</g>
<!-- ncit
12,711&#45;&#45;wikidata
797,967 -->
<g id="edge146" class="edge">
<title>ncit
12,711&#45;&#45;wikidata
797,967</title>
<path fill="none" stroke="black" d="M2133.26,-1334.56C2158.25,-1432.63 2240.38,-1754.94 2265.44,-1853.26"/>
<text text-anchor="middle" x="2196.19" y="-1631.2" font-family="Times,serif" font-size="14.00">6,006</text>
</g>
<!-- mgi
737,779&#45;&#45;wikidata
797,967 -->
<g id="edge143" class="edge">
<title>mgi
737,779&#45;&#45;wikidata
797,967</title>
<path fill="none" stroke="black" d="M1062.71,-2281.04C1068.66,-2287.2 1075.04,-2293.83 1080.92,-2300 1230.01,-2456.5 1242.12,-2531.49 1429.64,-2639 1507.82,-2683.83 1529.83,-2709 1619.95,-2709 1619.95,-2709 1619.95,-2709 2125.98,-2709 2175.12,-2709 2188.74,-2682.52 2211.56,-2639 2245.89,-2573.53 2267.03,-2041.89 2271.75,-1911.02"/>
<text text-anchor="middle" x="1620.95" y="-2712.2" font-family="Times,serif" font-size="14.00">71,594</text>
</g>
</g>
</svg>
