<?xml version="1.0" encoding="UTF-8" standalone="no"?>
<!DOCTYPE svg PUBLIC "-//W3C//DTD SVG 1.1//EN"
 "http://www.w3.org/Graphics/SVG/1.1/DTD/svg11.dtd">
<!-- Generated by graphviz version 12.0.0 (20240704.0754)
 -->
<!-- Pages: 1 -->
<svg width="2297pt" height="2872pt"
 viewBox="0.00 0.00 2296.75 2871.50" xmlns="http://www.w3.org/2000/svg" xmlns:xlink="http://www.w3.org/1999/xlink">
<g id="graph0" class="graph" transform="scale(1 1) rotate(0) translate(4 2867.5)">
<polygon fill="white" stroke="none" points="-4,4 -4,-2867.5 2292.75,-2867.5 2292.75,4 -4,4"/>
<!-- hgnc
44,071 -->
<g id="node1" class="node">
<title>hgnc
44,071</title>
<ellipse fill="none" stroke="black" cx="37.83" cy="-1615" rx="37.83" ry="28.99"/>
<text text-anchor="middle" x="37.83" y="-1618.2" font-family="Times,serif" font-size="14.00">hgnc</text>
<text text-anchor="middle" x="37.83" y="-1601.7" font-family="Times,serif" font-size="14.00">44,071</text>
</g>
<!-- ena.embl -->
<g id="node2" class="node">
<title>ena.embl</title>
<ellipse fill="none" stroke="black" cx="194.37" cy="-1431" rx="45.21" ry="18"/>
<text text-anchor="middle" x="194.37" y="-1425.95" font-family="Times,serif" font-size="14.00">ena.embl</text>
</g>
<!-- hgnc
44,071&#45;&#45;ena.embl -->
<g id="edge1" class="edge">
<title>hgnc
44,071&#45;&#45;ena.embl</title>
<path fill="none" stroke="black" d="M59.03,-1590.95C90.7,-1553.25 151.24,-1481.16 178.92,-1448.2"/>
<text text-anchor="middle" x="112.41" y="-1547.2" font-family="Times,serif" font-size="14.00">19,726</text>
</g>
<!-- ensembl -->
<g id="node3" class="node">
<title>ensembl</title>
<ellipse fill="none" stroke="black" cx="355.22" cy="-1431" rx="42.14" ry="18"/>
<text text-anchor="middle" x="355.22" y="-1425.95" font-family="Times,serif" font-size="14.00">ensembl</text>
</g>
<!-- hgnc
44,071&#45;&#45;ensembl -->
<g id="edge2" class="edge">
<title>hgnc
44,071&#45;&#45;ensembl</title>
<path fill="none" stroke="black" d="M69.38,-1598.9C87.45,-1589.26 110.74,-1576.66 131.16,-1565 204.53,-1523.12 289.73,-1470.93 330.33,-1445.83"/>
<text text-anchor="middle" x="194.37" y="-1556.2" font-family="Times,serif" font-size="14.00">44,695</text>
</g>
<!-- iuphar.receptor -->
<g id="node4" class="node">
<title>iuphar.receptor</title>
<ellipse fill="none" stroke="black" cx="537.56" cy="-1551" rx="66.71" ry="18"/>
<text text-anchor="middle" x="537.56" y="-1545.95" font-family="Times,serif" font-size="14.00">iuphar.receptor</text>
</g>
<!-- hgnc
44,071&#45;&#45;iuphar.receptor -->
<g id="edge3" class="edge">
<title>hgnc
44,071&#45;&#45;iuphar.receptor</title>
<path fill="none" stroke="black" d="M42.99,-1644.12C60.22,-1755.91 132.9,-2146.24 295.08,-2045 474.45,-1933.03 524.21,-1645 534.36,-1569.4"/>
<text text-anchor="middle" x="276.33" y="-2063.2" font-family="Times,serif" font-size="14.00">3,098</text>
</g>
<!-- ncbigene
59,499,014 -->
<g id="node5" class="node">
<title>ncbigene
59,499,014</title>
<ellipse fill="none" stroke="black" cx="732.57" cy="-1254" rx="54.8" ry="28.99"/>
<text text-anchor="middle" x="732.57" y="-1257.2" font-family="Times,serif" font-size="14.00">ncbigene</text>
<text text-anchor="middle" x="732.57" y="-1240.7" font-family="Times,serif" font-size="14.00">59,499,014</text>
</g>
<!-- hgnc
44,071&#45;&#45;ncbigene
59,499,014 -->
<g id="edge4" class="edge">
<title>hgnc
44,071&#45;&#45;ncbigene
59,499,014</title>
<path fill="none" stroke="black" d="M42.14,-1585.71C58.41,-1446.88 134.03,-856.55 257.58,-727 449.3,-525.96 671.48,-1089.3 721.31,-1225.24"/>
<text text-anchor="middle" x="355.22" y="-700.2" font-family="Times,serif" font-size="14.00">44,328</text>
</g>
<!-- omim
27,198 -->
<g id="node6" class="node">
<title>omim
27,198</title>
<ellipse fill="none" stroke="black" cx="910.22" cy="-1762" rx="37.83" ry="28.99"/>
<text text-anchor="middle" x="910.22" y="-1765.2" font-family="Times,serif" font-size="14.00">omim</text>
<text text-anchor="middle" x="910.22" y="-1748.7" font-family="Times,serif" font-size="14.00">27,198</text>
</g>
<!-- hgnc
44,071&#45;&#45;omim
27,198 -->
<g id="edge5" class="edge">
<title>hgnc
44,071&#45;&#45;omim
27,198</title>
<path fill="none" stroke="black" d="M39.83,-1644.11C44.78,-1765.73 71.59,-2227 193.37,-2227 193.37,-2227 193.37,-2227 435.11,-2227 647.1,-2227 738.99,-2171.84 849.62,-1991 867.06,-1962.49 859.31,-1950.37 867.62,-1918 879.08,-1873.34 892.99,-1821.66 901.47,-1790.42"/>
<text text-anchor="middle" x="434.11" y="-2230.2" font-family="Times,serif" font-size="14.00">17,768</text>
</g>
<!-- refseq -->
<g id="node7" class="node">
<title>refseq</title>
<ellipse fill="none" stroke="black" cx="1059.76" cy="-1389" rx="33.44" ry="18"/>
<text text-anchor="middle" x="1059.76" y="-1383.95" font-family="Times,serif" font-size="14.00">refseq</text>
</g>
<!-- hgnc
44,071&#45;&#45;refseq -->
<g id="edge6" class="edge">
<title>hgnc
44,071&#45;&#45;refseq</title>
<path fill="none" stroke="black" d="M40.59,-1585.59C48.85,-1452.47 86.06,-906 149.16,-748 198.3,-624.96 196.45,-561.86 313.08,-499 536.57,-378.56 698.22,-491.21 849.62,-695 1018.28,-922.03 1052,-1285.34 1057.72,-1370.65"/>
<text text-anchor="middle" x="537.56" y="-477.2" font-family="Times,serif" font-size="14.00">42,198</text>
</g>
<!-- ucsc -->
<g id="node8" class="node">
<title>ucsc</title>
<ellipse fill="none" stroke="black" cx="1194" cy="-1625" rx="27.3" ry="18"/>
<text text-anchor="middle" x="1194" y="-1619.95" font-family="Times,serif" font-size="14.00">ucsc</text>
</g>
<!-- hgnc
44,071&#45;&#45;ucsc -->
<g id="edge7" class="edge">
<title>hgnc
44,071&#45;&#45;ucsc</title>
<path fill="none" stroke="black" d="M39.04,-1644.12C40.74,-1775.07 56.11,-2303 193.37,-2303 193.37,-2303 193.37,-2303 435.11,-2303 543.52,-2303 561.48,-2253.74 659.77,-2208 717.47,-2181.14 740.63,-2186.2 787.37,-2143 812.44,-2119.83 844.84,-2037.43 867.62,-2012 927.17,-1945.53 955.25,-1942.96 1026.33,-1889 1080.31,-1848.02 1114.71,-1856.64 1148.7,-1798 1182.38,-1739.91 1135.35,-1707.38 1166.7,-1648 1168.63,-1644.35 1171.39,-1641.02 1174.4,-1638.09"/>
<text text-anchor="middle" x="641.02" y="-2229.2" font-family="Times,serif" font-size="14.00">24,301</text>
</g>
<!-- vega -->
<g id="node9" class="node">
<title>vega</title>
<ellipse fill="none" stroke="black" cx="1323.12" cy="-1958" rx="28.32" ry="18"/>
<text text-anchor="middle" x="1323.12" y="-1952.95" font-family="Times,serif" font-size="14.00">vega</text>
</g>
<!-- hgnc
44,071&#45;&#45;vega -->
<g id="edge8" class="edge">
<title>hgnc
44,071&#45;&#45;vega</title>
<path fill="none" stroke="black" d="M39.48,-1644.23C42.13,-1750.75 54.02,-2117.69 93.66,-2227 108.42,-2267.68 112,-2284.83 149.16,-2307 337.68,-2419.48 420.49,-2362 640.02,-2362 640.02,-2362 640.02,-2362 990.58,-2362 1030.69,-2362 1254.86,-2175.58 1276.8,-2142 1281.41,-2134.94 1307.69,-2021.2 1317.99,-1976.16"/>
<text text-anchor="middle" x="732.57" y="-2365.2" font-family="Times,serif" font-size="14.00">32,363</text>
</g>
<!-- orphanet -->
<g id="node10" class="node">
<title>orphanet</title>
<ellipse fill="none" stroke="black" cx="1469.63" cy="-1944" rx="43.16" ry="18"/>
<text text-anchor="middle" x="1469.63" y="-1938.95" font-family="Times,serif" font-size="14.00">orphanet</text>
</g>
<!-- hgnc
44,071&#45;&#45;orphanet -->
<g id="edge9" class="edge">
<title>hgnc
44,071&#45;&#45;orphanet</title>
<path fill="none" stroke="black" d="M38.56,-1644.31C38.28,-1737.51 41.8,-2035.03 93.66,-2274 121.5,-2402.28 62.11,-2552 193.37,-2552 193.37,-2552 193.37,-2552 435.11,-2552 754.94,-2552 850.74,-2575.24 1148.7,-2459 1149.49,-2458.69 1350.98,-2324.71 1351.44,-2324 1377.45,-2283.92 1357.21,-2264.2 1369.44,-2218 1381.9,-2170.9 1395.59,-2162.38 1406.94,-2115 1414.65,-2082.78 1406.13,-1994.28 1424.94,-1967 1427.95,-1962.62 1432.07,-1959.02 1436.58,-1956.07"/>
<text text-anchor="middle" x="827.5" y="-2551.2" font-family="Times,serif" font-size="14.00">4,418</text>
</g>
<!-- ccds -->
<g id="node11" class="node">
<title>ccds</title>
<ellipse fill="none" stroke="black" cx="1615.13" cy="-1352" rx="27.3" ry="18"/>
<text text-anchor="middle" x="1615.13" y="-1346.95" font-family="Times,serif" font-size="14.00">ccds</text>
</g>
<!-- hgnc
44,071&#45;&#45;ccds -->
<g id="edge10" class="edge">
<title>hgnc
44,071&#45;&#45;ccds</title>
<path fill="none" stroke="black" d="M39.24,-1585.71C41.05,-1479.78 50.31,-1106.88 93.66,-803 109.92,-689.04 80.2,-642.18 149.16,-550 242.78,-424.86 316.55,-432.77 470.86,-408 746.49,-363.75 859,-341.08 1093.2,-493 1179.35,-548.88 1165.77,-600.31 1239.3,-672 1348.46,-778.43 1435.77,-746.34 1514.33,-877 1542.35,-923.59 1504.45,-951.33 1532.33,-998 1543,-1015.86 1559.28,-1008.08 1569.83,-1026 1600.99,-1078.91 1611.06,-1272.89 1613.48,-1333.66"/>
<text text-anchor="middle" x="910.22" y="-419.2" font-family="Times,serif" font-size="14.00">10,626</text>
</g>
<!-- cosmic -->
<g id="node12" class="node">
<title>cosmic</title>
<ellipse fill="none" stroke="black" cx="1775.47" cy="-1180" rx="37.53" ry="18"/>
<text text-anchor="middle" x="1775.47" y="-1174.95" font-family="Times,serif" font-size="14.00">cosmic</text>
</g>
<!-- hgnc
44,071&#45;&#45;cosmic -->
<g id="edge11" class="edge">
<title>hgnc
44,071&#45;&#45;cosmic</title>
<path fill="none" stroke="black" d="M38.93,-1585.79C39.97,-1386.28 52.11,-232 193.37,-232 193.37,-232 193.37,-232 828.5,-232 972.22,-232 979.95,-330.44 1111.2,-389 1158.47,-410.09 1174.67,-404.52 1221.3,-427 1431.83,-528.52 1481.04,-572.92 1642.42,-742 1670.56,-771.48 1680.99,-777.93 1697.92,-815 1754.67,-939.27 1769.87,-1106.65 1773.46,-1161.65"/>
<text text-anchor="middle" x="989.58" y="-323.2" font-family="Times,serif" font-size="14.00">569</text>
</g>
<!-- pseudogene -->
<g id="node13" class="node">
<title>pseudogene</title>
<ellipse fill="none" stroke="black" cx="1775.47" cy="-538" rx="54.42" ry="18"/>
<text text-anchor="middle" x="1775.47" y="-532.95" font-family="Times,serif" font-size="14.00">pseudogene</text>
</g>
<!-- hgnc
44,071&#45;&#45;pseudogene -->
<g id="edge12" class="edge">
<title>hgnc
44,071&#45;&#45;pseudogene</title>
<path fill="none" stroke="black" d="M39.19,-1585.77C41.72,-1384.64 58,-211.58 93.66,-146 119.52,-98.43 139.22,-76 193.37,-76 193.37,-76 193.37,-76 1259.05,-76 1401.46,-76 1456.09,-68.3 1569.83,-154 1700.15,-252.19 1756.24,-458.06 1770.58,-520"/>
<text text-anchor="middle" x="989.58" y="-79.2" font-family="Times,serif" font-size="14.00">8,507</text>
</g>
<!-- iuphar.ligand -->
<g id="node14" class="node">
<title>iuphar.ligand</title>
<ellipse fill="none" stroke="black" cx="1775.47" cy="-2158" rx="59.54" ry="18"/>
<text text-anchor="middle" x="1775.47" y="-2152.95" font-family="Times,serif" font-size="14.00">iuphar.ligand</text>
</g>
<!-- hgnc
44,071&#45;&#45;iuphar.ligand -->
<g id="edge13" class="edge">
<title>hgnc
44,071&#45;&#45;iuphar.ligand</title>
<path fill="none" stroke="black" d="M39.45,-1644.39C42.6,-1785.27 58.01,-2392.37 93.66,-2578 114.75,-2687.82 81.55,-2809 193.37,-2809 193.37,-2809 193.37,-2809 1389.19,-2809 1473.11,-2809 1512.1,-2814.92 1569.83,-2754 1592.82,-2729.74 1578.2,-2713 1587.83,-2681 1648.25,-2480.21 1740.72,-2243.08 1767.17,-2176.3"/>
<text text-anchor="middle" x="989.58" y="-2812.2" font-family="Times,serif" font-size="14.00">463</text>
</g>
<!-- lncipedia -->
<g id="node15" class="node">
<title>lncipedia</title>
<ellipse fill="none" stroke="black" cx="1469.63" cy="-2561" rx="44.7" ry="18"/>
<text text-anchor="middle" x="1469.63" y="-2555.95" font-family="Times,serif" font-size="14.00">lncipedia</text>
</g>
<!-- hgnc
44,071&#45;&#45;lncipedia -->
<g id="edge14" class="edge">
<title>hgnc
44,071&#45;&#45;lncipedia</title>
<path fill="none" stroke="black" d="M38.37,-1644.37C37.23,-1749.73 37.75,-2118.12 93.66,-2415 121.07,-2560.56 45.25,-2733 193.37,-2733 193.37,-2733 193.37,-2733 1130.95,-2733 1262.35,-2733 1297.97,-2700.42 1406.94,-2627 1426.58,-2613.77 1444.51,-2593.18 1455.92,-2578.52"/>
<text text-anchor="middle" x="827.5" y="-2736.2" font-family="Times,serif" font-size="14.00">2,433</text>
</g>
<!-- civic.gid
890 -->
<g id="node16" class="node">
<title>civic.gid
890</title>
<ellipse fill="none" stroke="black" cx="1946.48" cy="-1512" rx="44.72" ry="28.99"/>
<text text-anchor="middle" x="1946.48" y="-1515.2" font-family="Times,serif" font-size="14.00">civic.gid</text>
<text text-anchor="middle" x="1946.48" y="-1498.7" font-family="Times,serif" font-size="14.00">890</text>
</g>
<!-- hgnc
44,071&#45;&#45;civic.gid
890 -->
<g id="edge15" class="edge">
<title>hgnc
44,071&#45;&#45;civic.gid
890</title>
<path fill="none" stroke="black" d="M39.23,-1585.78C41.78,-1405.46 57.02,-447.81 93.66,-323 117.58,-241.52 108.45,-160 193.37,-160 193.37,-160 193.37,-160 1130.95,-160 1228.6,-160 1482.82,-137.67 1569.83,-182 1737.17,-267.26 1758.15,-339.64 1835.01,-511 1896.15,-647.32 1888.42,-1031.19 1901.76,-1180 1911.82,-1292.33 1931.74,-1425.07 1940.8,-1482.78"/>
<text text-anchor="middle" x="1059.76" y="-163.2" font-family="Times,serif" font-size="14.00">622</text>
</g>
<!-- ncit
12,711 -->
<g id="node17" class="node">
<title>ncit
12,711</title>
<ellipse fill="none" stroke="black" cx="2095.78" cy="-1910" rx="37.83" ry="28.99"/>
<text text-anchor="middle" x="2095.78" y="-1913.2" font-family="Times,serif" font-size="14.00">ncit</text>
<text text-anchor="middle" x="2095.78" y="-1896.7" font-family="Times,serif" font-size="14.00">12,711</text>
</g>
<!-- hgnc
44,071&#45;&#45;ncit
12,711 -->
<g id="edge16" class="edge">
<title>hgnc
44,071&#45;&#45;ncit
12,711</title>
<path fill="none" stroke="black" d="M38.86,-1644.43C39.26,-1795.68 43.81,-2486.55 93.66,-2694 112.62,-2772.92 112.2,-2847 193.37,-2847 193.37,-2847 193.37,-2847 1389.19,-2847 1474.22,-2847 1499.91,-2832.39 1569.83,-2784 1621.07,-2748.54 1615.86,-2695 1678.17,-2695 1678.17,-2695 1678.17,-2695 1947.48,-2695 2025.91,-2695 2080.77,-2081.85 2092.46,-1939.34"/>
<text text-anchor="middle" x="1129.95" y="-2850.2" font-family="Times,serif" font-size="14.00">5,978</text>
</g>
<!-- wikidata
797,967 -->
<g id="node18" class="node">
<title>wikidata
797,967</title>
<ellipse fill="none" stroke="black" cx="2244.56" cy="-923" rx="44.19" ry="28.99"/>
<text text-anchor="middle" x="2244.56" y="-926.2" font-family="Times,serif" font-size="14.00">wikidata</text>
<text text-anchor="middle" x="2244.56" y="-909.7" font-family="Times,serif" font-size="14.00">797,967</text>
</g>
<!-- hgnc
44,071&#45;&#45;wikidata
797,967 -->
<g id="edge17" class="edge">
<title>hgnc
44,071&#45;&#45;wikidata
797,967</title>
<path fill="none" stroke="black" d="M39.24,-1585.72C42.2,-1380.29 61.08,-161.39 93.66,-91 118.86,-36.55 133.37,0 193.37,0 193.37,0 193.37,0 2096.78,0 2105.47,0 2178.82,-51.75 2182.36,-58 2224.4,-132.06 2239.93,-750.85 2242.97,-893.67"/>
<text text-anchor="middle" x="1194" y="-3.2" font-family="Times,serif" font-size="14.00">44,599</text>
</g>
<!-- ena.embl&#45;&#45;ensembl -->
<g id="edge18" class="edge">
<title>ena.embl&#45;&#45;ensembl</title>
<path fill="none" stroke="black" d="M240.04,-1431C262.8,-1431 290.3,-1431 312.61,-1431"/>
<text text-anchor="middle" x="276.33" y="-1434.2" font-family="Times,serif" font-size="14.00">20,207</text>
</g>
<!-- ena.embl&#45;&#45;iuphar.receptor -->
<g id="edge19" class="edge">
<title>ena.embl&#45;&#45;iuphar.receptor</title>
<path fill="none" stroke="black" d="M226.79,-1443.86C269.23,-1461.04 347.41,-1491.97 415.36,-1515 439.79,-1523.28 467.32,-1531.54 489.97,-1538.06"/>
<text text-anchor="middle" x="355.22" y="-1511.2" font-family="Times,serif" font-size="14.00">2,577</text>
</g>
<!-- ena.embl&#45;&#45;ncbigene
59,499,014 -->
<g id="edge20" class="edge">
<title>ena.embl&#45;&#45;ncbigene
59,499,014</title>
<path fill="none" stroke="black" d="M215.5,-1414.68C258.91,-1380.73 365.87,-1303.52 470.86,-1278 540.86,-1260.98 624.12,-1255.84 677.39,-1254.39"/>
<text text-anchor="middle" x="434.11" y="-1298.2" font-family="Times,serif" font-size="14.00">19,054</text>
</g>
<!-- ena.embl&#45;&#45;omim
27,198 -->
<g id="edge21" class="edge">
<title>ena.embl&#45;&#45;omim
27,198</title>
<path fill="none" stroke="black" d="M210.5,-1448.08C220.79,-1460.86 233.6,-1479.28 239.58,-1498 256.81,-1551.91 221.94,-1963.04 257.58,-2007 285.45,-2041.37 309.96,-2031 354.22,-2031 354.22,-2031 354.22,-2031 733.57,-2031 847.21,-2031 891.23,-1860.6 904.46,-1791.04"/>
<text text-anchor="middle" x="537.56" y="-2034.2" font-family="Times,serif" font-size="14.00">14,135</text>
</g>
<!-- ena.embl&#45;&#45;refseq -->
<g id="edge22" class="edge">
<title>ena.embl&#45;&#45;refseq</title>
<path fill="none" stroke="black" d="M198.48,-1412.74C215.68,-1314.13 302.48,-846.59 415.36,-765 687.45,-568.32 821.07,-954.34 1008.33,-1233 1038.01,-1277.18 1051.24,-1340.05 1056.22,-1370.74"/>
<text text-anchor="middle" x="641.02" y="-746.2" font-family="Times,serif" font-size="14.00">18,274</text>
</g>
<!-- ena.embl&#45;&#45;ucsc -->
<g id="edge23" class="edge">
<title>ena.embl&#45;&#45;ucsc</title>
<path fill="none" stroke="black" d="M214.25,-1447.31C237.26,-1467.06 277.48,-1501.14 313.08,-1529 381.62,-1582.65 393.75,-1604.62 470.86,-1645 606.75,-1716.16 652.58,-1716.34 805.37,-1730 824.96,-1731.75 830.34,-1733.87 849.62,-1730 870.49,-1725.81 1005.93,-1662.09 1026.33,-1656 1074.83,-1641.51 1133.4,-1632.5 1166.61,-1628.14"/>
<text text-anchor="middle" x="732.57" y="-1731.2" font-family="Times,serif" font-size="14.00">16,093</text>
</g>
<!-- ena.embl&#45;&#45;vega -->
<g id="edge24" class="edge">
<title>ena.embl&#45;&#45;vega</title>
<path fill="none" stroke="black" d="M210.51,-1448.08C220.81,-1460.85 233.61,-1479.28 239.58,-1498 257.64,-1554.67 219.96,-1986.93 257.58,-2033 357.43,-2155.28 795.64,-2193.67 952.83,-2179 1025.77,-2172.19 1222.72,-2167.42 1276.8,-2118 1287.48,-2108.24 1309.23,-2015.62 1318.16,-1975.92"/>
<text text-anchor="middle" x="827.5" y="-2184.2" font-family="Times,serif" font-size="14.00">17,799</text>
</g>
<!-- ena.embl&#45;&#45;orphanet -->
<g id="edge25" class="edge">
<title>ena.embl&#45;&#45;orphanet</title>
<path fill="none" stroke="black" d="M210.52,-1448.08C220.82,-1460.85 233.63,-1479.27 239.58,-1498 277.54,-1617.51 212.5,-1944.98 257.58,-2062 296.55,-2163.16 320.16,-2196.15 415.36,-2248 511.57,-2300.4 551.53,-2263.1 659.77,-2280 909.64,-2319.01 998.51,-2491.68 1221.3,-2372 1273.42,-2344 1253.08,-2302.96 1294.8,-2261 1316.17,-2239.5 1333.93,-2247.75 1351.44,-2223 1369.99,-2196.78 1359.88,-2183.67 1369.44,-2153 1383.8,-2106.89 1393.51,-2097.4 1406.94,-2051 1417.55,-2014.32 1401.87,-1997.43 1424.94,-1967 1428.25,-1962.63 1432.64,-1959 1437.36,-1956.03"/>
<text text-anchor="middle" x="910.22" y="-2389.2" font-family="Times,serif" font-size="14.00">3,609</text>
</g>
<!-- ena.embl&#45;&#45;ccds -->
<g id="edge26" class="edge">
<title>ena.embl&#45;&#45;ccds</title>
<path fill="none" stroke="black" d="M196.9,-1412.74C205.03,-1318.99 245.31,-891.69 313.08,-780 344.64,-727.98 358.49,-710.64 415.36,-689 721.11,-572.67 834.79,-659.93 1148.7,-752 1254.85,-783.13 1267.96,-822.97 1369.44,-867 1432.07,-894.17 1470.42,-865.73 1514.33,-918 1545.63,-955.26 1521.16,-978.64 1532.33,-1026 1545.36,-1081.21 1555.47,-1093.12 1569.83,-1148 1587.64,-1216.02 1603.89,-1298.1 1610.73,-1333.87"/>
<text text-anchor="middle" x="989.58" y="-711.2" font-family="Times,serif" font-size="14.00">8,240</text>
</g>
<!-- ena.embl&#45;&#45;cosmic -->
<g id="edge27" class="edge">
<title>ena.embl&#45;&#45;cosmic</title>
<path fill="none" stroke="black" d="M195.38,-1412.6C195.81,-1307.67 203.51,-785.73 313.08,-681 500.7,-501.67 610.4,-532.59 867.62,-498 1117.24,-464.43 1177.51,-568.08 1406.94,-672 1514.68,-720.8 1565.44,-706.19 1642.42,-796 1740.61,-910.54 1766.91,-1101.92 1772.9,-1161.63"/>
<text text-anchor="middle" x="1059.76" y="-516.2" font-family="Times,serif" font-size="14.00">461</text>
</g>
<!-- ena.embl&#45;&#45;pseudogene -->
<g id="edge28" class="edge">
<title>ena.embl&#45;&#45;pseudogene</title>
<path fill="none" stroke="black" d="M196.38,-1412.68C203.78,-1278.17 249.77,-448.01 257.58,-438 344.25,-326.87 1384.69,-211.74 1514.33,-267 1640.32,-320.7 1734.66,-468.66 1764.49,-520.1"/>
<text text-anchor="middle" x="1059.76" y="-276.2" font-family="Times,serif" font-size="14.00">922</text>
</g>
<!-- ena.embl&#45;&#45;iuphar.ligand -->
<g id="edge29" class="edge">
<title>ena.embl&#45;&#45;iuphar.ligand</title>
<path fill="none" stroke="black" d="M210.53,-1448.07C220.85,-1460.84 233.66,-1479.26 239.58,-1498 281.06,-1629.21 217.22,-1985.44 257.58,-2117 266.69,-2146.7 280.58,-2148.52 295.08,-2176 304.56,-2193.96 304.63,-2199.53 313.08,-2218 356.27,-2312.4 334.89,-2362.41 415.36,-2428 569.77,-2553.87 665.84,-2462.13 849.62,-2539 907.64,-2563.27 912.96,-2587.38 970.83,-2612 1130.5,-2679.93 1185.62,-2750.13 1351.44,-2699 1435.16,-2673.19 1454.08,-2651.6 1514.33,-2588 1531.11,-2570.28 1717.28,-2255.05 1763.92,-2175.91"/>
<text text-anchor="middle" x="1059.76" y="-2673.2" font-family="Times,serif" font-size="14.00">349</text>
</g>
<!-- ena.embl&#45;&#45;lncipedia -->
<g id="edge30" class="edge">
<title>ena.embl&#45;&#45;lncipedia</title>
<path fill="none" stroke="black" d="M210.52,-1448.07C220.83,-1460.85 233.64,-1479.27 239.58,-1498 259.17,-1559.78 252.02,-2016.43 257.58,-2081 272.64,-2255.87 196.16,-2341.09 313.08,-2472 431.76,-2604.88 915.61,-2671.34 1093.2,-2657 1234.01,-2645.63 1276.58,-2660.45 1406.94,-2606 1423.08,-2599.26 1438.98,-2587.5 1450.6,-2577.7"/>
<text text-anchor="middle" x="910.22" y="-2658.2" font-family="Times,serif" font-size="14.00">958</text>
</g>
<!-- ena.embl&#45;&#45;civic.gid
890 -->
<g id="edge31" class="edge">
<title>ena.embl&#45;&#45;civic.gid
890</title>
<path fill="none" stroke="black" d="M195.83,-1412.66C198.49,-1313.36 213.31,-839.58 257.58,-701 302.54,-560.26 334.64,-503.23 470.86,-446 664.08,-364.82 1210.1,-489.03 1406.94,-561 1607.08,-634.18 1699.13,-612.83 1835.01,-777 1903.53,-859.79 1889.56,-1149.22 1901.76,-1256 1911.22,-1338.87 1929.84,-1435.66 1939.44,-1482.97"/>
<text text-anchor="middle" x="1129.95" y="-491.2" font-family="Times,serif" font-size="14.00">494</text>
</g>
<!-- ena.embl&#45;&#45;ncit
12,711 -->
<g id="edge32" class="edge">
<title>ena.embl&#45;&#45;ncit
12,711</title>
<path fill="none" stroke="black" d="M195.82,-1412.64C198.62,-1305.35 214.77,-758.77 257.58,-597 272.3,-541.36 271.12,-519.39 313.08,-480 368.13,-428.32 397.52,-434.98 470.86,-417 597.73,-385.89 1516.24,-285.23 1642.42,-319 2112.11,-444.71 2030.38,-845.57 2057.95,-1331 2069.94,-1541.93 2087.01,-1795.9 2092.79,-1880.79"/>
<text text-anchor="middle" x="1194" y="-337.2" font-family="Times,serif" font-size="14.00">4,731</text>
</g>
<!-- ena.embl&#45;&#45;wikidata
797,967 -->
<g id="edge33" class="edge">
<title>ena.embl&#45;&#45;wikidata
797,967</title>
<path fill="none" stroke="black" d="M196,-1412.81C200.73,-1279.18 230.93,-453.03 257.58,-408 296.01,-343.07 51.32,-423.46 970.83,-146 1062.34,-118.39 1291.6,-38 1387.19,-38 1387.19,-38 1387.19,-38 2096.78,-38 2148.25,-38 2159.81,-69.74 2182.36,-116 2217.04,-187.12 2238.07,-757.86 2242.62,-893.94"/>
<text text-anchor="middle" x="1258.05" y="-68.2" font-family="Times,serif" font-size="14.00">19,123</text>
</g>
<!-- ensembl&#45;&#45;iuphar.receptor -->
<g id="edge34" class="edge">
<title>ensembl&#45;&#45;iuphar.receptor</title>
<path fill="none" stroke="black" d="M379.06,-1446.2C412.9,-1468.71 476.12,-1510.78 511.3,-1534.19"/>
<text text-anchor="middle" x="434.11" y="-1497.2" font-family="Times,serif" font-size="14.00">3,521</text>
</g>
<!-- ensembl&#45;&#45;ncbigene
59,499,014 -->
<g id="edge35" class="edge">
<title>ensembl&#45;&#45;ncbigene
59,499,014</title>
<path fill="none" stroke="black" d="M362.66,-1413.01C371.33,-1391.35 388.79,-1355.36 415.36,-1335 436.53,-1318.78 597.55,-1282.61 681.3,-1264.61"/>
<text text-anchor="middle" x="537.56" y="-1317.2" font-family="Times,serif" font-size="14.00">174,324</text>
</g>
<!-- ensembl&#45;&#45;omim
27,198 -->
<g id="edge36" class="edge">
<title>ensembl&#45;&#45;omim
27,198</title>
<path fill="none" stroke="black" d="M376.11,-1447.1C383.93,-1454.48 392.25,-1463.85 397.36,-1474 418.65,-1516.29 401.71,-1533.66 415.36,-1579 432.99,-1637.6 431.81,-1657.89 470.86,-1705 542.04,-1790.87 571.24,-1813.96 677.77,-1847 752.05,-1870.04 785.54,-1858.07 849.62,-1814 862.29,-1805.29 875.29,-1794.24 885.89,-1784.58"/>
<text text-anchor="middle" x="641.02" y="-1843.2" font-family="Times,serif" font-size="14.00">19,407</text>
</g>
<!-- ensembl&#45;&#45;refseq -->
<g id="edge37" class="edge">
<title>ensembl&#45;&#45;refseq</title>
<path fill="none" stroke="black" d="M397.75,-1431.92C512.57,-1434.41 827.33,-1441.03 849.62,-1439 921.11,-1432.47 939.47,-1429.29 1008.33,-1409 1016.46,-1406.6 1025.11,-1403.42 1032.9,-1400.3"/>
<text text-anchor="middle" x="732.57" y="-1442.2" font-family="Times,serif" font-size="14.00">43,049</text>
</g>
<!-- ensembl&#45;&#45;ucsc -->
<g id="edge38" class="edge">
<title>ensembl&#45;&#45;ucsc</title>
<path fill="none" stroke="black" d="M374.53,-1447.37C382.26,-1454.94 390.93,-1464.38 397.36,-1474 408.4,-1490.55 404.65,-1498.22 415.36,-1515 491.3,-1634.01 541.17,-1658.32 677.77,-1694 863.76,-1742.58 1096.93,-1662.55 1170.02,-1634.3"/>
<text text-anchor="middle" x="827.5" y="-1712.2" font-family="Times,serif" font-size="14.00">26,258</text>
</g>
<!-- ensembl&#45;&#45;vega -->
<g id="edge39" class="edge">
<title>ensembl&#45;&#45;vega</title>
<path fill="none" stroke="black" d="M376.43,-1446.95C384.3,-1454.3 392.57,-1463.69 397.36,-1474 429.17,-1542.51 396.62,-1569.83 415.36,-1643 431.25,-1705.05 428.27,-1728.16 470.86,-1776 517.86,-1828.81 796.14,-2007.28 970.83,-2052 1079.16,-2079.74 1115.38,-2063.88 1221.3,-2028 1246.92,-2019.32 1254.51,-2018.33 1276.8,-2003 1288.85,-1994.71 1300.53,-1983 1309.01,-1973.61"/>
<text text-anchor="middle" x="910.22" y="-2049.2" font-family="Times,serif" font-size="14.00">34,406</text>
</g>
<!-- ensembl&#45;&#45;orphanet -->
<g id="edge40" class="edge">
<title>ensembl&#45;&#45;orphanet</title>
<path fill="none" stroke="black" d="M376.58,-1446.88C384.48,-1454.22 392.73,-1463.62 397.36,-1474 418.96,-1522.44 402.56,-1660.53 415.36,-1712 430.22,-1771.78 435.58,-1788.5 470.86,-1839 529.77,-1923.33 716.98,-2106.37 805.37,-2159 939.82,-2239.06 999.63,-2284.56 1148.7,-2237 1221.08,-2213.91 1367.39,-2077.86 1406.94,-2013 1418.37,-1994.26 1410.3,-1983.36 1424.94,-1967 1428.59,-1962.91 1433.15,-1959.43 1437.94,-1956.5"/>
<text text-anchor="middle" x="989.58" y="-2256.2" font-family="Times,serif" font-size="14.00">4,889</text>
</g>
<!-- ensembl&#45;&#45;ccds -->
<g id="edge41" class="edge">
<title>ensembl&#45;&#45;ccds</title>
<path fill="none" stroke="black" d="M361.73,-1412.86C390.08,-1323.54 529.02,-931.93 805.37,-862 1044.72,-801.43 1154.17,-815.54 1351.44,-964 1432.27,-1024.84 1456.85,-1039.74 1514.33,-1123 1563.61,-1194.38 1596.8,-1294 1608.97,-1334.17"/>
<text text-anchor="middle" x="1059.76" y="-838.2" font-family="Times,serif" font-size="14.00">11,944</text>
</g>
<!-- ensembl&#45;&#45;cosmic -->
<g id="edge42" class="edge">
<title>ensembl&#45;&#45;cosmic</title>
<path fill="none" stroke="black" d="M355.99,-1412.56C356.11,-1346.82 364.61,-1120.53 470.86,-982 574.25,-847.19 640.42,-837.67 805.37,-797 839.03,-788.7 1054.94,-720.58 1406.94,-818 1459.42,-832.53 1471.53,-843.33 1514.33,-877 1590.01,-936.54 1593.19,-968.06 1660.42,-1037 1676.56,-1053.54 1682.81,-1055.53 1697.92,-1073 1723.63,-1102.71 1749.35,-1140.8 1763.45,-1162.59"/>
<text text-anchor="middle" x="1129.95" y="-774.2" font-family="Times,serif" font-size="14.00">617</text>
</g>
<!-- ensembl&#45;&#45;pseudogene -->
<g id="edge43" class="edge">
<title>ensembl&#45;&#45;pseudogene</title>
<path fill="none" stroke="black" d="M356.65,-1412.74C359.24,-1311.04 373.86,-817.09 415.36,-765 514.04,-641.14 991.08,-666.04 1093.2,-545 1128.97,-502.61 1074.82,-463.37 1111.2,-421.5 1187.8,-333.35 1252.75,-377.68 1369.44,-373 1386.09,-372.33 1390.98,-368.17 1406.94,-373 1416.14,-375.79 1416.44,-380.5 1424.94,-385 1540.68,-446.3 1579.65,-439.74 1697.92,-496 1714.76,-504.01 1733.09,-514.02 1747.59,-522.26"/>
<text text-anchor="middle" x="1129.95" y="-425.2" font-family="Times,serif" font-size="14.00">8,112</text>
</g>
<!-- ensembl&#45;&#45;iuphar.ligand -->
<g id="edge44" class="edge">
<title>ensembl&#45;&#45;iuphar.ligand</title>
<path fill="none" stroke="black" d="M376.66,-1446.84C384.58,-1454.18 392.81,-1463.58 397.36,-1474 424.16,-1535.41 406.76,-1708.55 415.36,-1775 431.48,-1899.52 408.01,-1943.31 470.86,-2052 485.53,-2077.38 841.03,-2387.64 867.62,-2400 965.13,-2445.32 1247.73,-2433.38 1351.44,-2405 1517.26,-2359.62 1557.8,-2332.61 1697.92,-2233 1721.58,-2216.18 1744.83,-2192.01 1759.38,-2175.69"/>
<text text-anchor="middle" x="1129.95" y="-2433.2" font-family="Times,serif" font-size="14.00">516</text>
</g>
<!-- ensembl&#45;&#45;lncipedia -->
<g id="edge45" class="edge">
<title>ensembl&#45;&#45;lncipedia</title>
<path fill="none" stroke="black" d="M376.87,-1446.75C384.82,-1454.08 393.02,-1463.49 397.36,-1474 417.03,-1521.67 386.27,-2359.42 415.36,-2402 441.8,-2440.71 759.67,-2552.52 805.37,-2563 1017.77,-2611.69 1076.99,-2585.55 1294.8,-2592 1344.63,-2593.48 1358.51,-2600.85 1406.94,-2589 1419.05,-2586.04 1431.71,-2580.73 1442.38,-2575.52"/>
<text text-anchor="middle" x="989.58" y="-2595.2" font-family="Times,serif" font-size="14.00">2,488</text>
</g>
<!-- ensembl&#45;&#45;civic.gid
890 -->
<g id="edge48" class="edge">
<title>ensembl&#45;&#45;civic.gid
890</title>
<path fill="none" stroke="black" d="M357.14,-1412.74C362.02,-1323.67 387.84,-935.8 470.86,-856 614.95,-717.5 1153.59,-644.69 1351.44,-673 1632.45,-713.2 1793.32,-756.91 1883.76,-1026 1916.42,-1123.19 1889.11,-1154.25 1901.76,-1256 1912.04,-1338.78 1930.3,-1435.61 1939.63,-1482.95"/>
<text text-anchor="middle" x="1194" y="-673.2" font-family="Times,serif" font-size="14.00">696</text>
</g>
<!-- ensembl&#45;&#45;ncit
12,711 -->
<g id="edge49" class="edge">
<title>ensembl&#45;&#45;ncit
12,711</title>
<path fill="none" stroke="black" d="M376.85,-1446.76C384.79,-1454.09 393,-1463.5 397.36,-1474 430.32,-1553.46 369.7,-2175.09 415.36,-2248 491.79,-2370.07 1111,-2526.97 1111.2,-2527 1315.16,-2559.99 1825.63,-2350.58 1991.2,-2227 2019.3,-2206.03 2026.5,-2197.37 2039.95,-2165 2065.23,-2104.22 2043.25,-2082.16 2057.95,-2018 2064.37,-1990 2075.33,-1959.07 2083.64,-1937.51"/>
<text text-anchor="middle" x="1258.05" y="-2527.2" font-family="Times,serif" font-size="14.00">6,882</text>
</g>
<!-- ensembl&#45;&#45;wikidata
797,967 -->
<g id="edge50" class="edge">
<title>ensembl&#45;&#45;wikidata
797,967</title>
<path fill="none" stroke="black" d="M356.89,-1412.81C361.06,-1303.19 384.09,-732.82 415.36,-662 429.9,-629.07 443.17,-626.01 470.86,-603 673.95,-434.23 733.08,-396.93 970.83,-282 1052.97,-242.29 1246.69,-91 1550.08,-91 1550.08,-91 1550.08,-91 2096.78,-91 2156.3,-91 2159.82,-138.92 2182.36,-194 2235.59,-324.03 2242.52,-773.82 2243.42,-893.54"/>
<text text-anchor="middle" x="1323.12" y="-132.2" font-family="Times,serif" font-size="14.00">159,560</text>
</g>
<!-- mgi
737,779 -->
<g id="node19" class="node">
<title>mgi
737,779</title>
<ellipse fill="none" stroke="black" cx="910.22" cy="-536" rx="42.6" ry="28.99"/>
<text text-anchor="middle" x="910.22" y="-539.2" font-family="Times,serif" font-size="14.00">mgi</text>
<text text-anchor="middle" x="910.22" y="-522.7" font-family="Times,serif" font-size="14.00">737,779</text>
</g>
<!-- ensembl&#45;&#45;mgi
737,779 -->
<g id="edge46" class="edge">
<title>ensembl&#45;&#45;mgi
737,779</title>
<path fill="none" stroke="black" d="M356.56,-1412.53C358.68,-1303.76 371.64,-749.38 415.36,-689 433.9,-663.39 647.48,-588.05 677.77,-579 742.97,-559.52 821.27,-547.19 868.04,-540.95"/>
<text text-anchor="middle" x="641.02" y="-601.2" font-family="Times,serif" font-size="14.00">14,175</text>
</g>
<!-- cgnc
26,075 -->
<g id="node20" class="node">
<title>cgnc
26,075</title>
<ellipse fill="none" stroke="black" cx="910.22" cy="-1349" rx="37.83" ry="28.99"/>
<text text-anchor="middle" x="910.22" y="-1352.2" font-family="Times,serif" font-size="14.00">cgnc</text>
<text text-anchor="middle" x="910.22" y="-1335.7" font-family="Times,serif" font-size="14.00">26,075</text>
</g>
<!-- ensembl&#45;&#45;cgnc
26,075 -->
<g id="edge47" class="edge">
<title>ensembl&#45;&#45;cgnc
26,075</title>
<path fill="none" stroke="black" d="M368.64,-1413.6C379.36,-1400.07 396.12,-1382.1 415.36,-1373 496.05,-1334.81 771.65,-1342.84 872.16,-1347.19"/>
<text text-anchor="middle" x="641.02" y="-1348.2" font-family="Times,serif" font-size="14.00">15,327</text>
</g>
<!-- iuphar.receptor&#45;&#45;ncbigene
59,499,014 -->
<g id="edge51" class="edge">
<title>iuphar.receptor&#45;&#45;ncbigene
59,499,014</title>
<path fill="none" stroke="black" d="M553.83,-1533.08C569.83,-1514.88 596.22,-1486.48 622.27,-1465.5 637.59,-1453.16 647.28,-1457.2 659.77,-1442 665.08,-1435.54 702.62,-1333.54 721.2,-1282.56"/>
<text text-anchor="middle" x="641.02" y="-1468.2" font-family="Times,serif" font-size="14.00">3,099</text>
</g>
<!-- iuphar.receptor&#45;&#45;omim
27,198 -->
<g id="edge52" class="edge">
<title>iuphar.receptor&#45;&#45;omim
27,198</title>
<path fill="none" stroke="black" d="M576.8,-1565.97C638.58,-1590.76 756.54,-1640.86 787.37,-1673.5 801.46,-1688.41 790.98,-1701.38 805.37,-1716 823.9,-1734.84 851.49,-1746.56 873.57,-1753.45"/>
<text text-anchor="middle" x="732.57" y="-1676.2" font-family="Times,serif" font-size="14.00">3,054</text>
</g>
<!-- iuphar.receptor&#45;&#45;refseq -->
<g id="edge53" class="edge">
<title>iuphar.receptor&#45;&#45;refseq</title>
<path fill="none" stroke="black" d="M604.35,-1550.11C717.97,-1547.37 944.89,-1536.22 1008.33,-1491 1022.97,-1480.56 1042.28,-1433.41 1052.23,-1407.03"/>
<text text-anchor="middle" x="827.5" y="-1541.2" font-family="Times,serif" font-size="14.00">3,076</text>
</g>
<!-- iuphar.receptor&#45;&#45;ucsc -->
<g id="edge54" class="edge">
<title>iuphar.receptor&#45;&#45;ucsc</title>
<path fill="none" stroke="black" d="M603,-1554.89C609.51,-1555.27 616.02,-1555.65 622.27,-1556 726.9,-1561.9 991.26,-1556.69 1093.2,-1581 1122.12,-1587.9 1153.1,-1602.88 1172.74,-1613.44"/>
<text text-anchor="middle" x="910.22" y="-1568.2" font-family="Times,serif" font-size="14.00">3,022</text>
</g>
<!-- iuphar.receptor&#45;&#45;vega -->
<g id="edge55" class="edge">
<title>iuphar.receptor&#45;&#45;vega</title>
<path fill="none" stroke="black" d="M574.61,-1566.36C584.83,-1571.7 595.54,-1578.31 604.27,-1586 625.5,-1604.71 655.15,-1672.99 677.77,-1690 718.98,-1720.98 749.05,-1693.51 787.37,-1728 849.77,-1784.17 822,-1828.53 867.62,-1899 905.85,-1958.05 906.89,-1989.66 970.83,-2019 1087.28,-2072.44 1245.09,-1999.58 1301.23,-1969.72"/>
<text text-anchor="middle" x="989.58" y="-2034.2" font-family="Times,serif" font-size="14.00">3,093</text>
</g>
<!-- iuphar.receptor&#45;&#45;orphanet -->
<g id="edge56" class="edge">
<title>iuphar.receptor&#45;&#45;orphanet</title>
<path fill="none" stroke="black" d="M578.54,-1565.66C588.11,-1570.81 597.51,-1577.5 604.27,-1586 623.46,-1610.13 608.4,-1625.46 622.27,-1653 640.12,-1688.46 644.92,-1700.7 677.77,-1723 719.86,-1751.57 751.65,-1719.77 787.37,-1756 807.82,-1776.74 795.74,-1791.52 805.37,-1819 829.1,-1886.73 824.66,-1910.51 867.62,-1968 903.02,-2015.38 916.76,-2028.03 970.83,-2052 1096.25,-2107.61 1148.03,-2140.36 1276.8,-2093 1357.92,-2063.17 1353.34,-2015.42 1424.94,-1967 1429.77,-1963.73 1435.11,-1960.58 1440.36,-1957.71"/>
<text text-anchor="middle" x="1059.76" y="-2106.2" font-family="Times,serif" font-size="14.00">1,074</text>
</g>
<!-- iuphar.receptor&#45;&#45;ccds -->
<g id="edge57" class="edge">
<title>iuphar.receptor&#45;&#45;ccds</title>
<path fill="none" stroke="black" d="M550.62,-1532.95C565.84,-1510.87 593.53,-1472.97 622.27,-1445 637.17,-1430.49 649.63,-1435.16 659.77,-1417 681.64,-1377.85 651.23,-1252.15 677.77,-1216 714.11,-1166.5 745.43,-1176.33 805.37,-1163 954.44,-1129.84 1019.02,-1068.86 1148.7,-1149.5 1164.06,-1159.05 1154.34,-1172.8 1166.7,-1186 1211.64,-1233.99 1233.74,-1235.61 1294.8,-1260 1342.4,-1279.02 1357.53,-1273.32 1406.94,-1287 1473.97,-1305.56 1552,-1331.13 1590.36,-1343.96"/>
<text text-anchor="middle" x="1129.95" y="-1153.2" font-family="Times,serif" font-size="14.00">1,509</text>
</g>
<!-- iuphar.receptor&#45;&#45;cosmic -->
<g id="edge58" class="edge">
<title>iuphar.receptor&#45;&#45;cosmic</title>
<path fill="none" stroke="black" d="M549.77,-1533.09C565.67,-1507.76 595.8,-1460.09 622.27,-1420 638.57,-1395.31 649.8,-1392.86 659.77,-1365 690.14,-1280.14 632.98,-1241.22 677.77,-1163 757.27,-1024.17 823.29,-1015.85 970.83,-954 1074.46,-910.56 1109.87,-904.98 1221.3,-919.5 1280.63,-927.23 1296.54,-930.19 1351.44,-954 1386.79,-969.33 1390.27,-983.17 1424.94,-1000 1540.9,-1056.3 1590.26,-1027.11 1697.92,-1098 1724.76,-1115.67 1748.8,-1144.63 1762.5,-1162.98"/>
<text text-anchor="middle" x="1194" y="-923.2" font-family="Times,serif" font-size="14.00">170</text>
</g>
<!-- iuphar.receptor&#45;&#45;civic.gid
890 -->
<g id="edge59" class="edge">
<title>iuphar.receptor&#45;&#45;civic.gid
890</title>
<path fill="none" stroke="black" d="M578.89,-1536.54C605.13,-1525.3 638.33,-1507.31 659.77,-1482 674.76,-1464.29 660.69,-1448.7 677.77,-1433 721.07,-1393.21 747.42,-1408.01 805.37,-1398 870.13,-1386.81 903.64,-1430.58 952.83,-1387 983.69,-1359.66 941.68,-1325.16 970.83,-1296 988.6,-1278.22 1001.3,-1287.46 1026.33,-1285 1080.54,-1279.68 1098.34,-1271.24 1148.7,-1292 1215.68,-1319.61 1364.44,-1432.32 1406.94,-1491 1421.03,-1510.47 1406.18,-1526.97 1424.94,-1542 1468.66,-1577.02 1494.06,-1557 1550.08,-1557 1550.08,-1557 1550.08,-1557 1776.47,-1557 1823.23,-1557 1874.89,-1540.72 1908.64,-1527.74"/>
<text text-anchor="middle" x="1258.05" y="-1376.2" font-family="Times,serif" font-size="14.00">228</text>
</g>
<!-- iuphar.receptor&#45;&#45;ncit
12,711 -->
<g id="edge60" class="edge">
<title>iuphar.receptor&#45;&#45;ncit
12,711</title>
<path fill="none" stroke="black" d="M548.55,-1568.93C563.93,-1596.36 594.55,-1650.27 622.27,-1695 726.6,-1863.35 741.78,-1914.06 867.62,-2067 926.84,-2138.97 1080.45,-2325.7 1166.7,-2361 1189.57,-2370.36 1291.09,-2358.18 1351.44,-2351 1481.52,-2335.52 1515.19,-2335.22 1642.42,-2304 1801.08,-2265.07 1856.44,-2280.33 1991.2,-2188 2019.27,-2168.77 2025.91,-2159.98 2039.95,-2129 2060.59,-2083.48 2045.85,-2066.49 2057.95,-2018 2064.91,-1990.13 2075.81,-1959.18 2083.94,-1937.59"/>
<text text-anchor="middle" x="1323.12" y="-2360.2" font-family="Times,serif" font-size="14.00">1,605</text>
</g>
<!-- iuphar.receptor&#45;&#45;wikidata
797,967 -->
<g id="edge61" class="edge">
<title>iuphar.receptor&#45;&#45;wikidata
797,967</title>
<path fill="none" stroke="black" d="M544.43,-1532.81C556.35,-1495.64 583.95,-1408.22 604.27,-1334 677.96,-1064.76 617.18,-945.17 805.37,-739 903.61,-631.38 968.53,-657.43 1093.2,-582 1219.52,-505.58 1244.82,-476.67 1369.44,-397.5 1393.76,-382.05 1397.51,-372.83 1424.94,-364 1601.18,-307.28 1989.59,-283.91 2133.61,-351 2164.14,-365.22 2168.98,-378.1 2182.36,-409 2220.67,-497.44 2237.75,-798.53 2242.28,-893.83"/>
<text text-anchor="middle" x="1388.19" y="-401.2" font-family="Times,serif" font-size="14.00">3,122</text>
</g>
<!-- ncbigene
59,499,014&#45;&#45;omim
27,198 -->
<g id="edge62" class="edge">
<title>ncbigene
59,499,014&#45;&#45;omim
27,198</title>
<path fill="none" stroke="black" d="M758.46,-1280.01C785.97,-1310.5 829.1,-1363.86 849.62,-1418.5 876.72,-1490.66 854.48,-1515.05 867.62,-1591 876.4,-1641.73 891.64,-1699.76 901.04,-1733.5"/>
<text text-anchor="middle" x="827.5" y="-1421.2" font-family="Times,serif" font-size="14.00">18,499</text>
</g>
<!-- ncbigene
59,499,014&#45;&#45;refseq -->
<g id="edge63" class="edge">
<title>ncbigene
59,499,014&#45;&#45;refseq</title>
<path fill="none" stroke="black" d="M773.82,-1234.51C819.92,-1215.19 896.36,-1192.6 952.83,-1223.5 1011.33,-1255.52 1042.26,-1335.15 1053.61,-1371"/>
<text text-anchor="middle" x="910.22" y="-1227.2" font-family="Times,serif" font-size="14.00">41,522</text>
</g>
<!-- ncbigene
59,499,014&#45;&#45;ucsc -->
<g id="edge64" class="edge">
<title>ncbigene
59,499,014&#45;&#45;ucsc</title>
<path fill="none" stroke="black" d="M786.08,-1246.72C833.67,-1242.94 903.68,-1244.72 952.83,-1278 1010.37,-1316.96 981.33,-1363.05 1026.33,-1416 1050.53,-1444.48 1066.79,-1440.55 1093.2,-1467 1096.8,-1470.61 1145.97,-1535.7 1148.7,-1540 1162.96,-1562.48 1176.7,-1590.07 1185,-1607.59"/>
<text text-anchor="middle" x="989.58" y="-1391.2" font-family="Times,serif" font-size="14.00">23,840</text>
</g>
<!-- ncbigene
59,499,014&#45;&#45;vega -->
<g id="edge65" class="edge">
<title>ncbigene
59,499,014&#45;&#45;vega</title>
<path fill="none" stroke="black" d="M739.25,-1283.22C747.93,-1321.6 767.62,-1389.45 805.37,-1435 820.22,-1452.92 837.86,-1442.92 849.62,-1463 887.53,-1527.71 830.52,-1734.82 867.62,-1800 894.91,-1847.95 921.77,-1843.74 970.83,-1869 1082.42,-1926.46 1233.42,-1948.41 1294.64,-1955.3"/>
<text text-anchor="middle" x="1059.76" y="-1919.2" font-family="Times,serif" font-size="14.00">31,739</text>
</g>
<!-- ncbigene
59,499,014&#45;&#45;orphanet -->
<g id="edge66" class="edge">
<title>ncbigene
59,499,014&#45;&#45;orphanet</title>
<path fill="none" stroke="black" d="M784.36,-1263.95C845.69,-1276.45 942.02,-1297.86 952.83,-1311 973.97,-1336.71 961.52,-1578.05 970.83,-1610 985.04,-1658.8 989.57,-1674.89 1026.33,-1710 1094.61,-1775.23 1326.21,-1850 1406.94,-1899 1421.33,-1907.74 1436.63,-1918.88 1448.39,-1927.89"/>
<text text-anchor="middle" x="1129.95" y="-1784.2" font-family="Times,serif" font-size="14.00">4,409</text>
</g>
<!-- ncbigene
59,499,014&#45;&#45;ccds -->
<g id="edge67" class="edge">
<title>ncbigene
59,499,014&#45;&#45;ccds</title>
<path fill="none" stroke="black" d="M764.5,-1229.92C776.62,-1221.67 791.04,-1213.2 805.37,-1208 949.72,-1155.58 995.79,-1154.79 1148.7,-1169 1343.88,-1187.13 1411.9,-1183.9 1569.83,-1300 1583.21,-1309.83 1595.2,-1324.46 1603.33,-1335.7"/>
<text text-anchor="middle" x="1194" y="-1179.2" font-family="Times,serif" font-size="14.00">10,615</text>
</g>
<!-- ncbigene
59,499,014&#45;&#45;cosmic -->
<g id="edge68" class="edge">
<title>ncbigene
59,499,014&#45;&#45;cosmic</title>
<path fill="none" stroke="black" d="M758.08,-1227.93C771.21,-1215.02 788.19,-1199.91 805.37,-1189 882.49,-1140.04 1053.12,-1102.92 1111.2,-1094 1240.16,-1074.2 1579.5,-1060.26 1697.92,-1115 1722.61,-1126.41 1745.63,-1148.05 1759.85,-1163.22"/>
<text text-anchor="middle" x="1258.05" y="-1085.2" font-family="Times,serif" font-size="14.00">570</text>
</g>
<!-- ncbigene
59,499,014&#45;&#45;pseudogene -->
<g id="edge69" class="edge">
<title>ncbigene
59,499,014&#45;&#45;pseudogene</title>
<path fill="none" stroke="black" d="M737.04,-1224.83C743.6,-1180.3 761.34,-1094.5 805.37,-1037 898.56,-915.29 975.52,-945.21 1093.2,-847 1120.6,-824.14 1126.41,-816.86 1148.7,-789 1153.29,-783.27 1289.45,-574.02 1294.8,-569 1409.79,-461.09 1485.22,-485.64 1642.42,-498 1667.27,-499.95 1673.9,-499.36 1697.92,-506 1713.47,-510.3 1730.07,-516.96 1743.82,-523.09"/>
<text text-anchor="middle" x="1258.05" y="-655.2" font-family="Times,serif" font-size="14.00">8,359</text>
</g>
<!-- ncbigene
59,499,014&#45;&#45;iuphar.ligand -->
<g id="edge70" class="edge">
<title>ncbigene
59,499,014&#45;&#45;iuphar.ligand</title>
<path fill="none" stroke="black" d="M741.35,-1282.81C752.81,-1323.41 776.07,-1399.28 805.37,-1460 821.36,-1493.15 838.38,-1494.95 849.62,-1530 870.97,-1596.55 832.44,-1783.61 867.62,-1844 890.31,-1882.95 917.94,-1870.46 952.83,-1899 1023.42,-1956.77 1155.25,-2157.55 1239.3,-2193 1254.65,-2199.48 1260.28,-2195.25 1276.8,-2193 1285.02,-2191.88 1286.6,-2189.32 1294.8,-2188 1471.89,-2159.37 1519.26,-2184.08 1697.92,-2168 1705.4,-2167.33 1713.27,-2166.47 1721,-2165.54"/>
<text text-anchor="middle" x="1258.05" y="-2199.2" font-family="Times,serif" font-size="14.00">465</text>
</g>
<!-- ncbigene
59,499,014&#45;&#45;lncipedia -->
<g id="edge71" class="edge">
<title>ncbigene
59,499,014&#45;&#45;lncipedia</title>
<path fill="none" stroke="black" d="M744.41,-1282.65C757.1,-1317.58 777.62,-1378.7 787.37,-1433 809.72,-1557.49 780.69,-1592.96 805.37,-1717 822.06,-1800.85 836.71,-1819.29 867.62,-1899 870.69,-1906.91 1106.1,-2452.22 1111.2,-2459 1155.62,-2518.05 1169.77,-2539.96 1239.3,-2565 1302.99,-2587.94 1383.22,-2578.65 1429.94,-2569.82"/>
<text text-anchor="middle" x="1129.95" y="-2509.2" font-family="Times,serif" font-size="14.00">2,444</text>
</g>
<!-- ncbigene
59,499,014&#45;&#45;civic.gid
890 -->
<g id="edge74" class="edge">
<title>ncbigene
59,499,014&#45;&#45;civic.gid
890</title>
<path fill="none" stroke="black" d="M764.97,-1230.21C773,-1223.06 781.12,-1214.77 787.37,-1206 799.4,-1189.13 791.69,-1178.56 805.37,-1163 826.48,-1139 839.14,-1141.5 867.62,-1127 1109.08,-1004.12 1159.88,-936.11 1424.94,-880 1463.81,-871.77 1479.76,-860.42 1514.33,-880 1527.86,-887.66 1520.1,-900.4 1532.33,-910 1643.11,-997 1734.46,-905.35 1835.01,-1004 1904.34,-1072.03 1935.18,-1384.8 1943.24,-1482.65"/>
<text text-anchor="middle" x="1323.12" y="-917.2" font-family="Times,serif" font-size="14.00">621</text>
</g>
<!-- ncbigene
59,499,014&#45;&#45;ncit
12,711 -->
<g id="edge75" class="edge">
<title>ncbigene
59,499,014&#45;&#45;ncit
12,711</title>
<path fill="none" stroke="black" d="M765.91,-1230.82C773.94,-1223.68 781.83,-1215.23 787.37,-1206 804.79,-1176.98 787.7,-1160.87 805.37,-1132 827.4,-1095.99 1062.71,-913.19 1093.2,-884 1119.21,-859.11 1124.8,-851.92 1148.7,-825 1207.58,-758.67 1236.93,-751.22 1276.8,-672 1292.21,-641.38 1267.88,-618.22 1294.8,-597 1399.29,-514.62 1805.24,-597.57 1883.76,-705 1910.07,-741.01 1893.82,-1062.11 1901.76,-1106 1937.26,-1302.29 1994.73,-1338.72 2039.95,-1533 2069.72,-1660.87 2086.29,-1817.11 2092.23,-1880.84"/>
<text text-anchor="middle" x="1388.19" y="-572.2" font-family="Times,serif" font-size="14.00">5,957</text>
</g>
<!-- ncbigene
59,499,014&#45;&#45;wikidata
797,967 -->
<g id="edge76" class="edge">
<title>ncbigene
59,499,014&#45;&#45;wikidata
797,967</title>
<path fill="none" stroke="black" d="M736.38,-1224.73C742.37,-1173.32 759.77,-1064.8 805.37,-986 853.19,-903.36 421.48,-1188.22 1294.8,-521 1400.46,-440.28 1417.11,-365 1550.08,-365 1550.08,-365 1550.08,-365 2096.78,-365 2207.22,-365 2236.3,-778.97 2242.25,-893.79"/>
<text text-anchor="middle" x="1469.63" y="-405.2" font-family="Times,serif" font-size="14.00">788,877</text>
</g>
<!-- ncbigene
59,499,014&#45;&#45;mgi
737,779 -->
<g id="edge72" class="edge">
<title>ncbigene
59,499,014&#45;&#45;mgi
737,779</title>
<path fill="none" stroke="black" d="M737.1,-1224.74C745.63,-1156.87 769.35,-983.74 805.37,-842.5 832.1,-737.7 877.35,-617.2 898.16,-563.88"/>
<text text-anchor="middle" x="827.5" y="-846.2" font-family="Times,serif" font-size="14.00">111,824</text>
</g>
<!-- ncbigene
59,499,014&#45;&#45;cgnc
26,075 -->
<g id="edge73" class="edge">
<title>ncbigene
59,499,014&#45;&#45;cgnc
26,075</title>
<path fill="none" stroke="black" d="M770.31,-1275.35C781.51,-1281.76 793.9,-1288.75 805.37,-1295 818.89,-1302.37 852.78,-1319.93 878.19,-1333.04"/>
<text text-anchor="middle" x="827.5" y="-1321.2" font-family="Times,serif" font-size="14.00">26,069</text>
</g>
<!-- omim
27,198&#45;&#45;refseq -->
<g id="edge77" class="edge">
<title>omim
27,198&#45;&#45;refseq</title>
<path fill="none" stroke="black" d="M919.74,-1733.46C930.38,-1698.87 949.74,-1639.07 970.83,-1589.5 985.18,-1555.75 993.21,-1549.41 1008.33,-1516 1025.64,-1477.74 1043.12,-1431.68 1052.27,-1406.89"/>
<text text-anchor="middle" x="989.58" y="-1592.2" font-family="Times,serif" font-size="14.00">17,242</text>
</g>
<!-- omim
27,198&#45;&#45;ucsc -->
<g id="edge78" class="edge">
<title>omim
27,198&#45;&#45;ucsc</title>
<path fill="none" stroke="black" d="M946.04,-1751.97C993.99,-1737.26 1081.96,-1706.95 1148.7,-1665 1159.76,-1658.05 1170.66,-1648.25 1178.88,-1640.09"/>
<text text-anchor="middle" x="1059.76" y="-1727.2" font-family="Times,serif" font-size="14.00">16,703</text>
</g>
<!-- omim
27,198&#45;&#45;vega -->
<g id="edge79" class="edge">
<title>omim
27,198&#45;&#45;vega</title>
<path fill="none" stroke="black" d="M944.05,-1775.81C1008.73,-1803.31 1156.8,-1867.74 1276.8,-1931 1285.22,-1935.44 1294.28,-1940.73 1302.07,-1945.45"/>
<text text-anchor="middle" x="1129.95" y="-1869.2" font-family="Times,serif" font-size="14.00">16,860</text>
</g>
<!-- omim
27,198&#45;&#45;orphanet -->
<g id="edge80" class="edge">
<title>omim
27,198&#45;&#45;orphanet</title>
<path fill="none" stroke="black" d="M947.34,-1769.15C965.68,-1772.95 988.27,-1777.89 1008.33,-1783 1174.24,-1825.32 1365.31,-1901.26 1438.22,-1931.28"/>
<text text-anchor="middle" x="1194" y="-1850.2" font-family="Times,serif" font-size="14.00">4,399</text>
</g>
<!-- omim
27,198&#45;&#45;ccds -->
<g id="edge81" class="edge">
<title>omim
27,198&#45;&#45;ccds</title>
<path fill="none" stroke="black" d="M924.98,-1735.3C936.5,-1713.51 953.76,-1682.17 970.83,-1656 986,-1632.73 995.97,-1630.88 1008.33,-1606 1021.28,-1579.92 1006.11,-1563.96 1026.33,-1543 1031.56,-1537.58 1480.66,-1394.46 1590.22,-1359.6"/>
<text text-anchor="middle" x="1258.05" y="-1474.2" font-family="Times,serif" font-size="14.00">8,612</text>
</g>
<!-- omim
27,198&#45;&#45;cosmic -->
<g id="edge82" class="edge">
<title>omim
27,198&#45;&#45;cosmic</title>
<path fill="none" stroke="black" d="M919.44,-1733.62C929.09,-1699.07 944.8,-1638.77 952.83,-1586 957.15,-1557.59 950.73,-1348.54 970.83,-1328 1066.34,-1230.4 1149.35,-1349.05 1276.8,-1300 1286.13,-1296.41 1285.78,-1290.83 1294.8,-1286.5 1313.4,-1277.57 1580.15,-1215.77 1587.83,-1214 1620.03,-1206.6 1627.96,-1204.13 1660.42,-1198 1686.62,-1193.05 1716.38,-1188.39 1738.93,-1185.05"/>
<text text-anchor="middle" x="1323.12" y="-1290.2" font-family="Times,serif" font-size="14.00">569</text>
</g>
<!-- omim
27,198&#45;&#45;pseudogene -->
<g id="edge83" class="edge">
<title>omim
27,198&#45;&#45;pseudogene</title>
<path fill="none" stroke="black" d="M919.51,-1733.63C929.23,-1699.09 945.01,-1638.8 952.83,-1586 962.29,-1522.13 949.76,-1357.04 970.83,-1296 1034.9,-1110.37 1129.44,-1105.57 1221.3,-932 1263.79,-851.71 1295.77,-604.16 1369.44,-551 1480.11,-471.13 1655.64,-504.85 1734.18,-525.86"/>
<text text-anchor="middle" x="1323.12" y="-698.2" font-family="Times,serif" font-size="14.00">88</text>
</g>
<!-- omim
27,198&#45;&#45;iuphar.ligand -->
<g id="edge84" class="edge">
<title>omim
27,198&#45;&#45;iuphar.ligand</title>
<path fill="none" stroke="black" d="M923.19,-1789.6C933.67,-1811.79 950.4,-1842.94 970.83,-1866 984.62,-1881.57 995.53,-1877.61 1008.33,-1894 1021.08,-1910.33 1014.25,-1920.16 1026.33,-1937 1049.43,-1969.21 1067.66,-1965.69 1093.2,-1996 1172.93,-2090.63 1131.26,-2172.68 1239.3,-2233 1253.85,-2241.12 1262.32,-2241.26 1276.8,-2233 1290.46,-2225.2 1281.13,-2210.3 1294.8,-2202.5 1316.66,-2190.02 1330.13,-2189.09 1351.44,-2202.5 1367.08,-2212.35 1354.06,-2229.74 1369.44,-2240 1387.58,-2252.11 1474.48,-2255.09 1569.83,-2243 1628.15,-2235.61 1644.35,-2234.21 1697.92,-2210 1718.13,-2200.87 1738.79,-2186.47 1753.55,-2175.14"/>
<text text-anchor="middle" x="1323.12" y="-2205.2" font-family="Times,serif" font-size="14.00">460</text>
</g>
<!-- omim
27,198&#45;&#45;lncipedia -->
<g id="edge85" class="edge">
<title>omim
27,198&#45;&#45;lncipedia</title>
<path fill="none" stroke="black" d="M923.02,-1789.55C934.68,-1816.43 953.27,-1858.36 970.83,-1894 981.02,-1914.69 1154.7,-2240.31 1166.7,-2260 1218.93,-2345.72 1226.79,-2372.17 1294.8,-2446 1337.45,-2492.31 1402.43,-2528.8 1439.68,-2547.42"/>
<text text-anchor="middle" x="1194" y="-2354.2" font-family="Times,serif" font-size="14.00">211</text>
</g>
<!-- omim
27,198&#45;&#45;civic.gid
890 -->
<g id="edge86" class="edge">
<title>omim
27,198&#45;&#45;civic.gid
890</title>
<path fill="none" stroke="black" d="M938.15,-1742.23C983.63,-1709.42 1079.26,-1642.9 1166.7,-1598 1266.88,-1546.57 1321.45,-1444.21 1406.94,-1517.5 1446.71,-1551.6 1385.16,-1599.9 1424.94,-1634 1455.1,-1659.86 1474.74,-1637.35 1514.33,-1634 1535.08,-1632.24 1866.09,-1582.02 1883.76,-1571 1895.37,-1563.75 1892.25,-1555.86 1901.76,-1546 1906.03,-1541.57 1910.89,-1537.23 1915.79,-1533.21"/>
<text text-anchor="middle" x="1388.19" y="-1520.2" font-family="Times,serif" font-size="14.00">622</text>
</g>
<!-- omim
27,198&#45;&#45;ncit
12,711 -->
<g id="edge87" class="edge">
<title>omim
27,198&#45;&#45;ncit
12,711</title>
<path fill="none" stroke="black" d="M937,-1782.98C949.83,-1793.3 964.03,-1804.46 970.83,-1809 976.89,-1813.05 1087.95,-1874.36 1111.2,-1887 1245.67,-1960.11 1274.71,-1999.7 1424.94,-2029 1535.6,-2050.58 1565.43,-2044 1678.17,-2044 1678.17,-2044 1678.17,-2044 1947.48,-2044 2010.4,-2044 2058.31,-1976.27 2080.75,-1937.12"/>
<text text-anchor="middle" x="1469.63" y="-2045.2" font-family="Times,serif" font-size="14.00">5,847</text>
</g>
<!-- omim
27,198&#45;&#45;wikidata
797,967 -->
<g id="edge88" class="edge">
<title>omim
27,198&#45;&#45;wikidata
797,967</title>
<path fill="none" stroke="black" d="M920.05,-1790.43C933.59,-1833.74 959.14,-1914.15 970.83,-1942 984.94,-1975.64 996.88,-1980.37 1008.33,-2015 1023.73,-2061.62 1016.15,-2075.97 1026.33,-2124 1057.45,-2270.89 1032.52,-2323.12 1111.2,-2451 1122.84,-2469.91 1132.96,-2468.35 1148.7,-2484 1217.94,-2552.81 1226.33,-2578.42 1294.8,-2648 1333.93,-2687.77 1331.39,-2733 1387.19,-2733 1387.19,-2733 1387.19,-2733 2096.78,-2733 2195.93,-2733 2161.12,-2623.84 2182.36,-2527 2217.33,-2367.59 2239.54,-1156.89 2243.07,-952.32"/>
<text text-anchor="middle" x="1551.08" y="-2736.2" font-family="Times,serif" font-size="14.00">28,390</text>
</g>
<!-- refseq&#45;&#45;ucsc -->
<g id="edge89" class="edge">
<title>refseq&#45;&#45;ucsc</title>
<path fill="none" stroke="black" d="M1080.86,-1403.2C1100.9,-1418.39 1131.15,-1444.28 1148.7,-1473.5 1163.8,-1498.65 1158.5,-1508.84 1166.7,-1537 1173.79,-1561.34 1182.22,-1589.39 1187.59,-1607.16"/>
<text text-anchor="middle" x="1129.95" y="-1476.2" font-family="Times,serif" font-size="14.00">23,592</text>
</g>
<!-- refseq&#45;&#45;vega -->
<g id="edge90" class="edge">
<title>refseq&#45;&#45;vega</title>
<path fill="none" stroke="black" d="M1068.95,-1406.56C1078.77,-1427.5 1095.82,-1463.48 1111.2,-1494 1127.27,-1525.87 1136.63,-1531.42 1148.7,-1565 1162.06,-1602.16 1151.22,-1615.68 1166.7,-1652 1183.51,-1691.43 1204.88,-1691.91 1221.3,-1731.5 1238.01,-1771.8 1223.28,-1787.42 1239.3,-1828 1256.98,-1872.81 1290.74,-1918.87 1309.23,-1942.28"/>
<text text-anchor="middle" x="1194" y="-1734.2" font-family="Times,serif" font-size="14.00">31,349</text>
</g>
<!-- refseq&#45;&#45;orphanet -->
<g id="edge91" class="edge">
<title>refseq&#45;&#45;orphanet</title>
<path fill="none" stroke="black" d="M1090.48,-1396.74C1108.99,-1402.79 1132.32,-1412.76 1148.7,-1428 1180.04,-1457.16 1215.44,-1562.46 1239.3,-1598 1271.81,-1646.43 1376.51,-1750.23 1406.94,-1800 1432.9,-1842.46 1453.27,-1897.8 1462.78,-1925.91"/>
<text text-anchor="middle" x="1258.05" y="-1646.2" font-family="Times,serif" font-size="14.00">4,351</text>
</g>
<!-- refseq&#45;&#45;ccds -->
<g id="edge92" class="edge">
<title>refseq&#45;&#45;ccds</title>
<path fill="none" stroke="black" d="M1090.76,-1381.62C1097.45,-1380.21 1104.54,-1378.89 1111.2,-1378 1292.1,-1353.76 1512.39,-1351.77 1587.54,-1351.85"/>
<text text-anchor="middle" x="1323.12" y="-1364.2" font-family="Times,serif" font-size="14.00">10,592</text>
</g>
<!-- refseq&#45;&#45;cosmic -->
<g id="edge93" class="edge">
<title>refseq&#45;&#45;cosmic</title>
<path fill="none" stroke="black" d="M1087.27,-1378.38C1094.93,-1375.48 1103.35,-1372.47 1111.2,-1370 1183.64,-1347.25 1203.64,-1348.33 1276.8,-1328 1448.42,-1280.31 1489.41,-1261.84 1660.42,-1212 1688.06,-1203.94 1719.58,-1195.13 1742.46,-1188.79"/>
<text text-anchor="middle" x="1388.19" y="-1305.2" font-family="Times,serif" font-size="14.00">560</text>
</g>
<!-- refseq&#45;&#45;pseudogene -->
<g id="edge94" class="edge">
<title>refseq&#45;&#45;pseudogene</title>
<path fill="none" stroke="black" d="M1065.28,-1370.87C1073.27,-1339.5 1091.01,-1273.24 1111.2,-1219 1125.33,-1181.06 1132.23,-1172.98 1148.7,-1136 1156.8,-1117.82 1155.82,-1111.66 1166.7,-1095 1337.09,-834.05 1657.33,-614.03 1749.23,-554.11"/>
<text text-anchor="middle" x="1388.19" y="-858.2" font-family="Times,serif" font-size="14.00">8,202</text>
</g>
<!-- refseq&#45;&#45;iuphar.ligand -->
<g id="edge95" class="edge">
<title>refseq&#45;&#45;iuphar.ligand</title>
<path fill="none" stroke="black" d="M1063.99,-1407.31C1073.98,-1461.46 1107.35,-1624.76 1166.7,-1748 1185.06,-1786.12 1201.71,-1788.49 1221.3,-1826 1232.04,-1846.56 1230.06,-1853.72 1239.3,-1875 1261.11,-1925.23 1261.44,-1941.57 1294.8,-1985 1371,-2084.21 1409.8,-2110.8 1532.33,-2136 1594.14,-2148.71 1666.34,-2154.08 1715.71,-2156.35"/>
<text text-anchor="middle" x="1388.19" y="-2097.2" font-family="Times,serif" font-size="14.00">457</text>
</g>
<!-- refseq&#45;&#45;lncipedia -->
<g id="edge96" class="edge">
<title>refseq&#45;&#45;lncipedia</title>
<path fill="none" stroke="black" d="M1061.91,-1407.44C1065.51,-1460.59 1078.39,-1618.41 1111.2,-1745 1117.64,-1769.86 1271.13,-2151.46 1276.8,-2176.5 1288.04,-2226.18 1272.23,-2359.34 1294.8,-2405 1303.8,-2423.22 1405.33,-2508.59 1448.93,-2544.75"/>
<text text-anchor="middle" x="1258.05" y="-2179.2" font-family="Times,serif" font-size="14.00">2,308</text>
</g>
<!-- refseq&#45;&#45;civic.gid
890 -->
<g id="edge97" class="edge">
<title>refseq&#45;&#45;civic.gid
890</title>
<path fill="none" stroke="black" d="M1077.41,-1373.55C1163.89,-1294.07 1563.18,-937.29 1697.92,-998 1891.62,-1085.28 1934.52,-1387.16 1943.34,-1482.74"/>
<text text-anchor="middle" x="1469.63" y="-1098.2" font-family="Times,serif" font-size="14.00">613</text>
</g>
<!-- refseq&#45;&#45;ncit
12,711 -->
<g id="edge98" class="edge">
<title>refseq&#45;&#45;ncit
12,711</title>
<path fill="none" stroke="black" d="M1093.32,-1391.01C1110.26,-1392.84 1131.06,-1396.33 1148.7,-1403 1184.43,-1416.5 1196.65,-1419.82 1221.3,-1449 1234.66,-1464.83 1227.18,-1475.2 1239.3,-1492 1303.36,-1580.81 1340.93,-1583.76 1424.94,-1654 1471.85,-1693.22 1474.92,-1718.96 1532.33,-1740 1555.31,-1748.42 1618.34,-1738.66 1642.42,-1743 1739.77,-1760.55 1758.78,-1784.93 1853.01,-1815 1936.01,-1841.49 1962.17,-1834.75 2039.95,-1874 2049.21,-1878.67 2058.81,-1884.57 2067.34,-1890.23"/>
<text text-anchor="middle" x="1551.08" y="-1746.2" font-family="Times,serif" font-size="14.00">5,899</text>
</g>
<!-- refseq&#45;&#45;wikidata
797,967 -->
<g id="edge99" class="edge">
<title>refseq&#45;&#45;wikidata
797,967</title>
<path fill="none" stroke="black" d="M1066.43,-1370.87C1079.49,-1331.04 1114.6,-1234.14 1166.7,-1167 1205.8,-1116.62 1233.74,-1122.04 1276.8,-1075 1354.65,-989.94 1334.96,-934.12 1424.94,-862 1590.71,-729.12 1654.92,-681 1867.38,-681 1867.38,-681 1867.38,-681 2096.78,-681 2195.31,-681 2229.53,-829.44 2239.75,-893.81"/>
<text text-anchor="middle" x="1615.13" y="-746.2" font-family="Times,serif" font-size="14.00">41,494</text>
</g>
<!-- ucsc&#45;&#45;vega -->
<g id="edge100" class="edge">
<title>ucsc&#45;&#45;vega</title>
<path fill="none" stroke="black" d="M1209.89,-1639.84C1214.2,-1644.9 1218.49,-1650.85 1221.3,-1657 1241.13,-1700.47 1220.11,-1719.24 1239.3,-1763 1250.24,-1787.95 1265.08,-1786.9 1276.8,-1811.5 1291.82,-1843.03 1284.42,-1854.65 1294.8,-1888 1300.45,-1906.19 1308.54,-1926.4 1314.45,-1940.41"/>
<text text-anchor="middle" x="1258.05" y="-1814.2" font-family="Times,serif" font-size="14.00">20,204</text>
</g>
<!-- ucsc&#45;&#45;orphanet -->
<g id="edge101" class="edge">
<title>ucsc&#45;&#45;orphanet</title>
<path fill="none" stroke="black" d="M1209.37,-1640.1C1213.65,-1645.18 1218.06,-1651.07 1221.3,-1657 1233.82,-1679.95 1224.1,-1691.73 1239.3,-1713 1251.39,-1729.93 1261.07,-1727.39 1276.8,-1741 1285.35,-1748.4 1285.85,-1752.08 1294.8,-1759 1317.66,-1776.7 1387.05,-1804.01 1406.94,-1825 1435.43,-1855.07 1454.13,-1900.85 1462.88,-1925.96"/>
<text text-anchor="middle" x="1323.12" y="-1792.2" font-family="Times,serif" font-size="14.00">4,362</text>
</g>
<!-- ucsc&#45;&#45;ccds -->
<g id="edge102" class="edge">
<title>ucsc&#45;&#45;ccds</title>
<path fill="none" stroke="black" d="M1220.9,-1621.21C1264.98,-1613.44 1354.88,-1591.68 1406.94,-1538 1422.8,-1521.64 1408.52,-1505.79 1424.94,-1490 1473.83,-1442.97 1518.68,-1486.56 1569.83,-1442 1591.76,-1422.9 1603.93,-1390.42 1609.74,-1370.14"/>
<text text-anchor="middle" x="1388.19" y="-1570.2" font-family="Times,serif" font-size="14.00">10,084</text>
</g>
<!-- ucsc&#45;&#45;cosmic -->
<g id="edge103" class="edge">
<title>ucsc&#45;&#45;cosmic</title>
<path fill="none" stroke="black" d="M1216.52,-1614.52C1223.73,-1611.09 1231.82,-1607.31 1239.3,-1604 1312.98,-1571.4 1336.89,-1574.82 1406.94,-1535 1415.63,-1530.06 1416.53,-1526.92 1424.94,-1521.5 1486.67,-1481.7 1509.55,-1483.98 1569.83,-1442 1604.89,-1417.59 1614.23,-1411.09 1642.42,-1379 1696.07,-1317.95 1744.97,-1233.73 1764.95,-1197.61"/>
<text text-anchor="middle" x="1469.63" y="-1524.2" font-family="Times,serif" font-size="14.00">564</text>
</g>
<!-- ucsc&#45;&#45;pseudogene -->
<g id="edge104" class="edge">
<title>ucsc&#45;&#45;pseudogene</title>
<path fill="none" stroke="black" d="M1196.09,-1606.83C1200.13,-1542.71 1215.21,-1327.34 1239.3,-1263 1267.69,-1187.15 1609.69,-731.14 1660.42,-668 1693.9,-626.34 1735.96,-579.76 1758.48,-555.25"/>
<text text-anchor="middle" x="1469.63" y="-983.2" font-family="Times,serif" font-size="14.00">42</text>
</g>
<!-- ucsc&#45;&#45;iuphar.ligand -->
<g id="edge105" class="edge">
<title>ucsc&#45;&#45;iuphar.ligand</title>
<path fill="none" stroke="black" d="M1213.37,-1638.22C1216.41,-1641.13 1219.23,-1644.43 1221.3,-1648 1241.73,-1683.3 1217.51,-1703.51 1239.3,-1738 1250.4,-1755.59 1264.06,-1749.55 1276.8,-1766 1289.73,-1782.71 1283.95,-1791.87 1294.8,-1810 1335,-1877.24 1359.1,-1883.96 1406.94,-1946 1415.3,-1956.84 1414.38,-1962.28 1424.94,-1971 1458.7,-1998.91 1475.32,-1992.57 1514.33,-2012.5 1600.73,-2056.64 1700.12,-2114.17 1747.12,-2141.8"/>
<text text-anchor="middle" x="1469.63" y="-2015.2" font-family="Times,serif" font-size="14.00">460</text>
</g>
<!-- ucsc&#45;&#45;lncipedia -->
<g id="edge106" class="edge">
<title>ucsc&#45;&#45;lncipedia</title>
<path fill="none" stroke="black" d="M1213.66,-1638.06C1216.67,-1640.99 1219.41,-1644.33 1221.3,-1648 1240.08,-1684.54 1233.86,-1791.28 1239.3,-1832 1252.49,-1930.75 1263.21,-1954.3 1276.8,-2053 1287.16,-2128.27 1271.51,-2150.68 1294.8,-2223 1325.67,-2318.9 1361.76,-2329.95 1406.94,-2420 1428.62,-2463.23 1450.49,-2515.81 1461.43,-2542.92"/>
<text text-anchor="middle" x="1323.12" y="-2333.2" font-family="Times,serif" font-size="14.00">1,311</text>
</g>
<!-- ucsc&#45;&#45;civic.gid
890 -->
<g id="edge107" class="edge">
<title>ucsc&#45;&#45;civic.gid
890</title>
<path fill="none" stroke="black" d="M1211.04,-1638.98C1223.35,-1649.68 1238.41,-1662.67 1239.3,-1663 1254.93,-1668.79 1260.13,-1663.04 1276.8,-1663 1382.37,-1662.78 1419.28,-1707.93 1514.33,-1662 1525.86,-1656.43 1520.79,-1645.05 1532.33,-1639.5 1547.35,-1632.28 1553.18,-1638.81 1569.83,-1639.5 1610.2,-1641.17 1620.06,-1645.33 1660.42,-1647 1759.6,-1651.1 1807.66,-1710.73 1883.76,-1647 1918.71,-1617.72 1878.19,-1585.04 1901.76,-1546 1904.84,-1540.9 1908.99,-1536.27 1913.52,-1532.19"/>
<text text-anchor="middle" x="1551.08" y="-1642.2" font-family="Times,serif" font-size="14.00">613</text>
</g>
<!-- ucsc&#45;&#45;ncit
12,711 -->
<g id="edge108" class="edge">
<title>ucsc&#45;&#45;ncit
12,711</title>
<path fill="none" stroke="black" d="M1212.16,-1638.62C1215.37,-1641.55 1218.57,-1644.74 1221.3,-1648 1231.27,-1659.93 1228.01,-1667.3 1239.3,-1678 1316.53,-1751.26 1571.72,-1870 1678.17,-1870 1678.17,-1870 1678.17,-1870 1947.48,-1870 1988.16,-1870 2033.01,-1884.38 2062.41,-1895.9"/>
<text text-anchor="middle" x="1615.13" y="-1869.2" font-family="Times,serif" font-size="14.00">5,834</text>
</g>
<!-- ucsc&#45;&#45;wikidata
797,967 -->
<g id="edge109" class="edge">
<title>ucsc&#45;&#45;wikidata
797,967</title>
<path fill="none" stroke="black" d="M1195.57,-1606.59C1197.46,-1573.31 1205.48,-1502.25 1239.3,-1455 1274.05,-1406.44 1305.75,-1419.45 1351.44,-1381 1513.4,-1244.68 1478.04,-1125.98 1660.42,-1018.5 1838.73,-913.42 2098.17,-914.65 2200.12,-919.89"/>
<text text-anchor="middle" x="1679.17" y="-1022.2" font-family="Times,serif" font-size="14.00">23,945</text>
</g>
<!-- vega&#45;&#45;orphanet -->
<g id="edge110" class="edge">
<title>vega&#45;&#45;orphanet</title>
<path fill="none" stroke="black" d="M1351.3,-1955.37C1372.64,-1953.3 1402.71,-1950.39 1427.07,-1948.03"/>
<text text-anchor="middle" x="1388.19" y="-1956.2" font-family="Times,serif" font-size="14.00">4,357</text>
</g>
<!-- vega&#45;&#45;ccds -->
<g id="edge111" class="edge">
<title>vega&#45;&#45;ccds</title>
<path fill="none" stroke="black" d="M1327.62,-1939.8C1332.97,-1911.9 1343.38,-1856.87 1351.44,-1810 1360.05,-1759.88 1347.6,-1742.93 1369.44,-1697 1426.8,-1576.37 1501.11,-1587.55 1569.83,-1473 1590.2,-1439.05 1603.58,-1394.2 1609.9,-1369.76"/>
<text text-anchor="middle" x="1469.63" y="-1620.2" font-family="Times,serif" font-size="14.00">10,534</text>
</g>
<!-- vega&#45;&#45;cosmic -->
<g id="edge112" class="edge">
<title>vega&#45;&#45;cosmic</title>
<path fill="none" stroke="black" d="M1335.98,-1941.72C1378.27,-1883.73 1519.82,-1690.13 1532.33,-1679.5 1546.65,-1667.34 1555.3,-1671.9 1569.83,-1660 1640.05,-1602.51 1660.59,-1583.71 1697.92,-1501 1717.4,-1457.84 1705.72,-1442.23 1715.92,-1396 1732.29,-1321.83 1757.8,-1234.97 1768.94,-1198.06"/>
<text text-anchor="middle" x="1551.08" y="-1682.2" font-family="Times,serif" font-size="14.00">569</text>
</g>
<!-- vega&#45;&#45;pseudogene -->
<g id="edge113" class="edge">
<title>vega&#45;&#45;pseudogene</title>
<path fill="none" stroke="black" d="M1328.35,-1939.9C1334.65,-1912.13 1346.28,-1857.27 1351.44,-1810 1376.37,-1581.44 1327.29,-1519.02 1369.44,-1293 1383.23,-1219.01 1389.32,-1199.31 1424.94,-1133 1500.33,-992.63 1562.25,-985.7 1642.42,-848 1703.35,-743.35 1752.08,-605.25 1768.5,-556.22"/>
<text text-anchor="middle" x="1551.08" y="-991.2" font-family="Times,serif" font-size="14.00">7,206</text>
</g>
<!-- vega&#45;&#45;iuphar.ligand -->
<g id="edge114" class="edge">
<title>vega&#45;&#45;iuphar.ligand</title>
<path fill="none" stroke="black" d="M1343.9,-1970.58C1362.34,-1983.18 1389.55,-2004.09 1406.94,-2028 1419.36,-2045.09 1408.94,-2058.2 1424.94,-2072 1447.68,-2091.62 1633.38,-2130.27 1724.47,-2148.31"/>
<text text-anchor="middle" x="1551.08" y="-2118.2" font-family="Times,serif" font-size="14.00">462</text>
</g>
<!-- vega&#45;&#45;lncipedia -->
<g id="edge115" class="edge">
<title>vega&#45;&#45;lncipedia</title>
<path fill="none" stroke="black" d="M1326.47,-1976.25C1331.87,-2016.13 1346.46,-2113.79 1369.44,-2193 1382.14,-2236.79 1393.53,-2244.92 1406.94,-2288.5 1435.89,-2382.62 1457.72,-2498.82 1465.52,-2542.9"/>
<text text-anchor="middle" x="1388.19" y="-2291.2" font-family="Times,serif" font-size="14.00">2,387</text>
</g>
<!-- vega&#45;&#45;civic.gid
890 -->
<g id="edge116" class="edge">
<title>vega&#45;&#45;civic.gid
890</title>
<path fill="none" stroke="black" d="M1343.32,-1944.91C1385.25,-1916.15 1487.8,-1844.84 1569.83,-1780 1578.11,-1773.45 1578.52,-1769.47 1587.83,-1764.5 1648.02,-1732.41 1838.97,-1734.44 1883.76,-1683 1924.08,-1636.68 1871.23,-1599.29 1901.76,-1546 1904.81,-1540.66 1909.08,-1535.87 1913.75,-1531.68"/>
<text text-anchor="middle" x="1615.13" y="-1767.2" font-family="Times,serif" font-size="14.00">617</text>
</g>
<!-- vega&#45;&#45;ncit
12,711 -->
<g id="edge117" class="edge">
<title>vega&#45;&#45;ncit
12,711</title>
<path fill="none" stroke="black" d="M1332.39,-1975.17C1347.26,-2004.45 1381.08,-2064.42 1424.94,-2101 1525.27,-2184.67 1567.81,-2221.77 1697.92,-2210 1830.17,-2198.04 1880.05,-2225.65 1991.2,-2153 2047.23,-2116.38 2038.34,-2081.99 2057.95,-2018 2066.37,-1990.54 2077.07,-1959.54 2084.76,-1937.82"/>
<text text-anchor="middle" x="1679.17" y="-2215.2" font-family="Times,serif" font-size="14.00">5,747</text>
</g>
<!-- vega&#45;&#45;wikidata
797,967 -->
<g id="edge118" class="edge">
<title>vega&#45;&#45;wikidata
797,967</title>
<path fill="none" stroke="black" d="M1329.3,-1975.72C1336.55,-1999.23 1350.94,-2041.67 1369.44,-2075 1379.41,-2092.97 1411.45,-2133.48 1424.94,-2149 1544.68,-2286.83 1547.18,-2369.27 1715.92,-2439 1849.63,-2494.25 1914.77,-2480.51 2039.95,-2408 2097.89,-2374.44 2106.48,-2351.21 2133.61,-2290 2245.08,-2038.61 2244.9,-1127.86 2243.81,-952.37"/>
<text text-anchor="middle" x="1775.47" y="-2474.2" font-family="Times,serif" font-size="14.00">31,847</text>
</g>
<!-- orphanet&#45;&#45;ccds -->
<g id="edge119" class="edge">
<title>orphanet&#45;&#45;ccds</title>
<path fill="none" stroke="black" d="M1471.38,-1925.8C1473.9,-1885.45 1484.85,-1787.02 1532.33,-1723.5 1544.11,-1707.75 1559.24,-1716.57 1569.83,-1700 1605.34,-1644.45 1612.47,-1433.96 1613.83,-1370.33"/>
<text text-anchor="middle" x="1551.08" y="-1726.2" font-family="Times,serif" font-size="14.00">2,037</text>
</g>
<!-- orphanet&#45;&#45;cosmic -->
<g id="edge120" class="edge">
<title>orphanet&#45;&#45;cosmic</title>
<path fill="none" stroke="black" d="M1487.41,-1927.28C1509.9,-1905.02 1551.23,-1864.61 1587.83,-1831.5 1611.47,-1810.12 1624.51,-1811.36 1642.42,-1785 1741.3,-1639.46 1685.8,-1569.35 1715.92,-1396 1728.93,-1321.16 1756.21,-1234.66 1768.38,-1197.95"/>
<text text-anchor="middle" x="1615.13" y="-1834.2" font-family="Times,serif" font-size="14.00">396</text>
</g>
<!-- orphanet&#45;&#45;iuphar.ligand -->
<g id="edge121" class="edge">
<title>orphanet&#45;&#45;iuphar.ligand</title>
<path fill="none" stroke="black" d="M1501.47,-1956.48C1547.32,-1975.94 1634.8,-2016.67 1697.92,-2068 1724.18,-2089.35 1748.39,-2120.57 1762.28,-2140.06"/>
<text text-anchor="middle" x="1615.13" y="-2030.2" font-family="Times,serif" font-size="14.00">177</text>
</g>
<!-- orphanet&#45;&#45;civic.gid
890 -->
<g id="edge122" class="edge">
<title>orphanet&#45;&#45;civic.gid
890</title>
<path fill="none" stroke="black" d="M1507.71,-1935.2C1543.11,-1926.18 1597.56,-1910.71 1642.42,-1891 1670.86,-1878.51 1867.13,-1776.23 1883.76,-1750 1932.49,-1673.13 1858.2,-1625.92 1901.76,-1546 1904.7,-1540.6 1908.91,-1535.77 1913.56,-1531.57"/>
<text text-anchor="middle" x="1679.17" y="-1884.2" font-family="Times,serif" font-size="14.00">379</text>
</g>
<!-- orphanet&#45;&#45;ncit
12,711 -->
<g id="edge123" class="edge">
<title>orphanet&#45;&#45;ncit
12,711</title>
<path fill="none" stroke="black" d="M1512.56,-1941.72C1627.9,-1935.43 1948.64,-1917.96 2057.83,-1912.01"/>
<text text-anchor="middle" x="1775.47" y="-1933.2" font-family="Times,serif" font-size="14.00">2,388</text>
</g>
<!-- orphanet&#45;&#45;wikidata
797,967 -->
<g id="edge124" class="edge">
<title>orphanet&#45;&#45;wikidata
797,967</title>
<path fill="none" stroke="black" d="M1502.74,-1956.03C1507.25,-1958.98 1511.35,-1962.6 1514.33,-1967 1556.75,-2029.5 1495.17,-2070.24 1532.33,-2136 1594.34,-2245.73 1934.41,-2457.89 2039.95,-2389 2126.56,-2332.48 2106.19,-2275.71 2133.61,-2176 2200.13,-1934.13 2235.81,-1117.19 2242.43,-952.19"/>
<text text-anchor="middle" x="1868.38" y="-2383.2" font-family="Times,serif" font-size="14.00">4,480</text>
</g>
<!-- ccds&#45;&#45;cosmic -->
<g id="edge125" class="edge">
<title>ccds&#45;&#45;cosmic</title>
<path fill="none" stroke="black" d="M1618.44,-1333.96C1622.58,-1308.4 1633.51,-1261.56 1660.42,-1232.5 1672.46,-1219.51 1715.17,-1201.86 1744.76,-1190.7"/>
<text text-anchor="middle" x="1679.17" y="-1236.2" font-family="Times,serif" font-size="14.00">212</text>
</g>
<!-- ccds&#45;&#45;pseudogene -->
<g id="edge126" class="edge">
<title>ccds&#45;&#45;pseudogene</title>
<path fill="none" stroke="black" d="M1621.03,-1334.24C1636.78,-1277.03 1685.77,-1097.86 1697.92,-1039 1736.53,-852.01 1764.68,-622.05 1772.37,-556.32"/>
<text text-anchor="middle" x="1679.17" y="-1192.2" font-family="Times,serif" font-size="14.00">65</text>
</g>
<!-- ccds&#45;&#45;iuphar.ligand -->
<g id="edge127" class="edge">
<title>ccds&#45;&#45;iuphar.ligand</title>
<path fill="none" stroke="black" d="M1617.41,-1370.43C1624.17,-1467.58 1655.64,-1916.46 1660.42,-1930 1670.22,-1957.72 1683.59,-1958.83 1697.92,-1984.5 1728.25,-2038.83 1755.52,-2107.51 1767.71,-2139.73"/>
<text text-anchor="middle" x="1679.17" y="-1987.2" font-family="Times,serif" font-size="14.00">302</text>
</g>
<!-- ccds&#45;&#45;civic.gid
890 -->
<g id="edge128" class="edge">
<title>ccds&#45;&#45;civic.gid
890</title>
<path fill="none" stroke="black" d="M1637.74,-1362.5C1693.34,-1389.51 1841.75,-1461.61 1910.11,-1494.82"/>
<text text-anchor="middle" x="1775.47" y="-1461.2" font-family="Times,serif" font-size="14.00">250</text>
</g>
<!-- ccds&#45;&#45;ncit
12,711 -->
<g id="edge129" class="edge">
<title>ccds&#45;&#45;ncit
12,711</title>
<path fill="none" stroke="black" d="M1627.92,-1368.05C1646.1,-1392.56 1682.4,-1440.52 1715.92,-1479 1732.96,-1498.55 2024.36,-1794.28 2039.95,-1815 2056.1,-1836.45 2071.1,-1863.09 2081.31,-1882.7"/>
<text text-anchor="middle" x="1868.38" y="-1653.2" font-family="Times,serif" font-size="14.00">2,762</text>
</g>
<!-- ccds&#45;&#45;wikidata
797,967 -->
<g id="edge130" class="edge">
<title>ccds&#45;&#45;wikidata
797,967</title>
<path fill="none" stroke="black" d="M1635.25,-1339.54C1673.41,-1314.62 1761.65,-1256.79 1835.01,-1207 1977.78,-1110.1 2146.49,-991.51 2213.73,-944.07"/>
<text text-anchor="middle" x="1946.48" y="-1163.2" font-family="Times,serif" font-size="14.00">10,647</text>
</g>
<!-- cosmic&#45;&#45;civic.gid
890 -->
<g id="edge131" class="edge">
<title>cosmic&#45;&#45;civic.gid
890</title>
<path fill="none" stroke="black" d="M1785.31,-1197.38C1812.96,-1251.68 1897.86,-1418.46 1931.52,-1484.58"/>
<text text-anchor="middle" x="1868.38" y="-1389.2" font-family="Times,serif" font-size="14.00">275</text>
</g>
<!-- cosmic&#45;&#45;ncit
12,711 -->
<g id="edge132" class="edge">
<title>cosmic&#45;&#45;ncit
12,711</title>
<path fill="none" stroke="black" d="M1782.5,-1197.96C1795.4,-1236.34 1826.63,-1329.21 1853.01,-1407 1874.57,-1470.59 1868.89,-1491.44 1901.76,-1550 1948.74,-1633.72 1995.21,-1631.07 2039.95,-1716 2068.66,-1770.5 2083.81,-1841.76 2090.48,-1880.97"/>
<text text-anchor="middle" x="1946.48" y="-1652.2" font-family="Times,serif" font-size="14.00">569</text>
</g>
<!-- cosmic&#45;&#45;wikidata
797,967 -->
<g id="edge133" class="edge">
<title>cosmic&#45;&#45;wikidata
797,967</title>
<path fill="none" stroke="black" d="M1787.47,-1162.78C1807.03,-1133.5 1850.64,-1073.88 1901.76,-1040 1998.34,-975.98 2133.54,-943.43 2201.31,-930.27"/>
<text text-anchor="middle" x="2024.58" y="-988.2" font-family="Times,serif" font-size="14.00">577</text>
</g>
<!-- pseudogene&#45;&#45;wikidata
797,967 -->
<g id="edge134" class="edge">
<title>pseudogene&#45;&#45;wikidata
797,967</title>
<path fill="none" stroke="black" d="M1830.26,-539.08C1917.35,-543.87 2088.86,-566.4 2182.36,-667 2213.01,-699.97 2232.73,-833.79 2240.19,-893.73"/>
<text text-anchor="middle" x="2024.58" y="-581.2" font-family="Times,serif" font-size="14.00">8,262</text>
</g>
<!-- iuphar.ligand&#45;&#45;civic.gid
890 -->
<g id="edge135" class="edge">
<title>iuphar.ligand&#45;&#45;civic.gid
890</title>
<path fill="none" stroke="black" d="M1782.56,-2139.79C1793.63,-2106.48 1817.5,-2033.4 1835.01,-1971 1859.26,-1884.57 1868.89,-1863.53 1883.76,-1775 1898.68,-1686.11 1870.39,-1657.5 1901.76,-1573 1906.56,-1560.05 1914.88,-1547.37 1922.99,-1536.95"/>
<text text-anchor="middle" x="1868.38" y="-1910.2" font-family="Times,serif" font-size="14.00">38</text>
</g>
<!-- iuphar.ligand&#45;&#45;ncit
12,711 -->
<g id="edge136" class="edge">
<title>iuphar.ligand&#45;&#45;ncit
12,711</title>
<path fill="none" stroke="black" d="M1830.59,-2150.9C1889.51,-2140.44 1982.92,-2115.49 2039.95,-2058 2072.28,-2025.42 2085.78,-1972.11 2091.25,-1939.15"/>
<text text-anchor="middle" x="1946.48" y="-2135.2" font-family="Times,serif" font-size="14.00">345</text>
</g>
<!-- iuphar.ligand&#45;&#45;wikidata
797,967 -->
<g id="edge137" class="edge">
<title>iuphar.ligand&#45;&#45;wikidata
797,967</title>
<path fill="none" stroke="black" d="M1788.01,-2176.03C1825.74,-2232.78 1948.25,-2399.85 2039.95,-2328 2153.09,-2239.36 2229.09,-1145.87 2241.7,-952.22"/>
<text text-anchor="middle" x="2024.58" y="-2345.2" font-family="Times,serif" font-size="14.00">469</text>
</g>
<!-- lncipedia&#45;&#45;ncit
12,711 -->
<g id="edge138" class="edge">
<title>lncipedia&#45;&#45;ncit
12,711</title>
<path fill="none" stroke="black" d="M1514.45,-2561.63C1565.74,-2559.89 1649.77,-2548.88 1697.92,-2499 1722.18,-2473.87 1690.62,-2446.58 1715.92,-2422.5 1821.99,-2321.56 1939.63,-2469.65 2039.95,-2363 2069.06,-2332.06 2087.89,-2034.93 2093.22,-1939.41"/>
<text text-anchor="middle" x="1775.47" y="-2425.2" font-family="Times,serif" font-size="14.00">29</text>
</g>
<!-- lncipedia&#45;&#45;wikidata
797,967 -->
<g id="edge139" class="edge">
<title>lncipedia&#45;&#45;wikidata
797,967</title>
<path fill="none" stroke="black" d="M1511.65,-2567.58C1540.28,-2571.61 1579.44,-2576 1614.13,-2576 1614.13,-2576 1614.13,-2576 2096.78,-2576 2153.94,-2576 2160.97,-2533 2182.36,-2480 2241.61,-2333.25 2243.68,-1153.89 2243.59,-952.27"/>
<text text-anchor="middle" x="1868.38" y="-2579.2" font-family="Times,serif" font-size="14.00">2,455</text>
</g>
<!-- civic.gid
890&#45;&#45;ncit
12,711 -->
<g id="edge141" class="edge">
<title>civic.gid
890&#45;&#45;ncit
12,711</title>
<path fill="none" stroke="black" d="M1986.89,-1525.08C2005.88,-1533.41 2027.23,-1546.14 2039.95,-1564.5 2075.45,-1615.73 2089.27,-1806.91 2093.36,-1880.69"/>
<text text-anchor="middle" x="2024.58" y="-1567.2" font-family="Times,serif" font-size="14.00">577</text>
</g>
<!-- civic.gid
890&#45;&#45;wikidata
797,967 -->
<g id="edge142" class="edge">
<title>civic.gid
890&#45;&#45;wikidata
797,967</title>
<path fill="none" stroke="black" d="M1962.83,-1484.73C2001.51,-1415.61 2105.4,-1227.57 2182.36,-1066 2201.06,-1026.75 2220.45,-980.31 2232.26,-951.25"/>
<text text-anchor="middle" x="2095.78" y="-1314.2" font-family="Times,serif" font-size="14.00">630</text>
</g>
<!-- ncit
12,711&#45;&#45;wikidata
797,967 -->
<g id="edge143" class="edge">
<title>ncit
12,711&#45;&#45;wikidata
797,967</title>
<path fill="none" stroke="black" d="M2101.1,-1881C2122.57,-1736.59 2217.77,-1096.41 2239.25,-952.01"/>
<text text-anchor="middle" x="2166.99" y="-1536.2" font-family="Times,serif" font-size="14.00">6,006</text>
</g>
<!-- mgi
737,779&#45;&#45;wikidata
797,967 -->
<g id="edge140" class="edge">
<title>mgi
737,779&#45;&#45;wikidata
797,967</title>
<path fill="none" stroke="black" d="M935.51,-512.23C972.8,-475.88 1046.63,-404.54 1111.2,-346 1135.36,-324.1 1137.88,-313.26 1166.7,-298 1374.07,-188.17 1443.52,-167 1678.17,-167 1678.17,-167 1678.17,-167 2096.78,-167 2167.45,-167 2159.25,-234.22 2182.36,-301 2221.09,-412.9 2238.26,-786.08 2242.49,-893.71"/>
<text text-anchor="middle" x="1551.08" y="-175.2" font-family="Times,serif" font-size="14.00">71,594</text>
</g>
</g>
</svg>
