<?xml version="1.0" encoding="UTF-8" standalone="no"?>
<!DOCTYPE svg PUBLIC "-//W3C//DTD SVG 1.1//EN"
 "http://www.w3.org/Graphics/SVG/1.1/DTD/svg11.dtd">
<!-- Generated by graphviz version 12.0.0 (20240704.0754)
 -->
<!-- Pages: 1 -->
<svg width="1037pt" height="466pt"
 viewBox="0.00 0.00 1037.20 465.95" xmlns="http://www.w3.org/2000/svg" xmlns:xlink="http://www.w3.org/1999/xlink">
<g id="graph0" class="graph" transform="scale(1 1) rotate(0) translate(4 461.95)">
<polygon fill="white" stroke="none" points="-4,4 -4,-461.95 1033.2,-461.95 1033.2,4 -4,4"/>
<!-- ncit
12,711 -->
<g id="node1" class="node">
<title>ncit
12,711</title>
<ellipse fill="none" stroke="black" cx="37.83" cy="-322.45" rx="37.83" ry="28.99"/>
<text text-anchor="middle" x="37.83" y="-325.65" font-family="Times,serif" font-size="14.00">ncit</text>
<text text-anchor="middle" x="37.83" y="-309.15" font-family="Times,serif" font-size="14.00">12,711</text>
</g>
<!-- hgnc
44,071 -->
<g id="node2" class="node">
<title>hgnc
44,071</title>
<ellipse fill="none" stroke="black" cx="180.24" cy="-158.45" rx="37.83" ry="28.99"/>
<text text-anchor="middle" x="180.24" y="-161.65" font-family="Times,serif" font-size="14.00">hgnc</text>
<text text-anchor="middle" x="180.24" y="-145.15" font-family="Times,serif" font-size="14.00">44,071</text>
</g>
<!-- ncit
12,711&#45;&#45;hgnc
44,071 -->
<g id="edge1" class="edge">
<title>ncit
12,711&#45;&#45;hgnc
44,071</title>
<path fill="none" stroke="black" d="M56.33,-297.01C66.73,-282.32 80.44,-263.69 93.66,-247.95 113.71,-224.09 138.5,-198.54 156.23,-180.88"/>
<text text-anchor="middle" x="109.04" y="-250.65" font-family="Times,serif" font-size="14.00">5,978</text>
</g>
<!-- omim
27,194 -->
<g id="node3" class="node">
<title>omim
27,194</title>
<ellipse fill="none" stroke="black" cx="329.4" cy="-259.45" rx="37.83" ry="28.99"/>
<text text-anchor="middle" x="329.4" y="-262.65" font-family="Times,serif" font-size="14.00">omim</text>
<text text-anchor="middle" x="329.4" y="-246.15" font-family="Times,serif" font-size="14.00">27,194</text>
</g>
<!-- ncit
12,711&#45;&#45;omim
27,194 -->
<g id="edge2" class="edge">
<title>ncit
12,711&#45;&#45;omim
27,194</title>
<path fill="none" stroke="black" d="M74.63,-314.67C130.31,-302.55 237.05,-279.33 292.69,-267.22"/>
<text text-anchor="middle" x="180.24" y="-301.65" font-family="Times,serif" font-size="14.00">5,856</text>
</g>
<!-- ncbigene
30,660,366 -->
<g id="node4" class="node">
<title>ncbigene
30,660,366</title>
<ellipse fill="none" stroke="black" cx="495.53" cy="-286.45" rx="54.8" ry="28.99"/>
<text text-anchor="middle" x="495.53" y="-289.65" font-family="Times,serif" font-size="14.00">ncbigene</text>
<text text-anchor="middle" x="495.53" y="-273.15" font-family="Times,serif" font-size="14.00">30,660,366</text>
</g>
<!-- ncit
12,711&#45;&#45;ncbigene
30,660,366 -->
<g id="edge3" class="edge">
<title>ncit
12,711&#45;&#45;ncbigene
30,660,366</title>
<path fill="none" stroke="black" d="M75.95,-322.91C112.23,-323.11 169.01,-322.73 218.07,-319.45 309.45,-313.35 331.81,-306.48 422.73,-295.45 428.97,-294.7 435.51,-293.89 441.99,-293.09"/>
<text text-anchor="middle" x="254.82" y="-320.65" font-family="Times,serif" font-size="14.00">5,977</text>
</g>
<!-- ensembl -->
<g id="node5" class="node">
<title>ensembl</title>
<ellipse fill="none" stroke="black" cx="672.72" cy="-158.45" rx="42.14" ry="18"/>
<text text-anchor="middle" x="672.72" y="-153.4" font-family="Times,serif" font-size="14.00">ensembl</text>
</g>
<!-- ncit
12,711&#45;&#45;ensembl -->
<g id="edge4" class="edge">
<title>ncit
12,711&#45;&#45;ensembl</title>
<path fill="none" stroke="black" d="M38.48,-293.21C39.19,-214.21 52.9,-2.45 179.24,-2.45 179.24,-2.45 179.24,-2.45 496.53,-2.45 549.11,-2.45 571.5,7.36 612.58,-25.45 649.11,-54.63 663.73,-111.1 669.03,-140.17"/>
<text text-anchor="middle" x="329.4" y="-5.65" font-family="Times,serif" font-size="14.00">6,882</text>
</g>
<!-- wikidata
797,967 -->
<g id="node6" class="node">
<title>wikidata
797,967</title>
<ellipse fill="none" stroke="black" cx="839.3" cy="-230.45" rx="44.19" ry="28.99"/>
<text text-anchor="middle" x="839.3" y="-233.65" font-family="Times,serif" font-size="14.00">wikidata</text>
<text text-anchor="middle" x="839.3" y="-217.15" font-family="Times,serif" font-size="14.00">797,967</text>
</g>
<!-- ncit
12,711&#45;&#45;wikidata
797,967 -->
<g id="edge5" class="edge">
<title>ncit
12,711&#45;&#45;wikidata
797,967</title>
<path fill="none" stroke="black" d="M63.23,-344.36C89.78,-365.86 134.46,-395.45 179.24,-395.45 179.24,-395.45 179.24,-395.45 673.72,-395.45 750.19,-395.45 803.46,-305.52 826.1,-258.44"/>
<text text-anchor="middle" x="403.98" y="-398.65" font-family="Times,serif" font-size="14.00">5,977</text>
</g>
<!-- civic.gid
890 -->
<g id="node7" class="node">
<title>civic.gid
890</title>
<ellipse fill="none" stroke="black" cx="984.47" cy="-289.45" rx="44.72" ry="28.99"/>
<text text-anchor="middle" x="984.47" y="-292.65" font-family="Times,serif" font-size="14.00">civic.gid</text>
<text text-anchor="middle" x="984.47" y="-276.15" font-family="Times,serif" font-size="14.00">890</text>
</g>
<!-- ncit
12,711&#45;&#45;civic.gid
890 -->
<g id="edge6" class="edge">
<title>ncit
12,711&#45;&#45;civic.gid
890</title>
<path fill="none" stroke="black" d="M54.15,-348.86C76.7,-383.92 122.36,-441.45 179.24,-441.45 179.24,-441.45 179.24,-441.45 840.3,-441.45 907.55,-441.45 952.51,-361.65 972.18,-317.69"/>
<text text-anchor="middle" x="495.53" y="-444.65" font-family="Times,serif" font-size="14.00">458</text>
</g>
<!-- hgnc
44,071&#45;&#45;omim
27,194 -->
<g id="edge7" class="edge">
<title>hgnc
44,071&#45;&#45;omim
27,194</title>
<path fill="none" stroke="black" d="M209.27,-177.69C235.45,-195.66 274.33,-222.34 300.48,-240.29"/>
<text text-anchor="middle" x="254.82" y="-223.65" font-family="Times,serif" font-size="14.00">17,766</text>
</g>
<!-- hgnc
44,071&#45;&#45;ncbigene
30,660,366 -->
<g id="edge8" class="edge">
<title>hgnc
44,071&#45;&#45;ncbigene
30,660,366</title>
<path fill="none" stroke="black" d="M217.67,-163.96C256.01,-170.57 317.57,-183.53 367.23,-204.95 402.29,-220.08 438.62,-244.34 463.45,-262.46"/>
<text text-anchor="middle" x="329.4" y="-208.65" font-family="Times,serif" font-size="14.00">43,066</text>
</g>
<!-- hgnc
44,071&#45;&#45;ensembl -->
<g id="edge9" class="edge">
<title>hgnc
44,071&#45;&#45;ensembl</title>
<path fill="none" stroke="black" d="M218.34,-158.33C287.27,-158.1 439.81,-157.62 568.33,-157.45 588,-157.43 592.92,-157.29 612.58,-157.45 618.33,-157.5 624.4,-157.58 630.36,-157.67"/>
<text text-anchor="middle" x="403.98" y="-161.65" font-family="Times,serif" font-size="14.00">41,066</text>
</g>
<!-- hgnc
44,071&#45;&#45;wikidata
797,967 -->
<g id="edge10" class="edge">
<title>hgnc
44,071&#45;&#45;wikidata
797,967</title>
<path fill="none" stroke="black" d="M208.15,-138.42C236.53,-119.32 283.29,-93.45 328.4,-93.45 328.4,-93.45 328.4,-93.45 673.72,-93.45 729.46,-93.45 739.49,-123.32 777.11,-164.45 788.12,-176.5 784.5,-184.06 795.11,-196.45 799.08,-201.09 803.77,-205.54 808.56,-209.6"/>
<text text-anchor="middle" x="495.53" y="-96.65" font-family="Times,serif" font-size="14.00">43,557</text>
</g>
<!-- hgnc
44,071&#45;&#45;civic.gid
890 -->
<g id="edge11" class="edge">
<title>hgnc
44,071&#45;&#45;civic.gid
890</title>
<path fill="none" stroke="black" d="M198.87,-132.71C223.64,-99.92 272.08,-47.45 328.4,-47.45 328.4,-47.45 328.4,-47.45 840.3,-47.45 938.18,-47.45 970.56,-195.9 980,-260.26"/>
<text text-anchor="middle" x="590.46" y="-50.65" font-family="Times,serif" font-size="14.00">491</text>
</g>
<!-- omim
27,194&#45;&#45;ncbigene
30,660,366 -->
<g id="edge12" class="edge">
<title>omim
27,194&#45;&#45;ncbigene
30,660,366</title>
<path fill="none" stroke="black" d="M366.83,-265.45C389.12,-269.11 417.99,-273.86 442.64,-277.92"/>
<text text-anchor="middle" x="403.98" y="-277.65" font-family="Times,serif" font-size="14.00">18,496</text>
</g>
<!-- omim
27,194&#45;&#45;ensembl -->
<g id="edge13" class="edge">
<title>omim
27,194&#45;&#45;ensembl</title>
<path fill="none" stroke="black" d="M355.53,-238.14C364.51,-231.23 374.95,-223.94 385.23,-218.45 465.04,-175.89 572.37,-163.51 630.37,-159.92"/>
<text text-anchor="middle" x="495.53" y="-197.65" font-family="Times,serif" font-size="14.00">19,367</text>
</g>
<!-- omim
27,194&#45;&#45;wikidata
797,967 -->
<g id="edge14" class="edge">
<title>omim
27,194&#45;&#45;wikidata
797,967</title>
<path fill="none" stroke="black" d="M366.71,-252.74C410.4,-244.53 485.94,-229.94 550.33,-215.45 558.38,-213.65 560.15,-211.96 568.33,-210.95 648.79,-201.05 743.4,-213.35 796.55,-222.42"/>
<text text-anchor="middle" x="590.46" y="-214.65" font-family="Times,serif" font-size="14.00">28,381</text>
</g>
<!-- omim
27,194&#45;&#45;civic.gid
890 -->
<g id="edge15" class="edge">
<title>omim
27,194&#45;&#45;civic.gid
890</title>
<path fill="none" stroke="black" d="M356.11,-280.53C377.33,-296.39 408.99,-316.66 440.73,-324.45 623.67,-369.37 851.09,-323.02 942.56,-300.38"/>
<text text-anchor="middle" x="672.72" y="-345.65" font-family="Times,serif" font-size="14.00">492</text>
</g>
<!-- ncbigene
30,660,366&#45;&#45;ensembl -->
<g id="edge16" class="edge">
<title>ncbigene
30,660,366&#45;&#45;ensembl</title>
<path fill="none" stroke="black" d="M538.23,-267.79C568.83,-253.9 606.14,-236.52 612.58,-231.45 632.59,-215.73 650.17,-192.06 660.86,-175.97"/>
<text text-anchor="middle" x="590.46" y="-255.65" font-family="Times,serif" font-size="14.00">156,645</text>
</g>
<!-- ncbigene
30,660,366&#45;&#45;wikidata
797,967 -->
<g id="edge17" class="edge">
<title>ncbigene
30,660,366&#45;&#45;wikidata
797,967</title>
<path fill="none" stroke="black" d="M549.47,-280.19C569.3,-277.69 592.01,-274.65 612.58,-271.45 677.13,-261.43 751.61,-247.42 796.81,-238.65"/>
<text text-anchor="middle" x="672.72" y="-270.65" font-family="Times,serif" font-size="14.00">788,877</text>
</g>
<!-- ncbigene
30,660,366&#45;&#45;civic.gid
890 -->
<g id="edge18" class="edge">
<title>ncbigene
30,660,366&#45;&#45;civic.gid
890</title>
<path fill="none" stroke="black" d="M550.63,-288.11C556.6,-288.25 562.6,-288.37 568.33,-288.45 703.63,-290.5 863.77,-290.08 939.54,-289.72"/>
<text text-anchor="middle" x="754.99" y="-292.65" font-family="Times,serif" font-size="14.00">491</text>
</g>
<!-- ensembl&#45;&#45;wikidata
797,967 -->
<g id="edge19" class="edge">
<title>ensembl&#45;&#45;wikidata
797,967</title>
<path fill="none" stroke="black" d="M713.35,-163.76C733.18,-167.42 757.14,-173.4 777.11,-182.95 789.85,-189.05 802.43,-198.14 812.84,-206.73"/>
<text text-anchor="middle" x="754.99" y="-186.65" font-family="Times,serif" font-size="14.00">156,644</text>
</g>
<!-- ensembl&#45;&#45;civic.gid
890 -->
<g id="edge20" class="edge">
<title>ensembl&#45;&#45;civic.gid
890</title>
<path fill="none" stroke="black" d="M713.3,-153.07C757.42,-148.97 829.64,-148.04 883.5,-175.95 921.03,-195.41 950.9,-235.28 967.9,-262.2"/>
<text text-anchor="middle" x="839.3" y="-179.65" font-family="Times,serif" font-size="14.00">543</text>
</g>
<!-- wikidata
797,967&#45;&#45;civic.gid
890 -->
<g id="edge21" class="edge">
<title>wikidata
797,967&#45;&#45;civic.gid
890</title>
<path fill="none" stroke="black" d="M877.17,-245.65C898.3,-254.35 924.75,-265.26 945.98,-274"/>
<text text-anchor="middle" x="911.62" y="-266.65" font-family="Times,serif" font-size="14.00">491</text>
</g>
</g>
</svg>
