<?xml version="1.0" encoding="utf-8" standalone="no"?>
<!DOCTYPE svg PUBLIC "-//W3C//DTD SVG 1.1//EN"
  "http://www.w3.org/Graphics/SVG/1.1/DTD/svg11.dtd">
<svg xmlns:xlink="http://www.w3.org/1999/xlink" width="671.76pt" height="383.76pt" viewBox="0 0 671.76 383.76" xmlns="http://www.w3.org/2000/svg" version="1.1">
 <metadata>
  <rdf:RDF xmlns:dc="http://purl.org/dc/elements/1.1/" xmlns:cc="http://creativecommons.org/ns#" xmlns:rdf="http://www.w3.org/1999/02/22-rdf-syntax-ns#">
   <cc:Work>
    <dc:type rdf:resource="http://purl.org/dc/dcmitype/StillImage"/>
    <dc:date>2025-03-15T18:22:32.319520</dc:date>
    <dc:format>image/svg+xml</dc:format>
    <dc:creator>
     <cc:Agent>
      <dc:title>Matplotlib v3.8.4, https://matplotlib.org/</dc:title>
     </cc:Agent>
    </dc:creator>
   </cc:Work>
  </rdf:RDF>
 </metadata>
 <defs>
  <style type="text/css">*{stroke-linejoin: round; stroke-linecap: butt}</style>
 </defs>
 <g id="figure_1">
  <g id="patch_1">
   <path d="M 0 383.76 
L 671.76 383.76 
L 671.76 0 
L 0 0 
z
" style="fill: #ffffff"/>
  </g>
  <g id="axes_1">
   <g id="patch_2">
    <path d="M 83.97 335.122591 
L 604.584 335.122591 
L 604.584 317.40174 
L 83.97 317.40174 
z
" clip-path="url(#p05e520e3aa)" style="fill-opacity: 0.05098"/>
   </g>
   <g id="patch_3">
    <path d="M 83.97 312.971527 
L 604.584 312.971527 
L 604.584 295.250675 
L 83.97 295.250675 
L 83.97 312.971527 
z
" clip-path="url(#p05e520e3aa)" style="fill: none"/>
   </g>
   <g id="patch_4">
    <path d="M 83.97 290.820462 
L 604.584 290.820462 
L 604.584 273.099611 
L 83.97 273.099611 
z
" clip-path="url(#p05e520e3aa)" style="fill-opacity: 0.05098"/>
   </g>
   <g id="patch_5">
    <path d="M 83.97 268.669398 
L 604.584 268.669398 
L 604.584 250.948546 
L 83.97 250.948546 
L 83.97 268.669398 
z
" clip-path="url(#p05e520e3aa)" style="fill: none"/>
   </g>
   <g id="patch_6">
    <path d="M 83.97 246.518333 
L 604.584 246.518333 
L 604.584 228.797482 
L 83.97 228.797482 
z
" clip-path="url(#p05e520e3aa)" style="fill-opacity: 0.05098"/>
   </g>
   <g id="patch_7">
    <path d="M 83.97 224.367269 
L 604.584 224.367269 
L 604.584 206.646417 
L 83.97 206.646417 
L 83.97 224.367269 
z
" clip-path="url(#p05e520e3aa)" style="fill: none"/>
   </g>
   <g id="matplotlib.axis_1"/>
   <g id="matplotlib.axis_2">
    <g id="ytick_1"/>
    <g id="ytick_2"/>
    <g id="ytick_3"/>
    <g id="ytick_4"/>
    <g id="ytick_5"/>
    <g id="ytick_6"/>
   </g>
  </g>
  <g id="axes_2">
   <g id="matplotlib.axis_3">
    <g id="ytick_7">
     <g id="line2d_1"/>
     <g id="text_1">
      <!-- ncbigene -->
      <g transform="translate(159.462673 330.061384) scale(0.1 -0.1)">
       <defs>
        <path id="DejaVuSans-6e" d="M 3513 2113 
L 3513 0 
L 2938 0 
L 2938 2094 
Q 2938 2591 2744 2837 
Q 2550 3084 2163 3084 
Q 1697 3084 1428 2787 
Q 1159 2491 1159 1978 
L 1159 0 
L 581 0 
L 581 3500 
L 1159 3500 
L 1159 2956 
Q 1366 3272 1645 3428 
Q 1925 3584 2291 3584 
Q 2894 3584 3203 3211 
Q 3513 2838 3513 2113 
z
" transform="scale(0.015625)"/>
        <path id="DejaVuSans-63" d="M 3122 3366 
L 3122 2828 
Q 2878 2963 2633 3030 
Q 2388 3097 2138 3097 
Q 1578 3097 1268 2742 
Q 959 2388 959 1747 
Q 959 1106 1268 751 
Q 1578 397 2138 397 
Q 2388 397 2633 464 
Q 2878 531 3122 666 
L 3122 134 
Q 2881 22 2623 -34 
Q 2366 -91 2075 -91 
Q 1284 -91 818 406 
Q 353 903 353 1747 
Q 353 2603 823 3093 
Q 1294 3584 2113 3584 
Q 2378 3584 2631 3529 
Q 2884 3475 3122 3366 
z
" transform="scale(0.015625)"/>
        <path id="DejaVuSans-62" d="M 3116 1747 
Q 3116 2381 2855 2742 
Q 2594 3103 2138 3103 
Q 1681 3103 1420 2742 
Q 1159 2381 1159 1747 
Q 1159 1113 1420 752 
Q 1681 391 2138 391 
Q 2594 391 2855 752 
Q 3116 1113 3116 1747 
z
M 1159 2969 
Q 1341 3281 1617 3432 
Q 1894 3584 2278 3584 
Q 2916 3584 3314 3078 
Q 3713 2572 3713 1747 
Q 3713 922 3314 415 
Q 2916 -91 2278 -91 
Q 1894 -91 1617 61 
Q 1341 213 1159 525 
L 1159 0 
L 581 0 
L 581 4863 
L 1159 4863 
L 1159 2969 
z
" transform="scale(0.015625)"/>
        <path id="DejaVuSans-69" d="M 603 3500 
L 1178 3500 
L 1178 0 
L 603 0 
L 603 3500 
z
M 603 4863 
L 1178 4863 
L 1178 4134 
L 603 4134 
L 603 4863 
z
" transform="scale(0.015625)"/>
        <path id="DejaVuSans-67" d="M 2906 1791 
Q 2906 2416 2648 2759 
Q 2391 3103 1925 3103 
Q 1463 3103 1205 2759 
Q 947 2416 947 1791 
Q 947 1169 1205 825 
Q 1463 481 1925 481 
Q 2391 481 2648 825 
Q 2906 1169 2906 1791 
z
M 3481 434 
Q 3481 -459 3084 -895 
Q 2688 -1331 1869 -1331 
Q 1566 -1331 1297 -1286 
Q 1028 -1241 775 -1147 
L 775 -588 
Q 1028 -725 1275 -790 
Q 1522 -856 1778 -856 
Q 2344 -856 2625 -561 
Q 2906 -266 2906 331 
L 2906 616 
Q 2728 306 2450 153 
Q 2172 0 1784 0 
Q 1141 0 747 490 
Q 353 981 353 1791 
Q 353 2603 747 3093 
Q 1141 3584 1784 3584 
Q 2172 3584 2450 3431 
Q 2728 3278 2906 2969 
L 2906 3500 
L 3481 3500 
L 3481 434 
z
" transform="scale(0.015625)"/>
        <path id="DejaVuSans-65" d="M 3597 1894 
L 3597 1613 
L 953 1613 
Q 991 1019 1311 708 
Q 1631 397 2203 397 
Q 2534 397 2845 478 
Q 3156 559 3463 722 
L 3463 178 
Q 3153 47 2828 -22 
Q 2503 -91 2169 -91 
Q 1331 -91 842 396 
Q 353 884 353 1716 
Q 353 2575 817 3079 
Q 1281 3584 2069 3584 
Q 2775 3584 3186 3129 
Q 3597 2675 3597 1894 
z
M 3022 2063 
Q 3016 2534 2758 2815 
Q 2500 3097 2075 3097 
Q 1594 3097 1305 2825 
Q 1016 2553 972 2059 
L 3022 2063 
z
" transform="scale(0.015625)"/>
       </defs>
       <use xlink:href="#DejaVuSans-6e"/>
       <use xlink:href="#DejaVuSans-63" x="63.378906"/>
       <use xlink:href="#DejaVuSans-62" x="118.359375"/>
       <use xlink:href="#DejaVuSans-69" x="181.835938"/>
       <use xlink:href="#DejaVuSans-67" x="209.619141"/>
       <use xlink:href="#DejaVuSans-65" x="273.095703"/>
       <use xlink:href="#DejaVuSans-6e" x="334.619141"/>
       <use xlink:href="#DejaVuSans-65" x="397.998047"/>
      </g>
     </g>
    </g>
    <g id="ytick_8">
     <g id="line2d_2"/>
     <g id="text_2">
      <!-- wikidata -->
      <g transform="translate(163.36736 307.91032) scale(0.1 -0.1)">
       <defs>
        <path id="DejaVuSans-77" d="M 269 3500 
L 844 3500 
L 1563 769 
L 2278 3500 
L 2956 3500 
L 3675 769 
L 4391 3500 
L 4966 3500 
L 4050 0 
L 3372 0 
L 2619 2869 
L 1863 0 
L 1184 0 
L 269 3500 
z
" transform="scale(0.015625)"/>
        <path id="DejaVuSans-6b" d="M 581 4863 
L 1159 4863 
L 1159 1991 
L 2875 3500 
L 3609 3500 
L 1753 1863 
L 3688 0 
L 2938 0 
L 1159 1709 
L 1159 0 
L 581 0 
L 581 4863 
z
" transform="scale(0.015625)"/>
        <path id="DejaVuSans-64" d="M 2906 2969 
L 2906 4863 
L 3481 4863 
L 3481 0 
L 2906 0 
L 2906 525 
Q 2725 213 2448 61 
Q 2172 -91 1784 -91 
Q 1150 -91 751 415 
Q 353 922 353 1747 
Q 353 2572 751 3078 
Q 1150 3584 1784 3584 
Q 2172 3584 2448 3432 
Q 2725 3281 2906 2969 
z
M 947 1747 
Q 947 1113 1208 752 
Q 1469 391 1925 391 
Q 2381 391 2643 752 
Q 2906 1113 2906 1747 
Q 2906 2381 2643 2742 
Q 2381 3103 1925 3103 
Q 1469 3103 1208 2742 
Q 947 2381 947 1747 
z
" transform="scale(0.015625)"/>
        <path id="DejaVuSans-61" d="M 2194 1759 
Q 1497 1759 1228 1600 
Q 959 1441 959 1056 
Q 959 750 1161 570 
Q 1363 391 1709 391 
Q 2188 391 2477 730 
Q 2766 1069 2766 1631 
L 2766 1759 
L 2194 1759 
z
M 3341 1997 
L 3341 0 
L 2766 0 
L 2766 531 
Q 2569 213 2275 61 
Q 1981 -91 1556 -91 
Q 1019 -91 701 211 
Q 384 513 384 1019 
Q 384 1609 779 1909 
Q 1175 2209 1959 2209 
L 2766 2209 
L 2766 2266 
Q 2766 2663 2505 2880 
Q 2244 3097 1772 3097 
Q 1472 3097 1187 3025 
Q 903 2953 641 2809 
L 641 3341 
Q 956 3463 1253 3523 
Q 1550 3584 1831 3584 
Q 2591 3584 2966 3190 
Q 3341 2797 3341 1997 
z
" transform="scale(0.015625)"/>
        <path id="DejaVuSans-74" d="M 1172 4494 
L 1172 3500 
L 2356 3500 
L 2356 3053 
L 1172 3053 
L 1172 1153 
Q 1172 725 1289 603 
Q 1406 481 1766 481 
L 2356 481 
L 2356 0 
L 1766 0 
Q 1100 0 847 248 
Q 594 497 594 1153 
L 594 3053 
L 172 3053 
L 172 3500 
L 594 3500 
L 594 4494 
L 1172 4494 
z
" transform="scale(0.015625)"/>
       </defs>
       <use xlink:href="#DejaVuSans-77"/>
       <use xlink:href="#DejaVuSans-69" x="81.787109"/>
       <use xlink:href="#DejaVuSans-6b" x="109.570312"/>
       <use xlink:href="#DejaVuSans-69" x="167.480469"/>
       <use xlink:href="#DejaVuSans-64" x="195.263672"/>
       <use xlink:href="#DejaVuSans-61" x="258.740234"/>
       <use xlink:href="#DejaVuSans-74" x="320.019531"/>
       <use xlink:href="#DejaVuSans-61" x="359.228516"/>
      </g>
     </g>
    </g>
    <g id="ytick_9">
     <g id="line2d_3"/>
     <g id="text_3">
      <!-- hgnc -->
      <g transform="translate(180.895485 285.759255) scale(0.1 -0.1)">
       <defs>
        <path id="DejaVuSans-68" d="M 3513 2113 
L 3513 0 
L 2938 0 
L 2938 2094 
Q 2938 2591 2744 2837 
Q 2550 3084 2163 3084 
Q 1697 3084 1428 2787 
Q 1159 2491 1159 1978 
L 1159 0 
L 581 0 
L 581 4863 
L 1159 4863 
L 1159 2956 
Q 1366 3272 1645 3428 
Q 1925 3584 2291 3584 
Q 2894 3584 3203 3211 
Q 3513 2838 3513 2113 
z
" transform="scale(0.015625)"/>
       </defs>
       <use xlink:href="#DejaVuSans-68"/>
       <use xlink:href="#DejaVuSans-67" x="63.378906"/>
       <use xlink:href="#DejaVuSans-6e" x="126.855469"/>
       <use xlink:href="#DejaVuSans-63" x="190.234375"/>
      </g>
     </g>
    </g>
    <g id="ytick_10">
     <g id="line2d_4"/>
     <g id="text_4">
      <!-- omim -->
      <g transform="translate(177.039235 263.608191) scale(0.1 -0.1)">
       <defs>
        <path id="DejaVuSans-6f" d="M 1959 3097 
Q 1497 3097 1228 2736 
Q 959 2375 959 1747 
Q 959 1119 1226 758 
Q 1494 397 1959 397 
Q 2419 397 2687 759 
Q 2956 1122 2956 1747 
Q 2956 2369 2687 2733 
Q 2419 3097 1959 3097 
z
M 1959 3584 
Q 2709 3584 3137 3096 
Q 3566 2609 3566 1747 
Q 3566 888 3137 398 
Q 2709 -91 1959 -91 
Q 1206 -91 779 398 
Q 353 888 353 1747 
Q 353 2609 779 3096 
Q 1206 3584 1959 3584 
z
" transform="scale(0.015625)"/>
        <path id="DejaVuSans-6d" d="M 3328 2828 
Q 3544 3216 3844 3400 
Q 4144 3584 4550 3584 
Q 5097 3584 5394 3201 
Q 5691 2819 5691 2113 
L 5691 0 
L 5113 0 
L 5113 2094 
Q 5113 2597 4934 2840 
Q 4756 3084 4391 3084 
Q 3944 3084 3684 2787 
Q 3425 2491 3425 1978 
L 3425 0 
L 2847 0 
L 2847 2094 
Q 2847 2600 2669 2842 
Q 2491 3084 2119 3084 
Q 1678 3084 1418 2786 
Q 1159 2488 1159 1978 
L 1159 0 
L 581 0 
L 581 3500 
L 1159 3500 
L 1159 2956 
Q 1356 3278 1631 3431 
Q 1906 3584 2284 3584 
Q 2666 3584 2933 3390 
Q 3200 3197 3328 2828 
z
" transform="scale(0.015625)"/>
       </defs>
       <use xlink:href="#DejaVuSans-6f"/>
       <use xlink:href="#DejaVuSans-6d" x="61.181641"/>
       <use xlink:href="#DejaVuSans-69" x="158.59375"/>
       <use xlink:href="#DejaVuSans-6d" x="186.376953"/>
      </g>
     </g>
    </g>
    <g id="ytick_11">
     <g id="line2d_5"/>
     <g id="text_5">
      <!-- ncit -->
      <g transform="translate(186.882985 241.457126) scale(0.1 -0.1)">
       <use xlink:href="#DejaVuSans-6e"/>
       <use xlink:href="#DejaVuSans-63" x="63.378906"/>
       <use xlink:href="#DejaVuSans-69" x="118.359375"/>
       <use xlink:href="#DejaVuSans-74" x="146.142578"/>
      </g>
     </g>
    </g>
    <g id="ytick_12">
     <g id="line2d_6"/>
     <g id="text_6">
      <!-- civic.gid -->
      <g transform="translate(164.29236 219.306062) scale(0.1 -0.1)">
       <defs>
        <path id="DejaVuSans-76" d="M 191 3500 
L 800 3500 
L 1894 563 
L 2988 3500 
L 3597 3500 
L 2284 0 
L 1503 0 
L 191 3500 
z
" transform="scale(0.015625)"/>
        <path id="DejaVuSans-2e" d="M 684 794 
L 1344 794 
L 1344 0 
L 684 0 
L 684 794 
z
" transform="scale(0.015625)"/>
       </defs>
       <use xlink:href="#DejaVuSans-63"/>
       <use xlink:href="#DejaVuSans-69" x="54.980469"/>
       <use xlink:href="#DejaVuSans-76" x="82.763672"/>
       <use xlink:href="#DejaVuSans-69" x="141.943359"/>
       <use xlink:href="#DejaVuSans-63" x="169.726562"/>
       <use xlink:href="#DejaVuSans-2e" x="224.707031"/>
       <use xlink:href="#DejaVuSans-67" x="256.494141"/>
       <use xlink:href="#DejaVuSans-69" x="319.970703"/>
       <use xlink:href="#DejaVuSans-64" x="347.753906"/>
      </g>
     </g>
    </g>
   </g>
   <g id="LineCollection_1">
    <path d="M 221.281943 326.262166 
L 221.281943 326.262166 
" clip-path="url(#pa1d92526db)" style="fill: none; stroke: #000000; stroke-width: 2"/>
    <path d="M 246.011108 281.960037 
L 246.011108 281.960037 
" clip-path="url(#pa1d92526db)" style="fill: none; stroke: #000000; stroke-width: 2"/>
    <path d="M 270.740273 237.657908 
L 270.740273 237.657908 
" clip-path="url(#pa1d92526db)" style="fill: none; stroke: #000000; stroke-width: 2"/>
    <path d="M 295.469438 215.506843 
L 295.469438 215.506843 
" clip-path="url(#pa1d92526db)" style="fill: none; stroke: #000000; stroke-width: 2"/>
    <path d="M 320.198603 326.262166 
L 320.198603 304.111101 
" clip-path="url(#pa1d92526db)" style="fill: none; stroke: #000000; stroke-width: 2"/>
    <path d="M 344.927768 326.262166 
L 344.927768 259.808972 
" clip-path="url(#pa1d92526db)" style="fill: none; stroke: #000000; stroke-width: 2"/>
    <path d="M 369.656933 304.111101 
L 369.656933 259.808972 
" clip-path="url(#pa1d92526db)" style="fill: none; stroke: #000000; stroke-width: 2"/>
    <path d="M 394.386098 281.960037 
L 394.386098 237.657908 
" clip-path="url(#pa1d92526db)" style="fill: none; stroke: #000000; stroke-width: 2"/>
    <path d="M 419.115263 326.262166 
L 419.115263 281.960037 
" clip-path="url(#pa1d92526db)" style="fill: none; stroke: #000000; stroke-width: 2"/>
    <path d="M 443.844428 326.262166 
L 443.844428 259.808972 
" clip-path="url(#pa1d92526db)" style="fill: none; stroke: #000000; stroke-width: 2"/>
    <path d="M 468.573593 326.262166 
L 468.573593 259.808972 
" clip-path="url(#pa1d92526db)" style="fill: none; stroke: #000000; stroke-width: 2"/>
    <path d="M 493.302758 326.262166 
L 493.302758 237.657908 
" clip-path="url(#pa1d92526db)" style="fill: none; stroke: #000000; stroke-width: 2"/>
    <path d="M 518.031923 326.262166 
L 518.031923 237.657908 
" clip-path="url(#pa1d92526db)" style="fill: none; stroke: #000000; stroke-width: 2"/>
    <path d="M 542.761088 326.262166 
L 542.761088 215.506843 
" clip-path="url(#pa1d92526db)" style="fill: none; stroke: #000000; stroke-width: 2"/>
    <path d="M 567.490253 326.262166 
L 567.490253 215.506843 
" clip-path="url(#pa1d92526db)" style="fill: none; stroke: #000000; stroke-width: 2"/>
    <path d="M 592.219418 326.262166 
L 592.219418 215.506843 
" clip-path="url(#pa1d92526db)" style="fill: none; stroke: #000000; stroke-width: 2"/>
   </g>
   <g id="PathCollection_1">
    <defs>
     <path id="C0_0_57a28413f6" d="M 0 5.6 
C 1.485137 5.6 2.909647 5.009949 3.959798 3.959798 
C 5.009949 2.909647 5.6 1.485137 5.6 -0 
C 5.6 -1.485137 5.009949 -2.909647 3.959798 -3.959798 
C 2.909647 -5.009949 1.485137 -5.6 0 -5.6 
C -1.485137 -5.6 -2.909647 -5.009949 -3.959798 -3.959798 
C -5.009949 -2.909647 -5.6 -1.485137 -5.6 0 
C -5.6 1.485137 -5.009949 2.909647 -3.959798 3.959798 
C -2.909647 5.009949 -1.485137 5.6 0 5.6 
z
"/>
    </defs>
    <g clip-path="url(#pa1d92526db)">
     <use xlink:href="#C0_0_57a28413f6" x="221.281943" y="326.262166" style="stroke: #000000"/>
    </g>
    <g clip-path="url(#pa1d92526db)">
     <use xlink:href="#C0_0_57a28413f6" x="221.281943" y="304.111101" style="fill-opacity: 0.180392"/>
    </g>
    <g clip-path="url(#pa1d92526db)">
     <use xlink:href="#C0_0_57a28413f6" x="221.281943" y="281.960037" style="fill-opacity: 0.180392"/>
    </g>
    <g clip-path="url(#pa1d92526db)">
     <use xlink:href="#C0_0_57a28413f6" x="221.281943" y="259.808972" style="fill-opacity: 0.180392"/>
    </g>
    <g clip-path="url(#pa1d92526db)">
     <use xlink:href="#C0_0_57a28413f6" x="221.281943" y="237.657908" style="fill-opacity: 0.180392"/>
    </g>
    <g clip-path="url(#pa1d92526db)">
     <use xlink:href="#C0_0_57a28413f6" x="221.281943" y="215.506843" style="fill-opacity: 0.180392"/>
    </g>
    <g clip-path="url(#pa1d92526db)">
     <use xlink:href="#C0_0_57a28413f6" x="246.011108" y="326.262166" style="fill-opacity: 0.180392"/>
    </g>
    <g clip-path="url(#pa1d92526db)">
     <use xlink:href="#C0_0_57a28413f6" x="246.011108" y="304.111101" style="fill-opacity: 0.180392"/>
    </g>
    <g clip-path="url(#pa1d92526db)">
     <use xlink:href="#C0_0_57a28413f6" x="246.011108" y="281.960037" style="stroke: #000000"/>
    </g>
    <g clip-path="url(#pa1d92526db)">
     <use xlink:href="#C0_0_57a28413f6" x="246.011108" y="259.808972" style="fill-opacity: 0.180392"/>
    </g>
    <g clip-path="url(#pa1d92526db)">
     <use xlink:href="#C0_0_57a28413f6" x="246.011108" y="237.657908" style="fill-opacity: 0.180392"/>
    </g>
    <g clip-path="url(#pa1d92526db)">
     <use xlink:href="#C0_0_57a28413f6" x="246.011108" y="215.506843" style="fill-opacity: 0.180392"/>
    </g>
    <g clip-path="url(#pa1d92526db)">
     <use xlink:href="#C0_0_57a28413f6" x="270.740273" y="326.262166" style="fill-opacity: 0.180392"/>
    </g>
    <g clip-path="url(#pa1d92526db)">
     <use xlink:href="#C0_0_57a28413f6" x="270.740273" y="304.111101" style="fill-opacity: 0.180392"/>
    </g>
    <g clip-path="url(#pa1d92526db)">
     <use xlink:href="#C0_0_57a28413f6" x="270.740273" y="281.960037" style="fill-opacity: 0.180392"/>
    </g>
    <g clip-path="url(#pa1d92526db)">
     <use xlink:href="#C0_0_57a28413f6" x="270.740273" y="259.808972" style="fill-opacity: 0.180392"/>
    </g>
    <g clip-path="url(#pa1d92526db)">
     <use xlink:href="#C0_0_57a28413f6" x="270.740273" y="237.657908" style="stroke: #000000"/>
    </g>
    <g clip-path="url(#pa1d92526db)">
     <use xlink:href="#C0_0_57a28413f6" x="270.740273" y="215.506843" style="fill-opacity: 0.180392"/>
    </g>
    <g clip-path="url(#pa1d92526db)">
     <use xlink:href="#C0_0_57a28413f6" x="295.469438" y="326.262166" style="fill-opacity: 0.180392"/>
    </g>
    <g clip-path="url(#pa1d92526db)">
     <use xlink:href="#C0_0_57a28413f6" x="295.469438" y="304.111101" style="fill-opacity: 0.180392"/>
    </g>
    <g clip-path="url(#pa1d92526db)">
     <use xlink:href="#C0_0_57a28413f6" x="295.469438" y="281.960037" style="fill-opacity: 0.180392"/>
    </g>
    <g clip-path="url(#pa1d92526db)">
     <use xlink:href="#C0_0_57a28413f6" x="295.469438" y="259.808972" style="fill-opacity: 0.180392"/>
    </g>
    <g clip-path="url(#pa1d92526db)">
     <use xlink:href="#C0_0_57a28413f6" x="295.469438" y="237.657908" style="fill-opacity: 0.180392"/>
    </g>
    <g clip-path="url(#pa1d92526db)">
     <use xlink:href="#C0_0_57a28413f6" x="295.469438" y="215.506843" style="stroke: #000000"/>
    </g>
    <g clip-path="url(#pa1d92526db)">
     <use xlink:href="#C0_0_57a28413f6" x="320.198603" y="326.262166" style="stroke: #000000"/>
    </g>
    <g clip-path="url(#pa1d92526db)">
     <use xlink:href="#C0_0_57a28413f6" x="320.198603" y="304.111101" style="stroke: #000000"/>
    </g>
    <g clip-path="url(#pa1d92526db)">
     <use xlink:href="#C0_0_57a28413f6" x="320.198603" y="281.960037" style="fill-opacity: 0.180392"/>
    </g>
    <g clip-path="url(#pa1d92526db)">
     <use xlink:href="#C0_0_57a28413f6" x="320.198603" y="259.808972" style="fill-opacity: 0.180392"/>
    </g>
    <g clip-path="url(#pa1d92526db)">
     <use xlink:href="#C0_0_57a28413f6" x="320.198603" y="237.657908" style="fill-opacity: 0.180392"/>
    </g>
    <g clip-path="url(#pa1d92526db)">
     <use xlink:href="#C0_0_57a28413f6" x="320.198603" y="215.506843" style="fill-opacity: 0.180392"/>
    </g>
    <g clip-path="url(#pa1d92526db)">
     <use xlink:href="#C0_0_57a28413f6" x="344.927768" y="326.262166" style="stroke: #000000"/>
    </g>
    <g clip-path="url(#pa1d92526db)">
     <use xlink:href="#C0_0_57a28413f6" x="344.927768" y="304.111101" style="fill-opacity: 0.180392"/>
    </g>
    <g clip-path="url(#pa1d92526db)">
     <use xlink:href="#C0_0_57a28413f6" x="344.927768" y="281.960037" style="fill-opacity: 0.180392"/>
    </g>
    <g clip-path="url(#pa1d92526db)">
     <use xlink:href="#C0_0_57a28413f6" x="344.927768" y="259.808972" style="stroke: #000000"/>
    </g>
    <g clip-path="url(#pa1d92526db)">
     <use xlink:href="#C0_0_57a28413f6" x="344.927768" y="237.657908" style="fill-opacity: 0.180392"/>
    </g>
    <g clip-path="url(#pa1d92526db)">
     <use xlink:href="#C0_0_57a28413f6" x="344.927768" y="215.506843" style="fill-opacity: 0.180392"/>
    </g>
    <g clip-path="url(#pa1d92526db)">
     <use xlink:href="#C0_0_57a28413f6" x="369.656933" y="326.262166" style="fill-opacity: 0.180392"/>
    </g>
    <g clip-path="url(#pa1d92526db)">
     <use xlink:href="#C0_0_57a28413f6" x="369.656933" y="304.111101" style="stroke: #000000"/>
    </g>
    <g clip-path="url(#pa1d92526db)">
     <use xlink:href="#C0_0_57a28413f6" x="369.656933" y="281.960037" style="fill-opacity: 0.180392"/>
    </g>
    <g clip-path="url(#pa1d92526db)">
     <use xlink:href="#C0_0_57a28413f6" x="369.656933" y="259.808972" style="stroke: #000000"/>
    </g>
    <g clip-path="url(#pa1d92526db)">
     <use xlink:href="#C0_0_57a28413f6" x="369.656933" y="237.657908" style="fill-opacity: 0.180392"/>
    </g>
    <g clip-path="url(#pa1d92526db)">
     <use xlink:href="#C0_0_57a28413f6" x="369.656933" y="215.506843" style="fill-opacity: 0.180392"/>
    </g>
    <g clip-path="url(#pa1d92526db)">
     <use xlink:href="#C0_0_57a28413f6" x="394.386098" y="326.262166" style="fill-opacity: 0.180392"/>
    </g>
    <g clip-path="url(#pa1d92526db)">
     <use xlink:href="#C0_0_57a28413f6" x="394.386098" y="304.111101" style="fill-opacity: 0.180392"/>
    </g>
    <g clip-path="url(#pa1d92526db)">
     <use xlink:href="#C0_0_57a28413f6" x="394.386098" y="281.960037" style="stroke: #000000"/>
    </g>
    <g clip-path="url(#pa1d92526db)">
     <use xlink:href="#C0_0_57a28413f6" x="394.386098" y="259.808972" style="fill-opacity: 0.180392"/>
    </g>
    <g clip-path="url(#pa1d92526db)">
     <use xlink:href="#C0_0_57a28413f6" x="394.386098" y="237.657908" style="stroke: #000000"/>
    </g>
    <g clip-path="url(#pa1d92526db)">
     <use xlink:href="#C0_0_57a28413f6" x="394.386098" y="215.506843" style="fill-opacity: 0.180392"/>
    </g>
    <g clip-path="url(#pa1d92526db)">
     <use xlink:href="#C0_0_57a28413f6" x="419.115263" y="326.262166" style="stroke: #000000"/>
    </g>
    <g clip-path="url(#pa1d92526db)">
     <use xlink:href="#C0_0_57a28413f6" x="419.115263" y="304.111101" style="stroke: #000000"/>
    </g>
    <g clip-path="url(#pa1d92526db)">
     <use xlink:href="#C0_0_57a28413f6" x="419.115263" y="281.960037" style="stroke: #000000"/>
    </g>
    <g clip-path="url(#pa1d92526db)">
     <use xlink:href="#C0_0_57a28413f6" x="419.115263" y="259.808972" style="fill-opacity: 0.180392"/>
    </g>
    <g clip-path="url(#pa1d92526db)">
     <use xlink:href="#C0_0_57a28413f6" x="419.115263" y="237.657908" style="fill-opacity: 0.180392"/>
    </g>
    <g clip-path="url(#pa1d92526db)">
     <use xlink:href="#C0_0_57a28413f6" x="419.115263" y="215.506843" style="fill-opacity: 0.180392"/>
    </g>
    <g clip-path="url(#pa1d92526db)">
     <use xlink:href="#C0_0_57a28413f6" x="443.844428" y="326.262166" style="stroke: #000000"/>
    </g>
    <g clip-path="url(#pa1d92526db)">
     <use xlink:href="#C0_0_57a28413f6" x="443.844428" y="304.111101" style="stroke: #000000"/>
    </g>
    <g clip-path="url(#pa1d92526db)">
     <use xlink:href="#C0_0_57a28413f6" x="443.844428" y="281.960037" style="fill-opacity: 0.180392"/>
    </g>
    <g clip-path="url(#pa1d92526db)">
     <use xlink:href="#C0_0_57a28413f6" x="443.844428" y="259.808972" style="stroke: #000000"/>
    </g>
    <g clip-path="url(#pa1d92526db)">
     <use xlink:href="#C0_0_57a28413f6" x="443.844428" y="237.657908" style="fill-opacity: 0.180392"/>
    </g>
    <g clip-path="url(#pa1d92526db)">
     <use xlink:href="#C0_0_57a28413f6" x="443.844428" y="215.506843" style="fill-opacity: 0.180392"/>
    </g>
    <g clip-path="url(#pa1d92526db)">
     <use xlink:href="#C0_0_57a28413f6" x="468.573593" y="326.262166" style="stroke: #000000"/>
    </g>
    <g clip-path="url(#pa1d92526db)">
     <use xlink:href="#C0_0_57a28413f6" x="468.573593" y="304.111101" style="stroke: #000000"/>
    </g>
    <g clip-path="url(#pa1d92526db)">
     <use xlink:href="#C0_0_57a28413f6" x="468.573593" y="281.960037" style="stroke: #000000"/>
    </g>
    <g clip-path="url(#pa1d92526db)">
     <use xlink:href="#C0_0_57a28413f6" x="468.573593" y="259.808972" style="stroke: #000000"/>
    </g>
    <g clip-path="url(#pa1d92526db)">
     <use xlink:href="#C0_0_57a28413f6" x="468.573593" y="237.657908" style="fill-opacity: 0.180392"/>
    </g>
    <g clip-path="url(#pa1d92526db)">
     <use xlink:href="#C0_0_57a28413f6" x="468.573593" y="215.506843" style="fill-opacity: 0.180392"/>
    </g>
    <g clip-path="url(#pa1d92526db)">
     <use xlink:href="#C0_0_57a28413f6" x="493.302758" y="326.262166" style="stroke: #000000"/>
    </g>
    <g clip-path="url(#pa1d92526db)">
     <use xlink:href="#C0_0_57a28413f6" x="493.302758" y="304.111101" style="stroke: #000000"/>
    </g>
    <g clip-path="url(#pa1d92526db)">
     <use xlink:href="#C0_0_57a28413f6" x="493.302758" y="281.960037" style="stroke: #000000"/>
    </g>
    <g clip-path="url(#pa1d92526db)">
     <use xlink:href="#C0_0_57a28413f6" x="493.302758" y="259.808972" style="fill-opacity: 0.180392"/>
    </g>
    <g clip-path="url(#pa1d92526db)">
     <use xlink:href="#C0_0_57a28413f6" x="493.302758" y="237.657908" style="stroke: #000000"/>
    </g>
    <g clip-path="url(#pa1d92526db)">
     <use xlink:href="#C0_0_57a28413f6" x="493.302758" y="215.506843" style="fill-opacity: 0.180392"/>
    </g>
    <g clip-path="url(#pa1d92526db)">
     <use xlink:href="#C0_0_57a28413f6" x="518.031923" y="326.262166" style="stroke: #000000"/>
    </g>
    <g clip-path="url(#pa1d92526db)">
     <use xlink:href="#C0_0_57a28413f6" x="518.031923" y="304.111101" style="stroke: #000000"/>
    </g>
    <g clip-path="url(#pa1d92526db)">
     <use xlink:href="#C0_0_57a28413f6" x="518.031923" y="281.960037" style="stroke: #000000"/>
    </g>
    <g clip-path="url(#pa1d92526db)">
     <use xlink:href="#C0_0_57a28413f6" x="518.031923" y="259.808972" style="stroke: #000000"/>
    </g>
    <g clip-path="url(#pa1d92526db)">
     <use xlink:href="#C0_0_57a28413f6" x="518.031923" y="237.657908" style="stroke: #000000"/>
    </g>
    <g clip-path="url(#pa1d92526db)">
     <use xlink:href="#C0_0_57a28413f6" x="518.031923" y="215.506843" style="fill-opacity: 0.180392"/>
    </g>
    <g clip-path="url(#pa1d92526db)">
     <use xlink:href="#C0_0_57a28413f6" x="542.761088" y="326.262166" style="stroke: #000000"/>
    </g>
    <g clip-path="url(#pa1d92526db)">
     <use xlink:href="#C0_0_57a28413f6" x="542.761088" y="304.111101" style="stroke: #000000"/>
    </g>
    <g clip-path="url(#pa1d92526db)">
     <use xlink:href="#C0_0_57a28413f6" x="542.761088" y="281.960037" style="stroke: #000000"/>
    </g>
    <g clip-path="url(#pa1d92526db)">
     <use xlink:href="#C0_0_57a28413f6" x="542.761088" y="259.808972" style="stroke: #000000"/>
    </g>
    <g clip-path="url(#pa1d92526db)">
     <use xlink:href="#C0_0_57a28413f6" x="542.761088" y="237.657908" style="fill-opacity: 0.180392"/>
    </g>
    <g clip-path="url(#pa1d92526db)">
     <use xlink:href="#C0_0_57a28413f6" x="542.761088" y="215.506843" style="stroke: #000000"/>
    </g>
    <g clip-path="url(#pa1d92526db)">
     <use xlink:href="#C0_0_57a28413f6" x="567.490253" y="326.262166" style="stroke: #000000"/>
    </g>
    <g clip-path="url(#pa1d92526db)">
     <use xlink:href="#C0_0_57a28413f6" x="567.490253" y="304.111101" style="stroke: #000000"/>
    </g>
    <g clip-path="url(#pa1d92526db)">
     <use xlink:href="#C0_0_57a28413f6" x="567.490253" y="281.960037" style="stroke: #000000"/>
    </g>
    <g clip-path="url(#pa1d92526db)">
     <use xlink:href="#C0_0_57a28413f6" x="567.490253" y="259.808972" style="fill-opacity: 0.180392"/>
    </g>
    <g clip-path="url(#pa1d92526db)">
     <use xlink:href="#C0_0_57a28413f6" x="567.490253" y="237.657908" style="stroke: #000000"/>
    </g>
    <g clip-path="url(#pa1d92526db)">
     <use xlink:href="#C0_0_57a28413f6" x="567.490253" y="215.506843" style="stroke: #000000"/>
    </g>
    <g clip-path="url(#pa1d92526db)">
     <use xlink:href="#C0_0_57a28413f6" x="592.219418" y="326.262166" style="stroke: #000000"/>
    </g>
    <g clip-path="url(#pa1d92526db)">
     <use xlink:href="#C0_0_57a28413f6" x="592.219418" y="304.111101" style="stroke: #000000"/>
    </g>
    <g clip-path="url(#pa1d92526db)">
     <use xlink:href="#C0_0_57a28413f6" x="592.219418" y="281.960037" style="stroke: #000000"/>
    </g>
    <g clip-path="url(#pa1d92526db)">
     <use xlink:href="#C0_0_57a28413f6" x="592.219418" y="259.808972" style="stroke: #000000"/>
    </g>
    <g clip-path="url(#pa1d92526db)">
     <use xlink:href="#C0_0_57a28413f6" x="592.219418" y="237.657908" style="stroke: #000000"/>
    </g>
    <g clip-path="url(#pa1d92526db)">
     <use xlink:href="#C0_0_57a28413f6" x="592.219418" y="215.506843" style="stroke: #000000"/>
    </g>
   </g>
  </g>
  <g id="axes_3">
   <g id="patch_8">
    <path d="M 6245.133904 331.799932 
L 83.97 331.799932 
L 83.97 320.724399 
L 6245.133904 320.724399 
z
" clip-path="url(#p9969d9fd7d)" style="stroke: #000000; stroke-linejoin: miter"/>
   </g>
   <g id="patch_9">
    <path d="M 6245.133904 309.648867 
L 93.700368 309.648867 
L 93.700368 298.573335 
L 6245.133904 298.573335 
z
" clip-path="url(#p9969d9fd7d)" style="stroke: #000000; stroke-linejoin: miter"/>
   </g>
   <g id="patch_10">
    <path d="M 6245.133904 287.497803 
L 101.339662 287.497803 
L 101.339662 276.42227 
L 6245.133904 276.42227 
z
" clip-path="url(#p9969d9fd7d)" style="stroke: #000000; stroke-linejoin: miter"/>
   </g>
   <g id="patch_11">
    <path d="M 6245.133904 265.346738 
L 102.767312 265.346738 
L 102.767312 254.271206 
L 6245.133904 254.271206 
z
" clip-path="url(#p9969d9fd7d)" style="stroke: #000000; stroke-linejoin: miter"/>
   </g>
   <g id="patch_12">
    <path d="M 6245.133904 243.195674 
L 104.686582 243.195674 
L 104.686582 232.120142 
L 6245.133904 232.120142 
z
" clip-path="url(#p9969d9fd7d)" style="stroke: #000000; stroke-linejoin: miter"/>
   </g>
   <g id="patch_13">
    <path d="M 6245.133904 221.044609 
L 111.662321 221.044609 
L 111.662321 209.969077 
L 6245.133904 209.969077 
z
" clip-path="url(#p9969d9fd7d)" style="stroke: #000000; stroke-linejoin: miter"/>
   </g>
   <g id="matplotlib.axis_4">
    <g id="xtick_1">
     <g id="line2d_7">
      <path d="M 129.784032 341.5464 
L 129.784032 200.222609 
" clip-path="url(#p9969d9fd7d)" style="fill: none; stroke: #b0b0b0; stroke-width: 0.8; stroke-linecap: square"/>
     </g>
     <g id="line2d_8">
      <defs>
       <path id="m56a944d956" d="M 0 0 
L 0 3.5 
" style="stroke: #000000; stroke-width: 0.8"/>
      </defs>
      <g>
       <use xlink:href="#m56a944d956" x="129.784032" y="341.5464" style="stroke: #000000; stroke-width: 0.8"/>
      </g>
     </g>
     <g id="text_7">
      <!-- $\mathdefault{10^{0}}$ -->
      <g transform="translate(120.984032 356.144837) scale(0.1 -0.1)">
       <defs>
        <path id="DejaVuSans-31" d="M 794 531 
L 1825 531 
L 1825 4091 
L 703 3866 
L 703 4441 
L 1819 4666 
L 2450 4666 
L 2450 531 
L 3481 531 
L 3481 0 
L 794 0 
L 794 531 
z
" transform="scale(0.015625)"/>
        <path id="DejaVuSans-30" d="M 2034 4250 
Q 1547 4250 1301 3770 
Q 1056 3291 1056 2328 
Q 1056 1369 1301 889 
Q 1547 409 2034 409 
Q 2525 409 2770 889 
Q 3016 1369 3016 2328 
Q 3016 3291 2770 3770 
Q 2525 4250 2034 4250 
z
M 2034 4750 
Q 2819 4750 3233 4129 
Q 3647 3509 3647 2328 
Q 3647 1150 3233 529 
Q 2819 -91 2034 -91 
Q 1250 -91 836 529 
Q 422 1150 422 2328 
Q 422 3509 836 4129 
Q 1250 4750 2034 4750 
z
" transform="scale(0.015625)"/>
       </defs>
       <use xlink:href="#DejaVuSans-31" transform="translate(0 0.765625)"/>
       <use xlink:href="#DejaVuSans-30" transform="translate(63.623047 0.765625)"/>
       <use xlink:href="#DejaVuSans-30" transform="translate(128.203125 39.046875) scale(0.7)"/>
      </g>
     </g>
    </g>
    <g id="xtick_2">
     <g id="line2d_9">
      <path d="M 105.322633 341.5464 
L 105.322633 200.222609 
" clip-path="url(#p9969d9fd7d)" style="fill: none; stroke: #b0b0b0; stroke-width: 0.8; stroke-linecap: square"/>
     </g>
     <g id="line2d_10">
      <g>
       <use xlink:href="#m56a944d956" x="105.322633" y="341.5464" style="stroke: #000000; stroke-width: 0.8"/>
      </g>
     </g>
     <g id="text_8">
      <!-- $\mathdefault{10^{4}}$ -->
      <g transform="translate(96.522633 356.144837) scale(0.1 -0.1)">
       <defs>
        <path id="DejaVuSans-34" d="M 2419 4116 
L 825 1625 
L 2419 1625 
L 2419 4116 
z
M 2253 4666 
L 3047 4666 
L 3047 1625 
L 3713 1625 
L 3713 1100 
L 3047 1100 
L 3047 0 
L 2419 0 
L 2419 1100 
L 313 1100 
L 313 1709 
L 2253 4666 
z
" transform="scale(0.015625)"/>
       </defs>
       <use xlink:href="#DejaVuSans-31" transform="translate(0 0.684375)"/>
       <use xlink:href="#DejaVuSans-30" transform="translate(63.623047 0.684375)"/>
       <use xlink:href="#DejaVuSans-34" transform="translate(128.203125 38.965625) scale(0.7)"/>
      </g>
     </g>
    </g>
   </g>
   <g id="patch_14">
    <path d="M 83.97 341.5464 
L 129.784032 341.5464 
" style="fill: none; stroke: #000000; stroke-width: 0.8; stroke-linejoin: miter; stroke-linecap: square"/>
   </g>
  </g>
  <g id="axes_4">
   <g id="patch_15">
    <path d="M 208.91736 187.374991 
L 604.584 187.374991 
L 604.584 46.0512 
L 208.91736 46.0512 
z
" style="fill: #ffffff"/>
   </g>
   <g id="matplotlib.axis_5">
    <g id="ytick_13">
     <g id="line2d_11">
      <path d="M 208.91736 187.374991 
L 604.584 187.374991 
" clip-path="url(#pbea209e6e9)" style="fill: none; stroke: #b0b0b0; stroke-width: 0.8; stroke-linecap: square"/>
     </g>
     <g id="line2d_12">
      <defs>
       <path id="m98561fb6c6" d="M 0 0 
L -3.5 0 
" style="stroke: #000000; stroke-width: 0.8"/>
      </defs>
      <g>
       <use xlink:href="#m98561fb6c6" x="208.91736" y="187.374991" style="stroke: #000000; stroke-width: 0.8"/>
      </g>
     </g>
     <g id="text_9">
      <!-- $\mathdefault{10^{0}}$ -->
      <g transform="translate(184.31736 191.17421) scale(0.1 -0.1)">
       <use xlink:href="#DejaVuSans-31" transform="translate(0 0.765625)"/>
       <use xlink:href="#DejaVuSans-30" transform="translate(63.623047 0.765625)"/>
       <use xlink:href="#DejaVuSans-30" transform="translate(128.203125 39.046875) scale(0.7)"/>
      </g>
     </g>
    </g>
    <g id="ytick_14">
     <g id="line2d_13">
      <path d="M 208.91736 151.389576 
L 604.584 151.389576 
" clip-path="url(#pbea209e6e9)" style="fill: none; stroke: #b0b0b0; stroke-width: 0.8; stroke-linecap: square"/>
     </g>
     <g id="line2d_14">
      <g>
       <use xlink:href="#m98561fb6c6" x="208.91736" y="151.389576" style="stroke: #000000; stroke-width: 0.8"/>
      </g>
     </g>
     <g id="text_10">
      <!-- $\mathdefault{10^{2}}$ -->
      <g transform="translate(184.31736 155.188794) scale(0.1 -0.1)">
       <defs>
        <path id="DejaVuSans-32" d="M 1228 531 
L 3431 531 
L 3431 0 
L 469 0 
L 469 531 
Q 828 903 1448 1529 
Q 2069 2156 2228 2338 
Q 2531 2678 2651 2914 
Q 2772 3150 2772 3378 
Q 2772 3750 2511 3984 
Q 2250 4219 1831 4219 
Q 1534 4219 1204 4116 
Q 875 4013 500 3803 
L 500 4441 
Q 881 4594 1212 4672 
Q 1544 4750 1819 4750 
Q 2544 4750 2975 4387 
Q 3406 4025 3406 3419 
Q 3406 3131 3298 2873 
Q 3191 2616 2906 2266 
Q 2828 2175 2409 1742 
Q 1991 1309 1228 531 
z
" transform="scale(0.015625)"/>
       </defs>
       <use xlink:href="#DejaVuSans-31" transform="translate(0 0.765625)"/>
       <use xlink:href="#DejaVuSans-30" transform="translate(63.623047 0.765625)"/>
       <use xlink:href="#DejaVuSans-32" transform="translate(128.203125 39.046875) scale(0.7)"/>
      </g>
     </g>
    </g>
    <g id="ytick_15">
     <g id="line2d_15">
      <path d="M 208.91736 115.40416 
L 604.584 115.40416 
" clip-path="url(#pbea209e6e9)" style="fill: none; stroke: #b0b0b0; stroke-width: 0.8; stroke-linecap: square"/>
     </g>
     <g id="line2d_16">
      <g>
       <use xlink:href="#m98561fb6c6" x="208.91736" y="115.40416" style="stroke: #000000; stroke-width: 0.8"/>
      </g>
     </g>
     <g id="text_11">
      <!-- $\mathdefault{10^{4}}$ -->
      <g transform="translate(184.31736 119.203379) scale(0.1 -0.1)">
       <use xlink:href="#DejaVuSans-31" transform="translate(0 0.684375)"/>
       <use xlink:href="#DejaVuSans-30" transform="translate(63.623047 0.684375)"/>
       <use xlink:href="#DejaVuSans-34" transform="translate(128.203125 38.965625) scale(0.7)"/>
      </g>
     </g>
    </g>
    <g id="ytick_16">
     <g id="line2d_17">
      <path d="M 208.91736 79.418745 
L 604.584 79.418745 
" clip-path="url(#pbea209e6e9)" style="fill: none; stroke: #b0b0b0; stroke-width: 0.8; stroke-linecap: square"/>
     </g>
     <g id="line2d_18">
      <g>
       <use xlink:href="#m98561fb6c6" x="208.91736" y="79.418745" style="stroke: #000000; stroke-width: 0.8"/>
      </g>
     </g>
     <g id="text_12">
      <!-- $\mathdefault{10^{6}}$ -->
      <g transform="translate(184.31736 83.217963) scale(0.1 -0.1)">
       <defs>
        <path id="DejaVuSans-36" d="M 2113 2584 
Q 1688 2584 1439 2293 
Q 1191 2003 1191 1497 
Q 1191 994 1439 701 
Q 1688 409 2113 409 
Q 2538 409 2786 701 
Q 3034 994 3034 1497 
Q 3034 2003 2786 2293 
Q 2538 2584 2113 2584 
z
M 3366 4563 
L 3366 3988 
Q 3128 4100 2886 4159 
Q 2644 4219 2406 4219 
Q 1781 4219 1451 3797 
Q 1122 3375 1075 2522 
Q 1259 2794 1537 2939 
Q 1816 3084 2150 3084 
Q 2853 3084 3261 2657 
Q 3669 2231 3669 1497 
Q 3669 778 3244 343 
Q 2819 -91 2113 -91 
Q 1303 -91 875 529 
Q 447 1150 447 2328 
Q 447 3434 972 4092 
Q 1497 4750 2381 4750 
Q 2619 4750 2861 4703 
Q 3103 4656 3366 4563 
z
" transform="scale(0.015625)"/>
       </defs>
       <use xlink:href="#DejaVuSans-31" transform="translate(0 0.765625)"/>
       <use xlink:href="#DejaVuSans-30" transform="translate(63.623047 0.765625)"/>
       <use xlink:href="#DejaVuSans-36" transform="translate(128.203125 39.046875) scale(0.7)"/>
      </g>
     </g>
    </g>
    <g id="text_13">
     <!-- Intersection size -->
     <g transform="translate(178.237673 157.740439) rotate(-90) scale(0.1 -0.1)">
      <defs>
       <path id="DejaVuSans-49" d="M 628 4666 
L 1259 4666 
L 1259 0 
L 628 0 
L 628 4666 
z
" transform="scale(0.015625)"/>
       <path id="DejaVuSans-72" d="M 2631 2963 
Q 2534 3019 2420 3045 
Q 2306 3072 2169 3072 
Q 1681 3072 1420 2755 
Q 1159 2438 1159 1844 
L 1159 0 
L 581 0 
L 581 3500 
L 1159 3500 
L 1159 2956 
Q 1341 3275 1631 3429 
Q 1922 3584 2338 3584 
Q 2397 3584 2469 3576 
Q 2541 3569 2628 3553 
L 2631 2963 
z
" transform="scale(0.015625)"/>
       <path id="DejaVuSans-73" d="M 2834 3397 
L 2834 2853 
Q 2591 2978 2328 3040 
Q 2066 3103 1784 3103 
Q 1356 3103 1142 2972 
Q 928 2841 928 2578 
Q 928 2378 1081 2264 
Q 1234 2150 1697 2047 
L 1894 2003 
Q 2506 1872 2764 1633 
Q 3022 1394 3022 966 
Q 3022 478 2636 193 
Q 2250 -91 1575 -91 
Q 1294 -91 989 -36 
Q 684 19 347 128 
L 347 722 
Q 666 556 975 473 
Q 1284 391 1588 391 
Q 1994 391 2212 530 
Q 2431 669 2431 922 
Q 2431 1156 2273 1281 
Q 2116 1406 1581 1522 
L 1381 1569 
Q 847 1681 609 1914 
Q 372 2147 372 2553 
Q 372 3047 722 3315 
Q 1072 3584 1716 3584 
Q 2034 3584 2315 3537 
Q 2597 3491 2834 3397 
z
" transform="scale(0.015625)"/>
       <path id="DejaVuSans-20" transform="scale(0.015625)"/>
       <path id="DejaVuSans-7a" d="M 353 3500 
L 3084 3500 
L 3084 2975 
L 922 459 
L 3084 459 
L 3084 0 
L 275 0 
L 275 525 
L 2438 3041 
L 353 3041 
L 353 3500 
z
" transform="scale(0.015625)"/>
      </defs>
      <use xlink:href="#DejaVuSans-49"/>
      <use xlink:href="#DejaVuSans-6e" x="29.492188"/>
      <use xlink:href="#DejaVuSans-74" x="92.871094"/>
      <use xlink:href="#DejaVuSans-65" x="132.080078"/>
      <use xlink:href="#DejaVuSans-72" x="193.603516"/>
      <use xlink:href="#DejaVuSans-73" x="234.716797"/>
      <use xlink:href="#DejaVuSans-65" x="286.816406"/>
      <use xlink:href="#DejaVuSans-63" x="348.339844"/>
      <use xlink:href="#DejaVuSans-74" x="403.320312"/>
      <use xlink:href="#DejaVuSans-69" x="442.529297"/>
      <use xlink:href="#DejaVuSans-6f" x="470.3125"/>
      <use xlink:href="#DejaVuSans-6e" x="531.494141"/>
      <use xlink:href="#DejaVuSans-20" x="594.873047"/>
      <use xlink:href="#DejaVuSans-73" x="626.660156"/>
      <use xlink:href="#DejaVuSans-69" x="678.759766"/>
      <use xlink:href="#DejaVuSans-7a" x="706.542969"/>
      <use xlink:href="#DejaVuSans-65" x="759.033203"/>
     </g>
    </g>
   </g>
   <g id="patch_16">
    <path d="M 208.91736 187.374991 
L 208.91736 46.0512 
" style="fill: none; stroke: #000000; stroke-width: 0.8; stroke-linejoin: miter; stroke-linecap: square"/>
   </g>
   <g id="patch_17">
    <path d="M 215.099651 18180.082769 
L 227.464234 18180.082769 
L 227.464234 52.780904 
L 215.099651 52.780904 
z
" clip-path="url(#pbea209e6e9)" style="stroke: #000000; stroke-linejoin: miter"/>
   </g>
   <g id="patch_18">
    <path d="M 239.828816 18180.082769 
L 252.193399 18180.082769 
L 252.193399 131.168442 
L 239.828816 131.168442 
z
" clip-path="url(#pbea209e6e9)" style="stroke: #000000; stroke-linejoin: miter"/>
   </g>
   <g id="patch_19">
    <path d="M 264.557981 18180.082769 
L 276.922564 18180.082769 
L 276.922564 118.495152 
L 264.557981 118.495152 
z
" clip-path="url(#pbea209e6e9)" style="stroke: #000000; stroke-linejoin: miter"/>
   </g>
   <g id="patch_20">
    <path d="M 289.287146 18180.082769 
L 301.651729 18180.082769 
L 301.651729 140.028193 
L 289.287146 140.028193 
z
" clip-path="url(#pbea209e6e9)" style="stroke: #000000; stroke-linejoin: miter"/>
   </g>
   <g id="patch_21">
    <path d="M 314.016311 18180.082769 
L 326.380894 18180.082769 
L 326.380894 81.736903 
L 314.016311 81.736903 
z
" clip-path="url(#pbea209e6e9)" style="stroke: #000000; stroke-linejoin: miter"/>
   </g>
   <g id="patch_22">
    <path d="M 338.745476 18180.082769 
L 351.110059 18180.082769 
L 351.110059 169.382284 
L 338.745476 169.382284 
z
" clip-path="url(#pbea209e6e9)" style="stroke: #000000; stroke-linejoin: miter"/>
   </g>
   <g id="patch_23">
    <path d="M 363.474641 18180.082769 
L 375.839224 18180.082769 
L 375.839224 117.230316 
L 363.474641 117.230316 
z
" clip-path="url(#pbea209e6e9)" style="stroke: #000000; stroke-linejoin: miter"/>
   </g>
   <g id="patch_24">
    <path d="M 388.203806 18180.082769 
L 400.568389 18180.082769 
L 400.568389 187.374991 
L 388.203806 187.374991 
z
" clip-path="url(#pbea209e6e9)" style="stroke: #000000; stroke-linejoin: miter"/>
   </g>
   <g id="patch_25">
    <path d="M 412.932971 18180.082769 
L 425.297554 18180.082769 
L 425.297554 108.039002 
L 412.932971 108.039002 
z
" clip-path="url(#pbea209e6e9)" style="stroke: #000000; stroke-linejoin: miter"/>
   </g>
   <g id="patch_26">
    <path d="M 437.662136 18180.082769 
L 450.026719 18180.082769 
L 450.026719 137.748321 
L 437.662136 137.748321 
z
" clip-path="url(#pbea209e6e9)" style="stroke: #000000; stroke-linejoin: miter"/>
   </g>
   <g id="patch_27">
    <path d="M 462.391301 18180.082769 
L 474.755884 18180.082769 
L 474.755884 114.109484 
L 462.391301 114.109484 
z
" clip-path="url(#pbea209e6e9)" style="stroke: #000000; stroke-linejoin: miter"/>
   </g>
   <g id="patch_28">
    <path d="M 487.120466 18180.082769 
L 499.485049 18180.082769 
L 499.485049 149.220124 
L 487.120466 149.220124 
z
" clip-path="url(#pbea209e6e9)" style="stroke: #000000; stroke-linejoin: miter"/>
   </g>
   <g id="patch_29">
    <path d="M 511.849631 18180.082769 
L 524.214214 18180.082769 
L 524.214214 120.245212 
L 511.849631 120.245212 
z
" clip-path="url(#pbea209e6e9)" style="stroke: #000000; stroke-linejoin: miter"/>
   </g>
   <g id="patch_30">
    <path d="M 536.578796 18180.082769 
L 548.943379 18180.082769 
L 548.943379 160.052814 
L 536.578796 160.052814 
z
" clip-path="url(#pbea209e6e9)" style="stroke: #000000; stroke-linejoin: miter"/>
   </g>
   <g id="patch_31">
    <path d="M 561.307961 18180.082769 
L 573.672544 18180.082769 
L 573.672544 187.374991 
L 561.307961 187.374991 
z
" clip-path="url(#pbea209e6e9)" style="stroke: #000000; stroke-linejoin: miter"/>
   </g>
   <g id="patch_32">
    <path d="M 586.037126 18180.082769 
L 598.401709 18180.082769 
L 598.401709 139.515896 
L 586.037126 139.515896 
z
" clip-path="url(#pbea209e6e9)" style="stroke: #000000; stroke-linejoin: miter"/>
   </g>
  </g>
 </g>
 <defs>
  <clipPath id="p05e520e3aa">
   <rect x="83.97" y="200.222609" width="520.614" height="141.323791"/>
  </clipPath>
  <clipPath id="pa1d92526db">
   <rect x="208.91736" y="200.222609" width="395.66664" height="141.323791"/>
  </clipPath>
  <clipPath id="p9969d9fd7d">
   <rect x="83.97" y="200.222609" width="45.814032" height="141.323791"/>
  </clipPath>
  <clipPath id="pbea209e6e9">
   <rect x="208.91736" y="46.0512" width="395.66664" height="141.323791"/>
  </clipPath>
 </defs>
</svg>
