<?xml version="1.0" encoding="UTF-8" standalone="no"?>
<!DOCTYPE svg PUBLIC "-//W3C//DTD SVG 1.1//EN"
 "http://www.w3.org/Graphics/SVG/1.1/DTD/svg11.dtd">
<!-- Generated by graphviz version 12.2.1 (20241206.2353)
 -->
<!-- Pages: 1 -->
<svg width="762pt" height="901pt"
 viewBox="0.00 0.00 762.02 900.50" xmlns="http://www.w3.org/2000/svg" xmlns:xlink="http://www.w3.org/1999/xlink">
<g id="graph0" class="graph" transform="scale(1 1) rotate(0) translate(4 896.5)">
<polygon fill="white" stroke="none" points="-4,4 -4,-896.5 758.02,-896.5 758.02,4 -4,4"/>
<!-- ccds -->
<g id="node1" class="node">
<title>ccds</title>
<ellipse fill="none" stroke="black" cx="27.3" cy="-457" rx="27.3" ry="18"/>
<text text-anchor="middle" x="27.3" y="-451.95" font-family="Times,serif" font-size="14.00">ccds</text>
</g>
<!-- ncbigene -->
<g id="node2" class="node">
<title>ncbigene</title>
<ellipse fill="none" stroke="black" cx="172.28" cy="-457" rx="44.19" ry="18"/>
<text text-anchor="middle" x="172.28" y="-451.95" font-family="Times,serif" font-size="14.00">ncbigene</text>
</g>
<!-- ccds&#45;&#45;ncbigene -->
<g id="edge1" class="edge">
<title>ccds&#45;&#45;ncbigene</title>
<path fill="none" stroke="black" stroke-width="1.04" d="M54.86,-457C75.29,-457 103.95,-457 127.73,-457"/>
<text text-anchor="middle" x="91.34" y="-460.2" font-family="Times,serif" font-size="14.00">10,607</text>
</g>
<!-- ensembl -->
<g id="node3" class="node">
<title>ensembl</title>
<ellipse fill="none" stroke="black" cx="363.42" cy="-664" rx="42.14" ry="18"/>
<text text-anchor="middle" x="363.42" y="-658.95" font-family="Times,serif" font-size="14.00">ensembl</text>
</g>
<!-- ncbigene&#45;&#45;ensembl -->
<g id="edge2" class="edge">
<title>ncbigene&#45;&#45;ensembl</title>
<path fill="none" stroke="black" stroke-width="1.66" d="M174.19,-475.42C176.99,-511.11 188.34,-589.91 234.47,-632 257.81,-653.3 293.16,-660.94 320.8,-663.45"/>
<text text-anchor="middle" x="256.59" y="-658.53" font-family="Times,serif" font-size="14.00">174,347</text>
</g>
<!-- hgnc -->
<g id="node4" class="node">
<title>hgnc</title>
<ellipse fill="none" stroke="black" cx="546.28" cy="-585" rx="28.83" ry="18"/>
<text text-anchor="middle" x="546.28" y="-579.95" font-family="Times,serif" font-size="14.00">hgnc</text>
</g>
<!-- ncbigene&#45;&#45;hgnc -->
<g id="edge3" class="edge">
<title>ncbigene&#45;&#45;hgnc</title>
<path fill="none" stroke="black" stroke-width="1.17" d="M182.65,-474.69C192.92,-492.22 211.09,-518.38 234.47,-532 327.16,-586.02 460.11,-588.39 517.34,-586.53"/>
<text text-anchor="middle" x="363.42" y="-587.52" font-family="Times,serif" font-size="14.00">44,687</text>
</g>
<!-- omim -->
<g id="node5" class="node">
<title>omim</title>
<ellipse fill="none" stroke="black" cx="363.42" cy="-756" rx="33.44" ry="18"/>
<text text-anchor="middle" x="363.42" y="-750.95" font-family="Times,serif" font-size="14.00">omim</text>
</g>
<!-- ncbigene&#45;&#45;omim -->
<g id="edge4" class="edge">
<title>ncbigene&#45;&#45;omim</title>
<path fill="none" stroke="black" stroke-width="1.07" d="M174.99,-475.14C180.46,-529.27 199.26,-688.09 234.47,-724 259.23,-749.26 300.71,-755.69 329.71,-756.81"/>
<text text-anchor="middle" x="256.59" y="-751.55" font-family="Times,serif" font-size="14.00">18,589</text>
</g>
<!-- refseq -->
<g id="node6" class="node">
<title>refseq</title>
<ellipse fill="none" stroke="black" cx="699.6" cy="-810" rx="33.44" ry="18"/>
<text text-anchor="middle" x="699.6" y="-804.95" font-family="Times,serif" font-size="14.00">refseq</text>
</g>
<!-- ncbigene&#45;&#45;refseq -->
<g id="edge5" class="edge">
<title>ncbigene&#45;&#45;refseq</title>
<path fill="none" stroke="black" stroke-width="1.16" d="M174.65,-475.42C179.64,-538.35 198.4,-743.97 234.47,-798 330.01,-941.13 589.01,-853.87 672.37,-820.95"/>
<text text-anchor="middle" x="466.88" y="-879.2" font-family="Times,serif" font-size="14.00">41,255</text>
</g>
<!-- ucsc -->
<g id="node7" class="node">
<title>ucsc</title>
<ellipse fill="none" stroke="black" cx="699.6" cy="-719" rx="27.3" ry="18"/>
<text text-anchor="middle" x="699.6" y="-713.95" font-family="Times,serif" font-size="14.00">ucsc</text>
</g>
<!-- ncbigene&#45;&#45;ucsc -->
<g id="edge6" class="edge">
<title>ncbigene&#45;&#45;ucsc</title>
<path fill="none" stroke="black" stroke-width="1.09" d="M172.63,-475.35C172.21,-517.32 177.36,-620.91 234.47,-676 294.7,-734.11 523.33,-727.8 606.93,-732 615.92,-732.45 618.21,-732.81 627.18,-732 642.62,-730.61 659.71,-727.55 673.3,-724.75"/>
<text text-anchor="middle" x="466.88" y="-731.64" font-family="Times,serif" font-size="14.00">23,825</text>
</g>
<!-- vega -->
<g id="node8" class="node">
<title>vega</title>
<ellipse fill="none" stroke="black" cx="699.6" cy="-624" rx="28.32" ry="18"/>
<text text-anchor="middle" x="699.6" y="-618.95" font-family="Times,serif" font-size="14.00">vega</text>
</g>
<!-- ncbigene&#45;&#45;vega -->
<g id="edge7" class="edge">
<title>ncbigene&#45;&#45;vega</title>
<path fill="none" stroke="black" stroke-width="1.12" d="M180.96,-474.96C196.71,-508.96 236.34,-581.35 296.72,-604 375.47,-633.54 403.75,-596.23 485.63,-615.5 542.64,-628.92 549.53,-655.32 606.93,-667 635.18,-672.75 664.86,-653.48 682.54,-638.9"/>
<text text-anchor="middle" x="466.88" y="-618.7" font-family="Times,serif" font-size="14.00">31,705</text>
</g>
<!-- wikidata -->
<g id="node9" class="node">
<title>wikidata</title>
<ellipse fill="none" stroke="black" cx="546.28" cy="-784" rx="42.65" ry="18"/>
<text text-anchor="middle" x="546.28" y="-778.95" font-family="Times,serif" font-size="14.00">wikidata</text>
</g>
<!-- ncbigene&#45;&#45;wikidata -->
<g id="edge8" class="edge">
<title>ncbigene&#45;&#45;wikidata</title>
<path fill="none" stroke="black" stroke-width="4" d="M174.3,-475.17C178.05,-535.31 193.09,-726.47 234.47,-769 307.54,-844.12 448.36,-814 512.28,-795.01"/>
<text text-anchor="middle" x="363.42" y="-820.51" font-family="Times,serif" font-size="14.00">788,878</text>
</g>
<!-- ena.embl -->
<g id="node10" class="node">
<title>ena.embl</title>
<ellipse fill="none" stroke="black" cx="699.6" cy="-553" rx="45.21" ry="18"/>
<text text-anchor="middle" x="699.6" y="-547.95" font-family="Times,serif" font-size="14.00">ena.embl</text>
</g>
<!-- ncbigene&#45;&#45;ena.embl -->
<g id="edge9" class="edge">
<title>ncbigene&#45;&#45;ena.embl</title>
<path fill="none" stroke="black" stroke-width="1.07" d="M203.61,-470.15C213.31,-473.88 224.19,-477.58 234.47,-480 405.26,-520.31 457.71,-475.44 627.18,-521 642.4,-525.09 658.49,-532.05 671.54,-538.43"/>
<text text-anchor="middle" x="466.88" y="-502.11" font-family="Times,serif" font-size="14.00">18,940</text>
</g>
<!-- ncit -->
<g id="node11" class="node">
<title>ncit</title>
<ellipse fill="none" stroke="black" cx="699.6" cy="-464" rx="27" ry="18"/>
<text text-anchor="middle" x="699.6" y="-458.95" font-family="Times,serif" font-size="14.00">ncit</text>
</g>
<!-- ncbigene&#45;&#45;ncit -->
<g id="edge10" class="edge">
<title>ncbigene&#45;&#45;ncit</title>
<path fill="none" stroke="black" stroke-width="1.02" d="M213.67,-463.79C220.59,-464.71 227.72,-465.51 234.47,-466 254.08,-467.43 259.05,-466.32 278.72,-466 346.04,-464.89 362.92,-465.15 430.13,-461 508.88,-456.14 528.11,-448.56 606.93,-445 615.92,-444.59 618.25,-443.83 627.18,-445 643.46,-447.13 661.32,-451.88 675.1,-456.1"/>
<text text-anchor="middle" x="466.88" y="-462.91" font-family="Times,serif" font-size="14.00">5,957</text>
</g>
<!-- orphanet -->
<g id="node12" class="node">
<title>orphanet</title>
<ellipse fill="none" stroke="black" cx="363.42" cy="-434" rx="43.16" ry="18"/>
<text text-anchor="middle" x="363.42" y="-428.95" font-family="Times,serif" font-size="14.00">orphanet</text>
</g>
<!-- ncbigene&#45;&#45;orphanet -->
<g id="edge11" class="edge">
<title>ncbigene&#45;&#45;orphanet</title>
<path fill="none" stroke="black" stroke-width="1.02" d="M215.08,-451.87C221.57,-451.07 228.2,-450.26 234.47,-449.5 263.56,-445.95 296.39,-441.98 321.5,-438.94"/>
<text text-anchor="middle" x="256.59" y="-452.7" font-family="Times,serif" font-size="14.00">4,405</text>
</g>
<!-- iuphar.receptor -->
<g id="node13" class="node">
<title>iuphar.receptor</title>
<ellipse fill="none" stroke="black" cx="363.42" cy="-380" rx="66.71" ry="18"/>
<text text-anchor="middle" x="363.42" y="-374.95" font-family="Times,serif" font-size="14.00">iuphar.receptor</text>
</g>
<!-- ncbigene&#45;&#45;iuphar.receptor -->
<g id="edge12" class="edge">
<title>ncbigene&#45;&#45;iuphar.receptor</title>
<path fill="none" stroke="black" stroke-width="1.01" d="M198.09,-442.14C209.02,-435.93 222.16,-428.91 234.47,-423.5 261.21,-411.74 292.2,-401.13 316.99,-393.33"/>
<text text-anchor="middle" x="256.59" y="-426.7" font-family="Times,serif" font-size="14.00">3,102</text>
</g>
<!-- civic.gid -->
<g id="node14" class="node">
<title>civic.gid</title>
<ellipse fill="none" stroke="black" cx="363.42" cy="-326" rx="43.16" ry="18"/>
<text text-anchor="middle" x="363.42" y="-320.95" font-family="Times,serif" font-size="14.00">civic.gid</text>
</g>
<!-- ncbigene&#45;&#45;civic.gid -->
<g id="edge13" class="edge">
<title>ncbigene&#45;&#45;civic.gid</title>
<path fill="none" stroke="black" d="M185.62,-439.47C197.03,-424.15 215.1,-401.99 234.47,-386.5 262.86,-363.78 301.19,-347.11 328.48,-337.09"/>
<text text-anchor="middle" x="256.59" y="-389.7" font-family="Times,serif" font-size="14.00">623</text>
</g>
<!-- mgi -->
<g id="node15" class="node">
<title>mgi</title>
<ellipse fill="none" stroke="black" cx="363.42" cy="-272" rx="27" ry="18"/>
<text text-anchor="middle" x="363.42" y="-266.95" font-family="Times,serif" font-size="14.00">mgi</text>
</g>
<!-- ncbigene&#45;&#45;mgi -->
<g id="edge14" class="edge">
<title>ncbigene&#45;&#45;mgi</title>
<path fill="none" stroke="black" stroke-width="1.43" d="M179.35,-438.95C188.33,-414.27 207.1,-369.64 234.47,-339.5 263.08,-307.98 309.9,-288.61 338.27,-279.11"/>
<text text-anchor="middle" x="256.59" y="-342.7" font-family="Times,serif" font-size="14.00">111,826</text>
</g>
<!-- cgnc -->
<g id="node16" class="node">
<title>cgnc</title>
<ellipse fill="none" stroke="black" cx="363.42" cy="-218" rx="28.32" ry="18"/>
<text text-anchor="middle" x="363.42" y="-212.95" font-family="Times,serif" font-size="14.00">cgnc</text>
</g>
<!-- ncbigene&#45;&#45;cgnc -->
<g id="edge15" class="edge">
<title>ncbigene&#45;&#45;cgnc</title>
<path fill="none" stroke="black" stroke-width="1.1" d="M175.87,-438.61C181.4,-405.03 197.05,-332.89 234.47,-285.5 260.61,-252.38 307.55,-233.66 336.73,-224.71"/>
<text text-anchor="middle" x="256.59" y="-288.7" font-family="Times,serif" font-size="14.00">26,070</text>
</g>
<!-- lncipedia -->
<g id="node17" class="node">
<title>lncipedia</title>
<ellipse fill="none" stroke="black" cx="363.42" cy="-164" rx="44.7" ry="18"/>
<text text-anchor="middle" x="363.42" y="-158.95" font-family="Times,serif" font-size="14.00">lncipedia</text>
</g>
<!-- ncbigene&#45;&#45;lncipedia -->
<g id="edge16" class="edge">
<title>ncbigene&#45;&#45;lncipedia</title>
<path fill="none" stroke="black" stroke-width="1.01" d="M173.85,-438.64C175.99,-397.45 186.17,-296.1 234.47,-230.5 256.43,-200.66 295.77,-183.1 325.04,-173.59"/>
<text text-anchor="middle" x="256.59" y="-233.7" font-family="Times,serif" font-size="14.00">2,432</text>
</g>
<!-- pseudogene -->
<g id="node18" class="node">
<title>pseudogene</title>
<ellipse fill="none" stroke="black" cx="699.6" cy="-235" rx="54.42" ry="18"/>
<text text-anchor="middle" x="699.6" y="-229.95" font-family="Times,serif" font-size="14.00">pseudogene</text>
</g>
<!-- ncbigene&#45;&#45;pseudogene -->
<g id="edge17" class="edge">
<title>ncbigene&#45;&#45;pseudogene</title>
<path fill="none" stroke="black" stroke-width="1.03" d="M172.54,-438.88C171.21,-377.96 176.5,-181.88 296.72,-137 434.64,-85.51 609.38,-179.33 673.53,-218.75"/>
<text text-anchor="middle" x="466.88" y="-138.75" font-family="Times,serif" font-size="14.00">8,359</text>
</g>
<!-- cosmic -->
<g id="node19" class="node">
<title>cosmic</title>
<ellipse fill="none" stroke="black" cx="363.42" cy="-72" rx="37.53" ry="18"/>
<text text-anchor="middle" x="363.42" y="-66.95" font-family="Times,serif" font-size="14.00">cosmic</text>
</g>
<!-- ncbigene&#45;&#45;cosmic -->
<g id="edge18" class="edge">
<title>ncbigene&#45;&#45;cosmic</title>
<path fill="none" stroke="black" d="M173.53,-438.7C174.86,-371.07 183.15,-136.63 234.47,-87.5 258.87,-64.13 299,-62.94 327.82,-65.89"/>
<text text-anchor="middle" x="256.59" y="-90.7" font-family="Times,serif" font-size="14.00">569</text>
</g>
<!-- iuphar.ligand -->
<g id="node20" class="node">
<title>iuphar.ligand</title>
<ellipse fill="none" stroke="black" cx="363.42" cy="-18" rx="59.54" ry="18"/>
<text text-anchor="middle" x="363.42" y="-12.95" font-family="Times,serif" font-size="14.00">iuphar.ligand</text>
</g>
<!-- ncbigene&#45;&#45;iuphar.ligand -->
<g id="edge19" class="edge">
<title>ncbigene&#45;&#45;iuphar.ligand</title>
<path fill="none" stroke="black" d="M173.36,-438.86C174.06,-367.17 180.33,-104.64 234.47,-46.5 251.99,-27.68 278.98,-19.92 303.65,-17.13"/>
<text text-anchor="middle" x="256.59" y="-49.7" font-family="Times,serif" font-size="14.00">462</text>
</g>
<!-- ensembl&#45;&#45;hgnc -->
<g id="edge20" class="edge">
<title>ensembl&#45;&#45;hgnc</title>
<path fill="none" stroke="black" d="M404.83,-659.61C429.22,-655.78 460.37,-648.74 485.63,-636 503.14,-627.16 519.83,-612.13 531.07,-600.67"/>
<text text-anchor="middle" x="466.88" y="-652.67" font-family="Times,serif" font-size="14.00">887</text>
</g>
<!-- ensembl&#45;&#45;wikidata -->
<g id="edge21" class="edge">
<title>ensembl&#45;&#45;wikidata</title>
<path fill="none" stroke="black" d="M404.48,-668.86C429.63,-673.49 461.72,-682.42 485.63,-699.5 509.73,-716.73 527.54,-746.85 537.16,-766.09"/>
<text text-anchor="middle" x="466.88" y="-702.7" font-family="Times,serif" font-size="14.00">102</text>
</g>
<!-- hgnc&#45;&#45;refseq -->
<g id="edge22" class="edge">
<title>hgnc&#45;&#45;refseq</title>
<path fill="none" stroke="black" d="M556.49,-601.98C572.99,-631.92 609.21,-695.71 645.18,-746 657.3,-762.95 672.69,-781.08 683.83,-793.7"/>
<text text-anchor="middle" x="617.05" y="-719.46" font-family="Times,serif" font-size="14.00">104</text>
</g>
<!-- hgnc&#45;&#45;ucsc -->
<g id="edge23" class="edge">
<title>hgnc&#45;&#45;ucsc</title>
<path fill="none" stroke="black" d="M563.76,-599.6C593.02,-625.51 653.68,-679.22 682.59,-704.83"/>
<text text-anchor="middle" x="617.05" y="-655.2" font-family="Times,serif" font-size="14.00">476</text>
</g>
<!-- hgnc&#45;&#45;vega -->
<g id="edge24" class="edge">
<title>hgnc&#45;&#45;vega</title>
<path fill="none" stroke="black" d="M573.29,-591.7C601.18,-598.89 645.17,-610.23 672.93,-617.38"/>
<text text-anchor="middle" x="617.05" y="-607.7" font-family="Times,serif" font-size="14.00">660</text>
</g>
<!-- hgnc&#45;&#45;ena.embl -->
<g id="edge25" class="edge">
<title>hgnc&#45;&#45;ena.embl</title>
<path fill="none" stroke="black" d="M573.34,-578.37C583.76,-575.79 595.89,-572.89 606.93,-570.5 623.55,-566.89 641.96,-563.3 657.9,-560.32"/>
<text text-anchor="middle" x="617.05" y="-573.7" font-family="Times,serif" font-size="14.00">358</text>
</g>
<!-- hgnc&#45;&#45;ncit -->
<g id="edge26" class="edge">
<title>hgnc&#45;&#45;ncit</title>
<path fill="none" stroke="black" d="M564.93,-570.88C594.25,-547.44 652.59,-500.79 681.52,-477.66"/>
<text text-anchor="middle" x="617.05" y="-538.54" font-family="Times,serif" font-size="14.00">21</text>
</g>
<!-- hgnc&#45;&#45;pseudogene -->
<g id="edge27" class="edge">
<title>hgnc&#45;&#45;pseudogene</title>
<path fill="none" stroke="black" d="M554.78,-567.64C580.48,-508.19 664.83,-313.11 690.87,-252.88"/>
<text text-anchor="middle" x="617.05" y="-444.55" font-family="Times,serif" font-size="14.00">148</text>
</g>
<!-- omim&#45;&#45;wikidata -->
<g id="edge28" class="edge">
<title>omim&#45;&#45;wikidata</title>
<path fill="none" stroke="black" stroke-width="1.03" d="M395.92,-760.88C426.39,-765.59 472.65,-772.76 505.61,-777.86"/>
<text text-anchor="middle" x="466.88" y="-777.34" font-family="Times,serif" font-size="14.00">9,079</text>
</g>
</g>
</svg>
