<?xml version="1.0" encoding="UTF-8" standalone="no"?>
<!DOCTYPE svg PUBLIC "-//W3C//DTD SVG 1.1//EN"
 "http://www.w3.org/Graphics/SVG/1.1/DTD/svg11.dtd">
<!-- Generated by graphviz version 13.1.0 (20250701.0955)
 -->
<!-- Pages: 1 -->
<svg width="703pt" height="944pt"
 viewBox="0.00 0.00 703.00 944.00" xmlns="http://www.w3.org/2000/svg" xmlns:xlink="http://www.w3.org/1999/xlink">
<g id="graph0" class="graph" transform="scale(1 1) rotate(0) translate(4 940.3)">
<polygon fill="white" stroke="none" points="-4,4 -4,-940.3 699.07,-940.3 699.07,4 -4,4"/>
<!-- ccds -->
<g id="node1" class="node">
<title>ccds</title>
<ellipse fill="none" stroke="black" cx="27.3" cy="-477" rx="27.3" ry="18"/>
<text xml:space="preserve" text-anchor="middle" x="27.3" y="-471.95" font-family="Times,serif" font-size="14.00">ccds</text>
</g>
<!-- ncbigene -->
<g id="node2" class="node">
<title>ncbigene</title>
<ellipse fill="none" stroke="black" cx="172.28" cy="-477" rx="44.19" ry="18"/>
<text xml:space="preserve" text-anchor="middle" x="172.28" y="-471.95" font-family="Times,serif" font-size="14.00">ncbigene</text>
</g>
<!-- ccds&#45;&#45;ncbigene -->
<g id="edge1" class="edge">
<title>ccds&#45;&#45;ncbigene</title>
<path fill="none" stroke="black" stroke-width="1.04" d="M54.86,-477C75.29,-477 103.95,-477 127.73,-477"/>
<text xml:space="preserve" text-anchor="middle" x="91.34" y="-480.2" font-family="Times,serif" font-size="14.00">10,560</text>
</g>
<!-- ensembl -->
<g id="node3" class="node">
<title>ensembl</title>
<ellipse fill="none" stroke="black" cx="363.42" cy="-865" rx="42.14" ry="18"/>
<text xml:space="preserve" text-anchor="middle" x="363.42" y="-859.95" font-family="Times,serif" font-size="14.00">ensembl</text>
</g>
<!-- ncbigene&#45;&#45;ensembl -->
<g id="edge2" class="edge">
<title>ncbigene&#45;&#45;ensembl</title>
<path fill="none" stroke="black" stroke-width="1.66" d="M173.87,-495.34C176.35,-560.99 188.08,-783.01 234.47,-833 256.27,-856.5 292.49,-863.87 320.84,-865.72"/>
<text xml:space="preserve" text-anchor="middle" x="256.59" y="-861.03" font-family="Times,serif" font-size="14.00">173,999</text>
</g>
<!-- hgnc -->
<g id="node4" class="node">
<title>hgnc</title>
<ellipse fill="none" stroke="black" cx="546.28" cy="-865" rx="28.83" ry="18"/>
<text xml:space="preserve" text-anchor="middle" x="546.28" y="-859.95" font-family="Times,serif" font-size="14.00">hgnc</text>
</g>
<!-- ncbigene&#45;&#45;hgnc -->
<g id="edge3" class="edge">
<title>ncbigene&#45;&#45;hgnc</title>
<path fill="none" stroke="black" stroke-width="1.17" d="M173.43,-495.2C174.42,-565.92 181.63,-821.35 234.47,-878 310.16,-959.17 464.61,-901.65 522.6,-875.79"/>
<text xml:space="preserve" text-anchor="middle" x="363.42" y="-923" font-family="Times,serif" font-size="14.00">43,580</text>
</g>
<!-- omim -->
<g id="node5" class="node">
<title>omim</title>
<ellipse fill="none" stroke="black" cx="363.42" cy="-665" rx="33.44" ry="18"/>
<text xml:space="preserve" text-anchor="middle" x="363.42" y="-659.95" font-family="Times,serif" font-size="14.00">omim</text>
</g>
<!-- ncbigene&#45;&#45;omim -->
<g id="edge4" class="edge">
<title>ncbigene&#45;&#45;omim</title>
<path fill="none" stroke="black" stroke-width="1.07" d="M175.63,-494.96C180.66,-526.16 195.38,-590.42 234.47,-626 260.83,-650 301.58,-659.24 329.99,-662.79"/>
<text xml:space="preserve" text-anchor="middle" x="256.59" y="-654.09" font-family="Times,serif" font-size="14.00">18,315</text>
</g>
<!-- refseq -->
<g id="node6" class="node">
<title>refseq</title>
<ellipse fill="none" stroke="black" cx="363.42" cy="-773" rx="33.44" ry="18"/>
<text xml:space="preserve" text-anchor="middle" x="363.42" y="-767.95" font-family="Times,serif" font-size="14.00">refseq</text>
</g>
<!-- ncbigene&#45;&#45;refseq -->
<g id="edge5" class="edge">
<title>ncbigene&#45;&#45;refseq</title>
<path fill="none" stroke="black" stroke-width="1.16" d="M172.65,-495.33C172.13,-539.49 176.84,-653.08 234.47,-720 259.1,-748.61 301.64,-762.06 330.86,-768.19"/>
<text xml:space="preserve" text-anchor="middle" x="256.59" y="-753.65" font-family="Times,serif" font-size="14.00">41,151</text>
</g>
<!-- ucsc -->
<g id="node7" class="node">
<title>ucsc</title>
<ellipse fill="none" stroke="black" cx="363.42" cy="-719" rx="27.3" ry="18"/>
<text xml:space="preserve" text-anchor="middle" x="363.42" y="-713.95" font-family="Times,serif" font-size="14.00">ucsc</text>
</g>
<!-- ncbigene&#45;&#45;ucsc -->
<g id="edge6" class="edge">
<title>ncbigene&#45;&#45;ucsc</title>
<path fill="none" stroke="black" stroke-width="1.09" d="M173.92,-495.41C176.22,-533.29 186.72,-620.64 234.47,-671 261.56,-699.58 307.32,-711.28 336.14,-715.97"/>
<text xml:space="preserve" text-anchor="middle" x="256.59" y="-702.58" font-family="Times,serif" font-size="14.00">23,688</text>
</g>
<!-- vega -->
<g id="node8" class="node">
<title>vega</title>
<ellipse fill="none" stroke="black" cx="666.75" cy="-835" rx="28.32" ry="18"/>
<text xml:space="preserve" text-anchor="middle" x="666.75" y="-829.95" font-family="Times,serif" font-size="14.00">vega</text>
</g>
<!-- ncbigene&#45;&#45;vega -->
<g id="edge7" class="edge">
<title>ncbigene&#45;&#45;vega</title>
<path fill="none" stroke="black" stroke-width="1.12" d="M174.96,-495.41C180.52,-552.85 199.99,-727.48 234.47,-771 284.64,-834.34 551.1,-836.54 638.18,-835.53"/>
<text xml:space="preserve" text-anchor="middle" x="466.88" y="-835.25" font-family="Times,serif" font-size="14.00">31,506</text>
</g>
<!-- wikidata -->
<g id="node9" class="node">
<title>wikidata</title>
<ellipse fill="none" stroke="black" cx="546.28" cy="-634" rx="42.65" ry="18"/>
<text xml:space="preserve" text-anchor="middle" x="546.28" y="-628.95" font-family="Times,serif" font-size="14.00">wikidata</text>
</g>
<!-- ncbigene&#45;&#45;wikidata -->
<g id="edge8" class="edge">
<title>ncbigene&#45;&#45;wikidata</title>
<path fill="none" stroke="black" stroke-width="4" d="M185.13,-494.48C196.47,-510.32 214.74,-533.63 234.47,-550 258.89,-570.27 266.94,-574.01 296.72,-585 367.28,-611.03 454.48,-624.15 504.6,-629.99"/>
<text xml:space="preserve" text-anchor="middle" x="363.42" y="-622.28" font-family="Times,serif" font-size="14.00">787,425</text>
</g>
<!-- ena.embl -->
<g id="node10" class="node">
<title>ena.embl</title>
<ellipse fill="none" stroke="black" cx="363.42" cy="-558" rx="45.21" ry="18"/>
<text xml:space="preserve" text-anchor="middle" x="363.42" y="-552.95" font-family="Times,serif" font-size="14.00">ena.embl</text>
</g>
<!-- ncbigene&#45;&#45;ena.embl -->
<g id="edge9" class="edge">
<title>ncbigene&#45;&#45;ena.embl</title>
<path fill="none" stroke="black" stroke-width="1.07" d="M197.47,-492.14C208.52,-498.71 221.91,-506.21 234.47,-512 264.79,-526 300.69,-538.57 326.73,-547.02"/>
<text xml:space="preserve" text-anchor="middle" x="256.59" y="-532.41" font-family="Times,serif" font-size="14.00">18,909</text>
</g>
<!-- ncit -->
<g id="node11" class="node">
<title>ncit</title>
<ellipse fill="none" stroke="black" cx="363.42" cy="-504" rx="27" ry="18"/>
<text xml:space="preserve" text-anchor="middle" x="363.42" y="-498.95" font-family="Times,serif" font-size="14.00">ncit</text>
</g>
<!-- ncbigene&#45;&#45;ncit -->
<g id="edge10" class="edge">
<title>ncbigene&#45;&#45;ncit</title>
<path fill="none" stroke="black" stroke-width="1.02" d="M214.32,-482.86C251.48,-488.16 305.07,-495.81 336.57,-500.31"/>
<text xml:space="preserve" text-anchor="middle" x="256.59" y="-494.51" font-family="Times,serif" font-size="14.00">5,941</text>
</g>
<!-- orphanet -->
<g id="node12" class="node">
<title>orphanet</title>
<ellipse fill="none" stroke="black" cx="363.42" cy="-450" rx="43.16" ry="18"/>
<text xml:space="preserve" text-anchor="middle" x="363.42" y="-444.95" font-family="Times,serif" font-size="14.00">orphanet</text>
</g>
<!-- ncbigene&#45;&#45;orphanet -->
<g id="edge11" class="edge">
<title>ncbigene&#45;&#45;orphanet</title>
<path fill="none" stroke="black" stroke-width="1.02" d="M213.39,-469.87C220.41,-468.69 227.64,-467.52 234.47,-466.5 263.48,-462.14 296.31,-457.92 321.45,-454.84"/>
<text xml:space="preserve" text-anchor="middle" x="256.59" y="-469.7" font-family="Times,serif" font-size="14.00">4,397</text>
</g>
<!-- iuphar.receptor -->
<g id="node13" class="node">
<title>iuphar.receptor</title>
<ellipse fill="none" stroke="black" cx="363.42" cy="-396" rx="66.71" ry="18"/>
<text xml:space="preserve" text-anchor="middle" x="363.42" y="-390.95" font-family="Times,serif" font-size="14.00">iuphar.receptor</text>
</g>
<!-- ncbigene&#45;&#45;iuphar.receptor -->
<g id="edge12" class="edge">
<title>ncbigene&#45;&#45;iuphar.receptor</title>
<path fill="none" stroke="black" stroke-width="1.01" d="M196.49,-461.63C207.68,-454.63 221.46,-446.56 234.47,-440.5 261.11,-428.08 292.24,-417.18 317.13,-409.27"/>
<text xml:space="preserve" text-anchor="middle" x="256.59" y="-443.7" font-family="Times,serif" font-size="14.00">3,102</text>
</g>
<!-- civic.gid -->
<g id="node14" class="node">
<title>civic.gid</title>
<ellipse fill="none" stroke="black" cx="363.42" cy="-342" rx="43.16" ry="18"/>
<text xml:space="preserve" text-anchor="middle" x="363.42" y="-336.95" font-family="Times,serif" font-size="14.00">civic.gid</text>
</g>
<!-- ncbigene&#45;&#45;civic.gid -->
<g id="edge13" class="edge">
<title>ncbigene&#45;&#45;civic.gid</title>
<path fill="none" stroke="black" d="M184.76,-459.37C195.99,-443.12 214.3,-419.09 234.47,-402.5 262.55,-379.39 300.93,-362.78 328.31,-352.88"/>
<text xml:space="preserve" text-anchor="middle" x="256.59" y="-405.7" font-family="Times,serif" font-size="14.00">619</text>
</g>
<!-- mgi -->
<g id="node15" class="node">
<title>mgi</title>
<ellipse fill="none" stroke="black" cx="363.42" cy="-288" rx="27" ry="18"/>
<text xml:space="preserve" text-anchor="middle" x="363.42" y="-282.95" font-family="Times,serif" font-size="14.00">mgi</text>
</g>
<!-- ncbigene&#45;&#45;mgi -->
<g id="edge14" class="edge">
<title>ncbigene&#45;&#45;mgi</title>
<path fill="none" stroke="black" stroke-width="1.43" d="M178.82,-458.99C187.4,-433.39 205.95,-386.09 234.47,-354.5 262.82,-323.09 309.5,-304.17 337.95,-294.94"/>
<text xml:space="preserve" text-anchor="middle" x="256.59" y="-357.7" font-family="Times,serif" font-size="14.00">111,795</text>
</g>
<!-- cgnc -->
<g id="node16" class="node">
<title>cgnc</title>
<ellipse fill="none" stroke="black" cx="363.42" cy="-234" rx="28.32" ry="18"/>
<text xml:space="preserve" text-anchor="middle" x="363.42" y="-228.95" font-family="Times,serif" font-size="14.00">cgnc</text>
</g>
<!-- ncbigene&#45;&#45;cgnc -->
<g id="edge15" class="edge">
<title>ncbigene&#45;&#45;cgnc</title>
<path fill="none" stroke="black" stroke-width="1.1" d="M175.59,-458.58C180.73,-424.19 195.82,-349.33 234.47,-300.5 260.57,-267.52 307.52,-249.19 336.71,-240.48"/>
<text xml:space="preserve" text-anchor="middle" x="256.59" y="-303.7" font-family="Times,serif" font-size="14.00">26,025</text>
</g>
<!-- lncipedia -->
<g id="node17" class="node">
<title>lncipedia</title>
<ellipse fill="none" stroke="black" cx="363.42" cy="-180" rx="44.7" ry="18"/>
<text xml:space="preserve" text-anchor="middle" x="363.42" y="-174.95" font-family="Times,serif" font-size="14.00">lncipedia</text>
</g>
<!-- ncbigene&#45;&#45;lncipedia -->
<g id="edge16" class="edge">
<title>ncbigene&#45;&#45;lncipedia</title>
<path fill="none" stroke="black" stroke-width="1.01" d="M173.66,-458.52C175.42,-416.54 184.85,-312.47 234.47,-245.5 256.38,-215.92 295.52,-198.68 324.76,-189.39"/>
<text xml:space="preserve" text-anchor="middle" x="256.59" y="-248.7" font-family="Times,serif" font-size="14.00">2,431</text>
</g>
<!-- pseudogene -->
<g id="node18" class="node">
<title>pseudogene</title>
<ellipse fill="none" stroke="black" cx="363.42" cy="-126" rx="54.42" ry="18"/>
<text xml:space="preserve" text-anchor="middle" x="363.42" y="-120.95" font-family="Times,serif" font-size="14.00">pseudogene</text>
</g>
<!-- ncbigene&#45;&#45;pseudogene -->
<g id="edge17" class="edge">
<title>ncbigene&#45;&#45;pseudogene</title>
<path fill="none" stroke="black" stroke-width="1.03" d="M175.26,-458.81C181.64,-402.86 203.09,-234.5 234.47,-190.5 254.4,-162.55 290.02,-145.99 318.63,-136.66"/>
<text xml:space="preserve" text-anchor="middle" x="256.59" y="-193.7" font-family="Times,serif" font-size="14.00">8,216</text>
</g>
<!-- cosmic -->
<g id="node19" class="node">
<title>cosmic</title>
<ellipse fill="none" stroke="black" cx="363.42" cy="-72" rx="37.53" ry="18"/>
<text xml:space="preserve" text-anchor="middle" x="363.42" y="-66.95" font-family="Times,serif" font-size="14.00">cosmic</text>
</g>
<!-- ncbigene&#45;&#45;cosmic -->
<g id="edge18" class="edge">
<title>ncbigene&#45;&#45;cosmic</title>
<path fill="none" stroke="black" d="M174.48,-458.8C178.94,-395.64 196.34,-186.85 234.47,-133.5 256.53,-102.62 298.36,-86.64 328.18,-78.8"/>
<text xml:space="preserve" text-anchor="middle" x="256.59" y="-136.7" font-family="Times,serif" font-size="14.00">568</text>
</g>
<!-- iuphar.ligand -->
<g id="node20" class="node">
<title>iuphar.ligand</title>
<ellipse fill="none" stroke="black" cx="363.42" cy="-18" rx="59.54" ry="18"/>
<text xml:space="preserve" text-anchor="middle" x="363.42" y="-12.95" font-family="Times,serif" font-size="14.00">iuphar.ligand</text>
</g>
<!-- ncbigene&#45;&#45;iuphar.ligand -->
<g id="edge19" class="edge">
<title>ncbigene&#45;&#45;iuphar.ligand</title>
<path fill="none" stroke="black" d="M173.92,-458.77C176.71,-389.06 189.67,-140.14 234.47,-77.5 252.99,-51.59 285.7,-36.66 313.41,-28.23"/>
<text xml:space="preserve" text-anchor="middle" x="256.59" y="-80.7" font-family="Times,serif" font-size="14.00">465</text>
</g>
<!-- ensembl&#45;&#45;hgnc -->
<g id="edge20" class="edge">
<title>ensembl&#45;&#45;hgnc</title>
<path fill="none" stroke="black" d="M405.91,-865C440.01,-865 487.4,-865 517.2,-865"/>
<text xml:space="preserve" text-anchor="middle" x="466.88" y="-868.2" font-family="Times,serif" font-size="14.00">281</text>
</g>
<!-- hgnc&#45;&#45;vega -->
<g id="edge21" class="edge">
<title>hgnc&#45;&#45;vega</title>
<path fill="none" stroke="black" d="M573.57,-858.34C593.34,-853.34 620.29,-846.51 639.94,-841.54"/>
<text xml:space="preserve" text-anchor="middle" x="613.68" y="-852.3" font-family="Times,serif" font-size="14.00">69</text>
</g>
<!-- omim&#45;&#45;wikidata -->
<g id="edge22" class="edge">
<title>omim&#45;&#45;wikidata</title>
<path fill="none" stroke="black" stroke-width="1.03" d="M395.51,-659.67C426.11,-654.43 472.95,-646.4 506.08,-640.72"/>
<text xml:space="preserve" text-anchor="middle" x="466.88" y="-653.63" font-family="Times,serif" font-size="14.00">8,687</text>
</g>
</g>
</svg>
