<?xml version="1.0" encoding="UTF-8" standalone="no"?>
<!DOCTYPE svg PUBLIC "-//W3C//DTD SVG 1.1//EN"
 "http://www.w3.org/Graphics/SVG/1.1/DTD/svg11.dtd">
<!-- Generated by graphviz version 13.1.0 (20250701.0955)
 -->
<!-- Pages: 1 -->
<svg width="2326pt" height="2840pt"
 viewBox="0.00 0.00 2326.00 2840.00" xmlns="http://www.w3.org/2000/svg" xmlns:xlink="http://www.w3.org/1999/xlink">
<g id="graph0" class="graph" transform="scale(1 1) rotate(0) translate(4 2835.5)">
<polygon fill="white" stroke="none" points="-4,4 -4,-2835.5 2321.95,-2835.5 2321.95,4 -4,4"/>
<!-- hgnc
44,244 -->
<g id="node1" class="node">
<title>hgnc
44,244</title>
<ellipse fill="none" stroke="black" cx="37.83" cy="-1143" rx="37.83" ry="28.99"/>
<text xml:space="preserve" text-anchor="middle" x="37.83" y="-1146.2" font-family="Times,serif" font-size="14.00">hgnc</text>
<text xml:space="preserve" text-anchor="middle" x="37.83" y="-1129.7" font-family="Times,serif" font-size="14.00">44,244</text>
</g>
<!-- ccds -->
<g id="node2" class="node">
<title>ccds</title>
<ellipse fill="none" stroke="black" cx="176.46" cy="-1105" rx="27.3" ry="18"/>
<text xml:space="preserve" text-anchor="middle" x="176.46" y="-1099.95" font-family="Times,serif" font-size="14.00">ccds</text>
</g>
<!-- hgnc
44,244&#45;&#45;ccds -->
<g id="edge1" class="edge">
<title>hgnc
44,244&#45;&#45;ccds</title>
<path fill="none" stroke="black" d="M73.66,-1133.31C97.85,-1126.58 129.49,-1117.79 151.03,-1111.79"/>
<text xml:space="preserve" text-anchor="middle" x="112.41" y="-1130.6" font-family="Times,serif" font-size="14.00">16,543</text>
</g>
<!-- ena.embl -->
<g id="node3" class="node">
<title>ena.embl</title>
<ellipse fill="none" stroke="black" cx="322.46" cy="-1105" rx="45.21" ry="18"/>
<text xml:space="preserve" text-anchor="middle" x="322.46" y="-1099.95" font-family="Times,serif" font-size="14.00">ena.embl</text>
</g>
<!-- hgnc
44,244&#45;&#45;ena.embl -->
<g id="edge2" class="edge">
<title>hgnc
44,244&#45;&#45;ena.embl</title>
<path fill="none" stroke="black" d="M75.99,-1144.54C81.9,-1144.73 87.95,-1144.9 93.66,-1145 167.73,-1146.35 187.23,-1143.35 259.25,-1126 268.89,-1123.68 279.17,-1120.51 288.53,-1117.34"/>
<text xml:space="preserve" text-anchor="middle" x="176.46" y="-1147.9" font-family="Times,serif" font-size="14.00">20,683</text>
</g>
<!-- ensembl -->
<g id="node4" class="node">
<title>ensembl</title>
<ellipse fill="none" stroke="black" cx="483.31" cy="-1552" rx="42.14" ry="18"/>
<text xml:space="preserve" text-anchor="middle" x="483.31" y="-1546.95" font-family="Times,serif" font-size="14.00">ensembl</text>
</g>
<!-- hgnc
44,244&#45;&#45;ensembl -->
<g id="edge3" class="edge">
<title>hgnc
44,244&#45;&#45;ensembl</title>
<path fill="none" stroke="black" d="M39.13,-1172.31C41.03,-1345.71 52.73,-2231.01 93.66,-2270 137.75,-2312 321.35,-2309.52 367.67,-2270 477.88,-2176 482.62,-1673.49 482.42,-1570.47"/>
<text xml:space="preserve" text-anchor="middle" x="240.5" y="-2303.78" font-family="Times,serif" font-size="14.00">44,880</text>
</g>
<!-- iuphar.receptor -->
<g id="node5" class="node">
<title>iuphar.receptor</title>
<ellipse fill="none" stroke="black" cx="665.66" cy="-758" rx="66.71" ry="18"/>
<text xml:space="preserve" text-anchor="middle" x="665.66" y="-752.95" font-family="Times,serif" font-size="14.00">iuphar.receptor</text>
</g>
<!-- hgnc
44,244&#45;&#45;iuphar.receptor -->
<g id="edge4" class="edge">
<title>hgnc
44,244&#45;&#45;iuphar.receptor</title>
<path fill="none" stroke="black" d="M38.96,-1113.88C39.82,-988.56 46.19,-499.41 93.66,-452 216.97,-328.85 532.85,-518.01 580.95,-564 633.18,-613.94 654.59,-701.9 661.69,-739.79"/>
<text xml:space="preserve" text-anchor="middle" x="322.46" y="-447.77" font-family="Times,serif" font-size="14.00">3,109</text>
</g>
<!-- ncbigene
56,689,711 -->
<g id="node6" class="node">
<title>ncbigene
56,689,711</title>
<ellipse fill="none" stroke="black" cx="860.66" cy="-1806" rx="54.8" ry="28.99"/>
<text xml:space="preserve" text-anchor="middle" x="860.66" y="-1809.2" font-family="Times,serif" font-size="14.00">ncbigene</text>
<text xml:space="preserve" text-anchor="middle" x="860.66" y="-1792.7" font-family="Times,serif" font-size="14.00">56,689,711</text>
</g>
<!-- hgnc
44,244&#45;&#45;ncbigene
56,689,711 -->
<g id="edge5" class="edge">
<title>hgnc
44,244&#45;&#45;ncbigene
56,689,711</title>
<path fill="none" stroke="black" d="M38.78,-1172.46C38.67,-1342.15 40.81,-2190.8 93.66,-2293 114.86,-2334 129.3,-2357 175.46,-2357 175.46,-2357 175.46,-2357 405.42,-2357 586.12,-2357 677.25,-2361.89 787.86,-2219 814.23,-2184.94 798.73,-2068.48 805.86,-2026 817.52,-1956.59 839.18,-1876.69 851.15,-1834.9"/>
<text xml:space="preserve" text-anchor="middle" x="404.42" y="-2360.2" font-family="Times,serif" font-size="14.00">44,400</text>
</g>
<!-- omim
27,282 -->
<g id="node7" class="node">
<title>omim
27,282</title>
<ellipse fill="none" stroke="black" cx="1038.32" cy="-1376" rx="37.83" ry="28.99"/>
<text xml:space="preserve" text-anchor="middle" x="1038.32" y="-1379.2" font-family="Times,serif" font-size="14.00">omim</text>
<text xml:space="preserve" text-anchor="middle" x="1038.32" y="-1362.7" font-family="Times,serif" font-size="14.00">27,282</text>
</g>
<!-- hgnc
44,244&#45;&#45;omim
27,282 -->
<g id="edge6" class="edge">
<title>hgnc
44,244&#45;&#45;omim
27,282</title>
<path fill="none" stroke="black" d="M50.5,-1170.37C78.7,-1232.5 157.22,-1383.31 277.25,-1441 313.47,-1458.41 327.62,-1444.27 367.67,-1441 471.5,-1432.53 495.44,-1414.66 598.95,-1403 747.08,-1386.31 924.62,-1379.37 1000.26,-1377.02"/>
<text xml:space="preserve" text-anchor="middle" x="483.31" y="-1434.91" font-family="Times,serif" font-size="14.00">17,876</text>
</g>
<!-- refseq -->
<g id="node8" class="node">
<title>refseq</title>
<ellipse fill="none" stroke="black" cx="1187.86" cy="-1376" rx="33.44" ry="18"/>
<text xml:space="preserve" text-anchor="middle" x="1187.86" y="-1370.95" font-family="Times,serif" font-size="14.00">refseq</text>
</g>
<!-- hgnc
44,244&#45;&#45;refseq -->
<g id="edge7" class="edge">
<title>hgnc
44,244&#45;&#45;refseq</title>
<path fill="none" stroke="black" d="M44.2,-1114.15C61.39,-1030.3 123.26,-785.06 277.25,-666 384.16,-583.35 453.34,-607.04 580.95,-651.5 880.85,-755.98 1002.46,-813.05 1136.42,-1101 1178.19,-1190.78 1185.42,-1312.1 1186.63,-1357.68"/>
<text xml:space="preserve" text-anchor="middle" x="562.2" y="-654.7" font-family="Times,serif" font-size="14.00">42,303</text>
</g>
<!-- ucsc -->
<g id="node9" class="node">
<title>ucsc</title>
<ellipse fill="none" stroke="black" cx="1322.09" cy="-1762" rx="27.3" ry="18"/>
<text xml:space="preserve" text-anchor="middle" x="1322.09" y="-1756.95" font-family="Times,serif" font-size="14.00">ucsc</text>
</g>
<!-- hgnc
44,244&#45;&#45;ucsc -->
<g id="edge8" class="edge">
<title>hgnc
44,244&#45;&#45;ucsc</title>
<path fill="none" stroke="black" d="M39.08,-1172.48C40.71,-1345.14 51.01,-2221.65 93.66,-2333 114.2,-2386.62 118.04,-2433 175.46,-2433 175.46,-2433 175.46,-2433 563.2,-2433 795.22,-2433 886.33,-2492.36 1080.92,-2366 1118.22,-2341.78 1243.97,-2055.52 1276.8,-1949 1289.19,-1908.77 1285.12,-1896.97 1294.8,-1856 1301.11,-1829.28 1309.96,-1798.74 1315.61,-1779.91"/>
<text xml:space="preserve" text-anchor="middle" x="665.66" y="-2444.74" font-family="Times,serif" font-size="14.00">24,301</text>
</g>
<!-- vega -->
<g id="node10" class="node">
<title>vega</title>
<ellipse fill="none" stroke="black" cx="1457.96" cy="-1421" rx="28.32" ry="18"/>
<text xml:space="preserve" text-anchor="middle" x="1457.96" y="-1415.95" font-family="Times,serif" font-size="14.00">vega</text>
</g>
<!-- hgnc
44,244&#45;&#45;vega -->
<g id="edge9" class="edge">
<title>hgnc
44,244&#45;&#45;vega</title>
<path fill="none" stroke="black" d="M39.39,-1172.29C42.88,-1348.84 62.44,-2267.78 93.66,-2389 114.08,-2468.26 93.61,-2554 175.46,-2554 175.46,-2554 175.46,-2554 563.2,-2554 802.89,-2554 877.7,-2530.08 1080.92,-2403 1183.23,-2339.02 1225.64,-2324.29 1276.8,-2215 1301.16,-2162.95 1265.16,-2006.24 1294.8,-1957 1309.53,-1932.51 1332.46,-1946.03 1349.39,-1923 1414.65,-1834.2 1392.11,-1791.45 1411.64,-1683 1425.49,-1606.05 1413.85,-1584.58 1429.64,-1508 1434.69,-1483.5 1443.91,-1456.1 1450.23,-1438.72"/>
<text xml:space="preserve" text-anchor="middle" x="769.11" y="-2547.44" font-family="Times,serif" font-size="14.00">32,396</text>
</g>
<!-- orphanet -->
<g id="node11" class="node">
<title>orphanet</title>
<ellipse fill="none" stroke="black" cx="1620.95" cy="-827" rx="43.16" ry="18"/>
<text xml:space="preserve" text-anchor="middle" x="1620.95" y="-821.95" font-family="Times,serif" font-size="14.00">orphanet</text>
</g>
<!-- hgnc
44,244&#45;&#45;orphanet -->
<g id="edge10" class="edge">
<title>hgnc
44,244&#45;&#45;orphanet</title>
<path fill="none" stroke="black" d="M38.93,-1113.55C39.67,-994.92 45.66,-552.15 93.66,-422 114.99,-364.17 113.82,-310 175.46,-310 175.46,-310 175.46,-310 405.42,-310 779.41,-310 880.41,-362.16 1221.3,-516 1373.58,-584.72 1432.32,-580.97 1548.53,-701 1580.01,-733.52 1602.53,-782.6 1613.13,-808.88"/>
<text xml:space="preserve" text-anchor="middle" x="860.66" y="-387.44" font-family="Times,serif" font-size="14.00">4,418</text>
</g>
<!-- lrg -->
<g id="node12" class="node">
<title>lrg</title>
<ellipse fill="none" stroke="black" cx="176.46" cy="-1051" rx="27" ry="18"/>
<text xml:space="preserve" text-anchor="middle" x="176.46" y="-1045.95" font-family="Times,serif" font-size="14.00">lrg</text>
</g>
<!-- hgnc
44,244&#45;&#45;lrg -->
<g id="edge11" class="edge">
<title>hgnc
44,244&#45;&#45;lrg</title>
<path fill="none" stroke="black" d="M63.22,-1121.2C72.47,-1113.35 83.28,-1104.67 93.66,-1097.5 113.41,-1083.85 137.45,-1070.54 154.34,-1061.69"/>
<text xml:space="preserve" text-anchor="middle" x="112.41" y="-1100.7" font-family="Times,serif" font-size="14.00">1,325</text>
</g>
<!-- cosmic -->
<g id="node13" class="node">
<title>cosmic</title>
<ellipse fill="none" stroke="black" cx="1808.41" cy="-898" rx="37.53" ry="18"/>
<text xml:space="preserve" text-anchor="middle" x="1808.41" y="-892.95" font-family="Times,serif" font-size="14.00">cosmic</text>
</g>
<!-- hgnc
44,244&#45;&#45;cosmic -->
<g id="edge12" class="edge">
<title>hgnc
44,244&#45;&#45;cosmic</title>
<path fill="none" stroke="black" d="M39.02,-1113.66C40.13,-985.61 47.4,-475.4 93.66,-323 114.81,-253.31 102.62,-181 175.46,-181 175.46,-181 175.46,-181 770.11,-181 978.75,-181 1524.89,-285.48 1675.37,-430 1716.31,-469.31 1716.72,-490.04 1730.87,-545 1740.03,-580.56 1727.37,-845.23 1748.87,-875 1754.63,-882.97 1763.57,-888.18 1772.75,-891.58"/>
<text xml:space="preserve" text-anchor="middle" x="955.59" y="-202.52" font-family="Times,serif" font-size="14.00">569</text>
</g>
<!-- pseudogene -->
<g id="node14" class="node">
<title>pseudogene</title>
<ellipse fill="none" stroke="black" cx="1620.95" cy="-2411" rx="54.42" ry="18"/>
<text xml:space="preserve" text-anchor="middle" x="1620.95" y="-2405.95" font-family="Times,serif" font-size="14.00">pseudogene</text>
</g>
<!-- hgnc
44,244&#45;&#45;pseudogene -->
<g id="edge13" class="edge">
<title>hgnc
44,244&#45;&#45;pseudogene</title>
<path fill="none" stroke="black" d="M38.79,-1172.21C38.66,-1368.4 40.3,-2490.74 93.66,-2632 113.95,-2685.71 118.04,-2732 175.46,-2732 175.46,-2732 175.46,-2732 770.11,-2732 1055.49,-2732 1141.18,-2796.06 1411.64,-2705 1443.12,-2694.4 1526.45,-2669.82 1548.53,-2645 1605.55,-2580.89 1617.05,-2472.26 1619.37,-2429.29"/>
<text xml:space="preserve" text-anchor="middle" x="860.66" y="-2740.7" font-family="Times,serif" font-size="14.00">8,507</text>
</g>
<!-- iuphar.ligand -->
<g id="node15" class="node">
<title>iuphar.ligand</title>
<ellipse fill="none" stroke="black" cx="1808.41" cy="-1617" rx="59.54" ry="18"/>
<text xml:space="preserve" text-anchor="middle" x="1808.41" y="-1611.95" font-family="Times,serif" font-size="14.00">iuphar.ligand</text>
</g>
<!-- hgnc
44,244&#45;&#45;iuphar.ligand -->
<g id="edge14" class="edge">
<title>hgnc
44,244&#45;&#45;iuphar.ligand</title>
<path fill="none" stroke="black" d="M39.13,-1172.31C41.12,-1356.42 53.64,-2349.47 93.66,-2478 171.85,-2729.11 343.45,-2723.6 598.95,-2786 805.47,-2836.44 1397.24,-2819.35 1548.53,-2670 1798.04,-2423.69 1690.12,-2252.65 1748.87,-1907 1766.43,-1803.7 1793.18,-1680.88 1803.32,-1635.25"/>
<text xml:space="preserve" text-anchor="middle" x="955.59" y="-2814.35" font-family="Times,serif" font-size="14.00">470</text>
</g>
<!-- lncipedia -->
<g id="node16" class="node">
<title>lncipedia</title>
<ellipse fill="none" stroke="black" cx="1620.95" cy="-2077" rx="44.7" ry="18"/>
<text xml:space="preserve" text-anchor="middle" x="1620.95" y="-2071.95" font-family="Times,serif" font-size="14.00">lncipedia</text>
</g>
<!-- hgnc
44,244&#45;&#45;lncipedia -->
<g id="edge15" class="edge">
<title>hgnc
44,244&#45;&#45;lncipedia</title>
<path fill="none" stroke="black" d="M38.96,-1172.26C40,-1373.57 47.99,-2547.33 93.66,-2606 116.93,-2635.9 137.57,-2630 175.46,-2630 175.46,-2630 175.46,-2630 563.2,-2630 794.84,-2630 866.7,-2658.13 1080.92,-2570 1203.46,-2519.59 1481.94,-2314.56 1548.53,-2200 1571.22,-2160.96 1538.44,-2135.36 1566.53,-2100 1570.92,-2094.46 1576.91,-2090.24 1583.29,-2087.02"/>
<text xml:space="preserve" text-anchor="middle" x="860.66" y="-2637.11" font-family="Times,serif" font-size="14.00">2,433</text>
</g>
<!-- civic.gid
903 -->
<g id="node17" class="node">
<title>civic.gid
903</title>
<ellipse fill="none" stroke="black" cx="1986.18" cy="-973" rx="44.72" ry="28.99"/>
<text xml:space="preserve" text-anchor="middle" x="1986.18" y="-976.2" font-family="Times,serif" font-size="14.00">civic.gid</text>
<text xml:space="preserve" text-anchor="middle" x="1986.18" y="-959.7" font-family="Times,serif" font-size="14.00">903</text>
</g>
<!-- hgnc
44,244&#45;&#45;civic.gid
903 -->
<g id="edge16" class="edge">
<title>hgnc
44,244&#45;&#45;civic.gid
903</title>
<path fill="none" stroke="black" d="M39.47,-1113.59C42.91,-962.99 60.21,-281.7 93.66,-194 114.5,-139.38 117,-91 175.46,-91 175.46,-91 175.46,-91 956.59,-91 1379.55,-91 1631.42,-14.36 1867.95,-365 1994.3,-552.3 1891.56,-647.65 1941.45,-868 1947.65,-895.35 1960.42,-924.66 1970.57,-945.35"/>
<text xml:space="preserve" text-anchor="middle" x="1038.32" y="-93.96" font-family="Times,serif" font-size="14.00">623</text>
</g>
<!-- ncit
12,711 -->
<g id="node18" class="node">
<title>ncit
12,711</title>
<ellipse fill="none" stroke="black" cx="2124.98" cy="-1306" rx="37.83" ry="28.99"/>
<text xml:space="preserve" text-anchor="middle" x="2124.98" y="-1309.2" font-family="Times,serif" font-size="14.00">ncit</text>
<text xml:space="preserve" text-anchor="middle" x="2124.98" y="-1292.7" font-family="Times,serif" font-size="14.00">12,711</text>
</g>
<!-- hgnc
44,244&#45;&#45;ncit
12,711 -->
<g id="edge17" class="edge">
<title>hgnc
44,244&#45;&#45;ncit
12,711</title>
<path fill="none" stroke="black" d="M38.88,-1113.53C39.35,-953.71 44.17,-194.74 93.66,-104 115.12,-64.65 130.63,-45 175.46,-45 175.46,-45 175.46,-45 1259.05,-45 1618.29,-45 1874.4,38.36 2030.9,-285 2122.01,-473.25 2057.02,-545.22 2069.15,-754 2072.49,-811.49 2063.14,-1219.65 2087.15,-1272 2089.55,-1277.22 2093.16,-1282.01 2097.19,-1286.24"/>
<text xml:space="preserve" text-anchor="middle" x="1117.67" y="-48.2" font-family="Times,serif" font-size="14.00">5,978</text>
</g>
<!-- wikidata
797,957 -->
<g id="node19" class="node">
<title>wikidata
797,957</title>
<ellipse fill="none" stroke="black" cx="2273.76" cy="-1882" rx="44.19" ry="28.99"/>
<text xml:space="preserve" text-anchor="middle" x="2273.76" y="-1885.2" font-family="Times,serif" font-size="14.00">wikidata</text>
<text xml:space="preserve" text-anchor="middle" x="2273.76" y="-1868.7" font-family="Times,serif" font-size="14.00">797,957</text>
</g>
<!-- hgnc
44,244&#45;&#45;wikidata
797,957 -->
<g id="edge18" class="edge">
<title>hgnc
44,244&#45;&#45;wikidata
797,957</title>
<path fill="none" stroke="black" d="M38.71,-1113.64C38.26,-949.16 38.87,-146.08 93.66,-52 115.34,-14.77 132.38,0 175.46,0 175.46,0 175.46,0 2125.98,0 2178.91,0 2188.48,-130.08 2211.56,-316 2250.53,-629.89 2269.19,-1665.32 2272.29,-1852.77"/>
<text xml:space="preserve" text-anchor="middle" x="1187.86" y="-3.2" font-family="Times,serif" font-size="14.00">44,670</text>
</g>
<!-- ccds&#45;&#45;ena.embl -->
<g id="edge19" class="edge">
<title>ccds&#45;&#45;ena.embl</title>
<path fill="none" stroke="black" d="M204.21,-1105C224.62,-1105 253.2,-1105 277.03,-1105"/>
<text xml:space="preserve" text-anchor="middle" x="240.5" y="-1108.2" font-family="Times,serif" font-size="14.00">8,240</text>
</g>
<!-- ccds&#45;&#45;ensembl -->
<g id="edge20" class="edge">
<title>ccds&#45;&#45;ensembl</title>
<path fill="none" stroke="black" d="M192.88,-1119.84C196.9,-1124.39 200.9,-1129.61 203.75,-1135 218.6,-1163 208,-1175.45 221.75,-1204 290.05,-1345.77 419.94,-1487.45 465.78,-1535.15"/>
<text xml:space="preserve" text-anchor="middle" x="322.46" y="-1423.95" font-family="Times,serif" font-size="14.00">11,946</text>
</g>
<!-- ccds&#45;&#45;iuphar.receptor -->
<g id="edge21" class="edge">
<title>ccds&#45;&#45;iuphar.receptor</title>
<path fill="none" stroke="black" d="M194.48,-1090.97C198.11,-1087.14 201.52,-1082.73 203.75,-1078 234.7,-1012.5 197.62,-984.3 221.75,-916 266.83,-788.44 267.01,-724.49 385.67,-659.5 477.13,-609.41 598.96,-700.7 645.49,-740.64"/>
<text xml:space="preserve" text-anchor="middle" x="404.42" y="-662.7" font-family="Times,serif" font-size="14.00">1,516</text>
</g>
<!-- ccds&#45;&#45;ncbigene
56,689,711 -->
<g id="edge22" class="edge">
<title>ccds&#45;&#45;ncbigene
56,689,711</title>
<path fill="none" stroke="black" d="M193.23,-1119.67C197.26,-1124.21 201.17,-1129.48 203.75,-1135 225.67,-1181.86 210.51,-1199.5 221.75,-1250 281.71,-1519.34 319.98,-1619.14 543.45,-1781 632.78,-1845.7 678.4,-1837.51 787.86,-1824 795.77,-1823.02 804.06,-1821.46 812.08,-1819.66"/>
<text xml:space="preserve" text-anchor="middle" x="483.31" y="-1770.07" font-family="Times,serif" font-size="14.00">10,617</text>
</g>
<!-- ccds&#45;&#45;omim
27,282 -->
<g id="edge23" class="edge">
<title>ccds&#45;&#45;omim
27,282</title>
<path fill="none" stroke="black" d="M198.81,-1115.9C206,-1119.36 214.13,-1123.05 221.75,-1126 292.78,-1153.5 310.34,-1164.77 385.67,-1176 473.34,-1189.07 493.95,-1118.55 580.95,-1135.5 738.4,-1166.18 778.55,-1187.42 915.46,-1271 953.84,-1294.43 992.14,-1329.92 1015.28,-1353.03"/>
<text xml:space="preserve" text-anchor="middle" x="562.2" y="-1138.7" font-family="Times,serif" font-size="14.00">8,662</text>
</g>
<!-- ccds&#45;&#45;refseq -->
<g id="edge24" class="edge">
<title>ccds&#45;&#45;refseq</title>
<path fill="none" stroke="black" d="M198.96,-1094.43C236,-1076.86 314.7,-1042.39 385.67,-1030 496.23,-1010.7 489.86,-1019.03 732.36,-1093.5 766.17,-1103.88 772.31,-1112.82 805.86,-1124 853.56,-1139.9 868.67,-1133.62 915.46,-1152 993.38,-1182.6 1016.28,-1188.81 1080.92,-1242 1110.78,-1266.57 1112.45,-1278.66 1136.42,-1309 1149.69,-1325.8 1164.35,-1345.39 1174.43,-1359.04"/>
<text xml:space="preserve" text-anchor="middle" x="665.66" y="-1096.7" font-family="Times,serif" font-size="14.00">10,592</text>
</g>
<!-- ccds&#45;&#45;ucsc -->
<g id="edge25" class="edge">
<title>ccds&#45;&#45;ucsc</title>
<path fill="none" stroke="black" d="M193.73,-1119.46C197.77,-1123.99 201.56,-1129.31 203.75,-1135 224.9,-1189.79 194,-2140.24 221.75,-2192 224.37,-2196.87 380.45,-2303.19 385.67,-2305 458.79,-2330.28 1023.22,-2394.54 1080.92,-2343 1107.44,-2319.31 1087.14,-2217.55 1098.92,-2184 1148.02,-2044.19 1214.41,-2036.41 1276.8,-1902 1287.07,-1879.86 1306.76,-1812.5 1316.03,-1779.97"/>
<text xml:space="preserve" text-anchor="middle" x="769.11" y="-2359.64" font-family="Times,serif" font-size="14.00">10,084</text>
</g>
<!-- ccds&#45;&#45;vega -->
<g id="edge26" class="edge">
<title>ccds&#45;&#45;vega</title>
<path fill="none" stroke="black" d="M192.47,-1090.12C196.23,-1086.24 200.21,-1082.03 203.75,-1078 259.3,-1014.93 237.42,-930 321.46,-930 321.46,-930 321.46,-930 563.2,-930 821.22,-930 908.38,-901.27 1136.42,-1022 1177.93,-1043.98 1338.62,-1208.94 1411.64,-1323 1422.59,-1340.1 1421.18,-1346.53 1429.64,-1365 1435.67,-1378.18 1442.88,-1392.91 1448.37,-1403.95"/>
<text xml:space="preserve" text-anchor="middle" x="860.66" y="-941.45" font-family="Times,serif" font-size="14.00">10,534</text>
</g>
<!-- ccds&#45;&#45;orphanet -->
<g id="edge27" class="edge">
<title>ccds&#45;&#45;orphanet</title>
<path fill="none" stroke="black" d="M194.64,-1091.04C198.26,-1087.21 201.63,-1082.78 203.75,-1078 228.91,-1021.43 207.72,-860.3 221.75,-800 236.37,-737.22 227.68,-707.21 277.25,-666 315.13,-634.51 336.83,-649.38 385.67,-643 871.23,-579.59 1050.97,-469.73 1486.28,-694 1540.99,-722.19 1587.43,-780.7 1608.25,-809.8"/>
<text xml:space="preserve" text-anchor="middle" x="955.59" y="-564.97" font-family="Times,serif" font-size="14.00">2,037</text>
</g>
<!-- ccds&#45;&#45;cosmic -->
<g id="edge28" class="edge">
<title>ccds&#45;&#45;cosmic</title>
<path fill="none" stroke="black" d="M194.7,-1091.07C198.33,-1087.24 201.67,-1082.8 203.75,-1078 239.02,-996.55 190.1,-761.92 221.75,-679 249.26,-606.93 373,-446.09 441.17,-410 550.5,-352.12 872.32,-370.3 995.71,-361.5 1180.32,-348.34 1236.07,-282.43 1411.64,-341 1499.1,-370.18 1696.73,-520.35 1730.87,-606 1753.06,-661.65 1713.5,-826.65 1748.87,-875 1754.68,-882.93 1763.63,-888.13 1772.81,-891.53"/>
<text xml:space="preserve" text-anchor="middle" x="1038.32" y="-364.7" font-family="Times,serif" font-size="14.00">212</text>
</g>
<!-- ccds&#45;&#45;pseudogene -->
<g id="edge29" class="edge">
<title>ccds&#45;&#45;pseudogene</title>
<path fill="none" stroke="black" d="M193.73,-1119.46C197.77,-1123.99 201.56,-1129.31 203.75,-1135 247.03,-1247.18 176.98,-2105.41 221.75,-2217 234.48,-2248.71 301.97,-2337.67 441.17,-2447 586.72,-2561.31 630.08,-2590.1 805.86,-2648 933.95,-2690.19 1290.77,-2743.81 1411.64,-2684 1523.58,-2628.61 1591.82,-2481.05 1612.91,-2429.27"/>
<text xml:space="preserve" text-anchor="middle" x="955.59" y="-2690.1" font-family="Times,serif" font-size="14.00">65</text>
</g>
<!-- ccds&#45;&#45;iuphar.ligand -->
<g id="edge30" class="edge">
<title>ccds&#45;&#45;iuphar.ligand</title>
<path fill="none" stroke="black" d="M193.47,-1119.56C197.5,-1124.1 201.36,-1129.4 203.75,-1135 239.52,-1218.7 206.38,-1249.29 221.75,-1339 238.5,-1436.69 240.58,-1462.91 277.25,-1555 386.3,-1828.86 390.52,-1926.55 598.95,-2135 733.39,-2269.45 807.72,-2266.55 995.71,-2295 1033.16,-2300.67 1051.89,-2319.32 1080.92,-2295 1115.88,-2265.72 1065.1,-2224.58 1098.92,-2194 1119.62,-2175.28 1322.34,-2181.88 1349.39,-2175 1378.79,-2167.52 1392.81,-2170.79 1411.64,-2147 1437.77,-2113.99 1410.71,-2091.61 1429.64,-2054 1449.15,-2015.24 1661.2,-1795.11 1693.37,-1766 1708.8,-1752.05 1717.25,-1753.71 1730.87,-1738 1741.82,-1725.38 1740.24,-1719.3 1748.87,-1705 1763.86,-1680.18 1782.65,-1652.48 1794.83,-1634.9"/>
<text xml:space="preserve" text-anchor="middle" x="1038.32" y="-2310.38" font-family="Times,serif" font-size="14.00">306</text>
</g>
<!-- ccds&#45;&#45;civic.gid
903 -->
<g id="edge31" class="edge">
<title>ccds&#45;&#45;civic.gid
903</title>
<path fill="none" stroke="black" d="M194.73,-1091.08C198.35,-1087.25 201.69,-1082.81 203.75,-1078 224.4,-1029.87 212.74,-658.59 221.75,-607 231.22,-552.79 244.41,-541.99 259.25,-489 268.38,-456.41 252.98,-438.59 277.25,-415 388.39,-306.96 1025.24,-324.41 1098.92,-319.5 1354.62,-302.46 1440.11,-231.38 1675.37,-333 1828.62,-399.2 1871.1,-456.49 1923.45,-615 1962.52,-733.28 1978.05,-882.13 1983.1,-943.99"/>
<text xml:space="preserve" text-anchor="middle" x="1117.67" y="-322.7" font-family="Times,serif" font-size="14.00">252</text>
</g>
<!-- ccds&#45;&#45;ncit
12,711 -->
<g id="edge32" class="edge">
<title>ccds&#45;&#45;ncit
12,711</title>
<path fill="none" stroke="black" d="M194.75,-1091.09C198.37,-1087.26 201.71,-1082.82 203.75,-1078 229.21,-1018.04 207.17,-555.49 221.75,-492 235.27,-433.15 230.74,-406.5 277.25,-368 279.18,-366.41 975.8,-203.61 977.71,-202 993.26,-188.93 979.36,-172.04 995.71,-160 1052.82,-117.95 1083.78,-149.78 1154.42,-143.5 1385.44,-122.95 1450.97,-54.37 1675.37,-113 2061.11,-213.78 2009.34,-524.82 2069.15,-919 2080.94,-996.66 2053.83,-1200.87 2087.15,-1272 2089.59,-1277.2 2093.22,-1281.98 2097.26,-1286.21"/>
<text xml:space="preserve" text-anchor="middle" x="1187.86" y="-146.7" font-family="Times,serif" font-size="14.00">2,762</text>
</g>
<!-- ccds&#45;&#45;wikidata
797,957 -->
<g id="edge33" class="edge">
<title>ccds&#45;&#45;wikidata
797,957</title>
<path fill="none" stroke="black" d="M193.74,-1119.45C197.77,-1123.99 201.56,-1129.31 203.75,-1135 227.37,-1196.34 192.79,-2259 221.75,-2318 258.02,-2391.87 729.77,-2727.87 805.86,-2758 899.82,-2795.21 1155.99,-2815 1257.05,-2815 1257.05,-2815 1257.05,-2815 2125.98,-2815 2180.54,-2815 2192.26,-2778.03 2211.56,-2727 2269.85,-2572.92 2272.99,-2041.53 2272.86,-1911.09"/>
<text xml:space="preserve" text-anchor="middle" x="1258.05" y="-2818.2" font-family="Times,serif" font-size="14.00">10,649</text>
</g>
<!-- ena.embl&#45;&#45;ensembl -->
<g id="edge34" class="edge">
<title>ena.embl&#45;&#45;ensembl</title>
<path fill="none" stroke="black" d="M331.32,-1122.93C348.99,-1163.64 392.72,-1266.31 423.17,-1354.5 432.47,-1381.42 433.05,-1388.7 441.17,-1416 453.77,-1458.32 468.86,-1507.95 476.8,-1533.98"/>
<text xml:space="preserve" text-anchor="middle" x="404.42" y="-1357.7" font-family="Times,serif" font-size="14.00">20,209</text>
</g>
<!-- ena.embl&#45;&#45;iuphar.receptor -->
<g id="edge35" class="edge">
<title>ena.embl&#45;&#45;iuphar.receptor</title>
<path fill="none" stroke="black" d="M333.57,-1087.2C345.36,-1066.85 365.77,-1032.74 385.67,-1005 408.31,-973.44 413.55,-964.81 441.17,-937.5 507.88,-871.55 597.52,-805.4 640.15,-775.1"/>
<text xml:space="preserve" text-anchor="middle" x="483.31" y="-940.7" font-family="Times,serif" font-size="14.00">2,586</text>
</g>
<!-- ena.embl&#45;&#45;ncbigene
56,689,711 -->
<g id="edge36" class="edge">
<title>ena.embl&#45;&#45;ncbigene
56,689,711</title>
<path fill="none" stroke="black" d="M327.68,-1123.32C341.54,-1183.55 384.89,-1371.87 385.67,-1375 408.56,-1466.13 398.16,-1495.46 441.17,-1579 491.89,-1677.5 502.13,-1718.15 598.95,-1772 663.57,-1807.94 750.81,-1812.01 806.16,-1810.15"/>
<text xml:space="preserve" text-anchor="middle" x="562.2" y="-1764.18" font-family="Times,serif" font-size="14.00">19,054</text>
</g>
<!-- ena.embl&#45;&#45;omim
27,282 -->
<g id="edge37" class="edge">
<title>ena.embl&#45;&#45;omim
27,282</title>
<path fill="none" stroke="black" d="M353.11,-1118.5C395.13,-1137.47 474.59,-1172.76 543.45,-1200 706.87,-1264.64 770.81,-1234.2 915.46,-1334 925.58,-1340.98 922.86,-1348.78 933.46,-1355 953.61,-1366.83 979.33,-1372.09 1000.13,-1374.39"/>
<text xml:space="preserve" text-anchor="middle" x="665.66" y="-1255.66" font-family="Times,serif" font-size="14.00">14,199</text>
</g>
<!-- ena.embl&#45;&#45;refseq -->
<g id="edge38" class="edge">
<title>ena.embl&#45;&#45;refseq</title>
<path fill="none" stroke="black" d="M367.93,-1104.13C443.68,-1103.55 602.2,-1106.33 732.36,-1135 817.29,-1153.71 837.26,-1165.96 915.46,-1204 1018.74,-1254.24 1041.33,-1273.59 1136.42,-1338 1147.13,-1345.26 1158.68,-1353.9 1168.03,-1361.1"/>
<text xml:space="preserve" text-anchor="middle" x="769.11" y="-1151.9" font-family="Times,serif" font-size="14.00">18,273</text>
</g>
<!-- ena.embl&#45;&#45;ucsc -->
<g id="edge39" class="edge">
<title>ena.embl&#45;&#45;ucsc</title>
<path fill="none" stroke="black" d="M328.42,-1123.12C337.52,-1157 356.93,-1232.38 367.67,-1297 394.8,-1460.24 362.36,-1516.49 441.17,-1662 474.39,-1723.32 486.97,-1740.09 543.45,-1781 763.01,-1940.02 866.8,-1952.28 1136.42,-1924 1202.59,-1917.06 1233.83,-1922.8 1276.8,-1872 1299.93,-1844.65 1312.08,-1803.66 1317.49,-1780.21"/>
<text xml:space="preserve" text-anchor="middle" x="860.66" y="-1938.19" font-family="Times,serif" font-size="14.00">16,093</text>
</g>
<!-- ena.embl&#45;&#45;vega -->
<g id="edge40" class="edge">
<title>ena.embl&#45;&#45;vega</title>
<path fill="none" stroke="black" d="M356.41,-1092.66C453.32,-1058.15 745.25,-967.08 977.71,-1028.5 1052.69,-1048.31 1074.04,-1054.93 1136.42,-1101 1221.6,-1163.91 1220.32,-1203.72 1294.8,-1279 1325.46,-1310 1334.63,-1316.22 1367.39,-1345 1392.36,-1366.94 1421.85,-1391.75 1439.97,-1406.88"/>
<text xml:space="preserve" text-anchor="middle" x="955.59" y="-1031.7" font-family="Times,serif" font-size="14.00">17,798</text>
</g>
<!-- ena.embl&#45;&#45;orphanet -->
<g id="edge41" class="edge">
<title>ena.embl&#45;&#45;orphanet</title>
<path fill="none" stroke="black" d="M329.65,-1087.15C339.94,-1058.18 361.79,-999.37 385.67,-952 447.12,-830.11 473.25,-784.21 598.95,-731 962.29,-577.2 1093.45,-667.22 1486.28,-704 1514.11,-706.61 1525.11,-697.74 1548.53,-713 1583.75,-735.95 1604.75,-782.98 1614.12,-808.89"/>
<text xml:space="preserve" text-anchor="middle" x="1038.32" y="-653.32" font-family="Times,serif" font-size="14.00">3,609</text>
</g>
<!-- ena.embl&#45;&#45;cosmic -->
<g id="edge42" class="edge">
<title>ena.embl&#45;&#45;cosmic</title>
<path fill="none" stroke="black" d="M327.15,-1086.89C335.38,-1047.8 356.81,-952.94 385.67,-877 405.41,-825.07 411.51,-811.97 441.17,-765 480.43,-702.84 482.27,-675.76 543.45,-635 644.19,-567.87 686.34,-581.19 805.86,-562 996.76,-531.36 1526.69,-468.42 1675.37,-592 1728.76,-636.37 1713.9,-670.69 1730.87,-738 1738.38,-767.77 1729.96,-850.81 1748.87,-875 1754.93,-882.74 1763.96,-887.88 1773.13,-891.3"/>
<text xml:space="preserve" text-anchor="middle" x="1117.67" y="-530.43" font-family="Times,serif" font-size="14.00">461</text>
</g>
<!-- ena.embl&#45;&#45;pseudogene -->
<g id="edge43" class="edge">
<title>ena.embl&#45;&#45;pseudogene</title>
<path fill="none" stroke="black" d="M329.01,-1123.31C338.98,-1157.2 359.64,-1232.16 367.67,-1297 379.78,-1394.72 360.03,-2087.93 385.67,-2183 411.35,-2278.17 596.3,-2492.97 598.95,-2495 668.86,-2548.6 699.8,-2557.52 787.86,-2555 1099.48,-2546.07 1181.04,-2553.37 1486.28,-2490 1514.48,-2484.15 1523.17,-2485.66 1548.53,-2472 1569.78,-2460.55 1590.33,-2441.95 1603.89,-2428.3"/>
<text xml:space="preserve" text-anchor="middle" x="1038.32" y="-2552.87" font-family="Times,serif" font-size="14.00">922</text>
</g>
<!-- ena.embl&#45;&#45;iuphar.ligand -->
<g id="edge44" class="edge">
<title>ena.embl&#45;&#45;iuphar.ligand</title>
<path fill="none" stroke="black" d="M328.66,-1123.08C338.14,-1156.9 358.16,-1232.19 367.67,-1297 385.52,-1418.62 366.69,-1451.55 385.67,-1573 446.28,-1960.67 389.11,-2223.85 750.36,-2377 1051.5,-2504.66 1221.63,-2565.2 1486.28,-2373 1497.65,-2364.74 1494.14,-2356.73 1504.28,-2347 1521.07,-2330.89 1532.33,-2335.71 1548.53,-2319 1625.75,-2239.34 1633.46,-2206.73 1675.37,-2104 1688,-2073.06 1684.94,-2063.33 1693.37,-2031 1733.47,-1877.35 1785.79,-1692.78 1802.24,-1635.11"/>
<text xml:space="preserve" text-anchor="middle" x="1117.67" y="-2498.37" font-family="Times,serif" font-size="14.00">354</text>
</g>
<!-- ena.embl&#45;&#45;lncipedia -->
<g id="edge45" class="edge">
<title>ena.embl&#45;&#45;lncipedia</title>
<path fill="none" stroke="black" d="M329,-1123.31C338.96,-1157.2 359.6,-1232.17 367.67,-1297 379.13,-1388.98 356.78,-2042.93 385.67,-2131 430.61,-2267.98 517.9,-2260.35 580.95,-2390 595.38,-2419.66 573.86,-2440.59 598.95,-2462 689.89,-2539.58 1028.56,-2491.53 1136.42,-2440 1213.07,-2403.38 1223.69,-2379.47 1294.8,-2333 1407.6,-2259.28 1451.12,-2260.13 1548.53,-2167 1572.32,-2144.26 1595.11,-2113.44 1608.31,-2094.41"/>
<text xml:space="preserve" text-anchor="middle" x="1038.32" y="-2483.92" font-family="Times,serif" font-size="14.00">958</text>
</g>
<!-- ena.embl&#45;&#45;civic.gid
903 -->
<g id="edge46" class="edge">
<title>ena.embl&#45;&#45;civic.gid
903</title>
<path fill="none" stroke="black" d="M325.9,-1086.67C336.49,-1009.65 380.62,-712.98 441.17,-644 562.57,-505.72 629.03,-498.89 805.86,-448 1177.52,-341.03 1316.97,-336.69 1675.37,-482 1767.13,-519.2 1805.51,-517.16 1867.95,-594 1955.59,-701.83 1977.9,-875.09 1983.42,-943.68"/>
<text xml:space="preserve" text-anchor="middle" x="1187.86" y="-376.1" font-family="Times,serif" font-size="14.00">495</text>
</g>
<!-- ena.embl&#45;&#45;ncit
12,711 -->
<g id="edge47" class="edge">
<title>ena.embl&#45;&#45;ncit
12,711</title>
<path fill="none" stroke="black" d="M347.42,-1089.74C358.87,-1082.61 372.84,-1074.14 385.67,-1067 409.81,-1053.57 415.87,-1050.09 441.17,-1039 607.91,-965.92 1047.23,-735.71 1221.3,-789 1249.76,-797.72 1254.48,-806.8 1276.8,-826.5 1382.82,-920.09 1413.73,-944.61 1486.28,-1066 1497.97,-1085.56 1487.45,-1098.64 1504.28,-1114 1575.62,-1179.12 1831.68,-1198.87 1923.45,-1229 1983.51,-1248.72 2051.95,-1276.08 2091.34,-1292.32"/>
<text xml:space="preserve" text-anchor="middle" x="1258.05" y="-829.7" font-family="Times,serif" font-size="14.00">4,730</text>
</g>
<!-- ena.embl&#45;&#45;wikidata
797,957 -->
<g id="edge48" class="edge">
<title>ena.embl&#45;&#45;wikidata
797,957</title>
<path fill="none" stroke="black" d="M323.08,-1086.69C322.34,-1023.11 324.72,-806.84 385.67,-643 401.4,-600.71 408.55,-589.16 441.17,-558 458.51,-541.44 781.62,-356.99 805.86,-346 1261.4,-139.58 1403.58,-99 1903.7,-99 1903.7,-99 1903.7,-99 2125.98,-99 2217.8,-99 2265.24,-1620.72 2271.93,-1852.54"/>
<text xml:space="preserve" text-anchor="middle" x="1322.09" y="-158.92" font-family="Times,serif" font-size="14.00">19,123</text>
</g>
<!-- ensembl&#45;&#45;iuphar.receptor -->
<g id="edge49" class="edge">
<title>ensembl&#45;&#45;iuphar.receptor</title>
<path fill="none" stroke="black" d="M491.19,-1533.84C500.64,-1508.05 517.38,-1459.16 525.45,-1416 535.14,-1364.19 516.19,-1224.61 543.45,-1179.5 553.62,-1162.67 570.2,-1172.47 580.95,-1156 611.14,-1109.73 588.52,-1087.26 598.95,-1033 617.72,-935.39 647.91,-820.13 659.71,-776.22"/>
<text xml:space="preserve" text-anchor="middle" x="562.2" y="-1182.7" font-family="Times,serif" font-size="14.00">3,532</text>
</g>
<!-- ensembl&#45;&#45;ncbigene
56,689,711 -->
<g id="edge50" class="edge">
<title>ensembl&#45;&#45;ncbigene
56,689,711</title>
<path fill="none" stroke="black" d="M493.69,-1569.68C503.99,-1587.82 521.97,-1616.02 543.45,-1635 627.75,-1709.49 750.1,-1763.86 815.13,-1789.51"/>
<text xml:space="preserve" text-anchor="middle" x="665.66" y="-1755.19" font-family="Times,serif" font-size="14.00">174,378</text>
</g>
<!-- ensembl&#45;&#45;omim
27,282 -->
<g id="edge51" class="edge">
<title>ensembl&#45;&#45;omim
27,282</title>
<path fill="none" stroke="black" d="M494.75,-1534.24C505.14,-1518.09 522.52,-1494.72 543.45,-1481 637.03,-1419.64 681.07,-1387.06 787.86,-1420.5 797.16,-1423.41 796.57,-1430.09 805.86,-1433 852.35,-1447.56 866.77,-1434.17 915.46,-1433 943.15,-1432.33 952.12,-1440.59 977.71,-1430 986.23,-1426.48 1001.81,-1412.23 1014.91,-1399.26"/>
<text xml:space="preserve" text-anchor="middle" x="769.11" y="-1423.7" font-family="Times,serif" font-size="14.00">19,508</text>
</g>
<!-- ensembl&#45;&#45;refseq -->
<g id="edge52" class="edge">
<title>ensembl&#45;&#45;refseq</title>
<path fill="none" stroke="black" d="M491.52,-1534.07C506.03,-1500.75 542.32,-1430.21 598.95,-1403 696.37,-1356.2 974.44,-1319.48 1080.92,-1338 1109.6,-1342.99 1140.78,-1355.04 1161.84,-1364.25"/>
<text xml:space="preserve" text-anchor="middle" x="860.66" y="-1353.51" font-family="Times,serif" font-size="14.00">43,087</text>
</g>
<!-- ensembl&#45;&#45;ucsc -->
<g id="edge53" class="edge">
<title>ensembl&#45;&#45;ucsc</title>
<path fill="none" stroke="black" d="M514.22,-1564.55C518.5,-1567.44 522.46,-1570.9 525.45,-1575 549.01,-1607.22 530.27,-1625.32 543.45,-1663 561.39,-1714.32 557.99,-1736.26 598.95,-1772 672.32,-1836.01 712.16,-1817.52 805.86,-1844 1007.28,-1900.93 1102.51,-1962.91 1276.8,-1847 1299.94,-1831.61 1311.74,-1800.13 1317.14,-1780.1"/>
<text xml:space="preserve" text-anchor="middle" x="955.59" y="-1898.46" font-family="Times,serif" font-size="14.00">26,262</text>
</g>
<!-- ensembl&#45;&#45;vega -->
<g id="edge54" class="edge">
<title>ensembl&#45;&#45;vega</title>
<path fill="none" stroke="black" d="M506.98,-1536.73C517.62,-1530.27 530.74,-1523.26 543.45,-1519 567.5,-1510.95 970.41,-1458.24 995.71,-1456.5 1033.49,-1453.9 1043.78,-1449.1 1080.92,-1456.5 1115.61,-1463.41 1119.73,-1480.09 1154.42,-1487 1183.57,-1492.81 1191.73,-1490.08 1221.3,-1487 1279.16,-1480.97 1293.44,-1475.95 1349.39,-1460 1379,-1451.56 1412.19,-1439.04 1433.77,-1430.48"/>
<text xml:space="preserve" text-anchor="middle" x="1038.32" y="-1459.7" font-family="Times,serif" font-size="14.00">34,444</text>
</g>
<!-- ensembl&#45;&#45;orphanet -->
<g id="edge55" class="edge">
<title>ensembl&#45;&#45;orphanet</title>
<path fill="none" stroke="black" d="M493.66,-1534.14C503.42,-1514.56 518.3,-1481.94 525.45,-1452 537.26,-1402.57 518.9,-1268.5 543.45,-1224 553.5,-1205.79 567.42,-1211.8 580.95,-1196 592.07,-1183.01 585.3,-1172.3 598.95,-1162 667.46,-1110.32 729.4,-1184.83 787.86,-1122 827.89,-1078.97 769.7,-1037.33 805.86,-991 838.16,-949.62 877.24,-982.97 915.46,-947 929.07,-934.19 922.21,-923.92 933.46,-909 992.41,-830.8 1009.61,-803.67 1098.92,-763.5 1272.61,-685.38 1509.98,-777.14 1591.28,-813.47"/>
<text xml:space="preserve" text-anchor="middle" x="1117.67" y="-766.7" font-family="Times,serif" font-size="14.00">4,889</text>
</g>
<!-- ensembl&#45;&#45;cosmic -->
<g id="edge56" class="edge">
<title>ensembl&#45;&#45;cosmic</title>
<path fill="none" stroke="black" d="M493.25,-1534.03C502.66,-1514.37 517.23,-1481.67 525.45,-1452 554.77,-1346.13 517.58,-1289.81 598.95,-1216 665.05,-1156.05 705.63,-1182.66 787.86,-1148 845.96,-1123.51 875.65,-1134.89 915.46,-1086 936.02,-1060.76 919.42,-1044.37 933.46,-1015 953.35,-973.4 962.34,-963.82 995.71,-932 1089.1,-842.95 1115.28,-809.66 1239.3,-774 1325.26,-749.28 1186.41,-766.99 1566.53,-854 1639.05,-870.6 1724.99,-885.07 1772.11,-892.56"/>
<text xml:space="preserve" text-anchor="middle" x="1187.86" y="-807.73" font-family="Times,serif" font-size="14.00">617</text>
</g>
<!-- ensembl&#45;&#45;pseudogene -->
<g id="edge57" class="edge">
<title>ensembl&#45;&#45;pseudogene</title>
<path fill="none" stroke="black" d="M493.25,-1569.84C503.11,-1590.49 518.49,-1625.78 525.45,-1658 540.77,-1728.92 510.79,-1919.21 543.45,-1984 557.87,-2012.61 570.55,-2015.17 598.95,-2030 653.49,-2058.49 687.12,-2025.3 732.36,-2067 749.42,-2082.72 735.89,-2097.87 750.36,-2116 768.7,-2138.98 778.86,-2140.36 805.86,-2152 921.4,-2201.83 969.27,-2160.99 1080.92,-2219 1231.13,-2297.05 1208.95,-2410.41 1367.39,-2470 1447.25,-2500.04 1547.27,-2453.28 1593.85,-2426.96"/>
<text xml:space="preserve" text-anchor="middle" x="1117.67" y="-2258.06" font-family="Times,serif" font-size="14.00">8,113</text>
</g>
<!-- ensembl&#45;&#45;iuphar.ligand -->
<g id="edge58" class="edge">
<title>ensembl&#45;&#45;iuphar.ligand</title>
<path fill="none" stroke="black" d="M523.27,-1545.75C619.84,-1531.67 877.21,-1502.81 1080.92,-1558 1117.23,-1567.84 1120.54,-1583.63 1154.42,-1600 1191.01,-1617.68 1199.39,-1626.31 1239.3,-1634 1255.66,-1637.16 1260.13,-1634.27 1276.8,-1634 1448.44,-1631.25 1651.19,-1623.5 1748.93,-1619.49"/>
<text xml:space="preserve" text-anchor="middle" x="1187.86" y="-1633.09" font-family="Times,serif" font-size="14.00">524</text>
</g>
<!-- ensembl&#45;&#45;lncipedia -->
<g id="edge59" class="edge">
<title>ensembl&#45;&#45;lncipedia</title>
<path fill="none" stroke="black" d="M493.21,-1569.85C503.04,-1590.5 518.4,-1625.8 525.45,-1658 532.47,-1690.08 524.85,-1925.94 543.45,-1953 595.71,-2029.02 670.06,-1970.97 732.36,-2039 748.6,-2056.73 733.01,-2073.36 750.36,-2090 830.66,-2166.99 1235.79,-2204.51 1239.3,-2205 1287.8,-2211.71 1300.6,-2213.07 1349.39,-2209 1440.55,-2201.4 1475.1,-2211.55 1548.53,-2157 1572.59,-2139.12 1594.64,-2112.09 1607.68,-2094.49"/>
<text xml:space="preserve" text-anchor="middle" x="1117.67" y="-2196.22" font-family="Times,serif" font-size="14.00">2,490</text>
</g>
<!-- ensembl&#45;&#45;civic.gid
903 -->
<g id="edge63" class="edge">
<title>ensembl&#45;&#45;civic.gid
903</title>
<path fill="none" stroke="black" d="M491.63,-1534.13C507.03,-1496.59 541.52,-1412.69 543.45,-1410 562.6,-1383.24 572.82,-1381 598.95,-1361 655.36,-1317.83 673.44,-1312.67 732.36,-1273 744.16,-1265.06 1142.3,-990.45 1154.42,-983 1191.05,-960.46 1197.98,-948.47 1239.3,-936.5 1286.32,-922.87 1300.56,-929.47 1349.39,-933 1519.94,-945.33 1559.91,-986.36 1730.87,-983 1804.65,-981.55 1890.39,-977.74 1941.09,-975.26"/>
<text xml:space="preserve" text-anchor="middle" x="1258.05" y="-939.7" font-family="Times,serif" font-size="14.00">697</text>
</g>
<!-- ensembl&#45;&#45;ncit
12,711 -->
<g id="edge64" class="edge">
<title>ensembl&#45;&#45;ncit
12,711</title>
<path fill="none" stroke="black" d="M514.51,-1564.35C518.75,-1567.27 522.62,-1570.79 525.45,-1575 562.15,-1629.64 521.98,-1659.78 543.45,-1722 559.03,-1767.14 566.13,-1779.31 598.95,-1814 675.43,-1894.84 712.9,-1893.83 805.86,-1955 889.5,-2010.03 1470.39,-2410.06 1566.53,-2438 1612.98,-2451.5 1633.64,-2462.46 1675.37,-2438 1840.62,-2341.15 1786.81,-2225.88 1885.95,-2062 1954.61,-1948.52 1975.59,-1922.52 2048.9,-1812 2057.8,-1798.59 2063.57,-1797.09 2069.15,-1782 2099.81,-1699.1 2117.35,-1425.85 2122.43,-1335.38"/>
<text xml:space="preserve" text-anchor="middle" x="1322.09" y="-2318.17" font-family="Times,serif" font-size="14.00">6,882</text>
</g>
<!-- ensembl&#45;&#45;wikidata
797,957 -->
<g id="edge65" class="edge">
<title>ensembl&#45;&#45;wikidata
797,957</title>
<path fill="none" stroke="black" d="M490.79,-1569.89C500.23,-1596.84 517.5,-1649.62 525.45,-1696 558.86,-1890.98 496.18,-1965.96 598.95,-2135 645.3,-2211.24 692.13,-2205.37 732.36,-2285 749.77,-2319.47 730.25,-2337.03 750.36,-2370 823.63,-2490.1 874.2,-2499.09 995.71,-2570 1050.29,-2601.85 1462.21,-2777 1525.4,-2777 1525.4,-2777 1525.4,-2777 2125.98,-2777 2184.48,-2777 2189.2,-2731.05 2211.56,-2677 2270.58,-2534.38 2273.21,-2036.98 2272.91,-1911.12"/>
<text xml:space="preserve" text-anchor="middle" x="1389.51" y="-2748.08" font-family="Times,serif" font-size="14.00">159,611</text>
</g>
<!-- mgi
661,778 -->
<g id="node20" class="node">
<title>mgi
661,778</title>
<ellipse fill="none" stroke="black" cx="1038.32" cy="-2257" rx="42.6" ry="28.99"/>
<text xml:space="preserve" text-anchor="middle" x="1038.32" y="-2260.2" font-family="Times,serif" font-size="14.00">mgi</text>
<text xml:space="preserve" text-anchor="middle" x="1038.32" y="-2243.7" font-family="Times,serif" font-size="14.00">661,778</text>
</g>
<!-- ensembl&#45;&#45;mgi
661,778 -->
<g id="edge60" class="edge">
<title>ensembl&#45;&#45;mgi
661,778</title>
<path fill="none" stroke="black" d="M486.37,-1570.27C495.88,-1652.12 537.73,-1984.68 598.95,-2067 697.2,-2199.12 906.65,-2240.58 995.78,-2252.55"/>
<text xml:space="preserve" text-anchor="middle" x="769.11" y="-2202.08" font-family="Times,serif" font-size="14.00">78,642</text>
</g>
<!-- rgd
61,462 -->
<g id="node21" class="node">
<title>rgd
61,462</title>
<ellipse fill="none" stroke="black" cx="1038.32" cy="-1672" rx="37.83" ry="28.99"/>
<text xml:space="preserve" text-anchor="middle" x="1038.32" y="-1675.2" font-family="Times,serif" font-size="14.00">rgd</text>
<text xml:space="preserve" text-anchor="middle" x="1038.32" y="-1658.7" font-family="Times,serif" font-size="14.00">61,462</text>
</g>
<!-- ensembl&#45;&#45;rgd
61,462 -->
<g id="edge61" class="edge">
<title>ensembl&#45;&#45;rgd
61,462</title>
<path fill="none" stroke="black" d="M515.92,-1563.87C524.74,-1566.86 534.39,-1569.83 543.45,-1572 638.28,-1594.71 886.11,-1601.58 977.71,-1635 989.04,-1639.13 1000.52,-1645.6 1010.34,-1651.98"/>
<text xml:space="preserve" text-anchor="middle" x="769.11" y="-1605.14" font-family="Times,serif" font-size="14.00">44,968</text>
</g>
<!-- cgnc
26,085 -->
<g id="node22" class="node">
<title>cgnc
26,085</title>
<ellipse fill="none" stroke="black" cx="1038.32" cy="-1596" rx="37.83" ry="28.99"/>
<text xml:space="preserve" text-anchor="middle" x="1038.32" y="-1599.2" font-family="Times,serif" font-size="14.00">cgnc</text>
<text xml:space="preserve" text-anchor="middle" x="1038.32" y="-1582.7" font-family="Times,serif" font-size="14.00">26,085</text>
</g>
<!-- ensembl&#45;&#45;cgnc
26,085 -->
<g id="edge62" class="edge">
<title>ensembl&#45;&#45;cgnc
26,085</title>
<path fill="none" stroke="black" d="M524.98,-1555.24C628.49,-1563.47 900.8,-1585.14 1000.26,-1593.05"/>
<text xml:space="preserve" text-anchor="middle" x="769.11" y="-1579.23" font-family="Times,serif" font-size="14.00">15,341</text>
</g>
<!-- iuphar.receptor&#45;&#45;ncbigene
56,689,711 -->
<g id="edge66" class="edge">
<title>iuphar.receptor&#45;&#45;ncbigene
56,689,711</title>
<path fill="none" stroke="black" d="M672.26,-776.11C685.48,-819.79 718.56,-934.56 732.36,-1033 757.57,-1212.75 711.37,-1263.73 750.36,-1441 759.8,-1483.92 773.92,-1490.82 787.86,-1532.5 817.14,-1620.02 842.14,-1726.5 853.35,-1776.89"/>
<text xml:space="preserve" text-anchor="middle" x="769.11" y="-1535.7" font-family="Times,serif" font-size="14.00">3,110</text>
</g>
<!-- iuphar.receptor&#45;&#45;omim
27,282 -->
<g id="edge67" class="edge">
<title>iuphar.receptor&#45;&#45;omim
27,282</title>
<path fill="none" stroke="black" d="M677.55,-776.16C730.28,-864.08 959.08,-1245.56 1021.52,-1349.67"/>
<text xml:space="preserve" text-anchor="middle" x="860.66" y="-1171.5" font-family="Times,serif" font-size="14.00">3,068</text>
</g>
<!-- iuphar.receptor&#45;&#45;refseq -->
<g id="edge68" class="edge">
<title>iuphar.receptor&#45;&#45;refseq</title>
<path fill="none" stroke="black" d="M692.03,-774.98C708.49,-785.84 730.49,-800.07 750.36,-812 822.38,-855.24 868.52,-834.34 915.46,-904 951.75,-957.85 894.22,-997.26 933.46,-1049 992.56,-1126.92 1074.18,-1058.57 1136.42,-1134 1150.83,-1151.46 1175.75,-1304.54 1184.07,-1357.81"/>
<text xml:space="preserve" text-anchor="middle" x="955.59" y="-1086.34" font-family="Times,serif" font-size="14.00">3,087</text>
</g>
<!-- iuphar.receptor&#45;&#45;ucsc -->
<g id="edge69" class="edge">
<title>iuphar.receptor&#45;&#45;ucsc</title>
<path fill="none" stroke="black" d="M671.26,-776.29C682.3,-820.36 710.96,-935.93 732.36,-1033 765.09,-1181.43 718.28,-1242.78 805.86,-1367 889.29,-1485.32 989.46,-1429.28 1080.92,-1541.5 1095.18,-1559 1090.37,-1568.11 1098.92,-1589 1122.1,-1645.63 1108.23,-1674.86 1154.42,-1715 1194.48,-1749.8 1258.53,-1758.96 1294.44,-1761.29"/>
<text xml:space="preserve" text-anchor="middle" x="1038.32" y="-1544.7" font-family="Times,serif" font-size="14.00">3,033</text>
</g>
<!-- iuphar.receptor&#45;&#45;vega -->
<g id="edge70" class="edge">
<title>iuphar.receptor&#45;&#45;vega</title>
<path fill="none" stroke="black" d="M732.18,-760.45C819.57,-766.75 975.48,-788.89 1080.92,-866 1273.5,-1006.85 1198.79,-1151.19 1367.39,-1320 1383.83,-1336.47 1395.25,-1331.47 1411.64,-1348 1427.92,-1364.42 1441.1,-1387.72 1448.96,-1403.54"/>
<text xml:space="preserve" text-anchor="middle" x="1117.67" y="-915.63" font-family="Times,serif" font-size="14.00">3,104</text>
</g>
<!-- iuphar.receptor&#45;&#45;orphanet -->
<g id="edge71" class="edge">
<title>iuphar.receptor&#45;&#45;orphanet</title>
<path fill="none" stroke="black" d="M721.98,-748.1C838.2,-728.56 1116.26,-688.51 1349.39,-707 1438.68,-714.08 1471,-693.15 1548.53,-738 1577.68,-754.87 1599.61,-788.58 1611.06,-809.33"/>
<text xml:space="preserve" text-anchor="middle" x="1187.86" y="-706.37" font-family="Times,serif" font-size="14.00">1,078</text>
</g>
<!-- iuphar.receptor&#45;&#45;cosmic -->
<g id="edge72" class="edge">
<title>iuphar.receptor&#45;&#45;cosmic</title>
<path fill="none" stroke="black" d="M707.23,-743.49C859.35,-690.09 1394.99,-511.39 1548.53,-586 1666.49,-643.32 1669.62,-702.04 1730.87,-818 1743.28,-841.49 1730.74,-855.58 1748.87,-875 1755.58,-882.18 1764.81,-887.16 1773.95,-890.59"/>
<text xml:space="preserve" text-anchor="middle" x="1258.05" y="-594.48" font-family="Times,serif" font-size="14.00">170</text>
</g>
<!-- iuphar.receptor&#45;&#45;civic.gid
903 -->
<g id="edge73" class="edge">
<title>iuphar.receptor&#45;&#45;civic.gid
903</title>
<path fill="none" stroke="black" d="M691.66,-741C719.03,-722.76 764.54,-693.51 805.86,-672 879.62,-633.6 905.66,-639.51 977.71,-598 1035.85,-564.51 1036.58,-532.8 1098.92,-508 1285,-433.96 1365.37,-397.01 1548.53,-478 1754.26,-568.97 1795.22,-633.18 1923.45,-818 1951.03,-857.74 1968.89,-911.59 1977.98,-944.23"/>
<text xml:space="preserve" text-anchor="middle" x="1322.09" y="-442.91" font-family="Times,serif" font-size="14.00">228</text>
</g>
<!-- iuphar.receptor&#45;&#45;ncit
12,711 -->
<g id="edge74" class="edge">
<title>iuphar.receptor&#45;&#45;ncit
12,711</title>
<path fill="none" stroke="black" d="M682.64,-740.14C707.4,-713.08 757.25,-660.93 805.86,-624 883.87,-564.74 906.8,-553.13 995.71,-512 1279.22,-380.85 1364.61,-301.39 1675.37,-333 1787.36,-344.39 1844.92,-303.36 1923.45,-384 1955.27,-416.66 1931.83,-440.43 1941.45,-485 1990.06,-710.03 2033.37,-759.58 2069.15,-987 2079.02,-1049.69 2059.88,-1214.7 2087.15,-1272 2089.62,-1277.19 2093.26,-1281.96 2097.31,-1286.18"/>
<text xml:space="preserve" text-anchor="middle" x="1389.51" y="-351.84" font-family="Times,serif" font-size="14.00">1,613</text>
</g>
<!-- iuphar.receptor&#45;&#45;wikidata
797,957 -->
<g id="edge75" class="edge">
<title>iuphar.receptor&#45;&#45;wikidata
797,957</title>
<path fill="none" stroke="black" d="M674.91,-739.82C693.49,-700.49 742.03,-606.28 805.86,-547 851.45,-504.66 1238,-299.41 1294.8,-274 1528.35,-169.52 1689.73,-144.41 1867.95,-328 2088.21,-554.89 2122.71,-647.53 2211.56,-951 2262.88,-1126.27 2271.27,-1715.14 2272.54,-1852.97"/>
<text xml:space="preserve" text-anchor="middle" x="1457.96" y="-224.09" font-family="Times,serif" font-size="14.00">3,133</text>
</g>
<!-- ncbigene
56,689,711&#45;&#45;omim
27,282 -->
<g id="edge76" class="edge">
<title>ncbigene
56,689,711&#45;&#45;omim
27,282</title>
<path fill="none" stroke="black" d="M871.27,-1777.18C882.91,-1744.75 904.6,-1691.4 933.46,-1651.5 949.27,-1629.65 965.85,-1634.21 977.71,-1610 1015.24,-1533.44 960.06,-1496.45 995.71,-1419 999.45,-1410.89 1005.37,-1403.37 1011.59,-1396.97"/>
<text xml:space="preserve" text-anchor="middle" x="955.59" y="-1654.7" font-family="Times,serif" font-size="14.00">18,594</text>
</g>
<!-- ncbigene
56,689,711&#45;&#45;refseq -->
<g id="edge77" class="edge">
<title>ncbigene
56,689,711&#45;&#45;refseq</title>
<path fill="none" stroke="black" d="M904.7,-1788.23C966.74,-1762.46 1074.61,-1717.02 1080.92,-1710 1124.96,-1661.04 1170.28,-1456.01 1183.22,-1393.9"/>
<text xml:space="preserve" text-anchor="middle" x="1038.32" y="-1752.76" font-family="Times,serif" font-size="14.00">41,550</text>
</g>
<!-- ncbigene
56,689,711&#45;&#45;ucsc -->
<g id="edge78" class="edge">
<title>ncbigene
56,689,711&#45;&#45;ucsc</title>
<path fill="none" stroke="black" d="M914.66,-1812.16C1019.45,-1823.89 1245.74,-1846.84 1276.8,-1830 1296.37,-1819.39 1308.65,-1795.98 1315.19,-1779.6"/>
<text xml:space="preserve" text-anchor="middle" x="1117.67" y="-1835.79" font-family="Times,serif" font-size="14.00">23,841</text>
</g>
<!-- ncbigene
56,689,711&#45;&#45;vega -->
<g id="edge79" class="edge">
<title>ncbigene
56,689,711&#45;&#45;vega</title>
<path fill="none" stroke="black" d="M915.15,-1801.2C988.33,-1792.75 1121.92,-1770.52 1221.3,-1715 1284.11,-1679.91 1309.5,-1675.88 1349.39,-1616 1366.48,-1590.34 1354.35,-1576.94 1367.39,-1549 1387.91,-1505 1423.53,-1459.95 1443.09,-1436.83"/>
<text xml:space="preserve" text-anchor="middle" x="1187.86" y="-1748.25" font-family="Times,serif" font-size="14.00">31,743</text>
</g>
<!-- ncbigene
56,689,711&#45;&#45;orphanet -->
<g id="edge80" class="edge">
<title>ncbigene
56,689,711&#45;&#45;orphanet</title>
<path fill="none" stroke="black" d="M867.76,-1777.03C885.71,-1692.32 940.63,-1437.82 995.71,-1229 998.29,-1219.22 1091.3,-886.65 1098.92,-880 1134.75,-848.72 1460.12,-833.17 1577.75,-828.53"/>
<text xml:space="preserve" text-anchor="middle" x="1258.05" y="-853.82" font-family="Times,serif" font-size="14.00">4,410</text>
</g>
<!-- ncbigene
56,689,711&#45;&#45;cosmic -->
<g id="edge81" class="edge">
<title>ncbigene
56,689,711&#45;&#45;cosmic</title>
<path fill="none" stroke="black" d="M865.3,-1776.8C876.39,-1693.91 914.07,-1451.26 995.71,-1267 1044.7,-1156.44 1064.97,-1127.38 1154.42,-1046 1210.24,-995.22 1223.91,-976.36 1294.8,-950.5 1382.62,-918.47 1668.72,-903.75 1770.8,-899.42"/>
<text xml:space="preserve" text-anchor="middle" x="1322.09" y="-953.7" font-family="Times,serif" font-size="14.00">570</text>
</g>
<!-- ncbigene
56,689,711&#45;&#45;pseudogene -->
<g id="edge82" class="edge">
<title>ncbigene
56,689,711&#45;&#45;pseudogene</title>
<path fill="none" stroke="black" d="M871.52,-1834.85C882.84,-1864.79 903.77,-1911.69 933.46,-1944 949.21,-1961.14 958.43,-1958.97 977.71,-1972 1216.67,-2133.38 1258.64,-2199.99 1504.28,-2351 1531.84,-2367.94 1564.7,-2384.68 1588.34,-2396.15"/>
<text xml:space="preserve" text-anchor="middle" x="1258.05" y="-2197.24" font-family="Times,serif" font-size="14.00">8,359</text>
</g>
<!-- ncbigene
56,689,711&#45;&#45;iuphar.ligand -->
<g id="edge83" class="edge">
<title>ncbigene
56,689,711&#45;&#45;iuphar.ligand</title>
<path fill="none" stroke="black" d="M902.29,-1825.26C977.66,-1859.9 1145.07,-1931.82 1294.8,-1961 1345.78,-1970.94 1371.84,-1997.39 1411.64,-1964 1446.9,-1934.41 1404.22,-1900.38 1429.64,-1862 1452.52,-1827.46 1696.58,-1682.11 1779.8,-1633.16"/>
<text xml:space="preserve" text-anchor="middle" x="1322.09" y="-1979.93" font-family="Times,serif" font-size="14.00">472</text>
</g>
<!-- ncbigene
56,689,711&#45;&#45;lncipedia -->
<g id="edge84" class="edge">
<title>ncbigene
56,689,711&#45;&#45;lncipedia</title>
<path fill="none" stroke="black" d="M873.96,-1834.28C886.04,-1859.29 906.56,-1895.39 933.46,-1919 1006.33,-1982.96 1063.64,-1934.94 1136.42,-1999 1149.55,-2010.56 1142.91,-2020.83 1154.42,-2034 1198.07,-2083.97 1228.86,-2073.62 1276.8,-2119.5 1286.3,-2128.6 1284.59,-2134.69 1294.8,-2143 1322.57,-2165.61 1332.47,-2170.02 1367.39,-2178 1458.54,-2198.83 1559.78,-2127.02 1600.97,-2093.41"/>
<text xml:space="preserve" text-anchor="middle" x="1258.05" y="-2122.7" font-family="Times,serif" font-size="14.00">2,445</text>
</g>
<!-- ncbigene
56,689,711&#45;&#45;civic.gid
903 -->
<g id="edge88" class="edge">
<title>ncbigene
56,689,711&#45;&#45;civic.gid
903</title>
<path fill="none" stroke="black" d="M869.67,-1777.16C897.12,-1678.4 986.23,-1358.79 995.71,-1338 1024.53,-1274.81 1049.39,-1268.89 1080.92,-1207 1091.07,-1187.07 1083.3,-1176.01 1098.92,-1160 1189.02,-1067.64 1240.81,-1074.53 1367.39,-1049.5 1386.68,-1045.68 1396.34,-1037.15 1411.64,-1049.5 1441.18,-1073.35 1400.1,-1109.15 1429.64,-1133 1449.22,-1148.81 1465.94,-1147.83 1486.28,-1133 1507.4,-1117.6 1484.62,-1094.23 1504.28,-1077 1522.08,-1061.4 1900.86,-1008.05 1923.45,-1001 1932.33,-998.23 1941.6,-994.5 1950.19,-990.67"/>
<text xml:space="preserve" text-anchor="middle" x="1389.51" y="-1052.7" font-family="Times,serif" font-size="14.00">622</text>
</g>
<!-- ncbigene
56,689,711&#45;&#45;ncit
12,711 -->
<g id="edge89" class="edge">
<title>ncbigene
56,689,711&#45;&#45;ncit
12,711</title>
<path fill="none" stroke="black" d="M890.5,-1830.75C903.28,-1841.23 918.74,-1853.24 933.46,-1863 959.74,-1880.42 966.82,-1884.4 995.71,-1897 1124.18,-1953.03 1156.46,-1974.49 1294.8,-1997 1346.28,-2005.38 1368.33,-2015.07 1411.64,-1986 1424.08,-1977.65 1418.11,-1967.07 1429.64,-1957.5 1450.48,-1940.2 1462.42,-1947.82 1486.28,-1935 1585.04,-1881.96 1596.27,-1847.03 1693.37,-1791 1767.62,-1748.16 1793.05,-1750.69 1867.95,-1709 1943.44,-1666.98 1973.28,-1667.37 2030.9,-1603 2101.18,-1524.49 2118.4,-1393.26 2122.62,-1335.18"/>
<text xml:space="preserve" text-anchor="middle" x="1457.96" y="-1960.7" font-family="Times,serif" font-size="14.00">5,957</text>
</g>
<!-- ncbigene
56,689,711&#45;&#45;wikidata
797,957 -->
<g id="edge90" class="edge">
<title>ncbigene
56,689,711&#45;&#45;wikidata
797,957</title>
<path fill="none" stroke="black" d="M876.67,-1833.74C888.11,-1855.49 903.83,-1886.7 915.46,-1915 925.08,-1938.4 917.87,-1949.08 933.46,-1969 947.81,-1987.33 961.69,-1980.12 977.71,-1997 988.95,-2008.83 986.17,-2015.76 995.71,-2029 1050.13,-2104.47 1093.29,-2101.56 1136.42,-2184 1152.91,-2215.53 1137,-2230.98 1154.42,-2262 1210.88,-2362.58 1410.06,-2625 1525.4,-2625 1525.4,-2625 1525.4,-2625 2125.98,-2625 2274.23,-2625 2275.19,-2048.5 2273.32,-1911.13"/>
<text xml:space="preserve" text-anchor="middle" x="1526.4" y="-2628.2" font-family="Times,serif" font-size="14.00">788,878</text>
</g>
<!-- ncbigene
56,689,711&#45;&#45;mgi
661,778 -->
<g id="edge85" class="edge">
<title>ncbigene
56,689,711&#45;&#45;mgi
661,778</title>
<path fill="none" stroke="black" d="M869.24,-1834.89C881.14,-1879.07 905.74,-1965.77 933.46,-2037 961.19,-2108.24 1001.63,-2188.72 1022.94,-2229.76"/>
<text xml:space="preserve" text-anchor="middle" x="955.59" y="-2138.09" font-family="Times,serif" font-size="14.00">111,826</text>
</g>
<!-- ncbigene
56,689,711&#45;&#45;rgd
61,462 -->
<g id="edge86" class="edge">
<title>ncbigene
56,689,711&#45;&#45;rgd
61,462</title>
<path fill="none" stroke="black" d="M884.99,-1779.65C898.32,-1765.52 915.85,-1748.4 933.46,-1735.5 951.43,-1722.34 958.61,-1723.44 977.71,-1712 988.4,-1705.6 999.84,-1698.09 1009.8,-1691.32"/>
<text xml:space="preserve" text-anchor="middle" x="955.59" y="-1738.7" font-family="Times,serif" font-size="14.00">48,330</text>
</g>
<!-- ncbigene
56,689,711&#45;&#45;cgnc
26,085 -->
<g id="edge87" class="edge">
<title>ncbigene
56,689,711&#45;&#45;cgnc
26,085</title>
<path fill="none" stroke="black" d="M873.53,-1777.7C885.43,-1752.24 905.95,-1715.29 933.46,-1691.5 949.72,-1677.44 962.31,-1686.99 977.71,-1672 991.11,-1658.97 984.61,-1649.03 995.71,-1634 1000.25,-1627.86 1005.88,-1621.94 1011.52,-1616.67"/>
<text xml:space="preserve" text-anchor="middle" x="955.59" y="-1694.7" font-family="Times,serif" font-size="14.00">26,070</text>
</g>
<!-- omim
27,282&#45;&#45;refseq -->
<g id="edge91" class="edge">
<title>omim
27,282&#45;&#45;refseq</title>
<path fill="none" stroke="black" d="M1076.55,-1376C1100.45,-1376 1131.2,-1376 1154.16,-1376"/>
<text xml:space="preserve" text-anchor="middle" x="1117.67" y="-1379.2" font-family="Times,serif" font-size="14.00">17,337</text>
</g>
<!-- omim
27,282&#45;&#45;ucsc -->
<g id="edge92" class="edge">
<title>omim
27,282&#45;&#45;ucsc</title>
<path fill="none" stroke="black" d="M1064.27,-1397.36C1070.48,-1403.77 1076.6,-1411.18 1080.92,-1419 1097.1,-1448.24 1080.16,-1464.34 1098.92,-1492 1103.61,-1498.92 1216.34,-1572.77 1221.3,-1579.5 1236.42,-1600.04 1228.34,-1610.96 1239.3,-1634 1259.57,-1676.63 1291.48,-1722.23 1308.85,-1745.8"/>
<text xml:space="preserve" text-anchor="middle" x="1187.86" y="-1582.7" font-family="Times,serif" font-size="14.00">16,784</text>
</g>
<!-- omim
27,282&#45;&#45;vega -->
<g id="edge93" class="edge">
<title>omim
27,282&#45;&#45;vega</title>
<path fill="none" stroke="black" d="M1069.48,-1392.81C1125.68,-1421.85 1249.76,-1475.18 1349.39,-1441 1358.98,-1437.71 1357.92,-1430.61 1367.39,-1427 1387.2,-1419.45 1411.24,-1418.23 1429.42,-1418.75"/>
<text xml:space="preserve" text-anchor="middle" x="1258.05" y="-1455.25" font-family="Times,serif" font-size="14.00">16,950</text>
</g>
<!-- omim
27,282&#45;&#45;orphanet -->
<g id="edge94" class="edge">
<title>omim
27,282&#45;&#45;orphanet</title>
<path fill="none" stroke="black" d="M1050.33,-1348.49C1059.55,-1324.62 1072.51,-1288.96 1080.92,-1257 1092.41,-1213.33 1074.62,-1195.06 1098.92,-1157 1161.5,-1058.97 1493.1,-889.66 1592.05,-840.66"/>
<text xml:space="preserve" text-anchor="middle" x="1322.09" y="-1004.38" font-family="Times,serif" font-size="14.00">4,400</text>
</g>
<!-- omim
27,282&#45;&#45;cosmic -->
<g id="edge95" class="edge">
<title>omim
27,282&#45;&#45;cosmic</title>
<path fill="none" stroke="black" d="M1055.27,-1349.88C1064.05,-1334.42 1074.45,-1314.17 1080.92,-1295 1095.5,-1251.8 1068.09,-1227.6 1098.92,-1194 1196.21,-1087.96 1302.05,-1203.28 1411.64,-1110 1426.48,-1097.36 1418.19,-1085.78 1429.64,-1070 1455.98,-1033.67 1466.43,-1026.11 1504.28,-1002 1529.57,-985.89 1538.35,-986.23 1566.53,-976 1638.42,-949.9 1658.28,-949.06 1730.87,-925 1746.39,-919.86 1763.56,-913.83 1777.7,-908.78"/>
<text xml:space="preserve" text-anchor="middle" x="1389.51" y="-1140.41" font-family="Times,serif" font-size="14.00">569</text>
</g>
<!-- omim
27,282&#45;&#45;pseudogene -->
<g id="edge96" class="edge">
<title>omim
27,282&#45;&#45;pseudogene</title>
<path fill="none" stroke="black" d="M1064.99,-1397C1071.2,-1403.4 1077.14,-1410.91 1080.92,-1419 1113.09,-1487.83 1083.48,-1514.61 1098.92,-1589 1157.39,-1870.68 1190.39,-1951.21 1367.39,-2178 1439.7,-2270.65 1550.28,-2358.68 1597.41,-2394.34"/>
<text xml:space="preserve" text-anchor="middle" x="1322.09" y="-2157.72" font-family="Times,serif" font-size="14.00">89</text>
</g>
<!-- omim
27,282&#45;&#45;iuphar.ligand -->
<g id="edge97" class="edge">
<title>omim
27,282&#45;&#45;iuphar.ligand</title>
<path fill="none" stroke="black" d="M1061.76,-1398.91C1072.4,-1408.98 1085.67,-1420.42 1098.92,-1429 1156.33,-1466.15 1174.89,-1469.01 1239.3,-1492 1335.83,-1526.47 1636.5,-1584.87 1756.86,-1607.58"/>
<text xml:space="preserve" text-anchor="middle" x="1389.51" y="-1539.78" font-family="Times,serif" font-size="14.00">467</text>
</g>
<!-- omim
27,282&#45;&#45;lncipedia -->
<g id="edge98" class="edge">
<title>omim
27,282&#45;&#45;lncipedia</title>
<path fill="none" stroke="black" d="M1064.79,-1397.09C1071.01,-1403.49 1076.99,-1410.98 1080.92,-1419 1105.8,-1469.8 1078.09,-1492.41 1098.92,-1545 1114.72,-1584.89 1124.23,-1593.51 1154.42,-1624 1180.16,-1650 1199.9,-1642.32 1221.3,-1672 1237.08,-1693.89 1229.98,-1704.67 1239.3,-1730 1260.97,-1788.97 1264.69,-1804.86 1294.8,-1860 1301.68,-1872.61 1357.38,-1956.69 1367.39,-1967 1417.43,-2018.56 1436.87,-2028.13 1504.28,-2053 1528.04,-2061.77 1555.8,-2067.66 1578.16,-2071.41"/>
<text xml:space="preserve" text-anchor="middle" x="1322.09" y="-1945.65" font-family="Times,serif" font-size="14.00">219</text>
</g>
<!-- omim
27,282&#45;&#45;civic.gid
903 -->
<g id="edge99" class="edge">
<title>omim
27,282&#45;&#45;civic.gid
903</title>
<path fill="none" stroke="black" d="M1052.91,-1348.89C1068.15,-1318.96 1091.68,-1274.28 1098.92,-1269 1403.02,-1047.25 1659.05,-1343.84 1923.45,-1076 1945.72,-1053.45 1924.02,-1033.47 1941.45,-1007 1944.73,-1002.02 1948.99,-997.46 1953.56,-993.41"/>
<text xml:space="preserve" text-anchor="middle" x="1457.96" y="-1188.91" font-family="Times,serif" font-size="14.00">623</text>
</g>
<!-- omim
27,282&#45;&#45;ncit
12,711 -->
<g id="edge100" class="edge">
<title>omim
27,282&#45;&#45;ncit
12,711</title>
<path fill="none" stroke="black" d="M1072.57,-1363.3C1154.8,-1332.64 1374.95,-1255.21 1566.53,-1229 1708.51,-1209.58 1744.76,-1248.49 1885.95,-1273 1956.86,-1285.31 2040.29,-1296.01 2087.16,-1301.69"/>
<text xml:space="preserve" text-anchor="middle" x="1526.4" y="-1241.94" font-family="Times,serif" font-size="14.00">5,850</text>
</g>
<!-- omim
27,282&#45;&#45;wikidata
797,957 -->
<g id="edge101" class="edge">
<title>omim
27,282&#45;&#45;wikidata
797,957</title>
<path fill="none" stroke="black" d="M1056.25,-1401.86C1064.58,-1415.46 1074.24,-1432.66 1080.92,-1449 1092.76,-1477.93 1081.42,-1491.09 1098.92,-1517 1110.56,-1534.24 1124.09,-1528.25 1136.42,-1545 1150.67,-1564.36 1137.92,-1578.52 1154.42,-1596 1176.54,-1619.43 1199.51,-1600.26 1221.3,-1624 1238.97,-1643.26 1227.61,-1656.61 1239.3,-1680 1252.19,-1705.81 1263.9,-1707.19 1276.8,-1733 1288.48,-1756.39 1282.65,-1765.85 1294.8,-1789 1313.29,-1824.25 1332.44,-1823.98 1349.39,-1860 1364.72,-1892.58 1339.24,-1916.54 1367.39,-1939 1382.76,-1951.26 1392.4,-1943.08 1411.64,-1939 1420.2,-1937.18 1421.07,-1932.82 1429.64,-1931 1454.26,-1925.77 1461.14,-1929.62 1486.28,-1931 1672.64,-1941.24 1717.06,-1977 1903.7,-1977 1903.7,-1977 1903.7,-1977 2125.98,-1977 2177.28,-1977 2224.81,-1935.6 2251.2,-1907.46"/>
<text xml:space="preserve" text-anchor="middle" x="1620.95" y="-1957.54" font-family="Times,serif" font-size="14.00">28,475</text>
</g>
<!-- refseq&#45;&#45;ucsc -->
<g id="edge102" class="edge">
<title>refseq&#45;&#45;ucsc</title>
<path fill="none" stroke="black" d="M1192.29,-1394.05C1201.67,-1442.67 1227.74,-1573.86 1239.3,-1590 1250.74,-1605.99 1264.89,-1597.85 1276.8,-1613.5 1292.64,-1634.32 1309.98,-1709.22 1317.39,-1744.01"/>
<text xml:space="preserve" text-anchor="middle" x="1258.05" y="-1616.7" font-family="Times,serif" font-size="14.00">23,592</text>
</g>
<!-- refseq&#45;&#45;vega -->
<g id="edge103" class="edge">
<title>refseq&#45;&#45;vega</title>
<path fill="none" stroke="black" d="M1205.65,-1391.54C1214.85,-1398.99 1226.89,-1407.12 1239.3,-1411 1285.99,-1425.61 1301.77,-1422.24 1349.39,-1411 1358.09,-1408.95 1358.68,-1404.05 1367.39,-1402 1386.53,-1397.48 1392.36,-1398.12 1411.64,-1402 1419.67,-1403.62 1428.05,-1406.69 1435.39,-1409.9"/>
<text xml:space="preserve" text-anchor="middle" x="1322.09" y="-1423.86" font-family="Times,serif" font-size="14.00">31,349</text>
</g>
<!-- refseq&#45;&#45;orphanet -->
<g id="edge104" class="edge">
<title>refseq&#45;&#45;orphanet</title>
<path fill="none" stroke="black" d="M1196.15,-1358.24C1216.65,-1310.12 1279.11,-1175.36 1367.39,-1093.5 1383.72,-1078.36 1395.25,-1085.08 1411.64,-1070 1422.53,-1059.98 1421.57,-1054.4 1429.64,-1042 1454.6,-1003.64 1461.62,-994.56 1486.28,-956 1494.45,-943.22 1493.6,-937.77 1504.28,-927 1520.66,-910.47 1530.39,-913.58 1548.53,-899 1569.67,-882.02 1591.22,-859.41 1605.04,-844.09"/>
<text xml:space="preserve" text-anchor="middle" x="1389.51" y="-1096.7" font-family="Times,serif" font-size="14.00">4,351</text>
</g>
<!-- refseq&#45;&#45;cosmic -->
<g id="edge105" class="edge">
<title>refseq&#45;&#45;cosmic</title>
<path fill="none" stroke="black" d="M1207.94,-1361.17C1259.57,-1320.16 1403.65,-1199.63 1486.28,-1070 1497.41,-1052.53 1488.77,-1040.74 1504.28,-1027 1543.45,-992.31 1684.7,-987.61 1730.87,-963 1754.72,-950.29 1777.75,-929.14 1792.21,-914.43"/>
<text xml:space="preserve" text-anchor="middle" x="1457.96" y="-1147.82" font-family="Times,serif" font-size="14.00">560</text>
</g>
<!-- refseq&#45;&#45;pseudogene -->
<g id="edge106" class="edge">
<title>refseq&#45;&#45;pseudogene</title>
<path fill="none" stroke="black" d="M1193.19,-1393.8C1199.98,-1422.23 1213.19,-1479.7 1221.3,-1529 1255.97,-1739.79 1207.22,-1809.15 1294.8,-2004 1315.33,-2049.68 1543.75,-2321 1604.95,-2393.31"/>
<text xml:space="preserve" text-anchor="middle" x="1389.51" y="-2160.26" font-family="Times,serif" font-size="14.00">8,202</text>
</g>
<!-- refseq&#45;&#45;iuphar.ligand -->
<g id="edge107" class="edge">
<title>refseq&#45;&#45;iuphar.ligand</title>
<path fill="none" stroke="black" d="M1193.12,-1394.2C1199.32,-1416.45 1213.07,-1453.55 1239.3,-1473 1261.61,-1489.55 1705.19,-1554.41 1730.87,-1565 1751.67,-1573.57 1772.61,-1588.32 1787.32,-1599.92"/>
<text xml:space="preserve" text-anchor="middle" x="1457.96" y="-1524.44" font-family="Times,serif" font-size="14.00">464</text>
</g>
<!-- refseq&#45;&#45;lncipedia -->
<g id="edge108" class="edge">
<title>refseq&#45;&#45;lncipedia</title>
<path fill="none" stroke="black" d="M1192.84,-1393.86C1199.16,-1422.38 1211.73,-1479.96 1221.3,-1529 1230.03,-1573.75 1224.95,-1586.72 1239.3,-1630 1251.02,-1665.38 1264.46,-1669.83 1276.8,-1705 1289.43,-1741.03 1279.39,-1754.07 1294.8,-1789 1300,-1800.8 1419.9,-1969.54 1429.64,-1978 1477.57,-2019.65 1546.07,-2049.74 1586.49,-2065.19"/>
<text xml:space="preserve" text-anchor="middle" x="1389.51" y="-1958.03" font-family="Times,serif" font-size="14.00">2,308</text>
</g>
<!-- refseq&#45;&#45;civic.gid
903 -->
<g id="edge109" class="edge">
<title>refseq&#45;&#45;civic.gid
903</title>
<path fill="none" stroke="black" d="M1192.63,-1357.92C1199.62,-1326.02 1216.01,-1258.01 1239.3,-1204 1285.03,-1097.9 1456.14,-834.09 1566.53,-800 1615.21,-784.97 1850.01,-804.36 1867.95,-812 1924.89,-836.25 1959.52,-905.3 1975.2,-944.65"/>
<text xml:space="preserve" text-anchor="middle" x="1526.4" y="-839.03" font-family="Times,serif" font-size="14.00">614</text>
</g>
<!-- refseq&#45;&#45;ncit
12,711 -->
<g id="edge110" class="edge">
<title>refseq&#45;&#45;ncit
12,711</title>
<path fill="none" stroke="black" d="M1214.56,-1364.7C1257.9,-1346.34 1348.69,-1310.78 1429.64,-1298 1454.5,-1294.07 1461.11,-1297.84 1486.28,-1298 1604.47,-1298.74 1969.07,-1303.81 2086.86,-1305.47"/>
<text xml:space="preserve" text-anchor="middle" x="1620.95" y="-1303.16" font-family="Times,serif" font-size="14.00">5,898</text>
</g>
<!-- refseq&#45;&#45;wikidata
797,957 -->
<g id="edge111" class="edge">
<title>refseq&#45;&#45;wikidata
797,957</title>
<path fill="none" stroke="black" d="M1193.86,-1394.08C1209.33,-1446.06 1261.86,-1595.92 1367.39,-1654 1438.31,-1693.03 1472.09,-1646.37 1548.53,-1673 1620.55,-1698.09 1622.62,-1736.53 1693.37,-1765 1792.62,-1804.94 2114.53,-1857.43 2230.57,-1875.54"/>
<text xml:space="preserve" text-anchor="middle" x="1712.12" y="-1780.71" font-family="Times,serif" font-size="14.00">41,524</text>
</g>
<!-- ucsc&#45;&#45;vega -->
<g id="edge112" class="edge">
<title>ucsc&#45;&#45;vega</title>
<path fill="none" stroke="black" d="M1330.14,-1744.44C1338.39,-1724.31 1352.8,-1690.5 1367.39,-1662.5 1385.01,-1628.69 1398.54,-1624.81 1411.64,-1589 1428.96,-1541.65 1414.42,-1525.07 1429.64,-1477 1434.01,-1463.18 1441.29,-1448.49 1447.24,-1437.62"/>
<text xml:space="preserve" text-anchor="middle" x="1389.51" y="-1665.7" font-family="Times,serif" font-size="14.00">20,204</text>
</g>
<!-- ucsc&#45;&#45;orphanet -->
<g id="edge113" class="edge">
<title>ucsc&#45;&#45;orphanet</title>
<path fill="none" stroke="black" d="M1325.62,-1743.82C1331.33,-1704.09 1346.4,-1606.69 1367.39,-1527 1389.21,-1444.13 1398.72,-1424.43 1429.64,-1344.5 1452.45,-1285.53 1471,-1275.35 1486.28,-1214 1510.85,-1115.37 1468.36,-1081.09 1504.28,-986 1515.86,-955.34 1529.17,-953.45 1548.53,-927 1569.57,-898.25 1593.55,-864.45 1607.69,-844.43"/>
<text xml:space="preserve" text-anchor="middle" x="1457.96" y="-1347.7" font-family="Times,serif" font-size="14.00">4,362</text>
</g>
<!-- ucsc&#45;&#45;cosmic -->
<g id="edge114" class="edge">
<title>ucsc&#45;&#45;cosmic</title>
<path fill="none" stroke="black" d="M1325.02,-1743.77C1329.36,-1706.67 1341.59,-1620.12 1367.39,-1552 1381.5,-1514.73 1397.28,-1511.18 1411.64,-1474 1424.77,-1440 1408.1,-1423.4 1429.64,-1394 1446.86,-1370.5 1470.47,-1385.47 1486.28,-1361 1528.11,-1296.25 1467.88,-1256.45 1504.28,-1188.5 1535.14,-1130.89 1685.88,-1048.41 1730.87,-1001 1757.1,-973.37 1782.44,-936.69 1796.38,-915.39"/>
<text xml:space="preserve" text-anchor="middle" x="1526.4" y="-1191.7" font-family="Times,serif" font-size="14.00">564</text>
</g>
<!-- ucsc&#45;&#45;pseudogene -->
<g id="edge115" class="edge">
<title>ucsc&#45;&#45;pseudogene</title>
<path fill="none" stroke="black" d="M1330.37,-1779.39C1338.3,-1797.49 1351.94,-1826.3 1367.39,-1849 1384.09,-1873.53 1398.09,-1872.6 1411.64,-1899 1428.08,-1931.04 1418.99,-1943.6 1429.64,-1978 1481.46,-2145.48 1579.21,-2334.77 1610.24,-2393.01"/>
<text xml:space="preserve" text-anchor="middle" x="1457.96" y="-2130.24" font-family="Times,serif" font-size="14.00">42</text>
</g>
<!-- ucsc&#45;&#45;iuphar.ligand -->
<g id="edge116" class="edge">
<title>ucsc&#45;&#45;iuphar.ligand</title>
<path fill="none" stroke="black" d="M1340.39,-1748.3C1348.26,-1742.6 1357.92,-1736.31 1367.39,-1732 1438.07,-1699.78 1660.02,-1649.16 1758.97,-1627.45"/>
<text xml:space="preserve" text-anchor="middle" x="1526.4" y="-1690.69" font-family="Times,serif" font-size="14.00">466</text>
</g>
<!-- ucsc&#45;&#45;lncipedia -->
<g id="edge117" class="edge">
<title>ucsc&#45;&#45;lncipedia</title>
<path fill="none" stroke="black" d="M1336.68,-1777.59C1340.91,-1782.69 1345.49,-1788.48 1349.39,-1794 1358.35,-1806.71 1356.53,-1812.88 1367.39,-1824 1383.65,-1840.65 1393.05,-1837.99 1411.64,-1852 1497.29,-1916.57 1577.17,-2018.89 1607.29,-2059.53"/>
<text xml:space="preserve" text-anchor="middle" x="1457.96" y="-1919.99" font-family="Times,serif" font-size="14.00">1,311</text>
</g>
<!-- ucsc&#45;&#45;civic.gid
903 -->
<g id="edge118" class="edge">
<title>ucsc&#45;&#45;civic.gid
903</title>
<path fill="none" stroke="black" d="M1335.51,-1746.38C1344,-1736.12 1355.78,-1722.67 1367.39,-1712 1385.45,-1695.4 1394.81,-1696.85 1411.64,-1679 1497.57,-1587.84 1472.33,-1526.09 1566.53,-1443.5 1627.54,-1390.01 1662.66,-1407.93 1730.87,-1364 1797.49,-1321.1 1812.58,-1306.68 1867.95,-1250 1895.7,-1221.6 1908.47,-1216.77 1923.45,-1180 1952.63,-1108.41 1903.93,-1074.59 1941.45,-1007 1944.44,-1001.62 1948.67,-996.8 1953.33,-992.61"/>
<text xml:space="preserve" text-anchor="middle" x="1620.95" y="-1446.7" font-family="Times,serif" font-size="14.00">614</text>
</g>
<!-- ucsc&#45;&#45;ncit
12,711 -->
<g id="edge119" class="edge">
<title>ucsc&#45;&#45;ncit
12,711</title>
<path fill="none" stroke="black" d="M1346.36,-1770.58C1387.5,-1784.56 1475.63,-1809.17 1548.53,-1793 1665.32,-1767.1 1952.69,-1644.52 2030.9,-1554 2087.58,-1488.41 2111.26,-1384.95 2119.8,-1334.95"/>
<text xml:space="preserve" text-anchor="middle" x="1712.12" y="-1748.18" font-family="Times,serif" font-size="14.00">5,834</text>
</g>
<!-- ucsc&#45;&#45;wikidata
797,957 -->
<g id="edge120" class="edge">
<title>ucsc&#45;&#45;wikidata
797,957</title>
<path fill="none" stroke="black" d="M1339.19,-1775.99C1349.24,-1784.46 1361.36,-1794.16 1367.39,-1797 1646.13,-1928.47 1741.08,-1909.92 2048.9,-1925 2121.25,-1928.54 2143.01,-1938.38 2211.56,-1915 2221.5,-1911.61 2231.75,-1906.71 2240.96,-1901.73"/>
<text xml:space="preserve" text-anchor="middle" x="1808.41" y="-1920.95" font-family="Times,serif" font-size="14.00">23,946</text>
</g>
<!-- vega&#45;&#45;orphanet -->
<g id="edge121" class="edge">
<title>vega&#45;&#45;orphanet</title>
<path fill="none" stroke="black" d="M1467.4,-1403.62C1473.74,-1389.72 1482.02,-1369.56 1486.28,-1351 1509.04,-1251.71 1481.47,-1221.78 1504.28,-1122.5 1529.51,-1012.7 1588.24,-889.76 1610.85,-844.73"/>
<text xml:space="preserve" text-anchor="middle" x="1526.4" y="-1125.7" font-family="Times,serif" font-size="14.00">4,357</text>
</g>
<!-- vega&#45;&#45;cosmic -->
<g id="edge122" class="edge">
<title>vega&#45;&#45;cosmic</title>
<path fill="none" stroke="black" d="M1473.64,-1405.82C1478.07,-1400.73 1482.7,-1394.86 1486.28,-1389 1497.28,-1370.96 1493.07,-1362.91 1504.28,-1345 1580.43,-1223.37 1653.66,-1235.95 1730.87,-1115 1773.43,-1048.33 1795.95,-954.98 1803.96,-916.1"/>
<text xml:space="preserve" text-anchor="middle" x="1620.95" y="-1272.17" font-family="Times,serif" font-size="14.00">569</text>
</g>
<!-- vega&#45;&#45;pseudogene -->
<g id="edge123" class="edge">
<title>vega&#45;&#45;pseudogene</title>
<path fill="none" stroke="black" d="M1469.53,-1437.94C1475.64,-1448.7 1482.79,-1463.15 1486.28,-1477 1511.19,-1575.99 1490.13,-1834.91 1504.28,-1936 1529.63,-2117.14 1594.27,-2329.91 1614.09,-2392.7"/>
<text xml:space="preserve" text-anchor="middle" x="1526.4" y="-2149.51" font-family="Times,serif" font-size="14.00">7,206</text>
</g>
<!-- vega&#45;&#45;iuphar.ligand -->
<g id="edge124" class="edge">
<title>vega&#45;&#45;iuphar.ligand</title>
<path fill="none" stroke="black" d="M1482.42,-1430.49C1504.19,-1439.27 1537.5,-1452.63 1566.53,-1464 1639.37,-1492.52 1667.03,-1481.8 1730.87,-1527 1758.83,-1546.79 1782.88,-1579.06 1796.23,-1599.11"/>
<text xml:space="preserve" text-anchor="middle" x="1620.95" y="-1499.51" font-family="Times,serif" font-size="14.00">469</text>
</g>
<!-- vega&#45;&#45;lncipedia -->
<g id="edge125" class="edge">
<title>vega&#45;&#45;lncipedia</title>
<path fill="none" stroke="black" d="M1469.37,-1437.98C1475.42,-1448.75 1482.57,-1463.21 1486.28,-1477 1515.33,-1585 1487.38,-1617.44 1504.28,-1728 1517.22,-1812.64 1528.89,-1832.16 1548.53,-1915.5 1556.54,-1949.5 1553.05,-1959.78 1566.53,-1992 1577.02,-2017.08 1594.56,-2043.16 1606.67,-2059.71"/>
<text xml:space="preserve" text-anchor="middle" x="1526.4" y="-1918.7" font-family="Times,serif" font-size="14.00">2,387</text>
</g>
<!-- vega&#45;&#45;civic.gid
903 -->
<g id="edge126" class="edge">
<title>vega&#45;&#45;civic.gid
903</title>
<path fill="none" stroke="black" d="M1473.65,-1405.75C1481.96,-1397.91 1492.95,-1388.81 1504.28,-1383 1550.52,-1359.27 1692.63,-1360.2 1730.87,-1325 1748.87,-1308.44 1734.35,-1292.68 1748.87,-1273 1806,-1195.58 1874.49,-1227.82 1923.45,-1145 1954.93,-1091.76 1910.73,-1060.68 1941.45,-1007 1944.51,-1001.66 1948.77,-996.86 1953.44,-992.67"/>
<text xml:space="preserve" text-anchor="middle" x="1712.12" y="-1346.52" font-family="Times,serif" font-size="14.00">618</text>
</g>
<!-- vega&#45;&#45;ncit
12,711 -->
<g id="edge127" class="edge">
<title>vega&#45;&#45;ncit
12,711</title>
<path fill="none" stroke="black" d="M1486.64,-1421.22C1574.57,-1421.11 1854.34,-1414.43 2069.15,-1339 2078.59,-1335.69 2088.17,-1330.63 2096.62,-1325.45"/>
<text xml:space="preserve" text-anchor="middle" x="1808.41" y="-1409.2" font-family="Times,serif" font-size="14.00">5,746</text>
</g>
<!-- vega&#45;&#45;wikidata
797,957 -->
<g id="edge128" class="edge">
<title>vega&#45;&#45;wikidata
797,957</title>
<path fill="none" stroke="black" d="M1466.17,-1438.24C1496.54,-1509.93 1616.02,-1783.04 1693.37,-1831 1780.43,-1884.98 1836.76,-1789.93 1923.45,-1844.5 1937.43,-1853.3 1927.29,-1868.51 1941.45,-1877 2033.22,-1932.01 2166.53,-1909.73 2232.58,-1893.42"/>
<text xml:space="preserve" text-anchor="middle" x="1904.7" y="-1847.7" font-family="Times,serif" font-size="14.00">31,851</text>
</g>
<!-- orphanet&#45;&#45;cosmic -->
<g id="edge129" class="edge">
<title>orphanet&#45;&#45;cosmic</title>
<path fill="none" stroke="black" d="M1662.86,-821.87C1683.88,-820.81 1709.5,-822.03 1730.87,-830.5 1757.23,-840.95 1780.54,-864.7 1794.31,-881.05"/>
<text xml:space="preserve" text-anchor="middle" x="1712.12" y="-833.7" font-family="Times,serif" font-size="14.00">396</text>
</g>
<!-- orphanet&#45;&#45;iuphar.ligand -->
<g id="edge130" class="edge">
<title>orphanet&#45;&#45;iuphar.ligand</title>
<path fill="none" stroke="black" d="M1626.57,-845.27C1642.52,-908.88 1696.3,-1126.63 1730.87,-1308.5 1740.66,-1359.97 1737.2,-1373.92 1748.87,-1425 1763.7,-1489.89 1788.99,-1564.83 1800.88,-1598.7"/>
<text xml:space="preserve" text-anchor="middle" x="1712.12" y="-1311.7" font-family="Times,serif" font-size="14.00">179</text>
</g>
<!-- orphanet&#45;&#45;civic.gid
903 -->
<g id="edge131" class="edge">
<title>orphanet&#45;&#45;civic.gid
903</title>
<path fill="none" stroke="black" d="M1661.91,-821.07C1672.14,-819.8 1683.15,-818.64 1693.37,-818 1772.49,-813.04 1799.38,-814.73 1867.95,-854.5 1908.76,-878.16 1945.13,-919.73 1966.16,-946.81"/>
<text xml:space="preserve" text-anchor="middle" x="1808.41" y="-857.7" font-family="Times,serif" font-size="14.00">378</text>
</g>
<!-- orphanet&#45;&#45;ncit
12,711 -->
<g id="edge132" class="edge">
<title>orphanet&#45;&#45;ncit
12,711</title>
<path fill="none" stroke="black" d="M1642.54,-843.05C1667.59,-862.55 1711.19,-896.37 1748.87,-925 1833.97,-989.66 1854.31,-1007.13 1941.45,-1069 1997.25,-1108.61 2032.5,-1097.22 2069.15,-1155 2097.34,-1199.42 2062.44,-1225.55 2087.15,-1272 2089.77,-1276.92 2093.38,-1281.5 2097.32,-1285.61"/>
<text xml:space="preserve" text-anchor="middle" x="1904.7" y="-1058.67" font-family="Times,serif" font-size="14.00">2,388</text>
</g>
<!-- orphanet&#45;&#45;wikidata
797,957 -->
<g id="edge133" class="edge">
<title>orphanet&#45;&#45;wikidata
797,957</title>
<path fill="none" stroke="black" d="M1658.42,-817.82C1669.57,-815.43 1681.91,-813.19 1693.37,-812 1770.55,-803.98 1791.81,-797.06 1867.95,-812 2007.29,-839.34 2059.59,-837.49 2162.81,-935 2198.18,-968.41 2198.74,-986.07 2211.56,-1033 2255.15,-1192.48 2269.29,-1721.75 2272.16,-1852.57"/>
<text xml:space="preserve" text-anchor="middle" x="1986.18" y="-850.92" font-family="Times,serif" font-size="14.00">4,481</text>
</g>
<!-- cosmic&#45;&#45;civic.gid
903 -->
<g id="edge134" class="edge">
<title>cosmic&#45;&#45;civic.gid
903</title>
<path fill="none" stroke="black" d="M1837.26,-909.88C1867.27,-922.69 1915.17,-943.13 1948.29,-957.26"/>
<text xml:space="preserve" text-anchor="middle" x="1904.7" y="-949.8" font-family="Times,serif" font-size="14.00">276</text>
</g>
<!-- cosmic&#45;&#45;ncit
12,711 -->
<g id="edge135" class="edge">
<title>cosmic&#45;&#45;ncit
12,711</title>
<path fill="none" stroke="black" d="M1826.46,-913.94C1841.8,-928.13 1865.05,-949.32 1885.95,-967 1909.99,-987.33 1915.28,-993.52 1941.45,-1011 1995.45,-1047.07 2029.77,-1030.37 2069.15,-1082 2113.84,-1140.57 2122.61,-1230.66 2124.02,-1276.71"/>
<text xml:space="preserve" text-anchor="middle" x="1986.18" y="-1051.86" font-family="Times,serif" font-size="14.00">569</text>
</g>
<!-- cosmic&#45;&#45;wikidata
797,957 -->
<g id="edge136" class="edge">
<title>cosmic&#45;&#45;wikidata
797,957</title>
<path fill="none" stroke="black" d="M1846.13,-895.64C1920.69,-893.12 2089.05,-899.57 2162.81,-1001 2264.81,-1141.24 2272.44,-1715.52 2272.8,-1852.54"/>
<text xml:space="preserve" text-anchor="middle" x="2059.03" y="-933.02" font-family="Times,serif" font-size="14.00">577</text>
</g>
<!-- pseudogene&#45;&#45;wikidata
797,957 -->
<g id="edge137" class="edge">
<title>pseudogene&#45;&#45;wikidata
797,957</title>
<path fill="none" stroke="black" d="M1634.26,-2393.07C1661.08,-2356.35 1728.76,-2276 1807.41,-2276 1807.41,-2276 1807.41,-2276 2125.98,-2276 2203.91,-2276 2253.94,-2001.96 2268.41,-1910.97"/>
<text xml:space="preserve" text-anchor="middle" x="1986.18" y="-2279.2" font-family="Times,serif" font-size="14.00">8,262</text>
</g>
<!-- iuphar.ligand&#45;&#45;civic.gid
903 -->
<g id="edge138" class="edge">
<title>iuphar.ligand&#45;&#45;civic.gid
903</title>
<path fill="none" stroke="black" d="M1815.07,-1598.76C1825.62,-1564.67 1848.96,-1488.97 1867.95,-1425 1893.24,-1339.85 1907.37,-1320.36 1923.45,-1233 1932.22,-1185.41 1920.92,-1059.81 1941.45,-1016 1945.07,-1008.29 1950.69,-1001.2 1956.72,-995.09"/>
<text xml:space="preserve" text-anchor="middle" x="1904.7" y="-1369.19" font-family="Times,serif" font-size="14.00">40</text>
</g>
<!-- iuphar.ligand&#45;&#45;ncit
12,711 -->
<g id="edge139" class="edge">
<title>iuphar.ligand&#45;&#45;ncit
12,711</title>
<path fill="none" stroke="black" d="M1838.26,-1601.03C1890.24,-1571.04 2000.59,-1501.73 2069.15,-1418 2089.86,-1392.71 2105.22,-1358.29 2114.33,-1334.3"/>
<text xml:space="preserve" text-anchor="middle" x="1986.18" y="-1537.1" font-family="Times,serif" font-size="14.00">349</text>
</g>
<!-- iuphar.ligand&#45;&#45;wikidata
797,957 -->
<g id="edge140" class="edge">
<title>iuphar.ligand&#45;&#45;wikidata
797,957</title>
<path fill="none" stroke="black" d="M1837.35,-1632.98C1918.26,-1679.25 2152.47,-1813.21 2239.6,-1863.03"/>
<text xml:space="preserve" text-anchor="middle" x="2059.03" y="-1767.96" font-family="Times,serif" font-size="14.00">476</text>
</g>
<!-- lncipedia&#45;&#45;ncit
12,711 -->
<g id="edge141" class="edge">
<title>lncipedia&#45;&#45;ncit
12,711</title>
<path fill="none" stroke="black" d="M1645.8,-2061.65C1705.74,-2023.03 1858.6,-1924.22 1867.95,-1915 1878.09,-1905 1875.7,-1898.38 1885.95,-1888.5 1900.12,-1874.85 1911.3,-1880.46 1923.45,-1865 1939.09,-1845.11 1924.16,-1829.46 1941.45,-1811 1983.36,-1766.28 2031.96,-1807.7 2069.15,-1759 2120.18,-1692.19 2124.29,-1424.77 2124.2,-1335.32"/>
<text xml:space="preserve" text-anchor="middle" x="1904.7" y="-1891.7" font-family="Times,serif" font-size="14.00">29</text>
</g>
<!-- lncipedia&#45;&#45;wikidata
797,957 -->
<g id="edge142" class="edge">
<title>lncipedia&#45;&#45;wikidata
797,957</title>
<path fill="none" stroke="black" d="M1665.79,-2076.63C1703.37,-2076.35 1758.95,-2076 1807.41,-2076 1807.41,-2076 1807.41,-2076 2125.98,-2076 2207.92,-2076 2249.96,-1964.59 2265.52,-1910.63"/>
<text xml:space="preserve" text-anchor="middle" x="1986.18" y="-2079.2" font-family="Times,serif" font-size="14.00">2,456</text>
</g>
<!-- civic.gid
903&#45;&#45;ncit
12,711 -->
<g id="edge144" class="edge">
<title>civic.gid
903&#45;&#45;ncit
12,711</title>
<path fill="none" stroke="black" d="M2028.92,-981.81C2043.68,-986.94 2059.09,-994.98 2069.15,-1007.5 2102.41,-1048.88 2117.28,-1210.05 2122.11,-1276.8"/>
<text xml:space="preserve" text-anchor="middle" x="2059.03" y="-1010.7" font-family="Times,serif" font-size="14.00">579</text>
</g>
<!-- civic.gid
903&#45;&#45;wikidata
797,957 -->
<g id="edge145" class="edge">
<title>civic.gid
903&#45;&#45;wikidata
797,957</title>
<path fill="none" stroke="black" d="M2031.22,-972.16C2044.67,-973.96 2058.66,-978.17 2069.15,-987 2164.55,-1067.32 2130.8,-1130.97 2162.81,-1251.5 2223.29,-1479.17 2259,-1762.15 2269.49,-1852.7"/>
<text xml:space="preserve" text-anchor="middle" x="2124.98" y="-1254.7" font-family="Times,serif" font-size="14.00">631</text>
</g>
<!-- ncit
12,711&#45;&#45;wikidata
797,957 -->
<g id="edge146" class="edge">
<title>ncit
12,711&#45;&#45;wikidata
797,957</title>
<path fill="none" stroke="black" d="M2133.26,-1334.56C2158.25,-1432.63 2240.38,-1754.94 2265.44,-1853.26"/>
<text xml:space="preserve" text-anchor="middle" x="2196.19" y="-1631.69" font-family="Times,serif" font-size="14.00">6,007</text>
</g>
<!-- mgi
661,778&#45;&#45;wikidata
797,957 -->
<g id="edge143" class="edge">
<title>mgi
661,778&#45;&#45;wikidata
797,957</title>
<path fill="none" stroke="black" d="M1062.71,-2281.04C1068.66,-2287.2 1075.04,-2293.83 1080.92,-2300 1230.01,-2456.5 1242.12,-2531.49 1429.64,-2639 1507.82,-2683.83 1529.83,-2709 1619.95,-2709 1619.95,-2709 1619.95,-2709 2125.98,-2709 2175.12,-2709 2188.74,-2682.52 2211.56,-2639 2245.89,-2573.53 2267.03,-2041.89 2271.75,-1911.02"/>
<text xml:space="preserve" text-anchor="middle" x="1620.95" y="-2712.2" font-family="Times,serif" font-size="14.00">71,593</text>
</g>
</g>
</svg>
