<?xml version="1.0" encoding="UTF-8" standalone="no"?>
<!DOCTYPE svg PUBLIC "-//W3C//DTD SVG 1.1//EN"
 "http://www.w3.org/Graphics/SVG/1.1/DTD/svg11.dtd">
<!-- Generated by graphviz version 13.1.0 (20250701.0955)
 -->
<!-- Pages: 1 -->
<svg width="622pt" height="1144pt"
 viewBox="0.00 0.00 622.00 1144.00" xmlns="http://www.w3.org/2000/svg" xmlns:xlink="http://www.w3.org/1999/xlink">
<g id="graph0" class="graph" transform="scale(1 1) rotate(0) translate(4 1139.99)">
<polygon fill="white" stroke="none" points="-4,4 -4,-1139.99 618.16,-1139.99 618.16,4 -4,4"/>
<!-- hgnc
44,244 -->
<g id="node1" class="node">
<title>hgnc
44,244</title>
<ellipse fill="none" stroke="black" cx="37.83" cy="-471.99" rx="37.83" ry="28.99"/>
<text xml:space="preserve" text-anchor="middle" x="37.83" y="-475.19" font-family="Times,serif" font-size="14.00">hgnc</text>
<text xml:space="preserve" text-anchor="middle" x="37.83" y="-458.69" font-family="Times,serif" font-size="14.00">44,244</text>
</g>
<!-- ccds -->
<g id="node2" class="node">
<title>ccds</title>
<ellipse fill="none" stroke="black" cx="215.87" cy="-1117.99" rx="27.3" ry="18"/>
<text xml:space="preserve" text-anchor="middle" x="215.87" y="-1112.94" font-family="Times,serif" font-size="14.00">ccds</text>
</g>
<!-- hgnc
44,244&#45;&#45;ccds -->
<g id="edge1" class="edge">
<title>hgnc
44,244&#45;&#45;ccds</title>
<path fill="none" stroke="black" d="M39.65,-501.37C43.1,-616.15 57.94,-1030.33 93.66,-1075.99 116.23,-1104.84 159.84,-1113.96 188.13,-1116.79"/>
<text xml:space="preserve" text-anchor="middle" x="112.41" y="-1105.41" font-family="Times,serif" font-size="14.00">16,543</text>
</g>
<!-- ena.embl -->
<g id="node3" class="node">
<title>ena.embl</title>
<ellipse fill="none" stroke="black" cx="215.87" cy="-1063.99" rx="45.21" ry="18"/>
<text xml:space="preserve" text-anchor="middle" x="215.87" y="-1058.94" font-family="Times,serif" font-size="14.00">ena.embl</text>
</g>
<!-- hgnc
44,244&#45;&#45;ena.embl -->
<g id="edge2" class="edge">
<title>hgnc
44,244&#45;&#45;ena.embl</title>
<path fill="none" stroke="black" d="M39.76,-501.15C43.51,-610.4 59,-991.26 93.66,-1031.99 112.28,-1053.87 143.92,-1061.69 170.21,-1064.14"/>
<text xml:space="preserve" text-anchor="middle" x="112.41" y="-1058.68" font-family="Times,serif" font-size="14.00">20,683</text>
</g>
<!-- ensembl -->
<g id="node4" class="node">
<title>ensembl</title>
<ellipse fill="none" stroke="black" cx="215.87" cy="-872.99" rx="42.14" ry="18"/>
<text xml:space="preserve" text-anchor="middle" x="215.87" y="-867.94" font-family="Times,serif" font-size="14.00">ensembl</text>
</g>
<!-- hgnc
44,244&#45;&#45;ensembl -->
<g id="edge3" class="edge">
<title>hgnc
44,244&#45;&#45;ensembl</title>
<path fill="none" stroke="black" d="M42.62,-501.23C49.03,-544.9 64.27,-629.09 93.66,-694.99 122.44,-759.53 174.79,-825.79 200.22,-856.06"/>
<text xml:space="preserve" text-anchor="middle" x="112.41" y="-765.37" font-family="Times,serif" font-size="14.00">41,610</text>
</g>
<!-- iuphar.receptor -->
<g id="node5" class="node">
<title>iuphar.receptor</title>
<ellipse fill="none" stroke="black" cx="215.87" cy="-579.99" rx="66.71" ry="18"/>
<text xml:space="preserve" text-anchor="middle" x="215.87" y="-574.94" font-family="Times,serif" font-size="14.00">iuphar.receptor</text>
</g>
<!-- hgnc
44,244&#45;&#45;iuphar.receptor -->
<g id="edge4" class="edge">
<title>hgnc
44,244&#45;&#45;iuphar.receptor</title>
<path fill="none" stroke="black" d="M60.41,-495.81C70,-505.58 81.79,-516.56 93.66,-524.99 118.15,-542.39 149.02,-556.3 173.48,-565.78"/>
<text xml:space="preserve" text-anchor="middle" x="112.41" y="-548.77" font-family="Times,serif" font-size="14.00">3,109</text>
</g>
<!-- ncbigene
56,689,711 -->
<g id="node6" class="node">
<title>ncbigene
56,689,711</title>
<ellipse fill="none" stroke="black" cx="215.87" cy="-696.99" rx="54.8" ry="28.99"/>
<text xml:space="preserve" text-anchor="middle" x="215.87" y="-700.19" font-family="Times,serif" font-size="14.00">ncbigene</text>
<text xml:space="preserve" text-anchor="middle" x="215.87" y="-683.69" font-family="Times,serif" font-size="14.00">56,689,711</text>
</g>
<!-- hgnc
44,244&#45;&#45;ncbigene
56,689,711 -->
<g id="edge5" class="edge">
<title>hgnc
44,244&#45;&#45;ncbigene
56,689,711</title>
<path fill="none" stroke="black" d="M40.43,-501.33C44.03,-539.68 55.72,-606.8 93.66,-647.99 112.04,-667.94 139.67,-679.94 163.91,-687.07"/>
<text xml:space="preserve" text-anchor="middle" x="112.41" y="-677.66" font-family="Times,serif" font-size="14.00">43,912</text>
</g>
<!-- omim
27,282 -->
<g id="node7" class="node">
<title>omim
27,282</title>
<ellipse fill="none" stroke="black" cx="407.55" cy="-615.99" rx="37.83" ry="28.99"/>
<text xml:space="preserve" text-anchor="middle" x="407.55" y="-619.19" font-family="Times,serif" font-size="14.00">omim</text>
<text xml:space="preserve" text-anchor="middle" x="407.55" y="-602.69" font-family="Times,serif" font-size="14.00">27,282</text>
</g>
<!-- hgnc
44,244&#45;&#45;omim
27,282 -->
<g id="edge6" class="edge">
<title>hgnc
44,244&#45;&#45;omim
27,282</title>
<path fill="none" stroke="black" d="M50.14,-499.6C66.14,-534.07 99.14,-590.52 149.16,-606.99 205.48,-625.54 227.79,-629.68 282.57,-606.99 293.02,-602.66 290.12,-593.32 300.57,-588.99 318.74,-581.47 325.57,-584.97 344.82,-588.99 355.35,-591.19 366.29,-595.3 375.98,-599.66"/>
<text xml:space="preserve" text-anchor="middle" x="215.87" y="-625.69" font-family="Times,serif" font-size="14.00">17,519</text>
</g>
<!-- refseq -->
<g id="node8" class="node">
<title>refseq</title>
<ellipse fill="none" stroke="black" cx="215.87" cy="-525.99" rx="33.44" ry="18"/>
<text xml:space="preserve" text-anchor="middle" x="215.87" y="-520.94" font-family="Times,serif" font-size="14.00">refseq</text>
</g>
<!-- hgnc
44,244&#45;&#45;refseq -->
<g id="edge7" class="edge">
<title>hgnc
44,244&#45;&#45;refseq</title>
<path fill="none" stroke="black" d="M71.98,-485.3C79.09,-487.98 86.59,-490.68 93.66,-492.99 124.34,-503.02 160.06,-512.48 184.73,-518.68"/>
<text xml:space="preserve" text-anchor="middle" x="112.41" y="-507.24" font-family="Times,serif" font-size="14.00">42,303</text>
</g>
<!-- ucsc -->
<g id="node9" class="node">
<title>ucsc</title>
<ellipse fill="none" stroke="black" cx="215.87" cy="-471.99" rx="27.3" ry="18"/>
<text xml:space="preserve" text-anchor="middle" x="215.87" y="-466.94" font-family="Times,serif" font-size="14.00">ucsc</text>
</g>
<!-- hgnc
44,244&#45;&#45;ucsc -->
<g id="edge8" class="edge">
<title>hgnc
44,244&#45;&#45;ucsc</title>
<path fill="none" stroke="black" d="M75.73,-471.99C109.41,-471.99 158.36,-471.99 188.32,-471.99"/>
<text xml:space="preserve" text-anchor="middle" x="112.41" y="-475.19" font-family="Times,serif" font-size="14.00">24,301</text>
</g>
<!-- vega -->
<g id="node10" class="node">
<title>vega</title>
<ellipse fill="none" stroke="black" cx="215.87" cy="-417.99" rx="28.32" ry="18"/>
<text xml:space="preserve" text-anchor="middle" x="215.87" y="-412.94" font-family="Times,serif" font-size="14.00">vega</text>
</g>
<!-- hgnc
44,244&#45;&#45;vega -->
<g id="edge9" class="edge">
<title>hgnc
44,244&#45;&#45;vega</title>
<path fill="none" stroke="black" d="M72.01,-459.05C79.11,-456.43 86.6,-453.78 93.66,-451.49 126.26,-440.91 164.46,-430.71 189.13,-424.4"/>
<text xml:space="preserve" text-anchor="middle" x="112.41" y="-454.69" font-family="Times,serif" font-size="14.00">32,396</text>
</g>
<!-- orphanet -->
<g id="node11" class="node">
<title>orphanet</title>
<ellipse fill="none" stroke="black" cx="215.87" cy="-363.99" rx="43.16" ry="18"/>
<text xml:space="preserve" text-anchor="middle" x="215.87" y="-358.94" font-family="Times,serif" font-size="14.00">orphanet</text>
</g>
<!-- hgnc
44,244&#45;&#45;orphanet -->
<g id="edge10" class="edge">
<title>hgnc
44,244&#45;&#45;orphanet</title>
<path fill="none" stroke="black" d="M60.47,-448.45C70.07,-438.78 81.85,-427.9 93.66,-419.49 120.99,-400.02 156.25,-384.8 181.68,-375.26"/>
<text xml:space="preserve" text-anchor="middle" x="112.41" y="-422.69" font-family="Times,serif" font-size="14.00">4,418</text>
</g>
<!-- lrg -->
<g id="node12" class="node">
<title>lrg</title>
<ellipse fill="none" stroke="black" cx="215.87" cy="-309.99" rx="27" ry="18"/>
<text xml:space="preserve" text-anchor="middle" x="215.87" y="-304.94" font-family="Times,serif" font-size="14.00">lrg</text>
</g>
<!-- hgnc
44,244&#45;&#45;lrg -->
<g id="edge11" class="edge">
<title>hgnc
44,244&#45;&#45;lrg</title>
<path fill="none" stroke="black" d="M51.17,-444.73C60.93,-425 75.85,-398.41 93.66,-378.49 114.19,-355.53 122.37,-352.19 149.16,-336.99 162.57,-329.39 178.55,-322.77 191.39,-317.99"/>
<text xml:space="preserve" text-anchor="middle" x="112.41" y="-381.69" font-family="Times,serif" font-size="14.00">1,325</text>
</g>
<!-- cosmic -->
<g id="node13" class="node">
<title>cosmic</title>
<ellipse fill="none" stroke="black" cx="215.87" cy="-255.99" rx="37.53" ry="18"/>
<text xml:space="preserve" text-anchor="middle" x="215.87" y="-250.94" font-family="Times,serif" font-size="14.00">cosmic</text>
</g>
<!-- hgnc
44,244&#45;&#45;cosmic -->
<g id="edge12" class="edge">
<title>hgnc
44,244&#45;&#45;cosmic</title>
<path fill="none" stroke="black" d="M44.96,-443.21C52.55,-412.37 67.78,-363.08 93.66,-327.49 116.08,-296.67 156.18,-276.86 184.09,-266.09"/>
<text xml:space="preserve" text-anchor="middle" x="112.41" y="-330.69" font-family="Times,serif" font-size="14.00">569</text>
</g>
<!-- pseudogene -->
<g id="node14" class="node">
<title>pseudogene</title>
<ellipse fill="none" stroke="black" cx="215.87" cy="-201.99" rx="54.42" ry="18"/>
<text xml:space="preserve" text-anchor="middle" x="215.87" y="-196.94" font-family="Times,serif" font-size="14.00">pseudogene</text>
</g>
<!-- hgnc
44,244&#45;&#45;pseudogene -->
<g id="edge13" class="edge">
<title>hgnc
44,244&#45;&#45;pseudogene</title>
<path fill="none" stroke="black" d="M41.25,-442.74C45.83,-401.85 58.67,-326.65 93.66,-273.49 112.8,-244.41 148.19,-225.55 175.81,-214.55"/>
<text xml:space="preserve" text-anchor="middle" x="112.41" y="-276.69" font-family="Times,serif" font-size="14.00">8,507</text>
</g>
<!-- iuphar.ligand -->
<g id="node15" class="node">
<title>iuphar.ligand</title>
<ellipse fill="none" stroke="black" cx="215.87" cy="-147.99" rx="59.54" ry="18"/>
<text xml:space="preserve" text-anchor="middle" x="215.87" y="-142.94" font-family="Times,serif" font-size="14.00">iuphar.ligand</text>
</g>
<!-- hgnc
44,244&#45;&#45;iuphar.ligand -->
<g id="edge14" class="edge">
<title>hgnc
44,244&#45;&#45;iuphar.ligand</title>
<path fill="none" stroke="black" d="M38.88,-442.62C40.27,-392.77 48.85,-290.04 93.66,-218.49 111.56,-189.92 145.56,-171.63 173.01,-160.85"/>
<text xml:space="preserve" text-anchor="middle" x="112.41" y="-221.69" font-family="Times,serif" font-size="14.00">470</text>
</g>
<!-- lncipedia -->
<g id="node16" class="node">
<title>lncipedia</title>
<ellipse fill="none" stroke="black" cx="215.87" cy="-93.99" rx="44.7" ry="18"/>
<text xml:space="preserve" text-anchor="middle" x="215.87" y="-88.94" font-family="Times,serif" font-size="14.00">lncipedia</text>
</g>
<!-- hgnc
44,244&#45;&#45;lncipedia -->
<g id="edge15" class="edge">
<title>hgnc
44,244&#45;&#45;lncipedia</title>
<path fill="none" stroke="black" d="M41.31,-442.87C47.47,-375.37 65.1,-210.43 93.66,-163.49 112.38,-132.72 150.17,-114.26 178.6,-104.19"/>
<text xml:space="preserve" text-anchor="middle" x="112.41" y="-166.69" font-family="Times,serif" font-size="14.00">2,433</text>
</g>
<!-- ncit
12,711 -->
<g id="node17" class="node">
<title>ncit
12,711</title>
<ellipse fill="none" stroke="black" cx="215.87" cy="-28.99" rx="37.83" ry="28.99"/>
<text xml:space="preserve" text-anchor="middle" x="215.87" y="-32.19" font-family="Times,serif" font-size="14.00">ncit</text>
<text xml:space="preserve" text-anchor="middle" x="215.87" y="-15.69" font-family="Times,serif" font-size="14.00">12,711</text>
</g>
<!-- hgnc
44,244&#45;&#45;ncit
12,711 -->
<g id="edge16" class="edge">
<title>hgnc
44,244&#45;&#45;ncit
12,711</title>
<path fill="none" stroke="black" d="M40.3,-442.61C44.58,-366.15 59,-162.95 93.66,-106.49 113.52,-74.14 152.53,-52.88 180.94,-40.95"/>
<text xml:space="preserve" text-anchor="middle" x="112.41" y="-109.69" font-family="Times,serif" font-size="14.00">5,978</text>
</g>
<!-- wikidata
797,957 -->
<g id="node18" class="node">
<title>wikidata
797,957</title>
<ellipse fill="none" stroke="black" cx="569.96" cy="-680.99" rx="44.19" ry="28.99"/>
<text xml:space="preserve" text-anchor="middle" x="569.96" y="-684.19" font-family="Times,serif" font-size="14.00">wikidata</text>
<text xml:space="preserve" text-anchor="middle" x="569.96" y="-667.69" font-family="Times,serif" font-size="14.00">797,957</text>
</g>
<!-- hgnc
44,244&#45;&#45;wikidata
797,957 -->
<g id="edge17" class="edge">
<title>hgnc
44,244&#45;&#45;wikidata
797,957</title>
<path fill="none" stroke="black" d="M41.36,-501.34C46.75,-557.26 61.59,-682.44 93.66,-782.99 111.15,-837.82 108.48,-859.28 149.16,-899.99 201.83,-952.71 229.42,-949.86 300.57,-971.99 365.09,-992.06 390.47,-1009.31 452.27,-981.99 485.79,-967.17 490.39,-953.26 507.77,-920.99 545.38,-851.14 560.57,-757.31 566.11,-710.35"/>
<text xml:space="preserve" text-anchor="middle" x="322.7" y="-989.61" font-family="Times,serif" font-size="14.00">43,557</text>
</g>
<!-- ensembl&#45;&#45;omim
27,282 -->
<g id="edge18" class="edge">
<title>ensembl&#45;&#45;omim
27,282</title>
<path fill="none" stroke="black" d="M224.98,-855.28C237.72,-829.18 264.71,-780.28 300.57,-750.49 317.1,-736.76 330.97,-747.42 344.82,-730.99 366.08,-705.77 346.45,-687.63 362.82,-658.99 367.47,-650.86 374.09,-643.23 380.78,-636.73"/>
<text xml:space="preserve" text-anchor="middle" x="322.7" y="-753.69" font-family="Times,serif" font-size="14.00">17,273</text>
</g>
<!-- ensembl&#45;&#45;wikidata
797,957 -->
<g id="edge22" class="edge">
<title>ensembl&#45;&#45;wikidata
797,957</title>
<path fill="none" stroke="black" d="M228.27,-890.46C242.46,-910.42 268.74,-942 300.57,-954.99 331.72,-967.71 430.24,-960.85 452.27,-944.99 531.18,-888.21 557.51,-765.88 565.63,-709.95"/>
<text xml:space="preserve" text-anchor="middle" x="407.55" y="-964.68" font-family="Times,serif" font-size="14.00">156,332</text>
</g>
<!-- mgi
661,778 -->
<g id="node19" class="node">
<title>mgi
661,778</title>
<ellipse fill="none" stroke="black" cx="407.55" cy="-749.99" rx="42.6" ry="28.99"/>
<text xml:space="preserve" text-anchor="middle" x="407.55" y="-753.19" font-family="Times,serif" font-size="14.00">mgi</text>
<text xml:space="preserve" text-anchor="middle" x="407.55" y="-736.69" font-family="Times,serif" font-size="14.00">661,778</text>
</g>
<!-- ensembl&#45;&#45;mgi
661,778 -->
<g id="edge19" class="edge">
<title>ensembl&#45;&#45;mgi
661,778</title>
<path fill="none" stroke="black" d="M245.5,-859.83C280.53,-843.62 336.26,-817.42 344.82,-810.99 354.38,-803.81 354.45,-799.53 362.82,-790.99 368.65,-785.04 375.1,-778.81 381.22,-773.05"/>
<text xml:space="preserve" text-anchor="middle" x="322.7" y="-836.71" font-family="Times,serif" font-size="14.00">77,658</text>
</g>
<!-- rgd
61,462 -->
<g id="node20" class="node">
<title>rgd
61,462</title>
<ellipse fill="none" stroke="black" cx="407.55" cy="-828.99" rx="37.83" ry="28.99"/>
<text xml:space="preserve" text-anchor="middle" x="407.55" y="-832.19" font-family="Times,serif" font-size="14.00">rgd</text>
<text xml:space="preserve" text-anchor="middle" x="407.55" y="-815.69" font-family="Times,serif" font-size="14.00">61,462</text>
</g>
<!-- ensembl&#45;&#45;rgd
61,462 -->
<g id="edge20" class="edge">
<title>ensembl&#45;&#45;rgd
61,462</title>
<path fill="none" stroke="black" d="M245.97,-886.04C272.86,-896.08 313.3,-905.93 344.82,-890.99 356.24,-885.58 354.14,-878.17 362.82,-868.99 368.76,-862.71 375.51,-856.25 381.9,-850.4"/>
<text xml:space="preserve" text-anchor="middle" x="322.7" y="-901.84" font-family="Times,serif" font-size="14.00">44,968</text>
</g>
<!-- cgnc
26,085 -->
<g id="node21" class="node">
<title>cgnc
26,085</title>
<ellipse fill="none" stroke="black" cx="407.55" cy="-906.99" rx="37.83" ry="28.99"/>
<text xml:space="preserve" text-anchor="middle" x="407.55" y="-910.19" font-family="Times,serif" font-size="14.00">cgnc</text>
<text xml:space="preserve" text-anchor="middle" x="407.55" y="-893.69" font-family="Times,serif" font-size="14.00">26,085</text>
</g>
<!-- ensembl&#45;&#45;cgnc
26,085 -->
<g id="edge21" class="edge">
<title>ensembl&#45;&#45;cgnc
26,085</title>
<path fill="none" stroke="black" d="M234.07,-889.68C249.9,-903.78 274.75,-922.92 300.57,-930.99 325.24,-938.7 353.85,-931.29 375.13,-922.73"/>
<text xml:space="preserve" text-anchor="middle" x="322.7" y="-937.42" font-family="Times,serif" font-size="14.00">15,341</text>
</g>
<!-- ncbigene
56,689,711&#45;&#45;omim
27,282 -->
<g id="edge23" class="edge">
<title>ncbigene
56,689,711&#45;&#45;omim
27,282</title>
<path fill="none" stroke="black" d="M251.86,-674.95C266.55,-666.28 284.03,-656.7 300.57,-649.49 323.57,-639.47 350.53,-630.98 371.51,-625.06"/>
<text xml:space="preserve" text-anchor="middle" x="322.7" y="-652.69" font-family="Times,serif" font-size="14.00">18,573</text>
</g>
<!-- ncbigene
56,689,711&#45;&#45;wikidata
797,957 -->
<g id="edge28" class="edge">
<title>ncbigene
56,689,711&#45;&#45;wikidata
797,957</title>
<path fill="none" stroke="black" d="M270.73,-694.54C340.56,-691.37 461.01,-685.9 525.39,-682.97"/>
<text xml:space="preserve" text-anchor="middle" x="407.55" y="-693.52" font-family="Times,serif" font-size="14.00">788,061</text>
</g>
<!-- ncbigene
56,689,711&#45;&#45;mgi
661,778 -->
<g id="edge24" class="edge">
<title>ncbigene
56,689,711&#45;&#45;mgi
661,778</title>
<path fill="none" stroke="black" d="M270.85,-699.74C294.08,-702.09 321.27,-706.45 344.82,-714.49 355.7,-718.21 366.82,-723.91 376.57,-729.66"/>
<text xml:space="preserve" text-anchor="middle" x="322.7" y="-717.69" font-family="Times,serif" font-size="14.00">111,826</text>
</g>
<!-- ncbigene
56,689,711&#45;&#45;rgd
61,462 -->
<g id="edge25" class="edge">
<title>ncbigene
56,689,711&#45;&#45;rgd
61,462</title>
<path fill="none" stroke="black" d="M241.94,-722.89C257.76,-738.23 279.17,-757.29 300.57,-770.99 318.67,-782.58 325.82,-780.45 344.82,-790.49 355.99,-796.39 367.85,-803.56 378.16,-810.1"/>
<text xml:space="preserve" text-anchor="middle" x="322.7" y="-793.69" font-family="Times,serif" font-size="14.00">48,330</text>
</g>
<!-- ncbigene
56,689,711&#45;&#45;cgnc
26,085 -->
<g id="edge26" class="edge">
<title>ncbigene
56,689,711&#45;&#45;cgnc
26,085</title>
<path fill="none" stroke="black" d="M226.08,-725.89C238.23,-759.87 262.62,-816.06 300.57,-850.99 316.38,-865.55 325.7,-860.67 344.82,-870.49 355.67,-876.07 367.26,-882.72 377.43,-888.81"/>
<text xml:space="preserve" text-anchor="middle" x="322.7" y="-873.69" font-family="Times,serif" font-size="14.00">26,070</text>
</g>
<!-- civic.gid
903 -->
<g id="node22" class="node">
<title>civic.gid
903</title>
<ellipse fill="none" stroke="black" cx="407.55" cy="-539.99" rx="44.72" ry="28.99"/>
<text xml:space="preserve" text-anchor="middle" x="407.55" y="-543.19" font-family="Times,serif" font-size="14.00">civic.gid</text>
<text xml:space="preserve" text-anchor="middle" x="407.55" y="-526.69" font-family="Times,serif" font-size="14.00">903</text>
</g>
<!-- ncbigene
56,689,711&#45;&#45;civic.gid
903 -->
<g id="edge27" class="edge">
<title>ncbigene
56,689,711&#45;&#45;civic.gid
903</title>
<path fill="none" stroke="black" d="M256.35,-677.09C265.82,-670.97 275.28,-663.54 282.57,-654.99 295.61,-639.69 287.82,-629.04 300.57,-613.49 320.02,-589.77 349,-570.39 371.75,-557.5"/>
<text xml:space="preserve" text-anchor="middle" x="322.7" y="-616.69" font-family="Times,serif" font-size="14.00">593</text>
</g>
<!-- omim
27,282&#45;&#45;wikidata
797,957 -->
<g id="edge29" class="edge">
<title>omim
27,282&#45;&#45;wikidata
797,957</title>
<path fill="none" stroke="black" d="M442.94,-626.75C462.22,-633.08 486.59,-641.57 507.77,-650.49 516.63,-654.22 526.01,-658.65 534.7,-662.95"/>
<text xml:space="preserve" text-anchor="middle" x="489.02" y="-653.69" font-family="Times,serif" font-size="14.00">25,898</text>
</g>
<!-- civic.gid
903&#45;&#45;wikidata
797,957 -->
<g id="edge30" class="edge">
<title>civic.gid
903&#45;&#45;wikidata
797,957</title>
<path fill="none" stroke="black" d="M438.59,-561.27C458.79,-576.02 485.65,-596.52 507.77,-616.49 521.41,-628.8 535.59,-643.6 546.86,-655.92"/>
<text xml:space="preserve" text-anchor="middle" x="489.02" y="-619.69" font-family="Times,serif" font-size="14.00">491</text>
</g>
</g>
</svg>
