<?xml version="1.0" encoding="UTF-8" standalone="no"?>
<!DOCTYPE svg PUBLIC "-//W3C//DTD SVG 1.1//EN"
 "http://www.w3.org/Graphics/SVG/1.1/DTD/svg11.dtd">
<!-- Generated by graphviz version 12.2.1 (20241206.2353)
 -->
<!-- Pages: 1 -->
<svg width="587pt" height="191pt"
 viewBox="0.00 0.00 587.37 190.82" xmlns="http://www.w3.org/2000/svg" xmlns:xlink="http://www.w3.org/1999/xlink">
<g id="graph0" class="graph" transform="scale(1 1) rotate(0) translate(4 186.82)">
<polygon fill="white" stroke="none" points="-4,4 -4,-186.82 583.37,-186.82 583.37,4 -4,4"/>
<!-- mesh
1,797 -->
<g id="node1" class="node">
<title>mesh
1,797</title>
<ellipse fill="none" stroke="black" cx="33.06" cy="-89.83" rx="33.06" ry="28.99"/>
<text text-anchor="middle" x="33.06" y="-93.03" font-family="Times,serif" font-size="14.00">mesh</text>
<text text-anchor="middle" x="33.06" y="-76.53" font-family="Times,serif" font-size="14.00">1,797</text>
</g>
<!-- ncit
7,579 -->
<g id="node2" class="node">
<title>ncit
7,579</title>
<ellipse fill="none" stroke="black" cx="148.67" cy="-89.83" rx="33.06" ry="28.99"/>
<text text-anchor="middle" x="148.67" y="-93.03" font-family="Times,serif" font-size="14.00">ncit</text>
<text text-anchor="middle" x="148.67" y="-76.53" font-family="Times,serif" font-size="14.00">7,579</text>
</g>
<!-- mesh
1,797&#45;&#45;ncit
7,579 -->
<g id="edge1" class="edge">
<title>mesh
1,797&#45;&#45;ncit
7,579</title>
<path fill="none" stroke="black" d="M66.31,-89.83C81.66,-89.83 99.98,-89.83 115.34,-89.83"/>
<text text-anchor="middle" x="90.86" y="-93.03" font-family="Times,serif" font-size="14.00">74</text>
</g>
<!-- uberon
15,668 -->
<g id="node3" class="node">
<title>uberon
15,668</title>
<ellipse fill="none" stroke="black" cx="286.31" cy="-153.83" rx="37.83" ry="28.99"/>
<text text-anchor="middle" x="286.31" y="-157.03" font-family="Times,serif" font-size="14.00">uberon</text>
<text text-anchor="middle" x="286.31" y="-140.53" font-family="Times,serif" font-size="14.00">15,668</text>
</g>
<!-- mesh
1,797&#45;&#45;uberon
15,668 -->
<g id="edge2" class="edge">
<title>mesh
1,797&#45;&#45;uberon
15,668</title>
<path fill="none" stroke="black" d="M61.59,-105.04C77.05,-112.97 96.93,-122.16 115.61,-127.83 160.11,-141.33 213.39,-148.03 248.22,-151.21"/>
<text text-anchor="middle" x="148.67" y="-145.57" font-family="Times,serif" font-size="14.00">1,082</text>
</g>
<!-- bto
6,570 -->
<g id="node4" class="node">
<title>bto
6,570</title>
<ellipse fill="none" stroke="black" cx="423.95" cy="-100.83" rx="33.06" ry="28.99"/>
<text text-anchor="middle" x="423.95" y="-104.03" font-family="Times,serif" font-size="14.00">bto</text>
<text text-anchor="middle" x="423.95" y="-87.53" font-family="Times,serif" font-size="14.00">6,570</text>
</g>
<!-- mesh
1,797&#45;&#45;bto
6,570 -->
<g id="edge3" class="edge">
<title>mesh
1,797&#45;&#45;bto
6,570</title>
<path fill="none" stroke="black" d="M60.61,-73.11C92.3,-54.24 147.57,-24.7 199.73,-13.33 247.17,-2.99 312.13,14 372.89,-21.83 392.19,-33.21 405.23,-55.28 413.15,-73.2"/>
<text text-anchor="middle" x="215.1" y="-16.53" font-family="Times,serif" font-size="14.00">55</text>
</g>
<!-- ncit
7,579&#45;&#45;uberon
15,668 -->
<g id="edge4" class="edge">
<title>ncit
7,579&#45;&#45;uberon
15,668</title>
<path fill="none" stroke="black" d="M179.13,-101.66C194.57,-108.05 213.71,-116.26 230.48,-124.33 238.56,-128.22 247.17,-132.69 255.11,-136.95"/>
<text text-anchor="middle" x="215.1" y="-127.53" font-family="Times,serif" font-size="14.00">2,527</text>
</g>
<!-- ncit
7,579&#45;&#45;bto
6,570 -->
<g id="edge5" class="edge">
<title>ncit
7,579&#45;&#45;bto
6,570</title>
<path fill="none" stroke="black" d="M182.09,-91.14C234.69,-93.25 338,-97.41 390.57,-99.53"/>
<text text-anchor="middle" x="286.31" y="-99.98" font-family="Times,serif" font-size="14.00">801</text>
</g>
<!-- umls
7,656 -->
<g id="node5" class="node">
<title>umls
7,656</title>
<ellipse fill="none" stroke="black" cx="546.31" cy="-100.83" rx="33.06" ry="28.99"/>
<text text-anchor="middle" x="546.31" y="-104.03" font-family="Times,serif" font-size="14.00">umls</text>
<text text-anchor="middle" x="546.31" y="-87.53" font-family="Times,serif" font-size="14.00">7,656</text>
</g>
<!-- ncit
7,579&#45;&#45;umls
7,656 -->
<g id="edge6" class="edge">
<title>ncit
7,579&#45;&#45;umls
7,656</title>
<path fill="none" stroke="black" d="M180.55,-81.28C236.32,-67.11 357.33,-42.29 457,-62.83 478.42,-67.24 501.04,-77.09 518.03,-85.65"/>
<text text-anchor="middle" x="357.51" y="-58.91" font-family="Times,serif" font-size="14.00">278</text>
</g>
<!-- uberon
15,668&#45;&#45;bto
6,570 -->
<g id="edge7" class="edge">
<title>uberon
15,668&#45;&#45;bto
6,570</title>
<path fill="none" stroke="black" d="M320.49,-140.86C342.76,-132.16 371.85,-120.8 393.34,-112.4"/>
<text text-anchor="middle" x="357.51" y="-135.28" font-family="Times,serif" font-size="14.00">1,465</text>
</g>
<!-- uberon
15,668&#45;&#45;umls
7,656 -->
<g id="edge8" class="edge">
<title>uberon
15,668&#45;&#45;umls
7,656</title>
<path fill="none" stroke="black" d="M324.44,-154.01C339.5,-153.81 357.05,-153.23 372.89,-151.83 410.57,-148.49 420.65,-149.28 457,-138.83 477.86,-132.84 500.3,-123.13 517.35,-115.03"/>
<text text-anchor="middle" x="423.95" y="-153.48" font-family="Times,serif" font-size="14.00">280</text>
</g>
<!-- bto
6,570&#45;&#45;umls
7,656 -->
<g id="edge9" class="edge">
<title>bto
6,570&#45;&#45;umls
7,656</title>
<path fill="none" stroke="black" d="M457.2,-100.83C474.47,-100.83 495.68,-100.83 512.97,-100.83"/>
<text text-anchor="middle" x="485.13" y="-104.03" font-family="Times,serif" font-size="14.00">115</text>
</g>
</g>
</svg>
