<?xml version="1.0" encoding="UTF-8" standalone="no"?>
<!DOCTYPE svg PUBLIC "-//W3C//DTD SVG 1.1//EN"
 "http://www.w3.org/Graphics/SVG/1.1/DTD/svg11.dtd">
<!-- Generated by graphviz version 12.0.0 (20240704.0754)
 -->
<!-- Pages: 1 -->
<svg width="587pt" height="247pt"
 viewBox="0.00 0.00 587.37 247.49" xmlns="http://www.w3.org/2000/svg" xmlns:xlink="http://www.w3.org/1999/xlink">
<g id="graph0" class="graph" transform="scale(1 1) rotate(0) translate(4 243.49)">
<polygon fill="white" stroke="none" points="-4,4 -4,-243.49 583.37,-243.49 583.37,4 -4,4"/>
<!-- mesh
1,797 -->
<g id="node1" class="node">
<title>mesh
1,797</title>
<ellipse fill="none" stroke="black" cx="33.06" cy="-112.99" rx="33.06" ry="28.99"/>
<text text-anchor="middle" x="33.06" y="-116.19" font-family="Times,serif" font-size="14.00">mesh</text>
<text text-anchor="middle" x="33.06" y="-99.69" font-family="Times,serif" font-size="14.00">1,797</text>
</g>
<!-- ncit
7,579 -->
<g id="node2" class="node">
<title>ncit
7,579</title>
<ellipse fill="none" stroke="black" cx="148.67" cy="-141.99" rx="33.06" ry="28.99"/>
<text text-anchor="middle" x="148.67" y="-145.19" font-family="Times,serif" font-size="14.00">ncit</text>
<text text-anchor="middle" x="148.67" y="-128.69" font-family="Times,serif" font-size="14.00">7,579</text>
</g>
<!-- mesh
1,797&#45;&#45;ncit
7,579 -->
<g id="edge1" class="edge">
<title>mesh
1,797&#45;&#45;ncit
7,579</title>
<path fill="none" stroke="black" d="M65.1,-120.92C81.13,-125.01 100.64,-129.99 116.66,-134.08"/>
<text text-anchor="middle" x="90.86" y="-131.19" font-family="Times,serif" font-size="14.00">74</text>
</g>
<!-- uberon
15,125 -->
<g id="node3" class="node">
<title>uberon
15,125</title>
<ellipse fill="none" stroke="black" cx="286.31" cy="-28.99" rx="37.83" ry="28.99"/>
<text text-anchor="middle" x="286.31" y="-32.19" font-family="Times,serif" font-size="14.00">uberon</text>
<text text-anchor="middle" x="286.31" y="-15.69" font-family="Times,serif" font-size="14.00">15,125</text>
</g>
<!-- mesh
1,797&#45;&#45;uberon
15,125 -->
<g id="edge2" class="edge">
<title>mesh
1,797&#45;&#45;uberon
15,125</title>
<path fill="none" stroke="black" d="M53.39,-89.63C68.4,-73.62 90.77,-53.98 115.61,-46.49 159.85,-33.16 213.19,-29.58 248.11,-28.81"/>
<text text-anchor="middle" x="148.67" y="-49.19" font-family="Times,serif" font-size="14.00">763</text>
</g>
<!-- bto
6,511 -->
<g id="node4" class="node">
<title>bto
6,511</title>
<ellipse fill="none" stroke="black" cx="423.95" cy="-96.99" rx="33.06" ry="28.99"/>
<text text-anchor="middle" x="423.95" y="-100.19" font-family="Times,serif" font-size="14.00">bto</text>
<text text-anchor="middle" x="423.95" y="-83.69" font-family="Times,serif" font-size="14.00">6,511</text>
</g>
<!-- mesh
1,797&#45;&#45;bto
6,511 -->
<g id="edge3" class="edge">
<title>mesh
1,797&#45;&#45;bto
6,511</title>
<path fill="none" stroke="black" d="M64.83,-103.61C97.82,-94.08 151.91,-79.97 199.73,-74.49 268.03,-66.66 348.25,-80.32 391.5,-89.56"/>
<text text-anchor="middle" x="215.1" y="-77.19" font-family="Times,serif" font-size="14.00">55</text>
</g>
<!-- umls
7,656 -->
<g id="node5" class="node">
<title>umls
7,656</title>
<ellipse fill="none" stroke="black" cx="546.31" cy="-164.99" rx="33.06" ry="28.99"/>
<text text-anchor="middle" x="546.31" y="-168.19" font-family="Times,serif" font-size="14.00">umls</text>
<text text-anchor="middle" x="546.31" y="-151.69" font-family="Times,serif" font-size="14.00">7,656</text>
</g>
<!-- mesh
1,797&#45;&#45;umls
7,656 -->
<g id="edge4" class="edge">
<title>mesh
1,797&#45;&#45;umls
7,656</title>
<path fill="none" stroke="black" d="M46.86,-139.62C64.58,-172.17 99.9,-222.99 147.67,-222.99 147.67,-222.99 147.67,-222.99 424.95,-222.99 461.36,-222.99 498.38,-201.18 521.57,-184.3"/>
<text text-anchor="middle" x="286.31" y="-226.19" font-family="Times,serif" font-size="14.00">159</text>
</g>
<!-- ncit
7,579&#45;&#45;uberon
15,125 -->
<g id="edge5" class="edge">
<title>ncit
7,579&#45;&#45;uberon
15,125</title>
<path fill="none" stroke="black" d="M178.18,-128.55C194.42,-120.16 214.62,-108.41 230.48,-94.99 244.47,-83.16 257.67,-67.46 267.62,-54.34"/>
<text text-anchor="middle" x="215.1" y="-118.19" font-family="Times,serif" font-size="14.00">2,531</text>
</g>
<!-- ncit
7,579&#45;&#45;bto
6,511 -->
<g id="edge6" class="edge">
<title>ncit
7,579&#45;&#45;bto
6,511</title>
<path fill="none" stroke="black" d="M182.01,-140C196.82,-138.88 214.58,-137.24 230.48,-134.99 287.64,-126.9 353.48,-112.86 391.45,-104.3"/>
<text text-anchor="middle" x="286.31" y="-134.19" font-family="Times,serif" font-size="14.00">804</text>
</g>
<!-- ncit
7,579&#45;&#45;umls
7,656 -->
<g id="edge7" class="edge">
<title>ncit
7,579&#45;&#45;umls
7,656</title>
<path fill="none" stroke="black" d="M181.38,-147.62C187.45,-148.54 193.77,-149.39 199.73,-149.99 314.44,-161.61 451.48,-164.24 512.82,-164.83"/>
<text text-anchor="middle" x="357.51" y="-164.19" font-family="Times,serif" font-size="14.00">530</text>
</g>
<!-- uberon
15,125&#45;&#45;bto
6,511 -->
<g id="edge8" class="edge">
<title>uberon
15,125&#45;&#45;bto
6,511</title>
<path fill="none" stroke="black" d="M323.12,-36.73C338.95,-40.98 357.43,-47.12 372.89,-55.49 383.01,-60.97 393.02,-68.68 401.39,-75.96"/>
<text text-anchor="middle" x="357.51" y="-58.19" font-family="Times,serif" font-size="14.00">1,462</text>
</g>
<!-- uberon
15,125&#45;&#45;umls
7,656 -->
<g id="edge9" class="edge">
<title>uberon
15,125&#45;&#45;umls
7,656</title>
<path fill="none" stroke="black" d="M323.62,-23.48C359.81,-19.82 415.8,-19.29 457,-42.49 494.7,-63.71 520.49,-108.47 534.06,-137.6"/>
<text text-anchor="middle" x="423.95" y="-45.19" font-family="Times,serif" font-size="14.00">310</text>
</g>
<!-- bto
6,511&#45;&#45;umls
7,656 -->
<g id="edge10" class="edge">
<title>bto
6,511&#45;&#45;umls
7,656</title>
<path fill="none" stroke="black" d="M452.26,-112.42C471.96,-123.55 498.43,-138.51 518.11,-149.62"/>
<text text-anchor="middle" x="485.13" y="-138.19" font-family="Times,serif" font-size="14.00">122</text>
</g>
</g>
</svg>
