<?xml version="1.0" encoding="UTF-8" standalone="no"?>
<!DOCTYPE svg PUBLIC "-//W3C//DTD SVG 1.1//EN"
 "http://www.w3.org/Graphics/SVG/1.1/DTD/svg11.dtd">
<!-- Generated by graphviz version 12.2.1 (20241206.2353)
 -->
<!-- Pages: 1 -->
<svg width="322pt" height="142pt"
 viewBox="0.00 0.00 321.64 141.98" xmlns="http://www.w3.org/2000/svg" xmlns:xlink="http://www.w3.org/1999/xlink">
<g id="graph0" class="graph" transform="scale(1 1) rotate(0) translate(4 137.98)">
<polygon fill="white" stroke="none" points="-4,4 -4,-137.98 317.64,-137.98 317.64,4 -4,4"/>
<!-- mesh
1,797 -->
<g id="node1" class="node">
<title>mesh
1,797</title>
<ellipse fill="none" stroke="black" cx="33.06" cy="-66.99" rx="33.06" ry="28.99"/>
<text text-anchor="middle" x="33.06" y="-70.19" font-family="Times,serif" font-size="14.00">mesh</text>
<text text-anchor="middle" x="33.06" y="-53.69" font-family="Times,serif" font-size="14.00">1,797</text>
</g>
<!-- ncit
7,579 -->
<g id="node2" class="node">
<title>ncit
7,579</title>
<ellipse fill="none" stroke="black" cx="160.19" cy="-104.99" rx="33.06" ry="28.99"/>
<text text-anchor="middle" x="160.19" y="-108.19" font-family="Times,serif" font-size="14.00">ncit</text>
<text text-anchor="middle" x="160.19" y="-91.69" font-family="Times,serif" font-size="14.00">7,579</text>
</g>
<!-- mesh
1,797&#45;&#45;ncit
7,579 -->
<g id="edge1" class="edge">
<title>mesh
1,797&#45;&#45;ncit
7,579</title>
<path fill="none" stroke="black" d="M64.67,-76.29C84.06,-82.18 109.05,-89.76 128.46,-95.66"/>
<text text-anchor="middle" x="94.24" y="-91.47" font-family="Times,serif" font-size="14.00">28</text>
</g>
<!-- uberon
15,668 -->
<g id="node3" class="node">
<title>uberon
15,668</title>
<ellipse fill="none" stroke="black" cx="160.19" cy="-28.99" rx="37.83" ry="28.99"/>
<text text-anchor="middle" x="160.19" y="-32.19" font-family="Times,serif" font-size="14.00">uberon</text>
<text text-anchor="middle" x="160.19" y="-15.69" font-family="Times,serif" font-size="14.00">15,668</text>
</g>
<!-- mesh
1,797&#45;&#45;uberon
15,668 -->
<g id="edge2" class="edge">
<title>mesh
1,797&#45;&#45;uberon
15,668</title>
<path fill="none" stroke="black" d="M64.67,-57.7C82.76,-52.2 105.72,-45.23 124.48,-39.53"/>
<text text-anchor="middle" x="94.24" y="-54.59" font-family="Times,serif" font-size="14.00">114</text>
</g>
<!-- bto
6,570 -->
<g id="node4" class="node">
<title>bto
6,570</title>
<ellipse fill="none" stroke="black" cx="280.58" cy="-28.99" rx="33.06" ry="28.99"/>
<text text-anchor="middle" x="280.58" y="-32.19" font-family="Times,serif" font-size="14.00">bto</text>
<text text-anchor="middle" x="280.58" y="-15.69" font-family="Times,serif" font-size="14.00">6,570</text>
</g>
<!-- uberon
15,668&#45;&#45;bto
6,570 -->
<g id="edge3" class="edge">
<title>uberon
15,668&#45;&#45;bto
6,570</title>
<path fill="none" stroke="black" d="M198.33,-28.99C214.06,-28.99 232.22,-28.99 247.37,-28.99"/>
<text text-anchor="middle" x="222.77" y="-32.19" font-family="Times,serif" font-size="14.00">54</text>
</g>
</g>
</svg>
