<?xml version="1.0" encoding="utf-8" standalone="no"?>
<!DOCTYPE svg PUBLIC "-//W3C//DTD SVG 1.1//EN"
  "http://www.w3.org/Graphics/SVG/1.1/DTD/svg11.dtd">
<svg xmlns:xlink="http://www.w3.org/1999/xlink" width="544pt" height="320pt" viewBox="0 0 544 320" xmlns="http://www.w3.org/2000/svg" version="1.1">
 <metadata>
  <rdf:RDF xmlns:dc="http://purl.org/dc/elements/1.1/" xmlns:cc="http://creativecommons.org/ns#" xmlns:rdf="http://www.w3.org/1999/02/22-rdf-syntax-ns#">
   <cc:Work>
    <dc:type rdf:resource="http://purl.org/dc/dcmitype/StillImage"/>
    <dc:date>2025-03-13T15:03:11.356427</dc:date>
    <dc:format>image/svg+xml</dc:format>
    <dc:creator>
     <cc:Agent>
      <dc:title>Matplotlib v3.10.0, https://matplotlib.org/</dc:title>
     </cc:Agent>
    </dc:creator>
   </cc:Work>
  </rdf:RDF>
 </metadata>
 <defs>
  <style type="text/css">*{stroke-linejoin: round; stroke-linecap: butt}</style>
 </defs>
 <g id="figure_1">
  <g id="patch_1">
   <path d="M 0 320 
L 544 320 
L 544 0 
L 0 0 
z
" style="fill: #ffffff"/>
  </g>
  <g id="axes_1">
   <g id="patch_2">
    <path d="M 68 280.673684 
L 489.6 280.673684 
L 489.6 263.299723 
L 68 263.299723 
z
" clip-path="url(#pe790f7914d)" style="fill-opacity: 0.05098"/>
   </g>
   <g id="patch_3">
    <path d="M 68 258.956233 
L 489.6 258.956233 
L 489.6 241.582271 
L 68 241.582271 
L 68 258.956233 
z
" clip-path="url(#pe790f7914d)" style="fill: none"/>
   </g>
   <g id="patch_4">
    <path d="M 68 237.238781 
L 489.6 237.238781 
L 489.6 219.86482 
L 68 219.86482 
z
" clip-path="url(#pe790f7914d)" style="fill-opacity: 0.05098"/>
   </g>
   <g id="patch_5">
    <path d="M 68 215.52133 
L 489.6 215.52133 
L 489.6 198.147368 
L 68 198.147368 
L 68 215.52133 
z
" clip-path="url(#pe790f7914d)" style="fill: none"/>
   </g>
   <g id="matplotlib.axis_1"/>
   <g id="matplotlib.axis_2">
    <g id="ytick_1"/>
    <g id="ytick_2"/>
    <g id="ytick_3"/>
    <g id="ytick_4"/>
   </g>
  </g>
  <g id="axes_2">
   <g id="matplotlib.axis_3">
    <g id="ytick_5">
     <g id="line2d_1"/>
     <g id="text_1">
      <!-- uberon -->
      <g transform="translate(154.546473 275.785922) scale(0.1 -0.1)">
       <defs>
        <path id="DejaVuSans-75" d="M 544 1381 
L 544 3500 
L 1119 3500 
L 1119 1403 
Q 1119 906 1312 657 
Q 1506 409 1894 409 
Q 2359 409 2629 706 
Q 2900 1003 2900 1516 
L 2900 3500 
L 3475 3500 
L 3475 0 
L 2900 0 
L 2900 538 
Q 2691 219 2414 64 
Q 2138 -91 1772 -91 
Q 1169 -91 856 284 
Q 544 659 544 1381 
z
M 1991 3584 
L 1991 3584 
z
" transform="scale(0.015625)"/>
        <path id="DejaVuSans-62" d="M 3116 1747 
Q 3116 2381 2855 2742 
Q 2594 3103 2138 3103 
Q 1681 3103 1420 2742 
Q 1159 2381 1159 1747 
Q 1159 1113 1420 752 
Q 1681 391 2138 391 
Q 2594 391 2855 752 
Q 3116 1113 3116 1747 
z
M 1159 2969 
Q 1341 3281 1617 3432 
Q 1894 3584 2278 3584 
Q 2916 3584 3314 3078 
Q 3713 2572 3713 1747 
Q 3713 922 3314 415 
Q 2916 -91 2278 -91 
Q 1894 -91 1617 61 
Q 1341 213 1159 525 
L 1159 0 
L 581 0 
L 581 4863 
L 1159 4863 
L 1159 2969 
z
" transform="scale(0.015625)"/>
        <path id="DejaVuSans-65" d="M 3597 1894 
L 3597 1613 
L 953 1613 
Q 991 1019 1311 708 
Q 1631 397 2203 397 
Q 2534 397 2845 478 
Q 3156 559 3463 722 
L 3463 178 
Q 3153 47 2828 -22 
Q 2503 -91 2169 -91 
Q 1331 -91 842 396 
Q 353 884 353 1716 
Q 353 2575 817 3079 
Q 1281 3584 2069 3584 
Q 2775 3584 3186 3129 
Q 3597 2675 3597 1894 
z
M 3022 2063 
Q 3016 2534 2758 2815 
Q 2500 3097 2075 3097 
Q 1594 3097 1305 2825 
Q 1016 2553 972 2059 
L 3022 2063 
z
" transform="scale(0.015625)"/>
        <path id="DejaVuSans-72" d="M 2631 2963 
Q 2534 3019 2420 3045 
Q 2306 3072 2169 3072 
Q 1681 3072 1420 2755 
Q 1159 2438 1159 1844 
L 1159 0 
L 581 0 
L 581 3500 
L 1159 3500 
L 1159 2956 
Q 1341 3275 1631 3429 
Q 1922 3584 2338 3584 
Q 2397 3584 2469 3576 
Q 2541 3569 2628 3553 
L 2631 2963 
z
" transform="scale(0.015625)"/>
        <path id="DejaVuSans-6f" d="M 1959 3097 
Q 1497 3097 1228 2736 
Q 959 2375 959 1747 
Q 959 1119 1226 758 
Q 1494 397 1959 397 
Q 2419 397 2687 759 
Q 2956 1122 2956 1747 
Q 2956 2369 2687 2733 
Q 2419 3097 1959 3097 
z
M 1959 3584 
Q 2709 3584 3137 3096 
Q 3566 2609 3566 1747 
Q 3566 888 3137 398 
Q 2709 -91 1959 -91 
Q 1206 -91 779 398 
Q 353 888 353 1747 
Q 353 2609 779 3096 
Q 1206 3584 1959 3584 
z
" transform="scale(0.015625)"/>
        <path id="DejaVuSans-6e" d="M 3513 2113 
L 3513 0 
L 2938 0 
L 2938 2094 
Q 2938 2591 2744 2837 
Q 2550 3084 2163 3084 
Q 1697 3084 1428 2787 
Q 1159 2491 1159 1978 
L 1159 0 
L 581 0 
L 581 3500 
L 1159 3500 
L 1159 2956 
Q 1366 3272 1645 3428 
Q 1925 3584 2291 3584 
Q 2894 3584 3203 3211 
Q 3513 2838 3513 2113 
z
" transform="scale(0.015625)"/>
       </defs>
       <use xlink:href="#DejaVuSans-75"/>
       <use xlink:href="#DejaVuSans-62" transform="translate(63.378906 0)"/>
       <use xlink:href="#DejaVuSans-65" transform="translate(126.855469 0)"/>
       <use xlink:href="#DejaVuSans-72" transform="translate(188.378906 0)"/>
       <use xlink:href="#DejaVuSans-6f" transform="translate(227.242188 0)"/>
       <use xlink:href="#DejaVuSans-6e" transform="translate(288.423828 0)"/>
      </g>
     </g>
    </g>
    <g id="ytick_6">
     <g id="line2d_2"/>
     <g id="text_2">
      <!-- ncit -->
      <g transform="translate(171.193348 254.068471) scale(0.1 -0.1)">
       <defs>
        <path id="DejaVuSans-63" d="M 3122 3366 
L 3122 2828 
Q 2878 2963 2633 3030 
Q 2388 3097 2138 3097 
Q 1578 3097 1268 2742 
Q 959 2388 959 1747 
Q 959 1106 1268 751 
Q 1578 397 2138 397 
Q 2388 397 2633 464 
Q 2878 531 3122 666 
L 3122 134 
Q 2881 22 2623 -34 
Q 2366 -91 2075 -91 
Q 1284 -91 818 406 
Q 353 903 353 1747 
Q 353 2603 823 3093 
Q 1294 3584 2113 3584 
Q 2378 3584 2631 3529 
Q 2884 3475 3122 3366 
z
" transform="scale(0.015625)"/>
        <path id="DejaVuSans-69" d="M 603 3500 
L 1178 3500 
L 1178 0 
L 603 0 
L 603 3500 
z
M 603 4863 
L 1178 4863 
L 1178 4134 
L 603 4134 
L 603 4863 
z
" transform="scale(0.015625)"/>
        <path id="DejaVuSans-74" d="M 1172 4494 
L 1172 3500 
L 2356 3500 
L 2356 3053 
L 1172 3053 
L 1172 1153 
Q 1172 725 1289 603 
Q 1406 481 1766 481 
L 2356 481 
L 2356 0 
L 1766 0 
Q 1100 0 847 248 
Q 594 497 594 1153 
L 594 3053 
L 172 3053 
L 172 3500 
L 594 3500 
L 594 4494 
L 1172 4494 
z
" transform="scale(0.015625)"/>
       </defs>
       <use xlink:href="#DejaVuSans-6e"/>
       <use xlink:href="#DejaVuSans-63" transform="translate(63.378906 0)"/>
       <use xlink:href="#DejaVuSans-69" transform="translate(118.359375 0)"/>
       <use xlink:href="#DejaVuSans-74" transform="translate(146.142578 0)"/>
      </g>
     </g>
    </g>
    <g id="ytick_7">
     <g id="line2d_3"/>
     <g id="text_3">
      <!-- bto -->
      <g transform="translate(173.340223 232.351019) scale(0.1 -0.1)">
       <use xlink:href="#DejaVuSans-62"/>
       <use xlink:href="#DejaVuSans-74" transform="translate(63.476562 0)"/>
       <use xlink:href="#DejaVuSans-6f" transform="translate(102.685547 0)"/>
      </g>
     </g>
    </g>
    <g id="ytick_8">
     <g id="line2d_4"/>
     <g id="text_4">
      <!-- mesh -->
      <g transform="translate(162.287098 210.633568) scale(0.1 -0.1)">
       <defs>
        <path id="DejaVuSans-6d" d="M 3328 2828 
Q 3544 3216 3844 3400 
Q 4144 3584 4550 3584 
Q 5097 3584 5394 3201 
Q 5691 2819 5691 2113 
L 5691 0 
L 5113 0 
L 5113 2094 
Q 5113 2597 4934 2840 
Q 4756 3084 4391 3084 
Q 3944 3084 3684 2787 
Q 3425 2491 3425 1978 
L 3425 0 
L 2847 0 
L 2847 2094 
Q 2847 2600 2669 2842 
Q 2491 3084 2119 3084 
Q 1678 3084 1418 2786 
Q 1159 2488 1159 1978 
L 1159 0 
L 581 0 
L 581 3500 
L 1159 3500 
L 1159 2956 
Q 1356 3278 1631 3431 
Q 1906 3584 2284 3584 
Q 2666 3584 2933 3390 
Q 3200 3197 3328 2828 
z
" transform="scale(0.015625)"/>
        <path id="DejaVuSans-73" d="M 2834 3397 
L 2834 2853 
Q 2591 2978 2328 3040 
Q 2066 3103 1784 3103 
Q 1356 3103 1142 2972 
Q 928 2841 928 2578 
Q 928 2378 1081 2264 
Q 1234 2150 1697 2047 
L 1894 2003 
Q 2506 1872 2764 1633 
Q 3022 1394 3022 966 
Q 3022 478 2636 193 
Q 2250 -91 1575 -91 
Q 1294 -91 989 -36 
Q 684 19 347 128 
L 347 722 
Q 666 556 975 473 
Q 1284 391 1588 391 
Q 1994 391 2212 530 
Q 2431 669 2431 922 
Q 2431 1156 2273 1281 
Q 2116 1406 1581 1522 
L 1381 1569 
Q 847 1681 609 1914 
Q 372 2147 372 2553 
Q 372 3047 722 3315 
Q 1072 3584 1716 3584 
Q 2034 3584 2315 3537 
Q 2597 3491 2834 3397 
z
" transform="scale(0.015625)"/>
        <path id="DejaVuSans-68" d="M 3513 2113 
L 3513 0 
L 2938 0 
L 2938 2094 
Q 2938 2591 2744 2837 
Q 2550 3084 2163 3084 
Q 1697 3084 1428 2787 
Q 1159 2491 1159 1978 
L 1159 0 
L 581 0 
L 581 4863 
L 1159 4863 
L 1159 2956 
Q 1366 3272 1645 3428 
Q 1925 3584 2291 3584 
Q 2894 3584 3203 3211 
Q 3513 2838 3513 2113 
z
" transform="scale(0.015625)"/>
       </defs>
       <use xlink:href="#DejaVuSans-6d"/>
       <use xlink:href="#DejaVuSans-65" transform="translate(97.412109 0)"/>
       <use xlink:href="#DejaVuSans-73" transform="translate(158.935547 0)"/>
       <use xlink:href="#DejaVuSans-68" transform="translate(211.035156 0)"/>
      </g>
     </g>
    </g>
   </g>
   <g id="LineCollection_1">
    <path d="M 205.576568 271.986704 
L 205.576568 271.986704 
" clip-path="url(#pec57c6cd45)" style="fill: none; stroke: #000000; stroke-width: 2"/>
    <path d="M 230.274257 250.269252 
L 230.274257 250.269252 
" clip-path="url(#pec57c6cd45)" style="fill: none; stroke: #000000; stroke-width: 2"/>
    <path d="M 254.971947 228.551801 
L 254.971947 228.551801 
" clip-path="url(#pec57c6cd45)" style="fill: none; stroke: #000000; stroke-width: 2"/>
    <path d="M 279.669637 206.834349 
L 279.669637 206.834349 
" clip-path="url(#pec57c6cd45)" style="fill: none; stroke: #000000; stroke-width: 2"/>
    <path d="M 304.367327 271.986704 
L 304.367327 250.269252 
" clip-path="url(#pec57c6cd45)" style="fill: none; stroke: #000000; stroke-width: 2"/>
    <path d="M 329.065017 271.986704 
L 329.065017 228.551801 
" clip-path="url(#pec57c6cd45)" style="fill: none; stroke: #000000; stroke-width: 2"/>
    <path d="M 353.762706 271.986704 
L 353.762706 206.834349 
" clip-path="url(#pec57c6cd45)" style="fill: none; stroke: #000000; stroke-width: 2"/>
    <path d="M 378.460396 250.269252 
L 378.460396 206.834349 
" clip-path="url(#pec57c6cd45)" style="fill: none; stroke: #000000; stroke-width: 2"/>
    <path d="M 403.158086 271.986704 
L 403.158086 228.551801 
" clip-path="url(#pec57c6cd45)" style="fill: none; stroke: #000000; stroke-width: 2"/>
    <path d="M 427.855776 271.986704 
L 427.855776 206.834349 
" clip-path="url(#pec57c6cd45)" style="fill: none; stroke: #000000; stroke-width: 2"/>
    <path d="M 452.553465 271.986704 
L 452.553465 206.834349 
" clip-path="url(#pec57c6cd45)" style="fill: none; stroke: #000000; stroke-width: 2"/>
    <path d="M 477.251155 271.986704 
L 477.251155 206.834349 
" clip-path="url(#pec57c6cd45)" style="fill: none; stroke: #000000; stroke-width: 2"/>
   </g>
   <g id="PathCollection_1">
    <defs>
     <path id="C0_0_694d04d807" d="M 0 5.6 
C 1.485137 5.6 2.909647 5.009949 3.959798 3.959798 
C 5.009949 2.909647 5.6 1.485137 5.6 -0 
C 5.6 -1.485137 5.009949 -2.909647 3.959798 -3.959798 
C 2.909647 -5.009949 1.485137 -5.6 0 -5.6 
C -1.485137 -5.6 -2.909647 -5.009949 -3.959798 -3.959798 
C -5.009949 -2.909647 -5.6 -1.485137 -5.6 0 
C -5.6 1.485137 -5.009949 2.909647 -3.959798 3.959798 
C -2.909647 5.009949 -1.485137 5.6 0 5.6 
z
"/>
    </defs>
    <g clip-path="url(#pec57c6cd45)">
     <use xlink:href="#C0_0_694d04d807" x="205.576568" y="271.986704" style="stroke: #000000"/>
    </g>
    <g clip-path="url(#pec57c6cd45)">
     <use xlink:href="#C0_0_694d04d807" x="205.576568" y="250.269252" style="fill-opacity: 0.180392"/>
    </g>
    <g clip-path="url(#pec57c6cd45)">
     <use xlink:href="#C0_0_694d04d807" x="205.576568" y="228.551801" style="fill-opacity: 0.180392"/>
    </g>
    <g clip-path="url(#pec57c6cd45)">
     <use xlink:href="#C0_0_694d04d807" x="205.576568" y="206.834349" style="fill-opacity: 0.180392"/>
    </g>
    <g clip-path="url(#pec57c6cd45)">
     <use xlink:href="#C0_0_694d04d807" x="230.274257" y="271.986704" style="fill-opacity: 0.180392"/>
    </g>
    <g clip-path="url(#pec57c6cd45)">
     <use xlink:href="#C0_0_694d04d807" x="230.274257" y="250.269252" style="stroke: #000000"/>
    </g>
    <g clip-path="url(#pec57c6cd45)">
     <use xlink:href="#C0_0_694d04d807" x="230.274257" y="228.551801" style="fill-opacity: 0.180392"/>
    </g>
    <g clip-path="url(#pec57c6cd45)">
     <use xlink:href="#C0_0_694d04d807" x="230.274257" y="206.834349" style="fill-opacity: 0.180392"/>
    </g>
    <g clip-path="url(#pec57c6cd45)">
     <use xlink:href="#C0_0_694d04d807" x="254.971947" y="271.986704" style="fill-opacity: 0.180392"/>
    </g>
    <g clip-path="url(#pec57c6cd45)">
     <use xlink:href="#C0_0_694d04d807" x="254.971947" y="250.269252" style="fill-opacity: 0.180392"/>
    </g>
    <g clip-path="url(#pec57c6cd45)">
     <use xlink:href="#C0_0_694d04d807" x="254.971947" y="228.551801" style="stroke: #000000"/>
    </g>
    <g clip-path="url(#pec57c6cd45)">
     <use xlink:href="#C0_0_694d04d807" x="254.971947" y="206.834349" style="fill-opacity: 0.180392"/>
    </g>
    <g clip-path="url(#pec57c6cd45)">
     <use xlink:href="#C0_0_694d04d807" x="279.669637" y="271.986704" style="fill-opacity: 0.180392"/>
    </g>
    <g clip-path="url(#pec57c6cd45)">
     <use xlink:href="#C0_0_694d04d807" x="279.669637" y="250.269252" style="fill-opacity: 0.180392"/>
    </g>
    <g clip-path="url(#pec57c6cd45)">
     <use xlink:href="#C0_0_694d04d807" x="279.669637" y="228.551801" style="fill-opacity: 0.180392"/>
    </g>
    <g clip-path="url(#pec57c6cd45)">
     <use xlink:href="#C0_0_694d04d807" x="279.669637" y="206.834349" style="stroke: #000000"/>
    </g>
    <g clip-path="url(#pec57c6cd45)">
     <use xlink:href="#C0_0_694d04d807" x="304.367327" y="271.986704" style="stroke: #000000"/>
    </g>
    <g clip-path="url(#pec57c6cd45)">
     <use xlink:href="#C0_0_694d04d807" x="304.367327" y="250.269252" style="stroke: #000000"/>
    </g>
    <g clip-path="url(#pec57c6cd45)">
     <use xlink:href="#C0_0_694d04d807" x="304.367327" y="228.551801" style="fill-opacity: 0.180392"/>
    </g>
    <g clip-path="url(#pec57c6cd45)">
     <use xlink:href="#C0_0_694d04d807" x="304.367327" y="206.834349" style="fill-opacity: 0.180392"/>
    </g>
    <g clip-path="url(#pec57c6cd45)">
     <use xlink:href="#C0_0_694d04d807" x="329.065017" y="271.986704" style="stroke: #000000"/>
    </g>
    <g clip-path="url(#pec57c6cd45)">
     <use xlink:href="#C0_0_694d04d807" x="329.065017" y="250.269252" style="fill-opacity: 0.180392"/>
    </g>
    <g clip-path="url(#pec57c6cd45)">
     <use xlink:href="#C0_0_694d04d807" x="329.065017" y="228.551801" style="stroke: #000000"/>
    </g>
    <g clip-path="url(#pec57c6cd45)">
     <use xlink:href="#C0_0_694d04d807" x="329.065017" y="206.834349" style="fill-opacity: 0.180392"/>
    </g>
    <g clip-path="url(#pec57c6cd45)">
     <use xlink:href="#C0_0_694d04d807" x="353.762706" y="271.986704" style="stroke: #000000"/>
    </g>
    <g clip-path="url(#pec57c6cd45)">
     <use xlink:href="#C0_0_694d04d807" x="353.762706" y="250.269252" style="fill-opacity: 0.180392"/>
    </g>
    <g clip-path="url(#pec57c6cd45)">
     <use xlink:href="#C0_0_694d04d807" x="353.762706" y="228.551801" style="fill-opacity: 0.180392"/>
    </g>
    <g clip-path="url(#pec57c6cd45)">
     <use xlink:href="#C0_0_694d04d807" x="353.762706" y="206.834349" style="stroke: #000000"/>
    </g>
    <g clip-path="url(#pec57c6cd45)">
     <use xlink:href="#C0_0_694d04d807" x="378.460396" y="271.986704" style="fill-opacity: 0.180392"/>
    </g>
    <g clip-path="url(#pec57c6cd45)">
     <use xlink:href="#C0_0_694d04d807" x="378.460396" y="250.269252" style="stroke: #000000"/>
    </g>
    <g clip-path="url(#pec57c6cd45)">
     <use xlink:href="#C0_0_694d04d807" x="378.460396" y="228.551801" style="fill-opacity: 0.180392"/>
    </g>
    <g clip-path="url(#pec57c6cd45)">
     <use xlink:href="#C0_0_694d04d807" x="378.460396" y="206.834349" style="stroke: #000000"/>
    </g>
    <g clip-path="url(#pec57c6cd45)">
     <use xlink:href="#C0_0_694d04d807" x="403.158086" y="271.986704" style="stroke: #000000"/>
    </g>
    <g clip-path="url(#pec57c6cd45)">
     <use xlink:href="#C0_0_694d04d807" x="403.158086" y="250.269252" style="stroke: #000000"/>
    </g>
    <g clip-path="url(#pec57c6cd45)">
     <use xlink:href="#C0_0_694d04d807" x="403.158086" y="228.551801" style="stroke: #000000"/>
    </g>
    <g clip-path="url(#pec57c6cd45)">
     <use xlink:href="#C0_0_694d04d807" x="403.158086" y="206.834349" style="fill-opacity: 0.180392"/>
    </g>
    <g clip-path="url(#pec57c6cd45)">
     <use xlink:href="#C0_0_694d04d807" x="427.855776" y="271.986704" style="stroke: #000000"/>
    </g>
    <g clip-path="url(#pec57c6cd45)">
     <use xlink:href="#C0_0_694d04d807" x="427.855776" y="250.269252" style="stroke: #000000"/>
    </g>
    <g clip-path="url(#pec57c6cd45)">
     <use xlink:href="#C0_0_694d04d807" x="427.855776" y="228.551801" style="fill-opacity: 0.180392"/>
    </g>
    <g clip-path="url(#pec57c6cd45)">
     <use xlink:href="#C0_0_694d04d807" x="427.855776" y="206.834349" style="stroke: #000000"/>
    </g>
    <g clip-path="url(#pec57c6cd45)">
     <use xlink:href="#C0_0_694d04d807" x="452.553465" y="271.986704" style="stroke: #000000"/>
    </g>
    <g clip-path="url(#pec57c6cd45)">
     <use xlink:href="#C0_0_694d04d807" x="452.553465" y="250.269252" style="fill-opacity: 0.180392"/>
    </g>
    <g clip-path="url(#pec57c6cd45)">
     <use xlink:href="#C0_0_694d04d807" x="452.553465" y="228.551801" style="stroke: #000000"/>
    </g>
    <g clip-path="url(#pec57c6cd45)">
     <use xlink:href="#C0_0_694d04d807" x="452.553465" y="206.834349" style="stroke: #000000"/>
    </g>
    <g clip-path="url(#pec57c6cd45)">
     <use xlink:href="#C0_0_694d04d807" x="477.251155" y="271.986704" style="stroke: #000000"/>
    </g>
    <g clip-path="url(#pec57c6cd45)">
     <use xlink:href="#C0_0_694d04d807" x="477.251155" y="250.269252" style="stroke: #000000"/>
    </g>
    <g clip-path="url(#pec57c6cd45)">
     <use xlink:href="#C0_0_694d04d807" x="477.251155" y="228.551801" style="stroke: #000000"/>
    </g>
    <g clip-path="url(#pec57c6cd45)">
     <use xlink:href="#C0_0_694d04d807" x="477.251155" y="206.834349" style="stroke: #000000"/>
    </g>
   </g>
  </g>
  <g id="axes_3">
   <g id="patch_6">
    <path d="M 11059.924941 277.416066 
L 68 277.416066 
L 68 266.557341 
L 11059.924941 266.557341 
z
" clip-path="url(#pdc7291de82)" style="stroke: #000000; stroke-linejoin: miter"/>
   </g>
   <g id="patch_7">
    <path d="M 11059.924941 255.698615 
L 71.453078 255.698615 
L 71.453078 244.839889 
L 11059.924941 244.839889 
z
" clip-path="url(#pdc7291de82)" style="stroke: #000000; stroke-linejoin: miter"/>
   </g>
   <g id="patch_8">
    <path d="M 11059.924941 233.981163 
L 72.12973 233.981163 
L 72.12973 223.122438 
L 11059.924941 223.122438 
z
" clip-path="url(#pdc7291de82)" style="stroke: #000000; stroke-linejoin: miter"/>
   </g>
   <g id="patch_9">
    <path d="M 11059.924941 212.263712 
L 78.295168 212.263712 
L 78.295168 201.404986 
L 11059.924941 201.404986 
z
" clip-path="url(#pdc7291de82)" style="stroke: #000000; stroke-linejoin: miter"/>
   </g>
   <g id="matplotlib.axis_4">
    <g id="xtick_1">
     <g id="line2d_5">
      <path d="M 113.916832 284.8 
L 113.916832 194.021053 
" clip-path="url(#pdc7291de82)" style="fill: none; stroke: #b0b0b0; stroke-width: 0.8; stroke-linecap: square"/>
     </g>
     <g id="line2d_6">
      <defs>
       <path id="mc67202eb4e" d="M 0 0 
L 0 3.5 
" style="stroke: #000000; stroke-width: 0.8"/>
      </defs>
      <g>
       <use xlink:href="#mc67202eb4e" x="113.916832" y="284.8" style="stroke: #000000; stroke-width: 0.8"/>
      </g>
     </g>
     <g id="text_5">
      <!-- $\mathdefault{10^{0}}$ -->
      <g transform="translate(105.116832 299.398438) scale(0.1 -0.1)">
       <defs>
        <path id="DejaVuSans-31" d="M 794 531 
L 1825 531 
L 1825 4091 
L 703 3866 
L 703 4441 
L 1819 4666 
L 2450 4666 
L 2450 531 
L 3481 531 
L 3481 0 
L 794 0 
L 794 531 
z
" transform="scale(0.015625)"/>
        <path id="DejaVuSans-30" d="M 2034 4250 
Q 1547 4250 1301 3770 
Q 1056 3291 1056 2328 
Q 1056 1369 1301 889 
Q 1547 409 2034 409 
Q 2525 409 2770 889 
Q 3016 1369 3016 2328 
Q 3016 3291 2770 3770 
Q 2525 4250 2034 4250 
z
M 2034 4750 
Q 2819 4750 3233 4129 
Q 3647 3509 3647 2328 
Q 3647 1150 3233 529 
Q 2819 -91 2034 -91 
Q 1250 -91 836 529 
Q 422 1150 422 2328 
Q 422 3509 836 4129 
Q 1250 4750 2034 4750 
z
" transform="scale(0.015625)"/>
       </defs>
       <use xlink:href="#DejaVuSans-31" transform="translate(0 0.765625)"/>
       <use xlink:href="#DejaVuSans-30" transform="translate(63.623047 0.765625)"/>
       <use xlink:href="#DejaVuSans-30" transform="translate(128.203125 39.046875) scale(0.7)"/>
      </g>
     </g>
    </g>
    <g id="xtick_2">
     <g id="line2d_7">
      <path d="M 81.078807 284.8 
L 81.078807 194.021053 
" clip-path="url(#pdc7291de82)" style="fill: none; stroke: #b0b0b0; stroke-width: 0.8; stroke-linecap: square"/>
     </g>
     <g id="line2d_8">
      <g>
       <use xlink:href="#mc67202eb4e" x="81.078807" y="284.8" style="stroke: #000000; stroke-width: 0.8"/>
      </g>
     </g>
     <g id="text_6">
      <!-- $\mathdefault{10^{3}}$ -->
      <g transform="translate(72.278807 299.398438) scale(0.1 -0.1)">
       <defs>
        <path id="DejaVuSans-33" d="M 2597 2516 
Q 3050 2419 3304 2112 
Q 3559 1806 3559 1356 
Q 3559 666 3084 287 
Q 2609 -91 1734 -91 
Q 1441 -91 1130 -33 
Q 819 25 488 141 
L 488 750 
Q 750 597 1062 519 
Q 1375 441 1716 441 
Q 2309 441 2620 675 
Q 2931 909 2931 1356 
Q 2931 1769 2642 2001 
Q 2353 2234 1838 2234 
L 1294 2234 
L 1294 2753 
L 1863 2753 
Q 2328 2753 2575 2939 
Q 2822 3125 2822 3475 
Q 2822 3834 2567 4026 
Q 2313 4219 1838 4219 
Q 1578 4219 1281 4162 
Q 984 4106 628 3988 
L 628 4550 
Q 988 4650 1302 4700 
Q 1616 4750 1894 4750 
Q 2613 4750 3031 4423 
Q 3450 4097 3450 3541 
Q 3450 3153 3228 2886 
Q 3006 2619 2597 2516 
z
" transform="scale(0.015625)"/>
       </defs>
       <use xlink:href="#DejaVuSans-31" transform="translate(0 0.765625)"/>
       <use xlink:href="#DejaVuSans-30" transform="translate(63.623047 0.765625)"/>
       <use xlink:href="#DejaVuSans-33" transform="translate(128.203125 39.046875) scale(0.7)"/>
      </g>
     </g>
    </g>
   </g>
   <g id="patch_10">
    <path d="M 68 284.8 
L 113.916832 284.8 
" style="fill: none; stroke: #000000; stroke-width: 0.8; stroke-linejoin: miter; stroke-linecap: square"/>
   </g>
  </g>
  <g id="axes_4">
   <g id="patch_11">
    <path d="M 193.227723 181.052632 
L 489.6 181.052632 
L 489.6 38.4 
L 193.227723 38.4 
z
" style="fill: #ffffff"/>
   </g>
   <g id="matplotlib.axis_5">
    <g id="ytick_9">
     <g id="line2d_9">
      <path d="M 193.227723 181.052632 
L 489.6 181.052632 
" clip-path="url(#p493daccd0a)" style="fill: none; stroke: #b0b0b0; stroke-width: 0.8; stroke-linecap: square"/>
     </g>
     <g id="line2d_10">
      <defs>
       <path id="mdbae90a34a" d="M 0 0 
L -3.5 0 
" style="stroke: #000000; stroke-width: 0.8"/>
      </defs>
      <g>
       <use xlink:href="#mdbae90a34a" x="193.227723" y="181.052632" style="stroke: #000000; stroke-width: 0.8"/>
      </g>
     </g>
     <g id="text_7">
      <!-- $\mathdefault{10^{0}}$ -->
      <g transform="translate(168.627723 184.85185) scale(0.1 -0.1)">
       <use xlink:href="#DejaVuSans-31" transform="translate(0 0.765625)"/>
       <use xlink:href="#DejaVuSans-30" transform="translate(63.623047 0.765625)"/>
       <use xlink:href="#DejaVuSans-30" transform="translate(128.203125 39.046875) scale(0.7)"/>
      </g>
     </g>
    </g>
    <g id="ytick_10">
     <g id="line2d_11">
      <path d="M 193.227723 148.57418 
L 489.6 148.57418 
" clip-path="url(#p493daccd0a)" style="fill: none; stroke: #b0b0b0; stroke-width: 0.8; stroke-linecap: square"/>
     </g>
     <g id="line2d_12">
      <g>
       <use xlink:href="#mdbae90a34a" x="193.227723" y="148.57418" style="stroke: #000000; stroke-width: 0.8"/>
      </g>
     </g>
     <g id="text_8">
      <!-- $\mathdefault{10^{1}}$ -->
      <g transform="translate(168.627723 152.373399) scale(0.1 -0.1)">
       <use xlink:href="#DejaVuSans-31" transform="translate(0 0.684375)"/>
       <use xlink:href="#DejaVuSans-30" transform="translate(63.623047 0.684375)"/>
       <use xlink:href="#DejaVuSans-31" transform="translate(128.203125 38.965625) scale(0.7)"/>
      </g>
     </g>
    </g>
    <g id="ytick_11">
     <g id="line2d_13">
      <path d="M 193.227723 116.095729 
L 489.6 116.095729 
" clip-path="url(#p493daccd0a)" style="fill: none; stroke: #b0b0b0; stroke-width: 0.8; stroke-linecap: square"/>
     </g>
     <g id="line2d_14">
      <g>
       <use xlink:href="#mdbae90a34a" x="193.227723" y="116.095729" style="stroke: #000000; stroke-width: 0.8"/>
      </g>
     </g>
     <g id="text_9">
      <!-- $\mathdefault{10^{2}}$ -->
      <g transform="translate(168.627723 119.894948) scale(0.1 -0.1)">
       <defs>
        <path id="DejaVuSans-32" d="M 1228 531 
L 3431 531 
L 3431 0 
L 469 0 
L 469 531 
Q 828 903 1448 1529 
Q 2069 2156 2228 2338 
Q 2531 2678 2651 2914 
Q 2772 3150 2772 3378 
Q 2772 3750 2511 3984 
Q 2250 4219 1831 4219 
Q 1534 4219 1204 4116 
Q 875 4013 500 3803 
L 500 4441 
Q 881 4594 1212 4672 
Q 1544 4750 1819 4750 
Q 2544 4750 2975 4387 
Q 3406 4025 3406 3419 
Q 3406 3131 3298 2873 
Q 3191 2616 2906 2266 
Q 2828 2175 2409 1742 
Q 1991 1309 1228 531 
z
" transform="scale(0.015625)"/>
       </defs>
       <use xlink:href="#DejaVuSans-31" transform="translate(0 0.765625)"/>
       <use xlink:href="#DejaVuSans-30" transform="translate(63.623047 0.765625)"/>
       <use xlink:href="#DejaVuSans-32" transform="translate(128.203125 39.046875) scale(0.7)"/>
      </g>
     </g>
    </g>
    <g id="ytick_12">
     <g id="line2d_15">
      <path d="M 193.227723 83.617278 
L 489.6 83.617278 
" clip-path="url(#p493daccd0a)" style="fill: none; stroke: #b0b0b0; stroke-width: 0.8; stroke-linecap: square"/>
     </g>
     <g id="line2d_16">
      <g>
       <use xlink:href="#mdbae90a34a" x="193.227723" y="83.617278" style="stroke: #000000; stroke-width: 0.8"/>
      </g>
     </g>
     <g id="text_10">
      <!-- $\mathdefault{10^{3}}$ -->
      <g transform="translate(168.627723 87.416497) scale(0.1 -0.1)">
       <use xlink:href="#DejaVuSans-31" transform="translate(0 0.765625)"/>
       <use xlink:href="#DejaVuSans-30" transform="translate(63.623047 0.765625)"/>
       <use xlink:href="#DejaVuSans-33" transform="translate(128.203125 39.046875) scale(0.7)"/>
      </g>
     </g>
    </g>
    <g id="ytick_13">
     <g id="line2d_17">
      <path d="M 193.227723 51.138827 
L 489.6 51.138827 
" clip-path="url(#p493daccd0a)" style="fill: none; stroke: #b0b0b0; stroke-width: 0.8; stroke-linecap: square"/>
     </g>
     <g id="line2d_18">
      <g>
       <use xlink:href="#mdbae90a34a" x="193.227723" y="51.138827" style="stroke: #000000; stroke-width: 0.8"/>
      </g>
     </g>
     <g id="text_11">
      <!-- $\mathdefault{10^{4}}$ -->
      <g transform="translate(168.627723 54.938046) scale(0.1 -0.1)">
       <defs>
        <path id="DejaVuSans-34" d="M 2419 4116 
L 825 1625 
L 2419 1625 
L 2419 4116 
z
M 2253 4666 
L 3047 4666 
L 3047 1625 
L 3713 1625 
L 3713 1100 
L 3047 1100 
L 3047 0 
L 2419 0 
L 2419 1100 
L 313 1100 
L 313 1709 
L 2253 4666 
z
" transform="scale(0.015625)"/>
       </defs>
       <use xlink:href="#DejaVuSans-31" transform="translate(0 0.684375)"/>
       <use xlink:href="#DejaVuSans-30" transform="translate(63.623047 0.684375)"/>
       <use xlink:href="#DejaVuSans-34" transform="translate(128.203125 38.965625) scale(0.7)"/>
      </g>
     </g>
    </g>
    <g id="ytick_14">
     <g id="line2d_19">
      <defs>
       <path id="m240cfef6ce" d="M 0 0 
L -2 0 
" style="stroke: #000000; stroke-width: 0.6"/>
      </defs>
      <g>
       <use xlink:href="#m240cfef6ce" x="193.227723" y="171.275644" style="stroke: #000000; stroke-width: 0.6"/>
      </g>
     </g>
    </g>
    <g id="ytick_15">
     <g id="line2d_20">
      <g>
       <use xlink:href="#m240cfef6ce" x="193.227723" y="165.556472" style="stroke: #000000; stroke-width: 0.6"/>
      </g>
     </g>
    </g>
    <g id="ytick_16">
     <g id="line2d_21">
      <g>
       <use xlink:href="#m240cfef6ce" x="193.227723" y="161.498656" style="stroke: #000000; stroke-width: 0.6"/>
      </g>
     </g>
    </g>
    <g id="ytick_17">
     <g id="line2d_22">
      <g>
       <use xlink:href="#m240cfef6ce" x="193.227723" y="158.351168" style="stroke: #000000; stroke-width: 0.6"/>
      </g>
     </g>
    </g>
    <g id="ytick_18">
     <g id="line2d_23">
      <g>
       <use xlink:href="#m240cfef6ce" x="193.227723" y="155.779484" style="stroke: #000000; stroke-width: 0.6"/>
      </g>
     </g>
    </g>
    <g id="ytick_19">
     <g id="line2d_24">
      <g>
       <use xlink:href="#m240cfef6ce" x="193.227723" y="153.605156" style="stroke: #000000; stroke-width: 0.6"/>
      </g>
     </g>
    </g>
    <g id="ytick_20">
     <g id="line2d_25">
      <g>
       <use xlink:href="#m240cfef6ce" x="193.227723" y="151.721668" style="stroke: #000000; stroke-width: 0.6"/>
      </g>
     </g>
    </g>
    <g id="ytick_21">
     <g id="line2d_26">
      <g>
       <use xlink:href="#m240cfef6ce" x="193.227723" y="150.060313" style="stroke: #000000; stroke-width: 0.6"/>
      </g>
     </g>
    </g>
    <g id="ytick_22">
     <g id="line2d_27">
      <g>
       <use xlink:href="#m240cfef6ce" x="193.227723" y="138.797192" style="stroke: #000000; stroke-width: 0.6"/>
      </g>
     </g>
    </g>
    <g id="ytick_23">
     <g id="line2d_28">
      <g>
       <use xlink:href="#m240cfef6ce" x="193.227723" y="133.078021" style="stroke: #000000; stroke-width: 0.6"/>
      </g>
     </g>
    </g>
    <g id="ytick_24">
     <g id="line2d_29">
      <g>
       <use xlink:href="#m240cfef6ce" x="193.227723" y="129.020204" style="stroke: #000000; stroke-width: 0.6"/>
      </g>
     </g>
    </g>
    <g id="ytick_25">
     <g id="line2d_30">
      <g>
       <use xlink:href="#m240cfef6ce" x="193.227723" y="125.872717" style="stroke: #000000; stroke-width: 0.6"/>
      </g>
     </g>
    </g>
    <g id="ytick_26">
     <g id="line2d_31">
      <g>
       <use xlink:href="#m240cfef6ce" x="193.227723" y="123.301033" style="stroke: #000000; stroke-width: 0.6"/>
      </g>
     </g>
    </g>
    <g id="ytick_27">
     <g id="line2d_32">
      <g>
       <use xlink:href="#m240cfef6ce" x="193.227723" y="121.126705" style="stroke: #000000; stroke-width: 0.6"/>
      </g>
     </g>
    </g>
    <g id="ytick_28">
     <g id="line2d_33">
      <g>
       <use xlink:href="#m240cfef6ce" x="193.227723" y="119.243216" style="stroke: #000000; stroke-width: 0.6"/>
      </g>
     </g>
    </g>
    <g id="ytick_29">
     <g id="line2d_34">
      <g>
       <use xlink:href="#m240cfef6ce" x="193.227723" y="117.581862" style="stroke: #000000; stroke-width: 0.6"/>
      </g>
     </g>
    </g>
    <g id="ytick_30">
     <g id="line2d_35">
      <g>
       <use xlink:href="#m240cfef6ce" x="193.227723" y="106.318741" style="stroke: #000000; stroke-width: 0.6"/>
      </g>
     </g>
    </g>
    <g id="ytick_31">
     <g id="line2d_36">
      <g>
       <use xlink:href="#m240cfef6ce" x="193.227723" y="100.59957" style="stroke: #000000; stroke-width: 0.6"/>
      </g>
     </g>
    </g>
    <g id="ytick_32">
     <g id="line2d_37">
      <g>
       <use xlink:href="#m240cfef6ce" x="193.227723" y="96.541753" style="stroke: #000000; stroke-width: 0.6"/>
      </g>
     </g>
    </g>
    <g id="ytick_33">
     <g id="line2d_38">
      <g>
       <use xlink:href="#m240cfef6ce" x="193.227723" y="93.394266" style="stroke: #000000; stroke-width: 0.6"/>
      </g>
     </g>
    </g>
    <g id="ytick_34">
     <g id="line2d_39">
      <g>
       <use xlink:href="#m240cfef6ce" x="193.227723" y="90.822582" style="stroke: #000000; stroke-width: 0.6"/>
      </g>
     </g>
    </g>
    <g id="ytick_35">
     <g id="line2d_40">
      <g>
       <use xlink:href="#m240cfef6ce" x="193.227723" y="88.648254" style="stroke: #000000; stroke-width: 0.6"/>
      </g>
     </g>
    </g>
    <g id="ytick_36">
     <g id="line2d_41">
      <g>
       <use xlink:href="#m240cfef6ce" x="193.227723" y="86.764765" style="stroke: #000000; stroke-width: 0.6"/>
      </g>
     </g>
    </g>
    <g id="ytick_37">
     <g id="line2d_42">
      <g>
       <use xlink:href="#m240cfef6ce" x="193.227723" y="85.103411" style="stroke: #000000; stroke-width: 0.6"/>
      </g>
     </g>
    </g>
    <g id="ytick_38">
     <g id="line2d_43">
      <g>
       <use xlink:href="#m240cfef6ce" x="193.227723" y="73.84029" style="stroke: #000000; stroke-width: 0.6"/>
      </g>
     </g>
    </g>
    <g id="ytick_39">
     <g id="line2d_44">
      <g>
       <use xlink:href="#m240cfef6ce" x="193.227723" y="68.121119" style="stroke: #000000; stroke-width: 0.6"/>
      </g>
     </g>
    </g>
    <g id="ytick_40">
     <g id="line2d_45">
      <g>
       <use xlink:href="#m240cfef6ce" x="193.227723" y="64.063302" style="stroke: #000000; stroke-width: 0.6"/>
      </g>
     </g>
    </g>
    <g id="ytick_41">
     <g id="line2d_46">
      <g>
       <use xlink:href="#m240cfef6ce" x="193.227723" y="60.915815" style="stroke: #000000; stroke-width: 0.6"/>
      </g>
     </g>
    </g>
    <g id="ytick_42">
     <g id="line2d_47">
      <g>
       <use xlink:href="#m240cfef6ce" x="193.227723" y="58.344131" style="stroke: #000000; stroke-width: 0.6"/>
      </g>
     </g>
    </g>
    <g id="ytick_43">
     <g id="line2d_48">
      <g>
       <use xlink:href="#m240cfef6ce" x="193.227723" y="56.169803" style="stroke: #000000; stroke-width: 0.6"/>
      </g>
     </g>
    </g>
    <g id="ytick_44">
     <g id="line2d_49">
      <g>
       <use xlink:href="#m240cfef6ce" x="193.227723" y="54.286314" style="stroke: #000000; stroke-width: 0.6"/>
      </g>
     </g>
    </g>
    <g id="ytick_45">
     <g id="line2d_50">
      <g>
       <use xlink:href="#m240cfef6ce" x="193.227723" y="52.62496" style="stroke: #000000; stroke-width: 0.6"/>
      </g>
     </g>
    </g>
    <g id="ytick_46">
     <g id="line2d_51">
      <g>
       <use xlink:href="#m240cfef6ce" x="193.227723" y="41.361839" style="stroke: #000000; stroke-width: 0.6"/>
      </g>
     </g>
    </g>
    <g id="text_12">
     <!-- Intersection size -->
     <g transform="translate(162.548035 150.75366) rotate(-90) scale(0.1 -0.1)">
      <defs>
       <path id="DejaVuSans-49" d="M 628 4666 
L 1259 4666 
L 1259 0 
L 628 0 
L 628 4666 
z
" transform="scale(0.015625)"/>
       <path id="DejaVuSans-20" transform="scale(0.015625)"/>
       <path id="DejaVuSans-7a" d="M 353 3500 
L 3084 3500 
L 3084 2975 
L 922 459 
L 3084 459 
L 3084 0 
L 275 0 
L 275 525 
L 2438 3041 
L 353 3041 
L 353 3500 
z
" transform="scale(0.015625)"/>
      </defs>
      <use xlink:href="#DejaVuSans-49"/>
      <use xlink:href="#DejaVuSans-6e" transform="translate(29.492188 0)"/>
      <use xlink:href="#DejaVuSans-74" transform="translate(92.871094 0)"/>
      <use xlink:href="#DejaVuSans-65" transform="translate(132.080078 0)"/>
      <use xlink:href="#DejaVuSans-72" transform="translate(193.603516 0)"/>
      <use xlink:href="#DejaVuSans-73" transform="translate(234.716797 0)"/>
      <use xlink:href="#DejaVuSans-65" transform="translate(286.816406 0)"/>
      <use xlink:href="#DejaVuSans-63" transform="translate(348.339844 0)"/>
      <use xlink:href="#DejaVuSans-74" transform="translate(403.320312 0)"/>
      <use xlink:href="#DejaVuSans-69" transform="translate(442.529297 0)"/>
      <use xlink:href="#DejaVuSans-6f" transform="translate(470.3125 0)"/>
      <use xlink:href="#DejaVuSans-6e" transform="translate(531.494141 0)"/>
      <use xlink:href="#DejaVuSans-20" transform="translate(594.873047 0)"/>
      <use xlink:href="#DejaVuSans-73" transform="translate(626.660156 0)"/>
      <use xlink:href="#DejaVuSans-69" transform="translate(678.759766 0)"/>
      <use xlink:href="#DejaVuSans-7a" transform="translate(706.542969 0)"/>
      <use xlink:href="#DejaVuSans-65" transform="translate(759.033203 0)"/>
     </g>
    </g>
   </g>
   <g id="patch_12">
    <path d="M 193.227723 181.052632 
L 193.227723 38.4 
" style="fill: none; stroke: #000000; stroke-width: 0.8; stroke-linejoin: miter; stroke-linecap: square"/>
   </g>
   <g id="patch_13">
    <path d="M 199.402145 32659.50375 
L 211.75099 32659.50375 
L 211.75099 45.192982 
L 199.402145 45.192982 
z
" clip-path="url(#p493daccd0a)" style="stroke: #000000; stroke-linejoin: miter"/>
   </g>
   <g id="patch_14">
    <path d="M 224.099835 32659.50375 
L 236.44868 32659.50375 
L 236.44868 55.601095 
L 224.099835 55.601095 
z
" clip-path="url(#p493daccd0a)" style="stroke: #000000; stroke-linejoin: miter"/>
   </g>
   <g id="patch_15">
    <path d="M 248.797525 32659.50375 
L 261.14637 32659.50375 
L 261.14637 57.180434 
L 248.797525 57.180434 
z
" clip-path="url(#p493daccd0a)" style="stroke: #000000; stroke-linejoin: miter"/>
   </g>
   <g id="patch_16">
    <path d="M 273.495215 32659.50375 
L 285.844059 32659.50375 
L 285.844059 76.460014 
L 273.495215 76.460014 
z
" clip-path="url(#p493daccd0a)" style="stroke: #000000; stroke-linejoin: miter"/>
   </g>
   <g id="patch_17">
    <path d="M 298.192904 32659.50375 
L 310.541749 32659.50375 
L 310.541749 103.171254 
L 298.192904 103.171254 
z
" clip-path="url(#p493daccd0a)" style="stroke: #000000; stroke-linejoin: miter"/>
   </g>
   <g id="patch_18">
    <path d="M 322.890594 32659.50375 
L 335.239439 32659.50375 
L 335.239439 126.157681 
L 322.890594 126.157681 
z
" clip-path="url(#p493daccd0a)" style="stroke: #000000; stroke-linejoin: miter"/>
   </g>
   <g id="patch_19">
    <path d="M 347.588284 32659.50375 
L 359.937129 32659.50375 
L 359.937129 116.380693 
L 347.588284 116.380693 
z
" clip-path="url(#p493daccd0a)" style="stroke: #000000; stroke-linejoin: miter"/>
   </g>
   <g id="patch_20">
    <path d="M 372.285974 32659.50375 
L 384.634818 32659.50375 
L 384.634818 141.089556 
L 372.285974 141.089556 
z
" clip-path="url(#p493daccd0a)" style="stroke: #000000; stroke-linejoin: miter"/>
   </g>
   <g id="patch_21">
    <path d="M 396.983663 32659.50375 
L 409.332508 32659.50375 
L 409.332508 171.275644 
L 396.983663 171.275644 
z
" clip-path="url(#p493daccd0a)" style="stroke: #000000; stroke-linejoin: miter"/>
   </g>
   <g id="patch_22">
    <path d="M 421.681353 32659.50375 
L 434.030198 32659.50375 
L 434.030198 141.089556 
L 421.681353 141.089556 
z
" clip-path="url(#p493daccd0a)" style="stroke: #000000; stroke-linejoin: miter"/>
   </g>
   <g id="patch_23">
    <path d="M 446.379043 32659.50375 
L 458.727888 32659.50375 
L 458.727888 171.275644 
L 446.379043 171.275644 
z
" clip-path="url(#p493daccd0a)" style="stroke: #000000; stroke-linejoin: miter"/>
   </g>
   <g id="patch_24">
    <path d="M 471.076733 32659.50375 
L 483.425578 32659.50375 
L 483.425578 181.052632 
L 471.076733 181.052632 
z
" clip-path="url(#p493daccd0a)" style="stroke: #000000; stroke-linejoin: miter"/>
   </g>
  </g>
 </g>
 <defs>
  <clipPath id="pe790f7914d">
   <rect x="68" y="194.021053" width="421.6" height="90.778947"/>
  </clipPath>
  <clipPath id="pec57c6cd45">
   <rect x="193.227723" y="194.021053" width="296.372277" height="90.778947"/>
  </clipPath>
  <clipPath id="pdc7291de82">
   <rect x="68" y="194.021053" width="45.916832" height="90.778947"/>
  </clipPath>
  <clipPath id="p493daccd0a">
   <rect x="193.227723" y="38.4" width="296.372277" height="142.652632"/>
  </clipPath>
 </defs>
</svg>
