<?xml version="1.0" encoding="UTF-8" standalone="no"?>
<!DOCTYPE svg PUBLIC "-//W3C//DTD SVG 1.1//EN"
 "http://www.w3.org/Graphics/SVG/1.1/DTD/svg11.dtd">
<!-- Generated by graphviz version 12.2.1 (20241206.2353)
 -->
<!-- Pages: 1 -->
<svg width="445pt" height="151pt"
 viewBox="0.00 0.00 445.21 151.00" xmlns="http://www.w3.org/2000/svg" xmlns:xlink="http://www.w3.org/1999/xlink">
<g id="graph0" class="graph" transform="scale(1 1) rotate(0) translate(4 147)">
<polygon fill="white" stroke="none" points="-4,4 -4,-147 441.21,-147 441.21,4 -4,4"/>
<!-- bto -->
<g id="node1" class="node">
<title>bto</title>
<ellipse fill="none" stroke="black" cx="27" cy="-72" rx="27" ry="18"/>
<text text-anchor="middle" x="27" y="-66.95" font-family="Times,serif" font-size="14.00">bto</text>
</g>
<!-- uberon -->
<g id="node2" class="node">
<title>uberon</title>
<ellipse fill="none" stroke="black" cx="157.26" cy="-72" rx="36.51" ry="18"/>
<text text-anchor="middle" x="157.26" y="-66.95" font-family="Times,serif" font-size="14.00">uberon</text>
</g>
<!-- bto&#45;&#45;uberon -->
<g id="edge1" class="edge">
<title>bto&#45;&#45;uberon</title>
<path fill="none" stroke="black" stroke-width="2.73" d="M54.26,-72C73.32,-72 99.32,-72 120.31,-72"/>
<text text-anchor="middle" x="87.38" y="-75.2" font-family="Times,serif" font-size="14.00">1,453</text>
</g>
<!-- ncit -->
<g id="node3" class="node">
<title>ncit</title>
<ellipse fill="none" stroke="black" cx="291.4" cy="-125" rx="27" ry="18"/>
<text text-anchor="middle" x="291.4" y="-119.95" font-family="Times,serif" font-size="14.00">ncit</text>
</g>
<!-- uberon&#45;&#45;ncit -->
<g id="edge2" class="edge">
<title>uberon&#45;&#45;ncit</title>
<path fill="none" stroke="black" stroke-width="4" d="M186.28,-83.24C210.52,-92.96 245.13,-106.85 267.68,-115.89"/>
<text text-anchor="middle" x="227.14" y="-108.01" font-family="Times,serif" font-size="14.00">2,517</text>
</g>
<!-- umls -->
<g id="node4" class="node">
<title>umls</title>
<ellipse fill="none" stroke="black" cx="407.87" cy="-88" rx="29.34" ry="18"/>
<text text-anchor="middle" x="407.87" y="-82.95" font-family="Times,serif" font-size="14.00">umls</text>
</g>
<!-- uberon&#45;&#45;umls -->
<g id="edge3" class="edge">
<title>uberon&#45;&#45;umls</title>
<path fill="none" stroke="black" stroke-width="1.35" d="M193.79,-73.86C227.01,-75.65 278.02,-78.52 322.28,-81.5 340.94,-82.76 361.91,-84.37 378.3,-85.67"/>
<text text-anchor="middle" x="291.4" y="-84.7" font-family="Times,serif" font-size="14.00">305</text>
</g>
<!-- mesh -->
<g id="node5" class="node">
<title>mesh</title>
<ellipse fill="none" stroke="black" cx="291.4" cy="-18" rx="30.88" ry="18"/>
<text text-anchor="middle" x="291.4" y="-12.95" font-family="Times,serif" font-size="14.00">mesh</text>
</g>
<!-- uberon&#45;&#45;mesh -->
<g id="edge4" class="edge">
<title>uberon&#45;&#45;mesh</title>
<path fill="none" stroke="black" stroke-width="1.13" d="M180.59,-57.76C189.97,-52.18 201.15,-46.04 211.77,-41.5 228.01,-34.55 246.97,-28.82 262.2,-24.76"/>
<text text-anchor="middle" x="227.14" y="-44.7" font-family="Times,serif" font-size="14.00">115</text>
</g>
<!-- ncit&#45;&#45;umls -->
<g id="edge5" class="edge">
<title>ncit&#45;&#45;umls</title>
<path fill="none" stroke="black" stroke-width="1.25" d="M316.12,-117.33C335.24,-111.15 362.07,-102.48 381.59,-96.17"/>
<text text-anchor="middle" x="350.4" y="-111.92" font-family="Times,serif" font-size="14.00">219</text>
</g>
</g>
</svg>
