<?xml version="1.0" encoding="UTF-8" standalone="no"?>
<!DOCTYPE svg PUBLIC "-//W3C//DTD SVG 1.1//EN"
 "http://www.w3.org/Graphics/SVG/1.1/DTD/svg11.dtd">
<!-- Generated by graphviz version 13.1.0 (20250701.0955)
 -->
<!-- Pages: 1 -->
<svg width="1225pt" height="2394pt"
 viewBox="0.00 0.00 1225.00 2394.00" xmlns="http://www.w3.org/2000/svg" xmlns:xlink="http://www.w3.org/1999/xlink">
<g id="graph0" class="graph" transform="scale(1 1) rotate(0) translate(4 2389.98)">
<polygon fill="white" stroke="none" points="-4,4 -4,-2389.98 1221.26,-2389.98 1221.26,4 -4,4"/>
<!-- agrovoc -->
<g id="node1" class="node">
<title>agrovoc</title>
<ellipse fill="none" stroke="black" cx="40.6" cy="-1938.99" rx="40.6" ry="18"/>
<text xml:space="preserve" text-anchor="middle" x="40.6" y="-1933.94" font-family="Times,serif" font-size="14.00">agrovoc</text>
</g>
<!-- agro -->
<g id="node2" class="node">
<title>agro</title>
<ellipse fill="none" stroke="black" cx="197.51" cy="-1938.99" rx="27.3" ry="18"/>
<text xml:space="preserve" text-anchor="middle" x="197.51" y="-1933.94" font-family="Times,serif" font-size="14.00">agro</text>
</g>
<!-- agrovoc&#45;&#45;agro -->
<g id="edge1" class="edge">
<title>agrovoc&#45;&#45;agro</title>
<path fill="none" stroke="black" stroke-width="1.03" d="M81.5,-1938.99C109.28,-1938.99 145.59,-1938.99 169.9,-1938.99"/>
<text xml:space="preserve" text-anchor="middle" x="109.33" y="-1942.19" font-family="Times,serif" font-size="14.00">142</text>
</g>
<!-- bto
6,566 -->
<g id="node3" class="node">
<title>bto
6,566</title>
<ellipse fill="none" stroke="black" cx="40.6" cy="-2048.99" rx="33.06" ry="28.99"/>
<text xml:space="preserve" text-anchor="middle" x="40.6" y="-2052.19" font-family="Times,serif" font-size="14.00">bto</text>
<text xml:space="preserve" text-anchor="middle" x="40.6" y="-2035.69" font-family="Times,serif" font-size="14.00">6,566</text>
</g>
<!-- cl -->
<g id="node4" class="node">
<title>cl</title>
<ellipse fill="none" stroke="black" cx="197.51" cy="-1992.99" rx="27" ry="18"/>
<text xml:space="preserve" text-anchor="middle" x="197.51" y="-1987.94" font-family="Times,serif" font-size="14.00">cl</text>
</g>
<!-- bto
6,566&#45;&#45;cl -->
<g id="edge2" class="edge">
<title>bto
6,566&#45;&#45;cl</title>
<path fill="none" stroke="black" d="M71.47,-2038.19C101.19,-2027.45 146.16,-2011.19 173.3,-2001.38"/>
<text xml:space="preserve" text-anchor="middle" x="109.33" y="-2030.85" font-family="Times,serif" font-size="14.00">74</text>
</g>
<!-- uberon
15,693 -->
<g id="node5" class="node">
<title>uberon
15,693</title>
<ellipse fill="none" stroke="black" cx="740.47" cy="-1109.99" rx="37.83" ry="28.99"/>
<text xml:space="preserve" text-anchor="middle" x="740.47" y="-1113.19" font-family="Times,serif" font-size="14.00">uberon</text>
<text xml:space="preserve" text-anchor="middle" x="740.47" y="-1096.69" font-family="Times,serif" font-size="14.00">15,693</text>
</g>
<!-- bto
6,566&#45;&#45;uberon
15,693 -->
<g id="edge3" class="edge">
<title>bto
6,566&#45;&#45;uberon
15,693</title>
<path fill="none" stroke="black" d="M73.21,-2055.16C104.42,-2060.71 153.56,-2067.99 196.51,-2067.99 196.51,-2067.99 196.51,-2067.99 565.16,-2067.99 606.14,-2067.99 611.03,-2038.06 628.51,-2000.99 703.31,-1842.37 732.34,-1274.3 738.27,-1139.05"/>
<text xml:space="preserve" text-anchor="middle" x="378.69" y="-2071.19" font-family="Times,serif" font-size="14.00">1,465</text>
</g>
<!-- mesh
1,797 -->
<g id="node6" class="node">
<title>mesh
1,797</title>
<ellipse fill="none" stroke="black" cx="378.69" cy="-1962.99" rx="33.06" ry="28.99"/>
<text xml:space="preserve" text-anchor="middle" x="378.69" y="-1966.19" font-family="Times,serif" font-size="14.00">mesh</text>
<text xml:space="preserve" text-anchor="middle" x="378.69" y="-1949.69" font-family="Times,serif" font-size="14.00">1,797</text>
</g>
<!-- cl&#45;&#45;mesh
1,797 -->
<g id="edge4" class="edge">
<title>cl&#45;&#45;mesh
1,797</title>
<path fill="none" stroke="black" d="M224.18,-1988.69C256.21,-1983.33 310.98,-1974.16 345.71,-1968.35"/>
<text xml:space="preserve" text-anchor="middle" x="285.69" y="-1982.99" font-family="Times,serif" font-size="14.00">61</text>
</g>
<!-- umls
7,719 -->
<g id="node13" class="node">
<title>umls
7,719</title>
<ellipse fill="none" stroke="black" cx="1069.27" cy="-1581.99" rx="33.06" ry="28.99"/>
<text xml:space="preserve" text-anchor="middle" x="1069.27" y="-1585.19" font-family="Times,serif" font-size="14.00">umls</text>
<text xml:space="preserve" text-anchor="middle" x="1069.27" y="-1568.69" font-family="Times,serif" font-size="14.00">7,719</text>
</g>
<!-- uberon
15,693&#45;&#45;umls
7,719 -->
<g id="edge49" class="edge">
<title>uberon
15,693&#45;&#45;umls
7,719</title>
<path fill="none" stroke="black" d="M743.09,-1139.3C748.27,-1225.67 766.28,-1477.7 803.68,-1549.99 838.81,-1617.91 893.19,-1601.37 969.46,-1595.99 991.93,-1594.41 1017.06,-1590.82 1036.35,-1587.68"/>
<text xml:space="preserve" text-anchor="middle" x="910.94" y="-1604.91" font-family="Times,serif" font-size="14.00">280</text>
</g>
<!-- caloha -->
<g id="node28" class="node">
<title>caloha</title>
<ellipse fill="none" stroke="black" cx="910.94" cy="-1352.99" rx="34.97" ry="18"/>
<text xml:space="preserve" text-anchor="middle" x="910.94" y="-1347.94" font-family="Times,serif" font-size="14.00">caloha</text>
</g>
<!-- uberon
15,693&#45;&#45;caloha -->
<g id="edge27" class="edge">
<title>uberon
15,693&#45;&#45;caloha</title>
<path fill="none" stroke="black" d="M748.32,-1138.65C757.4,-1173.11 775.64,-1231.82 803.68,-1275.99 820.31,-1302.19 827.14,-1308 852.43,-1325.99 861.51,-1332.45 872.37,-1338.02 882.21,-1342.39"/>
<text xml:space="preserve" text-anchor="middle" x="819.05" y="-1315.41" font-family="Times,serif" font-size="14.00">538</text>
</g>
<!-- emapa -->
<g id="node29" class="node">
<title>emapa</title>
<ellipse fill="none" stroke="black" cx="910.94" cy="-1298.99" rx="35.49" ry="18"/>
<text xml:space="preserve" text-anchor="middle" x="910.94" y="-1293.94" font-family="Times,serif" font-size="14.00">emapa</text>
</g>
<!-- uberon
15,693&#45;&#45;emapa -->
<g id="edge28" class="edge">
<title>uberon
15,693&#45;&#45;emapa</title>
<path fill="none" stroke="black" d="M752.92,-1137.83C769.4,-1174.35 803.33,-1237.8 852.43,-1271.99 861.48,-1278.3 872.24,-1283.79 881.99,-1288.15"/>
<text xml:space="preserve" text-anchor="middle" x="819.05" y="-1258.54" font-family="Times,serif" font-size="14.00">4,359</text>
</g>
<!-- ev -->
<g id="node30" class="node">
<title>ev</title>
<ellipse fill="none" stroke="black" cx="910.94" cy="-1244.99" rx="27" ry="18"/>
<text xml:space="preserve" text-anchor="middle" x="910.94" y="-1239.94" font-family="Times,serif" font-size="14.00">ev</text>
</g>
<!-- uberon
15,693&#45;&#45;ev -->
<g id="edge29" class="edge">
<title>uberon
15,693&#45;&#45;ev</title>
<path fill="none" stroke="black" d="M761.17,-1134.57C781.7,-1158.76 815.91,-1195.26 852.43,-1217.99 863.38,-1224.81 876.34,-1231.04 887.18,-1235.79"/>
<text xml:space="preserve" text-anchor="middle" x="819.05" y="-1206.76" font-family="Times,serif" font-size="14.00">341</text>
</g>
<!-- fma -->
<g id="node31" class="node">
<title>fma</title>
<ellipse fill="none" stroke="black" cx="910.94" cy="-1460.99" rx="27" ry="18"/>
<text xml:space="preserve" text-anchor="middle" x="910.94" y="-1455.94" font-family="Times,serif" font-size="14.00">fma</text>
</g>
<!-- uberon
15,693&#45;&#45;fma -->
<g id="edge30" class="edge">
<title>uberon
15,693&#45;&#45;fma</title>
<path fill="none" stroke="black" d="M742.45,-1139.19C745.39,-1192.15 757.09,-1306.1 803.68,-1387.99 822.16,-1420.48 861.75,-1441.65 887.05,-1452.44"/>
<text xml:space="preserve" text-anchor="middle" x="819.05" y="-1424.7" font-family="Times,serif" font-size="14.00">6,111</text>
</g>
<!-- galen -->
<g id="node32" class="node">
<title>galen</title>
<ellipse fill="none" stroke="black" cx="910.94" cy="-1190.99" rx="30.88" ry="18"/>
<text xml:space="preserve" text-anchor="middle" x="910.94" y="-1185.94" font-family="Times,serif" font-size="14.00">galen</text>
</g>
<!-- uberon
15,693&#45;&#45;galen -->
<g id="edge31" class="edge">
<title>uberon
15,693&#45;&#45;galen</title>
<path fill="none" stroke="black" d="M771.19,-1127.54C781.37,-1133.33 792.91,-1139.65 803.68,-1144.99 830.87,-1158.48 862.96,-1172.06 884.7,-1180.93"/>
<text xml:space="preserve" text-anchor="middle" x="819.05" y="-1161.76" font-family="Times,serif" font-size="14.00">436</text>
</g>
<!-- ma -->
<g id="node33" class="node">
<title>ma</title>
<ellipse fill="none" stroke="black" cx="910.94" cy="-1136.99" rx="27" ry="18"/>
<text xml:space="preserve" text-anchor="middle" x="910.94" y="-1131.94" font-family="Times,serif" font-size="14.00">ma</text>
</g>
<!-- uberon
15,693&#45;&#45;ma -->
<g id="edge32" class="edge">
<title>uberon
15,693&#45;&#45;ma</title>
<path fill="none" stroke="black" d="M778.03,-1115.85C810.06,-1120.98 855.81,-1128.32 884.15,-1132.86"/>
<text xml:space="preserve" text-anchor="middle" x="819.05" y="-1127.5" font-family="Times,serif" font-size="14.00">3,065</text>
</g>
<!-- mat -->
<g id="node34" class="node">
<title>mat</title>
<ellipse fill="none" stroke="black" cx="910.94" cy="-1082.99" rx="27" ry="18"/>
<text xml:space="preserve" text-anchor="middle" x="910.94" y="-1077.94" font-family="Times,serif" font-size="14.00">mat</text>
</g>
<!-- uberon
15,693&#45;&#45;mat -->
<g id="edge33" class="edge">
<title>uberon
15,693&#45;&#45;mat</title>
<path fill="none" stroke="black" d="M777.64,-1103.8C786.18,-1102.37 795.24,-1100.86 803.68,-1099.49 831.14,-1095.04 862.63,-1090.18 884.16,-1086.9"/>
<text xml:space="preserve" text-anchor="middle" x="819.05" y="-1102.69" font-family="Times,serif" font-size="14.00">239</text>
</g>
<!-- snomedct -->
<g id="node35" class="node">
<title>snomedct</title>
<ellipse fill="none" stroke="black" cx="910.94" cy="-1406.99" rx="46.75" ry="18"/>
<text xml:space="preserve" text-anchor="middle" x="910.94" y="-1401.94" font-family="Times,serif" font-size="14.00">snomedct</text>
</g>
<!-- uberon
15,693&#45;&#45;snomedct -->
<g id="edge34" class="edge">
<title>uberon
15,693&#45;&#45;snomedct</title>
<path fill="none" stroke="black" d="M744.61,-1139C750.48,-1183.49 766.1,-1270 803.68,-1332.99 819.1,-1358.84 827.64,-1362.92 852.43,-1379.99 860.15,-1385.31 869.09,-1390.07 877.58,-1394.06"/>
<text xml:space="preserve" text-anchor="middle" x="819.05" y="-1370.4" font-family="Times,serif" font-size="14.00">4,120</text>
</g>
<!-- wikipedia.en -->
<g id="node36" class="node">
<title>wikipedia.en</title>
<ellipse fill="none" stroke="black" cx="910.94" cy="-1028.99" rx="58.52" ry="18"/>
<text xml:space="preserve" text-anchor="middle" x="910.94" y="-1023.94" font-family="Times,serif" font-size="14.00">wikipedia.en</text>
</g>
<!-- uberon
15,693&#45;&#45;wikipedia.en -->
<g id="edge35" class="edge">
<title>uberon
15,693&#45;&#45;wikipedia.en</title>
<path fill="none" stroke="black" d="M770.84,-1092.32C781.09,-1086.39 792.77,-1079.92 803.68,-1074.49 826.68,-1063.05 853.25,-1051.68 874.06,-1043.16"/>
<text xml:space="preserve" text-anchor="middle" x="819.05" y="-1077.69" font-family="Times,serif" font-size="14.00">3,536</text>
</g>
<!-- aao -->
<g id="node37" class="node">
<title>aao</title>
<ellipse fill="none" stroke="black" cx="910.94" cy="-974.99" rx="27" ry="18"/>
<text xml:space="preserve" text-anchor="middle" x="910.94" y="-969.94" font-family="Times,serif" font-size="14.00">aao</text>
</g>
<!-- uberon
15,693&#45;&#45;aao -->
<g id="edge36" class="edge">
<title>uberon
15,693&#45;&#45;aao</title>
<path fill="none" stroke="black" d="M761.14,-1085.36C781.65,-1061.14 815.84,-1024.61 852.43,-1001.99 863.41,-995.21 876.36,-988.98 887.2,-984.23"/>
<text xml:space="preserve" text-anchor="middle" x="819.05" y="-1041.61" font-family="Times,serif" font-size="14.00">784</text>
</g>
<!-- ehdaa -->
<g id="node38" class="node">
<title>ehdaa</title>
<ellipse fill="none" stroke="black" cx="910.94" cy="-920.99" rx="32.41" ry="18"/>
<text xml:space="preserve" text-anchor="middle" x="910.94" y="-915.94" font-family="Times,serif" font-size="14.00">ehdaa</text>
</g>
<!-- uberon
15,693&#45;&#45;ehdaa -->
<g id="edge37" class="edge">
<title>uberon
15,693&#45;&#45;ehdaa</title>
<path fill="none" stroke="black" d="M762.88,-1086.33C770.89,-1076.55 779.53,-1064.76 785.68,-1052.99 798.08,-1029.26 789.66,-1018.31 803.68,-995.49 819.51,-969.72 827.56,-965.21 852.43,-947.99 862.04,-941.33 873.55,-935.56 883.75,-931.08"/>
<text xml:space="preserve" text-anchor="middle" x="819.05" y="-998.69" font-family="Times,serif" font-size="14.00">969</text>
</g>
<!-- ehdaa2 -->
<g id="node39" class="node">
<title>ehdaa2</title>
<ellipse fill="none" stroke="black" cx="910.94" cy="-866.99" rx="37.02" ry="18"/>
<text xml:space="preserve" text-anchor="middle" x="910.94" y="-861.94" font-family="Times,serif" font-size="14.00">ehdaa2</text>
</g>
<!-- uberon
15,693&#45;&#45;ehdaa2 -->
<g id="edge38" class="edge">
<title>uberon
15,693&#45;&#45;ehdaa2</title>
<path fill="none" stroke="black" d="M763.78,-1086.76C771.91,-1077.04 780.4,-1065.17 785.68,-1052.99 805.82,-1006.54 780.12,-985.32 803.68,-940.49 819.85,-909.71 855.4,-889.26 880.93,-877.91"/>
<text xml:space="preserve" text-anchor="middle" x="819.05" y="-943.69" font-family="Times,serif" font-size="14.00">1,608</text>
</g>
<!-- miaa -->
<g id="node40" class="node">
<title>miaa</title>
<ellipse fill="none" stroke="black" cx="910.94" cy="-812.99" rx="29.34" ry="18"/>
<text xml:space="preserve" text-anchor="middle" x="910.94" y="-807.94" font-family="Times,serif" font-size="14.00">miaa</text>
</g>
<!-- uberon
15,693&#45;&#45;miaa -->
<g id="edge39" class="edge">
<title>uberon
15,693&#45;&#45;miaa</title>
<path fill="none" stroke="black" d="M764.1,-1086.9C772.28,-1077.19 780.71,-1065.3 785.68,-1052.99 813.68,-983.55 770.21,-952.47 803.68,-885.49 820.05,-852.73 859.06,-832.19 884.98,-821.66"/>
<text xml:space="preserve" text-anchor="middle" x="819.05" y="-888.69" font-family="Times,serif" font-size="14.00">217</text>
</g>
<!-- tao -->
<g id="node41" class="node">
<title>tao</title>
<ellipse fill="none" stroke="black" cx="910.94" cy="-758.99" rx="27" ry="18"/>
<text xml:space="preserve" text-anchor="middle" x="910.94" y="-753.94" font-family="Times,serif" font-size="14.00">tao</text>
</g>
<!-- uberon
15,693&#45;&#45;tao -->
<g id="edge40" class="edge">
<title>uberon
15,693&#45;&#45;tao</title>
<path fill="none" stroke="black" d="M764.27,-1086.96C772.47,-1077.27 780.87,-1065.37 785.68,-1052.99 821.43,-960.92 760.67,-920.41 803.68,-831.49 819.92,-797.91 860.19,-777.29 886.23,-767.01"/>
<text xml:space="preserve" text-anchor="middle" x="819.05" y="-834.69" font-family="Times,serif" font-size="14.00">980</text>
</g>
<!-- zfa -->
<g id="node42" class="node">
<title>zfa</title>
<ellipse fill="none" stroke="black" cx="910.94" cy="-704.99" rx="27" ry="18"/>
<text xml:space="preserve" text-anchor="middle" x="910.94" y="-699.94" font-family="Times,serif" font-size="14.00">zfa</text>
</g>
<!-- uberon
15,693&#45;&#45;zfa -->
<g id="edge41" class="edge">
<title>uberon
15,693&#45;&#45;zfa</title>
<path fill="none" stroke="black" d="M764.37,-1087C772.58,-1077.31 780.97,-1065.4 785.68,-1052.99 807.5,-995.42 777.01,-831.99 803.68,-776.49 819.76,-743.02 860.08,-722.79 886.18,-712.77"/>
<text xml:space="preserve" text-anchor="middle" x="819.05" y="-779.69" font-family="Times,serif" font-size="14.00">2,300</text>
</g>
<!-- fbbt -->
<g id="node43" class="node">
<title>fbbt</title>
<ellipse fill="none" stroke="black" cx="910.94" cy="-650.99" rx="27" ry="18"/>
<text xml:space="preserve" text-anchor="middle" x="910.94" y="-645.94" font-family="Times,serif" font-size="14.00">fbbt</text>
</g>
<!-- uberon
15,693&#45;&#45;fbbt -->
<g id="edge42" class="edge">
<title>uberon
15,693&#45;&#45;fbbt</title>
<path fill="none" stroke="black" d="M764.44,-1087.03C772.66,-1077.34 781.04,-1065.43 785.68,-1052.99 811.39,-984.08 772.17,-788.95 803.68,-722.49 819.59,-688.94 859.96,-668.73 886.11,-658.74"/>
<text xml:space="preserve" text-anchor="middle" x="819.05" y="-725.69" font-family="Times,serif" font-size="14.00">355</text>
</g>
<!-- xao -->
<g id="node44" class="node">
<title>xao</title>
<ellipse fill="none" stroke="black" cx="910.94" cy="-596.99" rx="27" ry="18"/>
<text xml:space="preserve" text-anchor="middle" x="910.94" y="-591.94" font-family="Times,serif" font-size="14.00">xao</text>
</g>
<!-- uberon
15,693&#45;&#45;xao -->
<g id="edge43" class="edge">
<title>uberon
15,693&#45;&#45;xao</title>
<path fill="none" stroke="black" d="M764.49,-1087.04C772.72,-1077.36 781.09,-1065.45 785.68,-1052.99 815.27,-972.73 767.33,-745.92 803.68,-668.49 819.46,-634.88 859.87,-614.69 886.07,-604.72"/>
<text xml:space="preserve" text-anchor="middle" x="819.05" y="-671.69" font-family="Times,serif" font-size="14.00">599</text>
</g>
<!-- bams -->
<g id="node45" class="node">
<title>bams</title>
<ellipse fill="none" stroke="black" cx="910.94" cy="-542.99" rx="30.88" ry="18"/>
<text xml:space="preserve" text-anchor="middle" x="910.94" y="-537.94" font-family="Times,serif" font-size="14.00">bams</text>
</g>
<!-- uberon
15,693&#45;&#45;bams -->
<g id="edge44" class="edge">
<title>uberon
15,693&#45;&#45;bams</title>
<path fill="none" stroke="black" d="M764.52,-1087.06C772.76,-1077.38 781.12,-1065.46 785.68,-1052.99 819.15,-961.39 762.49,-702.89 803.68,-614.49 818.89,-581.84 857.4,-561.88 883.64,-551.62"/>
<text xml:space="preserve" text-anchor="middle" x="819.05" y="-617.69" font-family="Times,serif" font-size="14.00">1,407</text>
</g>
<!-- birnlex -->
<g id="node46" class="node">
<title>birnlex</title>
<ellipse fill="none" stroke="black" cx="910.94" cy="-488.99" rx="37.02" ry="18"/>
<text xml:space="preserve" text-anchor="middle" x="910.94" y="-483.94" font-family="Times,serif" font-size="14.00">birnlex</text>
</g>
<!-- uberon
15,693&#45;&#45;birnlex -->
<g id="edge45" class="edge">
<title>uberon
15,693&#45;&#45;birnlex</title>
<path fill="none" stroke="black" d="M764.55,-1087.07C772.79,-1077.39 781.15,-1065.47 785.68,-1052.99 823.11,-949.83 757,-658.81 803.68,-559.49 818.18,-528.63 853.69,-509.39 879.68,-498.95"/>
<text xml:space="preserve" text-anchor="middle" x="819.05" y="-562.69" font-family="Times,serif" font-size="14.00">1,090</text>
</g>
<!-- dhba -->
<g id="node47" class="node">
<title>dhba</title>
<ellipse fill="none" stroke="black" cx="910.94" cy="-434.99" rx="28.83" ry="18"/>
<text xml:space="preserve" text-anchor="middle" x="910.94" y="-429.94" font-family="Times,serif" font-size="14.00">dhba</text>
</g>
<!-- uberon
15,693&#45;&#45;dhba -->
<g id="edge46" class="edge">
<title>uberon
15,693&#45;&#45;dhba</title>
<path fill="none" stroke="black" d="M764.58,-1087.08C772.82,-1077.4 781.17,-1065.48 785.68,-1052.99 806.34,-995.74 777.89,-560.62 803.68,-505.49 819.06,-472.6 858.35,-452.92 884.6,-443.02"/>
<text xml:space="preserve" text-anchor="middle" x="819.05" y="-508.69" font-family="Times,serif" font-size="14.00">757</text>
</g>
<!-- hba -->
<g id="node48" class="node">
<title>hba</title>
<ellipse fill="none" stroke="black" cx="910.94" cy="-380.99" rx="27" ry="18"/>
<text xml:space="preserve" text-anchor="middle" x="910.94" y="-375.94" font-family="Times,serif" font-size="14.00">hba</text>
</g>
<!-- uberon
15,693&#45;&#45;hba -->
<g id="edge47" class="edge">
<title>uberon
15,693&#45;&#45;hba</title>
<path fill="none" stroke="black" d="M764.59,-1087.08C772.84,-1077.4 781.19,-1065.48 785.68,-1052.99 808.28,-990.06 775.44,-512.1 803.68,-451.49 819.3,-417.98 859.76,-398.19 886.01,-388.48"/>
<text xml:space="preserve" text-anchor="middle" x="819.05" y="-454.69" font-family="Times,serif" font-size="14.00">569</text>
</g>
<!-- neuronames -->
<g id="node49" class="node">
<title>neuronames</title>
<ellipse fill="none" stroke="black" cx="910.94" cy="-326.99" rx="55.96" ry="18"/>
<text xml:space="preserve" text-anchor="middle" x="910.94" y="-321.94" font-family="Times,serif" font-size="14.00">neuronames</text>
</g>
<!-- uberon
15,693&#45;&#45;neuronames -->
<g id="edge48" class="edge">
<title>uberon
15,693&#45;&#45;neuronames</title>
<path fill="none" stroke="black" d="M764.61,-1087.09C772.86,-1077.41 781.21,-1065.49 785.68,-1052.99 810.22,-984.39 772.98,-463.57 803.68,-397.49 816.64,-369.58 846.86,-351.2 871.77,-340.22"/>
<text xml:space="preserve" text-anchor="middle" x="819.05" y="-400.69" font-family="Times,serif" font-size="14.00">1,183</text>
</g>
<!-- nlx.anat -->
<g id="node50" class="node">
<title>nlx.anat</title>
<ellipse fill="none" stroke="black" cx="910.94" cy="-272.99" rx="40.6" ry="18"/>
<text xml:space="preserve" text-anchor="middle" x="910.94" y="-267.94" font-family="Times,serif" font-size="14.00">nlx.anat</text>
</g>
<!-- uberon
15,693&#45;&#45;nlx.anat -->
<g id="edge50" class="edge">
<title>uberon
15,693&#45;&#45;nlx.anat</title>
<path fill="none" stroke="black" d="M764.62,-1087.09C772.87,-1077.42 781.22,-1065.5 785.68,-1052.99 812.24,-978.5 769.61,-412.86 803.68,-341.49 817.77,-311.98 851.46,-293.61 877.15,-283.42"/>
<text xml:space="preserve" text-anchor="middle" x="819.05" y="-344.69" font-family="Times,serif" font-size="14.00">209</text>
</g>
<!-- hao -->
<g id="node51" class="node">
<title>hao</title>
<ellipse fill="none" stroke="black" cx="910.94" cy="-218.99" rx="27" ry="18"/>
<text xml:space="preserve" text-anchor="middle" x="910.94" y="-213.94" font-family="Times,serif" font-size="14.00">hao</text>
</g>
<!-- uberon
15,693&#45;&#45;hao -->
<g id="edge51" class="edge">
<title>uberon
15,693&#45;&#45;hao</title>
<path fill="none" stroke="black" d="M764.4,-1087.37C772.73,-1077.65 781.19,-1065.62 785.68,-1052.99 814.18,-972.83 767.09,-364.3 803.68,-287.49 819.44,-254.4 859.86,-235.33 886.06,-226.07"/>
<text xml:space="preserve" text-anchor="middle" x="819.05" y="-290.69" font-family="Times,serif" font-size="14.00">76</text>
</g>
<!-- tgma -->
<g id="node52" class="node">
<title>tgma</title>
<ellipse fill="none" stroke="black" cx="910.94" cy="-164.99" rx="29.86" ry="18"/>
<text xml:space="preserve" text-anchor="middle" x="910.94" y="-159.94" font-family="Times,serif" font-size="14.00">tgma</text>
</g>
<!-- uberon
15,693&#45;&#45;tgma -->
<g id="edge52" class="edge">
<title>uberon
15,693&#45;&#45;tgma</title>
<path fill="none" stroke="black" d="M764.41,-1087.38C772.74,-1077.65 781.2,-1065.62 785.68,-1052.99 816.12,-967.15 764.58,-315.75 803.68,-233.49 818.94,-201.38 857.44,-182.48 883.66,-172.93"/>
<text xml:space="preserve" text-anchor="middle" x="819.05" y="-236.69" font-family="Times,serif" font-size="14.00">52</text>
</g>
<!-- wbbt -->
<g id="node53" class="node">
<title>wbbt</title>
<ellipse fill="none" stroke="black" cx="910.94" cy="-1945.99" rx="29.34" ry="18"/>
<text xml:space="preserve" text-anchor="middle" x="910.94" y="-1940.94" font-family="Times,serif" font-size="14.00">wbbt</text>
</g>
<!-- uberon
15,693&#45;&#45;wbbt -->
<g id="edge53" class="edge">
<title>uberon
15,693&#45;&#45;wbbt</title>
<path fill="none" stroke="black" d="M742.48,-1139.03C747.26,-1271.2 768.82,-1812.39 803.68,-1878.99 820.06,-1910.29 858.27,-1928.81 884.11,-1938.19"/>
<text xml:space="preserve" text-anchor="middle" x="819.05" y="-1914.55" font-family="Times,serif" font-size="14.00">48</text>
</g>
<!-- dmba -->
<g id="node54" class="node">
<title>dmba</title>
<ellipse fill="none" stroke="black" cx="910.94" cy="-1891.99" rx="31.9" ry="18"/>
<text xml:space="preserve" text-anchor="middle" x="910.94" y="-1886.94" font-family="Times,serif" font-size="14.00">dmba</text>
</g>
<!-- uberon
15,693&#45;&#45;dmba -->
<g id="edge54" class="edge">
<title>uberon
15,693&#45;&#45;dmba</title>
<path fill="none" stroke="black" d="M741,-1139.26C739.53,-1258.14 738.55,-1704.29 803.68,-1825.99 819.87,-1856.25 856.55,-1874.3 882.27,-1883.68"/>
<text xml:space="preserve" text-anchor="middle" x="819.05" y="-1861.19" font-family="Times,serif" font-size="14.00">262</text>
</g>
<!-- envo -->
<g id="node55" class="node">
<title>envo</title>
<ellipse fill="none" stroke="black" cx="910.94" cy="-1837.99" rx="28.83" ry="18"/>
<text xml:space="preserve" text-anchor="middle" x="910.94" y="-1832.94" font-family="Times,serif" font-size="14.00">envo</text>
</g>
<!-- uberon
15,693&#45;&#45;envo -->
<g id="edge55" class="edge">
<title>uberon
15,693&#45;&#45;envo</title>
<path fill="none" stroke="black" d="M741.09,-1139.16C740.1,-1252.63 740.97,-1663.92 803.68,-1774.99 820.66,-1805.06 858.31,-1822.23 883.92,-1830.83"/>
<text xml:space="preserve" text-anchor="middle" x="819.05" y="-1809.17" font-family="Times,serif" font-size="14.00">28</text>
</g>
<!-- neurolex -->
<g id="node56" class="node">
<title>neurolex</title>
<ellipse fill="none" stroke="black" cx="910.94" cy="-1783.99" rx="43.16" ry="18"/>
<text xml:space="preserve" text-anchor="middle" x="910.94" y="-1778.94" font-family="Times,serif" font-size="14.00">neurolex</text>
</g>
<!-- uberon
15,693&#45;&#45;neurolex -->
<g id="edge56" class="edge">
<title>uberon
15,693&#45;&#45;neurolex</title>
<path fill="none" stroke="black" d="M741.17,-1139.26C740.54,-1247.61 742.86,-1624.76 803.68,-1724.99 819.06,-1750.34 849.56,-1765.63 873.96,-1774.28"/>
<text xml:space="preserve" text-anchor="middle" x="819.05" y="-1757.81" font-family="Times,serif" font-size="14.00">113</text>
</g>
<!-- tads -->
<g id="node57" class="node">
<title>tads</title>
<ellipse fill="none" stroke="black" cx="910.94" cy="-1729.99" rx="27" ry="18"/>
<text xml:space="preserve" text-anchor="middle" x="910.94" y="-1724.94" font-family="Times,serif" font-size="14.00">tads</text>
</g>
<!-- uberon
15,693&#45;&#45;tads -->
<g id="edge57" class="edge">
<title>uberon
15,693&#45;&#45;tads</title>
<path fill="none" stroke="black" d="M741,-1139.17C739.87,-1242.84 740.91,-1591.94 803.68,-1679.99 822.73,-1706.72 859.85,-1719.61 884.78,-1725.49"/>
<text xml:space="preserve" text-anchor="middle" x="819.05" y="-1708.12" font-family="Times,serif" font-size="14.00">25</text>
</g>
<!-- mba -->
<g id="node58" class="node">
<title>mba</title>
<ellipse fill="none" stroke="black" cx="910.94" cy="-1675.99" rx="27.3" ry="18"/>
<text xml:space="preserve" text-anchor="middle" x="910.94" y="-1670.94" font-family="Times,serif" font-size="14.00">mba</text>
</g>
<!-- uberon
15,693&#45;&#45;mba -->
<g id="edge58" class="edge">
<title>uberon
15,693&#45;&#45;mba</title>
<path fill="none" stroke="black" d="M741.03,-1139.19C740.13,-1238.15 742.1,-1558.99 803.68,-1636.99 822.92,-1661.36 858.89,-1670.51 883.61,-1673.94"/>
<text xml:space="preserve" text-anchor="middle" x="819.05" y="-1662.27" font-family="Times,serif" font-size="14.00">557</text>
</g>
<!-- pba -->
<g id="node59" class="node">
<title>pba</title>
<ellipse fill="none" stroke="black" cx="910.94" cy="-1568.99" rx="27" ry="18"/>
<text xml:space="preserve" text-anchor="middle" x="910.94" y="-1563.94" font-family="Times,serif" font-size="14.00">pba</text>
</g>
<!-- uberon
15,693&#45;&#45;pba -->
<g id="edge59" class="edge">
<title>uberon
15,693&#45;&#45;pba</title>
<path fill="none" stroke="black" d="M743.75,-1139.32C750.27,-1218.3 770.68,-1433.68 803.68,-1495.99 821.17,-1529.02 861.07,-1550.02 886.69,-1560.63"/>
<text xml:space="preserve" text-anchor="middle" x="819.05" y="-1533.06" font-family="Times,serif" font-size="14.00">94</text>
</g>
<!-- mfmo -->
<g id="node60" class="node">
<title>mfmo</title>
<ellipse fill="none" stroke="black" cx="910.94" cy="-1514.99" rx="33.95" ry="18"/>
<text xml:space="preserve" text-anchor="middle" x="910.94" y="-1509.94" font-family="Times,serif" font-size="14.00">mfmo</text>
</g>
<!-- uberon
15,693&#45;&#45;mfmo -->
<g id="edge60" class="edge">
<title>uberon
15,693&#45;&#45;mfmo</title>
<path fill="none" stroke="black" d="M741.04,-1139.07C741.35,-1199.37 748.45,-1340.86 803.68,-1441.99 820.63,-1473.03 857.13,-1493.56 882.6,-1504.73"/>
<text xml:space="preserve" text-anchor="middle" x="819.05" y="-1478.91" font-family="Times,serif" font-size="14.00">42</text>
</g>
<!-- mesh
1,797&#45;&#45;uberon
15,693 -->
<g id="edge11" class="edge">
<title>mesh
1,797&#45;&#45;uberon
15,693</title>
<path fill="none" stroke="black" d="M391.05,-1936.05C444.8,-1808.62 673.21,-1267.08 727.74,-1137.79"/>
<text xml:space="preserve" text-anchor="middle" x="564.16" y="-1679.52" font-family="Times,serif" font-size="14.00">1,080</text>
</g>
<!-- go -->
<g id="node11" class="node">
<title>go</title>
<ellipse fill="none" stroke="black" cx="564.16" cy="-785.99" rx="27" ry="18"/>
<text xml:space="preserve" text-anchor="middle" x="564.16" y="-780.94" font-family="Times,serif" font-size="14.00">go</text>
</g>
<!-- mesh
1,797&#45;&#45;go -->
<g id="edge9" class="edge">
<title>mesh
1,797&#45;&#45;go</title>
<path fill="none" stroke="black" d="M380.14,-1933.54C382.33,-1822.77 394.71,-1421.04 461.57,-1098.49 485.48,-983.14 536.92,-850.55 555.92,-803.59"/>
<text xml:space="preserve" text-anchor="middle" x="471.69" y="-1101.69" font-family="Times,serif" font-size="14.00">120</text>
</g>
<!-- ncit
7,579 -->
<g id="node12" class="node">
<title>ncit
7,579</title>
<ellipse fill="none" stroke="black" cx="564.16" cy="-1962.99" rx="33.06" ry="28.99"/>
<text xml:space="preserve" text-anchor="middle" x="564.16" y="-1966.19" font-family="Times,serif" font-size="14.00">ncit</text>
<text xml:space="preserve" text-anchor="middle" x="564.16" y="-1949.69" font-family="Times,serif" font-size="14.00">7,579</text>
</g>
<!-- mesh
1,797&#45;&#45;ncit
7,579 -->
<g id="edge10" class="edge">
<title>mesh
1,797&#45;&#45;ncit
7,579</title>
<path fill="none" stroke="black" d="M412.07,-1962.99C445.5,-1962.99 497.37,-1962.99 530.8,-1962.99"/>
<text xml:space="preserve" text-anchor="middle" x="471.69" y="-1966.19" font-family="Times,serif" font-size="14.00">28</text>
</g>
<!-- mesh
1,797&#45;&#45;umls
7,719 -->
<g id="edge12" class="edge">
<title>mesh
1,797&#45;&#45;umls
7,719</title>
<path fill="none" stroke="black" d="M406.24,-1979.38C440.97,-1999.22 504.33,-2029.99 563.16,-2029.99 563.16,-2029.99 563.16,-2029.99 911.94,-2029.99 977.1,-2029.99 994.09,-1989.52 1018.21,-1928.99 1062.6,-1817.6 1068.31,-1672.16 1068.59,-1611.04"/>
<text xml:space="preserve" text-anchor="middle" x="740.47" y="-2033.19" font-family="Times,serif" font-size="14.00">159</text>
</g>
<!-- ccle -->
<g id="node7" class="node">
<title>ccle</title>
<ellipse fill="none" stroke="black" cx="378.69" cy="-868.99" rx="27" ry="18"/>
<text xml:space="preserve" text-anchor="middle" x="378.69" y="-863.94" font-family="Times,serif" font-size="14.00">ccle</text>
</g>
<!-- cellosaurus -->
<g id="node8" class="node">
<title>cellosaurus</title>
<ellipse fill="none" stroke="black" cx="564.16" cy="-731.99" rx="52.38" ry="18"/>
<text xml:space="preserve" text-anchor="middle" x="564.16" y="-726.94" font-family="Times,serif" font-size="14.00">cellosaurus</text>
</g>
<!-- ccle&#45;&#45;cellosaurus -->
<g id="edge5" class="edge">
<title>ccle&#45;&#45;cellosaurus</title>
<path fill="none" stroke="black" stroke-width="1.02" d="M393.15,-853.72C414.08,-830.7 456.55,-786.86 499.82,-758.99 508.16,-753.62 517.75,-748.89 526.9,-744.96"/>
<text xml:space="preserve" text-anchor="middle" x="471.69" y="-788.68" font-family="Times,serif" font-size="14.00">114</text>
</g>
<!-- efo -->
<g id="node9" class="node">
<title>efo</title>
<ellipse fill="none" stroke="black" cx="564.16" cy="-1025.99" rx="27" ry="18"/>
<text xml:space="preserve" text-anchor="middle" x="564.16" y="-1020.94" font-family="Times,serif" font-size="14.00">efo</text>
</g>
<!-- ccle&#45;&#45;efo -->
<g id="edge6" class="edge">
<title>ccle&#45;&#45;efo</title>
<path fill="none" stroke="black" stroke-width="1.11" d="M396.29,-883.2C431.23,-913.09 511.94,-982.16 546.73,-1011.93"/>
<text xml:space="preserve" text-anchor="middle" x="471.69" y="-955.4" font-family="Times,serif" font-size="14.00">570</text>
</g>
<!-- efo&#45;&#45;uberon
15,693 -->
<g id="edge8" class="edge">
<title>efo&#45;&#45;uberon
15,693</title>
<path fill="none" stroke="black" d="M586.54,-1036.29C616.9,-1050.92 672.73,-1077.83 707.88,-1094.77"/>
<text xml:space="preserve" text-anchor="middle" x="661.88" y="-1081.19" font-family="Times,serif" font-size="14.00">622</text>
</g>
<!-- doid -->
<g id="node10" class="node">
<title>doid</title>
<ellipse fill="none" stroke="black" cx="740.47" cy="-1025.99" rx="27.3" ry="18"/>
<text xml:space="preserve" text-anchor="middle" x="740.47" y="-1020.94" font-family="Times,serif" font-size="14.00">doid</text>
</g>
<!-- efo&#45;&#45;doid -->
<g id="edge7" class="edge">
<title>efo&#45;&#45;doid</title>
<path fill="none" stroke="black" stroke-width="1.02" d="M591.64,-1025.99C624.4,-1025.99 679.87,-1025.99 712.75,-1025.99"/>
<text xml:space="preserve" text-anchor="middle" x="661.88" y="-1029.19" font-family="Times,serif" font-size="14.00">96</text>
</g>
<!-- go&#45;&#45;umls
7,719 -->
<g id="edge22" class="edge">
<title>go&#45;&#45;umls
7,719</title>
<path fill="none" stroke="black" d="M590.43,-780.66C603.44,-776.71 618.62,-770.03 628.51,-758.99 808.08,-558.62 656.33,-404.62 803.68,-179.49 845.27,-115.94 913.95,-86.15 969.46,-137.99 1023.15,-188.13 1061.21,-1351.85 1067.39,-1552.62"/>
<text xml:space="preserve" text-anchor="middle" x="819.05" y="-182.69" font-family="Times,serif" font-size="14.00">30</text>
</g>
<!-- ncit
7,579&#45;&#45;uberon
15,693 -->
<g id="edge23" class="edge">
<title>ncit
7,579&#45;&#45;uberon
15,693</title>
<path fill="none" stroke="black" d="M570.96,-1934.61C597.46,-1804.96 706.83,-1269.69 733.56,-1138.91"/>
<text xml:space="preserve" text-anchor="middle" x="661.88" y="-1565.27" font-family="Times,serif" font-size="14.00">2,527</text>
</g>
<!-- ncit
7,579&#45;&#45;umls
7,719 -->
<g id="edge24" class="edge">
<title>ncit
7,579&#45;&#45;umls
7,719</title>
<path fill="none" stroke="black" d="M597.01,-1968.75C682.07,-1983.38 911.99,-2017.75 969.46,-1972.99 1027.4,-1927.88 1056.73,-1694.21 1065.43,-1611.25"/>
<text xml:space="preserve" text-anchor="middle" x="819.05" y="-1998.07" font-family="Times,serif" font-size="14.00">519</text>
</g>
<!-- csp -->
<g id="node61" class="node">
<title>csp</title>
<ellipse fill="none" stroke="black" cx="1187.92" cy="-1635.99" rx="27" ry="18"/>
<text xml:space="preserve" text-anchor="middle" x="1187.92" y="-1630.94" font-family="Times,serif" font-size="14.00">csp</text>
</g>
<!-- umls
7,719&#45;&#45;csp -->
<g id="edge63" class="edge">
<title>umls
7,719&#45;&#45;csp</title>
<path fill="none" stroke="black" d="M1099.1,-1595.34C1119.48,-1604.77 1146.37,-1617.22 1165,-1625.85"/>
<text xml:space="preserve" text-anchor="middle" x="1130.45" y="-1617.03" font-family="Times,serif" font-size="14.00">76</text>
</g>
<!-- loinc -->
<g id="node62" class="node">
<title>loinc</title>
<ellipse fill="none" stroke="black" cx="1187.92" cy="-1581.99" rx="29.34" ry="18"/>
<text xml:space="preserve" text-anchor="middle" x="1187.92" y="-1576.94" font-family="Times,serif" font-size="14.00">loinc</text>
</g>
<!-- umls
7,719&#45;&#45;loinc -->
<g id="edge64" class="edge">
<title>umls
7,719&#45;&#45;loinc</title>
<path fill="none" stroke="black" d="M1102.76,-1581.99C1120.16,-1581.99 1141.39,-1581.99 1158.18,-1581.99"/>
<text xml:space="preserve" text-anchor="middle" x="1130.45" y="-1585.19" font-family="Times,serif" font-size="14.00">148</text>
</g>
<!-- nddf -->
<g id="node63" class="node">
<title>nddf</title>
<ellipse fill="none" stroke="black" cx="1187.92" cy="-1527.99" rx="27.81" ry="18"/>
<text xml:space="preserve" text-anchor="middle" x="1187.92" y="-1522.94" font-family="Times,serif" font-size="14.00">nddf</text>
</g>
<!-- umls
7,719&#45;&#45;nddf -->
<g id="edge65" class="edge">
<title>umls
7,719&#45;&#45;nddf</title>
<path fill="none" stroke="black" d="M1099.1,-1568.64C1119.34,-1559.27 1146.01,-1546.93 1164.63,-1538.31"/>
<text xml:space="preserve" text-anchor="middle" x="1130.45" y="-1561.42" font-family="Times,serif" font-size="14.00">21</text>
</g>
<!-- cvx -->
<g id="node14" class="node">
<title>cvx</title>
<ellipse fill="none" stroke="black" cx="40.6" cy="-2129.99" rx="27" ry="18"/>
<text xml:space="preserve" text-anchor="middle" x="40.6" y="-2124.94" font-family="Times,serif" font-size="14.00">cvx</text>
</g>
<!-- vo -->
<g id="node15" class="node">
<title>vo</title>
<ellipse fill="none" stroke="black" cx="197.51" cy="-2129.99" rx="27" ry="18"/>
<text xml:space="preserve" text-anchor="middle" x="197.51" y="-2124.94" font-family="Times,serif" font-size="14.00">vo</text>
</g>
<!-- cvx&#45;&#45;vo -->
<g id="edge13" class="edge">
<title>cvx&#45;&#45;vo</title>
<path fill="none" stroke="black" stroke-width="1.01" d="M67.88,-2129.99C96.37,-2129.99 141.57,-2129.99 170.1,-2129.99"/>
<text xml:space="preserve" text-anchor="middle" x="109.33" y="-2133.19" font-family="Times,serif" font-size="14.00">47</text>
</g>
<!-- dron -->
<g id="node16" class="node">
<title>dron</title>
<ellipse fill="none" stroke="black" cx="378.69" cy="-2180.99" rx="27.81" ry="18"/>
<text xml:space="preserve" text-anchor="middle" x="378.69" y="-2175.94" font-family="Times,serif" font-size="14.00">dron</text>
</g>
<!-- vo&#45;&#45;dron -->
<g id="edge14" class="edge">
<title>vo&#45;&#45;dron</title>
<path fill="none" stroke="black" stroke-width="1.03" d="M222.67,-2136.87C256.68,-2146.55 318.34,-2164.1 352.76,-2173.9"/>
<text xml:space="preserve" text-anchor="middle" x="285.69" y="-2160.22" font-family="Times,serif" font-size="14.00">145</text>
</g>
<!-- drugbank -->
<g id="node17" class="node">
<title>drugbank</title>
<ellipse fill="none" stroke="black" cx="378.69" cy="-2126.99" rx="45.72" ry="18"/>
<text xml:space="preserve" text-anchor="middle" x="378.69" y="-2121.94" font-family="Times,serif" font-size="14.00">drugbank</text>
</g>
<!-- vo&#45;&#45;drugbank -->
<g id="edge15" class="edge">
<title>vo&#45;&#45;drugbank</title>
<path fill="none" stroke="black" stroke-width="1.01" d="M224.95,-2129.55C253.28,-2129.07 298.74,-2128.31 332.72,-2127.74"/>
<text xml:space="preserve" text-anchor="middle" x="285.69" y="-2131.87" font-family="Times,serif" font-size="14.00">40</text>
</g>
<!-- idomal -->
<g id="node18" class="node">
<title>idomal</title>
<ellipse fill="none" stroke="black" cx="40.6" cy="-2183.99" rx="37.02" ry="18"/>
<text xml:space="preserve" text-anchor="middle" x="40.6" y="-2178.94" font-family="Times,serif" font-size="14.00">idomal</text>
</g>
<!-- vsmo -->
<g id="node19" class="node">
<title>vsmo</title>
<ellipse fill="none" stroke="black" cx="197.51" cy="-2183.99" rx="31.39" ry="18"/>
<text xml:space="preserve" text-anchor="middle" x="197.51" y="-2178.94" font-family="Times,serif" font-size="14.00">vsmo</text>
</g>
<!-- idomal&#45;&#45;vsmo -->
<g id="edge16" class="edge">
<title>idomal&#45;&#45;vsmo</title>
<path fill="none" stroke="black" d="M77.92,-2183.99C104.57,-2183.99 140.37,-2183.99 165.64,-2183.99"/>
<text xml:space="preserve" text-anchor="middle" x="109.33" y="-2187.19" font-family="Times,serif" font-size="14.00">23</text>
</g>
<!-- ito -->
<g id="node20" class="node">
<title>ito</title>
<ellipse fill="none" stroke="black" cx="40.6" cy="-2237.99" rx="27" ry="18"/>
<text xml:space="preserve" text-anchor="middle" x="40.6" y="-2232.94" font-family="Times,serif" font-size="14.00">ito</text>
</g>
<!-- aio -->
<g id="node21" class="node">
<title>aio</title>
<ellipse fill="none" stroke="black" cx="197.51" cy="-2237.99" rx="27" ry="18"/>
<text xml:space="preserve" text-anchor="middle" x="197.51" y="-2232.94" font-family="Times,serif" font-size="14.00">aio</text>
</g>
<!-- ito&#45;&#45;aio -->
<g id="edge17" class="edge">
<title>ito&#45;&#45;aio</title>
<path fill="none" stroke="black" stroke-width="1.01" d="M67.88,-2237.99C96.37,-2237.99 141.57,-2237.99 170.1,-2237.99"/>
<text xml:space="preserve" text-anchor="middle" x="109.33" y="-2241.19" font-family="Times,serif" font-size="14.00">40</text>
</g>
<!-- kegg.pathway
6 -->
<g id="node22" class="node">
<title>kegg.pathway
6</title>
<ellipse fill="none" stroke="black" cx="378.69" cy="-93.99" rx="64.88" ry="28.99"/>
<text xml:space="preserve" text-anchor="middle" x="378.69" y="-97.19" font-family="Times,serif" font-size="14.00">kegg.pathway</text>
<text xml:space="preserve" text-anchor="middle" x="378.69" y="-80.69" font-family="Times,serif" font-size="14.00">6</text>
</g>
<!-- kegg.pathway
6&#45;&#45;go -->
<g id="edge20" class="edge">
<title>kegg.pathway
6&#45;&#45;go</title>
<path fill="none" stroke="black" d="M381.35,-123.37C388.4,-238.55 419.25,-657.99 499.82,-758.99 509.13,-770.67 524.46,-777.39 537.7,-781.19"/>
<text xml:space="preserve" text-anchor="middle" x="471.69" y="-726.26" font-family="Times,serif" font-size="14.00">113</text>
</g>
<!-- wikipathways
15 -->
<g id="node23" class="node">
<title>wikipathways
15</title>
<ellipse fill="none" stroke="black" cx="564.16" cy="-28.99" rx="64.35" ry="28.99"/>
<text xml:space="preserve" text-anchor="middle" x="564.16" y="-32.19" font-family="Times,serif" font-size="14.00">wikipathways</text>
<text xml:space="preserve" text-anchor="middle" x="564.16" y="-15.69" font-family="Times,serif" font-size="14.00">15</text>
</g>
<!-- kegg.pathway
6&#45;&#45;wikipathways
15 -->
<g id="edge18" class="edge">
<title>kegg.pathway
6&#45;&#45;wikipathways
15</title>
<path fill="none" stroke="black" d="M428.96,-75.37C439.69,-71.39 450.99,-67.26 461.57,-63.49 477.8,-57.71 495.56,-51.61 511.64,-46.16"/>
<text xml:space="preserve" text-anchor="middle" x="471.69" y="-66.69" font-family="Times,serif" font-size="14.00">68</text>
</g>
<!-- reactome -->
<g id="node24" class="node">
<title>reactome</title>
<ellipse fill="none" stroke="black" cx="740.47" cy="-59.99" rx="45.21" ry="18"/>
<text xml:space="preserve" text-anchor="middle" x="740.47" y="-54.94" font-family="Times,serif" font-size="14.00">reactome</text>
</g>
<!-- kegg.pathway
6&#45;&#45;reactome -->
<g id="edge19" class="edge">
<title>kegg.pathway
6&#45;&#45;reactome</title>
<path fill="none" stroke="black" d="M443.36,-89.75C503.69,-85.47 596.78,-78.19 677.26,-68.99 683.87,-68.24 690.87,-67.33 697.68,-66.39"/>
<text xml:space="preserve" text-anchor="middle" x="564.16" y="-88.49" font-family="Times,serif" font-size="14.00">60</text>
</g>
<!-- wikipathways
15&#45;&#45;reactome -->
<g id="edge21" class="edge">
<title>wikipathways
15&#45;&#45;reactome</title>
<path fill="none" stroke="black" d="M624.66,-39.57C649.02,-43.91 676.6,-48.81 698.62,-52.73"/>
<text xml:space="preserve" text-anchor="middle" x="661.88" y="-51.38" font-family="Times,serif" font-size="14.00">73</text>
</g>
<!-- pr -->
<g id="node25" class="node">
<title>pr</title>
<ellipse fill="none" stroke="black" cx="40.6" cy="-2291.99" rx="27" ry="18"/>
<text xml:space="preserve" text-anchor="middle" x="40.6" y="-2286.94" font-family="Times,serif" font-size="14.00">pr</text>
</g>
<!-- uniprot.chain -->
<g id="node26" class="node">
<title>uniprot.chain</title>
<ellipse fill="none" stroke="black" cx="197.51" cy="-2291.99" rx="60.05" ry="18"/>
<text xml:space="preserve" text-anchor="middle" x="197.51" y="-2286.94" font-family="Times,serif" font-size="14.00">uniprot.chain</text>
</g>
<!-- pr&#45;&#45;uniprot.chain -->
<g id="edge25" class="edge">
<title>pr&#45;&#45;uniprot.chain</title>
<path fill="none" stroke="black" stroke-width="1.02" d="M67.88,-2291.99C86.87,-2291.99 113.29,-2291.99 137.25,-2291.99"/>
<text xml:space="preserve" text-anchor="middle" x="109.33" y="-2295.19" font-family="Times,serif" font-size="14.00">80</text>
</g>
<!-- ncbiprotein -->
<g id="node27" class="node">
<title>ncbiprotein</title>
<ellipse fill="none" stroke="black" cx="378.69" cy="-2291.99" rx="52.89" ry="18"/>
<text xml:space="preserve" text-anchor="middle" x="378.69" y="-2286.94" font-family="Times,serif" font-size="14.00">ncbiprotein</text>
</g>
<!-- uniprot.chain&#45;&#45;ncbiprotein -->
<g id="edge26" class="edge">
<title>uniprot.chain&#45;&#45;ncbiprotein</title>
<path fill="none" stroke="black" d="M257.68,-2291.99C279.59,-2291.99 304.26,-2291.99 325.51,-2291.99"/>
<text xml:space="preserve" text-anchor="middle" x="285.69" y="-2295.19" font-family="Times,serif" font-size="14.00">26</text>
</g>
<!-- fma&#45;&#45;umls
7,719 -->
<g id="edge61" class="edge">
<title>fma&#45;&#45;umls
7,719</title>
<path fill="none" stroke="black" d="M934.98,-1469.78C945.88,-1474.44 958.81,-1480.71 969.46,-1487.99 999.76,-1508.7 1029.59,-1538.79 1048.41,-1559.31"/>
<text xml:space="preserve" text-anchor="middle" x="1002.84" y="-1531.6" font-family="Times,serif" font-size="14.00">4,407</text>
</g>
<!-- snomedct&#45;&#45;umls
7,719 -->
<g id="edge62" class="edge">
<title>snomedct&#45;&#45;umls
7,719</title>
<path fill="none" stroke="black" d="M944.71,-1419.93C953.11,-1423.89 961.9,-1428.64 969.46,-1433.99 994.66,-1451.83 1000.17,-1458.43 1018.21,-1483.49 1034.35,-1505.91 1048.17,-1534.27 1057.18,-1554.8"/>
<text xml:space="preserve" text-anchor="middle" x="1002.84" y="-1486.69" font-family="Times,serif" font-size="14.00">2,633</text>
</g>
<!-- obo -->
<g id="node64" class="node">
<title>obo</title>
<ellipse fill="none" stroke="black" cx="40.6" cy="-2356.99" rx="27" ry="18"/>
<text xml:space="preserve" text-anchor="middle" x="40.6" y="-2351.94" font-family="Times,serif" font-size="14.00">obo</text>
</g>
<!-- ubprop
2 -->
<g id="node65" class="node">
<title>ubprop
2</title>
<ellipse fill="none" stroke="black" cx="197.51" cy="-2356.99" rx="38.36" ry="28.99"/>
<text xml:space="preserve" text-anchor="middle" x="197.51" y="-2360.19" font-family="Times,serif" font-size="14.00">ubprop</text>
<text xml:space="preserve" text-anchor="middle" x="197.51" y="-2343.69" font-family="Times,serif" font-size="14.00">2</text>
</g>
<!-- obo&#45;&#45;ubprop
2 -->
<g id="edge66" class="edge">
<title>obo&#45;&#45;ubprop
2</title>
<path fill="none" stroke="black" d="M67.88,-2356.99C92.83,-2356.99 130.59,-2356.99 158.76,-2356.99"/>
<text xml:space="preserve" text-anchor="middle" x="109.33" y="-2360.19" font-family="Times,serif" font-size="14.00">29</text>
</g>
</g>
</svg>
