<?xml version="1.0" encoding="UTF-8" standalone="no"?>
<!DOCTYPE svg PUBLIC "-//W3C//DTD SVG 1.1//EN"
 "http://www.w3.org/Graphics/SVG/1.1/DTD/svg11.dtd">
<!-- Generated by graphviz version 13.1.0 (20250701.0955)
 -->
<!-- Pages: 1 -->
<svg width="621pt" height="239pt"
 viewBox="0.00 0.00 621.00 239.00" xmlns="http://www.w3.org/2000/svg" xmlns:xlink="http://www.w3.org/1999/xlink">
<g id="graph0" class="graph" transform="scale(1 1) rotate(0) translate(4 235.38)">
<polygon fill="white" stroke="none" points="-4,4 -4,-235.38 617.15,-235.38 617.15,4 -4,4"/>
<!-- umls -->
<g id="node1" class="node">
<title>umls</title>
<ellipse fill="none" stroke="black" cx="29.34" cy="-190.38" rx="29.34" ry="18"/>
<text xml:space="preserve" text-anchor="middle" x="29.34" y="-185.33" font-family="Times,serif" font-size="14.00">umls</text>
</g>
<!-- mesh -->
<g id="node2" class="node">
<title>mesh</title>
<ellipse fill="none" stroke="black" cx="145.82" cy="-135.38" rx="30.88" ry="18"/>
<text xml:space="preserve" text-anchor="middle" x="145.82" y="-130.33" font-family="Times,serif" font-size="14.00">mesh</text>
</g>
<!-- umls&#45;&#45;mesh -->
<g id="edge1" class="edge">
<title>umls&#45;&#45;mesh</title>
<path fill="none" stroke="black" stroke-width="1.04" d="M53.23,-179.39C72.94,-169.92 101.26,-156.31 121.18,-146.74"/>
<text xml:space="preserve" text-anchor="middle" x="86.81" y="-171.01" font-family="Times,serif" font-size="14.00">428</text>
</g>
<!-- ncit -->
<g id="node3" class="node">
<title>ncit</title>
<ellipse fill="none" stroke="black" cx="259.95" cy="-213.38" rx="27" ry="18"/>
<text xml:space="preserve" text-anchor="middle" x="259.95" y="-208.33" font-family="Times,serif" font-size="14.00">ncit</text>
</g>
<!-- umls&#45;&#45;ncit -->
<g id="edge2" class="edge">
<title>umls&#45;&#45;ncit</title>
<path fill="none" stroke="black" stroke-width="1.03" d="M58.37,-193.2C102.96,-197.69 189.43,-206.39 232.81,-210.75"/>
<text xml:space="preserve" text-anchor="middle" x="145.82" y="-208.12" font-family="Times,serif" font-size="14.00">292</text>
</g>
<!-- mesh&#45;&#45;ncit -->
<g id="edge7" class="edge">
<title>mesh&#45;&#45;ncit</title>
<path fill="none" stroke="black" stroke-width="1.02" d="M166.6,-149.15C187.48,-163.67 220.11,-186.37 240.47,-200.53"/>
<text xml:space="preserve" text-anchor="middle" x="204.82" y="-184.57" font-family="Times,serif" font-size="14.00">202</text>
</g>
<!-- bto -->
<g id="node4" class="node">
<title>bto</title>
<ellipse fill="none" stroke="black" cx="259.95" cy="-58.38" rx="27" ry="18"/>
<text xml:space="preserve" text-anchor="middle" x="259.95" y="-53.33" font-family="Times,serif" font-size="14.00">bto</text>
</g>
<!-- mesh&#45;&#45;bto -->
<g id="edge3" class="edge">
<title>mesh&#45;&#45;bto</title>
<path fill="none" stroke="black" stroke-width="1.01" d="M158.13,-118.91C166.92,-107.19 180.04,-91.81 194.7,-81.88 206.59,-73.82 221.6,-68.13 234.11,-64.37"/>
<text xml:space="preserve" text-anchor="middle" x="204.82" y="-85.08" font-family="Times,serif" font-size="14.00">88</text>
</g>
<!-- cellosaurus -->
<g id="node5" class="node">
<title>cellosaurus</title>
<ellipse fill="none" stroke="black" cx="406.07" cy="-85.38" rx="52.38" ry="18"/>
<text xml:space="preserve" text-anchor="middle" x="406.07" y="-80.33" font-family="Times,serif" font-size="14.00">cellosaurus</text>
</g>
<!-- mesh&#45;&#45;cellosaurus -->
<g id="edge4" class="edge">
<title>mesh&#45;&#45;cellosaurus</title>
<path fill="none" stroke="black" d="M175.44,-129.84C220.09,-121.2 306.7,-104.43 359.86,-94.14"/>
<text xml:space="preserve" text-anchor="middle" x="259.95" y="-121.78" font-family="Times,serif" font-size="14.00">32</text>
</g>
<!-- clo -->
<g id="node6" class="node">
<title>clo</title>
<ellipse fill="none" stroke="black" cx="572.55" cy="-148.38" rx="27" ry="18"/>
<text xml:space="preserve" text-anchor="middle" x="572.55" y="-143.33" font-family="Times,serif" font-size="14.00">clo</text>
</g>
<!-- mesh&#45;&#45;clo -->
<g id="edge5" class="edge">
<title>mesh&#45;&#45;clo</title>
<path fill="none" stroke="black" stroke-width="1.01" d="M176.95,-137.44C182.83,-137.79 188.95,-138.13 194.7,-138.38 326.44,-144.26 484.27,-147.08 545.5,-148.02"/>
<text xml:space="preserve" text-anchor="middle" x="320.32" y="-146.59" font-family="Times,serif" font-size="14.00">76</text>
</g>
<!-- cl -->
<g id="node7" class="node">
<title>cl</title>
<ellipse fill="none" stroke="black" cx="406.07" cy="-18.38" rx="27" ry="18"/>
<text xml:space="preserve" text-anchor="middle" x="406.07" y="-13.33" font-family="Times,serif" font-size="14.00">cl</text>
</g>
<!-- mesh&#45;&#45;cl -->
<g id="edge6" class="edge">
<title>mesh&#45;&#45;cl</title>
<path fill="none" stroke="black" stroke-width="1.01" d="M153.23,-117.7C164.45,-89.78 190.54,-36.45 232.95,-14.88 280.76,9.44 346.15,-2.07 380.96,-11.12"/>
<text xml:space="preserve" text-anchor="middle" x="259.95" y="-18.08" font-family="Times,serif" font-size="14.00">87</text>
</g>
<!-- bto&#45;&#45;cellosaurus -->
<g id="edge8" class="edge">
<title>bto&#45;&#45;cellosaurus</title>
<path fill="none" stroke="black" stroke-width="1.21" d="M286.38,-63.15C306.58,-66.93 335.35,-72.32 359.51,-76.85"/>
<text xml:space="preserve" text-anchor="middle" x="320.32" y="-75.08" font-family="Times,serif" font-size="14.00">2,396</text>
</g>
<!-- bto&#45;&#45;cl -->
<g id="edge9" class="edge">
<title>bto&#45;&#45;cl</title>
<path fill="none" stroke="black" stroke-width="1.02" d="M285.39,-51.6C312.06,-44.2 354.46,-32.43 380.98,-25.07"/>
<text xml:space="preserve" text-anchor="middle" x="320.32" y="-48.64" font-family="Times,serif" font-size="14.00">269</text>
</g>
<!-- cellosaurus&#45;&#45;clo -->
<g id="edge10" class="edge">
<title>cellosaurus&#45;&#45;clo</title>
<path fill="none" stroke="black" stroke-width="4" d="M441.95,-98.74C474.2,-111.1 521.19,-129.1 548.84,-139.69"/>
<text xml:space="preserve" text-anchor="middle" x="495.2" y="-129.41" font-family="Times,serif" font-size="14.00">34,052</text>
</g>
<!-- ccle -->
<g id="node8" class="node">
<title>ccle</title>
<ellipse fill="none" stroke="black" cx="572.55" cy="-85.38" rx="27" ry="18"/>
<text xml:space="preserve" text-anchor="middle" x="572.55" y="-80.33" font-family="Times,serif" font-size="14.00">ccle</text>
</g>
<!-- cellosaurus&#45;&#45;ccle -->
<g id="edge11" class="edge">
<title>cellosaurus&#45;&#45;ccle</title>
<path fill="none" stroke="black" stroke-width="1.15" d="M458.66,-85.38C487.49,-85.38 522.18,-85.38 545.43,-85.38"/>
<text xml:space="preserve" text-anchor="middle" x="495.2" y="-88.58" font-family="Times,serif" font-size="14.00">1,677</text>
</g>
<!-- depmap -->
<g id="node9" class="node">
<title>depmap</title>
<ellipse fill="none" stroke="black" cx="572.55" cy="-31.38" rx="40.6" ry="18"/>
<text xml:space="preserve" text-anchor="middle" x="572.55" y="-26.33" font-family="Times,serif" font-size="14.00">depmap</text>
</g>
<!-- cellosaurus&#45;&#45;depmap -->
<g id="edge12" class="edge">
<title>cellosaurus&#45;&#45;depmap</title>
<path fill="none" stroke="black" stroke-width="1.17" d="M444.81,-72.99C473.35,-63.62 512.14,-50.89 539.26,-41.98"/>
<text xml:space="preserve" text-anchor="middle" x="495.2" y="-64.82" font-family="Times,serif" font-size="14.00">1,898</text>
</g>
</g>
</svg>
