<?xml version="1.0" encoding="UTF-8" standalone="no"?>
<!DOCTYPE svg PUBLIC "-//W3C//DTD SVG 1.1//EN"
 "http://www.w3.org/Graphics/SVG/1.1/DTD/svg11.dtd">
<!-- Generated by graphviz version 13.1.0 (20250701.0955)
 -->
<!-- Pages: 1 -->
<svg width="787pt" height="520pt"
 viewBox="0.00 0.00 787.00 520.00" xmlns="http://www.w3.org/2000/svg" xmlns:xlink="http://www.w3.org/1999/xlink">
<g id="graph0" class="graph" transform="scale(1 1) rotate(0) translate(4 515.5)">
<polygon fill="white" stroke="none" points="-4,4 -4,-515.5 783.44,-515.5 783.44,4 -4,4"/>
<!-- bto
6,566 -->
<g id="node1" class="node">
<title>bto
6,566</title>
<ellipse fill="none" stroke="black" cx="33.06" cy="-223" rx="33.06" ry="28.99"/>
<text xml:space="preserve" text-anchor="middle" x="33.06" y="-226.2" font-family="Times,serif" font-size="14.00">bto</text>
<text xml:space="preserve" text-anchor="middle" x="33.06" y="-209.7" font-family="Times,serif" font-size="14.00">6,566</text>
</g>
<!-- cl
3,095 -->
<g id="node2" class="node">
<title>cl
3,095</title>
<ellipse fill="none" stroke="black" cx="309.5" cy="-408" rx="33.06" ry="28.99"/>
<text xml:space="preserve" text-anchor="middle" x="309.5" y="-411.2" font-family="Times,serif" font-size="14.00">cl</text>
<text xml:space="preserve" text-anchor="middle" x="309.5" y="-394.7" font-family="Times,serif" font-size="14.00">3,095</text>
</g>
<!-- bto
6,566&#45;&#45;cl
3,095 -->
<g id="edge1" class="edge">
<title>bto
6,566&#45;&#45;cl
3,095</title>
<path fill="none" stroke="black" d="M36.46,-252.18C40.67,-283.78 52.26,-333.36 84.11,-361 138.68,-408.34 228.66,-412.18 276.41,-410.4"/>
<text xml:space="preserve" text-anchor="middle" x="155.42" y="-407.99" font-family="Times,serif" font-size="14.00">330</text>
</g>
<!-- ccle
1,739 -->
<g id="node3" class="node">
<title>ccle
1,739</title>
<ellipse fill="none" stroke="black" cx="155.42" cy="-175" rx="33.06" ry="28.99"/>
<text xml:space="preserve" text-anchor="middle" x="155.42" y="-178.2" font-family="Times,serif" font-size="14.00">ccle</text>
<text xml:space="preserve" text-anchor="middle" x="155.42" y="-161.7" font-family="Times,serif" font-size="14.00">1,739</text>
</g>
<!-- bto
6,566&#45;&#45;ccle
1,739 -->
<g id="edge2" class="edge">
<title>bto
6,566&#45;&#45;ccle
1,739</title>
<path fill="none" stroke="black" d="M63.5,-211.26C82.15,-203.82 106.19,-194.23 124.86,-186.79"/>
<text xml:space="preserve" text-anchor="middle" x="94.24" y="-205.07" font-family="Times,serif" font-size="14.00">648</text>
</g>
<!-- cellosaurus
163,868 -->
<g id="node4" class="node">
<title>cellosaurus
163,868</title>
<ellipse fill="none" stroke="black" cx="309.5" cy="-240" rx="54.27" ry="28.99"/>
<text xml:space="preserve" text-anchor="middle" x="309.5" y="-243.2" font-family="Times,serif" font-size="14.00">cellosaurus</text>
<text xml:space="preserve" text-anchor="middle" x="309.5" y="-226.7" font-family="Times,serif" font-size="14.00">163,868</text>
</g>
<!-- bto
6,566&#45;&#45;cellosaurus
163,868 -->
<g id="edge3" class="edge">
<title>bto
6,566&#45;&#45;cellosaurus
163,868</title>
<path fill="none" stroke="black" d="M66.35,-225C112.82,-227.88 199.13,-233.23 255.16,-236.7"/>
<text xml:space="preserve" text-anchor="middle" x="155.42" y="-235.55" font-family="Times,serif" font-size="14.00">2,436</text>
</g>
<!-- depmap
1,814 -->
<g id="node5" class="node">
<title>depmap
1,814</title>
<ellipse fill="none" stroke="black" cx="472.59" cy="-175" rx="42.07" ry="28.99"/>
<text xml:space="preserve" text-anchor="middle" x="472.59" y="-178.2" font-family="Times,serif" font-size="14.00">depmap</text>
<text xml:space="preserve" text-anchor="middle" x="472.59" y="-161.7" font-family="Times,serif" font-size="14.00">1,814</text>
</g>
<!-- bto
6,566&#45;&#45;depmap
1,814 -->
<g id="edge4" class="edge">
<title>bto
6,566&#45;&#45;depmap
1,814</title>
<path fill="none" stroke="black" d="M51.3,-198.67C67.22,-178.35 92.8,-150.58 122.36,-137 239.73,-83.1 292.12,-74.26 412.52,-121 427.55,-126.83 441.08,-138.47 451.4,-149.45"/>
<text xml:space="preserve" text-anchor="middle" x="221.85" y="-106.01" font-family="Times,serif" font-size="14.00">668</text>
</g>
<!-- mesh
636 -->
<g id="node6" class="node">
<title>mesh
636</title>
<ellipse fill="none" stroke="black" cx="472.59" cy="-347" rx="32" ry="28.99"/>
<text xml:space="preserve" text-anchor="middle" x="472.59" y="-350.2" font-family="Times,serif" font-size="14.00">mesh</text>
<text xml:space="preserve" text-anchor="middle" x="472.59" y="-333.7" font-family="Times,serif" font-size="14.00">636</text>
</g>
<!-- bto
6,566&#45;&#45;mesh
636 -->
<g id="edge5" class="edge">
<title>bto
6,566&#45;&#45;mesh
636</title>
<path fill="none" stroke="black" d="M63.88,-233.98C123.5,-255.57 261.98,-303.88 381.77,-332 401.16,-336.55 423.23,-340.26 440.63,-342.85"/>
<text xml:space="preserve" text-anchor="middle" x="221.85" y="-295.34" font-family="Times,serif" font-size="14.00">91</text>
</g>
<!-- clo
39,099 -->
<g id="node7" class="node">
<title>clo
39,099</title>
<ellipse fill="none" stroke="black" cx="619.25" cy="-197" rx="37.83" ry="28.99"/>
<text xml:space="preserve" text-anchor="middle" x="619.25" y="-200.2" font-family="Times,serif" font-size="14.00">clo</text>
<text xml:space="preserve" text-anchor="middle" x="619.25" y="-183.7" font-family="Times,serif" font-size="14.00">39,099</text>
</g>
<!-- bto
6,566&#45;&#45;clo
39,099 -->
<g id="edge6" class="edge">
<title>bto
6,566&#45;&#45;clo
39,099</title>
<path fill="none" stroke="black" d="M39.76,-194.17C51.54,-144.01 83.63,-46 154.42,-46 154.42,-46 154.42,-46 473.59,-46 541.12,-46 586.88,-125.71 606.86,-169.3"/>
<text xml:space="preserve" text-anchor="middle" x="309.5" y="-49.2" font-family="Times,serif" font-size="14.00">1,437</text>
</g>
<!-- ncit
503 -->
<g id="node8" class="node">
<title>ncit
503</title>
<ellipse fill="none" stroke="black" cx="619.25" cy="-400" rx="27" ry="28.99"/>
<text xml:space="preserve" text-anchor="middle" x="619.25" y="-403.2" font-family="Times,serif" font-size="14.00">ncit</text>
<text xml:space="preserve" text-anchor="middle" x="619.25" y="-386.7" font-family="Times,serif" font-size="14.00">503</text>
</g>
<!-- bto
6,566&#45;&#45;ncit
503 -->
<g id="edge7" class="edge">
<title>bto
6,566&#45;&#45;ncit
503</title>
<path fill="none" stroke="black" d="M33.9,-252.37C35.23,-322.7 49.21,-495 154.42,-495 154.42,-495 154.42,-495 473.59,-495 514,-495 529.3,-502.64 563.42,-481 583.78,-468.09 598.42,-444.58 607.43,-426.2"/>
<text xml:space="preserve" text-anchor="middle" x="309.5" y="-498.2" font-family="Times,serif" font-size="14.00">58</text>
</g>
<!-- umls
6,341 -->
<g id="node9" class="node">
<title>umls
6,341</title>
<ellipse fill="none" stroke="black" cx="746.38" cy="-306" rx="33.06" ry="28.99"/>
<text xml:space="preserve" text-anchor="middle" x="746.38" y="-309.2" font-family="Times,serif" font-size="14.00">umls</text>
<text xml:space="preserve" text-anchor="middle" x="746.38" y="-292.7" font-family="Times,serif" font-size="14.00">6,341</text>
</g>
<!-- bto
6,566&#45;&#45;umls
6,341 -->
<g id="edge8" class="edge">
<title>bto
6,566&#45;&#45;umls
6,341</title>
<path fill="none" stroke="black" d="M36.38,-193.85C42.95,-133.4 67.31,0 154.42,0 154.42,0 154.42,0 620.25,0 679.79,0 725.02,-201.04 740.02,-277.21"/>
<text xml:space="preserve" text-anchor="middle" x="397.14" y="-3.2" font-family="Times,serif" font-size="14.00">117</text>
</g>
<!-- cl
3,095&#45;&#45;mesh
636 -->
<g id="edge9" class="edge">
<title>cl
3,095&#45;&#45;mesh
636</title>
<path fill="none" stroke="black" d="M340.42,-396.67C369.63,-385.61 413.77,-368.89 442.64,-357.96"/>
<text xml:space="preserve" text-anchor="middle" x="397.14" y="-382.53" font-family="Times,serif" font-size="14.00">88</text>
</g>
<!-- cl
3,095&#45;&#45;ncit
503 -->
<g id="edge10" class="edge">
<title>cl
3,095&#45;&#45;ncit
503</title>
<path fill="none" stroke="black" d="M342.85,-407.16C404.12,-405.57 535.95,-402.14 592.08,-400.68"/>
<text xml:space="preserve" text-anchor="middle" x="472.59" y="-408" font-family="Times,serif" font-size="14.00">76</text>
</g>
<!-- cl
3,095&#45;&#45;umls
6,341 -->
<g id="edge11" class="edge">
<title>cl
3,095&#45;&#45;umls
6,341</title>
<path fill="none" stroke="black" d="M339.85,-420.42C402.15,-444.75 550.64,-491.84 657.08,-438 698.78,-416.91 723.97,-365.88 736.23,-333.8"/>
<text xml:space="preserve" text-anchor="middle" x="548.04" y="-465.98" font-family="Times,serif" font-size="14.00">115</text>
</g>
<!-- ccle
1,739&#45;&#45;cellosaurus
163,868 -->
<g id="edge12" class="edge">
<title>ccle
1,739&#45;&#45;cellosaurus
163,868</title>
<path fill="none" stroke="black" d="M185.6,-187.45C200.96,-194.01 220.12,-202.19 237.23,-209.5 246.63,-213.52 256.74,-217.84 266.29,-221.93"/>
<text xml:space="preserve" text-anchor="middle" x="221.85" y="-212.7" font-family="Times,serif" font-size="14.00">1,699</text>
</g>
<!-- ccle
1,739&#45;&#45;depmap
1,814 -->
<g id="edge13" class="edge">
<title>ccle
1,739&#45;&#45;depmap
1,814</title>
<path fill="none" stroke="black" d="M188.96,-175C246.61,-175 366.54,-175 430.06,-175"/>
<text xml:space="preserve" text-anchor="middle" x="309.5" y="-178.2" font-family="Times,serif" font-size="14.00">1,700</text>
</g>
<!-- ccle
1,739&#45;&#45;clo
39,099 -->
<g id="edge14" class="edge">
<title>ccle
1,739&#45;&#45;clo
39,099</title>
<path fill="none" stroke="black" d="M186.72,-164.47C249.18,-144.36 396.28,-105.19 514.67,-137 543.16,-144.66 571.92,-162.28 591.87,-176.46"/>
<text xml:space="preserve" text-anchor="middle" x="397.14" y="-129.06" font-family="Times,serif" font-size="14.00">1,417</text>
</g>
<!-- cellosaurus
163,868&#45;&#45;depmap
1,814 -->
<g id="edge15" class="edge">
<title>cellosaurus
163,868&#45;&#45;depmap
1,814</title>
<path fill="none" stroke="black" d="M352.22,-221.83C361.89,-217.71 372.17,-213.4 381.77,-209.5 399.26,-202.4 418.81,-194.85 435.2,-188.62"/>
<text xml:space="preserve" text-anchor="middle" x="397.14" y="-212.7" font-family="Times,serif" font-size="14.00">1,913</text>
</g>
<!-- cellosaurus
163,868&#45;&#45;mesh
636 -->
<g id="edge16" class="edge">
<title>cellosaurus
163,868&#45;&#45;mesh
636</title>
<path fill="none" stroke="black" d="M341.25,-263.89C353.64,-273.25 368.19,-283.9 381.77,-293 402.48,-306.88 426.75,-321.37 444.83,-331.84"/>
<text xml:space="preserve" text-anchor="middle" x="397.14" y="-314.82" font-family="Times,serif" font-size="14.00">33</text>
</g>
<!-- cellosaurus
163,868&#45;&#45;clo
39,099 -->
<g id="edge17" class="edge">
<title>cellosaurus
163,868&#45;&#45;clo
39,099</title>
<path fill="none" stroke="black" d="M363.02,-235.01C414.32,-229.79 494.51,-220.74 563.42,-209 569.66,-207.94 576.27,-206.64 582.65,-205.3"/>
<text xml:space="preserve" text-anchor="middle" x="472.59" y="-230.47" font-family="Times,serif" font-size="14.00">34,153</text>
</g>
<!-- cellosaurus
163,868&#45;&#45;umls
6,341 -->
<g id="edge18" class="edge">
<title>cellosaurus
163,868&#45;&#45;umls
6,341</title>
<path fill="none" stroke="black" d="M362.93,-245.9C414.16,-251.86 494.31,-261.71 563.42,-272.5 616.42,-280.78 677.71,-292.51 713.91,-299.67"/>
<text xml:space="preserve" text-anchor="middle" x="548.04" y="-275.7" font-family="Times,serif" font-size="14.00">36</text>
</g>
<!-- depmap
1,814&#45;&#45;clo
39,099 -->
<g id="edge19" class="edge">
<title>depmap
1,814&#45;&#45;clo
39,099</title>
<path fill="none" stroke="black" d="M513.89,-181.13C535.12,-184.36 560.97,-188.29 581.63,-191.43"/>
<text xml:space="preserve" text-anchor="middle" x="548.04" y="-191.82" font-family="Times,serif" font-size="14.00">1,473</text>
</g>
<!-- mesh
636&#45;&#45;clo
39,099 -->
<g id="edge20" class="edge">
<title>mesh
636&#45;&#45;clo
39,099</title>
<path fill="none" stroke="black" d="M500.79,-332.64C523.5,-320.3 553.68,-302.95 563.42,-293 582.74,-273.24 597.67,-245.33 607.04,-224.7"/>
<text xml:space="preserve" text-anchor="middle" x="548.04" y="-316.64" font-family="Times,serif" font-size="14.00">80</text>
</g>
<!-- mesh
636&#45;&#45;ncit
503 -->
<g id="edge21" class="edge">
<title>mesh
636&#45;&#45;ncit
503</title>
<path fill="none" stroke="black" d="M502.52,-357.6C529.07,-367.33 567.99,-381.59 593.23,-390.83"/>
<text xml:space="preserve" text-anchor="middle" x="548.04" y="-383.01" font-family="Times,serif" font-size="14.00">202</text>
</g>
<!-- mesh
636&#45;&#45;umls
6,341 -->
<g id="edge22" class="edge">
<title>mesh
636&#45;&#45;umls
6,341</title>
<path fill="none" stroke="black" d="M504.51,-342.34C556.54,-334.49 661.08,-318.72 713.66,-310.79"/>
<text xml:space="preserve" text-anchor="middle" x="619.25" y="-333.78" font-family="Times,serif" font-size="14.00">433</text>
</g>
<!-- clo
39,099&#45;&#45;umls
6,341 -->
<g id="edge23" class="edge">
<title>clo
39,099&#45;&#45;umls
6,341</title>
<path fill="none" stroke="black" d="M651.04,-213.42C665.27,-221.76 681.94,-232.62 695.33,-244.5 707.58,-255.37 719.26,-269.43 728.25,-281.36"/>
<text xml:space="preserve" text-anchor="middle" x="685.2" y="-247.7" font-family="Times,serif" font-size="14.00">80</text>
</g>
<!-- ncit
503&#45;&#45;umls
6,341 -->
<g id="edge24" class="edge">
<title>ncit
503&#45;&#45;umls
6,341</title>
<path fill="none" stroke="black" d="M643.21,-386.3C658.4,-376.92 678.54,-363.9 695.33,-351 704.96,-343.59 715.03,-334.78 723.59,-326.92"/>
<text xml:space="preserve" text-anchor="middle" x="685.2" y="-368.62" font-family="Times,serif" font-size="14.00">503</text>
</g>
</g>
</svg>
