<?xml version="1.0" encoding="utf-8" standalone="no"?>
<!DOCTYPE svg PUBLIC "-//W3C//DTD SVG 1.1//EN"
  "http://www.w3.org/Graphics/SVG/1.1/DTD/svg11.dtd">
<svg xmlns:xlink="http://www.w3.org/1999/xlink" width="351.36pt" height="288pt" viewBox="0 0 351.36 288" xmlns="http://www.w3.org/2000/svg" version="1.1">
 <metadata>
  <rdf:RDF xmlns:dc="http://purl.org/dc/elements/1.1/" xmlns:cc="http://creativecommons.org/ns#" xmlns:rdf="http://www.w3.org/1999/02/22-rdf-syntax-ns#">
   <cc:Work>
    <dc:type rdf:resource="http://purl.org/dc/dcmitype/StillImage"/>
    <dc:date>2025-06-29T17:33:20.650862</dc:date>
    <dc:format>image/svg+xml</dc:format>
    <dc:creator>
     <cc:Agent>
      <dc:title>Matplotlib v3.10.0, https://matplotlib.org/</dc:title>
     </cc:Agent>
    </dc:creator>
   </cc:Work>
  </rdf:RDF>
 </metadata>
 <defs>
  <style type="text/css">*{stroke-linejoin: round; stroke-linecap: butt}</style>
 </defs>
 <g id="figure_1">
  <g id="patch_1">
   <path d="M 0 288 
L 351.36 288 
L 351.36 0 
L 0 0 
z
" style="fill: #ffffff"/>
  </g>
  <g id="axes_1">
   <g id="patch_2">
    <path d="M 43.92 253.355294 
L 316.224 253.355294 
L 316.224 236.414118 
L 43.92 236.414118 
z
" clip-path="url(#pabfd410837)" style="fill-opacity: 0.05098"/>
   </g>
   <g id="patch_3">
    <path d="M 43.92 232.178824 
L 316.224 232.178824 
L 316.224 215.237647 
L 43.92 215.237647 
L 43.92 232.178824 
z
" clip-path="url(#pabfd410837)" style="fill: none"/>
   </g>
   <g id="patch_4">
    <path d="M 43.92 211.002353 
L 316.224 211.002353 
L 316.224 194.061176 
L 43.92 194.061176 
z
" clip-path="url(#pabfd410837)" style="fill-opacity: 0.05098"/>
   </g>
   <g id="matplotlib.axis_1"/>
   <g id="matplotlib.axis_2">
    <g id="ytick_1"/>
    <g id="ytick_2"/>
    <g id="ytick_3"/>
   </g>
  </g>
  <g id="axes_2">
   <g id="matplotlib.axis_3">
    <g id="ytick_4">
     <g id="line2d_1"/>
     <g id="text_1">
      <!-- taxrank -->
      <g transform="translate(152.900148 248.683925) scale(0.1 -0.1)">
       <defs>
        <path id="DejaVuSans-74" d="M 1172 4494 
L 1172 3500 
L 2356 3500 
L 2356 3053 
L 1172 3053 
L 1172 1153 
Q 1172 725 1289 603 
Q 1406 481 1766 481 
L 2356 481 
L 2356 0 
L 1766 0 
Q 1100 0 847 248 
Q 594 497 594 1153 
L 594 3053 
L 172 3053 
L 172 3500 
L 594 3500 
L 594 4494 
L 1172 4494 
z
" transform="scale(0.015625)"/>
        <path id="DejaVuSans-61" d="M 2194 1759 
Q 1497 1759 1228 1600 
Q 959 1441 959 1056 
Q 959 750 1161 570 
Q 1363 391 1709 391 
Q 2188 391 2477 730 
Q 2766 1069 2766 1631 
L 2766 1759 
L 2194 1759 
z
M 3341 1997 
L 3341 0 
L 2766 0 
L 2766 531 
Q 2569 213 2275 61 
Q 1981 -91 1556 -91 
Q 1019 -91 701 211 
Q 384 513 384 1019 
Q 384 1609 779 1909 
Q 1175 2209 1959 2209 
L 2766 2209 
L 2766 2266 
Q 2766 2663 2505 2880 
Q 2244 3097 1772 3097 
Q 1472 3097 1187 3025 
Q 903 2953 641 2809 
L 641 3341 
Q 956 3463 1253 3523 
Q 1550 3584 1831 3584 
Q 2591 3584 2966 3190 
Q 3341 2797 3341 1997 
z
" transform="scale(0.015625)"/>
        <path id="DejaVuSans-78" d="M 3513 3500 
L 2247 1797 
L 3578 0 
L 2900 0 
L 1881 1375 
L 863 0 
L 184 0 
L 1544 1831 
L 300 3500 
L 978 3500 
L 1906 2253 
L 2834 3500 
L 3513 3500 
z
" transform="scale(0.015625)"/>
        <path id="DejaVuSans-72" d="M 2631 2963 
Q 2534 3019 2420 3045 
Q 2306 3072 2169 3072 
Q 1681 3072 1420 2755 
Q 1159 2438 1159 1844 
L 1159 0 
L 581 0 
L 581 3500 
L 1159 3500 
L 1159 2956 
Q 1341 3275 1631 3429 
Q 1922 3584 2338 3584 
Q 2397 3584 2469 3576 
Q 2541 3569 2628 3553 
L 2631 2963 
z
" transform="scale(0.015625)"/>
        <path id="DejaVuSans-6e" d="M 3513 2113 
L 3513 0 
L 2938 0 
L 2938 2094 
Q 2938 2591 2744 2837 
Q 2550 3084 2163 3084 
Q 1697 3084 1428 2787 
Q 1159 2491 1159 1978 
L 1159 0 
L 581 0 
L 581 3500 
L 1159 3500 
L 1159 2956 
Q 1366 3272 1645 3428 
Q 1925 3584 2291 3584 
Q 2894 3584 3203 3211 
Q 3513 2838 3513 2113 
z
" transform="scale(0.015625)"/>
        <path id="DejaVuSans-6b" d="M 581 4863 
L 1159 4863 
L 1159 1991 
L 2875 3500 
L 3609 3500 
L 1753 1863 
L 3688 0 
L 2938 0 
L 1159 1709 
L 1159 0 
L 581 0 
L 581 4863 
z
" transform="scale(0.015625)"/>
       </defs>
       <use xlink:href="#DejaVuSans-74"/>
       <use xlink:href="#DejaVuSans-61" transform="translate(39.208984 0)"/>
       <use xlink:href="#DejaVuSans-78" transform="translate(100.488281 0)"/>
       <use xlink:href="#DejaVuSans-72" transform="translate(159.667969 0)"/>
       <use xlink:href="#DejaVuSans-61" transform="translate(200.78125 0)"/>
       <use xlink:href="#DejaVuSans-6e" transform="translate(262.060547 0)"/>
       <use xlink:href="#DejaVuSans-6b" transform="translate(325.439453 0)"/>
      </g>
     </g>
    </g>
    <g id="ytick_5">
     <g id="line2d_2"/>
     <g id="text_2">
      <!-- tdwg.taxonrank -->
      <g transform="translate(112.782961 227.507454) scale(0.1 -0.1)">
       <defs>
        <path id="DejaVuSans-64" d="M 2906 2969 
L 2906 4863 
L 3481 4863 
L 3481 0 
L 2906 0 
L 2906 525 
Q 2725 213 2448 61 
Q 2172 -91 1784 -91 
Q 1150 -91 751 415 
Q 353 922 353 1747 
Q 353 2572 751 3078 
Q 1150 3584 1784 3584 
Q 2172 3584 2448 3432 
Q 2725 3281 2906 2969 
z
M 947 1747 
Q 947 1113 1208 752 
Q 1469 391 1925 391 
Q 2381 391 2643 752 
Q 2906 1113 2906 1747 
Q 2906 2381 2643 2742 
Q 2381 3103 1925 3103 
Q 1469 3103 1208 2742 
Q 947 2381 947 1747 
z
" transform="scale(0.015625)"/>
        <path id="DejaVuSans-77" d="M 269 3500 
L 844 3500 
L 1563 769 
L 2278 3500 
L 2956 3500 
L 3675 769 
L 4391 3500 
L 4966 3500 
L 4050 0 
L 3372 0 
L 2619 2869 
L 1863 0 
L 1184 0 
L 269 3500 
z
" transform="scale(0.015625)"/>
        <path id="DejaVuSans-67" d="M 2906 1791 
Q 2906 2416 2648 2759 
Q 2391 3103 1925 3103 
Q 1463 3103 1205 2759 
Q 947 2416 947 1791 
Q 947 1169 1205 825 
Q 1463 481 1925 481 
Q 2391 481 2648 825 
Q 2906 1169 2906 1791 
z
M 3481 434 
Q 3481 -459 3084 -895 
Q 2688 -1331 1869 -1331 
Q 1566 -1331 1297 -1286 
Q 1028 -1241 775 -1147 
L 775 -588 
Q 1028 -725 1275 -790 
Q 1522 -856 1778 -856 
Q 2344 -856 2625 -561 
Q 2906 -266 2906 331 
L 2906 616 
Q 2728 306 2450 153 
Q 2172 0 1784 0 
Q 1141 0 747 490 
Q 353 981 353 1791 
Q 353 2603 747 3093 
Q 1141 3584 1784 3584 
Q 2172 3584 2450 3431 
Q 2728 3278 2906 2969 
L 2906 3500 
L 3481 3500 
L 3481 434 
z
" transform="scale(0.015625)"/>
        <path id="DejaVuSans-2e" d="M 684 794 
L 1344 794 
L 1344 0 
L 684 0 
L 684 794 
z
" transform="scale(0.015625)"/>
        <path id="DejaVuSans-6f" d="M 1959 3097 
Q 1497 3097 1228 2736 
Q 959 2375 959 1747 
Q 959 1119 1226 758 
Q 1494 397 1959 397 
Q 2419 397 2687 759 
Q 2956 1122 2956 1747 
Q 2956 2369 2687 2733 
Q 2419 3097 1959 3097 
z
M 1959 3584 
Q 2709 3584 3137 3096 
Q 3566 2609 3566 1747 
Q 3566 888 3137 398 
Q 2709 -91 1959 -91 
Q 1206 -91 779 398 
Q 353 888 353 1747 
Q 353 2609 779 3096 
Q 1206 3584 1959 3584 
z
" transform="scale(0.015625)"/>
       </defs>
       <use xlink:href="#DejaVuSans-74"/>
       <use xlink:href="#DejaVuSans-64" transform="translate(39.208984 0)"/>
       <use xlink:href="#DejaVuSans-77" transform="translate(102.685547 0)"/>
       <use xlink:href="#DejaVuSans-67" transform="translate(184.472656 0)"/>
       <use xlink:href="#DejaVuSans-2e" transform="translate(247.949219 0)"/>
       <use xlink:href="#DejaVuSans-74" transform="translate(279.736328 0)"/>
       <use xlink:href="#DejaVuSans-61" transform="translate(318.945312 0)"/>
       <use xlink:href="#DejaVuSans-78" transform="translate(380.224609 0)"/>
       <use xlink:href="#DejaVuSans-6f" transform="translate(436.279297 0)"/>
       <use xlink:href="#DejaVuSans-6e" transform="translate(497.460938 0)"/>
       <use xlink:href="#DejaVuSans-72" transform="translate(560.839844 0)"/>
       <use xlink:href="#DejaVuSans-61" transform="translate(601.953125 0)"/>
       <use xlink:href="#DejaVuSans-6e" transform="translate(663.232422 0)"/>
       <use xlink:href="#DejaVuSans-6b" transform="translate(726.611328 0)"/>
      </g>
     </g>
    </g>
    <g id="ytick_6">
     <g id="line2d_3"/>
     <g id="text_3">
      <!-- ncbitaxon -->
      <g transform="translate(142.161086 206.330983) scale(0.1 -0.1)">
       <defs>
        <path id="DejaVuSans-63" d="M 3122 3366 
L 3122 2828 
Q 2878 2963 2633 3030 
Q 2388 3097 2138 3097 
Q 1578 3097 1268 2742 
Q 959 2388 959 1747 
Q 959 1106 1268 751 
Q 1578 397 2138 397 
Q 2388 397 2633 464 
Q 2878 531 3122 666 
L 3122 134 
Q 2881 22 2623 -34 
Q 2366 -91 2075 -91 
Q 1284 -91 818 406 
Q 353 903 353 1747 
Q 353 2603 823 3093 
Q 1294 3584 2113 3584 
Q 2378 3584 2631 3529 
Q 2884 3475 3122 3366 
z
" transform="scale(0.015625)"/>
        <path id="DejaVuSans-62" d="M 3116 1747 
Q 3116 2381 2855 2742 
Q 2594 3103 2138 3103 
Q 1681 3103 1420 2742 
Q 1159 2381 1159 1747 
Q 1159 1113 1420 752 
Q 1681 391 2138 391 
Q 2594 391 2855 752 
Q 3116 1113 3116 1747 
z
M 1159 2969 
Q 1341 3281 1617 3432 
Q 1894 3584 2278 3584 
Q 2916 3584 3314 3078 
Q 3713 2572 3713 1747 
Q 3713 922 3314 415 
Q 2916 -91 2278 -91 
Q 1894 -91 1617 61 
Q 1341 213 1159 525 
L 1159 0 
L 581 0 
L 581 4863 
L 1159 4863 
L 1159 2969 
z
" transform="scale(0.015625)"/>
        <path id="DejaVuSans-69" d="M 603 3500 
L 1178 3500 
L 1178 0 
L 603 0 
L 603 3500 
z
M 603 4863 
L 1178 4863 
L 1178 4134 
L 603 4134 
L 603 4863 
z
" transform="scale(0.015625)"/>
       </defs>
       <use xlink:href="#DejaVuSans-6e"/>
       <use xlink:href="#DejaVuSans-63" transform="translate(63.378906 0)"/>
       <use xlink:href="#DejaVuSans-62" transform="translate(118.359375 0)"/>
       <use xlink:href="#DejaVuSans-69" transform="translate(181.835938 0)"/>
       <use xlink:href="#DejaVuSans-74" transform="translate(209.619141 0)"/>
       <use xlink:href="#DejaVuSans-61" transform="translate(248.828125 0)"/>
       <use xlink:href="#DejaVuSans-78" transform="translate(310.107422 0)"/>
       <use xlink:href="#DejaVuSans-6f" transform="translate(366.162109 0)"/>
       <use xlink:href="#DejaVuSans-6e" transform="translate(427.34375 0)"/>
      </g>
     </g>
    </g>
   </g>
   <g id="LineCollection_1">
    <path d="M 206.883471 244.884706 
L 206.883471 244.884706 
" clip-path="url(#p12209acc72)" style="fill: none; stroke: #000000; stroke-width: 2"/>
    <path d="M 231.181366 202.531765 
L 231.181366 202.531765 
" clip-path="url(#p12209acc72)" style="fill: none; stroke: #000000; stroke-width: 2"/>
    <path d="M 255.479262 244.884706 
L 255.479262 223.708235 
" clip-path="url(#p12209acc72)" style="fill: none; stroke: #000000; stroke-width: 2"/>
    <path d="M 279.777157 244.884706 
L 279.777157 202.531765 
" clip-path="url(#p12209acc72)" style="fill: none; stroke: #000000; stroke-width: 2"/>
    <path d="M 304.075052 244.884706 
L 304.075052 202.531765 
" clip-path="url(#p12209acc72)" style="fill: none; stroke: #000000; stroke-width: 2"/>
   </g>
   <g id="PathCollection_1">
    <defs>
     <path id="C0_0_8c3dfe2862" d="M 0 5.6 
C 1.485137 5.6 2.909647 5.009949 3.959798 3.959798 
C 5.009949 2.909647 5.6 1.485137 5.6 -0 
C 5.6 -1.485137 5.009949 -2.909647 3.959798 -3.959798 
C 2.909647 -5.009949 1.485137 -5.6 0 -5.6 
C -1.485137 -5.6 -2.909647 -5.009949 -3.959798 -3.959798 
C -5.009949 -2.909647 -5.6 -1.485137 -5.6 0 
C -5.6 1.485137 -5.009949 2.909647 -3.959798 3.959798 
C -2.909647 5.009949 -1.485137 5.6 0 5.6 
z
"/>
    </defs>
    <g clip-path="url(#p12209acc72)">
     <use xlink:href="#C0_0_8c3dfe2862" x="206.883471" y="244.884706" style="stroke: #000000"/>
    </g>
    <g clip-path="url(#p12209acc72)">
     <use xlink:href="#C0_0_8c3dfe2862" x="206.883471" y="223.708235" style="fill-opacity: 0.180392"/>
    </g>
    <g clip-path="url(#p12209acc72)">
     <use xlink:href="#C0_0_8c3dfe2862" x="206.883471" y="202.531765" style="fill-opacity: 0.180392"/>
    </g>
    <g clip-path="url(#p12209acc72)">
     <use xlink:href="#C0_0_8c3dfe2862" x="231.181366" y="244.884706" style="fill-opacity: 0.180392"/>
    </g>
    <g clip-path="url(#p12209acc72)">
     <use xlink:href="#C0_0_8c3dfe2862" x="231.181366" y="223.708235" style="fill-opacity: 0.180392"/>
    </g>
    <g clip-path="url(#p12209acc72)">
     <use xlink:href="#C0_0_8c3dfe2862" x="231.181366" y="202.531765" style="stroke: #000000"/>
    </g>
    <g clip-path="url(#p12209acc72)">
     <use xlink:href="#C0_0_8c3dfe2862" x="255.479262" y="244.884706" style="stroke: #000000"/>
    </g>
    <g clip-path="url(#p12209acc72)">
     <use xlink:href="#C0_0_8c3dfe2862" x="255.479262" y="223.708235" style="stroke: #000000"/>
    </g>
    <g clip-path="url(#p12209acc72)">
     <use xlink:href="#C0_0_8c3dfe2862" x="255.479262" y="202.531765" style="fill-opacity: 0.180392"/>
    </g>
    <g clip-path="url(#p12209acc72)">
     <use xlink:href="#C0_0_8c3dfe2862" x="279.777157" y="244.884706" style="stroke: #000000"/>
    </g>
    <g clip-path="url(#p12209acc72)">
     <use xlink:href="#C0_0_8c3dfe2862" x="279.777157" y="223.708235" style="fill-opacity: 0.180392"/>
    </g>
    <g clip-path="url(#p12209acc72)">
     <use xlink:href="#C0_0_8c3dfe2862" x="279.777157" y="202.531765" style="stroke: #000000"/>
    </g>
    <g clip-path="url(#p12209acc72)">
     <use xlink:href="#C0_0_8c3dfe2862" x="304.075052" y="244.884706" style="stroke: #000000"/>
    </g>
    <g clip-path="url(#p12209acc72)">
     <use xlink:href="#C0_0_8c3dfe2862" x="304.075052" y="223.708235" style="stroke: #000000"/>
    </g>
    <g clip-path="url(#p12209acc72)">
     <use xlink:href="#C0_0_8c3dfe2862" x="304.075052" y="202.531765" style="stroke: #000000"/>
    </g>
   </g>
  </g>
  <g id="axes_3">
   <g id="patch_5">
    <path d="M 24743.026716 250.178824 
L 43.92 250.178824 
L 43.92 239.590588 
L 24743.026716 239.590588 
z
" clip-path="url(#p950d633beb)" style="stroke: #000000; stroke-linejoin: miter"/>
   </g>
   <g id="patch_6">
    <path d="M 24743.026716 229.002353 
L 47.4936 229.002353 
L 47.4936 218.414118 
L 24743.026716 218.414118 
z
" clip-path="url(#p950d633beb)" style="stroke: #000000; stroke-linejoin: miter"/>
   </g>
   <g id="patch_7">
    <path d="M 24743.026716 207.825882 
L 49.486136 207.825882 
L 49.486136 197.237647 
L 24743.026716 197.237647 
z
" clip-path="url(#p950d633beb)" style="stroke: #000000; stroke-linejoin: miter"/>
   </g>
   <g id="matplotlib.axis_4">
    <g id="xtick_1">
     <g id="line2d_4">
      <path d="M 90.002215 256.32 
L 90.002215 191.096471 
" clip-path="url(#p950d633beb)" style="fill: none; stroke: #b0b0b0; stroke-width: 0.8; stroke-linecap: square"/>
     </g>
     <g id="line2d_5">
      <defs>
       <path id="m1850ad194a" d="M 0 0 
L 0 3.5 
" style="stroke: #000000; stroke-width: 0.8"/>
      </defs>
      <g>
       <use xlink:href="#m1850ad194a" x="90.002215" y="256.32" style="stroke: #000000; stroke-width: 0.8"/>
      </g>
     </g>
     <g id="text_4">
      <!-- $\mathdefault{10^{0}}$ -->
      <g transform="translate(81.202215 270.918437) scale(0.1 -0.1)">
       <defs>
        <path id="DejaVuSans-31" d="M 794 531 
L 1825 531 
L 1825 4091 
L 703 3866 
L 703 4441 
L 1819 4666 
L 2450 4666 
L 2450 531 
L 3481 531 
L 3481 0 
L 794 0 
L 794 531 
z
" transform="scale(0.015625)"/>
        <path id="DejaVuSans-30" d="M 2034 4250 
Q 1547 4250 1301 3770 
Q 1056 3291 1056 2328 
Q 1056 1369 1301 889 
Q 1547 409 2034 409 
Q 2525 409 2770 889 
Q 3016 1369 3016 2328 
Q 3016 3291 2770 3770 
Q 2525 4250 2034 4250 
z
M 2034 4750 
Q 2819 4750 3233 4129 
Q 3647 3509 3647 2328 
Q 3647 1150 3233 529 
Q 2819 -91 2034 -91 
Q 1250 -91 836 529 
Q 422 1150 422 2328 
Q 422 3509 836 4129 
Q 1250 4750 2034 4750 
z
" transform="scale(0.015625)"/>
       </defs>
       <use xlink:href="#DejaVuSans-31" transform="translate(0 0.765625)"/>
       <use xlink:href="#DejaVuSans-30" transform="translate(63.623047 0.765625)"/>
       <use xlink:href="#DejaVuSans-30" transform="translate(128.203125 39.046875) scale(0.7)"/>
      </g>
     </g>
    </g>
    <g id="xtick_2">
     <g id="line2d_6">
      <path d="M 65.349191 256.32 
L 65.349191 191.096471 
" clip-path="url(#p950d633beb)" style="fill: none; stroke: #b0b0b0; stroke-width: 0.8; stroke-linecap: square"/>
     </g>
     <g id="line2d_7">
      <g>
       <use xlink:href="#m1850ad194a" x="65.349191" y="256.32" style="stroke: #000000; stroke-width: 0.8"/>
      </g>
     </g>
     <g id="text_5">
      <!-- $\mathdefault{10^{1}}$ -->
      <g transform="translate(56.549191 270.918437) scale(0.1 -0.1)">
       <use xlink:href="#DejaVuSans-31" transform="translate(0 0.684375)"/>
       <use xlink:href="#DejaVuSans-30" transform="translate(63.623047 0.684375)"/>
       <use xlink:href="#DejaVuSans-31" transform="translate(128.203125 38.965625) scale(0.7)"/>
      </g>
     </g>
    </g>
    <g id="xtick_3">
     <g id="line2d_8">
      <defs>
       <path id="m62192957b2" d="M 0 0 
L 0 2 
" style="stroke: #000000; stroke-width: 0.6"/>
      </defs>
      <g>
       <use xlink:href="#m62192957b2" x="82.580916" y="256.32" style="stroke: #000000; stroke-width: 0.6"/>
      </g>
     </g>
    </g>
    <g id="xtick_4">
     <g id="line2d_9">
      <g>
       <use xlink:href="#m62192957b2" x="78.239733" y="256.32" style="stroke: #000000; stroke-width: 0.6"/>
      </g>
     </g>
    </g>
    <g id="xtick_5">
     <g id="line2d_10">
      <g>
       <use xlink:href="#m62192957b2" x="75.159616" y="256.32" style="stroke: #000000; stroke-width: 0.6"/>
      </g>
     </g>
    </g>
    <g id="xtick_6">
     <g id="line2d_11">
      <g>
       <use xlink:href="#m62192957b2" x="72.770491" y="256.32" style="stroke: #000000; stroke-width: 0.6"/>
      </g>
     </g>
    </g>
    <g id="xtick_7">
     <g id="line2d_12">
      <g>
       <use xlink:href="#m62192957b2" x="70.818434" y="256.32" style="stroke: #000000; stroke-width: 0.6"/>
      </g>
     </g>
    </g>
    <g id="xtick_8">
     <g id="line2d_13">
      <g>
       <use xlink:href="#m62192957b2" x="69.167993" y="256.32" style="stroke: #000000; stroke-width: 0.6"/>
      </g>
     </g>
    </g>
    <g id="xtick_9">
     <g id="line2d_14">
      <g>
       <use xlink:href="#m62192957b2" x="67.738316" y="256.32" style="stroke: #000000; stroke-width: 0.6"/>
      </g>
     </g>
    </g>
    <g id="xtick_10">
     <g id="line2d_15">
      <g>
       <use xlink:href="#m62192957b2" x="66.477251" y="256.32" style="stroke: #000000; stroke-width: 0.6"/>
      </g>
     </g>
    </g>
    <g id="xtick_11">
     <g id="line2d_16">
      <g>
       <use xlink:href="#m62192957b2" x="57.927891" y="256.32" style="stroke: #000000; stroke-width: 0.6"/>
      </g>
     </g>
    </g>
    <g id="xtick_12">
     <g id="line2d_17">
      <g>
       <use xlink:href="#m62192957b2" x="53.586709" y="256.32" style="stroke: #000000; stroke-width: 0.6"/>
      </g>
     </g>
    </g>
    <g id="xtick_13">
     <g id="line2d_18">
      <g>
       <use xlink:href="#m62192957b2" x="50.506591" y="256.32" style="stroke: #000000; stroke-width: 0.6"/>
      </g>
     </g>
    </g>
    <g id="xtick_14">
     <g id="line2d_19">
      <g>
       <use xlink:href="#m62192957b2" x="48.117466" y="256.32" style="stroke: #000000; stroke-width: 0.6"/>
      </g>
     </g>
    </g>
    <g id="xtick_15">
     <g id="line2d_20">
      <g>
       <use xlink:href="#m62192957b2" x="46.165409" y="256.32" style="stroke: #000000; stroke-width: 0.6"/>
      </g>
     </g>
    </g>
    <g id="xtick_16">
     <g id="line2d_21">
      <g>
       <use xlink:href="#m62192957b2" x="44.514968" y="256.32" style="stroke: #000000; stroke-width: 0.6"/>
      </g>
     </g>
    </g>
   </g>
   <g id="patch_8">
    <path d="M 43.92 256.32 
L 90.002215 256.32 
" style="fill: none; stroke: #000000; stroke-width: 0.8; stroke-linejoin: miter; stroke-linecap: square"/>
   </g>
  </g>
  <g id="axes_4">
   <g id="patch_9">
    <path d="M 194.734523 178.051765 
L 316.224 178.051765 
L 316.224 34.56 
L 194.734523 34.56 
z
" style="fill: #ffffff"/>
   </g>
   <g id="matplotlib.axis_5">
    <g id="ytick_7">
     <g id="line2d_22">
      <path d="M 194.734523 178.051765 
L 316.224 178.051765 
" clip-path="url(#pe2d3cf04e2)" style="fill: none; stroke: #b0b0b0; stroke-width: 0.8; stroke-linecap: square"/>
     </g>
     <g id="line2d_23">
      <defs>
       <path id="m2d56fafffc" d="M 0 0 
L -3.5 0 
" style="stroke: #000000; stroke-width: 0.8"/>
      </defs>
      <g>
       <use xlink:href="#m2d56fafffc" x="194.734523" y="178.051765" style="stroke: #000000; stroke-width: 0.8"/>
      </g>
     </g>
     <g id="text_6">
      <!-- $\mathdefault{10^{0}}$ -->
      <g transform="translate(170.134523 181.850983) scale(0.1 -0.1)">
       <use xlink:href="#DejaVuSans-31" transform="translate(0 0.765625)"/>
       <use xlink:href="#DejaVuSans-30" transform="translate(63.623047 0.765625)"/>
       <use xlink:href="#DejaVuSans-30" transform="translate(128.203125 39.046875) scale(0.7)"/>
      </g>
     </g>
    </g>
    <g id="ytick_8">
     <g id="line2d_24">
      <path d="M 194.734523 82.734676 
L 316.224 82.734676 
" clip-path="url(#pe2d3cf04e2)" style="fill: none; stroke: #b0b0b0; stroke-width: 0.8; stroke-linecap: square"/>
     </g>
     <g id="line2d_25">
      <g>
       <use xlink:href="#m2d56fafffc" x="194.734523" y="82.734676" style="stroke: #000000; stroke-width: 0.8"/>
      </g>
     </g>
     <g id="text_7">
      <!-- $\mathdefault{10^{1}}$ -->
      <g transform="translate(170.134523 86.533895) scale(0.1 -0.1)">
       <use xlink:href="#DejaVuSans-31" transform="translate(0 0.684375)"/>
       <use xlink:href="#DejaVuSans-30" transform="translate(63.623047 0.684375)"/>
       <use xlink:href="#DejaVuSans-31" transform="translate(128.203125 38.965625) scale(0.7)"/>
      </g>
     </g>
    </g>
    <g id="ytick_9">
     <g id="line2d_26">
      <defs>
       <path id="me9f9447774" d="M 0 0 
L -2 0 
" style="stroke: #000000; stroke-width: 0.6"/>
      </defs>
      <g>
       <use xlink:href="#me9f9447774" x="194.734523" y="149.358462" style="stroke: #000000; stroke-width: 0.6"/>
      </g>
     </g>
    </g>
    <g id="ytick_10">
     <g id="line2d_27">
      <g>
       <use xlink:href="#me9f9447774" x="194.734523" y="132.573956" style="stroke: #000000; stroke-width: 0.6"/>
      </g>
     </g>
    </g>
    <g id="ytick_11">
     <g id="line2d_28">
      <g>
       <use xlink:href="#me9f9447774" x="194.734523" y="120.665159" style="stroke: #000000; stroke-width: 0.6"/>
      </g>
     </g>
    </g>
    <g id="ytick_12">
     <g id="line2d_29">
      <g>
       <use xlink:href="#me9f9447774" x="194.734523" y="111.427979" style="stroke: #000000; stroke-width: 0.6"/>
      </g>
     </g>
    </g>
    <g id="ytick_13">
     <g id="line2d_30">
      <g>
       <use xlink:href="#me9f9447774" x="194.734523" y="103.880653" style="stroke: #000000; stroke-width: 0.6"/>
      </g>
     </g>
    </g>
    <g id="ytick_14">
     <g id="line2d_31">
      <g>
       <use xlink:href="#me9f9447774" x="194.734523" y="97.49948" style="stroke: #000000; stroke-width: 0.6"/>
      </g>
     </g>
    </g>
    <g id="ytick_15">
     <g id="line2d_32">
      <g>
       <use xlink:href="#me9f9447774" x="194.734523" y="91.971857" style="stroke: #000000; stroke-width: 0.6"/>
      </g>
     </g>
    </g>
    <g id="ytick_16">
     <g id="line2d_33">
      <g>
       <use xlink:href="#me9f9447774" x="194.734523" y="87.096147" style="stroke: #000000; stroke-width: 0.6"/>
      </g>
     </g>
    </g>
    <g id="ytick_17">
     <g id="line2d_34">
      <g>
       <use xlink:href="#me9f9447774" x="194.734523" y="54.041374" style="stroke: #000000; stroke-width: 0.6"/>
      </g>
     </g>
    </g>
    <g id="ytick_18">
     <g id="line2d_35">
      <g>
       <use xlink:href="#me9f9447774" x="194.734523" y="37.256868" style="stroke: #000000; stroke-width: 0.6"/>
      </g>
     </g>
    </g>
    <g id="text_8">
     <!-- Intersection size -->
     <g transform="translate(164.054836 147.333226) rotate(-90) scale(0.1 -0.1)">
      <defs>
       <path id="DejaVuSans-49" d="M 628 4666 
L 1259 4666 
L 1259 0 
L 628 0 
L 628 4666 
z
" transform="scale(0.015625)"/>
       <path id="DejaVuSans-65" d="M 3597 1894 
L 3597 1613 
L 953 1613 
Q 991 1019 1311 708 
Q 1631 397 2203 397 
Q 2534 397 2845 478 
Q 3156 559 3463 722 
L 3463 178 
Q 3153 47 2828 -22 
Q 2503 -91 2169 -91 
Q 1331 -91 842 396 
Q 353 884 353 1716 
Q 353 2575 817 3079 
Q 1281 3584 2069 3584 
Q 2775 3584 3186 3129 
Q 3597 2675 3597 1894 
z
M 3022 2063 
Q 3016 2534 2758 2815 
Q 2500 3097 2075 3097 
Q 1594 3097 1305 2825 
Q 1016 2553 972 2059 
L 3022 2063 
z
" transform="scale(0.015625)"/>
       <path id="DejaVuSans-73" d="M 2834 3397 
L 2834 2853 
Q 2591 2978 2328 3040 
Q 2066 3103 1784 3103 
Q 1356 3103 1142 2972 
Q 928 2841 928 2578 
Q 928 2378 1081 2264 
Q 1234 2150 1697 2047 
L 1894 2003 
Q 2506 1872 2764 1633 
Q 3022 1394 3022 966 
Q 3022 478 2636 193 
Q 2250 -91 1575 -91 
Q 1294 -91 989 -36 
Q 684 19 347 128 
L 347 722 
Q 666 556 975 473 
Q 1284 391 1588 391 
Q 1994 391 2212 530 
Q 2431 669 2431 922 
Q 2431 1156 2273 1281 
Q 2116 1406 1581 1522 
L 1381 1569 
Q 847 1681 609 1914 
Q 372 2147 372 2553 
Q 372 3047 722 3315 
Q 1072 3584 1716 3584 
Q 2034 3584 2315 3537 
Q 2597 3491 2834 3397 
z
" transform="scale(0.015625)"/>
       <path id="DejaVuSans-20" transform="scale(0.015625)"/>
       <path id="DejaVuSans-7a" d="M 353 3500 
L 3084 3500 
L 3084 2975 
L 922 459 
L 3084 459 
L 3084 0 
L 275 0 
L 275 525 
L 2438 3041 
L 353 3041 
L 353 3500 
z
" transform="scale(0.015625)"/>
      </defs>
      <use xlink:href="#DejaVuSans-49"/>
      <use xlink:href="#DejaVuSans-6e" transform="translate(29.492188 0)"/>
      <use xlink:href="#DejaVuSans-74" transform="translate(92.871094 0)"/>
      <use xlink:href="#DejaVuSans-65" transform="translate(132.080078 0)"/>
      <use xlink:href="#DejaVuSans-72" transform="translate(193.603516 0)"/>
      <use xlink:href="#DejaVuSans-73" transform="translate(234.716797 0)"/>
      <use xlink:href="#DejaVuSans-65" transform="translate(286.816406 0)"/>
      <use xlink:href="#DejaVuSans-63" transform="translate(348.339844 0)"/>
      <use xlink:href="#DejaVuSans-74" transform="translate(403.320312 0)"/>
      <use xlink:href="#DejaVuSans-69" transform="translate(442.529297 0)"/>
      <use xlink:href="#DejaVuSans-6f" transform="translate(470.3125 0)"/>
      <use xlink:href="#DejaVuSans-6e" transform="translate(531.494141 0)"/>
      <use xlink:href="#DejaVuSans-20" transform="translate(594.873047 0)"/>
      <use xlink:href="#DejaVuSans-73" transform="translate(626.660156 0)"/>
      <use xlink:href="#DejaVuSans-69" transform="translate(678.759766 0)"/>
      <use xlink:href="#DejaVuSans-7a" transform="translate(706.542969 0)"/>
      <use xlink:href="#DejaVuSans-65" transform="translate(759.033203 0)"/>
     </g>
    </g>
   </g>
   <g id="patch_10">
    <path d="M 194.734523 178.051765 
L 194.734523 34.56 
" style="fill: none; stroke: #000000; stroke-width: 0.8; stroke-linejoin: miter; stroke-linecap: square"/>
   </g>
   <g id="patch_11">
    <path d="M 200.808997 95495.140014 
L 212.957945 95495.140014 
L 212.957945 111.427979 
L 200.808997 111.427979 
z
" clip-path="url(#pe2d3cf04e2)" style="stroke: #000000; stroke-linejoin: miter"/>
   </g>
   <g id="patch_12">
    <path d="M 225.106892 95495.140014 
L 237.25584 95495.140014 
L 237.25584 120.665159 
L 225.106892 120.665159 
z
" clip-path="url(#pe2d3cf04e2)" style="stroke: #000000; stroke-linejoin: miter"/>
   </g>
   <g id="patch_13">
    <path d="M 249.404788 95495.140014 
L 261.553735 95495.140014 
L 261.553735 38.660246 
L 249.404788 38.660246 
z
" clip-path="url(#pe2d3cf04e2)" style="stroke: #000000; stroke-linejoin: miter"/>
   </g>
   <g id="patch_14">
    <path d="M 273.702683 95495.140014 
L 285.851631 95495.140014 
L 285.851631 63.278554 
L 273.702683 63.278554 
z
" clip-path="url(#pe2d3cf04e2)" style="stroke: #000000; stroke-linejoin: miter"/>
   </g>
   <g id="patch_15">
    <path d="M 298.000578 95495.140014 
L 310.149526 95495.140014 
L 310.149526 46.494048 
L 298.000578 46.494048 
z
" clip-path="url(#pe2d3cf04e2)" style="stroke: #000000; stroke-linejoin: miter"/>
   </g>
  </g>
 </g>
 <defs>
  <clipPath id="pabfd410837">
   <rect x="43.92" y="191.096471" width="272.304" height="65.223529"/>
  </clipPath>
  <clipPath id="p12209acc72">
   <rect x="194.734523" y="191.096471" width="121.489477" height="65.223529"/>
  </clipPath>
  <clipPath id="p950d633beb">
   <rect x="43.92" y="191.096471" width="46.082215" height="65.223529"/>
  </clipPath>
  <clipPath id="pe2d3cf04e2">
   <rect x="194.734523" y="34.56" width="121.489477" height="143.491765"/>
  </clipPath>
 </defs>
</svg>
