<?xml version="1.0" encoding="UTF-8" standalone="no"?>
<!DOCTYPE svg PUBLIC "-//W3C//DTD SVG 1.1//EN"
 "http://www.w3.org/Graphics/SVG/1.1/DTD/svg11.dtd">
<!-- Generated by graphviz version 12.2.1 (20241206.2353)
 -->
<!-- Pages: 1 -->
<svg width="280pt" height="142pt"
 viewBox="0.00 0.00 279.89 141.98" xmlns="http://www.w3.org/2000/svg" xmlns:xlink="http://www.w3.org/1999/xlink">
<g id="graph0" class="graph" transform="scale(1 1) rotate(0) translate(4 137.98)">
<polygon fill="white" stroke="none" points="-4,4 -4,-137.98 275.89,-137.98 275.89,4 -4,4"/>
<!-- taxrank
74 -->
<g id="node1" class="node">
<title>taxrank
74</title>
<ellipse fill="none" stroke="black" cx="39.95" cy="-66.99" rx="39.95" ry="28.99"/>
<text text-anchor="middle" x="39.95" y="-70.19" font-family="Times,serif" font-size="14.00">taxrank</text>
<text text-anchor="middle" x="39.95" y="-53.69" font-family="Times,serif" font-size="14.00">74</text>
</g>
<!-- ncbitaxon
44 -->
<g id="node2" class="node">
<title>ncbitaxon
44</title>
<ellipse fill="none" stroke="black" cx="200.64" cy="-104.99" rx="48.97" ry="28.99"/>
<text text-anchor="middle" x="200.64" y="-108.19" font-family="Times,serif" font-size="14.00">ncbitaxon</text>
<text text-anchor="middle" x="200.64" y="-91.69" font-family="Times,serif" font-size="14.00">44</text>
</g>
<!-- taxrank
74&#45;&#45;ncbitaxon
44 -->
<g id="edge1" class="edge">
<title>taxrank
74&#45;&#45;ncbitaxon
44</title>
<path fill="none" stroke="black" d="M78.16,-75.9C101.06,-81.38 130.56,-88.45 154.76,-94.24"/>
<text text-anchor="middle" x="104.65" y="-86.92" font-family="Times,serif" font-size="14.00">40</text>
</g>
<!-- tdwg.taxonrank
53 -->
<g id="node3" class="node">
<title>tdwg.taxonrank
53</title>
<ellipse fill="none" stroke="black" cx="200.64" cy="-28.99" rx="71.24" ry="28.99"/>
<text text-anchor="middle" x="200.64" y="-32.19" font-family="Times,serif" font-size="14.00">tdwg.taxonrank</text>
<text text-anchor="middle" x="200.64" y="-15.69" font-family="Times,serif" font-size="14.00">53</text>
</g>
<!-- taxrank
74&#45;&#45;tdwg.taxonrank
53 -->
<g id="edge2" class="edge">
<title>taxrank
74&#45;&#45;tdwg.taxonrank
53</title>
<path fill="none" stroke="black" d="M78.16,-58.08C96.11,-53.78 118.13,-48.51 138.46,-43.64"/>
<text text-anchor="middle" x="104.65" y="-55.71" font-family="Times,serif" font-size="14.00">53</text>
</g>
</g>
</svg>
