<?xml version="1.0" encoding="UTF-8" standalone="no"?>
<!DOCTYPE svg PUBLIC "-//W3C//DTD SVG 1.1//EN"
 "http://www.w3.org/Graphics/SVG/1.1/DTD/svg11.dtd">
<!-- Generated by graphviz version 12.0.0 (20240704.0754)
 -->
<!-- Pages: 1 -->
<svg width="1479pt" height="1359pt"
 viewBox="0.00 0.00 1479.37 1358.50" xmlns="http://www.w3.org/2000/svg" xmlns:xlink="http://www.w3.org/1999/xlink">
<g id="graph0" class="graph" transform="scale(1 1) rotate(0) translate(4 1354.5)">
<polygon fill="white" stroke="none" points="-4,4 -4,-1354.5 1475.37,-1354.5 1475.37,4 -4,4"/>
<!-- doid
13,333 -->
<g id="node1" class="node">
<title>doid
13,333</title>
<ellipse fill="none" stroke="black" cx="37.83" cy="-634" rx="37.83" ry="28.99"/>
<text text-anchor="middle" x="37.83" y="-637.2" font-family="Times,serif" font-size="14.00">doid</text>
<text text-anchor="middle" x="37.83" y="-620.7" font-family="Times,serif" font-size="14.00">13,333</text>
</g>
<!-- umls
187,376 -->
<g id="node2" class="node">
<title>umls
187,376</title>
<ellipse fill="none" stroke="black" cx="185.01" cy="-429" rx="42.6" ry="28.99"/>
<text text-anchor="middle" x="185.01" y="-432.2" font-family="Times,serif" font-size="14.00">umls</text>
<text text-anchor="middle" x="185.01" y="-415.7" font-family="Times,serif" font-size="14.00">187,376</text>
</g>
<!-- doid
13,333&#45;&#45;umls
187,376 -->
<g id="edge1" class="edge">
<title>doid
13,333&#45;&#45;umls
187,376</title>
<path fill="none" stroke="black" d="M56.92,-608.45C84.67,-569.28 137.44,-494.76 165.46,-455.2"/>
<text text-anchor="middle" x="109.04" y="-558.2" font-family="Times,serif" font-size="14.00">8,059</text>
</g>
<!-- mesh
3,178 -->
<g id="node3" class="node">
<title>mesh
3,178</title>
<ellipse fill="none" stroke="black" cx="334.32" cy="-630" rx="33.06" ry="28.99"/>
<text text-anchor="middle" x="334.32" y="-633.2" font-family="Times,serif" font-size="14.00">mesh</text>
<text text-anchor="middle" x="334.32" y="-616.7" font-family="Times,serif" font-size="14.00">3,178</text>
</g>
<!-- doid
13,333&#45;&#45;mesh
3,178 -->
<g id="edge2" class="edge">
<title>doid
13,333&#45;&#45;mesh
3,178</title>
<path fill="none" stroke="black" d="M76.13,-633.49C134.32,-632.7 245.75,-631.19 300.84,-630.44"/>
<text text-anchor="middle" x="185.01" y="-635.2" font-family="Times,serif" font-size="14.00">702</text>
</g>
<!-- efo
813 -->
<g id="node4" class="node">
<title>efo
813</title>
<ellipse fill="none" stroke="black" cx="474.77" cy="-869" rx="27" ry="28.99"/>
<text text-anchor="middle" x="474.77" y="-872.2" font-family="Times,serif" font-size="14.00">efo</text>
<text text-anchor="middle" x="474.77" y="-855.7" font-family="Times,serif" font-size="14.00">813</text>
</g>
<!-- doid
13,333&#45;&#45;efo
813 -->
<g id="edge3" class="edge">
<title>doid
13,333&#45;&#45;efo
813</title>
<path fill="none" stroke="black" d="M46.32,-662.72C54.2,-687.52 68.97,-722.64 93.66,-744 201.37,-837.16 380.32,-861.27 447.35,-867.19"/>
<text text-anchor="middle" x="260.99" y="-837.2" font-family="Times,serif" font-size="14.00">496</text>
</g>
<!-- ncit
20,522 -->
<g id="node5" class="node">
<title>ncit
20,522</title>
<ellipse fill="none" stroke="black" cx="613.1" cy="-415" rx="37.83" ry="28.99"/>
<text text-anchor="middle" x="613.1" y="-418.2" font-family="Times,serif" font-size="14.00">ncit</text>
<text text-anchor="middle" x="613.1" y="-401.7" font-family="Times,serif" font-size="14.00">20,522</text>
</g>
<!-- doid
13,333&#45;&#45;ncit
20,522 -->
<g id="edge4" class="edge">
<title>doid
13,333&#45;&#45;ncit
20,522</title>
<path fill="none" stroke="black" d="M42.24,-604.77C52.84,-518.8 87.79,-269.13 142.41,-211 193.65,-156.47 221.38,-155.02 294.37,-138.5 329,-130.66 341.99,-123.69 374.27,-138.5 488.79,-191.05 568.98,-328.98 599.01,-387.8"/>
<text text-anchor="middle" x="334.32" y="-141.2" font-family="Times,serif" font-size="14.00">5,141</text>
</g>
<!-- mondo
24,645 -->
<g id="node6" class="node">
<title>mondo
24,645</title>
<ellipse fill="none" stroke="black" cx="762.79" cy="-1001" rx="38.36" ry="28.99"/>
<text text-anchor="middle" x="762.79" y="-1004.2" font-family="Times,serif" font-size="14.00">mondo</text>
<text text-anchor="middle" x="762.79" y="-987.7" font-family="Times,serif" font-size="14.00">24,645</text>
</g>
<!-- doid
13,333&#45;&#45;mondo
24,645 -->
<g id="edge5" class="edge">
<title>doid
13,333&#45;&#45;mondo
24,645</title>
<path fill="none" stroke="black" d="M39.94,-663.34C45.12,-779.65 71.67,-1202 184.01,-1202 184.01,-1202 184.01,-1202 614.1,-1202 698.54,-1202 740.03,-1085.38 755.01,-1029.8"/>
<text text-anchor="middle" x="411.02" y="-1205.2" font-family="Times,serif" font-size="14.00">11,260</text>
</g>
<!-- icdo
804 -->
<g id="node7" class="node">
<title>icdo
804</title>
<ellipse fill="none" stroke="black" cx="912.63" cy="-1277" rx="27.75" ry="28.99"/>
<text text-anchor="middle" x="912.63" y="-1280.2" font-family="Times,serif" font-size="14.00">icdo</text>
<text text-anchor="middle" x="912.63" y="-1263.7" font-family="Times,serif" font-size="14.00">804</text>
</g>
<!-- doid
13,333&#45;&#45;icdo
804 -->
<g id="edge6" class="edge">
<title>doid
13,333&#45;&#45;icdo
804</title>
<path fill="none" stroke="black" d="M39.08,-663.34C40.9,-789.33 56.22,-1278 184.01,-1278 184.01,-1278 184.01,-1278 763.79,-1278 805.88,-1278 854.72,-1277.59 884.38,-1277.29"/>
<text text-anchor="middle" x="474.77" y="-1281.2" font-family="Times,serif" font-size="14.00">433</text>
</g>
<!-- icd10cm
21,714 -->
<g id="node8" class="node">
<title>icd10cm
21,714</title>
<ellipse fill="none" stroke="black" cx="912.63" cy="-715" rx="44.72" ry="28.99"/>
<text text-anchor="middle" x="912.63" y="-718.2" font-family="Times,serif" font-size="14.00">icd10cm</text>
<text text-anchor="middle" x="912.63" y="-701.7" font-family="Times,serif" font-size="14.00">21,714</text>
</g>
<!-- doid
13,333&#45;&#45;icd10cm
21,714 -->
<g id="edge7" class="edge">
<title>doid
13,333&#45;&#45;icd10cm
21,714</title>
<path fill="none" stroke="black" d="M58.9,-658.47C84.64,-686.92 132.19,-730 184.01,-730 184.01,-730 184.01,-730 539.52,-730 677.5,-730 712.31,-733.44 849.9,-723 855.94,-722.54 862.28,-721.9 868.52,-721.18"/>
<text text-anchor="middle" x="474.77" y="-733.2" font-family="Times,serif" font-size="14.00">3,601</text>
</g>
<!-- icd9cm
9,236 -->
<g id="node9" class="node">
<title>icd9cm
9,236</title>
<ellipse fill="none" stroke="black" cx="334.32" cy="-193" rx="39.95" ry="28.99"/>
<text text-anchor="middle" x="334.32" y="-196.2" font-family="Times,serif" font-size="14.00">icd9cm</text>
<text text-anchor="middle" x="334.32" y="-179.7" font-family="Times,serif" font-size="14.00">9,236</text>
</g>
<!-- doid
13,333&#45;&#45;icd9cm
9,236 -->
<g id="edge8" class="edge">
<title>doid
13,333&#45;&#45;icd9cm
9,236</title>
<path fill="none" stroke="black" d="M42.11,-604.98C53.1,-523.24 96.79,-291.02 245.62,-199 260.03,-190.09 278.43,-187.78 294.65,-188.02"/>
<text text-anchor="middle" x="185.01" y="-302.2" font-family="Times,serif" font-size="14.00">2,238</text>
</g>
<!-- orphanet.ordo
14,618 -->
<g id="node10" class="node">
<title>orphanet.ordo
14,618</title>
<ellipse fill="none" stroke="black" cx="1095.73" cy="-653" rx="64.88" ry="28.99"/>
<text text-anchor="middle" x="1095.73" y="-656.2" font-family="Times,serif" font-size="14.00">orphanet.ordo</text>
<text text-anchor="middle" x="1095.73" y="-639.7" font-family="Times,serif" font-size="14.00">14,618</text>
</g>
<!-- doid
13,333&#45;&#45;orphanet.ordo
14,618 -->
<g id="edge9" class="edge">
<title>doid
13,333&#45;&#45;orphanet.ordo
14,618</title>
<path fill="none" stroke="black" d="M43.38,-663.1C58.18,-752.48 108.37,-1017 184.01,-1017 184.01,-1017 184.01,-1017 475.77,-1017 513.79,-1017 530.42,-1017.92 557.27,-991 576.03,-972.19 555.87,-952.15 575.27,-934 619.09,-893.01 648.43,-917.36 706.43,-902 770.54,-885.03 797.85,-902.1 849.9,-861 862.71,-850.89 856.05,-840.22 867.9,-829 900.08,-798.55 919.5,-808.03 957.35,-785 983.55,-769.06 990.15,-764.61 1012.85,-744 1034.72,-724.14 1056.98,-699.02 1072.76,-680.21"/>
<text text-anchor="middle" x="538.52" y="-1017.2" font-family="Times,serif" font-size="14.00">2,526</text>
</g>
<!-- gard
6,116 -->
<g id="node11" class="node">
<title>gard
6,116</title>
<ellipse fill="none" stroke="black" cx="1279.89" cy="-1135" rx="33.06" ry="28.99"/>
<text text-anchor="middle" x="1279.89" y="-1138.2" font-family="Times,serif" font-size="14.00">gard</text>
<text text-anchor="middle" x="1279.89" y="-1121.7" font-family="Times,serif" font-size="14.00">6,116</text>
</g>
<!-- doid
13,333&#45;&#45;gard
6,116 -->
<g id="edge10" class="edge">
<title>doid
13,333&#45;&#45;gard
6,116</title>
<path fill="none" stroke="black" d="M38.56,-663.19C38.08,-795.67 44.7,-1334 184.01,-1334 184.01,-1334 184.01,-1334 1096.73,-1334 1188.53,-1334 1246.54,-1217.35 1268.69,-1162.67"/>
<text text-anchor="middle" x="613.1" y="-1337.2" font-family="Times,serif" font-size="14.00">2,049</text>
</g>
<!-- omim
20,592 -->
<g id="node12" class="node">
<title>omim
20,592</title>
<ellipse fill="none" stroke="black" cx="1279.89" cy="-434" rx="37.83" ry="28.99"/>
<text text-anchor="middle" x="1279.89" y="-437.2" font-family="Times,serif" font-size="14.00">omim</text>
<text text-anchor="middle" x="1279.89" y="-420.7" font-family="Times,serif" font-size="14.00">20,592</text>
</g>
<!-- doid
13,333&#45;&#45;omim
20,592 -->
<g id="edge11" class="edge">
<title>doid
13,333&#45;&#45;omim
20,592</title>
<path fill="none" stroke="black" d="M40.11,-604.78C45.04,-508.25 66.51,-202.66 142.41,-150 227.57,-90.92 271.29,-113.3 374.27,-125 396.54,-127.53 1141.22,-294.76 1160.6,-306 1204.58,-331.5 1241.78,-378.66 1262.16,-408.06"/>
<text text-anchor="middle" x="613.1" y="-188.2" font-family="Times,serif" font-size="14.00">6,185</text>
</g>
<!-- omim.ps
588 -->
<g id="node13" class="node">
<title>omim.ps
588</title>
<ellipse fill="none" stroke="black" cx="1279.89" cy="-243" rx="45.79" ry="28.99"/>
<text text-anchor="middle" x="1279.89" y="-246.2" font-family="Times,serif" font-size="14.00">omim.ps</text>
<text text-anchor="middle" x="1279.89" y="-229.7" font-family="Times,serif" font-size="14.00">588</text>
</g>
<!-- doid
13,333&#45;&#45;omim.ps
588 -->
<g id="edge12" class="edge">
<title>doid
13,333&#45;&#45;omim.ps
588</title>
<path fill="none" stroke="black" d="M40.24,-604.66C44.86,-514.98 61.16,-245.7 93.66,-165 118.47,-103.4 117.61,-46 184.01,-46 184.01,-46 184.01,-46 688.68,-46 824.21,-46 846.81,-107.02 975.35,-150 1068.65,-181.2 1179.42,-214.1 1237.93,-231.17"/>
<text text-anchor="middle" x="613.1" y="-49.2" font-family="Times,serif" font-size="14.00">48</text>
</g>
<!-- orphanet
15,590 -->
<g id="node14" class="node">
<title>orphanet
15,590</title>
<ellipse fill="none" stroke="black" cx="1426.65" cy="-434" rx="44.72" ry="28.99"/>
<text text-anchor="middle" x="1426.65" y="-437.2" font-family="Times,serif" font-size="14.00">orphanet</text>
<text text-anchor="middle" x="1426.65" y="-420.7" font-family="Times,serif" font-size="14.00">15,590</text>
</g>
<!-- doid
13,333&#45;&#45;orphanet
15,590 -->
<g id="edge13" class="edge">
<title>doid
13,333&#45;&#45;orphanet
15,590</title>
<path fill="none" stroke="black" d="M38.92,-604.75C39.66,-503.93 45.74,-172.08 93.66,-79 118.08,-31.57 130.67,0 184.01,0 184.01,0 184.01,0 1280.89,0 1366.47,0 1410.55,-307.54 1422.35,-404.85"/>
<text text-anchor="middle" x="687.68" y="-3.2" font-family="Times,serif" font-size="14.00">403</text>
</g>
<!-- umls
187,376&#45;&#45;mesh
3,178 -->
<g id="edge14" class="edge">
<title>umls
187,376&#45;&#45;mesh
3,178</title>
<path fill="none" stroke="black" d="M191.37,-457.87C198.72,-490.7 214.69,-544.33 245.62,-580 254.17,-589.87 282.48,-605.18 304.65,-616.27"/>
<text text-anchor="middle" x="260.99" y="-603.2" font-family="Times,serif" font-size="14.00">2,219</text>
</g>
<!-- umls
187,376&#45;&#45;efo
813 -->
<g id="edge15" class="edge">
<title>umls
187,376&#45;&#45;efo
813</title>
<path fill="none" stroke="black" d="M190.86,-457.93C198.29,-496.98 214.97,-567.76 245.62,-621 303.27,-721.14 407.76,-814.37 452.5,-851.75"/>
<text text-anchor="middle" x="334.32" y="-780.2" font-family="Times,serif" font-size="14.00">612</text>
</g>
<!-- umls
187,376&#45;&#45;ncit
20,522 -->
<g id="edge16" class="edge">
<title>umls
187,376&#45;&#45;ncit
20,522</title>
<path fill="none" stroke="black" d="M228.03,-427.62C311.28,-424.88 495.92,-418.82 574.99,-416.22"/>
<text text-anchor="middle" x="411.02" y="-425.2" font-family="Times,serif" font-size="14.00">19,687</text>
</g>
<!-- umls
187,376&#45;&#45;mondo
24,645 -->
<g id="edge17" class="edge">
<title>umls
187,376&#45;&#45;mondo
24,645</title>
<path fill="none" stroke="black" d="M189.99,-458.27C206.31,-564.91 279.14,-931.77 519.77,-1035 590.15,-1065.19 681.6,-1035.91 729.42,-1016.01"/>
<text text-anchor="middle" x="474.77" y="-1028.2" font-family="Times,serif" font-size="14.00">20,725</text>
</g>
<!-- umls
187,376&#45;&#45;icd10cm
21,714 -->
<g id="edge18" class="edge">
<title>umls
187,376&#45;&#45;icd10cm
21,714</title>
<path fill="none" stroke="black" d="M214.06,-450.48C223.78,-457.46 234.93,-464.95 245.62,-471 466.15,-595.73 762.4,-677.58 870.21,-704.91"/>
<text text-anchor="middle" x="538.52" y="-612.2" font-family="Times,serif" font-size="14.00">25,265</text>
</g>
<!-- umls
187,376&#45;&#45;icd9cm
9,236 -->
<g id="edge19" class="edge">
<title>umls
187,376&#45;&#45;icd9cm
9,236</title>
<path fill="none" stroke="black" d="M185.95,-399.64C187.48,-354.69 197.08,-268.83 245.62,-219.5 258.45,-206.46 277.45,-199.79 294.49,-196.4"/>
<text text-anchor="middle" x="260.99" y="-222.2" font-family="Times,serif" font-size="14.00">9,107</text>
</g>
<!-- umls
187,376&#45;&#45;orphanet.ordo
14,618 -->
<g id="edge20" class="edge">
<title>umls
187,376&#45;&#45;orphanet.ordo
14,618</title>
<path fill="none" stroke="black" d="M226.38,-436.61C232.81,-437.77 239.39,-438.94 245.62,-440 449.96,-474.81 505.67,-460.38 706.43,-512 833.2,-544.59 976.56,-602.37 1048.43,-632.87"/>
<text text-anchor="middle" x="613.1" y="-501.2" font-family="Times,serif" font-size="14.00">8,541</text>
</g>
<!-- umls
187,376&#45;&#45;omim
20,592 -->
<g id="edge21" class="edge">
<title>umls
187,376&#45;&#45;omim
20,592</title>
<path fill="none" stroke="black" d="M199.6,-401.53C209.8,-383.91 225.45,-362.14 245.62,-350 327.23,-300.88 573.96,-289.94 668.93,-282.5 915.84,-263.17 991.94,-282.69 1216.1,-388 1229.56,-394.32 1243.04,-403.7 1254.05,-412.35"/>
<text text-anchor="middle" x="687.68" y="-285.2" font-family="Times,serif" font-size="14.00">18,401</text>
</g>
<!-- umls
187,376&#45;&#45;omim.ps
588 -->
<g id="edge22" class="edge">
<title>umls
187,376&#45;&#45;omim.ps
588</title>
<path fill="none" stroke="black" d="M197.69,-401.14C207.8,-379.74 224.16,-350.62 245.62,-331 263.44,-314.7 271.36,-314.34 294.37,-307 532.31,-231.03 600.2,-215.89 849.9,-222 990.23,-225.43 1156.15,-235.17 1234.14,-240.09"/>
<text text-anchor="middle" x="687.68" y="-226.2" font-family="Times,serif" font-size="14.00">56</text>
</g>
<!-- umls
187,376&#45;&#45;orphanet
15,590 -->
<g id="edge24" class="edge">
<title>umls
187,376&#45;&#45;orphanet
15,590</title>
<path fill="none" stroke="black" d="M194.94,-400.4C204.27,-374.04 221.03,-335.02 245.62,-308 262.74,-289.19 271.26,-288.64 294.37,-278 368.45,-243.88 911.54,-53 993.1,-53 993.1,-53 993.1,-53 1280.89,-53 1312.76,-53 1306.5,-83.54 1325.67,-109 1343.37,-132.49 1351.93,-136.15 1363.92,-163 1401.02,-246.05 1416.95,-353.73 1422.78,-404.73"/>
<text text-anchor="middle" x="762.79" y="-127.2" font-family="Times,serif" font-size="14.00">8,481</text>
</g>
<!-- icd10
7,006 -->
<g id="node15" class="node">
<title>icd10
7,006</title>
<ellipse fill="none" stroke="black" cx="1279.89" cy="-544" rx="33.06" ry="28.99"/>
<text text-anchor="middle" x="1279.89" y="-547.2" font-family="Times,serif" font-size="14.00">icd10</text>
<text text-anchor="middle" x="1279.89" y="-530.7" font-family="Times,serif" font-size="14.00">7,006</text>
</g>
<!-- umls
187,376&#45;&#45;icd10
7,006 -->
<g id="edge23" class="edge">
<title>umls
187,376&#45;&#45;icd10
7,006</title>
<path fill="none" stroke="black" d="M226.75,-421.74C297.4,-409.56 447.37,-385.5 575.27,-377 608.82,-374.77 617.44,-373.93 650.93,-377 732.38,-384.48 934.05,-422.08 1012.85,-444 1101.27,-468.59 1201.65,-510.24 1249.93,-531.18"/>
<text text-anchor="middle" x="687.68" y="-386.2" font-family="Times,serif" font-size="14.00">6,269</text>
</g>
<!-- mesh
3,178&#45;&#45;efo
813 -->
<g id="edge25" class="edge">
<title>mesh
3,178&#45;&#45;efo
813</title>
<path fill="none" stroke="black" d="M350.14,-655.58C376.99,-701.94 433.37,-799.25 459.68,-844.68"/>
<text text-anchor="middle" x="411.02" y="-794.2" font-family="Times,serif" font-size="14.00">295</text>
</g>
<!-- mesh
3,178&#45;&#45;ncit
20,522 -->
<g id="edge26" class="edge">
<title>mesh
3,178&#45;&#45;ncit
20,522</title>
<path fill="none" stroke="black" d="M359.88,-610.92C411.88,-570.53 532.65,-476.71 585.99,-435.29"/>
<text text-anchor="middle" x="474.77" y="-543.2" font-family="Times,serif" font-size="14.00">403</text>
</g>
<!-- mesh
3,178&#45;&#45;mondo
24,645 -->
<g id="edge27" class="edge">
<title>mesh
3,178&#45;&#45;mondo
24,645</title>
<path fill="none" stroke="black" d="M354.6,-653.48C361.89,-663.54 369.56,-675.78 374.27,-688 394.29,-739.96 373.89,-759.43 392.27,-812 408.41,-858.16 412.74,-872.89 447.77,-907 494.09,-952.1 513.81,-956.97 575.27,-977 625.09,-993.24 685.76,-998.55 724.09,-1000.25"/>
<text text-anchor="middle" x="538.52" y="-973.2" font-family="Times,serif" font-size="14.00">893</text>
</g>
<!-- mesh
3,178&#45;&#45;icd10cm
21,714 -->
<g id="edge28" class="edge">
<title>mesh
3,178&#45;&#45;icd10cm
21,714</title>
<path fill="none" stroke="black" d="M366.96,-636.44C433.08,-649.7 590.84,-680.29 724.43,-698 773.28,-704.48 829.63,-709.23 867.64,-712.03"/>
<text text-anchor="middle" x="613.1" y="-690.2" font-family="Times,serif" font-size="14.00">193</text>
</g>
<!-- mesh
3,178&#45;&#45;orphanet.ordo
14,618 -->
<g id="edge29" class="edge">
<title>mesh
3,178&#45;&#45;orphanet.ordo
14,618</title>
<path fill="none" stroke="black" d="M367.61,-626.96C404.41,-623.59 466.37,-618.21 519.77,-615 550.99,-613.12 770.27,-602.04 801.15,-607 831.99,-611.95 837.36,-622.43 867.9,-629 922.29,-640.7 985.31,-646.79 1031.09,-649.9"/>
<text text-anchor="middle" x="687.68" y="-611.2" font-family="Times,serif" font-size="14.00">138</text>
</g>
<!-- mesh
3,178&#45;&#45;orphanet
15,590 -->
<g id="edge30" class="edge">
<title>mesh
3,178&#45;&#45;orphanet
15,590</title>
<path fill="none" stroke="black" d="M352.16,-605.38C363.06,-589.91 377.87,-569.79 392.27,-553 415.08,-526.4 422.67,-521.46 447.77,-497 503.5,-442.69 514.64,-425.78 575.27,-377 636.54,-327.71 796.3,-210.52 867.9,-178 936.1,-147.03 956.57,-144.64 1030.85,-135 1161.04,-118.11 1216.36,-80.31 1325.67,-153 1410.4,-209.34 1423.96,-344.75 1425.69,-404.65"/>
<text text-anchor="middle" x="834.53" y="-206.2" font-family="Times,serif" font-size="14.00">130</text>
</g>
<!-- efo
813&#45;&#45;ncit
20,522 -->
<g id="edge31" class="edge">
<title>efo
813&#45;&#45;ncit
20,522</title>
<path fill="none" stroke="black" d="M482.9,-841.04C488.73,-817.24 496.81,-782.07 501.77,-751 514.42,-671.83 490.1,-645.99 519.77,-571.5 529.85,-546.19 545.07,-547.36 557.27,-523 570.69,-496.2 561.18,-484.46 575.27,-458 579.06,-450.89 584.2,-443.92 589.43,-437.73"/>
<text text-anchor="middle" x="538.52" y="-574.2" font-family="Times,serif" font-size="14.00">418</text>
</g>
<!-- efo
813&#45;&#45;mondo
24,645 -->
<g id="edge32" class="edge">
<title>efo
813&#45;&#45;mondo
24,645</title>
<path fill="none" stroke="black" d="M498.25,-883.64C505.05,-887.83 512.61,-892.28 519.77,-896 592.09,-933.64 680.85,-969.7 728.22,-988.18"/>
<text text-anchor="middle" x="613.1" y="-959.2" font-family="Times,serif" font-size="14.00">625</text>
</g>
<!-- efo
813&#45;&#45;icdo
804 -->
<g id="edge33" class="edge">
<title>efo
813&#45;&#45;icdo
804</title>
<path fill="none" stroke="black" d="M486.03,-895.59C491.61,-911.2 498.11,-931.45 501.77,-950 511.6,-999.86 487.03,-1139.13 519.77,-1178 531.89,-1192.39 798.81,-1252.17 885.03,-1271.17"/>
<text text-anchor="middle" x="687.68" y="-1232.2" font-family="Times,serif" font-size="14.00">25</text>
</g>
<!-- efo
813&#45;&#45;icd10cm
21,714 -->
<g id="edge34" class="edge">
<title>efo
813&#45;&#45;icd10cm
21,714</title>
<path fill="none" stroke="black" d="M494.21,-848.57C501.51,-841.65 510.4,-834.54 519.77,-830 653.91,-765.03 716.14,-836.75 849.9,-771 858.34,-766.85 874.13,-752.48 887.62,-739.33"/>
<text text-anchor="middle" x="687.68" y="-804.2" font-family="Times,serif" font-size="14.00">132</text>
</g>
<!-- efo
813&#45;&#45;orphanet.ordo
14,618 -->
<g id="edge35" class="edge">
<title>efo
813&#45;&#45;orphanet.ordo
14,618</title>
<path fill="none" stroke="black" d="M502.1,-867.1C577.25,-860.76 797.6,-835.84 957.35,-753 997.16,-732.36 1038.12,-700.97 1064.84,-678.88"/>
<text text-anchor="middle" x="762.79" y="-835.2" font-family="Times,serif" font-size="14.00">138</text>
</g>
<!-- efo
813&#45;&#45;gard
6,116 -->
<g id="edge36" class="edge">
<title>efo
813&#45;&#45;gard
6,116</title>
<path fill="none" stroke="black" d="M481.93,-897.29C493.46,-950.08 517.37,-1058.61 519.77,-1062 565.06,-1125.94 596.17,-1126.91 668.93,-1156 872.88,-1237.55 948.93,-1264.65 1160.6,-1206 1196.61,-1196.02 1232.66,-1171.84 1255.33,-1154.47"/>
<text text-anchor="middle" x="834.53" y="-1223.2" font-family="Times,serif" font-size="14.00">119</text>
</g>
<!-- efo
813&#45;&#45;omim
20,592 -->
<g id="edge37" class="edge">
<title>efo
813&#45;&#45;omim
20,592</title>
<path fill="none" stroke="black" d="M482.64,-841C488.31,-817.17 496.3,-781.99 501.77,-751 507.03,-721.2 500.36,-639.22 519.77,-616 547.71,-582.57 668.01,-576.55 706.43,-556 720.53,-548.46 804.25,-472.3 819.15,-466.5 967.19,-408.94 1162.06,-421.1 1242.13,-429.47"/>
<text text-anchor="middle" x="834.53" y="-469.2" font-family="Times,serif" font-size="14.00">134</text>
</g>
<!-- efo
813&#45;&#45;orphanet
15,590 -->
<g id="edge41" class="edge">
<title>efo
813&#45;&#45;orphanet
15,590</title>
<path fill="none" stroke="black" d="M482.98,-896.71C489.71,-918.49 501.51,-948.62 519.77,-970 532.58,-985 800.21,-1155.47 819.15,-1161 832.27,-1164.83 836.32,-1162.52 849.9,-1161 903.77,-1154.96 1288.57,-1092.52 1325.67,-1053 1407.35,-966 1422.46,-573.99 1425.11,-463.23"/>
<text text-anchor="middle" x="912.63" y="-1161.2" font-family="Times,serif" font-size="14.00">80</text>
</g>
<!-- efo
813&#45;&#45;icd10
7,006 -->
<g id="edge40" class="edge">
<title>efo
813&#45;&#45;icd10
7,006</title>
<path fill="none" stroke="black" d="M491.43,-845.6C499.32,-834.56 509.4,-821.54 519.77,-811 571.74,-758.15 612.67,-771.48 650.93,-708 674.02,-669.7 645.06,-646.82 668.93,-609 669.94,-607.39 722.64,-569.62 724.43,-569 913.27,-503.31 1160.26,-527.68 1247.06,-539.28"/>
<text text-anchor="middle" x="834.53" y="-546.2" font-family="Times,serif" font-size="14.00">331</text>
</g>
<!-- icd9
3,976 -->
<g id="node16" class="node">
<title>icd9
3,976</title>
<ellipse fill="none" stroke="black" cx="912.63" cy="-867" rx="33.06" ry="28.99"/>
<text text-anchor="middle" x="912.63" y="-870.2" font-family="Times,serif" font-size="14.00">icd9</text>
<text text-anchor="middle" x="912.63" y="-853.7" font-family="Times,serif" font-size="14.00">3,976</text>
</g>
<!-- efo
813&#45;&#45;icd9
3,976 -->
<g id="edge38" class="edge">
<title>efo
813&#45;&#45;icd9
3,976</title>
<path fill="none" stroke="black" d="M502.03,-870.74C559.49,-874.46 700.71,-883.07 819.15,-886 832.81,-886.34 836.39,-888.03 849.9,-886 860.43,-884.42 871.65,-881.39 881.59,-878.21"/>
<text text-anchor="middle" x="687.68" y="-884.2" font-family="Times,serif" font-size="14.00">475</text>
</g>
<!-- icd11
6,501 -->
<g id="node17" class="node">
<title>icd11
6,501</title>
<ellipse fill="none" stroke="black" cx="1279.89" cy="-1015" rx="33.06" ry="28.99"/>
<text text-anchor="middle" x="1279.89" y="-1018.2" font-family="Times,serif" font-size="14.00">icd11</text>
<text text-anchor="middle" x="1279.89" y="-1001.7" font-family="Times,serif" font-size="14.00">6,501</text>
</g>
<!-- efo
813&#45;&#45;icd11
6,501 -->
<g id="edge39" class="edge">
<title>efo
813&#45;&#45;icd11
6,501</title>
<path fill="none" stroke="black" d="M481.35,-897.59C490.55,-943.36 508.95,-1028.9 519.77,-1038 603.85,-1108.77 903.65,-1088.36 1012.85,-1076 1099.49,-1066.19 1199.02,-1038.97 1248.15,-1024.43"/>
<text text-anchor="middle" x="834.53" y="-1091.2" font-family="Times,serif" font-size="14.00">184</text>
</g>
<!-- ncit
20,522&#45;&#45;mondo
24,645 -->
<g id="edge42" class="edge">
<title>ncit
20,522&#45;&#45;mondo
24,645</title>
<path fill="none" stroke="black" d="M636.61,-437.81C641.85,-444 647.03,-450.94 650.93,-458 663.98,-481.63 658.76,-491 668.93,-516 682.75,-549.97 696.7,-554.14 706.43,-589.5 738.98,-707.81 704.07,-743.99 724.43,-865 730.81,-902.91 743.41,-945.47 752.21,-972.72"/>
<text text-anchor="middle" x="687.68" y="-592.2" font-family="Times,serif" font-size="14.00">7,402</text>
</g>
<!-- ncit
20,522&#45;&#45;icd10cm
21,714 -->
<g id="edge43" class="edge">
<title>ncit
20,522&#45;&#45;icd10cm
21,714</title>
<path fill="none" stroke="black" d="M636.95,-438.04C691.93,-493.47 831.16,-633.87 887.46,-690.63"/>
<text text-anchor="middle" x="762.79" y="-602.2" font-family="Times,serif" font-size="14.00">497</text>
</g>
<!-- ncit
20,522&#45;&#45;orphanet.ordo
14,618 -->
<g id="edge44" class="edge">
<title>ncit
20,522&#45;&#45;orphanet.ordo
14,618</title>
<path fill="none" stroke="black" d="M648.24,-426.33C719.9,-451.07 889.59,-514.68 1012.85,-601 1022.12,-607.49 1021.76,-612.27 1030.85,-619 1037.01,-623.56 1043.86,-627.88 1050.72,-631.81"/>
<text text-anchor="middle" x="834.53" y="-510.2" font-family="Times,serif" font-size="14.00">572</text>
</g>
<!-- ncit
20,522&#45;&#45;omim
20,592 -->
<g id="edge45" class="edge">
<title>ncit
20,522&#45;&#45;omim
20,592</title>
<path fill="none" stroke="black" d="M651.29,-412.83C739.75,-408.13 969.57,-398.61 1160.6,-414 1188.53,-416.25 1219.76,-421.66 1243.12,-426.28"/>
<text text-anchor="middle" x="912.63" y="-408.2" font-family="Times,serif" font-size="14.00">168</text>
</g>
<!-- ncit
20,522&#45;&#45;omim.ps
588 -->
<g id="edge46" class="edge">
<title>ncit
20,522&#45;&#45;omim.ps
588</title>
<path fill="none" stroke="black" d="M649.37,-405.87C762.38,-376.64 1115.17,-285.36 1237.01,-253.84"/>
<text text-anchor="middle" x="912.63" y="-351.2" font-family="Times,serif" font-size="14.00">27</text>
</g>
<!-- ncit
20,522&#45;&#45;orphanet
15,590 -->
<g id="edge47" class="edge">
<title>ncit
20,522&#45;&#45;orphanet
15,590</title>
<path fill="none" stroke="black" d="M640.68,-394.85C711.08,-341.88 902,-200.97 975.35,-174.5 1076.4,-138.03 1111.3,-129.39 1216.1,-153 1268.69,-164.85 1288.16,-166.29 1325.67,-205 1381.82,-262.95 1409.16,-357.58 1419.91,-405"/>
<text text-anchor="middle" x="994.1" y="-177.2" font-family="Times,serif" font-size="14.00">486</text>
</g>
<!-- mondo
24,645&#45;&#45;icdo
804 -->
<g id="edge48" class="edge">
<title>mondo
24,645&#45;&#45;icdo
804</title>
<path fill="none" stroke="black" d="M775.31,-1028.67C785.87,-1053.33 802.36,-1090.17 819.15,-1121 831.36,-1143.41 836.71,-1147.65 849.9,-1169.5 866.81,-1197.5 885.4,-1230.15 897.71,-1252.06"/>
<text text-anchor="middle" x="834.53" y="-1172.2" font-family="Times,serif" font-size="14.00">732</text>
</g>
<!-- mondo
24,645&#45;&#45;icd10cm
21,714 -->
<g id="edge49" class="edge">
<title>mondo
24,645&#45;&#45;icd10cm
21,714</title>
<path fill="none" stroke="black" d="M777.33,-973.94C788.47,-951.75 804.72,-919.53 819.15,-891.5 846.38,-838.6 878.77,-777.11 897.09,-742.45"/>
<text text-anchor="middle" x="834.53" y="-894.2" font-family="Times,serif" font-size="14.00">1,617</text>
</g>
<!-- mondo
24,645&#45;&#45;orphanet.ordo
14,618 -->
<g id="edge50" class="edge">
<title>mondo
24,645&#45;&#45;orphanet.ordo
14,618</title>
<path fill="none" stroke="black" d="M794.57,-984.39C815.19,-973.39 843.02,-958.78 867.9,-946.5 907.2,-927.11 923.89,-933.31 957.35,-905 1029.81,-843.69 1070.5,-734.08 1086.58,-682.01"/>
<text text-anchor="middle" x="912.63" y="-949.2" font-family="Times,serif" font-size="14.00">9,672</text>
</g>
<!-- mondo
24,645&#45;&#45;gard
6,116 -->
<g id="edge51" class="edge">
<title>mondo
24,645&#45;&#45;gard
6,116</title>
<path fill="none" stroke="black" d="M799.21,-1010.66C805.84,-1012.45 812.7,-1014.29 819.15,-1016 980.14,-1058.64 1173.31,-1108.08 1247.64,-1127.04"/>
<text text-anchor="middle" x="994.1" y="-1068.2" font-family="Times,serif" font-size="14.00">10,436</text>
</g>
<!-- mondo
24,645&#45;&#45;omim
20,592 -->
<g id="edge52" class="edge">
<title>mondo
24,645&#45;&#45;omim
20,592</title>
<path fill="none" stroke="black" d="M801.47,-1001.13C842.61,-999.65 909.06,-992.35 957.35,-963 1115.13,-867.1 1143.53,-807.77 1216.1,-638 1239.38,-583.56 1214.02,-561.7 1234.1,-506 1240.15,-489.24 1250.48,-472.24 1259.7,-458.97"/>
<text text-anchor="middle" x="994.1" y="-952.2" font-family="Times,serif" font-size="14.00">9,997</text>
</g>
<!-- mondo
24,645&#45;&#45;omim.ps
588 -->
<g id="edge55" class="edge">
<title>mondo
24,645&#45;&#45;omim.ps
588</title>
<path fill="none" stroke="black" d="M773.5,-972.74C782.38,-945.51 795.05,-902.96 801.15,-865 807.43,-825.9 793.73,-539.37 819.15,-509 859.62,-460.65 900,-503.19 957.35,-477 1079.82,-421.08 1202.28,-314.58 1253.68,-267"/>
<text text-anchor="middle" x="994.1" y="-471.2" font-family="Times,serif" font-size="14.00">581</text>
</g>
<!-- mondo
24,645&#45;&#45;orphanet
15,590 -->
<g id="edge56" class="edge">
<title>mondo
24,645&#45;&#45;orphanet
15,590</title>
<path fill="none" stroke="black" d="M789.02,-1022.57C871.9,-1090.69 1141.05,-1289.99 1325.67,-1173 1359.3,-1151.69 1353.41,-1130.4 1363.92,-1092 1397.15,-970.69 1418.74,-574.53 1424.25,-463.29"/>
<text text-anchor="middle" x="1095.73" y="-1210.2" font-family="Times,serif" font-size="14.00">1,901</text>
</g>
<!-- mondo
24,645&#45;&#45;icd9
3,976 -->
<g id="edge53" class="edge">
<title>mondo
24,645&#45;&#45;icd9
3,976</title>
<path fill="none" stroke="black" d="M782.43,-975.72C792.59,-962.73 805.79,-947.04 819.15,-934.5 825.06,-928.96 860.93,-903.11 886.22,-885.06"/>
<text text-anchor="middle" x="834.53" y="-937.2" font-family="Times,serif" font-size="14.00">4,399</text>
</g>
<!-- mondo
24,645&#45;&#45;icd11
6,501 -->
<g id="edge54" class="edge">
<title>mondo
24,645&#45;&#45;icd11
6,501</title>
<path fill="none" stroke="black" d="M801.25,-1002.02C898.14,-1004.65 1155.75,-1011.65 1246.61,-1014.12"/>
<text text-anchor="middle" x="994.1" y="-1010.2" font-family="Times,serif" font-size="14.00">4,145</text>
</g>
<!-- icd10cm
21,714&#45;&#45;orphanet.ordo
14,618 -->
<g id="edge57" class="edge">
<title>icd10cm
21,714&#45;&#45;orphanet.ordo
14,618</title>
<path fill="none" stroke="black" d="M952.48,-701.7C979.08,-692.59 1014.65,-680.42 1043.56,-670.52"/>
<text text-anchor="middle" x="994.1" y="-696.2" font-family="Times,serif" font-size="14.00">168</text>
</g>
<!-- icd10cm
21,714&#45;&#45;omim
20,592 -->
<g id="edge58" class="edge">
<title>icd10cm
21,714&#45;&#45;omim
20,592</title>
<path fill="none" stroke="black" d="M935.52,-690.15C958.05,-665.36 994.83,-626.96 1030.85,-598.5 1084.1,-556.42 1104.08,-555.55 1160.6,-518 1192.49,-496.81 1228.21,-471.17 1251.97,-453.84"/>
<text text-anchor="middle" x="1095.73" y="-601.2" font-family="Times,serif" font-size="14.00">41</text>
</g>
<!-- icd10cm
21,714&#45;&#45;orphanet
15,590 -->
<g id="edge59" class="edge">
<title>icd10cm
21,714&#45;&#45;orphanet
15,590</title>
<path fill="none" stroke="black" d="M932.79,-740.88C981.22,-803.05 1112.05,-950.93 1216.1,-885 1369.07,-788.07 1412.05,-547.22 1422.58,-463.35"/>
<text text-anchor="middle" x="1197.35" y="-902.2" font-family="Times,serif" font-size="14.00">133</text>
</g>
<!-- orphanet.ordo
14,618&#45;&#45;gard
6,116 -->
<g id="edge60" class="edge">
<title>orphanet.ordo
14,618&#45;&#45;gard
6,116</title>
<path fill="none" stroke="black" d="M1104.02,-681.9C1117.06,-732.45 1146.09,-839.91 1178.6,-928 1199.65,-985.02 1207.18,-998.5 1234.1,-1053 1243.52,-1072.05 1255.02,-1093.08 1264.02,-1109.07"/>
<text text-anchor="middle" x="1197.35" y="-1018.2" font-family="Times,serif" font-size="14.00">41</text>
</g>
<!-- orphanet.ordo
14,618&#45;&#45;omim
20,592 -->
<g id="edge61" class="edge">
<title>orphanet.ordo
14,618&#45;&#45;omim
20,592</title>
<path fill="none" stroke="black" d="M1137.62,-630.49C1145.84,-624.81 1153.97,-618.25 1160.6,-611 1172.02,-598.53 1169.75,-591.9 1178.6,-577.5 1204.96,-534.66 1239.15,-487.23 1260.03,-459.06"/>
<text text-anchor="middle" x="1197.35" y="-580.2" font-family="Times,serif" font-size="14.00">11,443</text>
</g>
<!-- orphanet.ordo
14,618&#45;&#45;omim.ps
588 -->
<g id="edge63" class="edge">
<title>orphanet.ordo
14,618&#45;&#45;omim.ps
588</title>
<path fill="none" stroke="black" d="M1140.23,-631.52C1148.08,-625.85 1155.41,-619.02 1160.6,-611 1187.68,-569.25 1165.5,-548.5 1178.6,-500.5 1202.1,-414.41 1244.39,-317.49 1265.77,-270.92"/>
<text text-anchor="middle" x="1197.35" y="-503.2" font-family="Times,serif" font-size="14.00">38</text>
</g>
<!-- orphanet.ordo
14,618&#45;&#45;orphanet
15,590 -->
<g id="edge65" class="edge">
<title>orphanet.ordo
14,618&#45;&#45;orphanet
15,590</title>
<path fill="none" stroke="black" d="M1160.48,-649.13C1178.72,-646.91 1198.44,-643.44 1216.1,-638 1268.37,-621.9 1284.72,-618.25 1325.67,-582 1364.8,-547.37 1395.73,-494.21 1412.31,-461.91"/>
<text text-anchor="middle" x="1279.89" y="-635.2" font-family="Times,serif" font-size="14.00">1,996</text>
</g>
<!-- orphanet.ordo
14,618&#45;&#45;icd10
7,006 -->
<g id="edge64" class="edge">
<title>orphanet.ordo
14,618&#45;&#45;icd10
7,006</title>
<path fill="none" stroke="black" d="M1145.68,-634.11C1167.92,-624.61 1194.12,-612.12 1216.1,-598 1230.74,-588.6 1245.57,-576.02 1257.14,-565.37"/>
<text text-anchor="middle" x="1197.35" y="-620.2" font-family="Times,serif" font-size="14.00">7,887</text>
</g>
<!-- orphanet.ordo
14,618&#45;&#45;icd11
6,501 -->
<g id="edge62" class="edge">
<title>orphanet.ordo
14,618&#45;&#45;icd11
6,501</title>
<path fill="none" stroke="black" d="M1113.49,-681.1C1137.49,-721.78 1182.43,-799.74 1216.1,-868.5 1236.06,-909.26 1256.22,-957.92 1268.12,-987.63"/>
<text text-anchor="middle" x="1197.35" y="-871.2" font-family="Times,serif" font-size="14.00">5,530</text>
</g>
<!-- omim
20,592&#45;&#45;orphanet
15,590 -->
<g id="edge66" class="edge">
<title>omim
20,592&#45;&#45;orphanet
15,590</title>
<path fill="none" stroke="black" d="M1318.17,-434C1337.52,-434 1361.29,-434 1381.55,-434"/>
<text text-anchor="middle" x="1353.8" y="-437.2" font-family="Times,serif" font-size="14.00">128</text>
</g>
</g>
</svg>
