<?xml version="1.0" encoding="UTF-8" standalone="no"?>
<!DOCTYPE svg PUBLIC "-//W3C//DTD SVG 1.1//EN"
 "http://www.w3.org/Graphics/SVG/1.1/DTD/svg11.dtd">
<!-- Generated by graphviz version 12.2.1 (20241206.2353)
 -->
<!-- Pages: 1 -->
<svg width="1319pt" height="1326pt"
 viewBox="0.00 0.00 1318.50 1326.49" xmlns="http://www.w3.org/2000/svg" xmlns:xlink="http://www.w3.org/1999/xlink">
<g id="graph0" class="graph" transform="scale(1 1) rotate(0) translate(4 1322.49)">
<polygon fill="white" stroke="none" points="-4,4 -4,-1322.49 1314.5,-1322.49 1314.5,4 -4,4"/>
<!-- doid
14,220 -->
<g id="node1" class="node">
<title>doid
14,220</title>
<ellipse fill="none" stroke="black" cx="37.83" cy="-496.99" rx="37.83" ry="28.99"/>
<text text-anchor="middle" x="37.83" y="-500.19" font-family="Times,serif" font-size="14.00">doid</text>
<text text-anchor="middle" x="37.83" y="-483.69" font-family="Times,serif" font-size="14.00">14,220</text>
</g>
<!-- umls
187,376 -->
<g id="node2" class="node">
<title>umls
187,376</title>
<ellipse fill="none" stroke="black" cx="185.01" cy="-525.99" rx="42.6" ry="28.99"/>
<text text-anchor="middle" x="185.01" y="-529.19" font-family="Times,serif" font-size="14.00">umls</text>
<text text-anchor="middle" x="185.01" y="-512.69" font-family="Times,serif" font-size="14.00">187,376</text>
</g>
<!-- doid
14,220&#45;&#45;umls
187,376 -->
<g id="edge1" class="edge">
<title>doid
14,220&#45;&#45;umls
187,376</title>
<path fill="none" stroke="black" d="M74.72,-504.16C95.63,-508.34 122.05,-513.61 143.68,-517.93"/>
<text text-anchor="middle" x="109.04" y="-516.43" font-family="Times,serif" font-size="14.00">8,443</text>
</g>
<!-- efo
2,121 -->
<g id="node3" class="node">
<title>efo
2,121</title>
<ellipse fill="none" stroke="black" cx="327.42" cy="-785.99" rx="33.06" ry="28.99"/>
<text text-anchor="middle" x="327.42" y="-789.19" font-family="Times,serif" font-size="14.00">efo</text>
<text text-anchor="middle" x="327.42" y="-772.69" font-family="Times,serif" font-size="14.00">2,121</text>
</g>
<!-- doid
14,220&#45;&#45;efo
2,121 -->
<g id="edge2" class="edge">
<title>doid
14,220&#45;&#45;efo
2,121</title>
<path fill="none" stroke="black" d="M56.04,-522.61C88.73,-569.92 163.91,-672.33 245.62,-739.99 261.41,-753.07 281.42,-764.49 297.58,-772.68"/>
<text text-anchor="middle" x="185.01" y="-727.58" font-family="Times,serif" font-size="14.00">1,305</text>
</g>
<!-- mesh
3,178 -->
<g id="node4" class="node">
<title>mesh
3,178</title>
<ellipse fill="none" stroke="black" cx="467.04" cy="-531.99" rx="33.06" ry="28.99"/>
<text text-anchor="middle" x="467.04" y="-535.19" font-family="Times,serif" font-size="14.00">mesh</text>
<text text-anchor="middle" x="467.04" y="-518.69" font-family="Times,serif" font-size="14.00">3,178</text>
</g>
<!-- doid
14,220&#45;&#45;mesh
3,178 -->
<g id="edge3" class="edge">
<title>doid
14,220&#45;&#45;mesh
3,178</title>
<path fill="none" stroke="black" d="M75.69,-493.01C95.45,-491.07 120.23,-488.95 142.41,-487.99 180.24,-486.35 189.9,-484.54 227.62,-487.99 302.65,-494.86 389.32,-513.63 434.67,-524.31"/>
<text text-anchor="middle" x="260.99" y="-496.87" font-family="Times,serif" font-size="14.00">719</text>
</g>
<!-- ncit
20,522 -->
<g id="node5" class="node">
<title>ncit
20,522</title>
<ellipse fill="none" stroke="black" cx="604.68" cy="-423.99" rx="37.83" ry="28.99"/>
<text text-anchor="middle" x="604.68" y="-427.19" font-family="Times,serif" font-size="14.00">ncit</text>
<text text-anchor="middle" x="604.68" y="-410.69" font-family="Times,serif" font-size="14.00">20,522</text>
</g>
<!-- doid
14,220&#45;&#45;ncit
20,522 -->
<g id="edge4" class="edge">
<title>doid
14,220&#45;&#45;ncit
20,522</title>
<path fill="none" stroke="black" d="M59.74,-473.17C99.93,-429.87 192.96,-341.19 294.37,-324.49 366.76,-312.57 542.71,-341.34 548.85,-344.99 568.51,-356.68 582.83,-378.48 591.89,-396.23"/>
<text text-anchor="middle" x="327.42" y="-327.69" font-family="Times,serif" font-size="14.00">5,188</text>
</g>
<!-- mondo
29,826 -->
<g id="node6" class="node">
<title>mondo
29,826</title>
<ellipse fill="none" stroke="black" cx="747.62" cy="-734.99" rx="38.36" ry="28.99"/>
<text text-anchor="middle" x="747.62" y="-738.19" font-family="Times,serif" font-size="14.00">mondo</text>
<text text-anchor="middle" x="747.62" y="-721.69" font-family="Times,serif" font-size="14.00">29,826</text>
</g>
<!-- doid
14,220&#45;&#45;mondo
29,826 -->
<g id="edge5" class="edge">
<title>doid
14,220&#45;&#45;mondo
29,826</title>
<path fill="none" stroke="black" d="M39.15,-526.44C41.28,-651.72 57.69,-1133.99 184.01,-1133.99 184.01,-1133.99 184.01,-1133.99 398.23,-1133.99 402.01,-1133.99 639.54,-1017.33 642.51,-1014.99 669.24,-993.95 675.91,-986.35 691.26,-955.99 723.64,-891.92 737.93,-807.61 743.51,-763.97"/>
<text text-anchor="middle" x="397.23" y="-1137.19" font-family="Times,serif" font-size="14.00">11,841</text>
</g>
<!-- icdo
797 -->
<g id="node7" class="node">
<title>icdo
797</title>
<ellipse fill="none" stroke="black" cx="897.45" cy="-994.99" rx="27.75" ry="28.99"/>
<text text-anchor="middle" x="897.45" y="-998.19" font-family="Times,serif" font-size="14.00">icdo</text>
<text text-anchor="middle" x="897.45" y="-981.69" font-family="Times,serif" font-size="14.00">797</text>
</g>
<!-- doid
14,220&#45;&#45;icdo
797 -->
<g id="edge6" class="edge">
<title>doid
14,220&#45;&#45;icdo
797</title>
<path fill="none" stroke="black" d="M38.38,-526.15C37.07,-661.04 40.37,-1217.99 184.01,-1217.99 184.01,-1217.99 184.01,-1217.99 676.88,-1217.99 725.77,-1217.99 745.8,-1231.84 785.98,-1203.99 848.89,-1160.39 878.77,-1069.39 890.36,-1023.2"/>
<text text-anchor="middle" x="467.04" y="-1221.19" font-family="Times,serif" font-size="14.00">488</text>
</g>
<!-- icd10cm
2,830 -->
<g id="node8" class="node">
<title>icd10cm
2,830</title>
<ellipse fill="none" stroke="black" cx="897.45" cy="-414.99" rx="44.72" ry="28.99"/>
<text text-anchor="middle" x="897.45" y="-418.19" font-family="Times,serif" font-size="14.00">icd10cm</text>
<text text-anchor="middle" x="897.45" y="-401.69" font-family="Times,serif" font-size="14.00">2,830</text>
</g>
<!-- doid
14,220&#45;&#45;icd10cm
2,830 -->
<g id="edge7" class="edge">
<title>doid
14,220&#45;&#45;icd10cm
2,830</title>
<path fill="none" stroke="black" d="M40.91,-467.73C47.65,-397.66 75.26,-225.99 184.01,-225.99 184.01,-225.99 184.01,-225.99 398.23,-225.99 586.26,-225.99 789.77,-345.13 865.66,-394.22"/>
<text text-anchor="middle" x="467.04" y="-239.27" font-family="Times,serif" font-size="14.00">3,626</text>
</g>
<!-- icd9cm
2,226 -->
<g id="node9" class="node">
<title>icd9cm
2,226</title>
<ellipse fill="none" stroke="black" cx="185.01" cy="-28.99" rx="39.95" ry="28.99"/>
<text text-anchor="middle" x="185.01" y="-32.19" font-family="Times,serif" font-size="14.00">icd9cm</text>
<text text-anchor="middle" x="185.01" y="-15.69" font-family="Times,serif" font-size="14.00">2,226</text>
</g>
<!-- doid
14,220&#45;&#45;icd9cm
2,226 -->
<g id="edge8" class="edge">
<title>doid
14,220&#45;&#45;icd9cm
2,226</title>
<path fill="none" stroke="black" d="M38.43,-467.56C37.84,-379.09 40.7,-117.8 93.66,-55.49 106.26,-40.67 126.67,-33.9 144.91,-30.9"/>
<text text-anchor="middle" x="109.04" y="-58.69" font-family="Times,serif" font-size="14.00">2,225</text>
</g>
<!-- orphanet.ordo
15,507 -->
<g id="node10" class="node">
<title>orphanet.ordo
15,507</title>
<ellipse fill="none" stroke="black" cx="1080.55" cy="-752.99" rx="64.88" ry="28.99"/>
<text text-anchor="middle" x="1080.55" y="-756.19" font-family="Times,serif" font-size="14.00">orphanet.ordo</text>
<text text-anchor="middle" x="1080.55" y="-739.69" font-family="Times,serif" font-size="14.00">15,507</text>
</g>
<!-- doid
14,220&#45;&#45;orphanet.ordo
15,507 -->
<g id="edge9" class="edge">
<title>doid
14,220&#45;&#45;orphanet.ordo
15,507</title>
<path fill="none" stroke="black" d="M39.26,-526.09C41.19,-637.5 51.03,-1036.63 93.66,-1154.99 114.87,-1213.87 121.43,-1262.99 184.01,-1262.99 184.01,-1262.99 184.01,-1262.99 398.23,-1262.99 674.56,-1262.99 835.27,-1321.55 997.68,-1097.99 1069.5,-999.13 1079.17,-846.16 1079.89,-782.43"/>
<text text-anchor="middle" x="533.47" y="-1270.34" font-family="Times,serif" font-size="14.00">2,730</text>
</g>
<!-- gard
6,132 -->
<g id="node11" class="node">
<title>gard
6,132</title>
<ellipse fill="none" stroke="black" cx="1264.72" cy="-1085.99" rx="33.06" ry="28.99"/>
<text text-anchor="middle" x="1264.72" y="-1089.19" font-family="Times,serif" font-size="14.00">gard</text>
<text text-anchor="middle" x="1264.72" y="-1072.69" font-family="Times,serif" font-size="14.00">6,132</text>
</g>
<!-- doid
14,220&#45;&#45;gard
6,132 -->
<g id="edge10" class="edge">
<title>doid
14,220&#45;&#45;gard
6,132</title>
<path fill="none" stroke="black" d="M38.93,-526.41C39.64,-643.89 45.55,-1079.29 93.66,-1206.99 114.2,-1261.52 125.74,-1301.99 184.01,-1301.99 184.01,-1301.99 184.01,-1301.99 820.35,-1301.99 998.02,-1301.99 1178.95,-1160.08 1241.14,-1106.31"/>
<text text-anchor="middle" x="604.68" y="-1305.19" font-family="Times,serif" font-size="14.00">2,135</text>
</g>
<!-- omim
14,452 -->
<g id="node12" class="node">
<title>omim
14,452</title>
<ellipse fill="none" stroke="black" cx="1264.72" cy="-236.99" rx="37.83" ry="28.99"/>
<text text-anchor="middle" x="1264.72" y="-240.19" font-family="Times,serif" font-size="14.00">omim</text>
<text text-anchor="middle" x="1264.72" y="-223.69" font-family="Times,serif" font-size="14.00">14,452</text>
</g>
<!-- doid
14,220&#45;&#45;omim
14,452 -->
<g id="edge11" class="edge">
<title>doid
14,220&#45;&#45;omim
14,452</title>
<path fill="none" stroke="black" d="M39.48,-467.54C41.69,-412.23 51.41,-290.09 93.66,-197.99 120.33,-139.86 120.06,-85.99 184.01,-85.99 184.01,-85.99 184.01,-85.99 1081.55,-85.99 1141.14,-85.99 1158.36,-105.31 1200.93,-146.99 1220.12,-165.78 1237.22,-191.18 1248.71,-210.2"/>
<text text-anchor="middle" x="604.68" y="-89.19" font-family="Times,serif" font-size="14.00">5,888</text>
</g>
<!-- omim.ps
588 -->
<g id="node13" class="node">
<title>omim.ps
588</title>
<ellipse fill="none" stroke="black" cx="1264.72" cy="-567.99" rx="45.79" ry="28.99"/>
<text text-anchor="middle" x="1264.72" y="-571.19" font-family="Times,serif" font-size="14.00">omim.ps</text>
<text text-anchor="middle" x="1264.72" y="-554.69" font-family="Times,serif" font-size="14.00">588</text>
</g>
<!-- doid
14,220&#45;&#45;omim.ps
588 -->
<g id="edge12" class="edge">
<title>doid
14,220&#45;&#45;omim.ps
588</title>
<path fill="none" stroke="black" d="M38.95,-467.74C40.95,-389.26 58.11,-179.99 184.01,-179.99 184.01,-179.99 184.01,-179.99 398.23,-179.99 482.2,-179.99 1078.96,-241.69 1145.43,-292.99 1225.45,-354.76 1252.16,-481.41 1260.37,-538.7"/>
<text text-anchor="middle" x="604.68" y="-203.91" font-family="Times,serif" font-size="14.00">107</text>
</g>
<!-- umls
187,376&#45;&#45;efo
2,121 -->
<g id="edge13" class="edge">
<title>umls
187,376&#45;&#45;efo
2,121</title>
<path fill="none" stroke="black" d="M194.56,-554.68C204.56,-586.23 222.69,-637.92 245.62,-678.99 255.15,-696.07 286.97,-736.81 307.72,-762.81"/>
<text text-anchor="middle" x="260.99" y="-725.32" font-family="Times,serif" font-size="14.00">1,715</text>
</g>
<!-- umls
187,376&#45;&#45;mesh
3,178 -->
<g id="edge14" class="edge">
<title>umls
187,376&#45;&#45;mesh
3,178</title>
<path fill="none" stroke="black" d="M227.94,-526.89C284.24,-528.1 383.06,-530.21 433.87,-531.3"/>
<text text-anchor="middle" x="327.42" y="-532.89" font-family="Times,serif" font-size="14.00">812</text>
</g>
<!-- umls
187,376&#45;&#45;ncit
20,522 -->
<g id="edge15" class="edge">
<title>umls
187,376&#45;&#45;ncit
20,522</title>
<path fill="none" stroke="black" d="M213.87,-504.17C223.49,-497.51 234.62,-490.71 245.62,-485.99 355.78,-438.74 499.65,-427.47 566.52,-424.81"/>
<text text-anchor="middle" x="397.23" y="-449.16" font-family="Times,serif" font-size="14.00">5,175</text>
</g>
<!-- umls
187,376&#45;&#45;mondo
29,826 -->
<g id="edge16" class="edge">
<title>umls
187,376&#45;&#45;mondo
29,826</title>
<path fill="none" stroke="black" d="M198.61,-553.79C219.12,-594.35 263.82,-664.99 326.42,-664.99 326.42,-664.99 326.42,-664.99 534.47,-664.99 601.96,-664.99 675.71,-697.33 716.03,-718.05"/>
<text text-anchor="middle" x="467.04" y="-668.19" font-family="Times,serif" font-size="14.00">20,807</text>
</g>
<!-- umls
187,376&#45;&#45;icd10cm
2,830 -->
<g id="edge17" class="edge">
<title>umls
187,376&#45;&#45;icd10cm
2,830</title>
<path fill="none" stroke="black" d="M209.03,-501.83C219.58,-491.56 232.61,-479.91 245.62,-470.99 265.53,-457.33 271.59,-455.02 294.37,-446.99 442.52,-394.77 485.67,-377.07 642.51,-385.99 716.93,-390.23 803.04,-401.39 853.44,-408.57"/>
<text text-anchor="middle" x="533.47" y="-389.17" font-family="Times,serif" font-size="14.00">979</text>
</g>
<!-- umls
187,376&#45;&#45;orphanet.ordo
15,507 -->
<g id="edge18" class="edge">
<title>umls
187,376&#45;&#45;orphanet.ordo
15,507</title>
<path fill="none" stroke="black" d="M198.59,-553.61C207.84,-574.91 220.06,-605.3 227.62,-632.99 240.66,-680.78 229.21,-696.25 245.62,-742.99 285.47,-856.57 295.52,-891.78 378.48,-978.99 440.15,-1043.81 478.6,-1035.27 566.85,-1049.99 661.45,-1065.77 921.98,-1134.89 997.68,-1075.99 1044.42,-1039.62 1068.77,-854.81 1076.64,-782.27"/>
<text text-anchor="middle" x="604.68" y="-1067.97" font-family="Times,serif" font-size="14.00">8,724</text>
</g>
<!-- umls
187,376&#45;&#45;omim
14,452 -->
<g id="edge19" class="edge">
<title>umls
187,376&#45;&#45;omim
14,452</title>
<path fill="none" stroke="black" d="M193.19,-497.2C205.87,-452.25 236.56,-365.65 294.37,-317.99 367.96,-257.33 421.51,-311.02 500.1,-256.99 540.26,-229.38 525.26,-195.41 566.85,-169.99 663.8,-110.73 704.72,-123.99 818.35,-123.99 818.35,-123.99 818.35,-123.99 1081.55,-123.99 1148.54,-123.99 1211.39,-179.86 1242.8,-213.03"/>
<text text-anchor="middle" x="675.88" y="-132.14" font-family="Times,serif" font-size="14.00">2,820</text>
</g>
<!-- umls
187,376&#45;&#45;omim.ps
588 -->
<g id="edge20" class="edge">
<title>umls
187,376&#45;&#45;omim.ps
588</title>
<path fill="none" stroke="black" d="M224.67,-536.97C231.62,-538.77 238.81,-540.52 245.62,-541.99 290.68,-551.71 408.35,-568.09 433.98,-569.99 441.11,-570.52 684.4,-569.47 691.26,-571.49 700.36,-574.18 700.14,-580.33 709.26,-582.99 741.99,-592.55 758.2,-602.77 785.98,-582.99 805.9,-568.81 784.61,-545.93 803.98,-530.99 872.27,-478.3 911.78,-511.15 997.68,-518.99 1077.65,-526.3 1169.49,-545.7 1221.65,-557.79"/>
<text text-anchor="middle" x="675.88" y="-574.69" font-family="Times,serif" font-size="14.00">139</text>
</g>
<!-- efo
2,121&#45;&#45;mesh
3,178 -->
<g id="edge21" class="edge">
<title>efo
2,121&#45;&#45;mesh
3,178</title>
<path fill="none" stroke="black" d="M340.32,-759.22C350.08,-737.69 364.51,-706.82 378.48,-680.49 401.91,-636.34 432.03,-586.6 450.14,-557.35"/>
<text text-anchor="middle" x="397.23" y="-683.69" font-family="Times,serif" font-size="14.00">425</text>
</g>
<!-- efo
2,121&#45;&#45;ncit
20,522 -->
<g id="edge22" class="edge">
<title>efo
2,121&#45;&#45;ncit
20,522</title>
<path fill="none" stroke="black" d="M333.86,-757.17C341.18,-721.69 355.94,-660.1 378.48,-610.99 391.13,-583.43 403.99,-581.84 415.98,-553.99 429.79,-521.91 410.22,-503.09 433.98,-477.49 452.16,-457.91 523.27,-440.36 567.46,-431.04"/>
<text text-anchor="middle" x="467.04" y="-480.69" font-family="Times,serif" font-size="14.00">1,220</text>
</g>
<!-- efo
2,121&#45;&#45;mondo
29,826 -->
<g id="edge23" class="edge">
<title>efo
2,121&#45;&#45;mondo
29,826</title>
<path fill="none" stroke="black" d="M356.33,-800.68C363.37,-803.7 371.05,-806.43 378.48,-807.99 394.79,-811.42 399.37,-809.37 415.98,-807.99 517.71,-799.52 542.95,-792.56 642.51,-769.99 664.49,-765.01 669.87,-763.11 691.26,-755.99 698.38,-753.62 705.94,-750.9 713.11,-748.21"/>
<text text-anchor="middle" x="533.47" y="-799.48" font-family="Times,serif" font-size="14.00">1,695</text>
</g>
<!-- efo
2,121&#45;&#45;icdo
797 -->
<g id="edge24" class="edge">
<title>efo
2,121&#45;&#45;icdo
797</title>
<path fill="none" stroke="black" d="M327.99,-815.38C329.18,-853.45 337.53,-918.85 378.48,-951.99 527.89,-1072.9 787.25,-1022.38 870.17,-1001.99"/>
<text text-anchor="middle" x="604.68" y="-1033.15" font-family="Times,serif" font-size="14.00">62</text>
</g>
<!-- efo
2,121&#45;&#45;icd10cm
2,830 -->
<g id="edge25" class="edge">
<title>efo
2,121&#45;&#45;icd10cm
2,830</title>
<path fill="none" stroke="black" d="M349.39,-764.24C357.85,-756.4 368.06,-748.01 378.48,-741.99 463.36,-692.95 732.64,-655.25 785.98,-572.99 812.21,-532.53 776.09,-505.33 803.98,-465.99 816.7,-448.04 837.82,-435.72 856.66,-427.68"/>
<text text-anchor="middle" x="604.68" y="-681.22" font-family="Times,serif" font-size="14.00">324</text>
</g>
<!-- efo
2,121&#45;&#45;orphanet.ordo
15,507 -->
<g id="edge26" class="edge">
<title>efo
2,121&#45;&#45;orphanet.ordo
15,507</title>
<path fill="none" stroke="black" d="M338.67,-813.52C356.95,-857.32 399.65,-937.99 466.04,-937.99 466.04,-937.99 466.04,-937.99 898.45,-937.99 984.97,-937.99 1043.77,-833.39 1067.62,-781.49"/>
<text text-anchor="middle" x="675.88" y="-941.19" font-family="Times,serif" font-size="14.00">330</text>
</g>
<!-- efo
2,121&#45;&#45;gard
6,132 -->
<g id="edge27" class="edge">
<title>efo
2,121&#45;&#45;gard
6,132</title>
<path fill="none" stroke="black" d="M329.43,-815.31C332.19,-855.78 342.23,-929.38 378.48,-978.99 435.15,-1056.56 474.94,-1057.02 566.85,-1084.99 813.14,-1159.94 887.99,-1115.31 1145.43,-1112.99 1170.1,-1112.77 1176.78,-1117.02 1200.93,-1111.99 1212.71,-1109.54 1225.07,-1104.91 1235.68,-1100.23"/>
<text text-anchor="middle" x="747.62" y="-1130.31" font-family="Times,serif" font-size="14.00">290</text>
</g>
<!-- efo
2,121&#45;&#45;omim
14,452 -->
<g id="edge28" class="edge">
<title>efo
2,121&#45;&#45;omim
14,452</title>
<path fill="none" stroke="black" d="M332.23,-757.13C338.65,-712.61 353.41,-624.89 378.48,-553.99 396.74,-502.36 398.96,-486.09 433.98,-443.99 464.02,-407.88 478.01,-404.48 518.1,-379.99 598.47,-330.89 618.47,-313.57 709.26,-288.49 898.42,-236.24 1136.23,-234.47 1226.58,-235.98"/>
<text text-anchor="middle" x="747.62" y="-291.69" font-family="Times,serif" font-size="14.00">324</text>
</g>
<!-- efo
2,121&#45;&#45;omim.ps
588 -->
<g id="edge31" class="edge">
<title>efo
2,121&#45;&#45;omim.ps
588</title>
<path fill="none" stroke="black" d="M359.19,-777.47C415.43,-761.89 538.63,-727.77 642.51,-698.99 672.17,-690.77 679.32,-687.67 709.26,-680.49 898.38,-635.16 1126.63,-592.65 1220.35,-575.72"/>
<text text-anchor="middle" x="747.62" y="-683.69" font-family="Times,serif" font-size="14.00">26</text>
</g>
<!-- icd9
3,955 -->
<g id="node14" class="node">
<title>icd9
3,955</title>
<ellipse fill="none" stroke="black" cx="897.45" cy="-880.99" rx="33.06" ry="28.99"/>
<text text-anchor="middle" x="897.45" y="-884.19" font-family="Times,serif" font-size="14.00">icd9</text>
<text text-anchor="middle" x="897.45" y="-867.69" font-family="Times,serif" font-size="14.00">3,955</text>
</g>
<!-- efo
2,121&#45;&#45;icd9
3,955 -->
<g id="edge29" class="edge">
<title>efo
2,121&#45;&#45;icd9
3,955</title>
<path fill="none" stroke="black" d="M351.43,-806.58C359.48,-812.77 368.92,-818.98 378.48,-822.99 555.06,-897.13 613.07,-875.83 803.98,-890.99 817.6,-892.07 821.1,-892.09 834.73,-890.99 844.57,-890.2 855.22,-888.71 864.85,-887.11"/>
<text text-anchor="middle" x="604.68" y="-885.97" font-family="Times,serif" font-size="14.00">1,194</text>
</g>
<!-- icd11
71,175 -->
<g id="node15" class="node">
<title>icd11
71,175</title>
<ellipse fill="none" stroke="black" cx="897.45" cy="-804.99" rx="37.83" ry="28.99"/>
<text text-anchor="middle" x="897.45" y="-808.19" font-family="Times,serif" font-size="14.00">icd11</text>
<text text-anchor="middle" x="897.45" y="-791.69" font-family="Times,serif" font-size="14.00">71,175</text>
</g>
<!-- efo
2,121&#45;&#45;icd11
71,175 -->
<g id="edge30" class="edge">
<title>efo
2,121&#45;&#45;icd11
71,175</title>
<path fill="none" stroke="black" d="M360.66,-789.64C437.34,-798.13 636.76,-818.97 803.98,-825.99 817.63,-826.56 821.24,-828.22 834.73,-825.99 844.33,-824.4 854.45,-821.51 863.65,-818.37"/>
<text text-anchor="middle" x="604.68" y="-819.33" font-family="Times,serif" font-size="14.00">410</text>
</g>
<!-- icd10
2,345 -->
<g id="node16" class="node">
<title>icd10
2,345</title>
<ellipse fill="none" stroke="black" cx="1264.72" cy="-1229.99" rx="33.06" ry="28.99"/>
<text text-anchor="middle" x="1264.72" y="-1233.19" font-family="Times,serif" font-size="14.00">icd10</text>
<text text-anchor="middle" x="1264.72" y="-1216.69" font-family="Times,serif" font-size="14.00">2,345</text>
</g>
<!-- efo
2,121&#45;&#45;icd10
2,345 -->
<g id="edge32" class="edge">
<title>efo
2,121&#45;&#45;icd10
2,345</title>
<path fill="none" stroke="black" d="M327.9,-815.44C327.17,-894.54 329.82,-1108.72 378.48,-1154.99 410.06,-1185.02 1075.8,-1220.48 1231.4,-1228.38"/>
<text text-anchor="middle" x="747.62" y="-1204.89" font-family="Times,serif" font-size="14.00">526</text>
</g>
<!-- mesh
3,178&#45;&#45;ncit
20,522 -->
<g id="edge33" class="edge">
<title>mesh
3,178&#45;&#45;ncit
20,522</title>
<path fill="none" stroke="black" d="M488.58,-509.39C497.3,-500.3 507.82,-489.99 518.1,-481.49 535.76,-466.89 557.15,-452.52 574.13,-441.79"/>
<text text-anchor="middle" x="533.47" y="-484.69" font-family="Times,serif" font-size="14.00">446</text>
</g>
<!-- mesh
3,178&#45;&#45;mondo
29,826 -->
<g id="edge34" class="edge">
<title>mesh
3,178&#45;&#45;mondo
29,826</title>
<path fill="none" stroke="black" d="M498.1,-543.12C544.36,-561.48 633.69,-601.95 691.26,-659.99 702.75,-671.58 699.86,-678.65 709.26,-691.99 713.93,-698.62 719.44,-705.41 724.77,-711.59"/>
<text text-anchor="middle" x="604.68" y="-620.94" font-family="Times,serif" font-size="14.00">919</text>
</g>
<!-- mesh
3,178&#45;&#45;icd10cm
2,830 -->
<g id="edge35" class="edge">
<title>mesh
3,178&#45;&#45;icd10cm
2,830</title>
<path fill="none" stroke="black" d="M498.85,-523.58C574.73,-502.85 770.63,-449.35 855.85,-426.08"/>
<text text-anchor="middle" x="675.88" y="-482.08" font-family="Times,serif" font-size="14.00">221</text>
</g>
<!-- mesh
3,178&#45;&#45;orphanet.ordo
15,507 -->
<g id="edge36" class="edge">
<title>mesh
3,178&#45;&#45;orphanet.ordo
15,507</title>
<path fill="none" stroke="black" d="M500.3,-534.14C543.79,-537.24 623.59,-543.64 691.26,-552.99 759.83,-562.46 941.23,-568.93 997.68,-608.99 1037.19,-637.04 1060.16,-690.55 1071.25,-723.85"/>
<text text-anchor="middle" x="747.62" y="-565.68" font-family="Times,serif" font-size="14.00">151</text>
</g>
<!-- ncit
20,522&#45;&#45;mondo
29,826 -->
<g id="edge37" class="edge">
<title>ncit
20,522&#45;&#45;mondo
29,826</title>
<path fill="none" stroke="black" d="M609.76,-453.1C615.89,-488.61 630.16,-549.2 660.51,-591.99 670.46,-606.02 681.91,-601.05 691.26,-615.49 710.24,-644.81 693.34,-660.9 709.26,-691.99 712.95,-699.21 718.11,-706.22 723.42,-712.4"/>
<text text-anchor="middle" x="675.88" y="-618.69" font-family="Times,serif" font-size="14.00">7,311</text>
</g>
<!-- ncit
20,522&#45;&#45;icd10cm
2,830 -->
<g id="edge38" class="edge">
<title>ncit
20,522&#45;&#45;icd10cm
2,830</title>
<path fill="none" stroke="black" d="M642.58,-422.18C682.39,-420.3 747.66,-417.43 803.98,-415.99 819.71,-415.59 836.94,-415.35 852.23,-415.2"/>
<text text-anchor="middle" x="747.62" y="-422.39" font-family="Times,serif" font-size="14.00">570</text>
</g>
<!-- ncit
20,522&#45;&#45;orphanet.ordo
15,507 -->
<g id="edge39" class="edge">
<title>ncit
20,522&#45;&#45;orphanet.ordo
15,507</title>
<path fill="none" stroke="black" d="M624.42,-449.18C634.08,-460.62 646.72,-473.47 660.51,-481.99 710.06,-512.63 731.37,-499.68 785.98,-519.99 794.18,-523.04 795.75,-524.99 803.98,-527.99 888.16,-558.71 929.17,-526.22 997.68,-583.99 1041.29,-620.77 1063.54,-686.24 1073.25,-723.99"/>
<text text-anchor="middle" x="819.35" y="-539.95" font-family="Times,serif" font-size="14.00">874</text>
</g>
<!-- ncit
20,522&#45;&#45;omim
14,452 -->
<g id="edge40" class="edge">
<title>ncit
20,522&#45;&#45;omim
14,452</title>
<path fill="none" stroke="black" d="M611.63,-395.17C622.51,-350.4 650.17,-265.04 709.26,-223.99 874.13,-109.45 1138.23,-190.11 1230.56,-223.98"/>
<text text-anchor="middle" x="897.45" y="-173.18" font-family="Times,serif" font-size="14.00">285</text>
</g>
<!-- ncit
20,522&#45;&#45;omim.ps
588 -->
<g id="edge41" class="edge">
<title>ncit
20,522&#45;&#45;omim.ps
588</title>
<path fill="none" stroke="black" d="M637.82,-409.49C676.37,-392.96 743.38,-366.95 803.98,-356.99 833.71,-352.1 892.67,-348.52 942.18,-360.49 1065.85,-390.41 1102.67,-402.16 1200.93,-482.99 1220.48,-499.08 1237.2,-522.52 1248.46,-540.71"/>
<text text-anchor="middle" x="897.45" y="-363.69" font-family="Times,serif" font-size="14.00">64</text>
</g>
<!-- mondo
29,826&#45;&#45;icdo
797 -->
<g id="edge42" class="edge">
<title>mondo
29,826&#45;&#45;icdo
797</title>
<path fill="none" stroke="black" d="M761.95,-762.36C772.84,-784.36 788.85,-815.96 803.98,-842.99 829.77,-889.09 862.36,-941.42 881.17,-971.09"/>
<text text-anchor="middle" x="819.35" y="-896.95" font-family="Times,serif" font-size="14.00">725</text>
</g>
<!-- mondo
29,826&#45;&#45;icd10cm
2,830 -->
<g id="edge43" class="edge">
<title>mondo
29,826&#45;&#45;icd10cm
2,830</title>
<path fill="none" stroke="black" d="M772.48,-712.72C777.78,-706.52 782.76,-699.44 785.98,-691.99 817.92,-617.97 770.24,-584.71 803.98,-511.49 818.06,-480.93 845.85,-454.03 867.31,-436.45"/>
<text text-anchor="middle" x="819.35" y="-514.69" font-family="Times,serif" font-size="14.00">1,714</text>
</g>
<!-- mondo
29,826&#45;&#45;orphanet.ordo
15,507 -->
<g id="edge44" class="edge">
<title>mondo
29,826&#45;&#45;orphanet.ordo
15,507</title>
<path fill="none" stroke="black" d="M786.26,-737.04C842.16,-740.08 947.84,-745.83 1015.91,-749.53"/>
<text text-anchor="middle" x="897.45" y="-748.69" font-family="Times,serif" font-size="14.00">9,760</text>
</g>
<!-- mondo
29,826&#45;&#45;gard
6,132 -->
<g id="edge45" class="edge">
<title>mondo
29,826&#45;&#45;gard
6,132</title>
<path fill="none" stroke="black" d="M749,-764.23C751.54,-825.49 766.9,-967.05 852.73,-1032.99 967.97,-1121.53 1157.23,-1103.34 1231.95,-1091.73"/>
<text text-anchor="middle" x="978.93" y="-1095.66" font-family="Times,serif" font-size="14.00">10,733</text>
</g>
<!-- mondo
29,826&#45;&#45;omim
14,452 -->
<g id="edge46" class="edge">
<title>mondo
29,826&#45;&#45;omim
14,452</title>
<path fill="none" stroke="black" d="M778.52,-717.64C827.29,-688.57 925.76,-626.61 997.68,-559.99 1104.27,-461.25 1206.69,-319.65 1246.4,-262.42"/>
<text text-anchor="middle" x="978.93" y="-594.55" font-family="Times,serif" font-size="14.00">9,993</text>
</g>
<!-- mondo
29,826&#45;&#45;omim.ps
588 -->
<g id="edge49" class="edge">
<title>mondo
29,826&#45;&#45;omim.ps
588</title>
<path fill="none" stroke="black" d="M786.4,-733.87C867.53,-729.97 1062.28,-712.46 1200.93,-633.99 1218.13,-624.25 1233.51,-608.29 1244.73,-594.5"/>
<text text-anchor="middle" x="978.93" y="-716.57" font-family="Times,serif" font-size="14.00">591</text>
</g>
<!-- mondo
29,826&#45;&#45;icd9
3,955 -->
<g id="edge47" class="edge">
<title>mondo
29,826&#45;&#45;icd9
3,955</title>
<path fill="none" stroke="black" d="M770.38,-758.75C791.05,-781.03 823.27,-815.01 852.73,-842.99 859.14,-849.09 866.32,-855.48 872.97,-861.25"/>
<text text-anchor="middle" x="819.35" y="-826.17" font-family="Times,serif" font-size="14.00">4,417</text>
</g>
<!-- mondo
29,826&#45;&#45;icd11
71,175 -->
<g id="edge48" class="edge">
<title>mondo
29,826&#45;&#45;icd11
71,175</title>
<path fill="none" stroke="black" d="M782.63,-747.35C798.66,-753.49 817.92,-761.34 834.73,-769.49 845.63,-774.78 857.23,-781.22 867.4,-787.16"/>
<text text-anchor="middle" x="819.35" y="-772.69" font-family="Times,serif" font-size="14.00">4,139</text>
</g>
<!-- icd10cm
2,830&#45;&#45;orphanet.ordo
15,507 -->
<g id="edge50" class="edge">
<title>icd10cm
2,830&#45;&#45;orphanet.ordo
15,507</title>
<path fill="none" stroke="black" d="M921.83,-439.55C943.69,-463.53 976.13,-501.82 997.68,-539.49 1033.15,-601.52 1059.22,-681.87 1071.57,-724.11"/>
<text text-anchor="middle" x="978.93" y="-542.69" font-family="Times,serif" font-size="14.00">214</text>
</g>
<!-- icd10cm
2,830&#45;&#45;omim
14,452 -->
<g id="edge51" class="edge">
<title>icd10cm
2,830&#45;&#45;omim
14,452</title>
<path fill="none" stroke="black" d="M933.81,-397.76C1004.97,-363.08 1164.49,-285.35 1232.27,-252.31"/>
<text text-anchor="middle" x="1080.55" y="-358.37" font-family="Times,serif" font-size="14.00">58</text>
</g>
<!-- orphanet.ordo
15,507&#45;&#45;gard
6,132 -->
<g id="edge52" class="edge">
<title>orphanet.ordo
15,507&#45;&#45;gard
6,132</title>
<path fill="none" stroke="black" d="M1102.09,-780.58C1127.36,-815.31 1170.64,-877.34 1200.93,-934.49 1223,-976.13 1242.77,-1027.25 1254,-1058.19"/>
<text text-anchor="middle" x="1182.18" y="-937.69" font-family="Times,serif" font-size="14.00">47</text>
</g>
<!-- orphanet.ordo
15,507&#45;&#45;omim
14,452 -->
<g id="edge53" class="edge">
<title>orphanet.ordo
15,507&#45;&#45;omim
14,452</title>
<path fill="none" stroke="black" d="M1096.33,-724.54C1120.77,-676.59 1169.99,-576.18 1200.93,-486.99 1228.07,-408.78 1248.77,-313.05 1258.17,-265.97"/>
<text text-anchor="middle" x="1182.18" y="-579.71" font-family="Times,serif" font-size="14.00">11,449</text>
</g>
<!-- orphanet.ordo
15,507&#45;&#45;omim.ps
588 -->
<g id="edge54" class="edge">
<title>orphanet.ordo
15,507&#45;&#45;omim.ps
588</title>
<path fill="none" stroke="black" d="M1140.72,-741.85C1161.76,-735.44 1184.33,-725.46 1200.93,-709.99 1233.67,-679.49 1250.35,-628.84 1258.03,-596.99"/>
<text text-anchor="middle" x="1182.18" y="-735.42" font-family="Times,serif" font-size="14.00">98</text>
</g>
<!-- orphanet.ordo
15,507&#45;&#45;icd10
2,345 -->
<g id="edge55" class="edge">
<title>orphanet.ordo
15,507&#45;&#45;icd10
2,345</title>
<path fill="none" stroke="black" d="M1091.8,-782.02C1114.05,-844.77 1168.84,-997.56 1218.93,-1123.99 1229.67,-1151.11 1242.73,-1181.77 1251.97,-1203.12"/>
<text text-anchor="middle" x="1182.18" y="-1077.08" font-family="Times,serif" font-size="14.00">7,850</text>
</g>
</g>
</svg>
