<?xml version="1.0" encoding="UTF-8" standalone="no"?>
<!DOCTYPE svg PUBLIC "-//W3C//DTD SVG 1.1//EN"
 "http://www.w3.org/Graphics/SVG/1.1/DTD/svg11.dtd">
<!-- Generated by graphviz version 10.0.1 (20240210.2158)
 -->
<!-- Pages: 1 -->
<svg width="1491pt" height="1398pt"
 viewBox="0.00 0.00 1491.49 1397.50" xmlns="http://www.w3.org/2000/svg" xmlns:xlink="http://www.w3.org/1999/xlink">
<g id="graph0" class="graph" transform="scale(1 1) rotate(0) translate(4 1393.5)">
<polygon fill="white" stroke="none" points="-4,4 -4,-1393.5 1487.49,-1393.5 1487.49,4 -4,4"/>
<!-- doid
11,537 -->
<g id="node1" class="node">
<title>doid
11,537</title>
<ellipse fill="none" stroke="black" cx="37.83" cy="-332" rx="37.83" ry="28.99"/>
<text text-anchor="middle" x="37.83" y="-335.2" font-family="Times,serif" font-size="14.00">doid</text>
<text text-anchor="middle" x="37.83" y="-318.7" font-family="Times,serif" font-size="14.00">11,537</text>
</g>
<!-- umls
178,734 -->
<g id="node2" class="node">
<title>umls
178,734</title>
<ellipse fill="none" stroke="black" cx="185.01" cy="-647" rx="42.6" ry="28.99"/>
<text text-anchor="middle" x="185.01" y="-650.2" font-family="Times,serif" font-size="14.00">umls</text>
<text text-anchor="middle" x="185.01" y="-633.7" font-family="Times,serif" font-size="14.00">178,734</text>
</g>
<!-- doid
11,537&#45;&#45;umls
178,734 -->
<g id="edge1" class="edge">
<title>doid
11,537&#45;&#45;umls
178,734</title>
<path fill="none" stroke="black" d="M50.2,-359.86C61.02,-386.1 77.94,-426.45 93.66,-461 119.53,-517.86 151.98,-583.35 170.11,-619.47"/>
<text text-anchor="middle" x="109.04" y="-525.2" font-family="Times,serif" font-size="14.00">7,700</text>
</g>
<!-- efo
2,080 -->
<g id="node3" class="node">
<title>efo
2,080</title>
<ellipse fill="none" stroke="black" cx="334.32" cy="-605" rx="33.06" ry="28.99"/>
<text text-anchor="middle" x="334.32" y="-608.2" font-family="Times,serif" font-size="14.00">efo</text>
<text text-anchor="middle" x="334.32" y="-591.7" font-family="Times,serif" font-size="14.00">2,080</text>
</g>
<!-- doid
11,537&#45;&#45;efo
2,080 -->
<g id="edge2" class="edge">
<title>doid
11,537&#45;&#45;efo
2,080</title>
<path fill="none" stroke="black" d="M62.43,-353.88C117.98,-405.38 256.39,-533.68 310.82,-584.15"/>
<text text-anchor="middle" x="185.01" y="-507.2" font-family="Times,serif" font-size="14.00">1,257</text>
</g>
<!-- mesh
3,125 -->
<g id="node4" class="node">
<title>mesh
3,125</title>
<ellipse fill="none" stroke="black" cx="480.83" cy="-1079" rx="33.06" ry="28.99"/>
<text text-anchor="middle" x="480.83" y="-1082.2" font-family="Times,serif" font-size="14.00">mesh</text>
<text text-anchor="middle" x="480.83" y="-1065.7" font-family="Times,serif" font-size="14.00">3,125</text>
</g>
<!-- doid
11,537&#45;&#45;mesh
3,125 -->
<g id="edge3" class="edge">
<title>doid
11,537&#45;&#45;mesh
3,125</title>
<path fill="none" stroke="black" d="M41.51,-361.06C51.95,-461.68 96.97,-801.59 245.62,-1031 261.33,-1055.25 267.48,-1063.42 294.37,-1074 345.17,-1093.99 410,-1089.7 448.01,-1084.52"/>
<text text-anchor="middle" x="260.99" y="-1068.2" font-family="Times,serif" font-size="14.00">671</text>
</g>
<!-- ncit
20,095 -->
<g id="node5" class="node">
<title>ncit
20,095</title>
<ellipse fill="none" stroke="black" cx="625.21" cy="-960" rx="37.83" ry="28.99"/>
<text text-anchor="middle" x="625.21" y="-963.2" font-family="Times,serif" font-size="14.00">ncit</text>
<text text-anchor="middle" x="625.21" y="-946.7" font-family="Times,serif" font-size="14.00">20,095</text>
</g>
<!-- doid
11,537&#45;&#45;ncit
20,095 -->
<g id="edge4" class="edge">
<title>doid
11,537&#45;&#45;ncit
20,095</title>
<path fill="none" stroke="black" d="M40.86,-360.94C51.43,-505.76 102.65,-1145 184.01,-1145 184.01,-1145 184.01,-1145 481.83,-1145 559.85,-1145 601.04,-1040.39 616.68,-988.5"/>
<text text-anchor="middle" x="334.32" y="-1148.2" font-family="Times,serif" font-size="14.00">5,097</text>
</g>
<!-- mondo
24,201 -->
<g id="node6" class="node">
<title>mondo
24,201</title>
<ellipse fill="none" stroke="black" cx="774.91" cy="-677" rx="38.36" ry="28.99"/>
<text text-anchor="middle" x="774.91" y="-680.2" font-family="Times,serif" font-size="14.00">mondo</text>
<text text-anchor="middle" x="774.91" y="-663.7" font-family="Times,serif" font-size="14.00">24,201</text>
</g>
<!-- doid
11,537&#45;&#45;mondo
24,201 -->
<g id="edge5" class="edge">
<title>doid
11,537&#45;&#45;mondo
24,201</title>
<path fill="none" stroke="black" d="M75.4,-327.14C123.45,-322.29 209.53,-318.99 276.37,-346 445.27,-414.27 428.36,-524.12 587.38,-613 640.81,-642.86 660.92,-634.35 718.54,-655 725.75,-657.58 733.41,-660.51 740.67,-663.37"/>
<text text-anchor="middle" x="411.02" y="-466.2" font-family="Times,serif" font-size="14.00">11,472</text>
</g>
<!-- icdo
800 -->
<g id="node7" class="node">
<title>icdo
800</title>
<ellipse fill="none" stroke="black" cx="931.49" cy="-423" rx="27.75" ry="28.99"/>
<text text-anchor="middle" x="931.49" y="-426.2" font-family="Times,serif" font-size="14.00">icdo</text>
<text text-anchor="middle" x="931.49" y="-409.7" font-family="Times,serif" font-size="14.00">800</text>
</g>
<!-- doid
11,537&#45;&#45;icdo
800 -->
<g id="edge6" class="edge">
<title>doid
11,537&#45;&#45;icdo
800</title>
<path fill="none" stroke="black" d="M43.86,-303.13C50.28,-275.95 64.31,-236.71 93.66,-218 251.15,-117.59 330.67,-177.21 513.88,-213.5 669.34,-244.29 691.56,-301.2 831.27,-376 856.14,-389.31 885.41,-402.94 905.69,-412.07"/>
<text text-anchor="middle" x="480.83" y="-217.2" font-family="Times,serif" font-size="14.00">470</text>
</g>
<!-- icd10cm
21,556 -->
<g id="node8" class="node">
<title>icd10cm
21,556</title>
<ellipse fill="none" stroke="black" cx="931.49" cy="-999" rx="44.72" ry="28.99"/>
<text text-anchor="middle" x="931.49" y="-1002.2" font-family="Times,serif" font-size="14.00">icd10cm</text>
<text text-anchor="middle" x="931.49" y="-985.7" font-family="Times,serif" font-size="14.00">21,556</text>
</g>
<!-- doid
11,537&#45;&#45;icd10cm
21,556 -->
<g id="edge7" class="edge">
<title>doid
11,537&#45;&#45;icd10cm
21,556</title>
<path fill="none" stroke="black" d="M39.43,-361.33C41.69,-451.35 51.85,-731.43 93.66,-959 108.02,-1037.15 116,-1056.06 142.41,-1131 158.14,-1175.63 136.7,-1229 184.01,-1229 184.01,-1229 184.01,-1229 412.02,-1229 465.61,-1229 824.72,-1104.53 868.77,-1074 887.06,-1061.32 902.9,-1041.78 913.95,-1025.82"/>
<text text-anchor="middle" x="480.83" y="-1225.2" font-family="Times,serif" font-size="14.00">3,592</text>
</g>
<!-- icd9cm
9,236 -->
<g id="node9" class="node">
<title>icd9cm
9,236</title>
<ellipse fill="none" stroke="black" cx="334.32" cy="-289" rx="39.95" ry="28.99"/>
<text text-anchor="middle" x="334.32" y="-292.2" font-family="Times,serif" font-size="14.00">icd9cm</text>
<text text-anchor="middle" x="334.32" y="-275.7" font-family="Times,serif" font-size="14.00">9,236</text>
</g>
<!-- doid
11,537&#45;&#45;icd9cm
9,236 -->
<g id="edge8" class="edge">
<title>doid
11,537&#45;&#45;icd9cm
9,236</title>
<path fill="none" stroke="black" d="M72.43,-320.05C92.49,-313.44 118.6,-305.73 142.41,-301.5 194.24,-292.29 255.07,-289.69 293.89,-289.05"/>
<text text-anchor="middle" x="185.01" y="-304.2" font-family="Times,serif" font-size="14.00">2,237</text>
</g>
<!-- orphanet.ordo
14,495 -->
<g id="node10" class="node">
<title>orphanet.ordo
14,495</title>
<ellipse fill="none" stroke="black" cx="1107.84" cy="-987" rx="64.88" ry="28.99"/>
<text text-anchor="middle" x="1107.84" y="-990.2" font-family="Times,serif" font-size="14.00">orphanet.ordo</text>
<text text-anchor="middle" x="1107.84" y="-973.7" font-family="Times,serif" font-size="14.00">14,495</text>
</g>
<!-- doid
11,537&#45;&#45;orphanet.ordo
14,495 -->
<g id="edge9" class="edge">
<title>doid
11,537&#45;&#45;orphanet.ordo
14,495</title>
<path fill="none" stroke="black" d="M38.89,-361.3C39.57,-457.97 45.56,-775.3 93.66,-1032 115.19,-1146.89 67.12,-1279 184.01,-1279 184.01,-1279 184.01,-1279 551.63,-1279 755.57,-1279 802.35,-1211.58 976.21,-1105 1017.64,-1079.61 1058,-1040.24 1082.64,-1014.05"/>
<text text-anchor="middle" x="550.63" y="-1282.2" font-family="Times,serif" font-size="14.00">2,468</text>
</g>
<!-- gard
12,292 -->
<g id="node11" class="node">
<title>gard
12,292</title>
<ellipse fill="none" stroke="black" cx="931.49" cy="-347" rx="37.83" ry="28.99"/>
<text text-anchor="middle" x="931.49" y="-350.2" font-family="Times,serif" font-size="14.00">gard</text>
<text text-anchor="middle" x="931.49" y="-333.7" font-family="Times,serif" font-size="14.00">12,292</text>
</g>
<!-- doid
11,537&#45;&#45;gard
12,292 -->
<g id="edge10" class="edge">
<title>doid
11,537&#45;&#45;gard
12,292</title>
<path fill="none" stroke="black" d="M43.59,-303.17C55.4,-242.68 92.02,-108 184.01,-108 184.01,-108 184.01,-108 412.02,-108 530.69,-108 574.84,-119.61 663.04,-199 676.64,-211.23 668.93,-222.3 681.04,-236 700.52,-258.02 710.36,-258.63 736.54,-272 790.24,-299.42 856.41,-322.98 895.93,-336.05"/>
<text text-anchor="middle" x="480.83" y="-118.2" font-family="Times,serif" font-size="14.00">2,110</text>
</g>
<!-- omim
20,292 -->
<g id="node12" class="node">
<title>omim
20,292</title>
<ellipse fill="none" stroke="black" cx="1292" cy="-740" rx="37.83" ry="28.99"/>
<text text-anchor="middle" x="1292" y="-743.2" font-family="Times,serif" font-size="14.00">omim</text>
<text text-anchor="middle" x="1292" y="-726.7" font-family="Times,serif" font-size="14.00">20,292</text>
</g>
<!-- doid
11,537&#45;&#45;omim
20,292 -->
<g id="edge11" class="edge">
<title>doid
11,537&#45;&#45;omim
20,292</title>
<path fill="none" stroke="black" d="M67.78,-313.96C75.95,-309.33 84.99,-304.64 93.66,-301 138.87,-282.04 252.59,-255.88 294.37,-251 329.64,-246.88 338.8,-249.3 374.27,-251 391.05,-251.81 961.19,-301.49 976.21,-309 1150.5,-396.04 1250.84,-630.83 1281.14,-711.96"/>
<text text-anchor="middle" x="625.21" y="-280.2" font-family="Times,serif" font-size="14.00">5,941</text>
</g>
<!-- omim.ps
576 -->
<g id="node13" class="node">
<title>omim.ps
576</title>
<ellipse fill="none" stroke="black" cx="1292" cy="-564" rx="45.79" ry="28.99"/>
<text text-anchor="middle" x="1292" y="-567.2" font-family="Times,serif" font-size="14.00">omim.ps</text>
<text text-anchor="middle" x="1292" y="-550.7" font-family="Times,serif" font-size="14.00">576</text>
</g>
<!-- doid
11,537&#45;&#45;omim.ps
576 -->
<g id="edge12" class="edge">
<title>doid
11,537&#45;&#45;omim.ps
576</title>
<path fill="none" stroke="black" d="M40.95,-302.85C47.78,-233.03 75.57,-62 184.01,-62 184.01,-62 184.01,-62 412.02,-62 596.56,-62 1117.94,-67.04 1228.22,-215 1251.45,-246.17 1239.38,-350.73 1246.22,-389 1255.54,-441.17 1272.07,-500.73 1282.23,-535.18"/>
<text text-anchor="middle" x="625.21" y="-71.2" font-family="Times,serif" font-size="14.00">51</text>
</g>
<!-- orphanet
15,348 -->
<g id="node14" class="node">
<title>orphanet
15,348</title>
<ellipse fill="none" stroke="black" cx="1438.76" cy="-852" rx="44.72" ry="28.99"/>
<text text-anchor="middle" x="1438.76" y="-855.2" font-family="Times,serif" font-size="14.00">orphanet</text>
<text text-anchor="middle" x="1438.76" y="-838.7" font-family="Times,serif" font-size="14.00">15,348</text>
</g>
<!-- doid
11,537&#45;&#45;orphanet
15,348 -->
<g id="edge13" class="edge">
<title>doid
11,537&#45;&#45;orphanet
15,348</title>
<path fill="none" stroke="black" d="M38.42,-302.54C38.97,-221.28 52.53,0 184.01,0 184.01,0 184.01,0 1293,0 1386.08,0 1375.06,-172.41 1376.04,-178 1419.36,-424.8 1433.34,-728.12 1436.8,-822.54"/>
<text text-anchor="middle" x="699.79" y="-3.2" font-family="Times,serif" font-size="14.00">398</text>
</g>
<!-- umls
178,734&#45;&#45;efo
2,080 -->
<g id="edge14" class="edge">
<title>umls
178,734&#45;&#45;efo
2,080</title>
<path fill="none" stroke="black" d="M224.72,-635.96C249.1,-629.01 280.13,-620.17 302.77,-613.71"/>
<text text-anchor="middle" x="260.99" y="-632.2" font-family="Times,serif" font-size="14.00">1,569</text>
</g>
<!-- umls
178,734&#45;&#45;mesh
3,125 -->
<g id="edge15" class="edge">
<title>umls
178,734&#45;&#45;mesh
3,125</title>
<path fill="none" stroke="black" d="M186.9,-676.45C189.82,-754.02 201.65,-961.4 245.62,-1011 259.31,-1026.45 388.03,-1057.82 448.6,-1071.89"/>
<text text-anchor="middle" x="334.32" y="-1056.2" font-family="Times,serif" font-size="14.00">2,205</text>
</g>
<!-- umls
178,734&#45;&#45;ncit
20,095 -->
<g id="edge16" class="edge">
<title>umls
178,734&#45;&#45;ncit
20,095</title>
<path fill="none" stroke="black" d="M185.69,-676.37C186.85,-721.78 195.93,-808.91 245.62,-858 294.59,-906.38 502.49,-941.98 587.63,-954.8"/>
<text text-anchor="middle" x="411.02" y="-928.2" font-family="Times,serif" font-size="14.00">19,017</text>
</g>
<!-- umls
178,734&#45;&#45;mondo
24,201 -->
<g id="edge17" class="edge">
<title>umls
178,734&#45;&#45;mondo
24,201</title>
<path fill="none" stroke="black" d="M226.54,-654.37C268,-661.52 334.38,-671.87 392.27,-676 518,-684.96 667.63,-681.16 736.2,-678.61"/>
<text text-anchor="middle" x="480.83" y="-684.2" font-family="Times,serif" font-size="14.00">16,368</text>
</g>
<!-- umls
178,734&#45;&#45;icd10cm
21,556 -->
<g id="edge18" class="edge">
<title>umls
178,734&#45;&#45;icd10cm
21,556</title>
<path fill="none" stroke="black" d="M193.22,-675.66C208.92,-738.09 244.89,-880.9 245.62,-882 290.8,-950.12 315.12,-965.99 392.27,-993 567.78,-1054.45 795.66,-1023.99 888.43,-1007.38"/>
<text text-anchor="middle" x="550.63" y="-1029.2" font-family="Times,serif" font-size="14.00">24,997</text>
</g>
<!-- umls
178,734&#45;&#45;icd9cm
9,236 -->
<g id="edge19" class="edge">
<title>umls
178,734&#45;&#45;icd9cm
9,236</title>
<path fill="none" stroke="black" d="M193.18,-618.27C201.87,-583 216.71,-521.29 227.62,-468 236.81,-423.12 223.2,-406.46 245.62,-366.5 259.34,-342.05 283.75,-321.44 303.34,-307.63"/>
<text text-anchor="middle" x="260.99" y="-369.2" font-family="Times,serif" font-size="14.00">9,109</text>
</g>
<!-- umls
178,734&#45;&#45;orphanet.ordo
14,495 -->
<g id="edge20" class="edge">
<title>umls
178,734&#45;&#45;orphanet.ordo
14,495</title>
<path fill="none" stroke="black" d="M193.05,-675.65C208.38,-730.28 250.26,-844 333.32,-844 333.32,-844 333.32,-844 626.21,-844 642.59,-844 646.76,-842.85 663.04,-844.5 698.28,-848.06 943.74,-889.87 976.21,-904 1009.96,-918.69 1011.81,-933.41 1042.96,-953 1049.67,-957.21 1056.94,-961.41 1064.09,-965.35"/>
<text text-anchor="middle" x="625.21" y="-847.2" font-family="Times,serif" font-size="14.00">8,104</text>
</g>
<!-- umls
178,734&#45;&#45;omim
20,292 -->
<g id="edge21" class="edge">
<title>umls
178,734&#45;&#45;omim
20,292</title>
<path fill="none" stroke="black" d="M209.87,-623.14C230.38,-604.29 261.73,-579.19 294.37,-567 511.09,-486.06 585.45,-566.26 813.27,-526 821.44,-524.56 823.04,-522.12 831.27,-521 847.78,-518.75 852.14,-519.77 868.77,-521 916.92,-524.57 940.75,-504.23 976.21,-537 1002.35,-561.14 971.31,-587.78 994.21,-615 1029.63,-657.09 1185.91,-708.32 1256.36,-729.77"/>
<text text-anchor="middle" x="699.79" y="-541.2" font-family="Times,serif" font-size="14.00">18,060</text>
</g>
<!-- umls
178,734&#45;&#45;omim.ps
576 -->
<g id="edge22" class="edge">
<title>umls
178,734&#45;&#45;omim.ps
576</title>
<path fill="none" stroke="black" d="M196.3,-618.58C205.07,-593.96 217.77,-557.33 227.62,-525 236.6,-495.5 225.79,-481.61 245.62,-458 286.19,-409.68 318.31,-427.13 374.27,-398 576.16,-292.92 621.42,-206 849.02,-206 849.02,-206 849.02,-206 1108.84,-206 1165.24,-206 1191.42,-206.27 1228.22,-249 1265.15,-291.89 1282.99,-464.83 1288.79,-534.6"/>
<text text-anchor="middle" x="699.79" y="-232.2" font-family="Times,serif" font-size="14.00">42</text>
</g>
<!-- umls
178,734&#45;&#45;orphanet
15,348 -->
<g id="edge24" class="edge">
<title>umls
178,734&#45;&#45;orphanet
15,348</title>
<path fill="none" stroke="black" d="M196.96,-618.77C206.15,-594.27 219.09,-557.7 227.62,-525 238.79,-482.15 222.63,-464.85 245.62,-427 283.21,-365.1 327.12,-381.97 374.27,-327 417.99,-276.04 405.84,-247.45 447.77,-195 449.39,-192.97 585.07,-71.18 587.38,-70 632.52,-47.01 648.14,-46 698.79,-46 698.79,-46 698.79,-46 1293,-46 1373.6,-46 1424.99,-678.34 1435.68,-822.84"/>
<text text-anchor="middle" x="774.91" y="-49.2" font-family="Times,serif" font-size="14.00">8,356</text>
</g>
<!-- icd10
2,345 -->
<g id="node15" class="node">
<title>icd10
2,345</title>
<ellipse fill="none" stroke="black" cx="1292" cy="-1343" rx="33.06" ry="28.99"/>
<text text-anchor="middle" x="1292" y="-1346.2" font-family="Times,serif" font-size="14.00">icd10</text>
<text text-anchor="middle" x="1292" y="-1329.7" font-family="Times,serif" font-size="14.00">2,345</text>
</g>
<!-- umls
178,734&#45;&#45;icd10
2,345 -->
<g id="edge23" class="edge">
<title>umls
178,734&#45;&#45;icd10
2,345</title>
<path fill="none" stroke="black" d="M185.9,-676.47C186.49,-748.56 193.32,-938.68 245.62,-1086 259.55,-1125.24 265.38,-1136.11 294.37,-1166 477.96,-1355.36 585.27,-1377 849.02,-1377 849.02,-1377 849.02,-1377 1108.84,-1377 1162.89,-1377 1224.45,-1362.36 1260.39,-1352.29"/>
<text text-anchor="middle" x="699.79" y="-1376.2" font-family="Times,serif" font-size="14.00">5,769</text>
</g>
<!-- efo
2,080&#45;&#45;mesh
3,125 -->
<g id="edge25" class="edge">
<title>efo
2,080&#45;&#45;mesh
3,125</title>
<path fill="none" stroke="black" d="M335.95,-634.29C338.15,-695.24 348.03,-839.22 392.27,-950 401.05,-971.99 438.74,-1024.2 461.72,-1055.03"/>
<text text-anchor="middle" x="411.02" y="-1012.2" font-family="Times,serif" font-size="14.00">364</text>
</g>
<!-- efo
2,080&#45;&#45;ncit
20,095 -->
<g id="edge26" class="edge">
<title>efo
2,080&#45;&#45;ncit
20,095</title>
<path fill="none" stroke="black" d="M340.55,-633.78C347.81,-667.94 363.43,-725.51 392.27,-767 396.05,-772.44 538.98,-890.04 598.55,-938.95"/>
<text text-anchor="middle" x="480.83" y="-872.2" font-family="Times,serif" font-size="14.00">1,235</text>
</g>
<!-- efo
2,080&#45;&#45;mondo
24,201 -->
<g id="edge27" class="edge">
<title>efo
2,080&#45;&#45;mondo
24,201</title>
<path fill="none" stroke="black" d="M367.44,-609.69C433.37,-619.4 588.73,-642.78 718.54,-666 724.62,-667.09 731.06,-668.31 737.31,-669.52"/>
<text text-anchor="middle" x="550.63" y="-643.2" font-family="Times,serif" font-size="14.00">1,699</text>
</g>
<!-- efo
2,080&#45;&#45;icdo
800 -->
<g id="edge28" class="edge">
<title>efo
2,080&#45;&#45;icdo
800</title>
<path fill="none" stroke="black" d="M350.67,-579.25C360.81,-564.2 375.32,-545.89 392.27,-534 467.28,-481.39 498.15,-488.27 587.38,-467.5 703.22,-440.53 845.12,-428.66 903.47,-424.67"/>
<text text-anchor="middle" x="625.21" y="-470.2" font-family="Times,serif" font-size="14.00">72</text>
</g>
<!-- efo
2,080&#45;&#45;icd10cm
21,556 -->
<g id="edge29" class="edge">
<title>efo
2,080&#45;&#45;icd10cm
21,556</title>
<path fill="none" stroke="black" d="M351.19,-630.05C361.52,-644.85 376.05,-663.14 392.27,-676 496.8,-758.88 548.37,-737.35 663.04,-805.5 755.17,-860.25 855.41,-938.26 902.75,-976.34"/>
<text text-anchor="middle" x="625.21" y="-808.2" font-family="Times,serif" font-size="14.00">309</text>
</g>
<!-- efo
2,080&#45;&#45;orphanet.ordo
14,495 -->
<g id="edge30" class="edge">
<title>efo
2,080&#45;&#45;orphanet.ordo
14,495</title>
<path fill="none" stroke="black" d="M364.17,-618.01C373.13,-621.96 383.07,-626.24 392.27,-630 445.77,-651.84 460.58,-653.68 513.88,-676 589.33,-707.6 604.59,-723.94 681.04,-753 762.55,-783.98 789.21,-774.31 868.77,-810 877.32,-813.84 878.54,-816.51 886.77,-821 946.67,-853.72 981.26,-835.56 1024.96,-888 1044.16,-911.03 1024.21,-929.61 1042.96,-953 1047.44,-958.59 1053.1,-963.37 1059.18,-967.43"/>
<text text-anchor="middle" x="699.79" y="-768.2" font-family="Times,serif" font-size="14.00">197</text>
</g>
<!-- efo
2,080&#45;&#45;gard
12,292 -->
<g id="edge31" class="edge">
<title>efo
2,080&#45;&#45;gard
12,292</title>
<path fill="none" stroke="black" d="M345.8,-577.78C355.25,-556.11 370.96,-526.17 392.27,-506 412.33,-487.01 422.26,-488.62 447.77,-478 608.11,-411.27 812.55,-368.85 894.32,-353.48"/>
<text text-anchor="middle" x="625.21" y="-430.2" font-family="Times,serif" font-size="14.00">304</text>
</g>
<!-- efo
2,080&#45;&#45;omim
20,292 -->
<g id="edge32" class="edge">
<title>efo
2,080&#45;&#45;omim
20,292</title>
<path fill="none" stroke="black" d="M366.72,-598.04C475.74,-573.86 831.27,-495 831.27,-495 895.43,-487.97 914.94,-483.72 976.21,-504 1101.49,-545.46 1129.97,-572.91 1228.22,-661 1245.83,-676.79 1262.33,-697.89 1273.99,-714.32"/>
<text text-anchor="middle" x="774.91" y="-518.2" font-family="Times,serif" font-size="14.00">327</text>
</g>
<!-- efo
2,080&#45;&#45;omim.ps
576 -->
<g id="edge34" class="edge">
<title>efo
2,080&#45;&#45;omim.ps
576</title>
<path fill="none" stroke="black" d="M342.66,-576.51C350.93,-549.09 366.66,-507.8 392.27,-480 403.68,-467.61 781.81,-252 849.02,-252 849.02,-252 849.02,-252 1108.84,-252 1162.96,-252 1189.64,-238.04 1228.22,-276 1264.88,-312.07 1282.68,-469.04 1288.63,-534.83"/>
<text text-anchor="middle" x="774.91" y="-294.2" font-family="Times,serif" font-size="14.00">26</text>
</g>
<!-- efo
2,080&#45;&#45;orphanet
15,348 -->
<g id="edge36" class="edge">
<title>efo
2,080&#45;&#45;orphanet
15,348</title>
<path fill="none" stroke="black" d="M341.69,-576.5C349.79,-544.47 365.98,-491.86 392.27,-453 408.71,-428.7 564.04,-292.78 587.38,-275 796.42,-115.81 915.58,-137.97 1172.72,-192 1334.76,-226.05 1285.99,-368.73 1337.79,-526 1373.81,-635.36 1412.8,-766.73 1429.46,-823.53"/>
<text text-anchor="middle" x="850.02" y="-161.2" font-family="Times,serif" font-size="14.00">151</text>
</g>
<!-- efo
2,080&#45;&#45;icd10
2,345 -->
<g id="edge35" class="edge">
<title>efo
2,080&#45;&#45;icd10
2,345</title>
<path fill="none" stroke="black" d="M334.96,-634.38C335,-704.9 340.5,-888.42 392.27,-1030 408.02,-1073.08 421.22,-1079.6 447.77,-1117 475.27,-1155.74 494.37,-1157.68 513.88,-1201 532.26,-1241.77 498.37,-1270.39 531.88,-1300 586.97,-1348.68 1120.93,-1345.2 1258.7,-1343.48"/>
<text text-anchor="middle" x="774.91" y="-1341.2" font-family="Times,serif" font-size="14.00">503</text>
</g>
<!-- icd9
3,984 -->
<g id="node16" class="node">
<title>icd9
3,984</title>
<ellipse fill="none" stroke="black" cx="931.49" cy="-575" rx="33.06" ry="28.99"/>
<text text-anchor="middle" x="931.49" y="-578.2" font-family="Times,serif" font-size="14.00">icd9</text>
<text text-anchor="middle" x="931.49" y="-561.7" font-family="Times,serif" font-size="14.00">3,984</text>
</g>
<!-- efo
2,080&#45;&#45;icd9
3,984 -->
<g id="edge33" class="edge">
<title>efo
2,080&#45;&#45;icd9
3,984</title>
<path fill="none" stroke="black" d="M367.56,-606.02C467.62,-608.96 771.92,-616.11 868.77,-598 879.78,-595.94 891.41,-592.09 901.57,-588.11"/>
<text text-anchor="middle" x="625.21" y="-612.2" font-family="Times,serif" font-size="14.00">1,167</text>
</g>
<!-- mesh
3,125&#45;&#45;ncit
20,095 -->
<g id="edge37" class="edge">
<title>mesh
3,125&#45;&#45;ncit
20,095</title>
<path fill="none" stroke="black" d="M487.76,-1050.31C494.31,-1026.18 507.36,-992.76 531.88,-974.5 547.63,-962.78 569.12,-958.9 587.41,-958.06"/>
<text text-anchor="middle" x="550.63" y="-977.2" font-family="Times,serif" font-size="14.00">397</text>
</g>
<!-- mesh
3,125&#45;&#45;mondo
24,201 -->
<g id="edge38" class="edge">
<title>mesh
3,125&#45;&#45;mondo
24,201</title>
<path fill="none" stroke="black" d="M489.24,-1050.58C497.02,-1024.19 511.05,-984.62 531.88,-955 550.9,-927.97 560.29,-924.43 587.38,-905.5 618.65,-883.65 641.52,-896.48 663.04,-865 700.7,-809.94 640.85,-769.23 681.04,-716 694.43,-698.28 717.38,-688.54 737.12,-683.23"/>
<text text-anchor="middle" x="625.21" y="-908.2" font-family="Times,serif" font-size="14.00">880</text>
</g>
<!-- mesh
3,125&#45;&#45;icd10cm
21,556 -->
<g id="edge39" class="edge">
<title>mesh
3,125&#45;&#45;icd10cm
21,556</title>
<path fill="none" stroke="black" d="M513.74,-1083.69C581.99,-1092.3 745.96,-1105.37 868.77,-1054 884.13,-1047.57 898.24,-1035.68 909.08,-1024.59"/>
<text text-anchor="middle" x="699.79" y="-1093.2" font-family="Times,serif" font-size="14.00">189</text>
</g>
<!-- mesh
3,125&#45;&#45;orphanet.ordo
14,495 -->
<g id="edge40" class="edge">
<title>mesh
3,125&#45;&#45;orphanet.ordo
14,495</title>
<path fill="none" stroke="black" d="M508.03,-1095.68C550.89,-1121.06 639.16,-1165.5 718.54,-1156 862.82,-1138.73 897.36,-1111.5 1024.96,-1042 1041.36,-1033.07 1058.63,-1021.78 1073.07,-1011.75"/>
<text text-anchor="middle" x="774.91" y="-1156.2" font-family="Times,serif" font-size="14.00">127</text>
</g>
<!-- mesh
3,125&#45;&#45;orphanet
15,348 -->
<g id="edge41" class="edge">
<title>mesh
3,125&#45;&#45;orphanet
15,348</title>
<path fill="none" stroke="black" d="M500.98,-1102.28C509.73,-1111.96 520.63,-1122.82 531.88,-1131 554.07,-1147.13 561.68,-1148.42 587.38,-1158 744.9,-1216.74 1197.64,-1346.86 1337.79,-1254 1400.96,-1212.14 1427.88,-966.76 1435.42,-881.32"/>
<text text-anchor="middle" x="931.49" y="-1266.2" font-family="Times,serif" font-size="14.00">118</text>
</g>
<!-- ncit
20,095&#45;&#45;mondo
24,201 -->
<g id="edge42" class="edge">
<title>ncit
20,095&#45;&#45;mondo
24,201</title>
<path fill="none" stroke="black" d="M650.12,-937.83C655.2,-931.89 659.96,-925.12 663.04,-918 695.31,-843.64 638.33,-805.4 681.04,-736.5 691.41,-719.78 701.97,-723.58 718.54,-713 727.24,-707.45 736.67,-701.35 745.23,-695.78"/>
<text text-anchor="middle" x="699.79" y="-739.2" font-family="Times,serif" font-size="14.00">7,233</text>
</g>
<!-- ncit
20,095&#45;&#45;icd10cm
21,556 -->
<g id="edge43" class="edge">
<title>ncit
20,095&#45;&#45;icd10cm
21,556</title>
<path fill="none" stroke="black" d="M663.28,-961.47C701.13,-963.29 761.51,-967.12 813.27,-974.5 838.69,-978.13 866.86,-983.96 889.22,-989.02"/>
<text text-anchor="middle" x="774.91" y="-977.2" font-family="Times,serif" font-size="14.00">480</text>
</g>
<!-- ncit
20,095&#45;&#45;orphanet.ordo
14,495 -->
<g id="edge44" class="edge">
<title>ncit
20,095&#45;&#45;orphanet.ordo
14,495</title>
<path fill="none" stroke="black" d="M657.44,-975.44C718.45,-1003.69 857.83,-1058.88 976.21,-1037 1006.18,-1031.46 1038.16,-1019.34 1062.98,-1008.41"/>
<text text-anchor="middle" x="850.02" y="-1041.2" font-family="Times,serif" font-size="14.00">510</text>
</g>
<!-- ncit
20,095&#45;&#45;omim
20,292 -->
<g id="edge45" class="edge">
<title>ncit
20,095&#45;&#45;omim
20,292</title>
<path fill="none" stroke="black" d="M661.58,-951.72C782.88,-923.16 1177.43,-828.96 1228.22,-800 1244.33,-790.81 1259.45,-776.6 1270.82,-764.32"/>
<text text-anchor="middle" x="931.49" y="-899.2" font-family="Times,serif" font-size="14.00">158</text>
</g>
<!-- ncit
20,095&#45;&#45;omim.ps
576 -->
<g id="edge46" class="edge">
<title>ncit
20,095&#45;&#45;omim.ps
576</title>
<path fill="none" stroke="black" d="M651.47,-938.75C696.89,-901.04 796.09,-821 886.77,-763.5 953.69,-721.06 1167.67,-620.94 1254.19,-580.94"/>
<text text-anchor="middle" x="931.49" y="-766.2" font-family="Times,serif" font-size="14.00">23</text>
</g>
<!-- ncit
20,095&#45;&#45;orphanet
15,348 -->
<g id="edge47" class="edge">
<title>ncit
20,095&#45;&#45;orphanet
15,348</title>
<path fill="none" stroke="black" d="M643.45,-985.84C691.98,-1055.16 837.45,-1240 1008.59,-1240 1008.59,-1240 1008.59,-1240 1293,-1240 1369.57,-1240 1418.94,-971.4 1433.36,-881.16"/>
<text text-anchor="middle" x="1009.59" y="-1243.2" font-family="Times,serif" font-size="14.00">445</text>
</g>
<!-- mondo
24,201&#45;&#45;icdo
800 -->
<g id="edge48" class="edge">
<title>mondo
24,201&#45;&#45;icdo
800</title>
<path fill="none" stroke="black" d="M794.23,-651.54C804.84,-637.01 818.56,-618.55 831.27,-602.5 847.32,-582.22 854.93,-579.85 868.77,-558 891.1,-522.73 909.89,-478.04 920.67,-449.97"/>
<text text-anchor="middle" x="850.02" y="-605.2" font-family="Times,serif" font-size="14.00">732</text>
</g>
<!-- mondo
24,201&#45;&#45;icd10cm
21,556 -->
<g id="edge49" class="edge">
<title>mondo
24,201&#45;&#45;icd10cm
21,556</title>
<path fill="none" stroke="black" d="M790.28,-703.95C810.24,-742.26 846.39,-815.1 868.77,-880.5 880.07,-913.55 869.46,-926.66 886.77,-957 890.83,-964.13 896.48,-970.82 902.37,-976.67"/>
<text text-anchor="middle" x="850.02" y="-883.2" font-family="Times,serif" font-size="14.00">1,647</text>
</g>
<!-- mondo
24,201&#45;&#45;orphanet.ordo
14,495 -->
<g id="edge50" class="edge">
<title>mondo
24,201&#45;&#45;orphanet.ordo
14,495</title>
<path fill="none" stroke="black" d="M789.44,-704.1C799.12,-721.19 813.55,-742.65 831.27,-757 903.78,-815.73 967.39,-764.57 1024.96,-838 1056.89,-878.71 1012.97,-910.85 1042.96,-953 1047.12,-958.83 1052.59,-963.76 1058.58,-967.88"/>
<text text-anchor="middle" x="931.49" y="-803.2" font-family="Times,serif" font-size="14.00">9,609</text>
</g>
<!-- mondo
24,201&#45;&#45;gard
12,292 -->
<g id="edge51" class="edge">
<title>mondo
24,201&#45;&#45;gard
12,292</title>
<path fill="none" stroke="black" d="M781.86,-648.25C794.29,-593.21 826.89,-470.83 886.77,-385 891.37,-378.4 897.37,-372.22 903.43,-366.83"/>
<text text-anchor="middle" x="850.02" y="-485.2" font-family="Times,serif" font-size="14.00">11,839</text>
</g>
<!-- mondo
24,201&#45;&#45;omim
20,292 -->
<g id="edge52" class="edge">
<title>mondo
24,201&#45;&#45;omim
20,292</title>
<path fill="none" stroke="black" d="M811.52,-686.59C818.06,-688.18 824.85,-689.73 831.27,-691 855.71,-695.84 862.03,-695.96 886.77,-699 1021.89,-715.58 1183.03,-730.47 1254.16,-736.79"/>
<text text-anchor="middle" x="1009.59" y="-717.2" font-family="Times,serif" font-size="14.00">9,898</text>
</g>
<!-- mondo
24,201&#45;&#45;omim.ps
576 -->
<g id="edge54" class="edge">
<title>mondo
24,201&#45;&#45;omim.ps
576</title>
<path fill="none" stroke="black" d="M813.34,-673.27C830.43,-671.08 850.81,-667.78 868.77,-663 877.06,-660.79 878.56,-658.51 886.77,-656 1015.8,-616.46 1172.67,-585.49 1247.38,-571.74"/>
<text text-anchor="middle" x="1009.59" y="-628.2" font-family="Times,serif" font-size="14.00">580</text>
</g>
<!-- mondo
24,201&#45;&#45;orphanet
15,348 -->
<g id="edge55" class="edge">
<title>mondo
24,201&#45;&#45;orphanet
15,348</title>
<path fill="none" stroke="black" d="M806.31,-694.34C814.33,-698.67 823.04,-703.17 831.27,-707 979.12,-775.87 1023.01,-776.75 1172.72,-841.5 1180.84,-845.01 1182.09,-848.03 1190.72,-850 1260.55,-865.96 1344.4,-861.95 1394.27,-857.23"/>
<text text-anchor="middle" x="1107.84" y="-844.2" font-family="Times,serif" font-size="14.00">1,854</text>
</g>
<!-- mondo
24,201&#45;&#45;icd9
3,984 -->
<g id="edge53" class="edge">
<title>mondo
24,201&#45;&#45;icd9
3,984</title>
<path fill="none" stroke="black" d="M806.64,-660.49C825.04,-650.28 848.67,-636.57 868.77,-623 881.7,-614.26 895.47,-603.69 906.72,-594.69"/>
<text text-anchor="middle" x="850.02" y="-647.2" font-family="Times,serif" font-size="14.00">4,341</text>
</g>
<!-- icd10cm
21,556&#45;&#45;orphanet.ordo
14,495 -->
<g id="edge56" class="edge">
<title>icd10cm
21,556&#45;&#45;orphanet.ordo
14,495</title>
<path fill="none" stroke="black" d="M976.04,-996C996.41,-994.6 1021.07,-992.9 1043.46,-991.36"/>
<text text-anchor="middle" x="1009.59" y="-997.2" font-family="Times,serif" font-size="14.00">164</text>
</g>
<!-- icd10cm
21,556&#45;&#45;omim
20,292 -->
<g id="edge57" class="edge">
<title>icd10cm
21,556&#45;&#45;omim
20,292</title>
<path fill="none" stroke="black" d="M964.8,-979.37C986.78,-966.05 1016.56,-948.11 1042.96,-932.5 1083.94,-908.28 1192.76,-856.75 1228.22,-825 1247.22,-807.99 1264.1,-784.39 1275.55,-766.38"/>
<text text-anchor="middle" x="1107.84" y="-935.2" font-family="Times,serif" font-size="14.00">41</text>
</g>
<!-- icd10cm
21,556&#45;&#45;orphanet
15,348 -->
<g id="edge58" class="edge">
<title>icd10cm
21,556&#45;&#45;orphanet
15,348</title>
<path fill="none" stroke="black" d="M971.25,-1012.69C1047.12,-1036.94 1218.22,-1079.03 1337.79,-1013 1388.62,-984.93 1416.88,-919.03 1429.54,-880.81"/>
<text text-anchor="middle" x="1209.47" y="-1051.2" font-family="Times,serif" font-size="14.00">127</text>
</g>
<!-- orphanet.ordo
14,495&#45;&#45;omim
20,292 -->
<g id="edge59" class="edge">
<title>orphanet.ordo
14,495&#45;&#45;omim
20,292</title>
<path fill="none" stroke="black" d="M1135.4,-960.77C1160.92,-934.77 1199.72,-893.14 1228.22,-853 1247.97,-825.19 1266.4,-790.56 1278.12,-767.02"/>
<text text-anchor="middle" x="1209.47" y="-902.2" font-family="Times,serif" font-size="14.00">11,175</text>
</g>
<!-- orphanet.ordo
14,495&#45;&#45;omim.ps
576 -->
<g id="edge60" class="edge">
<title>orphanet.ordo
14,495&#45;&#45;omim.ps
576</title>
<path fill="none" stroke="black" d="M1131.17,-959.52C1144.74,-941.72 1161.55,-917.53 1172.72,-894 1184.93,-868.27 1181.73,-859.52 1190.72,-832.5 1220.16,-743.97 1260.27,-641.09 1279.63,-592.37"/>
<text text-anchor="middle" x="1209.47" y="-835.2" font-family="Times,serif" font-size="14.00">36</text>
</g>
<!-- orphanet.ordo
14,495&#45;&#45;orphanet
15,348 -->
<g id="edge62" class="edge">
<title>orphanet.ordo
14,495&#45;&#45;orphanet
15,348</title>
<path fill="none" stroke="black" d="M1170.81,-994.18C1219.07,-996.92 1286.3,-994.24 1337.79,-967 1375.55,-947.02 1405.46,-906.48 1422.39,-879.27"/>
<text text-anchor="middle" x="1292" y="-995.2" font-family="Times,serif" font-size="14.00">1,947</text>
</g>
<!-- orphanet.ordo
14,495&#45;&#45;icd10
2,345 -->
<g id="edge61" class="edge">
<title>orphanet.ordo
14,495&#45;&#45;icd10
2,345</title>
<path fill="none" stroke="black" d="M1121.8,-1015.72C1137.53,-1050.25 1165.13,-1109.83 1190.72,-1160 1219.69,-1216.8 1256.23,-1282 1276.23,-1317.2"/>
<text text-anchor="middle" x="1209.47" y="-1228.2" font-family="Times,serif" font-size="14.00">7,623</text>
</g>
<!-- icd11
69,477 -->
<g id="node17" class="node">
<title>icd11
69,477</title>
<ellipse fill="none" stroke="black" cx="1292" cy="-929" rx="37.83" ry="28.99"/>
<text text-anchor="middle" x="1292" y="-932.2" font-family="Times,serif" font-size="14.00">icd11</text>
<text text-anchor="middle" x="1292" y="-915.7" font-family="Times,serif" font-size="14.00">69,477</text>
</g>
<!-- orphanet.ordo
14,495&#45;&#45;icd11
69,477 -->
<g id="edge63" class="edge">
<title>orphanet.ordo
14,495&#45;&#45;icd11
69,477</title>
<path fill="none" stroke="black" d="M1161.53,-970.22C1192.11,-960.49 1229.75,-948.5 1256.55,-939.97"/>
<text text-anchor="middle" x="1209.47" y="-962.2" font-family="Times,serif" font-size="14.00">5,484</text>
</g>
<!-- omim
20,292&#45;&#45;orphanet
15,348 -->
<g id="edge64" class="edge">
<title>omim
20,292&#45;&#45;orphanet
15,348</title>
<path fill="none" stroke="black" d="M1319.22,-760.28C1344.64,-779.95 1383.1,-809.71 1409.27,-829.95"/>
<text text-anchor="middle" x="1365.91" y="-805.2" font-family="Times,serif" font-size="14.00">140</text>
</g>
<!-- omim.ps
576&#45;&#45;orphanet
15,348 -->
<g id="edge65" class="edge">
<title>omim.ps
576&#45;&#45;orphanet
15,348</title>
<path fill="none" stroke="black" d="M1307.02,-591.88C1334.76,-647.07 1396.38,-769.67 1423.96,-824.53"/>
<text text-anchor="middle" x="1365.91" y="-728.2" font-family="Times,serif" font-size="14.00">21</text>
</g>
</g>
</svg>
