<?xml version="1.0" encoding="UTF-8" standalone="no"?>
<!DOCTYPE svg PUBLIC "-//W3C//DTD SVG 1.1//EN"
 "http://www.w3.org/Graphics/SVG/1.1/DTD/svg11.dtd">
<!-- Generated by graphviz version 13.1.0 (20250701.0955)
 -->
<!-- Pages: 1 -->
<svg width="1027pt" height="980pt"
 viewBox="0.00 0.00 1027.00 980.00" xmlns="http://www.w3.org/2000/svg" xmlns:xlink="http://www.w3.org/1999/xlink">
<g id="graph0" class="graph" transform="scale(1 1) rotate(0) translate(4 976.33)">
<polygon fill="white" stroke="none" points="-4,4 -4,-976.33 1023.13,-976.33 1023.13,4 -4,4"/>
<!-- icd10 -->
<g id="node1" class="node">
<title>icd10</title>
<ellipse fill="none" stroke="black" cx="31.39" cy="-313" rx="31.39" ry="18"/>
<text xml:space="preserve" text-anchor="middle" x="31.39" y="-307.95" font-family="Times,serif" font-size="14.00">icd10</text>
</g>
<!-- doid -->
<g id="node2" class="node">
<title>doid</title>
<ellipse fill="none" stroke="black" cx="156.83" cy="-382" rx="27.3" ry="18"/>
<text xml:space="preserve" text-anchor="middle" x="156.83" y="-376.95" font-family="Times,serif" font-size="14.00">doid</text>
</g>
<!-- icd10&#45;&#45;doid -->
<g id="edge1" class="edge">
<title>icd10&#45;&#45;doid</title>
<path fill="none" stroke="black" stroke-width="1.31" d="M54.74,-325.5C77.67,-338.31 113.04,-358.08 135.28,-370.51"/>
<text xml:space="preserve" text-anchor="middle" x="96.16" y="-358.91" font-family="Times,serif" font-size="14.00">1,694</text>
</g>
<!-- mondo -->
<g id="node3" class="node">
<title>mondo</title>
<ellipse fill="none" stroke="black" cx="440.97" cy="-404" rx="37.02" ry="18"/>
<text xml:space="preserve" text-anchor="middle" x="440.97" y="-398.95" font-family="Times,serif" font-size="14.00">mondo</text>
</g>
<!-- icd10&#45;&#45;mondo -->
<g id="edge2" class="edge">
<title>icd10&#45;&#45;mondo</title>
<path fill="none" stroke="black" stroke-width="1.1" d="M55.89,-301.18C116.4,-272.6 280.19,-207.06 385.95,-277 422.92,-301.45 434.67,-356.89 438.34,-385.75"/>
<text xml:space="preserve" text-anchor="middle" x="217.5" y="-255.23" font-family="Times,serif" font-size="14.00">524</text>
</g>
<!-- ncit -->
<g id="node4" class="node">
<title>ncit</title>
<ellipse fill="none" stroke="black" cx="588.93" cy="-775" rx="27" ry="18"/>
<text xml:space="preserve" text-anchor="middle" x="588.93" y="-769.95" font-family="Times,serif" font-size="14.00">ncit</text>
</g>
<!-- icd10&#45;&#45;ncit -->
<g id="edge3" class="edge">
<title>icd10&#45;&#45;ncit</title>
<path fill="none" stroke="black" stroke-width="1.02" d="M32.43,-331.48C32.84,-428.04 37.07,-871.68 80.78,-912 229.6,-1049.28 501.69,-845.44 571.34,-788.87"/>
<text xml:space="preserve" text-anchor="middle" x="294.04" y="-957.66" font-family="Times,serif" font-size="14.00">114</text>
</g>
<!-- orphanet -->
<g id="node5" class="node">
<title>orphanet</title>
<ellipse fill="none" stroke="black" cx="743.03" cy="-359" rx="43.16" ry="18"/>
<text xml:space="preserve" text-anchor="middle" x="743.03" y="-353.95" font-family="Times,serif" font-size="14.00">orphanet</text>
</g>
<!-- icd10&#45;&#45;orphanet -->
<g id="edge4" class="edge">
<title>icd10&#45;&#45;orphanet</title>
<path fill="none" stroke="black" stroke-width="1.01" d="M36.83,-295.15C52.97,-234.8 113.89,-43.16 232.87,-62 325.24,-76.62 551.07,-147.12 633.11,-192 657.7,-205.45 664.61,-209.91 681.86,-232 708.74,-266.42 727.45,-314.8 736.27,-340.78"/>
<text xml:space="preserve" text-anchor="middle" x="370.57" y="-103.04" font-family="Times,serif" font-size="14.00">31</text>
</g>
<!-- umls -->
<g id="node6" class="node">
<title>umls</title>
<ellipse fill="none" stroke="black" cx="871.78" cy="-573" rx="29.34" ry="18"/>
<text xml:space="preserve" text-anchor="middle" x="871.78" y="-567.95" font-family="Times,serif" font-size="14.00">umls</text>
</g>
<!-- icd10&#45;&#45;umls -->
<g id="edge5" class="edge">
<title>icd10&#45;&#45;umls</title>
<path fill="none" stroke="black" stroke-width="1.4" d="M35.11,-331.12C50.38,-429.93 129.18,-901.59 250.87,-963 341.15,-1008.55 663.86,-875.29 786.19,-759 836.45,-711.22 859.28,-627.94 867.26,-591.25"/>
<text xml:space="preserve" text-anchor="middle" x="440.97" y="-958.98" font-family="Times,serif" font-size="14.00">2,170</text>
</g>
<!-- efo -->
<g id="node7" class="node">
<title>efo</title>
<ellipse fill="none" stroke="black" cx="988.25" cy="-184" rx="27" ry="18"/>
<text xml:space="preserve" text-anchor="middle" x="988.25" y="-178.95" font-family="Times,serif" font-size="14.00">efo</text>
</g>
<!-- icd10&#45;&#45;efo -->
<g id="edge6" class="edge">
<title>icd10&#45;&#45;efo</title>
<path fill="none" stroke="black" stroke-width="1.01" d="M35.45,-294.82C47.21,-228.02 92.01,0 155.83,0 155.83,0 155.83,0 872.78,0 950.28,0 977.18,-119.14 984.73,-165.68"/>
<text xml:space="preserve" text-anchor="middle" x="511.37" y="-3.2" font-family="Times,serif" font-size="14.00">61</text>
</g>
<!-- doid&#45;&#45;mondo -->
<g id="edge11" class="edge">
<title>doid&#45;&#45;mondo</title>
<path fill="none" stroke="black" stroke-width="2.06" d="M184.31,-382.84C219.34,-384.08 282.99,-386.77 337.2,-391.5 359.76,-393.47 385.01,-396.53 404.83,-399.13"/>
<text xml:space="preserve" text-anchor="middle" x="294.04" y="-394.7" font-family="Times,serif" font-size="14.00">5,741</text>
</g>
<!-- doid&#45;&#45;ncit -->
<g id="edge12" class="edge">
<title>doid&#45;&#45;ncit</title>
<path fill="none" stroke="black" stroke-width="1.64" d="M158,-400.26C159.02,-445.16 165.26,-563.88 202.12,-654 216.34,-688.75 221.78,-699.27 250.87,-723 308.43,-769.94 331.26,-774.79 403.95,-790 436.16,-796.74 445.1,-791.01 477.99,-790 499.69,-789.33 505.21,-789.76 526.74,-787 538.77,-785.46 551.98,-782.97 563.04,-780.66"/>
<text xml:space="preserve" text-anchor="middle" x="370.57" y="-789.21" font-family="Times,serif" font-size="14.00">3,434</text>
</g>
<!-- doid&#45;&#45;orphanet -->
<g id="edge14" class="edge">
<title>doid&#45;&#45;orphanet</title>
<path fill="none" stroke="black" stroke-width="1.15" d="M157.22,-363.72C157.22,-330.97 162.31,-262.46 202.12,-227 217.84,-213.01 267.3,-212.07 403.95,-206.5 506.01,-202.34 543.58,-174.84 633.11,-224 682.74,-251.25 718.21,-311.28 733.56,-341.25"/>
<text xml:space="preserve" text-anchor="middle" x="440.97" y="-209.7" font-family="Times,serif" font-size="14.00">830</text>
</g>
<!-- doid&#45;&#45;umls -->
<g id="edge15" class="edge">
<title>doid&#45;&#45;umls</title>
<path fill="none" stroke="black" stroke-width="2.27" d="M160.15,-363.65C165.51,-324.26 180,-233.53 202.12,-213 344.01,-81.31 453.98,-76.61 633.11,-150 804.99,-220.41 857.1,-483.35 868.25,-554.92"/>
<text xml:space="preserve" text-anchor="middle" x="511.37" y="-117.26" font-family="Times,serif" font-size="14.00">6,862</text>
</g>
<!-- doid&#45;&#45;efo -->
<g id="edge16" class="edge">
<title>doid&#45;&#45;efo</title>
<path fill="none" stroke="black" stroke-width="1.16" d="M157.25,-363.81C156.78,-312.99 163.52,-169.82 250.87,-118 375.4,-44.12 764.3,-29.64 901.13,-77 942.36,-91.28 968.66,-139.82 980.3,-166.34"/>
<text xml:space="preserve" text-anchor="middle" x="588.93" y="-56.75" font-family="Times,serif" font-size="14.00">875</text>
</g>
<!-- icd10cm -->
<g id="node8" class="node">
<title>icd10cm</title>
<ellipse fill="none" stroke="black" cx="294.04" cy="-696" rx="43.16" ry="18"/>
<text xml:space="preserve" text-anchor="middle" x="294.04" y="-690.95" font-family="Times,serif" font-size="14.00">icd10cm</text>
</g>
<!-- doid&#45;&#45;icd10cm -->
<g id="edge7" class="edge">
<title>doid&#45;&#45;icd10cm</title>
<path fill="none" stroke="black" stroke-width="1.43" d="M158.81,-400.32C161.41,-437.51 170.65,-523.78 202.12,-588 220.25,-624.97 253.74,-659.93 274.62,-679.59"/>
<text xml:space="preserve" text-anchor="middle" x="217.5" y="-636.39" font-family="Times,serif" font-size="14.00">2,301</text>
</g>
<!-- icd11 -->
<g id="node9" class="node">
<title>icd11</title>
<ellipse fill="none" stroke="black" cx="294.04" cy="-435" rx="31.39" ry="18"/>
<text xml:space="preserve" text-anchor="middle" x="294.04" y="-429.95" font-family="Times,serif" font-size="14.00">icd11</text>
</g>
<!-- doid&#45;&#45;icd11 -->
<g id="edge8" class="edge">
<title>doid&#45;&#45;icd11</title>
<path fill="none" stroke="black" stroke-width="1.18" d="M180.76,-390.99C204.87,-400.44 242.7,-415.27 267.68,-425.06"/>
<text xml:space="preserve" text-anchor="middle" x="217.5" y="-413.29" font-family="Times,serif" font-size="14.00">968</text>
</g>
<!-- icd9 -->
<g id="node10" class="node">
<title>icd9</title>
<ellipse fill="none" stroke="black" cx="294.04" cy="-328" rx="27" ry="18"/>
<text xml:space="preserve" text-anchor="middle" x="294.04" y="-322.95" font-family="Times,serif" font-size="14.00">icd9</text>
</g>
<!-- doid&#45;&#45;icd9 -->
<g id="edge9" class="edge">
<title>doid&#45;&#45;icd9</title>
<path fill="none" stroke="black" stroke-width="1.42" d="M174.66,-368.34C182.6,-362.45 192.44,-355.92 202.12,-351.5 223.19,-341.89 248.85,-335.71 267.54,-332.11"/>
<text xml:space="preserve" text-anchor="middle" x="217.5" y="-354.7" font-family="Times,serif" font-size="14.00">2,262</text>
</g>
<!-- icd9cm -->
<g id="node11" class="node">
<title>icd9cm</title>
<ellipse fill="none" stroke="black" cx="294.04" cy="-489" rx="38.56" ry="18"/>
<text xml:space="preserve" text-anchor="middle" x="294.04" y="-483.95" font-family="Times,serif" font-size="14.00">icd9cm</text>
</g>
<!-- doid&#45;&#45;icd9cm -->
<g id="edge10" class="edge">
<title>doid&#45;&#45;icd9cm</title>
<path fill="none" stroke="black" stroke-width="1.38" d="M170.42,-398.02C178.8,-408.12 190.39,-421.08 202.12,-431 222.71,-448.41 248.9,-464.58 267.88,-475.4"/>
<text xml:space="preserve" text-anchor="middle" x="217.5" y="-455.49" font-family="Times,serif" font-size="14.00">2,030</text>
</g>
<!-- omim -->
<g id="node12" class="node">
<title>omim</title>
<ellipse fill="none" stroke="black" cx="588.93" cy="-542" rx="33.44" ry="18"/>
<text xml:space="preserve" text-anchor="middle" x="588.93" y="-536.95" font-family="Times,serif" font-size="14.00">omim</text>
</g>
<!-- doid&#45;&#45;omim -->
<g id="edge13" class="edge">
<title>doid&#45;&#45;omim</title>
<path fill="none" stroke="black" stroke-width="1.2" d="M160.45,-400.28C164.97,-426.25 176.36,-474.21 202.12,-506 218.14,-525.76 226.99,-527.23 250.87,-536 357.46,-575.14 496.06,-558.4 556.95,-548"/>
<text xml:space="preserve" text-anchor="middle" x="370.57" y="-563.27" font-family="Times,serif" font-size="14.00">1,061</text>
</g>
<!-- mesh -->
<g id="node13" class="node">
<title>mesh</title>
<ellipse fill="none" stroke="black" cx="988.25" cy="-854" rx="30.88" ry="18"/>
<text xml:space="preserve" text-anchor="middle" x="988.25" y="-848.95" font-family="Times,serif" font-size="14.00">mesh</text>
</g>
<!-- doid&#45;&#45;mesh -->
<g id="edge17" class="edge">
<title>doid&#45;&#45;mesh</title>
<path fill="none" stroke="black" stroke-width="1.1" d="M157.44,-400.36C157.02,-449.77 159.96,-588.89 202.12,-694 266.47,-854.39 337.56,-931 510.37,-931 510.37,-931 510.37,-931 872.78,-931 915.89,-931 954.97,-892.93 974.38,-870.33"/>
<text xml:space="preserve" text-anchor="middle" x="588.93" y="-934.2" font-family="Times,serif" font-size="14.00">542</text>
</g>
<!-- gard -->
<g id="node14" class="node">
<title>gard</title>
<ellipse fill="none" stroke="black" cx="588.93" cy="-488" rx="27.3" ry="18"/>
<text xml:space="preserve" text-anchor="middle" x="588.93" y="-482.95" font-family="Times,serif" font-size="14.00">gard</text>
</g>
<!-- doid&#45;&#45;gard -->
<g id="edge18" class="edge">
<title>doid&#45;&#45;gard</title>
<path fill="none" stroke="black" stroke-width="1.15" d="M162.99,-399.83C173.38,-431.69 200.27,-496.87 250.87,-516 286.76,-529.57 302.97,-533.33 337.2,-516 349.25,-509.9 343.19,-497.69 355.2,-491.5 390.49,-473.3 508.72,-480.98 561.77,-485.53"/>
<text xml:space="preserve" text-anchor="middle" x="370.57" y="-494.7" font-family="Times,serif" font-size="14.00">816</text>
</g>
<!-- omim.ps -->
<g id="node15" class="node">
<title>omim.ps</title>
<ellipse fill="none" stroke="black" cx="588.93" cy="-305" rx="44.19" ry="18"/>
<text xml:space="preserve" text-anchor="middle" x="588.93" y="-299.95" font-family="Times,serif" font-size="14.00">omim.ps</text>
</g>
<!-- doid&#45;&#45;omim.ps -->
<g id="edge19" class="edge">
<title>doid&#45;&#45;omim.ps</title>
<path fill="none" stroke="black" stroke-width="1.01" d="M169.83,-365.92C185.77,-346.11 216,-313.51 250.87,-301 353.56,-264.15 386.94,-290.89 495.99,-288 509.65,-287.64 513.2,-286.15 526.74,-288 535.59,-289.21 544.96,-291.35 553.65,-293.72"/>
<text xml:space="preserve" text-anchor="middle" x="370.57" y="-285.89" font-family="Times,serif" font-size="14.00">53</text>
</g>
<!-- icdo -->
<g id="node16" class="node">
<title>icdo</title>
<ellipse fill="none" stroke="black" cx="588.93" cy="-251" rx="27" ry="18"/>
<text xml:space="preserve" text-anchor="middle" x="588.93" y="-245.95" font-family="Times,serif" font-size="14.00">icdo</text>
</g>
<!-- doid&#45;&#45;icdo -->
<g id="edge20" class="edge">
<title>doid&#45;&#45;icdo</title>
<path fill="none" stroke="black" stroke-width="1.07" d="M157.5,-363.93C158.05,-333.4 164.13,-272.18 202.12,-244 259.09,-201.74 485.77,-234.18 562.44,-246.66"/>
<text xml:space="preserve" text-anchor="middle" x="370.57" y="-228.58" font-family="Times,serif" font-size="14.00">364</text>
</g>
<!-- mondo&#45;&#45;ncit -->
<g id="edge31" class="edge">
<title>mondo&#45;&#45;ncit</title>
<path fill="none" stroke="black" stroke-width="1.18" d="M448.69,-421.8C464.92,-464.64 507.61,-576.88 544.74,-670 557.08,-700.94 571.95,-736.79 580.63,-757.58"/>
<text xml:space="preserve" text-anchor="middle" x="511.37" y="-622.45" font-family="Times,serif" font-size="14.00">946</text>
</g>
<!-- mondo&#45;&#45;orphanet -->
<g id="edge33" class="edge">
<title>mondo&#45;&#45;orphanet</title>
<path fill="none" stroke="black" stroke-width="1.44" d="M471.24,-393.48C491.59,-386.62 519.48,-378.12 544.74,-373.5 597.61,-363.83 659.57,-360.56 699.74,-359.49"/>
<text xml:space="preserve" text-anchor="middle" x="588.93" y="-376.7" font-family="Times,serif" font-size="14.00">2,353</text>
</g>
<!-- mondo&#45;&#45;umls -->
<g id="edge34" class="edge">
<title>mondo&#45;&#45;umls</title>
<path fill="none" stroke="black" stroke-width="1.81" d="M476.95,-399.33C527.56,-394.57 621.73,-393.38 681.86,-439.5 697.82,-451.73 686.26,-466.2 699.86,-481 740.79,-525.54 808.35,-552.85 845.08,-565.2"/>
<text xml:space="preserve" text-anchor="middle" x="666.49" y="-442.7" font-family="Times,serif" font-size="14.00">4,367</text>
</g>
<!-- mondo&#45;&#45;efo -->
<g id="edge35" class="edge">
<title>mondo&#45;&#45;efo</title>
<path fill="none" stroke="black" stroke-width="1.05" d="M445.56,-385.82C459.91,-319.02 519.59,-91 665.49,-91 665.49,-91 665.49,-91 872.78,-91 920.66,-91 959.67,-140.62 977.22,-167.37"/>
<text xml:space="preserve" text-anchor="middle" x="743.03" y="-94.2" font-family="Times,serif" font-size="14.00">257</text>
</g>
<!-- mondo&#45;&#45;omim -->
<g id="edge32" class="edge">
<title>mondo&#45;&#45;omim</title>
<path fill="none" stroke="black" stroke-width="1.4" d="M452.79,-421.25C462.93,-436.73 479.04,-459.62 495.99,-477 515.17,-496.67 522.23,-499.25 544.74,-515 551.41,-519.66 558.86,-524.46 565.67,-528.7"/>
<text xml:space="preserve" text-anchor="middle" x="511.37" y="-505.51" font-family="Times,serif" font-size="14.00">2,163</text>
</g>
<!-- mondo&#45;&#45;mesh -->
<g id="edge36" class="edge">
<title>mondo&#45;&#45;mesh</title>
<path fill="none" stroke="black" stroke-width="1.03" d="M474.57,-412.15C574.29,-437.32 870.33,-514.12 901.13,-546 982.14,-629.86 988.2,-783.39 987.76,-835.86"/>
<text xml:space="preserve" text-anchor="middle" x="743.03" y="-501.59" font-family="Times,serif" font-size="14.00">175</text>
</g>
<!-- mondo&#45;&#45;gard -->
<g id="edge37" class="edge">
<title>mondo&#45;&#45;gard</title>
<path fill="none" stroke="black" stroke-width="1.18" d="M463.19,-418.9C473.01,-425.6 484.94,-433.46 495.99,-440 519.54,-453.94 547.54,-468.25 566.4,-477.57"/>
<text xml:space="preserve" text-anchor="middle" x="511.37" y="-459.93" font-family="Times,serif" font-size="14.00">984</text>
</g>
<!-- mondo&#45;&#45;omim.ps -->
<g id="edge38" class="edge">
<title>mondo&#45;&#45;omim.ps</title>
<path fill="none" stroke="black" stroke-width="1.02" d="M455.54,-387.14C465.74,-375.24 480.57,-359.52 495.99,-348.5 514.24,-335.46 537.01,-324.65 555.32,-317.07"/>
<text xml:space="preserve" text-anchor="middle" x="511.37" y="-351.7" font-family="Times,serif" font-size="14.00">98</text>
</g>
<!-- mondo&#45;&#45;icdo -->
<g id="edge39" class="edge">
<title>mondo&#45;&#45;icdo</title>
<path fill="none" stroke="black" stroke-width="1.01" d="M449.25,-386.24C458.11,-366.17 474.57,-333.34 495.99,-310.5 516.28,-288.87 545.98,-271.5 566.09,-261.24"/>
<text xml:space="preserve" text-anchor="middle" x="511.37" y="-313.7" font-family="Times,serif" font-size="14.00">66</text>
</g>
<!-- ncit&#45;&#45;umls -->
<g id="edge40" class="edge">
<title>ncit&#45;&#45;umls</title>
<path fill="none" stroke="black" stroke-width="3.14" d="M614.55,-768.91C660.92,-756.34 762.11,-723.49 824.44,-663 845.37,-642.68 858.65,-610.87 865.39,-591.02"/>
<text xml:space="preserve" text-anchor="middle" x="743.03" y="-741.83" font-family="Times,serif" font-size="14.00">11,552</text>
</g>
<!-- ncit&#45;&#45;efo -->
<g id="edge41" class="edge">
<title>ncit&#45;&#45;efo</title>
<path fill="none" stroke="black" stroke-width="1.01" d="M616.1,-777.36C689.34,-783.34 894.04,-795.63 939.38,-751 979.37,-711.63 986.09,-295.36 987.09,-202.36"/>
<text xml:space="preserve" text-anchor="middle" x="814.31" y="-785.67" font-family="Times,serif" font-size="14.00">64</text>
</g>
<!-- ncit&#45;&#45;mesh -->
<g id="edge42" class="edge">
<title>ncit&#45;&#45;mesh</title>
<path fill="none" stroke="black" stroke-width="1.01" d="M613.92,-782.2C625.16,-785.43 638.76,-789.15 651.11,-792 763.58,-817.94 899.19,-840.25 957.85,-849.48"/>
<text xml:space="preserve" text-anchor="middle" x="814.31" y="-829.97" font-family="Times,serif" font-size="14.00">34</text>
</g>
<!-- orphanet&#45;&#45;umls -->
<g id="edge45" class="edge">
<title>orphanet&#45;&#45;umls</title>
<path fill="none" stroke="black" stroke-width="1.05" d="M757.53,-376.39C774.34,-398.48 803.41,-438.11 824.44,-474.5 840.23,-501.83 855.14,-535.42 863.6,-555.47"/>
<text xml:space="preserve" text-anchor="middle" x="814.31" y="-477.7" font-family="Times,serif" font-size="14.00">260</text>
</g>
<!-- umls&#45;&#45;efo -->
<g id="edge46" class="edge">
<title>umls&#45;&#45;efo</title>
<path fill="none" stroke="black" stroke-width="1.02" d="M878.07,-555.02C897.25,-489.87 962.94,-266.63 982.02,-201.79"/>
<text xml:space="preserve" text-anchor="middle" x="929.25" y="-416.54" font-family="Times,serif" font-size="14.00">97</text>
</g>
<!-- umls&#45;&#45;mesh -->
<g id="edge47" class="edge">
<title>umls&#45;&#45;mesh</title>
<path fill="none" stroke="black" stroke-width="1.07" d="M879.94,-590.58C900.5,-641.04 959.54,-785.97 980.1,-836.43"/>
<text xml:space="preserve" text-anchor="middle" x="929.25" y="-733.52" font-family="Times,serif" font-size="14.00">372</text>
</g>
<!-- icd10cm&#45;&#45;mondo -->
<g id="edge21" class="edge">
<title>icd10cm&#45;&#45;mondo</title>
<path fill="none" stroke="black" stroke-width="1.09" d="M298.36,-678.05C304.86,-646.62 321.68,-580.66 355.2,-535.5 365.45,-521.69 374.99,-525.25 385.95,-512 409.06,-484.05 425.61,-444.56 433.91,-421.88"/>
<text xml:space="preserve" text-anchor="middle" x="370.57" y="-538.7" font-family="Times,serif" font-size="14.00">488</text>
</g>
<!-- icd10cm&#45;&#45;ncit -->
<g id="edge22" class="edge">
<title>icd10cm&#45;&#45;ncit</title>
<path fill="none" stroke="black" stroke-width="1.04" d="M312.85,-712.61C324.14,-722.18 339.52,-733.55 355.2,-740 425.86,-769.07 517.47,-774.35 561.72,-775.08"/>
<text xml:space="preserve" text-anchor="middle" x="440.97" y="-772.3" font-family="Times,serif" font-size="14.00">223</text>
</g>
<!-- icd10cm&#45;&#45;umls -->
<g id="edge23" class="edge">
<title>icd10cm&#45;&#45;umls</title>
<path fill="none" stroke="black" stroke-width="4" d="M332.38,-704.66C369.5,-712.01 427.96,-720.15 477.99,-712 558.12,-698.94 749.4,-627.01 824.44,-596 832.57,-592.64 841.27,-588.48 848.91,-584.63"/>
<text xml:space="preserve" text-anchor="middle" x="588.93" y="-698.73" font-family="Times,serif" font-size="14.00">16,191</text>
</g>
<!-- icd10cm&#45;&#45;efo -->
<g id="edge24" class="edge">
<title>icd10cm&#45;&#45;efo</title>
<path fill="none" stroke="black" d="M329.05,-684.99C368.64,-672.9 436.23,-654.47 495.99,-649 509.6,-647.75 514.9,-642.18 526.74,-649 540.55,-656.95 530.93,-672.05 544.74,-680 578.78,-699.6 594.13,-684.77 633.11,-680 756.5,-664.91 818.83,-693.17 901.13,-600 954.95,-539.05 979.95,-274.47 985.85,-202.26"/>
<text xml:space="preserve" text-anchor="middle" x="666.49" y="-681.16" font-family="Times,serif" font-size="14.00">26</text>
</g>
<!-- icd10cm&#45;&#45;mesh -->
<g id="edge25" class="edge">
<title>icd10cm&#45;&#45;mesh</title>
<path fill="none" stroke="black" stroke-width="1.01" d="M324.93,-709.07C329.4,-711.9 333.69,-715.21 337.2,-719 350.45,-733.3 342.44,-744.26 355.2,-759 372.01,-778.41 379.86,-781.1 403.95,-790 572.49,-852.27 625.86,-825 804.19,-847 864.05,-854.39 879.14,-862.14 939.38,-859 945.3,-858.69 951.62,-858.17 957.67,-857.58"/>
<text xml:space="preserve" text-anchor="middle" x="666.49" y="-840.4" font-family="Times,serif" font-size="14.00">42</text>
</g>
<!-- icd11&#45;&#45;mondo -->
<g id="edge26" class="edge">
<title>icd11&#45;&#45;mondo</title>
<path fill="none" stroke="black" stroke-width="1.11" d="M321.11,-425.43C331.59,-421.87 343.85,-418.09 355.2,-415.5 371.13,-411.87 389.02,-409.23 404.25,-407.41"/>
<text xml:space="preserve" text-anchor="middle" x="370.57" y="-418.7" font-family="Times,serif" font-size="14.00">594</text>
</g>
<!-- icd9&#45;&#45;mondo -->
<g id="edge27" class="edge">
<title>icd9&#45;&#45;mondo</title>
<path fill="none" stroke="black" stroke-width="1.04" d="M321.09,-330.69C340.05,-333.51 365.82,-339.2 385.95,-350.5 402.29,-359.68 417.13,-375.13 427.1,-387.08"/>
<text xml:space="preserve" text-anchor="middle" x="370.57" y="-353.7" font-family="Times,serif" font-size="14.00">200</text>
</g>
<!-- icd9cm&#45;&#45;mondo -->
<g id="edge28" class="edge">
<title>icd9cm&#45;&#45;mondo</title>
<path fill="none" stroke="black" stroke-width="1.04" d="M318.97,-474.96C345.98,-459.12 389.65,-433.51 416.48,-417.77"/>
<text xml:space="preserve" text-anchor="middle" x="370.57" y="-454.79" font-family="Times,serif" font-size="14.00">207</text>
</g>
<!-- icd9cm&#45;&#45;ncit -->
<g id="edge29" class="edge">
<title>icd9cm&#45;&#45;ncit</title>
<path fill="none" stroke="black" stroke-width="1.03" d="M299.93,-507.27C307.89,-534.33 325.78,-585.56 355.2,-620 417,-692.35 520.59,-744.77 565.75,-765.37"/>
<text xml:space="preserve" text-anchor="middle" x="440.97" y="-720.67" font-family="Times,serif" font-size="14.00">150</text>
</g>
<!-- icd9cm&#45;&#45;umls -->
<g id="edge30" class="edge">
<title>icd9cm&#45;&#45;umls</title>
<path fill="none" stroke="black" stroke-width="1.97" d="M300.9,-507.16C309.11,-529.19 326.35,-565.34 355.2,-581 439.38,-626.69 690.42,-583.25 786.19,-582 803.19,-581.78 807.52,-582.67 824.44,-581 830.61,-580.39 837.21,-579.44 843.43,-578.4"/>
<text xml:space="preserve" text-anchor="middle" x="588.93" y="-603.48" font-family="Times,serif" font-size="14.00">5,241</text>
</g>
<!-- omim&#45;&#45;orphanet -->
<g id="edge43" class="edge">
<title>omim&#45;&#45;orphanet</title>
<path fill="none" stroke="black" stroke-width="1.13" d="M613.58,-529.58C620.3,-525.45 627.35,-520.48 633.11,-515 678.36,-471.99 716.16,-407.46 732.85,-376.63"/>
<text xml:space="preserve" text-anchor="middle" x="666.49" y="-495.76" font-family="Times,serif" font-size="14.00">708</text>
</g>
<!-- omim&#45;&#45;umls -->
<g id="edge44" class="edge">
<title>omim&#45;&#45;umls</title>
<path fill="none" stroke="black" stroke-width="1.01" d="M622.14,-545.56C677.62,-551.68 790.25,-564.11 842.72,-569.9"/>
<text xml:space="preserve" text-anchor="middle" x="743.03" y="-566.75" font-family="Times,serif" font-size="14.00">53</text>
</g>
</g>
</svg>
