<?xml version="1.0" encoding="UTF-8" standalone="no"?>
<!DOCTYPE svg PUBLIC "-//W3C//DTD SVG 1.1//EN"
 "http://www.w3.org/Graphics/SVG/1.1/DTD/svg11.dtd">
<!-- Generated by graphviz version 12.2.1 (20241206.2353)
 -->
<!-- Pages: 1 -->
<svg width="640pt" height="603pt"
 viewBox="0.00 0.00 640.02 602.50" xmlns="http://www.w3.org/2000/svg" xmlns:xlink="http://www.w3.org/1999/xlink">
<g id="graph0" class="graph" transform="scale(1 1) rotate(0) translate(4 598.5)">
<polygon fill="white" stroke="none" points="-4,4 -4,-598.5 636.02,-598.5 636.02,4 -4,4"/>
<!-- mondo -->
<g id="node1" class="node">
<title>mondo</title>
<ellipse fill="none" stroke="black" cx="37.02" cy="-290" rx="37.02" ry="18"/>
<text text-anchor="middle" x="37.02" y="-284.95" font-family="Times,serif" font-size="14.00">mondo</text>
</g>
<!-- doid -->
<g id="node2" class="node">
<title>doid</title>
<ellipse fill="none" stroke="black" cx="174.84" cy="-290" rx="27.3" ry="18"/>
<text text-anchor="middle" x="174.84" y="-284.95" font-family="Times,serif" font-size="14.00">doid</text>
</g>
<!-- mondo&#45;&#45;doid -->
<g id="edge1" class="edge">
<title>mondo&#45;&#45;doid</title>
<path fill="none" stroke="black" stroke-width="3.91" d="M74.42,-290C97.36,-290 126.47,-290 147.25,-290"/>
<text text-anchor="middle" x="110.79" y="-293.2" font-family="Times,serif" font-size="14.00">11,413</text>
</g>
<!-- ncit -->
<g id="node3" class="node">
<title>ncit</title>
<ellipse fill="none" stroke="black" cx="313.07" cy="-344" rx="27" ry="18"/>
<text text-anchor="middle" x="313.07" y="-338.95" font-family="Times,serif" font-size="14.00">ncit</text>
</g>
<!-- mondo&#45;&#45;ncit -->
<g id="edge2" class="edge">
<title>mondo&#45;&#45;ncit</title>
<path fill="none" stroke="black" stroke-width="1.41" d="M54.27,-306.08C84.08,-334.31 150.82,-391.78 220.13,-413 233.2,-417 238.42,-418.61 250.88,-413 274.39,-402.43 292.53,-377.86 302.76,-361.09"/>
<text text-anchor="middle" x="174.84" y="-409.65" font-family="Times,serif" font-size="14.00">1,609</text>
</g>
<!-- umls -->
<g id="node4" class="node">
<title>umls</title>
<ellipse fill="none" stroke="black" cx="460.1" cy="-237" rx="29.34" ry="18"/>
<text text-anchor="middle" x="460.1" y="-231.95" font-family="Times,serif" font-size="14.00">umls</text>
</g>
<!-- mondo&#45;&#45;umls -->
<g id="edge3" class="edge">
<title>mondo&#45;&#45;umls</title>
<path fill="none" stroke="black" stroke-width="3.29" d="M42.92,-271.99C50.5,-246.29 66.89,-198.39 92.04,-164 145.34,-91.11 180.07,-80.28 268.88,-64 307.52,-56.92 320.66,-49.74 357.26,-64 388.47,-76.16 393.97,-87.26 412.76,-115 435.25,-148.2 448.79,-193.81 455.01,-218.8"/>
<text text-anchor="middle" x="235.51" y="-76.86" font-family="Times,serif" font-size="14.00">8,991</text>
</g>
<!-- efo -->
<g id="node5" class="node">
<title>efo</title>
<ellipse fill="none" stroke="black" cx="588.86" cy="-367" rx="27" ry="18"/>
<text text-anchor="middle" x="588.86" y="-361.95" font-family="Times,serif" font-size="14.00">efo</text>
</g>
<!-- mondo&#45;&#45;efo -->
<g id="edge4" class="edge">
<title>mondo&#45;&#45;efo</title>
<path fill="none" stroke="black" stroke-width="1.09" d="M38.18,-308.45C39.77,-372.02 54.15,-578 173.84,-578 173.84,-578 173.84,-578 461.1,-578 550.63,-578 578.51,-436.69 585.69,-385.36"/>
<text text-anchor="middle" x="313.07" y="-581.2" font-family="Times,serif" font-size="14.00">342</text>
</g>
<!-- icd10cm -->
<g id="node6" class="node">
<title>icd10cm</title>
<ellipse fill="none" stroke="black" cx="313.07" cy="-516" rx="43.16" ry="18"/>
<text text-anchor="middle" x="313.07" y="-510.95" font-family="Times,serif" font-size="14.00">icd10cm</text>
</g>
<!-- mondo&#45;&#45;icd10cm -->
<g id="edge5" class="edge">
<title>mondo&#45;&#45;icd10cm</title>
<path fill="none" stroke="black" stroke-width="1.04" d="M41.56,-308.15C50.68,-349.42 79.25,-449.98 147.54,-492 184.54,-514.77 234.9,-519.06 270.13,-518.73"/>
<text text-anchor="middle" x="174.84" y="-515.56" font-family="Times,serif" font-size="14.00">176</text>
</g>
<!-- mesh -->
<g id="node7" class="node">
<title>mesh</title>
<ellipse fill="none" stroke="black" cx="313.07" cy="-445" rx="30.88" ry="18"/>
<text text-anchor="middle" x="313.07" y="-439.95" font-family="Times,serif" font-size="14.00">mesh</text>
</g>
<!-- mondo&#45;&#45;mesh -->
<g id="edge6" class="edge">
<title>mondo&#45;&#45;mesh</title>
<path fill="none" stroke="black" stroke-width="1.05" d="M47.06,-307.57C69.51,-348.77 132.4,-450.26 220.13,-478 245.84,-486.13 275.08,-471.43 293.55,-459.12"/>
<text text-anchor="middle" x="174.84" y="-474.31" font-family="Times,serif" font-size="14.00">207</text>
</g>
<!-- orphanet -->
<g id="node8" class="node">
<title>orphanet</title>
<ellipse fill="none" stroke="black" cx="588.86" cy="-137" rx="43.16" ry="18"/>
<text text-anchor="middle" x="588.86" y="-131.95" font-family="Times,serif" font-size="14.00">orphanet</text>
</g>
<!-- mondo&#45;&#45;orphanet -->
<g id="edge7" class="edge">
<title>mondo&#45;&#45;orphanet</title>
<path fill="none" stroke="black" stroke-width="2.6" d="M38.12,-271.86C39.49,-208.37 53.2,0 173.84,0 173.84,0 173.84,0 461.1,0 525.1,0 565.79,-81.54 581.05,-118.81"/>
<text text-anchor="middle" x="313.07" y="-3.2" font-family="Times,serif" font-size="14.00">6,259</text>
</g>
<!-- omim.ps -->
<g id="node9" class="node">
<title>omim.ps</title>
<ellipse fill="none" stroke="black" cx="313.07" cy="-183" rx="44.19" ry="18"/>
<text text-anchor="middle" x="313.07" y="-177.95" font-family="Times,serif" font-size="14.00">omim.ps</text>
</g>
<!-- mondo&#45;&#45;omim.ps -->
<g id="edge8" class="edge">
<title>mondo&#45;&#45;omim.ps</title>
<path fill="none" stroke="black" stroke-width="1.04" d="M54.24,-273.79C84.01,-245.34 150.68,-187.4 220.13,-166 240.14,-159.83 263.33,-164.2 281.42,-170.05"/>
<text text-anchor="middle" x="174.84" y="-203.36" font-family="Times,serif" font-size="14.00">161</text>
</g>
<!-- omim -->
<g id="node10" class="node">
<title>omim</title>
<ellipse fill="none" stroke="black" cx="313.07" cy="-91" rx="33.44" ry="18"/>
<text text-anchor="middle" x="313.07" y="-85.95" font-family="Times,serif" font-size="14.00">omim</text>
</g>
<!-- mondo&#45;&#45;omim -->
<g id="edge9" class="edge">
<title>mondo&#45;&#45;omim</title>
<path fill="none" stroke="black" stroke-width="2.22" d="M47.94,-272.45C64.94,-243.78 102.23,-186.69 147.54,-152.5 176.86,-130.38 185.84,-126.17 220.13,-113 239.75,-105.47 262.73,-99.97 280.81,-96.35"/>
<text text-anchor="middle" x="174.84" y="-155.7" font-family="Times,serif" font-size="14.00">4,801</text>
</g>
<!-- doid&#45;&#45;ncit -->
<g id="edge10" class="edge">
<title>doid&#45;&#45;ncit</title>
<path fill="none" stroke="black" stroke-width="2.28" d="M198.35,-299.21C205.33,-302.05 213.04,-305.17 220.13,-308 243.7,-317.4 270.74,-327.96 289.37,-335.2"/>
<text text-anchor="middle" x="235.51" y="-323.19" font-family="Times,serif" font-size="14.00">5,007</text>
</g>
<!-- doid&#45;&#45;umls -->
<g id="edge11" class="edge">
<title>doid&#45;&#45;umls</title>
<path fill="none" stroke="black" stroke-width="3.02" d="M195.69,-277.94C213.98,-267.52 242.23,-253.12 268.88,-246.5 324.88,-232.58 392.92,-233.22 430.56,-235.04"/>
<text text-anchor="middle" x="313.07" y="-249.7" font-family="Times,serif" font-size="14.00">7,910</text>
</g>
<!-- doid&#45;&#45;efo -->
<g id="edge12" class="edge">
<title>doid&#45;&#45;efo</title>
<path fill="none" stroke="black" stroke-width="1.31" d="M187.4,-306.23C203.08,-326.56 233.27,-360.04 268.88,-371 373.95,-403.34 507.86,-383.12 562.71,-372.41"/>
<text text-anchor="middle" x="394.01" y="-391.76" font-family="Times,serif" font-size="14.00">1,227</text>
</g>
<!-- doid&#45;&#45;icd10cm -->
<g id="edge13" class="edge">
<title>doid&#45;&#45;icd10cm</title>
<path fill="none" stroke="black" stroke-width="1.03" d="M179.08,-307.89C184.49,-334.52 197.09,-385.46 220.13,-423 239.26,-454.15 270.69,-482.9 291.39,-499.95"/>
<text text-anchor="middle" x="235.51" y="-462.95" font-family="Times,serif" font-size="14.00">120</text>
</g>
<!-- doid&#45;&#45;mesh -->
<g id="edge14" class="edge">
<title>doid&#45;&#45;mesh</title>
<path fill="none" stroke="black" stroke-width="1.06" d="M182.63,-307.49C190.07,-325.22 203.23,-352.86 220.13,-373 240.73,-397.53 270.92,-419.21 291.02,-432.21"/>
<text text-anchor="middle" x="235.51" y="-405.25" font-family="Times,serif" font-size="14.00">232</text>
</g>
<!-- doid&#45;&#45;orphanet -->
<g id="edge15" class="edge">
<title>doid&#45;&#45;orphanet</title>
<path fill="none" stroke="black" stroke-width="1.65" d="M183.17,-272.63C188.83,-258.81 196.61,-238.88 202.13,-221 212.26,-188.25 193.48,-167.55 220.13,-146 269.24,-106.3 461.9,-122.56 547.03,-132.02"/>
<text text-anchor="middle" x="394.01" y="-124.74" font-family="Times,serif" font-size="14.00">2,534</text>
</g>
<!-- doid&#45;&#45;omim.ps -->
<g id="edge16" class="edge">
<title>doid&#45;&#45;omim.ps</title>
<path fill="none" stroke="black" stroke-width="1.01" d="M184.57,-272.77C192.34,-258.82 204.84,-239.43 220.13,-226.5 236.99,-212.25 259.3,-201.54 277.73,-194.32"/>
<text text-anchor="middle" x="235.51" y="-229.7" font-family="Times,serif" font-size="14.00">57</text>
</g>
<!-- doid&#45;&#45;omim -->
<g id="edge17" class="edge">
<title>doid&#45;&#45;omim</title>
<path fill="none" stroke="black" stroke-width="1.07" d="M181.26,-272.18C188.27,-250.75 201.78,-214.19 220.13,-186.5 241.37,-154.47 274.02,-123.59 294.16,-105.99"/>
<text text-anchor="middle" x="235.51" y="-189.7" font-family="Times,serif" font-size="14.00">261</text>
</g>
<!-- gard -->
<g id="node11" class="node">
<title>gard</title>
<ellipse fill="none" stroke="black" cx="313.07" cy="-290" rx="27.3" ry="18"/>
<text text-anchor="middle" x="313.07" y="-284.95" font-family="Times,serif" font-size="14.00">gard</text>
</g>
<!-- doid&#45;&#45;gard -->
<g id="edge18" class="edge">
<title>doid&#45;&#45;gard</title>
<path fill="none" stroke="black" stroke-width="1.01" d="M202.43,-290C226.43,-290 261.56,-290 285.55,-290"/>
<text text-anchor="middle" x="235.51" y="-293.2" font-family="Times,serif" font-size="14.00">47</text>
</g>
<!-- ncit&#45;&#45;umls -->
<g id="edge19" class="edge">
<title>ncit&#45;&#45;umls</title>
<path fill="none" stroke="black" stroke-width="4" d="M333.71,-332.34C341.19,-327.73 349.73,-322.29 357.26,-317 387.98,-295.42 421.96,-267.95 441.87,-251.46"/>
<text text-anchor="middle" x="394.01" y="-305.66" font-family="Times,serif" font-size="14.00">11,763</text>
</g>
<!-- ncit&#45;&#45;efo -->
<g id="edge20" class="edge">
<title>ncit&#45;&#45;efo</title>
<path fill="none" stroke="black" stroke-width="1.02" d="M340.32,-346.21C392.65,-350.6 509.42,-360.41 561.68,-364.8"/>
<text text-anchor="middle" x="460.1" y="-361.73" font-family="Times,serif" font-size="14.00">63</text>
</g>
<!-- umls&#45;&#45;efo -->
<g id="edge21" class="edge">
<title>umls&#45;&#45;efo</title>
<path fill="none" stroke="black" stroke-width="1.02" d="M476.14,-252.42C500.67,-277.58 548.97,-327.12 573.23,-352"/>
<text text-anchor="middle" x="517.57" y="-305.2" font-family="Times,serif" font-size="14.00">61</text>
</g>
<!-- umls&#45;&#45;orphanet -->
<g id="edge22" class="edge">
<title>umls&#45;&#45;orphanet</title>
<path fill="none" stroke="black" stroke-width="1.04" d="M478.99,-222.88C502.33,-204.47 543.06,-172.34 567.54,-153.03"/>
<text text-anchor="middle" x="517.57" y="-202.1" font-family="Times,serif" font-size="14.00">160</text>
</g>
</g>
</svg>
