<?xml version="1.0" encoding="UTF-8" standalone="no"?>
<!DOCTYPE svg PUBLIC "-//W3C//DTD SVG 1.1//EN"
 "http://www.w3.org/Graphics/SVG/1.1/DTD/svg11.dtd">
<!-- Generated by graphviz version 12.2.1 (20241206.2353)
 -->
<!-- Pages: 1 -->
<svg width="1305pt" height="1271pt"
 viewBox="0.00 0.00 1305.48 1270.50" xmlns="http://www.w3.org/2000/svg" xmlns:xlink="http://www.w3.org/1999/xlink">
<g id="graph0" class="graph" transform="scale(1 1) rotate(0) translate(4 1266.5)">
<polygon fill="white" stroke="none" points="-4,4 -4,-1266.5 1301.48,-1266.5 1301.48,4 -4,4"/>
<!-- doid
14,372 -->
<g id="node1" class="node">
<title>doid
14,372</title>
<ellipse fill="none" stroke="black" cx="37.83" cy="-548" rx="37.83" ry="28.99"/>
<text text-anchor="middle" x="37.83" y="-551.2" font-family="Times,serif" font-size="14.00">doid</text>
<text text-anchor="middle" x="37.83" y="-534.7" font-family="Times,serif" font-size="14.00">14,372</text>
</g>
<!-- umls
189,003 -->
<g id="node2" class="node">
<title>umls
189,003</title>
<ellipse fill="none" stroke="black" cx="185.01" cy="-481" rx="42.6" ry="28.99"/>
<text text-anchor="middle" x="185.01" y="-484.2" font-family="Times,serif" font-size="14.00">umls</text>
<text text-anchor="middle" x="185.01" y="-467.7" font-family="Times,serif" font-size="14.00">189,003</text>
</g>
<!-- doid
14,372&#45;&#45;umls
189,003 -->
<g id="edge1" class="edge">
<title>doid
14,372&#45;&#45;umls
189,003</title>
<path fill="none" stroke="black" d="M70.69,-533.3C93.9,-522.59 125.31,-508.09 149.18,-497.08"/>
<text text-anchor="middle" x="109.04" y="-525.67" font-family="Times,serif" font-size="14.00">8,162</text>
</g>
<!-- efo
2,126 -->
<g id="node3" class="node">
<title>efo
2,126</title>
<ellipse fill="none" stroke="black" cx="334.32" cy="-745" rx="33.06" ry="28.99"/>
<text text-anchor="middle" x="334.32" y="-748.2" font-family="Times,serif" font-size="14.00">efo</text>
<text text-anchor="middle" x="334.32" y="-731.7" font-family="Times,serif" font-size="14.00">2,126</text>
</g>
<!-- doid
14,372&#45;&#45;efo
2,126 -->
<g id="edge2" class="edge">
<title>doid
14,372&#45;&#45;efo
2,126</title>
<path fill="none" stroke="black" d="M66.99,-567.04C75.55,-572.82 84.98,-579.18 93.66,-585 171.34,-637.14 263.41,-698.48 307.4,-727.76"/>
<text text-anchor="middle" x="185.01" y="-677.62" font-family="Times,serif" font-size="14.00">1,296</text>
</g>
<!-- mesh
3,178 -->
<g id="node4" class="node">
<title>mesh
3,178</title>
<ellipse fill="none" stroke="black" cx="480.83" cy="-424" rx="33.06" ry="28.99"/>
<text text-anchor="middle" x="480.83" y="-427.2" font-family="Times,serif" font-size="14.00">mesh</text>
<text text-anchor="middle" x="480.83" y="-410.7" font-family="Times,serif" font-size="14.00">3,178</text>
</g>
<!-- doid
14,372&#45;&#45;mesh
3,178 -->
<g id="edge3" class="edge">
<title>doid
14,372&#45;&#45;mesh
3,178</title>
<path fill="none" stroke="black" d="M41.45,-518.9C48.05,-463.06 70.36,-340.48 142.41,-273 194.72,-224.01 223.44,-229.32 294.37,-219 329.51,-213.88 343.95,-200.51 374.27,-219 437.84,-257.77 464.76,-348.42 474.73,-395.1"/>
<text text-anchor="middle" x="260.99" y="-228.34" font-family="Times,serif" font-size="14.00">714</text>
</g>
<!-- ncit
20,522 -->
<g id="node5" class="node">
<title>ncit
20,522</title>
<ellipse fill="none" stroke="black" cx="625.21" cy="-552" rx="37.83" ry="28.99"/>
<text text-anchor="middle" x="625.21" y="-555.2" font-family="Times,serif" font-size="14.00">ncit</text>
<text text-anchor="middle" x="625.21" y="-538.7" font-family="Times,serif" font-size="14.00">20,522</text>
</g>
<!-- doid
14,372&#45;&#45;ncit
20,522 -->
<g id="edge4" class="edge">
<title>doid
14,372&#45;&#45;ncit
20,522</title>
<path fill="none" stroke="black" d="M75.8,-550.09C117.15,-552.32 186.16,-555.71 245.62,-557 370.81,-559.72 519.33,-555.62 587.13,-553.35"/>
<text text-anchor="middle" x="334.32" y="-561.1" font-family="Times,serif" font-size="14.00">5,185</text>
</g>
<!-- mondo
30,086 -->
<g id="node6" class="node">
<title>mondo
30,086</title>
<ellipse fill="none" stroke="black" cx="774.91" cy="-828" rx="38.36" ry="28.99"/>
<text text-anchor="middle" x="774.91" y="-831.2" font-family="Times,serif" font-size="14.00">mondo</text>
<text text-anchor="middle" x="774.91" y="-814.7" font-family="Times,serif" font-size="14.00">30,086</text>
</g>
<!-- doid
14,372&#45;&#45;mondo
30,086 -->
<g id="edge5" class="edge">
<title>doid
14,372&#45;&#45;mondo
30,086</title>
<path fill="none" stroke="black" d="M51.48,-575.41C93.14,-661.34 235.58,-922.42 447.77,-968 570.46,-994.36 617.83,-962.86 718.54,-888 731.97,-878.02 744.78,-864.5 754.69,-852.81"/>
<text text-anchor="middle" x="411.02" y="-966.77" font-family="Times,serif" font-size="14.00">11,773</text>
</g>
<!-- icdo
797 -->
<g id="node7" class="node">
<title>icdo
797</title>
<ellipse fill="none" stroke="black" cx="924.74" cy="-1075" rx="27.75" ry="28.99"/>
<text text-anchor="middle" x="924.74" y="-1078.2" font-family="Times,serif" font-size="14.00">icdo</text>
<text text-anchor="middle" x="924.74" y="-1061.7" font-family="Times,serif" font-size="14.00">797</text>
</g>
<!-- doid
14,372&#45;&#45;icdo
797 -->
<g id="edge6" class="edge">
<title>doid
14,372&#45;&#45;icdo
797</title>
<path fill="none" stroke="black" d="M39.68,-577.22C43.19,-688.55 58.02,-1081.95 93.66,-1124 120.52,-1155.7 142.46,-1148 184.01,-1148 184.01,-1148 184.01,-1148 412.02,-1148 508.83,-1148 805.92,-1096.15 896.95,-1079.85"/>
<text text-anchor="middle" x="480.83" y="-1149.65" font-family="Times,serif" font-size="14.00">488</text>
</g>
<!-- icd10cm
21,709 -->
<g id="node8" class="node">
<title>icd10cm
21,709</title>
<ellipse fill="none" stroke="black" cx="924.74" cy="-300" rx="44.72" ry="28.99"/>
<text text-anchor="middle" x="924.74" y="-303.2" font-family="Times,serif" font-size="14.00">icd10cm</text>
<text text-anchor="middle" x="924.74" y="-286.7" font-family="Times,serif" font-size="14.00">21,709</text>
</g>
<!-- doid
14,372&#45;&#45;icd10cm
21,709 -->
<g id="edge7" class="edge">
<title>doid
14,372&#45;&#45;icd10cm
21,709</title>
<path fill="none" stroke="black" d="M38.79,-518.65C39.28,-435.87 45.04,-203.02 93.66,-148 121.17,-116.86 142.46,-124 184.01,-124 184.01,-124 184.01,-124 412.02,-124 591.96,-124 655.18,-92.05 813.27,-178 854.56,-200.45 888.4,-244.42 907.32,-272.99"/>
<text text-anchor="middle" x="480.83" y="-126.74" font-family="Times,serif" font-size="14.00">3,617</text>
</g>
<!-- icd9cm
9,134 -->
<g id="node9" class="node">
<title>icd9cm
9,134</title>
<ellipse fill="none" stroke="black" cx="334.32" cy="-257" rx="39.95" ry="28.99"/>
<text text-anchor="middle" x="334.32" y="-260.2" font-family="Times,serif" font-size="14.00">icd9cm</text>
<text text-anchor="middle" x="334.32" y="-243.7" font-family="Times,serif" font-size="14.00">9,134</text>
</g>
<!-- doid
14,372&#45;&#45;icd9cm
9,134 -->
<g id="edge8" class="edge">
<title>doid
14,372&#45;&#45;icd9cm
9,134</title>
<path fill="none" stroke="black" d="M49.37,-520.22C73.6,-460.76 139.46,-321.78 245.62,-263 260.3,-254.87 278.56,-252.62 294.61,-252.69"/>
<text text-anchor="middle" x="185.01" y="-357.04" font-family="Times,serif" font-size="14.00">2,225</text>
</g>
<!-- orphanet
15,066 -->
<g id="node10" class="node">
<title>orphanet
15,066</title>
<ellipse fill="none" stroke="black" cx="1087.69" cy="-513" rx="44.72" ry="28.99"/>
<text text-anchor="middle" x="1087.69" y="-516.2" font-family="Times,serif" font-size="14.00">orphanet</text>
<text text-anchor="middle" x="1087.69" y="-499.7" font-family="Times,serif" font-size="14.00">15,066</text>
</g>
<!-- doid
14,372&#45;&#45;orphanet
15,066 -->
<g id="edge9" class="edge">
<title>doid
14,372&#45;&#45;orphanet
15,066</title>
<path fill="none" stroke="black" d="M40.89,-518.75C45.26,-469.39 58.14,-367.26 93.66,-289 108.58,-256.12 111.12,-242.02 142.41,-224 201.34,-190.05 226.48,-210.01 294.37,-206 638.28,-185.7 734.72,-279.4 1024.96,-465 1036.74,-472.53 1049.04,-481.77 1059.52,-490.13"/>
<text text-anchor="middle" x="550.63" y="-225.17" font-family="Times,serif" font-size="14.00">2,696</text>
</g>
<!-- gard
6,109 -->
<g id="node11" class="node">
<title>gard
6,109</title>
<ellipse fill="none" stroke="black" cx="1251.7" cy="-1195" rx="33.06" ry="28.99"/>
<text text-anchor="middle" x="1251.7" y="-1198.2" font-family="Times,serif" font-size="14.00">gard</text>
<text text-anchor="middle" x="1251.7" y="-1181.7" font-family="Times,serif" font-size="14.00">6,109</text>
</g>
<!-- doid
14,372&#45;&#45;gard
6,109 -->
<g id="edge10" class="edge">
<title>doid
14,372&#45;&#45;gard
6,109</title>
<path fill="none" stroke="black" d="M39.02,-577.27C40.08,-683.06 47.1,-1044.86 93.66,-1149 117.71,-1202.78 125.1,-1246 184.01,-1246 184.01,-1246 184.01,-1246 1088.69,-1246 1137.49,-1246 1190.9,-1224.68 1222.57,-1209.61"/>
<text text-anchor="middle" x="625.21" y="-1249.2" font-family="Times,serif" font-size="14.00">2,136</text>
</g>
<!-- omim
15,261 -->
<g id="node12" class="node">
<title>omim
15,261</title>
<ellipse fill="none" stroke="black" cx="1251.7" cy="-205" rx="37.83" ry="28.99"/>
<text text-anchor="middle" x="1251.7" y="-208.2" font-family="Times,serif" font-size="14.00">omim</text>
<text text-anchor="middle" x="1251.7" y="-191.7" font-family="Times,serif" font-size="14.00">15,261</text>
</g>
<!-- doid
14,372&#45;&#45;omim
15,261 -->
<g id="edge11" class="edge">
<title>doid
14,372&#45;&#45;omim
15,261</title>
<path fill="none" stroke="black" d="M40.69,-518.79C46.33,-435.05 64.62,-195.52 93.66,-123 118.88,-60.03 116.18,0 184.01,0 184.01,0 184.01,0 1088.69,0 1099.16,0 1185.32,-54.99 1187.91,-58 1218.03,-92.86 1235.49,-144.32 1244.04,-176.2"/>
<text text-anchor="middle" x="625.21" y="-3.2" font-family="Times,serif" font-size="14.00">5,910</text>
</g>
<!-- omim.ps
590 -->
<g id="node13" class="node">
<title>omim.ps
590</title>
<ellipse fill="none" stroke="black" cx="1251.7" cy="-942" rx="45.79" ry="28.99"/>
<text text-anchor="middle" x="1251.7" y="-945.2" font-family="Times,serif" font-size="14.00">omim.ps</text>
<text text-anchor="middle" x="1251.7" y="-928.7" font-family="Times,serif" font-size="14.00">590</text>
</g>
<!-- doid
14,372&#45;&#45;omim.ps
590 -->
<g id="edge12" class="edge">
<title>doid
14,372&#45;&#45;omim.ps
590</title>
<path fill="none" stroke="black" d="M46.3,-576.58C75.57,-681.7 193.57,-1046.99 447.77,-1167 552.74,-1216.55 858.36,-1174.59 969.46,-1141 1045.43,-1118.04 1067.78,-1114.05 1132.41,-1068 1172.37,-1039.53 1209.53,-996.03 1231.18,-968.31"/>
<text text-anchor="middle" x="625.21" y="-1192.95" font-family="Times,serif" font-size="14.00">62</text>
</g>
<!-- umls
189,003&#45;&#45;efo
2,126 -->
<g id="edge13" class="edge">
<title>umls
189,003&#45;&#45;efo
2,126</title>
<path fill="none" stroke="black" d="M201.22,-508.26C229.74,-559.37 290.9,-668.97 318.85,-719.06"/>
<text text-anchor="middle" x="260.99" y="-639.85" font-family="Times,serif" font-size="14.00">1,719</text>
</g>
<!-- umls
189,003&#45;&#45;mesh
3,178 -->
<g id="edge14" class="edge">
<title>umls
189,003&#45;&#45;mesh
3,178</title>
<path fill="none" stroke="black" d="M224.07,-468.95C244.71,-462.76 270.75,-455.49 294.37,-450.5 347.67,-439.24 410.62,-431.37 447.77,-427.27"/>
<text text-anchor="middle" x="334.32" y="-453.7" font-family="Times,serif" font-size="14.00">2,225</text>
</g>
<!-- umls
189,003&#45;&#45;ncit
20,522 -->
<g id="edge15" class="edge">
<title>umls
189,003&#45;&#45;ncit
20,522</title>
<path fill="none" stroke="black" d="M226.38,-488.61C232.81,-489.78 239.39,-490.94 245.62,-492 327.27,-505.85 347.96,-507.58 429.77,-520.5 491.85,-530.31 507.35,-532.91 569.38,-543 575.38,-543.98 581.75,-545.02 587.94,-546.03"/>
<text text-anchor="middle" x="411.02" y="-523.7" font-family="Times,serif" font-size="14.00">19,779</text>
</g>
<!-- umls
189,003&#45;&#45;mondo
30,086 -->
<g id="edge16" class="edge">
<title>umls
189,003&#45;&#45;mondo
30,086</title>
<path fill="none" stroke="black" d="M195.24,-509.48C206.65,-544.39 226.87,-605.29 245.62,-657 289.79,-778.82 275.88,-852.04 392.27,-909 436.6,-930.69 306.07,-998.71 663.04,-890 693.42,-880.75 724.7,-862.29 746.26,-847.91"/>
<text text-anchor="middle" x="480.83" y="-950.45" font-family="Times,serif" font-size="14.00">20,841</text>
</g>
<!-- umls
189,003&#45;&#45;icd10cm
21,709 -->
<g id="edge17" class="edge">
<title>umls
189,003&#45;&#45;icd10cm
21,709</title>
<path fill="none" stroke="black" d="M195.71,-452.86C205.12,-429.37 221.53,-396.53 245.62,-376 292.07,-336.41 323.03,-361.15 374.27,-328 457.95,-273.87 439.92,-206.91 531.88,-168.5 665.64,-112.63 832.29,-226.8 896.64,-277.46"/>
<text text-anchor="middle" x="550.63" y="-171.7" font-family="Times,serif" font-size="14.00">25,266</text>
</g>
<!-- umls
189,003&#45;&#45;icd9cm
9,134 -->
<g id="edge18" class="edge">
<title>umls
189,003&#45;&#45;icd9cm
9,134</title>
<path fill="none" stroke="black" d="M186.56,-451.88C188.97,-409.09 199.79,-329.35 245.62,-283.5 258.55,-270.56 277.56,-263.9 294.58,-260.49"/>
<text text-anchor="middle" x="260.99" y="-286.7" font-family="Times,serif" font-size="14.00">9,005</text>
</g>
<!-- umls
189,003&#45;&#45;orphanet
15,066 -->
<g id="edge19" class="edge">
<title>umls
189,003&#45;&#45;orphanet
15,066</title>
<path fill="none" stroke="black" d="M227.81,-482.42C310.78,-485.24 502.18,-491.78 663.04,-497.5 801.69,-502.43 965.85,-508.51 1042.78,-511.36"/>
<text text-anchor="middle" x="625.21" y="-500.7" font-family="Times,serif" font-size="14.00">9,204</text>
</g>
<!-- umls
189,003&#45;&#45;omim
15,261 -->
<g id="edge20" class="edge">
<title>umls
189,003&#45;&#45;omim
15,261</title>
<path fill="none" stroke="black" d="M193.48,-452.16C202.04,-423.92 218.5,-381.17 245.62,-353 289.12,-307.81 329.92,-339.35 374.27,-295 404.53,-264.74 415.22,-144.78 447.77,-117 584.91,0.02 665.36,-38 845.64,-38 845.64,-38 845.64,-38 1088.69,-38 1165.44,-38 1217.51,-129.99 1239.25,-177.42"/>
<text text-anchor="middle" x="699.79" y="-36.61" font-family="Times,serif" font-size="14.00">13,419</text>
</g>
<!-- umls
189,003&#45;&#45;omim.ps
590 -->
<g id="edge21" class="edge">
<title>umls
189,003&#45;&#45;omim.ps
590</title>
<path fill="none" stroke="black" d="M196.07,-509.44C205.29,-536.36 218.81,-578.03 227.62,-615 254.86,-729.38 235.07,-769.47 294.37,-871 375.96,-1010.71 439.05,-1022.39 587.38,-1087 652.02,-1115.15 666.58,-1132.31 736.54,-1141 840.02,-1153.85 871.84,-1149.61 969.46,-1113 1069.52,-1075.48 1173.46,-1001.53 1222.23,-964.39"/>
<text text-anchor="middle" x="699.79" y="-1141.55" font-family="Times,serif" font-size="14.00">68</text>
</g>
<!-- icd10
2,345 -->
<g id="node14" class="node">
<title>icd10
2,345</title>
<ellipse fill="none" stroke="black" cx="1251.7" cy="-513" rx="33.06" ry="28.99"/>
<text text-anchor="middle" x="1251.7" y="-516.2" font-family="Times,serif" font-size="14.00">icd10</text>
<text text-anchor="middle" x="1251.7" y="-499.7" font-family="Times,serif" font-size="14.00">2,345</text>
</g>
<!-- umls
189,003&#45;&#45;icd10
2,345 -->
<g id="edge22" class="edge">
<title>umls
189,003&#45;&#45;icd10
2,345</title>
<path fill="none" stroke="black" d="M219.43,-463.35C227.88,-459.12 237.01,-454.74 245.62,-451 332.17,-413.38 354.43,-399.98 447.77,-386 599.5,-363.28 983.74,-437.13 1132.41,-475 1162.93,-482.77 1197.11,-494.04 1220.85,-502.29"/>
<text text-anchor="middle" x="699.79" y="-400.5" font-family="Times,serif" font-size="14.00">5,668</text>
</g>
<!-- efo
2,126&#45;&#45;mesh
3,178 -->
<g id="edge23" class="edge">
<title>efo
2,126&#45;&#45;mesh
3,178</title>
<path fill="none" stroke="black" d="M344.94,-717.32C354.24,-693.55 370.18,-659.44 392.27,-635.5 405.61,-621.05 418.09,-627.83 429.77,-612 465.16,-564.03 475.55,-492.84 478.58,-453.25"/>
<text text-anchor="middle" x="411.02" y="-638.7" font-family="Times,serif" font-size="14.00">440</text>
</g>
<!-- efo
2,126&#45;&#45;ncit
20,522 -->
<g id="edge24" class="edge">
<title>efo
2,126&#45;&#45;ncit
20,522</title>
<path fill="none" stroke="black" d="M353.07,-720.91C363.52,-707.79 377.54,-691.85 392.27,-680 456.58,-628.23 544.74,-586.13 591.68,-565.59"/>
<text text-anchor="middle" x="480.83" y="-643.7" font-family="Times,serif" font-size="14.00">1,221</text>
</g>
<!-- efo
2,126&#45;&#45;mondo
30,086 -->
<g id="edge25" class="edge">
<title>efo
2,126&#45;&#45;mondo
30,086</title>
<path fill="none" stroke="black" d="M359.52,-764.22C369.18,-770.93 380.74,-777.82 392.27,-782 512.41,-825.59 666.36,-829.7 736.31,-829.01"/>
<text text-anchor="middle" x="550.63" y="-823.79" font-family="Times,serif" font-size="14.00">1,681</text>
</g>
<!-- efo
2,126&#45;&#45;icdo
797 -->
<g id="edge26" class="edge">
<title>efo
2,126&#45;&#45;icdo
797</title>
<path fill="none" stroke="black" d="M339.96,-773.95C349.71,-823.75 377.53,-924.11 447.77,-964 612.03,-1057.27 678.52,-1014.19 862.02,-1059 873.63,-1061.84 886.43,-1065.13 897.35,-1067.98"/>
<text text-anchor="middle" x="625.21" y="-1034.37" font-family="Times,serif" font-size="14.00">62</text>
</g>
<!-- efo
2,126&#45;&#45;icd10cm
21,709 -->
<g id="edge27" class="edge">
<title>efo
2,126&#45;&#45;icd10cm
21,709</title>
<path fill="none" stroke="black" d="M343.08,-716.63C351.74,-688.67 367.83,-645.78 392.27,-615 405.21,-598.71 419.63,-605.16 429.77,-587 451.64,-547.85 420.96,-421.95 447.77,-386 548.81,-250.54 785.14,-274.91 881.61,-291.53"/>
<text text-anchor="middle" x="625.21" y="-299.3" font-family="Times,serif" font-size="14.00">319</text>
</g>
<!-- efo
2,126&#45;&#45;orphanet
15,066 -->
<g id="edge28" class="edge">
<title>efo
2,126&#45;&#45;orphanet
15,066</title>
<path fill="none" stroke="black" d="M360.28,-726.74C369.94,-720.23 381.3,-713.22 392.27,-708 474.55,-668.84 499.79,-670.13 587.38,-645 645.16,-628.42 660.35,-627.06 718.54,-612 768.73,-599.01 781.05,-594.9 831.27,-582 917.17,-559.93 939.86,-558.97 1024.96,-534 1032.46,-531.8 1040.4,-529.26 1048,-526.73"/>
<text text-anchor="middle" x="699.79" y="-624.45" font-family="Times,serif" font-size="14.00">408</text>
</g>
<!-- efo
2,126&#45;&#45;gard
6,109 -->
<g id="edge29" class="edge">
<title>efo
2,126&#45;&#45;gard
6,109</title>
<path fill="none" stroke="black" d="M338.41,-774.25C343.85,-815.18 358,-890.64 392.27,-945 409.82,-972.84 419.87,-976.56 447.77,-994 565.42,-1067.52 911.98,-1170.25 987.46,-1184 1069.59,-1198.96 1168.4,-1198.18 1218.37,-1196.5"/>
<text text-anchor="middle" x="774.91" y="-1139.46" font-family="Times,serif" font-size="14.00">290</text>
</g>
<!-- efo
2,126&#45;&#45;omim
15,261 -->
<g id="edge30" class="edge">
<title>efo
2,126&#45;&#45;omim
15,261</title>
<path fill="none" stroke="black" d="M342.9,-716.75C352.1,-684.81 369.27,-631.83 392.27,-590 405.48,-565.97 419.9,-566.59 429.77,-541 464.58,-450.7 421.96,-417.27 447.77,-324 470.36,-242.37 465.24,-205.27 531.88,-153 644.23,-64.89 702.86,-84 845.64,-84 845.64,-84 845.64,-84 1088.69,-84 1151.88,-84 1206.3,-143.82 1233.05,-179.34"/>
<text text-anchor="middle" x="774.91" y="-86.9" font-family="Times,serif" font-size="14.00">323</text>
</g>
<!-- efo
2,126&#45;&#45;omim.ps
590 -->
<g id="edge33" class="edge">
<title>efo
2,126&#45;&#45;omim.ps
590</title>
<path fill="none" stroke="black" d="M349.48,-770.85C359.63,-787.48 374.6,-808.59 392.27,-823 466.14,-883.23 498.13,-878.56 587.38,-912 591.35,-913.49 875.82,-998.39 880.02,-999 1000.67,-1016.56 1143.14,-977.93 1210.96,-955.92"/>
<text text-anchor="middle" x="774.91" y="-982.55" font-family="Times,serif" font-size="14.00">25</text>
</g>
<!-- efo
2,126&#45;&#45;icd10
2,345 -->
<g id="edge34" class="edge">
<title>efo
2,126&#45;&#45;icd10
2,345</title>
<path fill="none" stroke="black" d="M367.44,-741.55C426.15,-735.19 554.76,-721.1 663.04,-708 759.57,-696.32 783.46,-691.4 880.02,-680 1016.69,-663.86 1075.88,-726.93 1187.91,-647 1222.63,-622.23 1238.72,-573.24 1245.75,-541.86"/>
<text text-anchor="middle" x="774.91" y="-701.84" font-family="Times,serif" font-size="14.00">525</text>
</g>
<!-- icd9
3,963 -->
<g id="node15" class="node">
<title>icd9
3,963</title>
<ellipse fill="none" stroke="black" cx="924.74" cy="-718" rx="33.06" ry="28.99"/>
<text text-anchor="middle" x="924.74" y="-721.2" font-family="Times,serif" font-size="14.00">icd9</text>
<text text-anchor="middle" x="924.74" y="-704.7" font-family="Times,serif" font-size="14.00">3,963</text>
</g>
<!-- efo
2,126&#45;&#45;icd9
3,963 -->
<g id="edge31" class="edge">
<title>efo
2,126&#45;&#45;icd9
3,963</title>
<path fill="none" stroke="black" d="M367.43,-744.56C426.15,-743.66 554.74,-741.22 663.04,-736 745.52,-732.02 842.49,-724.6 891.66,-720.65"/>
<text text-anchor="middle" x="625.21" y="-742.27" font-family="Times,serif" font-size="14.00">1,194</text>
</g>
<!-- icd11
71,175 -->
<g id="node16" class="node">
<title>icd11
71,175</title>
<ellipse fill="none" stroke="black" cx="924.74" cy="-961" rx="37.83" ry="28.99"/>
<text text-anchor="middle" x="924.74" y="-964.2" font-family="Times,serif" font-size="14.00">icd11</text>
<text text-anchor="middle" x="924.74" y="-947.7" font-family="Times,serif" font-size="14.00">71,175</text>
</g>
<!-- efo
2,126&#45;&#45;icd11
71,175 -->
<g id="edge32" class="edge">
<title>efo
2,126&#45;&#45;icd11
71,175</title>
<path fill="none" stroke="black" d="M354.09,-768.46C364.32,-779.94 377.84,-793.16 392.27,-802 414.38,-815.55 423.07,-812.1 447.77,-820 618,-874.46 658.52,-895.17 831.27,-941 849.68,-945.89 870.4,-950.45 887.54,-953.98"/>
<text text-anchor="middle" x="625.21" y="-895.01" font-family="Times,serif" font-size="14.00">410</text>
</g>
<!-- mesh
3,178&#45;&#45;ncit
20,522 -->
<g id="edge35" class="edge">
<title>mesh
3,178&#45;&#45;ncit
20,522</title>
<path fill="none" stroke="black" d="M507.99,-440.84C526.09,-453.06 550.26,-470.53 569.38,-488.5 578.47,-497.03 579.28,-500.54 587.38,-510 592.43,-515.89 597.92,-522.2 603.08,-528.1"/>
<text text-anchor="middle" x="550.63" y="-491.7" font-family="Times,serif" font-size="14.00">407</text>
</g>
<!-- mesh
3,178&#45;&#45;mondo
30,086 -->
<g id="edge36" class="edge">
<title>mesh
3,178&#45;&#45;mondo
30,086</title>
<path fill="none" stroke="black" d="M496.49,-449.94C506.24,-466.92 519.48,-489.49 531.88,-509 605.57,-624.85 709.61,-751.81 753.31,-803.79"/>
<text text-anchor="middle" x="625.21" y="-693.84" font-family="Times,serif" font-size="14.00">909</text>
</g>
<!-- mesh
3,178&#45;&#45;icd10cm
21,709 -->
<g id="edge37" class="edge">
<title>mesh
3,178&#45;&#45;icd10cm
21,709</title>
<path fill="none" stroke="black" d="M510.59,-410.65C548.79,-393.4 618.71,-363.45 681.04,-345.5 749.63,-325.75 831.67,-312.44 880.64,-305.55"/>
<text text-anchor="middle" x="699.79" y="-348.7" font-family="Times,serif" font-size="14.00">197</text>
</g>
<!-- mesh
3,178&#45;&#45;orphanet
15,066 -->
<g id="edge38" class="edge">
<title>mesh
3,178&#45;&#45;orphanet
15,066</title>
<path fill="none" stroke="black" d="M514.21,-423.04C599.75,-421.42 838,-422.81 1024.96,-480 1035.07,-483.09 1045.44,-487.89 1054.72,-492.89"/>
<text text-anchor="middle" x="774.91" y="-440.31" font-family="Times,serif" font-size="14.00">207</text>
</g>
<!-- ncit
20,522&#45;&#45;mondo
30,086 -->
<g id="edge39" class="edge">
<title>ncit
20,522&#45;&#45;mondo
30,086</title>
<path fill="none" stroke="black" d="M659.78,-564.08C682.91,-573.07 710.81,-585.46 718.54,-595.5 745.44,-630.4 726.66,-650.06 736.54,-693 745.08,-730.09 757.14,-772.28 765.23,-799.48"/>
<text text-anchor="middle" x="699.79" y="-598.7" font-family="Times,serif" font-size="14.00">7,422</text>
</g>
<!-- ncit
20,522&#45;&#45;icd10cm
21,709 -->
<g id="edge40" class="edge">
<title>ncit
20,522&#45;&#45;icd10cm
21,709</title>
<path fill="none" stroke="black" d="M647.45,-528.19C652.61,-522.29 658.07,-515.96 663.04,-510 696.7,-469.69 697.41,-452.51 736.54,-417.5 762.21,-394.54 843.92,-346.01 890.46,-319.05"/>
<text text-anchor="middle" x="774.91" y="-420.7" font-family="Times,serif" font-size="14.00">517</text>
</g>
<!-- ncit
20,522&#45;&#45;orphanet
15,066 -->
<g id="edge41" class="edge">
<title>ncit
20,522&#45;&#45;orphanet
15,066</title>
<path fill="none" stroke="black" d="M663.12,-548.87C747.2,-541.75 952.71,-524.35 1042.96,-516.7"/>
<text text-anchor="middle" x="846.64" y="-537.5" font-family="Times,serif" font-size="14.00">759</text>
</g>
<!-- ncit
20,522&#45;&#45;omim
15,261 -->
<g id="edge42" class="edge">
<title>ncit
20,522&#45;&#45;omim
15,261</title>
<path fill="none" stroke="black" d="M650.11,-529.83C655.19,-523.88 659.95,-517.11 663.04,-510 694.77,-437.09 642.42,-401.5 681.04,-332 725.93,-251.23 753.24,-205 845.64,-205 845.64,-205 845.64,-205 1088.69,-205 1131.44,-205 1180.54,-205 1213.38,-205"/>
<text text-anchor="middle" x="924.74" y="-208.2" font-family="Times,serif" font-size="14.00">218</text>
</g>
<!-- ncit
20,522&#45;&#45;omim.ps
590 -->
<g id="edge43" class="edge">
<title>ncit
20,522&#45;&#45;omim.ps
590</title>
<path fill="none" stroke="black" d="M662.03,-559.79C679.26,-563.83 700.13,-569.14 718.54,-575 769.79,-591.31 780.6,-600.97 831.27,-619 892.06,-640.63 914.32,-629.99 969.46,-663.5 1085.15,-733.79 1189.33,-860.82 1231.2,-915.64"/>
<text text-anchor="middle" x="924.74" y="-666.7" font-family="Times,serif" font-size="14.00">31</text>
</g>
<!-- mondo
30,086&#45;&#45;icdo
797 -->
<g id="edge44" class="edge">
<title>mondo
30,086&#45;&#45;icdo
797</title>
<path fill="none" stroke="black" d="M787.67,-855.6C798.13,-879.31 814.35,-914.13 831.27,-943 854.88,-983.32 887.04,-1027.21 906.54,-1052.85"/>
<text text-anchor="middle" x="846.64" y="-991.06" font-family="Times,serif" font-size="14.00">725</text>
</g>
<!-- mondo
30,086&#45;&#45;icd10cm
21,709 -->
<g id="edge45" class="edge">
<title>mondo
30,086&#45;&#45;icd10cm
21,709</title>
<path fill="none" stroke="black" d="M785.47,-799.89C802.08,-750.61 836.89,-645.25 862.02,-555 884.68,-473.6 906.91,-376.28 917.43,-328.85"/>
<text text-anchor="middle" x="846.64" y="-656.32" font-family="Times,serif" font-size="14.00">1,713</text>
</g>
<!-- mondo
30,086&#45;&#45;orphanet
15,066 -->
<g id="edge46" class="edge">
<title>mondo
30,086&#45;&#45;orphanet
15,066</title>
<path fill="none" stroke="black" d="M811.47,-818.24C860.56,-804.2 945.74,-777.61 969.46,-756 1034.92,-696.39 1067.62,-592.35 1080.25,-541.97"/>
<text text-anchor="middle" x="924.74" y="-799.93" font-family="Times,serif" font-size="14.00">10,301</text>
</g>
<!-- mondo
30,086&#45;&#45;gard
6,109 -->
<g id="edge47" class="edge">
<title>mondo
30,086&#45;&#45;gard
6,109</title>
<path fill="none" stroke="black" d="M805.49,-845.81C813.75,-850.58 822.78,-855.63 831.27,-860 891.27,-890.93 913.68,-884.98 969.46,-923 1081.16,-999.12 1189.14,-1121.26 1231.69,-1171.87"/>
<text text-anchor="middle" x="1006.21" y="-965.35" font-family="Times,serif" font-size="14.00">10,732</text>
</g>
<!-- mondo
30,086&#45;&#45;omim
15,261 -->
<g id="edge48" class="edge">
<title>mondo
30,086&#45;&#45;omim
15,261</title>
<path fill="none" stroke="black" d="M813.59,-830.3C853.3,-831.57 917.21,-830.33 969.46,-814 1077.09,-780.38 1127.88,-780.44 1187.91,-685 1212.85,-645.35 1200.08,-521.47 1205.91,-475 1217.02,-386.6 1235.88,-282.85 1245.18,-233.66"/>
<text text-anchor="middle" x="1006.21" y="-811.35" font-family="Times,serif" font-size="14.00">10,027</text>
</g>
<!-- mondo
30,086&#45;&#45;omim.ps
590 -->
<g id="edge51" class="edge">
<title>mondo
30,086&#45;&#45;omim.ps
590</title>
<path fill="none" stroke="black" d="M811.62,-837.11C818.15,-838.75 824.91,-840.44 831.27,-842 969.03,-875.84 1132.67,-914.38 1208.38,-932.11"/>
<text text-anchor="middle" x="1006.21" y="-891.1" font-family="Times,serif" font-size="14.00">597</text>
</g>
<!-- mondo
30,086&#45;&#45;icd9
3,963 -->
<g id="edge49" class="edge">
<title>mondo
30,086&#45;&#45;icd9
3,963</title>
<path fill="none" stroke="black" d="M790.24,-801.13C799.97,-785.11 814.15,-765.44 831.27,-752.5 849.31,-738.85 873.33,-730.11 892.37,-724.84"/>
<text text-anchor="middle" x="846.64" y="-755.7" font-family="Times,serif" font-size="14.00">4,417</text>
</g>
<!-- mondo
30,086&#45;&#45;icd11
71,175 -->
<g id="edge50" class="edge">
<title>mondo
30,086&#45;&#45;icd11
71,175</title>
<path fill="none" stroke="black" d="M792.4,-854.11C802.51,-868.89 816.35,-887.14 831.27,-901 841.71,-910.71 871.32,-929.44 894.25,-943.4"/>
<text text-anchor="middle" x="846.64" y="-926.1" font-family="Times,serif" font-size="14.00">4,138</text>
</g>
<!-- icd10cm
21,709&#45;&#45;orphanet
15,066 -->
<g id="edge52" class="edge">
<title>icd10cm
21,709&#45;&#45;orphanet
15,066</title>
<path fill="none" stroke="black" d="M952.24,-323.03C973.51,-342.36 1003.28,-371.4 1024.96,-400.5 1045.07,-427.47 1062.93,-461.77 1074.2,-485.36"/>
<text text-anchor="middle" x="1006.21" y="-403.7" font-family="Times,serif" font-size="14.00">206</text>
</g>
<!-- icd10cm
21,709&#45;&#45;omim
15,261 -->
<g id="edge53" class="edge">
<title>icd10cm
21,709&#45;&#45;omim
15,261</title>
<path fill="none" stroke="black" d="M965.91,-288.26C1030.27,-269.44 1155.4,-232.86 1216.06,-215.13"/>
<text text-anchor="middle" x="1087.69" y="-268.23" font-family="Times,serif" font-size="14.00">47</text>
</g>
<!-- orphanet
15,066&#45;&#45;gard
6,109 -->
<g id="edge54" class="edge">
<title>orphanet
15,066&#45;&#45;gard
6,109</title>
<path fill="none" stroke="black" d="M1095.55,-541.87C1122.05,-653.42 1217.58,-1055.6 1243.93,-1166.5"/>
<text text-anchor="middle" x="1169.16" y="-918.29" font-family="Times,serif" font-size="14.00">48</text>
</g>
<!-- orphanet
15,066&#45;&#45;omim
15,261 -->
<g id="edge55" class="edge">
<title>orphanet
15,066&#45;&#45;omim
15,261</title>
<path fill="none" stroke="black" d="M1103.21,-485.4C1134.12,-426.63 1206.1,-289.79 1236.62,-231.77"/>
<text text-anchor="middle" x="1169.16" y="-398.84" font-family="Times,serif" font-size="14.00">11,468</text>
</g>
<!-- orphanet
15,066&#45;&#45;omim.ps
590 -->
<g id="edge56" class="edge">
<title>orphanet
15,066&#45;&#45;omim.ps
590</title>
<path fill="none" stroke="black" d="M1106.26,-539.76C1128.12,-574.1 1165.32,-636.1 1187.91,-693.5 1218.07,-770.1 1237.43,-865.76 1245.85,-912.93"/>
<text text-anchor="middle" x="1169.16" y="-696.7" font-family="Times,serif" font-size="14.00">55</text>
</g>
<!-- orphanet
15,066&#45;&#45;icd10
2,345 -->
<g id="edge57" class="edge">
<title>orphanet
15,066&#45;&#45;icd10
2,345</title>
<path fill="none" stroke="black" d="M1132.53,-513C1159.61,-513 1193.77,-513 1218.39,-513"/>
<text text-anchor="middle" x="1169.16" y="-516.2" font-family="Times,serif" font-size="14.00">7,850</text>
</g>
</g>
</svg>
