<?xml version="1.0" encoding="UTF-8" standalone="no"?>
<!DOCTYPE svg PUBLIC "-//W3C//DTD SVG 1.1//EN"
 "http://www.w3.org/Graphics/SVG/1.1/DTD/svg11.dtd">
<!-- Generated by graphviz version 12.2.1 (20241206.2353)
 -->
<!-- Pages: 1 -->
<svg width="1296pt" height="1246pt"
 viewBox="0.00 0.00 1296.45 1245.50" xmlns="http://www.w3.org/2000/svg" xmlns:xlink="http://www.w3.org/1999/xlink">
<g id="graph0" class="graph" transform="scale(1 1) rotate(0) translate(4 1241.5)">
<polygon fill="white" stroke="none" points="-4,4 -4,-1241.5 1292.45,-1241.5 1292.45,4 -4,4"/>
<!-- doid
14,372 -->
<g id="node1" class="node">
<title>doid
14,372</title>
<ellipse fill="none" stroke="black" cx="37.83" cy="-529" rx="37.83" ry="28.99"/>
<text text-anchor="middle" x="37.83" y="-532.2" font-family="Times,serif" font-size="14.00">doid</text>
<text text-anchor="middle" x="37.83" y="-515.7" font-family="Times,serif" font-size="14.00">14,372</text>
</g>
<!-- umls
189,003 -->
<g id="node2" class="node">
<title>umls
189,003</title>
<ellipse fill="none" stroke="black" cx="185.01" cy="-462" rx="42.6" ry="28.99"/>
<text text-anchor="middle" x="185.01" y="-465.2" font-family="Times,serif" font-size="14.00">umls</text>
<text text-anchor="middle" x="185.01" y="-448.7" font-family="Times,serif" font-size="14.00">189,003</text>
</g>
<!-- doid
14,372&#45;&#45;umls
189,003 -->
<g id="edge1" class="edge">
<title>doid
14,372&#45;&#45;umls
189,003</title>
<path fill="none" stroke="black" d="M70.69,-514.3C93.9,-503.59 125.31,-489.09 149.18,-478.08"/>
<text text-anchor="middle" x="109.04" y="-506.67" font-family="Times,serif" font-size="14.00">8,162</text>
</g>
<!-- efo
2,126 -->
<g id="node3" class="node">
<title>efo
2,126</title>
<ellipse fill="none" stroke="black" cx="332.92" cy="-720" rx="33.06" ry="28.99"/>
<text text-anchor="middle" x="332.92" y="-723.2" font-family="Times,serif" font-size="14.00">efo</text>
<text text-anchor="middle" x="332.92" y="-706.7" font-family="Times,serif" font-size="14.00">2,126</text>
</g>
<!-- doid
14,372&#45;&#45;efo
2,126 -->
<g id="edge2" class="edge">
<title>doid
14,372&#45;&#45;efo
2,126</title>
<path fill="none" stroke="black" d="M66.93,-548.12C75.49,-553.9 84.94,-560.24 93.66,-566 170.31,-616.62 261.73,-675.22 305.72,-703.31"/>
<text text-anchor="middle" x="185.01" y="-655.6" font-family="Times,serif" font-size="14.00">1,296</text>
</g>
<!-- mesh
3,178 -->
<g id="node4" class="node">
<title>mesh
3,178</title>
<ellipse fill="none" stroke="black" cx="478.04" cy="-405" rx="33.06" ry="28.99"/>
<text text-anchor="middle" x="478.04" y="-408.2" font-family="Times,serif" font-size="14.00">mesh</text>
<text text-anchor="middle" x="478.04" y="-391.7" font-family="Times,serif" font-size="14.00">3,178</text>
</g>
<!-- doid
14,372&#45;&#45;mesh
3,178 -->
<g id="edge3" class="edge">
<title>doid
14,372&#45;&#45;mesh
3,178</title>
<path fill="none" stroke="black" d="M41.98,-499.83C49.39,-445.74 72.9,-329.6 142.41,-266 178.53,-232.95 198,-238.88 245.62,-227.5 300.07,-214.48 322.99,-193.99 371.48,-222 429.28,-255.39 458.25,-333.8 470.16,-376.34"/>
<text text-anchor="middle" x="260.99" y="-230.7" font-family="Times,serif" font-size="14.00">714</text>
</g>
<!-- ncit
20,522 -->
<g id="node5" class="node">
<title>ncit
20,522</title>
<ellipse fill="none" stroke="black" cx="622.42" cy="-533" rx="37.83" ry="28.99"/>
<text text-anchor="middle" x="622.42" y="-536.2" font-family="Times,serif" font-size="14.00">ncit</text>
<text text-anchor="middle" x="622.42" y="-519.7" font-family="Times,serif" font-size="14.00">20,522</text>
</g>
<!-- doid
14,372&#45;&#45;ncit
20,522 -->
<g id="edge4" class="edge">
<title>doid
14,372&#45;&#45;ncit
20,522</title>
<path fill="none" stroke="black" d="M75.8,-531.09C117.15,-533.32 186.16,-536.71 245.62,-538 369.73,-540.7 516.92,-536.63 584.35,-534.35"/>
<text text-anchor="middle" x="332.92" y="-542.09" font-family="Times,serif" font-size="14.00">5,185</text>
</g>
<!-- mondo
30,086 -->
<g id="node6" class="node">
<title>mondo
30,086</title>
<ellipse fill="none" stroke="black" cx="772.11" cy="-806" rx="38.36" ry="28.99"/>
<text text-anchor="middle" x="772.11" y="-809.2" font-family="Times,serif" font-size="14.00">mondo</text>
<text text-anchor="middle" x="772.11" y="-792.7" font-family="Times,serif" font-size="14.00">30,086</text>
</g>
<!-- doid
14,372&#45;&#45;mondo
30,086 -->
<g id="edge5" class="edge">
<title>doid
14,372&#45;&#45;mondo
30,086</title>
<path fill="none" stroke="black" d="M56.27,-554.77C76.31,-584 110.54,-632.83 142.41,-673 236.04,-791 254.15,-838.85 389.48,-905 497.72,-957.91 547.63,-934.8 660.25,-892 686.47,-882.04 693.32,-878.82 715.75,-862 728.11,-852.73 740.35,-840.74 750.16,-830.22"/>
<text text-anchor="middle" x="408.23" y="-923.96" font-family="Times,serif" font-size="14.00">11,773</text>
</g>
<!-- icdo -->
<g id="node7" class="node">
<title>icdo</title>
<ellipse fill="none" stroke="black" cx="920.39" cy="-1042" rx="27" ry="18"/>
<text text-anchor="middle" x="920.39" y="-1036.95" font-family="Times,serif" font-size="14.00">icdo</text>
</g>
<!-- doid
14,372&#45;&#45;icdo -->
<g id="edge6" class="edge">
<title>doid
14,372&#45;&#45;icdo</title>
<path fill="none" stroke="black" d="M39.72,-558.3C43.32,-668.98 58.41,-1057.45 93.66,-1099 120.54,-1130.68 142.46,-1123 184.01,-1123 184.01,-1123 184.01,-1123 409.23,-1123 555.3,-1123 589.48,-1093.83 733.75,-1071 790.78,-1061.98 857.69,-1051.57 893.56,-1046"/>
<text text-anchor="middle" x="478.04" y="-1125.47" font-family="Times,serif" font-size="14.00">488</text>
</g>
<!-- icd10cm -->
<g id="node8" class="node">
<title>icd10cm</title>
<ellipse fill="none" stroke="black" cx="920.39" cy="-300" rx="43.16" ry="18"/>
<text text-anchor="middle" x="920.39" y="-294.95" font-family="Times,serif" font-size="14.00">icd10cm</text>
</g>
<!-- doid
14,372&#45;&#45;icd10cm -->
<g id="edge7" class="edge">
<title>doid
14,372&#45;&#45;icd10cm</title>
<path fill="none" stroke="black" d="M39.05,-499.55C40.26,-419.85 47.79,-202.5 93.66,-151 121.29,-119.97 142.46,-127 184.01,-127 184.01,-127 184.01,-127 409.23,-127 589.29,-127 651.42,-98.61 810.48,-183 855.09,-206.67 891.32,-255.82 908.53,-282.26"/>
<text text-anchor="middle" x="478.04" y="-129.8" font-family="Times,serif" font-size="14.00">3,617</text>
</g>
<!-- icd9cm -->
<g id="node9" class="node">
<title>icd9cm</title>
<ellipse fill="none" stroke="black" cx="332.92" cy="-249" rx="38.56" ry="18"/>
<text text-anchor="middle" x="332.92" y="-243.95" font-family="Times,serif" font-size="14.00">icd9cm</text>
</g>
<!-- doid
14,372&#45;&#45;icd9cm -->
<g id="edge8" class="edge">
<title>doid
14,372&#45;&#45;icd9cm</title>
<path fill="none" stroke="black" d="M50.44,-501.35C76.06,-444.21 143.44,-313.7 245.62,-257 260.35,-248.82 278.72,-246.27 294.71,-245.98"/>
<text text-anchor="middle" x="185.01" y="-347.48" font-family="Times,serif" font-size="14.00">2,225</text>
</g>
<!-- orphanet -->
<g id="node10" class="node">
<title>orphanet</title>
<ellipse fill="none" stroke="black" cx="1080.21" cy="-513" rx="43.16" ry="18"/>
<text text-anchor="middle" x="1080.21" y="-507.95" font-family="Times,serif" font-size="14.00">orphanet</text>
</g>
<!-- doid
14,372&#45;&#45;orphanet -->
<g id="edge9" class="edge">
<title>doid
14,372&#45;&#45;orphanet</title>
<path fill="none" stroke="black" d="M40.46,-499.86C44.16,-451.79 56.08,-353.9 93.66,-281 152.37,-167.11 244.09,-190.27 371.48,-204 680.16,-237.28 760.17,-294.61 1019.05,-466 1033.31,-475.44 1048.47,-487.3 1060.01,-496.74"/>
<text text-anchor="middle" x="547.84" y="-237.81" font-family="Times,serif" font-size="14.00">2,696</text>
</g>
<!-- gard
6,116 -->
<g id="node11" class="node">
<title>gard
6,116</title>
<ellipse fill="none" stroke="black" cx="1242.66" cy="-1151" rx="33.06" ry="28.99"/>
<text text-anchor="middle" x="1242.66" y="-1154.2" font-family="Times,serif" font-size="14.00">gard</text>
<text text-anchor="middle" x="1242.66" y="-1137.7" font-family="Times,serif" font-size="14.00">6,116</text>
</g>
<!-- doid
14,372&#45;&#45;gard
6,116 -->
<g id="edge10" class="edge">
<title>doid
14,372&#45;&#45;gard
6,116</title>
<path fill="none" stroke="black" d="M39.05,-558.34C40.22,-663.54 47.57,-1021.03 93.66,-1124 117.73,-1177.77 125.1,-1221 184.01,-1221 184.01,-1221 184.01,-1221 1081.21,-1221 1132.73,-1221 1186.36,-1190.31 1216.73,-1169.57"/>
<text text-anchor="middle" x="622.42" y="-1224.2" font-family="Times,serif" font-size="14.00">2,136</text>
</g>
<!-- omim -->
<g id="node12" class="node">
<title>omim</title>
<ellipse fill="none" stroke="black" cx="1242.66" cy="-205" rx="33.44" ry="18"/>
<text text-anchor="middle" x="1242.66" y="-199.95" font-family="Times,serif" font-size="14.00">omim</text>
</g>
<!-- doid
14,372&#45;&#45;omim -->
<g id="edge11" class="edge">
<title>doid
14,372&#45;&#45;omim</title>
<path fill="none" stroke="black" d="M38.07,-499.7C37.31,-431.53 41.13,-258.04 93.66,-126 119.14,-61.97 115.1,0 184.01,0 184.01,0 184.01,0 1081.21,0 1131.03,0 1145.76,-17.78 1178.88,-55 1213.97,-94.44 1231.29,-156.3 1238.08,-186.78"/>
<text text-anchor="middle" x="622.42" y="-3.2" font-family="Times,serif" font-size="14.00">5,910</text>
</g>
<!-- omim.ps
590 -->
<g id="node13" class="node">
<title>omim.ps
590</title>
<ellipse fill="none" stroke="black" cx="1242.66" cy="-920" rx="45.79" ry="28.99"/>
<text text-anchor="middle" x="1242.66" y="-923.2" font-family="Times,serif" font-size="14.00">omim.ps</text>
<text text-anchor="middle" x="1242.66" y="-906.7" font-family="Times,serif" font-size="14.00">590</text>
</g>
<!-- doid
14,372&#45;&#45;omim.ps
590 -->
<g id="edge12" class="edge">
<title>doid
14,372&#45;&#45;omim.ps
590</title>
<path fill="none" stroke="black" d="M46.54,-557.36C76.42,-660.87 195.59,-1018.76 444.98,-1143 548.39,-1194.52 853.05,-1139.74 963.55,-1106 1037.89,-1083.3 1058.99,-1078.55 1123.38,-1035 1161.33,-1009.33 1198.05,-970.82 1220.25,-945.56"/>
<text text-anchor="middle" x="622.42" y="-1167.28" font-family="Times,serif" font-size="14.00">62</text>
</g>
<!-- umls
189,003&#45;&#45;efo
2,126 -->
<g id="edge13" class="edge">
<title>umls
189,003&#45;&#45;efo
2,126</title>
<path fill="none" stroke="black" d="M201.35,-489.12C229.6,-539.06 289.47,-644.93 317.22,-694.01"/>
<text text-anchor="middle" x="260.99" y="-624.9" font-family="Times,serif" font-size="14.00">1,719</text>
</g>
<!-- umls
189,003&#45;&#45;mesh
3,178 -->
<g id="edge14" class="edge">
<title>umls
189,003&#45;&#45;mesh
3,178</title>
<path fill="none" stroke="black" d="M224.07,-449.97C244.71,-443.79 270.76,-436.51 294.37,-431.5 346.56,-420.42 408.13,-412.54 444.8,-408.39"/>
<text text-anchor="middle" x="332.92" y="-434.7" font-family="Times,serif" font-size="14.00">2,225</text>
</g>
<!-- umls
189,003&#45;&#45;ncit
20,522 -->
<g id="edge15" class="edge">
<title>umls
189,003&#45;&#45;ncit
20,522</title>
<path fill="none" stroke="black" d="M226.39,-469.6C232.81,-470.77 239.39,-471.94 245.62,-473 326.05,-486.74 346.4,-488.68 426.98,-501.5 489.05,-511.38 504.56,-513.91 566.59,-524 572.59,-524.98 578.96,-526.02 585.15,-527.03"/>
<text text-anchor="middle" x="408.23" y="-504.7" font-family="Times,serif" font-size="14.00">19,779</text>
</g>
<!-- umls
189,003&#45;&#45;mondo
30,086 -->
<g id="edge16" class="edge">
<title>umls
189,003&#45;&#45;mondo
30,086</title>
<path fill="none" stroke="black" d="M194.73,-490.61C205.78,-526.32 225.79,-589.14 245.62,-642 289.56,-759.16 277.48,-828.22 389.48,-884 510.55,-944.3 675.38,-862.77 741.7,-824.22"/>
<text text-anchor="middle" x="478.04" y="-908.73" font-family="Times,serif" font-size="14.00">20,841</text>
</g>
<!-- umls
189,003&#45;&#45;icd10cm -->
<g id="edge17" class="edge">
<title>umls
189,003&#45;&#45;icd10cm</title>
<path fill="none" stroke="black" d="M195.75,-433.9C205.18,-410.44 221.6,-377.62 245.62,-357 291.04,-318 320.16,-339.82 371.48,-309 411.33,-285.07 485.57,-187.82 529.09,-171.5 669.37,-118.91 842.14,-239.07 899.7,-283.95"/>
<text text-anchor="middle" x="547.84" y="-174.7" font-family="Times,serif" font-size="14.00">25,266</text>
</g>
<!-- umls
189,003&#45;&#45;icd9cm -->
<g id="edge18" class="edge">
<title>umls
189,003&#45;&#45;icd9cm</title>
<path fill="none" stroke="black" d="M187.48,-432.89C191.07,-392.6 203.39,-320 245.62,-277.5 258.74,-264.29 278.1,-257.2 295.16,-253.4"/>
<text text-anchor="middle" x="260.99" y="-280.7" font-family="Times,serif" font-size="14.00">9,005</text>
</g>
<!-- umls
189,003&#45;&#45;orphanet -->
<g id="edge19" class="edge">
<title>umls
189,003&#45;&#45;orphanet</title>
<path fill="none" stroke="black" d="M227.91,-462.79C310.63,-464.5 500.7,-469.16 660.25,-478.5 798.68,-486.6 962.41,-501.68 1037.63,-508.92"/>
<text text-anchor="middle" x="622.42" y="-481.7" font-family="Times,serif" font-size="14.00">9,204</text>
</g>
<!-- umls
189,003&#45;&#45;omim -->
<g id="edge20" class="edge">
<title>umls
189,003&#45;&#45;omim</title>
<path fill="none" stroke="black" d="M197.9,-433.99C213.06,-398.7 238.18,-341.73 245.62,-334 288.33,-289.63 327.15,-318.76 371.48,-276 426.64,-222.79 385.58,-168.43 444.98,-120 584.91,-5.9 662.3,-38 842.85,-38 842.85,-38 842.85,-38 1081.21,-38 1163.23,-38 1216.42,-144.05 1234.64,-187.13"/>
<text text-anchor="middle" x="697" y="-37.64" font-family="Times,serif" font-size="14.00">13,419</text>
</g>
<!-- umls
189,003&#45;&#45;omim.ps
590 -->
<g id="edge21" class="edge">
<title>umls
189,003&#45;&#45;omim.ps
590</title>
<path fill="none" stroke="black" d="M196.2,-490.47C205.46,-517.19 218.94,-558.39 227.62,-595 239.04,-643.2 233.53,-656.96 245.62,-705 261.9,-769.71 260.3,-789.62 294.37,-847 341.96,-927.17 364.32,-946.25 444.98,-993 593.27,-1078.94 640.98,-1141.44 810.48,-1116 985.8,-1089.69 1025.81,-1052.47 1178.88,-963 1189.94,-956.53 1201.63,-948.79 1211.89,-941.67"/>
<text text-anchor="middle" x="697" y="-1123.99" font-family="Times,serif" font-size="14.00">68</text>
</g>
<!-- icd10
2,345 -->
<g id="node14" class="node">
<title>icd10
2,345</title>
<ellipse fill="none" stroke="black" cx="1242.66" cy="-513" rx="33.06" ry="28.99"/>
<text text-anchor="middle" x="1242.66" y="-516.2" font-family="Times,serif" font-size="14.00">icd10</text>
<text text-anchor="middle" x="1242.66" y="-499.7" font-family="Times,serif" font-size="14.00">2,345</text>
</g>
<!-- umls
189,003&#45;&#45;icd10
2,345 -->
<g id="edge22" class="edge">
<title>umls
189,003&#45;&#45;icd10
2,345</title>
<path fill="none" stroke="black" d="M219.43,-444.35C227.88,-440.12 237.01,-435.74 245.62,-432 331.09,-394.85 352.85,-381.04 444.98,-367 474.03,-362.57 481.82,-364.43 511.09,-367 714.52,-384.85 763.57,-405.63 963.55,-447 1053.69,-465.65 1159.22,-491.93 1210.51,-504.98"/>
<text text-anchor="middle" x="697" y="-396.82" font-family="Times,serif" font-size="14.00">5,668</text>
</g>
<!-- efo
2,126&#45;&#45;mesh
3,178 -->
<g id="edge23" class="edge">
<title>efo
2,126&#45;&#45;mesh
3,178</title>
<path fill="none" stroke="black" d="M344.05,-692.5C353.31,-670.12 368.73,-638.7 389.48,-616.5 402.91,-602.13 415.3,-608.83 426.98,-593 462.37,-545.03 472.76,-473.84 475.79,-434.25"/>
<text text-anchor="middle" x="408.23" y="-619.7" font-family="Times,serif" font-size="14.00">440</text>
</g>
<!-- efo
2,126&#45;&#45;ncit
20,522 -->
<g id="edge24" class="edge">
<title>efo
2,126&#45;&#45;ncit
20,522</title>
<path fill="none" stroke="black" d="M353.47,-697.07C363.68,-685.67 376.69,-672.02 389.48,-661 412.23,-641.41 419.2,-637.88 444.98,-622.5 493.94,-593.29 553.6,-564.33 589.49,-547.58"/>
<text text-anchor="middle" x="478.04" y="-625.7" font-family="Times,serif" font-size="14.00">1,221</text>
</g>
<!-- efo
2,126&#45;&#45;mondo
30,086 -->
<g id="edge25" class="edge">
<title>efo
2,126&#45;&#45;mondo
30,086</title>
<path fill="none" stroke="black" d="M358.03,-739.57C367.34,-746.15 378.41,-752.86 389.48,-757 509.31,-801.78 663.42,-806.98 733.46,-806.76"/>
<text text-anchor="middle" x="547.84" y="-800.32" font-family="Times,serif" font-size="14.00">1,681</text>
</g>
<!-- efo
2,126&#45;&#45;icdo -->
<g id="edge26" class="edge">
<title>efo
2,126&#45;&#45;icdo</title>
<path fill="none" stroke="black" d="M338.32,-749.06C347.65,-799.02 374.69,-899.62 444.98,-939 485.05,-961.45 800.9,-1020.36 893.78,-1037.35"/>
<text text-anchor="middle" x="622.42" y="-995.55" font-family="Times,serif" font-size="14.00">62</text>
</g>
<!-- efo
2,126&#45;&#45;icd10cm -->
<g id="edge27" class="edge">
<title>efo
2,126&#45;&#45;icd10cm</title>
<path fill="none" stroke="black" d="M342.03,-691.68C350.68,-665 366.33,-624.91 389.48,-596 402.48,-579.77 416.84,-586.16 426.98,-568 448.85,-528.85 417.72,-402.61 444.98,-367 548.63,-231.6 790.49,-270.09 882.75,-290.8"/>
<text text-anchor="middle" x="622.42" y="-285.11" font-family="Times,serif" font-size="14.00">319</text>
</g>
<!-- efo
2,126&#45;&#45;orphanet -->
<g id="edge28" class="edge">
<title>efo
2,126&#45;&#45;orphanet</title>
<path fill="none" stroke="black" d="M359.82,-702.5C368.95,-696.78 379.44,-690.7 389.48,-686 430.94,-666.6 539.85,-629.65 584.59,-620 641.86,-607.65 658.06,-617.12 715.75,-607 784.24,-594.98 951.89,-548.01 1019.05,-530 1027.12,-527.84 1035.78,-525.43 1043.94,-523.14"/>
<text text-anchor="middle" x="697" y="-614.79" font-family="Times,serif" font-size="14.00">408</text>
</g>
<!-- efo
2,126&#45;&#45;gard
6,116 -->
<g id="edge29" class="edge">
<title>efo
2,126&#45;&#45;gard
6,116</title>
<path fill="none" stroke="black" d="M336.26,-749.21C340.76,-790.43 353.62,-866.6 389.48,-920 406.87,-945.91 417.62,-948 444.98,-963 539.65,-1014.91 826.39,-1112.41 981.55,-1140 1062.54,-1154.4 1159.84,-1153.88 1209.33,-1152.38"/>
<text text-anchor="middle" x="772.11" y="-1101.19" font-family="Times,serif" font-size="14.00">290</text>
</g>
<!-- efo
2,126&#45;&#45;omim -->
<g id="edge30" class="edge">
<title>efo
2,126&#45;&#45;omim</title>
<path fill="none" stroke="black" d="M341.72,-691.73C350.83,-660.93 367.5,-610.74 389.48,-571 402.75,-547 417.1,-547.58 426.98,-522 461.37,-432.96 417,-399.25 444.98,-308 467.38,-234.92 468.05,-203.99 529.09,-158 643.53,-71.79 699.58,-84 842.85,-84 842.85,-84 842.85,-84 1081.21,-84 1149.42,-84 1207.02,-154.57 1230.44,-187.92"/>
<text text-anchor="middle" x="772.11" y="-87.02" font-family="Times,serif" font-size="14.00">323</text>
</g>
<!-- efo
2,126&#45;&#45;omim.ps
590 -->
<g id="edge33" class="edge">
<title>efo
2,126&#45;&#45;omim.ps
590</title>
<path fill="none" stroke="black" d="M347.8,-746.25C357.64,-762.84 372.14,-783.75 389.48,-798 462.98,-858.39 495.52,-852.61 584.59,-886 703.99,-930.75 739.7,-924.58 859.23,-969 867.43,-972.05 868.66,-975.18 877.23,-977 995,-1001.99 1136.33,-959.54 1203.11,-935.22"/>
<text text-anchor="middle" x="772.11" y="-955.09" font-family="Times,serif" font-size="14.00">25</text>
</g>
<!-- efo
2,126&#45;&#45;icd10
2,345 -->
<g id="edge34" class="edge">
<title>efo
2,126&#45;&#45;icd10
2,345</title>
<path fill="none" stroke="black" d="M365.89,-716.45C424.34,-709.94 552.37,-695.62 660.25,-683 741.44,-673.51 761.11,-661 842.85,-661 842.85,-661 842.85,-661 1081.21,-661 1125.06,-661 1143.64,-673.1 1178.88,-647 1213.04,-621.69 1229.27,-573.1 1236.48,-541.91"/>
<text text-anchor="middle" x="772.11" y="-674.73" font-family="Times,serif" font-size="14.00">525</text>
</g>
<!-- icd9 -->
<g id="node15" class="node">
<title>icd9</title>
<ellipse fill="none" stroke="black" cx="920.39" cy="-707" rx="27" ry="18"/>
<text text-anchor="middle" x="920.39" y="-701.95" font-family="Times,serif" font-size="14.00">icd9</text>
</g>
<!-- efo
2,126&#45;&#45;icd9 -->
<g id="edge31" class="edge">
<title>efo
2,126&#45;&#45;icd9</title>
<path fill="none" stroke="black" d="M366.23,-719.28C470.63,-716.96 797.64,-709.7 893.02,-707.59"/>
<text text-anchor="middle" x="622.42" y="-717.61" font-family="Times,serif" font-size="14.00">1,194</text>
</g>
<!-- icd11
71,175 -->
<g id="node16" class="node">
<title>icd11
71,175</title>
<ellipse fill="none" stroke="black" cx="920.39" cy="-939" rx="37.83" ry="28.99"/>
<text text-anchor="middle" x="920.39" y="-942.2" font-family="Times,serif" font-size="14.00">icd11</text>
<text text-anchor="middle" x="920.39" y="-925.7" font-family="Times,serif" font-size="14.00">71,175</text>
</g>
<!-- efo
2,126&#45;&#45;icd11
71,175 -->
<g id="edge32" class="edge">
<title>efo
2,126&#45;&#45;icd11
71,175</title>
<path fill="none" stroke="black" d="M352.44,-743.66C362.38,-755.06 375.47,-768.14 389.48,-777 411.51,-790.94 420.2,-787.88 444.98,-796 614.7,-851.59 656.62,-867.41 828.48,-916 846.65,-921.14 867.02,-926.34 883.86,-930.5"/>
<text text-anchor="middle" x="622.42" y="-868.99" font-family="Times,serif" font-size="14.00">410</text>
</g>
<!-- mesh
3,178&#45;&#45;ncit
20,522 -->
<g id="edge35" class="edge">
<title>mesh
3,178&#45;&#45;ncit
20,522</title>
<path fill="none" stroke="black" d="M505.2,-421.84C523.3,-434.06 547.47,-451.53 566.59,-469.5 575.68,-478.03 576.48,-481.54 584.59,-491 589.64,-496.89 595.13,-503.2 600.29,-509.1"/>
<text text-anchor="middle" x="547.84" y="-472.7" font-family="Times,serif" font-size="14.00">407</text>
</g>
<!-- mesh
3,178&#45;&#45;mondo
30,086 -->
<g id="edge36" class="edge">
<title>mesh
3,178&#45;&#45;mondo
30,086</title>
<path fill="none" stroke="black" d="M493.7,-430.94C503.44,-447.92 516.69,-470.49 529.09,-490 602.34,-605.16 706.62,-730.71 750.45,-782.08"/>
<text text-anchor="middle" x="622.42" y="-673.36" font-family="Times,serif" font-size="14.00">909</text>
</g>
<!-- mesh
3,178&#45;&#45;icd10cm -->
<g id="edge37" class="edge">
<title>mesh
3,178&#45;&#45;icd10cm</title>
<path fill="none" stroke="black" d="M507.73,-391.85C545.86,-374.94 615.69,-345.93 678.25,-330.5 746.88,-313.57 828.93,-305.74 877.46,-302.35"/>
<text text-anchor="middle" x="697" y="-333.7" font-family="Times,serif" font-size="14.00">197</text>
</g>
<!-- mesh
3,178&#45;&#45;orphanet -->
<g id="edge38" class="edge">
<title>mesh
3,178&#45;&#45;orphanet</title>
<path fill="none" stroke="black" d="M511.17,-407.92C612.34,-417.36 923.25,-448.27 1019.05,-480 1031.94,-484.27 1045.28,-491.28 1056.12,-497.75"/>
<text text-anchor="middle" x="772.11" y="-444.3" font-family="Times,serif" font-size="14.00">207</text>
</g>
<!-- ncit
20,522&#45;&#45;mondo
30,086 -->
<g id="edge39" class="edge">
<title>ncit
20,522&#45;&#45;mondo
30,086</title>
<path fill="none" stroke="black" d="M652.52,-551.03C679.49,-567.75 715.49,-590.11 715.75,-590.5 739.29,-624.61 723.76,-641.78 733.75,-682 741.99,-715.17 753.62,-752.66 761.71,-777.65"/>
<text text-anchor="middle" x="697" y="-593.7" font-family="Times,serif" font-size="14.00">7,422</text>
</g>
<!-- ncit
20,522&#45;&#45;icd10cm -->
<g id="edge40" class="edge">
<title>ncit
20,522&#45;&#45;icd10cm</title>
<path fill="none" stroke="black" d="M644.84,-509.24C671.34,-480.1 715.2,-432.7 733.75,-417.5 786.28,-374.48 855.51,-334.48 892.82,-314.1"/>
<text text-anchor="middle" x="772.11" y="-420.7" font-family="Times,serif" font-size="14.00">517</text>
</g>
<!-- ncit
20,522&#45;&#45;orphanet -->
<g id="edge41" class="edge">
<title>ncit
20,522&#45;&#45;orphanet</title>
<path fill="none" stroke="black" d="M660.34,-531.38C744.15,-527.7 948.42,-518.74 1037.04,-514.85"/>
<text text-anchor="middle" x="843.85" y="-527.12" font-family="Times,serif" font-size="14.00">759</text>
</g>
<!-- ncit
20,522&#45;&#45;omim -->
<g id="edge42" class="edge">
<title>ncit
20,522&#45;&#45;omim</title>
<path fill="none" stroke="black" d="M647.31,-510.82C652.39,-504.88 657.15,-498.11 660.25,-491 691.2,-420.16 638.75,-384.45 678.25,-318 723.6,-241.73 754.12,-205 842.85,-205 842.85,-205 842.85,-205 1081.21,-205 1125.36,-205 1176.35,-205 1208.78,-205"/>
<text text-anchor="middle" x="920.39" y="-208.2" font-family="Times,serif" font-size="14.00">218</text>
</g>
<!-- ncit
20,522&#45;&#45;omim.ps
590 -->
<g id="edge43" class="edge">
<title>ncit
20,522&#45;&#45;omim.ps
590</title>
<path fill="none" stroke="black" d="M656.4,-546.01C674.04,-553.03 696.12,-561.89 715.75,-570 766.08,-590.8 777.59,-598.63 828.48,-618 887.68,-640.54 909.05,-631.21 963.55,-663.5 1073.74,-728.8 1177.43,-843.44 1220.58,-894.37"/>
<text text-anchor="middle" x="920.39" y="-666.7" font-family="Times,serif" font-size="14.00">31</text>
</g>
<!-- mondo
30,086&#45;&#45;icdo -->
<g id="edge44" class="edge">
<title>mondo
30,086&#45;&#45;icdo</title>
<path fill="none" stroke="black" d="M784.98,-833.67C795.38,-857.01 811.46,-891 828.48,-919 853.16,-959.62 887.77,-1003.57 906.36,-1026.34"/>
<text text-anchor="middle" x="843.85" y="-967.63" font-family="Times,serif" font-size="14.00">725</text>
</g>
<!-- mondo
30,086&#45;&#45;icd10cm -->
<g id="edge45" class="edge">
<title>mondo
30,086&#45;&#45;icd10cm</title>
<path fill="none" stroke="black" d="M783.7,-777.94C800.92,-731.7 835.45,-636.4 859.23,-554 884.42,-466.7 907.05,-360.34 915.68,-318.33"/>
<text text-anchor="middle" x="843.85" y="-648.02" font-family="Times,serif" font-size="14.00">1,713</text>
</g>
<!-- mondo
30,086&#45;&#45;orphanet -->
<g id="edge46" class="edge">
<title>mondo
30,086&#45;&#45;orphanet</title>
<path fill="none" stroke="black" d="M808.41,-795.95C856.67,-781.67 939.94,-754.92 963.55,-734 1028.7,-676.28 1062.85,-572.96 1074.51,-531.23"/>
<text text-anchor="middle" x="920.39" y="-776.53" font-family="Times,serif" font-size="14.00">10,301</text>
</g>
<!-- mondo
30,086&#45;&#45;gard
6,116 -->
<g id="edge47" class="edge">
<title>mondo
30,086&#45;&#45;gard
6,116</title>
<path fill="none" stroke="black" d="M802.73,-823.76C810.98,-828.53 820.01,-833.59 828.48,-838 887.22,-868.6 908.3,-864.46 963.55,-901 1070.23,-971.55 1177.41,-1081.57 1221.15,-1128.53"/>
<text text-anchor="middle" x="1000.3" y="-943.08" font-family="Times,serif" font-size="14.00">10,732</text>
</g>
<!-- mondo
30,086&#45;&#45;omim -->
<g id="edge48" class="edge">
<title>mondo
30,086&#45;&#45;omim</title>
<path fill="none" stroke="black" d="M810.8,-808.06C894.9,-810.28 1096.91,-802.01 1178.88,-679 1204.11,-641.13 1191.15,-520.15 1196.88,-475 1208.95,-379.78 1229.86,-266.72 1238.14,-223.26"/>
<text text-anchor="middle" x="1000.3" y="-796.71" font-family="Times,serif" font-size="14.00">10,027</text>
</g>
<!-- mondo
30,086&#45;&#45;omim.ps
590 -->
<g id="edge51" class="edge">
<title>mondo
30,086&#45;&#45;omim.ps
590</title>
<path fill="none" stroke="black" d="M808.84,-815.09C815.37,-816.74 822.12,-818.43 828.48,-820 963.88,-853.51 1124.56,-892.04 1199.39,-909.92"/>
<text text-anchor="middle" x="1000.3" y="-868.95" font-family="Times,serif" font-size="14.00">597</text>
</g>
<!-- mondo
30,086&#45;&#45;icd9 -->
<g id="edge49" class="edge">
<title>mondo
30,086&#45;&#45;icd9</title>
<path fill="none" stroke="black" d="M790.03,-780.16C799.89,-766.79 813.35,-751.09 828.48,-740.5 848.45,-726.51 874.96,-717.62 894.2,-712.54"/>
<text text-anchor="middle" x="843.85" y="-743.7" font-family="Times,serif" font-size="14.00">4,417</text>
</g>
<!-- mondo
30,086&#45;&#45;icd11
71,175 -->
<g id="edge50" class="edge">
<title>mondo
30,086&#45;&#45;icd11
71,175</title>
<path fill="none" stroke="black" d="M790.68,-831.82C800.82,-845.74 814.35,-862.74 828.48,-876 838.98,-885.86 868.38,-905.79 890.94,-920.61"/>
<text text-anchor="middle" x="843.85" y="-901.89" font-family="Times,serif" font-size="14.00">4,138</text>
</g>
<!-- icd10cm&#45;&#45;orphanet -->
<g id="edge52" class="edge">
<title>icd10cm&#45;&#45;orphanet</title>
<path fill="none" stroke="black" d="M940.28,-316.44C961.23,-335.32 995.22,-367.89 1019.05,-400.5 1041.66,-431.44 1061.18,-471.94 1071.47,-494.95"/>
<text text-anchor="middle" x="1000.3" y="-403.7" font-family="Times,serif" font-size="14.00">206</text>
</g>
<!-- icd10cm&#45;&#45;omim -->
<g id="edge53" class="edge">
<title>icd10cm&#45;&#45;omim</title>
<path fill="none" stroke="black" d="M956.27,-289.65C1019.99,-270.75 1154.03,-230.99 1212.9,-213.53"/>
<text text-anchor="middle" x="1080.21" y="-268.23" font-family="Times,serif" font-size="14.00">47</text>
</g>
<!-- orphanet&#45;&#45;gard
6,116 -->
<g id="edge54" class="edge">
<title>orphanet&#45;&#45;gard
6,116</title>
<path fill="none" stroke="black" d="M1085.76,-531.07C1108.17,-620.19 1206.98,-1013.1 1234.52,-1122.59"/>
<text text-anchor="middle" x="1160.13" y="-892.34" font-family="Times,serif" font-size="14.00">48</text>
</g>
<!-- orphanet&#45;&#45;omim -->
<g id="edge55" class="edge">
<title>orphanet&#45;&#45;omim</title>
<path fill="none" stroke="black" stroke-width="1.18" d="M1090.53,-495.11C1118.96,-440.54 1204.32,-276.67 1232.51,-222.56"/>
<text text-anchor="middle" x="1160.13" y="-398.84" font-family="Times,serif" font-size="14.00">11,468</text>
</g>
<!-- orphanet&#45;&#45;omim.ps
590 -->
<g id="edge56" class="edge">
<title>orphanet&#45;&#45;omim.ps
590</title>
<path fill="none" stroke="black" d="M1093.01,-530.6C1113.12,-561.28 1154.24,-627.06 1178.88,-687.5 1207.67,-758.16 1227.32,-846.23 1236.23,-890.98"/>
<text text-anchor="middle" x="1160.13" y="-690.7" font-family="Times,serif" font-size="14.00">55</text>
</g>
<!-- orphanet&#45;&#45;icd10
2,345 -->
<g id="edge57" class="edge">
<title>orphanet&#45;&#45;icd10
2,345</title>
<path fill="none" stroke="black" d="M1123.79,-513C1150.62,-513 1184.72,-513 1209.33,-513"/>
<text text-anchor="middle" x="1160.13" y="-516.2" font-family="Times,serif" font-size="14.00">7,850</text>
</g>
</g>
</svg>
