<?xml version="1.0" encoding="UTF-8" standalone="no"?>
<!DOCTYPE svg PUBLIC "-//W3C//DTD SVG 1.1//EN"
 "http://www.w3.org/Graphics/SVG/1.1/DTD/svg11.dtd">
<!-- Generated by graphviz version 13.1.0 (20250701.0955)
 -->
<!-- Pages: 1 -->
<svg width="2098pt" height="2299pt"
 viewBox="0.00 0.00 2098.00 2299.00" xmlns="http://www.w3.org/2000/svg" xmlns:xlink="http://www.w3.org/1999/xlink">
<g id="graph0" class="graph" transform="scale(1 1) rotate(0) translate(4 2294.5)">
<polygon fill="white" stroke="none" points="-4,4 -4,-2294.5 2093.66,-2294.5 2093.66,4 -4,4"/>
<!-- doid
14,372 -->
<g id="node1" class="node">
<title>doid
14,372</title>
<ellipse fill="none" stroke="black" cx="37.83" cy="-668" rx="37.83" ry="28.99"/>
<text xml:space="preserve" text-anchor="middle" x="37.83" y="-671.2" font-family="Times,serif" font-size="14.00">doid</text>
<text xml:space="preserve" text-anchor="middle" x="37.83" y="-654.7" font-family="Times,serif" font-size="14.00">14,372</text>
</g>
<!-- umls
189,003 -->
<g id="node2" class="node">
<title>umls
189,003</title>
<ellipse fill="none" stroke="black" cx="191.76" cy="-1415" rx="42.6" ry="28.99"/>
<text xml:space="preserve" text-anchor="middle" x="191.76" y="-1418.2" font-family="Times,serif" font-size="14.00">umls</text>
<text xml:space="preserve" text-anchor="middle" x="191.76" y="-1401.7" font-family="Times,serif" font-size="14.00">189,003</text>
</g>
<!-- doid
14,372&#45;&#45;umls
189,003 -->
<g id="edge1" class="edge">
<title>doid
14,372&#45;&#45;umls
189,003</title>
<path fill="none" stroke="black" d="M44.69,-696.83C68.88,-815.74 160.76,-1267.51 184.92,-1386.26"/>
<text xml:space="preserve" text-anchor="middle" x="112.41" y="-1111.61" font-family="Times,serif" font-size="14.00">10,026</text>
</g>
<!-- efo
2,126 -->
<g id="node3" class="node">
<title>efo
2,126</title>
<ellipse fill="none" stroke="black" cx="334.17" cy="-668" rx="33.06" ry="28.99"/>
<text xml:space="preserve" text-anchor="middle" x="334.17" y="-671.2" font-family="Times,serif" font-size="14.00">efo</text>
<text xml:space="preserve" text-anchor="middle" x="334.17" y="-654.7" font-family="Times,serif" font-size="14.00">2,126</text>
</g>
<!-- doid
14,372&#45;&#45;efo
2,126 -->
<g id="edge2" class="edge">
<title>doid
14,372&#45;&#45;efo
2,126</title>
<path fill="none" stroke="black" d="M76.11,-668C134.27,-668 245.65,-668 300.71,-668"/>
<text xml:space="preserve" text-anchor="middle" x="191.76" y="-671.2" font-family="Times,serif" font-size="14.00">1,447</text>
</g>
<!-- mesh
3,178 -->
<g id="node4" class="node">
<title>mesh
3,178</title>
<ellipse fill="none" stroke="black" cx="473.79" cy="-1757" rx="33.06" ry="28.99"/>
<text xml:space="preserve" text-anchor="middle" x="473.79" y="-1760.2" font-family="Times,serif" font-size="14.00">mesh</text>
<text xml:space="preserve" text-anchor="middle" x="473.79" y="-1743.7" font-family="Times,serif" font-size="14.00">3,178</text>
</g>
<!-- doid
14,372&#45;&#45;mesh
3,178 -->
<g id="edge3" class="edge">
<title>doid
14,372&#45;&#45;mesh
3,178</title>
<path fill="none" stroke="black" d="M39.08,-697.4C40.74,-874.39 51.35,-1791.63 93.66,-1832 194.15,-1927.87 380.01,-1819.66 447.48,-1774.73"/>
<text xml:space="preserve" text-anchor="middle" x="267.74" y="-1867.1" font-family="Times,serif" font-size="14.00">807</text>
</g>
<!-- ncit
20,522 -->
<g id="node5" class="node">
<title>ncit
20,522</title>
<ellipse fill="none" stroke="black" cx="611.43" cy="-1078" rx="37.83" ry="28.99"/>
<text xml:space="preserve" text-anchor="middle" x="611.43" y="-1081.2" font-family="Times,serif" font-size="14.00">ncit</text>
<text xml:space="preserve" text-anchor="middle" x="611.43" y="-1064.7" font-family="Times,serif" font-size="14.00">20,522</text>
</g>
<!-- doid
14,372&#45;&#45;ncit
20,522 -->
<g id="edge4" class="edge">
<title>doid
14,372&#45;&#45;ncit
20,522</title>
<path fill="none" stroke="black" d="M69.37,-651.7C129.32,-622.06 265.41,-566.57 367.23,-613.5 484.28,-667.45 497.91,-718.74 555.6,-834 591.54,-905.83 604.17,-1001.27 608.41,-1048.68"/>
<text xml:space="preserve" text-anchor="middle" x="334.17" y="-616.7" font-family="Times,serif" font-size="14.00">5,317</text>
</g>
<!-- mondo
30,086 -->
<g id="node6" class="node">
<title>mondo
30,086</title>
<ellipse fill="none" stroke="black" cx="754.37" cy="-949" rx="38.36" ry="28.99"/>
<text xml:space="preserve" text-anchor="middle" x="754.37" y="-952.2" font-family="Times,serif" font-size="14.00">mondo</text>
<text xml:space="preserve" text-anchor="middle" x="754.37" y="-935.7" font-family="Times,serif" font-size="14.00">30,086</text>
</g>
<!-- doid
14,372&#45;&#45;mondo
30,086 -->
<g id="edge5" class="edge">
<title>doid
14,372&#45;&#45;mondo
30,086</title>
<path fill="none" stroke="black" d="M62.28,-645.45C71.6,-637.16 82.71,-628.07 93.66,-621 116.54,-606.22 122.69,-601.43 149.16,-595 267.35,-566.27 308.69,-560.21 422.73,-602.5 583.92,-662.27 700.41,-851.5 739.26,-922.1"/>
<text xml:space="preserve" text-anchor="middle" x="403.98" y="-605.7" font-family="Times,serif" font-size="14.00">12,435</text>
</g>
<!-- icdo
797 -->
<g id="node7" class="node">
<title>icdo
797</title>
<ellipse fill="none" stroke="black" cx="887.23" cy="-1272" rx="27.75" ry="28.99"/>
<text xml:space="preserve" text-anchor="middle" x="887.23" y="-1275.2" font-family="Times,serif" font-size="14.00">icdo</text>
<text xml:space="preserve" text-anchor="middle" x="887.23" y="-1258.7" font-family="Times,serif" font-size="14.00">797</text>
</g>
<!-- doid
14,372&#45;&#45;icdo
797 -->
<g id="edge6" class="edge">
<title>doid
14,372&#45;&#45;icdo
797</title>
<path fill="none" stroke="black" d="M41.78,-697.19C49.26,-770.16 70.06,-966.28 93.66,-1129 135.18,-1415.31 53.9,-1595.73 301.12,-1746 326.23,-1761.26 344.13,-1764.16 367.23,-1746 393.84,-1725.08 366.06,-1699.89 385.23,-1672 471.56,-1546.42 536.26,-1554.87 667.26,-1477 741.82,-1432.67 788.41,-1457.62 841.48,-1389 864.57,-1359.14 843.4,-1340.15 859.48,-1306 861.59,-1301.52 864.39,-1297.08 867.39,-1292.97"/>
<text xml:space="preserve" text-anchor="middle" x="473.79" y="-1608.51" font-family="Times,serif" font-size="14.00">643</text>
</g>
<!-- icd10cm
21,760 -->
<g id="node8" class="node">
<title>icd10cm
21,760</title>
<ellipse fill="none" stroke="black" cx="1026.46" cy="-1507" rx="44.72" ry="28.99"/>
<text xml:space="preserve" text-anchor="middle" x="1026.46" y="-1510.2" font-family="Times,serif" font-size="14.00">icd10cm</text>
<text xml:space="preserve" text-anchor="middle" x="1026.46" y="-1493.7" font-family="Times,serif" font-size="14.00">21,760</text>
</g>
<!-- doid
14,372&#45;&#45;icd10cm
21,760 -->
<g id="edge7" class="edge">
<title>doid
14,372&#45;&#45;icd10cm
21,760</title>
<path fill="none" stroke="black" d="M39.36,-697.41C42.57,-869.68 60.39,-1744.39 93.66,-1859 117.91,-1942.56 103.75,-2029 190.76,-2029 190.76,-2029 190.76,-2029 474.79,-2029 684.44,-2029 687.49,-1875.89 859.48,-1756 884,-1738.9 895.13,-1740.35 914.99,-1718 928.37,-1702.93 985.46,-1588.39 1011.91,-1534.66"/>
<text xml:space="preserve" text-anchor="middle" x="540.22" y="-2028.75" font-family="Times,serif" font-size="14.00">3,980</text>
</g>
<!-- icd9cm
9,134 -->
<g id="node9" class="node">
<title>icd9cm
9,134</title>
<ellipse fill="none" stroke="black" cx="1184.64" cy="-1047" rx="39.95" ry="28.99"/>
<text xml:space="preserve" text-anchor="middle" x="1184.64" y="-1050.2" font-family="Times,serif" font-size="14.00">icd9cm</text>
<text xml:space="preserve" text-anchor="middle" x="1184.64" y="-1033.7" font-family="Times,serif" font-size="14.00">9,134</text>
</g>
<!-- doid
14,372&#45;&#45;icd9cm
9,134 -->
<g id="edge8" class="edge">
<title>doid
14,372&#45;&#45;icd9cm
9,134</title>
<path fill="none" stroke="black" d="M42.59,-638.92C55.94,-541.83 104.92,-235 190.76,-235 190.76,-235 190.76,-235 404.98,-235 626.86,-235 1001.53,-741.78 1126.68,-925 1147.12,-954.92 1163.69,-993.33 1173.58,-1018.98"/>
<text xml:space="preserve" text-anchor="middle" x="611.43" y="-361.72" font-family="Times,serif" font-size="14.00">2,807</text>
</g>
<!-- orphanet
15,230 -->
<g id="node10" class="node">
<title>orphanet
15,230</title>
<ellipse fill="none" stroke="black" cx="1336.06" cy="-1011" rx="44.72" ry="28.99"/>
<text xml:space="preserve" text-anchor="middle" x="1336.06" y="-1014.2" font-family="Times,serif" font-size="14.00">orphanet</text>
<text xml:space="preserve" text-anchor="middle" x="1336.06" y="-997.7" font-family="Times,serif" font-size="14.00">15,230</text>
</g>
<!-- doid
14,372&#45;&#45;orphanet
15,230 -->
<g id="edge9" class="edge">
<title>doid
14,372&#45;&#45;orphanet
15,230</title>
<path fill="none" stroke="black" d="M40.59,-638.66C45.66,-560.16 62.06,-347.11 93.66,-285 109.27,-254.33 117.94,-245.48 149.16,-231 371.36,-127.98 465.54,-203.4 698.01,-280.5 990.07,-377.37 1099.64,-448.8 1224.59,-730 1243.28,-772.07 1223.23,-790.23 1242.59,-832 1251.58,-851.4 1262.13,-850.79 1273.34,-869 1296.09,-905.97 1314.7,-952.81 1325.34,-982.35"/>
<text xml:space="preserve" text-anchor="middle" x="682.63" y="-283.7" font-family="Times,serif" font-size="14.00">3,030</text>
</g>
<!-- gard
6,109 -->
<g id="node11" class="node">
<title>gard
6,109</title>
<ellipse fill="none" stroke="black" cx="1480.59" cy="-1300" rx="33.06" ry="28.99"/>
<text xml:space="preserve" text-anchor="middle" x="1480.59" y="-1303.2" font-family="Times,serif" font-size="14.00">gard</text>
<text xml:space="preserve" text-anchor="middle" x="1480.59" y="-1286.7" font-family="Times,serif" font-size="14.00">6,109</text>
</g>
<!-- doid
14,372&#45;&#45;gard
6,109 -->
<g id="edge10" class="edge">
<title>doid
14,372&#45;&#45;gard
6,109</title>
<path fill="none" stroke="black" d="M39.36,-697.39C42.67,-876.61 61.5,-1818.87 93.66,-1943 117.84,-2036.34 94.34,-2137 190.76,-2137 190.76,-2137 190.76,-2137 541.22,-2137 730.59,-2137 791.29,-2160.26 963.74,-2082 1104.48,-2018.12 1125.95,-1971 1224.59,-1852 1281.49,-1783.34 1400.59,-1591.34 1429.54,-1507 1450.33,-1446.41 1428.93,-1425.29 1447.54,-1364 1451.54,-1350.8 1458.1,-1337.02 1464.25,-1325.63"/>
<text xml:space="preserve" text-anchor="middle" x="754.37" y="-2143.42" font-family="Times,serif" font-size="14.00">2,625</text>
</g>
<!-- omim
15,286 -->
<g id="node12" class="node">
<title>omim
15,286</title>
<ellipse fill="none" stroke="black" cx="1618.23" cy="-945" rx="37.83" ry="28.99"/>
<text xml:space="preserve" text-anchor="middle" x="1618.23" y="-948.2" font-family="Times,serif" font-size="14.00">omim</text>
<text xml:space="preserve" text-anchor="middle" x="1618.23" y="-931.7" font-family="Times,serif" font-size="14.00">15,286</text>
</g>
<!-- doid
14,372&#45;&#45;omim
15,286 -->
<g id="edge11" class="edge">
<title>doid
14,372&#45;&#45;omim
15,286</title>
<path fill="none" stroke="black" d="M40.38,-638.82C45.22,-553.98 61.67,-308.86 93.66,-236 120.55,-174.75 123.87,-121 190.76,-121 190.76,-121 190.76,-121 404.98,-121 529.09,-121 557.52,-159 681.63,-159 681.63,-159 681.63,-159 949.36,-159 1140.14,-159 1475.13,-590.35 1562.4,-760 1589.06,-811.83 1604.81,-878.67 1612.17,-916.17"/>
<text xml:space="preserve" text-anchor="middle" x="826.1" y="-162.2" font-family="Times,serif" font-size="14.00">6,300</text>
</g>
<!-- icd9
3,993 -->
<g id="node13" class="node">
<title>icd9
3,993</title>
<ellipse fill="none" stroke="black" cx="1755.87" cy="-1451" rx="33.06" ry="28.99"/>
<text xml:space="preserve" text-anchor="middle" x="1755.87" y="-1454.2" font-family="Times,serif" font-size="14.00">icd9</text>
<text xml:space="preserve" text-anchor="middle" x="1755.87" y="-1437.7" font-family="Times,serif" font-size="14.00">3,993</text>
</g>
<!-- doid
14,372&#45;&#45;icd9
3,993 -->
<g id="edge12" class="edge">
<title>doid
14,372&#45;&#45;icd9
3,993</title>
<path fill="none" stroke="black" d="M39.23,-697.18C41.87,-883.75 57.89,-1906.14 93.66,-2040 113.49,-2114.22 113.94,-2183 190.76,-2183 190.76,-2183 190.76,-2183 827.1,-2183 1009.94,-2183 1060.05,-2156.72 1224.59,-2077 1368.92,-2007.07 1391.95,-1965.45 1513.65,-1861 1547.33,-1832.1 1630.92,-1757.57 1656.06,-1721 1709.93,-1642.64 1738.34,-1531.39 1749.35,-1479.59"/>
<text xml:space="preserve" text-anchor="middle" x="887.23" y="-2185.88" font-family="Times,serif" font-size="14.00">2,479</text>
</g>
<!-- icd11
71,175 -->
<g id="node14" class="node">
<title>icd11
71,175</title>
<ellipse fill="none" stroke="black" cx="1893.51" cy="-791" rx="37.83" ry="28.99"/>
<text xml:space="preserve" text-anchor="middle" x="1893.51" y="-794.2" font-family="Times,serif" font-size="14.00">icd11</text>
<text xml:space="preserve" text-anchor="middle" x="1893.51" y="-777.7" font-family="Times,serif" font-size="14.00">71,175</text>
</g>
<!-- doid
14,372&#45;&#45;icd11
71,175 -->
<g id="edge13" class="edge">
<title>doid
14,372&#45;&#45;icd11
71,175</title>
<path fill="none" stroke="black" d="M38.69,-638.62C38.71,-541.24 42.85,-230.53 93.66,-147 120.52,-102.84 139.08,-83 190.76,-83 190.76,-83 190.76,-83 1108.93,-83 1459.34,-83 1566.98,-210.85 1788.93,-482 1858.99,-567.6 1882.45,-702.66 1889.62,-761.72"/>
<text xml:space="preserve" text-anchor="middle" x="948.36" y="-86.2" font-family="Times,serif" font-size="14.00">1,192</text>
</g>
<!-- omim.ps
594 -->
<g id="node15" class="node">
<title>omim.ps
594</title>
<ellipse fill="none" stroke="black" cx="2043.87" cy="-421" rx="45.79" ry="28.99"/>
<text xml:space="preserve" text-anchor="middle" x="2043.87" y="-424.2" font-family="Times,serif" font-size="14.00">omim.ps</text>
<text xml:space="preserve" text-anchor="middle" x="2043.87" y="-407.7" font-family="Times,serif" font-size="14.00">594</text>
</g>
<!-- doid
14,372&#45;&#45;omim.ps
594 -->
<g id="edge14" class="edge">
<title>doid
14,372&#45;&#45;omim.ps
594</title>
<path fill="none" stroke="black" d="M39.05,-638.73C40.23,-536.26 47.61,-194.61 93.66,-97 119.69,-41.83 129.76,0 190.76,0 190.76,0 190.76,0 1894.51,0 1943.93,0 1955.19,-28.31 1980.09,-71 2012,-125.73 2033.1,-317.69 2040.21,-391.64"/>
<text xml:space="preserve" text-anchor="middle" x="1026.46" y="-3.2" font-family="Times,serif" font-size="14.00">91</text>
</g>
<!-- icd10
2,345 -->
<g id="node16" class="node">
<title>icd10
2,345</title>
<ellipse fill="none" stroke="black" cx="2043.87" cy="-1667" rx="33.06" ry="28.99"/>
<text xml:space="preserve" text-anchor="middle" x="2043.87" y="-1670.2" font-family="Times,serif" font-size="14.00">icd10</text>
<text xml:space="preserve" text-anchor="middle" x="2043.87" y="-1653.7" font-family="Times,serif" font-size="14.00">2,345</text>
</g>
<!-- doid
14,372&#45;&#45;icd10
2,345 -->
<g id="edge15" class="edge">
<title>doid
14,372&#45;&#45;icd10
2,345</title>
<path fill="none" stroke="black" d="M39.07,-697.17C40.75,-889.48 52,-1971.85 93.66,-2112 117.58,-2192.46 106.82,-2274 190.76,-2274 190.76,-2274 190.76,-2274 1894.51,-2274 1923.28,-2274 1977.48,-2182.54 1980.09,-2176 2015.42,-2087.4 2035.59,-1790.59 2041.23,-1696.13"/>
<text xml:space="preserve" text-anchor="middle" x="1026.46" y="-2277.2" font-family="Times,serif" font-size="14.00">1,628</text>
</g>
<!-- umls
189,003&#45;&#45;efo
2,126 -->
<g id="edge16" class="edge">
<title>umls
189,003&#45;&#45;efo
2,126</title>
<path fill="none" stroke="black" d="M197.64,-1385.81C207.54,-1326.88 230.87,-1189.53 252.37,-1074.5 278.94,-932.33 313.6,-762.82 327.27,-696.54"/>
<text xml:space="preserve" text-anchor="middle" x="267.74" y="-1077.7" font-family="Times,serif" font-size="14.00">2,797</text>
</g>
<!-- umls
189,003&#45;&#45;mesh
3,178 -->
<g id="edge17" class="edge">
<title>umls
189,003&#45;&#45;mesh
3,178</title>
<path fill="none" stroke="black" d="M192.8,-1444.44C194.37,-1492.14 203.88,-1587 252.37,-1647 301.56,-1707.87 393.06,-1737.93 441.24,-1750.12"/>
<text xml:space="preserve" text-anchor="middle" x="334.17" y="-1728.48" font-family="Times,serif" font-size="14.00">2,704</text>
</g>
<!-- umls
189,003&#45;&#45;ncit
20,522 -->
<g id="edge18" class="edge">
<title>umls
189,003&#45;&#45;ncit
20,522</title>
<path fill="none" stroke="black" d="M196.21,-1385.9C203.6,-1328.39 222.73,-1203.17 252.37,-1173 339.91,-1083.88 500.76,-1075.31 573.26,-1076.36"/>
<text xml:space="preserve" text-anchor="middle" x="403.98" y="-1101.73" font-family="Times,serif" font-size="14.00">21,169</text>
</g>
<!-- umls
189,003&#45;&#45;mondo
30,086 -->
<g id="edge19" class="edge">
<title>umls
189,003&#45;&#45;mondo
30,086</title>
<path fill="none" stroke="black" d="M196.79,-1386.12C207.13,-1324.77 240.66,-1187 333.17,-1187 333.17,-1187 333.17,-1187 541.22,-1187 652.48,-1187 719.81,-1040.28 743.6,-977.24"/>
<text xml:space="preserve" text-anchor="middle" x="473.79" y="-1190.2" font-family="Times,serif" font-size="14.00">22,876</text>
</g>
<!-- umls
189,003&#45;&#45;icdo
797 -->
<g id="edge20" class="edge">
<title>umls
189,003&#45;&#45;icdo
797</title>
<path fill="none" stroke="black" d="M226.1,-1397.48C253.94,-1384.48 295.08,-1369 333.17,-1369 333.17,-1369 333.17,-1369 541.22,-1369 665.66,-1369 806.24,-1309.8 861.79,-1283.89"/>
<text xml:space="preserve" text-anchor="middle" x="540.22" y="-1372.2" font-family="Times,serif" font-size="14.00">632</text>
</g>
<!-- umls
189,003&#45;&#45;icd10cm
21,760 -->
<g id="edge21" class="edge">
<title>umls
189,003&#45;&#45;icd10cm
21,760</title>
<path fill="none" stroke="black" d="M234.85,-1415C262.74,-1415 300.14,-1415 333.17,-1415 333.17,-1415 333.17,-1415 612.43,-1415 759.59,-1415 788.07,-1472.35 932.99,-1498 948.71,-1500.78 966.1,-1502.76 981.52,-1504.14"/>
<text xml:space="preserve" text-anchor="middle" x="611.43" y="-1418.2" font-family="Times,serif" font-size="14.00">26,041</text>
</g>
<!-- umls
189,003&#45;&#45;icd9cm
9,134 -->
<g id="edge22" class="edge">
<title>umls
189,003&#45;&#45;icd9cm
9,134</title>
<path fill="none" stroke="black" d="M230.15,-1428.23C351.59,-1468.62 740.04,-1577.02 963.74,-1398 1034.7,-1341.21 1032.9,-1306.44 1071.18,-1224 1082.02,-1200.67 1074.18,-1189.89 1089.18,-1169 1101.32,-1152.11 1112.7,-1156.4 1126.68,-1141 1144.9,-1120.94 1160.43,-1094.21 1170.65,-1074.38"/>
<text xml:space="preserve" text-anchor="middle" x="682.63" y="-1499.93" font-family="Times,serif" font-size="14.00">9,702</text>
</g>
<!-- umls
189,003&#45;&#45;orphanet
15,230 -->
<g id="edge23" class="edge">
<title>umls
189,003&#45;&#45;orphanet
15,230</title>
<path fill="none" stroke="black" d="M201.82,-1443.5C219.04,-1491.43 261.33,-1583 333.17,-1583 333.17,-1583 333.17,-1583 683.63,-1583 770.17,-1583 995.44,-1586.84 1071.18,-1545 1074.23,-1543.32 1222.95,-1350.07 1224.59,-1347 1281.2,-1240.45 1315.99,-1099.51 1329.11,-1039.75"/>
<text xml:space="preserve" text-anchor="middle" x="754.37" y="-1586.29" font-family="Times,serif" font-size="14.00">10,545</text>
</g>
<!-- umls
189,003&#45;&#45;gard
6,109 -->
<g id="edge24" class="edge">
<title>umls
189,003&#45;&#45;gard
6,109</title>
<path fill="none" stroke="black" d="M200.1,-1443.66C208.69,-1477.57 223.18,-1535.75 234.37,-1586 243.14,-1625.39 236.63,-1637.84 252.37,-1675 267.29,-1710.25 270.72,-1722.73 301.12,-1746 475.7,-1879.63 573.73,-1820.46 792.73,-1801 1091.25,-1774.48 1161.72,-1675.53 1380.79,-1471 1405.15,-1448.25 1411.81,-1442.23 1429.54,-1414 1446.89,-1386.36 1461.19,-1351.66 1470,-1327.85"/>
<text xml:space="preserve" text-anchor="middle" x="826.1" y="-1802.38" font-family="Times,serif" font-size="14.00">3,136</text>
</g>
<!-- umls
189,003&#45;&#45;omim
15,286 -->
<g id="edge25" class="edge">
<title>umls
189,003&#45;&#45;omim
15,286</title>
<path fill="none" stroke="black" d="M197.88,-1444.02C205.03,-1477.32 220.85,-1531.94 252.37,-1568 268.67,-1586.65 277.68,-1587 301.12,-1595 530.76,-1673.36 598.99,-1681.85 841.48,-1673 1012.09,-1666.77 1063.23,-1700.77 1224.59,-1645 1328.38,-1609.13 1353.79,-1586.51 1429.54,-1507 1479.34,-1454.72 1486.59,-1434.95 1513.65,-1368 1527.15,-1334.61 1515.26,-1321.07 1531.65,-1289 1541.07,-1270.56 1554.47,-1273.13 1562.4,-1254 1585.86,-1197.43 1554.02,-1034.27 1580.4,-979 1582.87,-973.82 1586.52,-969.05 1590.57,-964.82"/>
<text xml:space="preserve" text-anchor="middle" x="887.23" y="-1675.75" font-family="Times,serif" font-size="14.00">13,529</text>
</g>
<!-- umls
189,003&#45;&#45;icd9
3,993 -->
<g id="edge26" class="edge">
<title>umls
189,003&#45;&#45;icd9
3,993</title>
<path fill="none" stroke="black" d="M194.22,-1444.18C197.89,-1499.62 210.5,-1623.03 252.37,-1717 296.48,-1816.01 364.52,-1954.07 524.85,-2046 558.34,-2065.21 571.81,-2061 610.43,-2061 610.43,-2061 610.43,-2061 949.36,-2061 1085.28,-2061 1407.92,-1910.42 1513.65,-1825 1636.55,-1725.7 1717.03,-1546.39 1744.43,-1478.26"/>
<text xml:space="preserve" text-anchor="middle" x="948.36" y="-2064.2" font-family="Times,serif" font-size="14.00">3,915</text>
</g>
<!-- umls
189,003&#45;&#45;icd11
71,175 -->
<g id="edge27" class="edge">
<title>umls
189,003&#45;&#45;icd11
71,175</title>
<path fill="none" stroke="black" d="M192.77,-1385.55C193.63,-1280.04 203.85,-912.25 301.12,-630 307.67,-610.97 452.66,-311 472.79,-311 472.79,-311 472.79,-311 683.63,-311 913.33,-311 1519.2,-335.68 1704.81,-471 1808.9,-546.89 1864.91,-699.51 1884.43,-762.66"/>
<text xml:space="preserve" text-anchor="middle" x="1026.46" y="-329.88" font-family="Times,serif" font-size="14.00">2,898</text>
</g>
<!-- umls
189,003&#45;&#45;omim.ps
594 -->
<g id="edge28" class="edge">
<title>umls
189,003&#45;&#45;omim.ps
594</title>
<path fill="none" stroke="black" d="M193.07,-1385.79C194.53,-1286.46 203.06,-952.99 252.37,-683 290.75,-472.82 253.58,-389.27 385.23,-221 425.23,-169.87 607.65,-45 825.1,-45 825.1,-45 825.1,-45 1894.51,-45 1953,-45 1953.81,-92.73 1980.09,-145 2021.91,-228.2 2036.22,-339.46 2040.83,-391.65"/>
<text xml:space="preserve" text-anchor="middle" x="1107.93" y="-48.2" font-family="Times,serif" font-size="14.00">128</text>
</g>
<!-- umls
189,003&#45;&#45;icd10
2,345 -->
<g id="edge29" class="edge">
<title>umls
189,003&#45;&#45;icd10
2,345</title>
<path fill="none" stroke="black" d="M193.54,-1444.17C196.4,-1534.57 208.56,-1808.47 252.37,-1884 338.83,-2033.06 775.03,-2228 947.36,-2228 947.36,-2228 947.36,-2228 1894.51,-2228 1954.02,-2228 1959.98,-2181.02 1980.09,-2125 2035.53,-1970.52 2042.46,-1770.58 2043,-1696.39"/>
<text xml:space="preserve" text-anchor="middle" x="1107.93" y="-2231.2" font-family="Times,serif" font-size="14.00">7,345</text>
</g>
<!-- efo
2,126&#45;&#45;mesh
3,178 -->
<g id="edge30" class="edge">
<title>efo
2,126&#45;&#45;mesh
3,178</title>
<path fill="none" stroke="black" d="M336.42,-697.36C340.46,-786.88 354.73,-1064.17 385.23,-1292 407.52,-1458.51 450.07,-1655.72 466.29,-1728.33"/>
<text xml:space="preserve" text-anchor="middle" x="403.98" y="-1512.52" font-family="Times,serif" font-size="14.00">460</text>
</g>
<!-- efo
2,126&#45;&#45;ncit
20,522 -->
<g id="edge31" class="edge">
<title>efo
2,126&#45;&#45;ncit
20,522</title>
<path fill="none" stroke="black" d="M334.2,-697.42C333.94,-747.32 339.57,-849.93 385.23,-920 432.95,-993.22 527.52,-1042.5 577.57,-1064.65"/>
<text xml:space="preserve" text-anchor="middle" x="473.79" y="-1031.24" font-family="Times,serif" font-size="14.00">1,359</text>
</g>
<!-- efo
2,126&#45;&#45;mondo
30,086 -->
<g id="edge32" class="edge">
<title>efo
2,126&#45;&#45;mondo
30,086</title>
<path fill="none" stroke="black" d="M350.36,-693.59C359.33,-707.28 371.58,-723.78 385.23,-736 493.18,-832.68 651.97,-906.3 720.21,-935.41"/>
<text xml:space="preserve" text-anchor="middle" x="540.22" y="-856.23" font-family="Times,serif" font-size="14.00">2,031</text>
</g>
<!-- efo
2,126&#45;&#45;icdo
797 -->
<g id="edge33" class="edge">
<title>efo
2,126&#45;&#45;icdo
797</title>
<path fill="none" stroke="black" d="M336.73,-697.32C341.61,-784.41 357.95,-1040.39 385.23,-1119 406.18,-1179.35 408.9,-1233 472.79,-1233 472.79,-1233 472.79,-1233 755.37,-1233 793.77,-1233 835.98,-1248.62 861.79,-1260.09"/>
<text xml:space="preserve" text-anchor="middle" x="611.43" y="-1236.2" font-family="Times,serif" font-size="14.00">99</text>
</g>
<!-- efo
2,126&#45;&#45;icd10cm
21,760 -->
<g id="edge34" class="edge">
<title>efo
2,126&#45;&#45;icd10cm
21,760</title>
<path fill="none" stroke="black" d="M335.72,-697.4C337.85,-792.71 347.45,-1092.1 385.23,-1180 400.1,-1214.59 408.46,-1224.6 440.73,-1244 522.24,-1293 560.41,-1258.07 649.26,-1292 717.26,-1317.97 732.95,-1329.46 792.73,-1371 798.6,-1375.08 836.79,-1407.6 841.48,-1413 851.18,-1424.17 848.21,-1431.41 859.48,-1441 895.38,-1471.55 947.16,-1489.09 983.31,-1498.3"/>
<text xml:space="preserve" text-anchor="middle" x="682.63" y="-1315.26" font-family="Times,serif" font-size="14.00">1,190</text>
</g>
<!-- efo
2,126&#45;&#45;icd9cm
9,134 -->
<g id="edge35" class="edge">
<title>efo
2,126&#45;&#45;icd9cm
9,134</title>
<path fill="none" stroke="black" d="M363.32,-681.94C487.56,-743.45 980.72,-987.6 981.74,-988 1037.7,-1009.83 1105.11,-1027.97 1146.14,-1038.14"/>
<text xml:space="preserve" text-anchor="middle" x="754.37" y="-896.44" font-family="Times,serif" font-size="14.00">812</text>
</g>
<!-- efo
2,126&#45;&#45;orphanet
15,230 -->
<g id="edge36" class="edge">
<title>efo
2,126&#45;&#45;orphanet
15,230</title>
<path fill="none" stroke="black" d="M366.51,-660.95C478.43,-637.51 865.65,-571.67 1126.68,-717 1154.9,-732.71 1273.18,-914.37 1317.87,-984.04"/>
<text xml:space="preserve" text-anchor="middle" x="826.1" y="-635.84" font-family="Times,serif" font-size="14.00">536</text>
</g>
<!-- efo
2,126&#45;&#45;gard
6,109 -->
<g id="edge37" class="edge">
<title>efo
2,126&#45;&#45;gard
6,109</title>
<path fill="none" stroke="black" d="M363.07,-653.25C434.82,-616.25 632.64,-520.19 810.73,-488 947.7,-463.24 1210.44,-594.8 1224.59,-604 1310.88,-660.12 1330.2,-685.35 1380.79,-775 1418.36,-841.6 1416.51,-864.65 1429.54,-940 1441.9,-1011.49 1418.91,-1199.33 1447.54,-1266 1449.65,-1270.92 1452.8,-1275.56 1456.32,-1279.74"/>
<text xml:space="preserve" text-anchor="middle" x="887.23" y="-494.42" font-family="Times,serif" font-size="14.00">437</text>
</g>
<!-- efo
2,126&#45;&#45;omim
15,286 -->
<g id="edge38" class="edge">
<title>efo
2,126&#45;&#45;omim
15,286</title>
<path fill="none" stroke="black" d="M335.7,-638.66C337.94,-599.93 347.44,-531.78 385.23,-490 445.57,-423.29 485.22,-432.74 573.6,-416 859.7,-361.82 951.56,-388.77 1224.59,-490 1328.21,-528.42 1441.74,-700.42 1447.54,-705 1474.13,-726.01 1490.27,-718.47 1513.65,-743 1563.01,-794.78 1594.44,-874.67 1608.56,-916.79"/>
<text xml:space="preserve" text-anchor="middle" x="948.36" y="-408.48" font-family="Times,serif" font-size="14.00">391</text>
</g>
<!-- efo
2,126&#45;&#45;icd9
3,993 -->
<g id="edge39" class="edge">
<title>efo
2,126&#45;&#45;icd9
3,993</title>
<path fill="none" stroke="black" d="M356.39,-646.16C365.04,-637.66 375.33,-628.05 385.23,-620 457.69,-561.12 486.62,-560.96 573.6,-527 732.1,-465.11 767.39,-434.15 932.99,-395 1041.4,-369.37 1338.16,-400.27 1429.54,-464 1623.7,-599.43 1638.67,-692.69 1704.81,-920 1735.69,-1026.12 1680.17,-1315.04 1722.81,-1417 1724.88,-1421.94 1728.01,-1426.59 1731.52,-1430.78"/>
<text xml:space="preserve" text-anchor="middle" x="1026.46" y="-391.13" font-family="Times,serif" font-size="14.00">1,366</text>
</g>
<!-- efo
2,126&#45;&#45;icd11
71,175 -->
<g id="edge40" class="edge">
<title>efo
2,126&#45;&#45;icd11
71,175</title>
<path fill="none" stroke="black" d="M341.18,-639.2C353.18,-582.11 379.46,-459.46 385.23,-452 402.26,-429.99 414.4,-432.02 440.73,-423 730.12,-323.84 821.88,-340.6 1126.68,-366.5 1240.85,-376.2 1271.64,-375.13 1380.79,-410 1592.27,-477.56 1618.71,-555.47 1788.93,-698 1810.85,-716.36 1816.37,-720.92 1837.68,-740 1848.04,-749.28 1859.32,-759.71 1868.94,-768.71"/>
<text xml:space="preserve" text-anchor="middle" x="1107.93" y="-369.7" font-family="Times,serif" font-size="14.00">530</text>
</g>
<!-- efo
2,126&#45;&#45;omim.ps
594 -->
<g id="edge41" class="edge">
<title>efo
2,126&#45;&#45;omim.ps
594</title>
<path fill="none" stroke="black" d="M357.71,-647.39C361.3,-643.24 364.67,-638.7 367.23,-634 399.95,-573.91 411.69,-396.95 440.73,-335 467.46,-277.99 473.25,-257.09 524.85,-221 793.56,-33.01 929.02,-129 1256.96,-129 1256.96,-129 1256.96,-129 1894.51,-129 2011.5,-129 2036.27,-317.62 2041.49,-391.66"/>
<text xml:space="preserve" text-anchor="middle" x="1184.64" y="-131.82" font-family="Times,serif" font-size="14.00">29</text>
</g>
<!-- efo
2,126&#45;&#45;icd10
2,345 -->
<g id="edge42" class="edge">
<title>efo
2,126&#45;&#45;icd10
2,345</title>
<path fill="none" stroke="black" d="M346.45,-640.68C353.47,-622.62 362.1,-598.25 367.23,-576 374.87,-542.86 366.3,-452.26 385.23,-424 405.2,-394.21 632.54,-276.01 667.26,-267 974.21,-187.32 1067.88,-216.45 1380.79,-268 1592.22,-302.83 1658.57,-304.36 1837.68,-422 1916.69,-473.9 1943.65,-492.77 1980.09,-580 2021.88,-680.08 2039.2,-1474.32 2042.34,-1637.69"/>
<text xml:space="preserve" text-anchor="middle" x="1184.64" y="-244.86" font-family="Times,serif" font-size="14.00">856</text>
</g>
<!-- mesh
3,178&#45;&#45;ncit
20,522 -->
<g id="edge43" class="edge">
<title>mesh
3,178&#45;&#45;ncit
20,522</title>
<path fill="none" stroke="black" d="M482.21,-1728.66C498.02,-1667.34 535.21,-1517.56 555.6,-1390 568.21,-1311.05 558.87,-1289.59 573.6,-1211 580.48,-1174.26 592.65,-1132.91 601.11,-1106.21"/>
<text xml:space="preserve" text-anchor="middle" x="540.22" y="-1545.2" font-family="Times,serif" font-size="14.00">576</text>
</g>
<!-- mesh
3,178&#45;&#45;mondo
30,086 -->
<g id="edge44" class="edge">
<title>mesh
3,178&#45;&#45;mondo
30,086</title>
<path fill="none" stroke="black" d="M486.62,-1729.87C508.01,-1680.62 551.34,-1579.99 555.6,-1563 575.83,-1482.22 542.16,-1453.61 573.6,-1376.5 606.88,-1294.86 660.53,-1301.8 698.01,-1222 708.36,-1199.95 736.71,-1043.48 748.32,-977.85"/>
<text xml:space="preserve" text-anchor="middle" x="611.43" y="-1379.7" font-family="Times,serif" font-size="14.00">1,169</text>
</g>
<!-- mesh
3,178&#45;&#45;icd10cm
21,760 -->
<g id="edge45" class="edge">
<title>mesh
3,178&#45;&#45;icd10cm
21,760</title>
<path fill="none" stroke="black" d="M491.36,-1731.88C500.13,-1720.22 511.78,-1706.98 524.85,-1698 628.82,-1626.51 674.92,-1649.18 792.73,-1604 862.62,-1577.2 942.98,-1542.92 988.64,-1523.12"/>
<text xml:space="preserve" text-anchor="middle" x="754.37" y="-1630.7" font-family="Times,serif" font-size="14.00">895</text>
</g>
<!-- mesh
3,178&#45;&#45;icd9cm
9,134 -->
<g id="edge46" class="edge">
<title>mesh
3,178&#45;&#45;icd9cm
9,134</title>
<path fill="none" stroke="black" d="M505.69,-1747.96C622.38,-1713.55 1031.65,-1590.44 1071.18,-1545 1171.51,-1429.67 1110.48,-1357.99 1144.68,-1209 1155.43,-1162.2 1168.62,-1107.98 1176.56,-1075.64"/>
<text xml:space="preserve" text-anchor="middle" x="826.1" y="-1655.28" font-family="Times,serif" font-size="14.00">654</text>
</g>
<!-- mesh
3,178&#45;&#45;orphanet
15,230 -->
<g id="edge47" class="edge">
<title>mesh
3,178&#45;&#45;orphanet
15,230</title>
<path fill="none" stroke="black" d="M507.02,-1760.56C581.98,-1767.52 772.47,-1777.42 914.99,-1718 1025.6,-1671.89 1037.34,-1630.87 1126.68,-1551 1209.67,-1476.82 1243.24,-1455.16 1273.34,-1348 1293.17,-1277.41 1278.32,-1256.16 1291.34,-1184 1300.6,-1132.63 1316.61,-1073.93 1326.48,-1039.81"/>
<text xml:space="preserve" text-anchor="middle" x="887.23" y="-1740" font-family="Times,serif" font-size="14.00">264</text>
</g>
<!-- mesh
3,178&#45;&#45;gard
6,109 -->
<g id="edge48" class="edge">
<title>mesh
3,178&#45;&#45;gard
6,109</title>
<path fill="none" stroke="black" d="M503.65,-1770.45C510.46,-1773.08 517.8,-1775.49 524.85,-1777 546.05,-1781.53 551.92,-1778.56 573.6,-1779 725.61,-1782.12 771.71,-1807.89 914.99,-1757 923.93,-1753.82 924.97,-1750.59 932.99,-1745.5 994.33,-1706.49 1012.17,-1700.45 1071.18,-1658 1173.56,-1584.36 1185.16,-1547.04 1291.34,-1479 1328.64,-1455.1 1346.85,-1463.48 1380.79,-1435 1417.94,-1403.82 1448.67,-1355.87 1465.54,-1326.3"/>
<text xml:space="preserve" text-anchor="middle" x="948.36" y="-1748.7" font-family="Times,serif" font-size="14.00">228</text>
</g>
<!-- mesh
3,178&#45;&#45;omim
15,286 -->
<g id="edge49" class="edge">
<title>mesh
3,178&#45;&#45;omim
15,286</title>
<path fill="none" stroke="black" d="M499.15,-1776.03C507.06,-1781.66 516.07,-1787.5 524.85,-1792 644.65,-1853.36 678.02,-1869.46 810.73,-1892 922.48,-1910.98 1167.47,-1874.45 1224.59,-1852 1306.25,-1819.9 1476.17,-1662.34 1513.65,-1583 1570.23,-1463.24 1547.71,-1420.63 1562.4,-1289 1570.06,-1220.42 1550.9,-1041.38 1580.4,-979 1582.86,-973.81 1586.49,-969.03 1590.54,-964.81"/>
<text xml:space="preserve" text-anchor="middle" x="1026.46" y="-1896.29" font-family="Times,serif" font-size="14.00">91</text>
</g>
<!-- mesh
3,178&#45;&#45;icd9
3,993 -->
<g id="edge50" class="edge">
<title>mesh
3,178&#45;&#45;icd9
3,993</title>
<path fill="none" stroke="black" d="M493.34,-1780.64C502.31,-1791.38 513.56,-1803.9 524.85,-1814 544.54,-1831.61 549.97,-1836.18 573.6,-1848 773.11,-1947.82 849.74,-1941.02 1071.18,-1914 1274.15,-1889.24 1352.43,-1913.76 1513.65,-1788 1559.04,-1752.59 1547.25,-1724.06 1580.4,-1677 1630.67,-1605.63 1658.86,-1599.22 1704.81,-1525 1715.07,-1508.42 1711.97,-1501.21 1722.81,-1485 1725.79,-1480.55 1729.36,-1476.13 1733.02,-1472.03"/>
<text xml:space="preserve" text-anchor="middle" x="1107.93" y="-1914.94" font-family="Times,serif" font-size="14.00">674</text>
</g>
<!-- mesh
3,178&#45;&#45;icd11
71,175 -->
<g id="edge51" class="edge">
<title>mesh
3,178&#45;&#45;icd11
71,175</title>
<path fill="none" stroke="black" d="M487.73,-1783.65C496.78,-1800.76 509.88,-1822.91 524.85,-1840 586.85,-1910.78 626.49,-1901.99 716.01,-1931 880.02,-1984.16 918.41,-2013.22 1089.18,-2037 1250.6,-2059.48 1376.91,-2097.38 1513.65,-1963 1541.5,-1935.63 1507.84,-1907.95 1531.65,-1877 1610.26,-1774.82 1708.18,-1843.51 1788.93,-1743 1836.02,-1684.38 1824.16,-1654.96 1837.68,-1581 1891.26,-1287.86 1893.41,-924.79 1892.81,-820.34"/>
<text xml:space="preserve" text-anchor="middle" x="1184.64" y="-2059.31" font-family="Times,serif" font-size="14.00">324</text>
</g>
<!-- mesh
3,178&#45;&#45;icd10
2,345 -->
<g id="edge52" class="edge">
<title>mesh
3,178&#45;&#45;icd10
2,345</title>
<path fill="none" stroke="black" d="M483.53,-1784.99C491.8,-1808.78 505.79,-1843.09 524.85,-1869 541.96,-1892.27 549.78,-1895.65 573.6,-1912 793.96,-2063.3 839.63,-2190 1106.93,-2190 1106.93,-2190 1106.93,-2190 1894.51,-2190 1997.97,-2190 2033.04,-1806.38 2040.97,-1696.24"/>
<text xml:space="preserve" text-anchor="middle" x="1257.96" y="-2193.2" font-family="Times,serif" font-size="14.00">446</text>
</g>
<!-- ncit
20,522&#45;&#45;mondo
30,086 -->
<g id="edge53" class="edge">
<title>ncit
20,522&#45;&#45;mondo
30,086</title>
<path fill="none" stroke="black" d="M636.65,-1055.82C662.47,-1032.2 703.11,-995 728.98,-971.32"/>
<text xml:space="preserve" text-anchor="middle" x="682.63" y="-1028.25" font-family="Times,serif" font-size="14.00">7,821</text>
</g>
<!-- ncit
20,522&#45;&#45;icdo
797 -->
<g id="edge54" class="edge">
<title>ncit
20,522&#45;&#45;icdo
797</title>
<path fill="none" stroke="black" d="M633.4,-1101.78C643.06,-1111.88 655.08,-1123.3 667.26,-1132 737.67,-1182.32 773.44,-1165.5 841.48,-1219 852.17,-1227.41 862.15,-1238.72 869.95,-1248.74"/>
<text xml:space="preserve" text-anchor="middle" x="754.37" y="-1191.8" font-family="Times,serif" font-size="14.00">536</text>
</g>
<!-- ncit
20,522&#45;&#45;icd10cm
21,760 -->
<g id="edge55" class="edge">
<title>ncit
20,522&#45;&#45;icd10cm
21,760</title>
<path fill="none" stroke="black" d="M629.44,-1103.86C639.91,-1119.33 653.83,-1139.18 667.26,-1156 743.43,-1251.46 782.72,-1261.44 841.48,-1368.5 850.95,-1385.77 846.37,-1394.29 859.48,-1409 869.41,-1420.15 946.19,-1463.4 991.77,-1488.56"/>
<text xml:space="preserve" text-anchor="middle" x="826.1" y="-1371.7" font-family="Times,serif" font-size="14.00">2,208</text>
</g>
<!-- ncit
20,522&#45;&#45;icd9cm
9,134 -->
<g id="edge56" class="edge">
<title>ncit
20,522&#45;&#45;icd9cm
9,134</title>
<path fill="none" stroke="black" d="M649.52,-1078C677.94,-1078 718.13,-1078 753.37,-1078 753.37,-1078 753.37,-1078 949.36,-1078 1019.31,-1078 1100,-1064.25 1146.1,-1055.06"/>
<text xml:space="preserve" text-anchor="middle" x="887.23" y="-1081.2" font-family="Times,serif" font-size="14.00">1,593</text>
</g>
<!-- ncit
20,522&#45;&#45;orphanet
15,230 -->
<g id="edge57" class="edge">
<title>ncit
20,522&#45;&#45;orphanet
15,230</title>
<path fill="none" stroke="black" d="M615.34,-1048.78C622.37,-994.65 645.25,-878.81 716.01,-818 748.78,-789.83 767.79,-800.92 810.73,-796 946.99,-780.38 965.01,-870.78 1089.18,-929 1158.45,-961.48 1244.15,-986.98 1293.91,-1000.45"/>
<text xml:space="preserve" text-anchor="middle" x="948.36" y="-844.55" font-family="Times,serif" font-size="14.00">957</text>
</g>
<!-- ncit
20,522&#45;&#45;gard
6,109 -->
<g id="edge58" class="edge">
<title>ncit
20,522&#45;&#45;gard
6,109</title>
<path fill="none" stroke="black" d="M646.24,-1090.11C723.47,-1117.08 919.3,-1181.67 1089.18,-1206 1148.77,-1214.53 1165.39,-1198.08 1224.59,-1209 1309.87,-1224.74 1404.68,-1265.06 1450.99,-1286.35"/>
<text xml:space="preserve" text-anchor="middle" x="1026.46" y="-1206.44" font-family="Times,serif" font-size="14.00">943</text>
</g>
<!-- ncit
20,522&#45;&#45;omim
15,286 -->
<g id="edge59" class="edge">
<title>ncit
20,522&#45;&#45;omim
15,286</title>
<path fill="none" stroke="black" d="M612.95,-1048.55C615.07,-1000.09 624.75,-902.03 667.26,-833 681.95,-809.13 690.57,-804.76 716.01,-793 747.87,-778.27 1288.83,-695.2 1291.34,-695 1330.97,-691.82 1344.27,-679.28 1380.79,-695 1436.48,-718.98 1552.52,-862.13 1598.18,-920.37"/>
<text xml:space="preserve" text-anchor="middle" x="1107.93" y="-729.42" font-family="Times,serif" font-size="14.00">406</text>
</g>
<!-- ncit
20,522&#45;&#45;icd9
3,993 -->
<g id="edge60" class="edge">
<title>ncit
20,522&#45;&#45;icd9
3,993</title>
<path fill="none" stroke="black" d="M621.36,-1106.29C629.54,-1133.04 641.53,-1174.43 649.26,-1211 660.59,-1264.62 646.59,-1282.24 667.26,-1333 738.04,-1506.83 839.99,-1502.95 914.99,-1675 931.46,-1712.79 902.95,-1737.76 932.99,-1766 1078.33,-1902.65 1198.28,-1815.56 1380.79,-1735 1462.28,-1699.03 1636.5,-1556.18 1704.81,-1499 1714.6,-1490.81 1724.86,-1481.17 1733.53,-1472.69"/>
<text xml:space="preserve" text-anchor="middle" x="1184.64" y="-1834.61" font-family="Times,serif" font-size="14.00">1,546</text>
</g>
<!-- ncit
20,522&#45;&#45;icd11
71,175 -->
<g id="edge61" class="edge">
<title>ncit
20,522&#45;&#45;icd11
71,175</title>
<path fill="none" stroke="black" d="M613.41,-1048.71C616.2,-996.05 626.8,-882.98 667.26,-798 710.04,-708.12 724.99,-676.59 810.73,-626 1176.82,-409.97 1729.35,-697.62 1862.76,-773.52"/>
<text xml:space="preserve" text-anchor="middle" x="1257.96" y="-561.34" font-family="Times,serif" font-size="14.00">1,028</text>
</g>
<!-- ncit
20,522&#45;&#45;omim.ps
594 -->
<g id="edge62" class="edge">
<title>ncit
20,522&#45;&#45;omim.ps
594</title>
<path fill="none" stroke="black" d="M614.11,-1048.61C618.21,-988.08 631.19,-845.62 667.26,-732 682.09,-685.25 682,-668.34 716.01,-633 837.17,-507.05 1238.39,-269 1413.16,-269 1413.16,-269 1413.16,-269 1894.51,-269 1962.91,-269 2010.08,-348.81 2030.88,-392.77"/>
<text xml:space="preserve" text-anchor="middle" x="1336.06" y="-295.88" font-family="Times,serif" font-size="14.00">37</text>
</g>
<!-- ncit
20,522&#45;&#45;icd10
2,345 -->
<g id="edge63" class="edge">
<title>ncit
20,522&#45;&#45;icd10
2,345</title>
<path fill="none" stroke="black" d="M623.8,-1105.84C640.63,-1147.28 672.86,-1227.74 698.01,-1297 743.13,-1421.28 759.17,-1451.12 792.73,-1579 803.52,-1620.14 795.84,-1633.15 810.73,-1673 923.03,-1973.61 1092.26,-2071 1413.16,-2071 1413.16,-2071 1413.16,-2071 1894.51,-2071 1932.73,-2071 1976.52,-1968.88 1980.09,-1960 2017.13,-1867.8 2033.84,-1750.08 2039.95,-1696.24"/>
<text xml:space="preserve" text-anchor="middle" x="1336.06" y="-2073.84" font-family="Times,serif" font-size="14.00">1,564</text>
</g>
<!-- mondo
30,086&#45;&#45;icdo
797 -->
<g id="edge64" class="edge">
<title>mondo
30,086&#45;&#45;icdo
797</title>
<path fill="none" stroke="black" d="M769.28,-976.04C787.28,-1011.6 818.97,-1076.26 841.48,-1133.5 856.27,-1171.13 870.05,-1215.82 878.31,-1244.05"/>
<text xml:space="preserve" text-anchor="middle" x="826.1" y="-1136.7" font-family="Times,serif" font-size="14.00">806</text>
</g>
<!-- mondo
30,086&#45;&#45;icd10cm
21,760 -->
<g id="edge65" class="edge">
<title>mondo
30,086&#45;&#45;icd10cm
21,760</title>
<path fill="none" stroke="black" d="M762.72,-977.62C773,-1017.33 792.49,-1091.35 810.73,-1154 831.03,-1223.74 828.04,-1244.51 859.48,-1310 878.6,-1349.84 891.41,-1355.12 914.99,-1392.5 923.38,-1405.81 923.05,-1410.79 932.99,-1423 933.34,-1423.44 972.59,-1459.05 999.83,-1483.76"/>
<text xml:space="preserve" text-anchor="middle" x="887.23" y="-1395.7" font-family="Times,serif" font-size="14.00">4,157</text>
</g>
<!-- mondo
30,086&#45;&#45;icd9cm
9,134 -->
<g id="edge66" class="edge">
<title>mondo
30,086&#45;&#45;icd9cm
9,134</title>
<path fill="none" stroke="black" d="M775.96,-973.17C785.53,-982.79 797.67,-992.99 810.73,-999 923.39,-1050.85 1074.23,-1052.17 1144.52,-1049.41"/>
<text xml:space="preserve" text-anchor="middle" x="948.36" y="-1043.94" font-family="Times,serif" font-size="14.00">2,542</text>
</g>
<!-- mondo
30,086&#45;&#45;orphanet
15,230 -->
<g id="edge67" class="edge">
<title>mondo
30,086&#45;&#45;orphanet
15,230</title>
<path fill="none" stroke="black" d="M790.92,-958.93C797.46,-960.49 804.27,-961.94 810.73,-963 949.72,-985.9 986.45,-974.72 1126.68,-988 1183.75,-993.41 1249.47,-1000.87 1291.6,-1005.81"/>
<text xml:space="preserve" text-anchor="middle" x="1026.46" y="-986.74" font-family="Times,serif" font-size="14.00">10,963</text>
</g>
<!-- mondo
30,086&#45;&#45;gard
6,109 -->
<g id="edge68" class="edge">
<title>mondo
30,086&#45;&#45;gard
6,109</title>
<path fill="none" stroke="black" d="M792.8,-945.13C913.11,-933.5 1287.4,-903.74 1380.79,-973 1434.04,-1012.5 1414.72,-1049.37 1429.54,-1114 1444.74,-1180.31 1418.75,-1204.36 1447.54,-1266 1449.8,-1270.85 1453.03,-1275.46 1456.57,-1279.63"/>
<text xml:space="preserve" text-anchor="middle" x="1107.93" y="-932.07" font-family="Times,serif" font-size="14.00">11,109</text>
</g>
<!-- mondo
30,086&#45;&#45;omim
15,286 -->
<g id="edge69" class="edge">
<title>mondo
30,086&#45;&#45;omim
15,286</title>
<path fill="none" stroke="black" d="M791.61,-940.65C797.96,-939.33 804.52,-938.05 810.73,-937 832.25,-933.35 837.76,-933.19 859.48,-931 1170.32,-899.63 1252.3,-897.99 1562.4,-936 1568.43,-936.74 1574.82,-937.66 1581.01,-938.63"/>
<text xml:space="preserve" text-anchor="middle" x="1184.64" y="-911.61" font-family="Times,serif" font-size="14.00">10,726</text>
</g>
<!-- mondo
30,086&#45;&#45;icd9
3,993 -->
<g id="edge70" class="edge">
<title>mondo
30,086&#45;&#45;icd9
3,993</title>
<path fill="none" stroke="black" d="M787.63,-934.24C914.27,-878.75 1383.68,-696.26 1656.06,-907 1713.18,-951.19 1692.05,-990.92 1704.81,-1062 1718.77,-1139.75 1691.81,-1344.35 1722.81,-1417 1724.91,-1421.92 1728.06,-1426.57 1731.58,-1430.75"/>
<text xml:space="preserve" text-anchor="middle" x="1257.96" y="-814.68" font-family="Times,serif" font-size="14.00">4,589</text>
</g>
<!-- mondo
30,086&#45;&#45;icd11
71,175 -->
<g id="edge71" class="edge">
<title>mondo
30,086&#45;&#45;icd11
71,175</title>
<path fill="none" stroke="black" d="M781.89,-928.25C790.87,-921.53 801.07,-914.21 810.73,-908 880.08,-863.39 902.01,-857.08 981.74,-836 1311.19,-748.91 1730.51,-776.46 1855.66,-787.44"/>
<text xml:space="preserve" text-anchor="middle" x="1336.06" y="-787.98" font-family="Times,serif" font-size="14.00">4,260</text>
</g>
<!-- mondo
30,086&#45;&#45;omim.ps
594 -->
<g id="edge72" class="edge">
<title>mondo
30,086&#45;&#45;omim.ps
594</title>
<path fill="none" stroke="black" d="M782.14,-928.41C786.28,-924.08 790.06,-919.22 792.73,-914 821.3,-858.15 793.31,-834.27 810.73,-774 825.01,-724.57 825.37,-707.52 859.48,-669 936.66,-581.82 977.85,-577.11 1089.18,-543 1419.07,-441.92 1512.23,-452.92 1855.68,-420 1910.73,-414.72 1924.8,-415.24 1980.09,-417 1985.87,-417.18 1991.95,-417.46 1997.96,-417.79"/>
<text xml:space="preserve" text-anchor="middle" x="1414.16" y="-469.31" font-family="Times,serif" font-size="14.00">620</text>
</g>
<!-- mondo
30,086&#45;&#45;icd10
2,345 -->
<g id="edge73" class="edge">
<title>mondo
30,086&#45;&#45;icd10
2,345</title>
<path fill="none" stroke="black" d="M780.41,-927.28C784.72,-923.06 789.01,-918.54 792.73,-914 802.35,-902.27 801.09,-896.71 810.73,-885 876.68,-804.87 888.32,-771.2 981.74,-726 1153.28,-643 1658.88,-607.04 1837.68,-673 1889.04,-691.95 1902.16,-706.68 1931.34,-753 2027.4,-905.51 2040.77,-1498.52 2042.59,-1637.66"/>
<text xml:space="preserve" text-anchor="middle" x="1414.16" y="-647.21" font-family="Times,serif" font-size="14.00">3,001</text>
</g>
<!-- icdo
797&#45;&#45;icd10cm
21,760 -->
<g id="edge74" class="edge">
<title>icdo
797&#45;&#45;icd10cm
21,760</title>
<path fill="none" stroke="black" d="M903.23,-1295.98C907.22,-1302.69 911.41,-1310.05 914.99,-1317 924.09,-1334.7 923.63,-1340.43 932.99,-1358 944.98,-1380.53 953,-1383.35 963.74,-1406.5 975,-1430.79 967.77,-1441.15 981.74,-1464 986.18,-1471.27 992.11,-1478.19 998.17,-1484.28"/>
<text xml:space="preserve" text-anchor="middle" x="948.36" y="-1409.7" font-family="Times,serif" font-size="14.00">108</text>
</g>
<!-- icdo
797&#45;&#45;icd9cm
9,134 -->
<g id="edge75" class="edge">
<title>icdo
797&#45;&#45;icd9cm
9,134</title>
<path fill="none" stroke="black" d="M900.71,-1246.16C916.12,-1216.62 944.86,-1168.51 981.74,-1138.5 1036.15,-1094.22 1063.18,-1105.82 1126.68,-1076 1134.82,-1072.18 1143.51,-1067.87 1151.59,-1063.77"/>
<text xml:space="preserve" text-anchor="middle" x="1026.46" y="-1141.7" font-family="Times,serif" font-size="14.00">49</text>
</g>
<!-- icdo
797&#45;&#45;orphanet
15,230 -->
<g id="edge76" class="edge">
<title>icdo
797&#45;&#45;orphanet
15,230</title>
<path fill="none" stroke="black" d="M908.39,-1252.87C915.69,-1246.77 924.29,-1240.45 932.99,-1236 989.7,-1206.99 1023.92,-1240.71 1071.18,-1198 1087.63,-1183.14 1074.21,-1167.84 1089.18,-1151.5 1134.48,-1102.07 1166.52,-1118.51 1224.59,-1085 1252.78,-1068.73 1283.43,-1047.94 1305.28,-1032.53"/>
<text xml:space="preserve" text-anchor="middle" x="1107.93" y="-1154.7" font-family="Times,serif" font-size="14.00">97</text>
</g>
<!-- icdo
797&#45;&#45;gard
6,109 -->
<g id="edge77" class="edge">
<title>icdo
797&#45;&#45;gard
6,109</title>
<path fill="none" stroke="black" d="M915.23,-1272.73C933.91,-1273.2 959.33,-1273.76 981.74,-1274 1021.49,-1274.43 1031.92,-1280.21 1071.18,-1274 1096.8,-1269.95 1106.33,-1272.07 1126.68,-1256 1138.74,-1246.48 1131.29,-1234.02 1144.68,-1226.5 1175.65,-1209.12 1193.99,-1208.47 1224.59,-1226.5 1238.81,-1234.88 1229.13,-1249.43 1242.59,-1259 1246.77,-1261.97 1384.17,-1284.54 1447.81,-1294.87"/>
<text xml:space="preserve" text-anchor="middle" x="1184.64" y="-1229.7" font-family="Times,serif" font-size="14.00">107</text>
</g>
<!-- icdo
797&#45;&#45;omim
15,286 -->
<g id="edge78" class="edge">
<title>icdo
797&#45;&#45;omim
15,286</title>
<path fill="none" stroke="black" d="M915.11,-1269.75C969.62,-1264.82 1091.03,-1251.78 1126.68,-1231 1137.6,-1224.64 1134.2,-1216.05 1144.68,-1209 1254.61,-1135.02 1315.04,-1187.69 1429.54,-1121 1509.11,-1074.66 1513.05,-1041.79 1580.4,-979 1584.6,-975.08 1589.08,-970.93 1593.43,-966.91"/>
<text xml:space="preserve" text-anchor="middle" x="1257.96" y="-1171.09" font-family="Times,serif" font-size="14.00">25</text>
</g>
<!-- icdo
797&#45;&#45;icd9
3,993 -->
<g id="edge79" class="edge">
<title>icdo
797&#45;&#45;icd9
3,993</title>
<path fill="none" stroke="black" d="M913.84,-1281.26C1003.74,-1313.17 1313.94,-1418.31 1580.4,-1449 1629.75,-1454.68 1687.47,-1453.91 1722.59,-1452.61"/>
<text xml:space="preserve" text-anchor="middle" x="1336.06" y="-1418.19" font-family="Times,serif" font-size="14.00">44</text>
</g>
<!-- icdo
797&#45;&#45;icd11
71,175 -->
<g id="edge80" class="edge">
<title>icdo
797&#45;&#45;icd11
71,175</title>
<path fill="none" stroke="black" d="M909.52,-1289.87C916.77,-1295.62 925.05,-1301.84 932.99,-1307 953.57,-1320.39 959.16,-1323.34 981.74,-1333 1149.71,-1404.84 1639.77,-1594.5 1788.93,-1489 1842.03,-1451.44 1823.57,-1414.5 1837.68,-1351 1882,-1151.45 1890.5,-903.97 1892.12,-820.24"/>
<text xml:space="preserve" text-anchor="middle" x="1414.16" y="-1490.13" font-family="Times,serif" font-size="14.00">75</text>
</g>
<!-- icdo
797&#45;&#45;icd10
2,345 -->
<g id="edge81" class="edge">
<title>icdo
797&#45;&#45;icd10
2,345</title>
<path fill="none" stroke="black" d="M905.58,-1293.89C908.72,-1297.9 911.96,-1302.07 914.99,-1306 923.11,-1316.57 923.73,-1320.4 932.99,-1330 1048.68,-1450.05 1095.49,-1460.49 1224.59,-1566 1324.07,-1647.3 1326.63,-1706.55 1447.54,-1750 1655.49,-1824.73 1926.74,-1719.05 2014.3,-1680.28"/>
<text xml:space="preserve" text-anchor="middle" x="1480.59" y="-1770.77" font-family="Times,serif" font-size="14.00">82</text>
</g>
<!-- icd10cm
21,760&#45;&#45;icd9cm
9,134 -->
<g id="edge82" class="edge">
<title>icd10cm
21,760&#45;&#45;icd9cm
9,134</title>
<path fill="none" stroke="black" d="M1045.19,-1480.42C1054.49,-1465.14 1065.18,-1445.22 1071.18,-1426 1092.73,-1357.07 1070.59,-1334.29 1089.18,-1264.5 1099.3,-1226.51 1146.9,-1124.14 1170.42,-1074.6"/>
<text xml:space="preserve" text-anchor="middle" x="1107.93" y="-1267.7" font-family="Times,serif" font-size="14.00">3,582</text>
</g>
<!-- icd10cm
21,760&#45;&#45;orphanet
15,230 -->
<g id="edge83" class="edge">
<title>icd10cm
21,760&#45;&#45;orphanet
15,230</title>
<path fill="none" stroke="black" d="M1042.79,-1479.92C1051.45,-1464.31 1062.28,-1444.24 1071.18,-1426 1079.92,-1408.12 1078.03,-1401.48 1089.18,-1385 1137.33,-1313.83 1180.88,-1320.98 1224.59,-1247 1238.75,-1223.03 1227.76,-1210.56 1242.59,-1187 1252.43,-1171.36 1262.69,-1174.11 1273.34,-1159 1299.71,-1121.56 1317.68,-1071.13 1327.15,-1039.86"/>
<text xml:space="preserve" text-anchor="middle" x="1184.64" y="-1330.18" font-family="Times,serif" font-size="14.00">1,226</text>
</g>
<!-- icd10cm
21,760&#45;&#45;gard
6,109 -->
<g id="edge84" class="edge">
<title>icd10cm
21,760&#45;&#45;gard
6,109</title>
<path fill="none" stroke="black" d="M1056.61,-1485.44C1096.06,-1455.8 1168.02,-1400.08 1224.59,-1347 1233.19,-1338.93 1232.07,-1332.85 1242.59,-1327.5 1309.23,-1293.61 1399.72,-1293.84 1447.3,-1296.92"/>
<text xml:space="preserve" text-anchor="middle" x="1257.96" y="-1330.7" font-family="Times,serif" font-size="14.00">1,227</text>
</g>
<!-- icd10cm
21,760&#45;&#45;omim
15,286 -->
<g id="edge85" class="edge">
<title>icd10cm
21,760&#45;&#45;omim
15,286</title>
<path fill="none" stroke="black" d="M1063.5,-1490.47C1082.42,-1481.65 1105.93,-1470.49 1126.68,-1460 1200.84,-1422.54 1212.51,-1397.74 1291.34,-1371.5 1386.14,-1339.94 1439.92,-1405.44 1513.65,-1338 1538.63,-1315.15 1518.48,-1295.18 1531.65,-1264 1541.65,-1240.31 1554.35,-1239.42 1562.4,-1215 1595.32,-1115.09 1534.58,-1073.69 1580.4,-979 1582.9,-973.83 1586.56,-969.07 1590.62,-964.84"/>
<text xml:space="preserve" text-anchor="middle" x="1336.06" y="-1374.7" font-family="Times,serif" font-size="14.00">471</text>
</g>
<!-- icd10cm
21,760&#45;&#45;icd9
3,993 -->
<g id="edge86" class="edge">
<title>icd10cm
21,760&#45;&#45;icd9
3,993</title>
<path fill="none" stroke="black" d="M1058.25,-1527.53C1081.04,-1541.43 1113.43,-1558.58 1144.68,-1566 1179.24,-1574.2 1189.1,-1567.21 1224.59,-1566 1441.37,-1558.6 1503.75,-1560.38 1704.81,-1479 1712.66,-1475.82 1720.81,-1471.67 1728.2,-1467.54"/>
<text xml:space="preserve" text-anchor="middle" x="1414.16" y="-1561.44" font-family="Times,serif" font-size="14.00">2,298</text>
</g>
<!-- icd10cm
21,760&#45;&#45;icd11
71,175 -->
<g id="edge87" class="edge">
<title>icd10cm
21,760&#45;&#45;icd11
71,175</title>
<path fill="none" stroke="black" d="M1049.37,-1532.35C1060.43,-1544.03 1074.58,-1557.38 1089.18,-1567 1246.09,-1670.31 1291.73,-1729 1479.59,-1729 1479.59,-1729 1479.59,-1729 1756.87,-1729 1851.02,-1729 1885.24,-979.24 1891.43,-820.36"/>
<text xml:space="preserve" text-anchor="middle" x="1480.59" y="-1732.2" font-family="Times,serif" font-size="14.00">1,532</text>
</g>
<!-- icd10cm
21,760&#45;&#45;omim.ps
594 -->
<g id="edge88" class="edge">
<title>icd10cm
21,760&#45;&#45;omim.ps
594</title>
<path fill="none" stroke="black" d="M1037.63,-1535.51C1063.97,-1609.06 1133.21,-1800.11 1144.68,-1809 1243.5,-1885.6 1585.58,-1899.65 1704.81,-1862 1773.79,-1840.22 1789.46,-1821.92 1837.68,-1768 1894.4,-1704.57 1905.97,-1682.23 1931.34,-1601 2001.53,-1376.22 2035.36,-610.18 2041.74,-450.37"/>
<text xml:space="preserve" text-anchor="middle" x="1547.03" y="-1885.17" font-family="Times,serif" font-size="14.00">34</text>
</g>
<!-- icd10cm
21,760&#45;&#45;icd10
2,345 -->
<g id="edge89" class="edge">
<title>icd10cm
21,760&#45;&#45;icd10
2,345</title>
<path fill="none" stroke="black" d="M1028.13,-1536.08C1031.34,-1602.46 1049.09,-1765.68 1144.68,-1847 1293.31,-1973.44 1350.9,-2025 1546.03,-2025 1546.03,-2025 1546.03,-2025 1894.51,-2025 1965.65,-2025 2020.51,-1780.64 2037.43,-1695.69"/>
<text xml:space="preserve" text-anchor="middle" x="1547.03" y="-2028.2" font-family="Times,serif" font-size="14.00">4,473</text>
</g>
<!-- icd9cm
9,134&#45;&#45;orphanet
15,230 -->
<g id="edge90" class="edge">
<title>icd9cm
9,134&#45;&#45;orphanet
15,230</title>
<path fill="none" stroke="black" d="M1220.93,-1033.98C1228.04,-1031.62 1235.5,-1029.33 1242.59,-1027.5 1258.53,-1023.37 1276.29,-1019.93 1291.95,-1017.28"/>
<text xml:space="preserve" text-anchor="middle" x="1257.96" y="-1030.7" font-family="Times,serif" font-size="14.00">679</text>
</g>
<!-- icd9cm
9,134&#45;&#45;gard
6,109 -->
<g id="edge91" class="edge">
<title>icd9cm
9,134&#45;&#45;gard
6,109</title>
<path fill="none" stroke="black" d="M1192.8,-1075.63C1200.75,-1101.71 1216.11,-1139.49 1242.59,-1162 1309.28,-1218.71 1361.71,-1168.65 1429.54,-1224 1445.69,-1237.19 1458.5,-1256.98 1467.11,-1273.06"/>
<text xml:space="preserve" text-anchor="middle" x="1336.06" y="-1201.88" font-family="Times,serif" font-size="14.00">713</text>
</g>
<!-- icd9cm
9,134&#45;&#45;omim
15,286 -->
<g id="edge92" class="edge">
<title>icd9cm
9,134&#45;&#45;omim
15,286</title>
<path fill="none" stroke="black" d="M1209.99,-1024.34C1230.15,-1007.04 1260.42,-984.32 1291.34,-973 1390.79,-936.58 1518.3,-938.37 1580.2,-942.02"/>
<text xml:space="preserve" text-anchor="middle" x="1414.16" y="-950.51" font-family="Times,serif" font-size="14.00">299</text>
</g>
<!-- icd9cm
9,134&#45;&#45;icd9
3,993 -->
<g id="edge93" class="edge">
<title>icd9cm
9,134&#45;&#45;icd9
3,993</title>
<path fill="none" stroke="black" d="M1216.51,-1064.82C1287.27,-1105.82 1459.26,-1206.27 1513.65,-1245.5 1536.41,-1261.91 1676.07,-1382.66 1731.87,-1431.04"/>
<text xml:space="preserve" text-anchor="middle" x="1480.59" y="-1248.7" font-family="Times,serif" font-size="14.00">2,404</text>
</g>
<!-- icd9cm
9,134&#45;&#45;icd11
71,175 -->
<g id="edge94" class="edge">
<title>icd9cm
9,134&#45;&#45;icd11
71,175</title>
<path fill="none" stroke="black" d="M1203.29,-1021.25C1213.71,-1007.17 1227.74,-990.01 1242.59,-977 1261.72,-960.23 1267.93,-956.97 1291.34,-947 1495.68,-859.93 1760.43,-811.98 1856.05,-796.56"/>
<text xml:space="preserve" text-anchor="middle" x="1547.03" y="-868.79" font-family="Times,serif" font-size="14.00">1,021</text>
</g>
<!-- icd9cm
9,134&#45;&#45;icd10
2,345 -->
<g id="edge95" class="edge">
<title>icd9cm
9,134&#45;&#45;icd10
2,345</title>
<path fill="none" stroke="black" d="M1224.67,-1049.37C1267.69,-1053.93 1336.64,-1067.22 1380.79,-1106 1395.43,-1118.87 1383.37,-1134.07 1398.79,-1146 1457.13,-1191.16 1489.84,-1160.66 1562.4,-1174 1625.84,-1185.66 1641.56,-1189.35 1704.81,-1202 1763.9,-1213.81 1790.27,-1191.8 1837.68,-1229 1975.09,-1336.82 2024.67,-1558.58 2038.43,-1637.95"/>
<text xml:space="preserve" text-anchor="middle" x="1618.23" y="-1195.26" font-family="Times,serif" font-size="14.00">2,338</text>
</g>
<!-- orphanet
15,230&#45;&#45;gard
6,109 -->
<g id="edge96" class="edge">
<title>orphanet
15,230&#45;&#45;gard
6,109</title>
<path fill="none" stroke="black" d="M1354.01,-1037.89C1374.02,-1070.47 1407.37,-1127.46 1429.54,-1179.5 1440.03,-1204.14 1437.43,-1212.2 1447.54,-1237 1452.63,-1249.5 1459.27,-1262.89 1465.18,-1274.1"/>
<text xml:space="preserve" text-anchor="middle" x="1414.16" y="-1182.7" font-family="Times,serif" font-size="14.00">1,952</text>
</g>
<!-- orphanet
15,230&#45;&#45;omim
15,286 -->
<g id="edge97" class="edge">
<title>orphanet
15,230&#45;&#45;omim
15,286</title>
<path fill="none" stroke="black" d="M1377.01,-998.8C1397.91,-992.63 1423.99,-985.24 1447.54,-979.5 1493.25,-968.35 1546.49,-957.94 1580.97,-951.53"/>
<text xml:space="preserve" text-anchor="middle" x="1480.59" y="-982.7" font-family="Times,serif" font-size="14.00">11,728</text>
</g>
<!-- orphanet
15,230&#45;&#45;icd9
3,993 -->
<g id="edge98" class="edge">
<title>orphanet
15,230&#45;&#45;icd9
3,993</title>
<path fill="none" stroke="black" d="M1364.71,-1033.29C1422.9,-1080.24 1553.46,-1185.74 1562.4,-1194.5 1608.37,-1239.57 1624.01,-1249.17 1656.06,-1305 1668.03,-1325.85 1660.77,-1335.97 1674.06,-1356 1684.28,-1371.4 1692.39,-1370.31 1704.81,-1384 1716.81,-1397.23 1728.84,-1413.21 1738.09,-1426.25"/>
<text xml:space="preserve" text-anchor="middle" x="1547.03" y="-1197.7" font-family="Times,serif" font-size="14.00">681</text>
</g>
<!-- orphanet
15,230&#45;&#45;icd11
71,175 -->
<g id="edge99" class="edge">
<title>orphanet
15,230&#45;&#45;icd11
71,175</title>
<path fill="none" stroke="black" d="M1381.07,-1013.13C1443.72,-1014.84 1561.5,-1013.1 1656.06,-983 1721.1,-962.3 1735.92,-948.99 1788.93,-906 1822.32,-878.92 1854.43,-840.77 1873.82,-815.96"/>
<text xml:space="preserve" text-anchor="middle" x="1618.23" y="-1004.01" font-family="Times,serif" font-size="14.00">1,117</text>
</g>
<!-- orphanet
15,230&#45;&#45;omim.ps
594 -->
<g id="edge100" class="edge">
<title>orphanet
15,230&#45;&#45;omim.ps
594</title>
<path fill="none" stroke="black" d="M1344.88,-982.24C1367.83,-902.88 1442.22,-678.17 1580.4,-550 1699.88,-439.18 1906.58,-422.39 1997.61,-420.64"/>
<text xml:space="preserve" text-anchor="middle" x="1689.44" y="-490.54" font-family="Times,serif" font-size="14.00">57</text>
</g>
<!-- orphanet
15,230&#45;&#45;icd10
2,345 -->
<g id="edge101" class="edge">
<title>orphanet
15,230&#45;&#45;icd10
2,345</title>
<path fill="none" stroke="black" d="M1371.27,-1029.33C1409.42,-1049.09 1473.43,-1080.22 1531.65,-1099 1725.81,-1161.64 1843.47,-1045.49 1980.09,-1197 2038.93,-1262.27 2043.29,-1545.57 2043.12,-1637.84"/>
<text xml:space="preserve" text-anchor="middle" x="1689.44" y="-1122.62" font-family="Times,serif" font-size="14.00">7,957</text>
</g>
<!-- gard
6,109&#45;&#45;omim
15,286 -->
<g id="edge102" class="edge">
<title>gard
6,109&#45;&#45;omim
15,286</title>
<path fill="none" stroke="black" d="M1496.55,-1274.31C1502.56,-1263.13 1509.11,-1249.71 1513.65,-1237 1526.26,-1201.65 1521.89,-1190.74 1531.65,-1154.5 1543.25,-1111.44 1550.08,-1101.86 1562.4,-1059 1571.39,-1027.71 1565.42,-1016.9 1580.4,-988 1584.11,-980.84 1589.22,-973.86 1594.46,-967.67"/>
<text xml:space="preserve" text-anchor="middle" x="1547.03" y="-1157.7" font-family="Times,serif" font-size="14.00">580</text>
</g>
<!-- gard
6,109&#45;&#45;icd9
3,993 -->
<g id="edge103" class="edge">
<title>gard
6,109&#45;&#45;icd9
3,993</title>
<path fill="none" stroke="black" d="M1494.9,-1326.39C1503.58,-1341.28 1516.17,-1359.22 1531.65,-1371 1590.62,-1415.87 1677.02,-1437.19 1723.12,-1445.9"/>
<text xml:space="preserve" text-anchor="middle" x="1618.23" y="-1431.93" font-family="Times,serif" font-size="14.00">635</text>
</g>
<!-- gard
6,109&#45;&#45;icd11
71,175 -->
<g id="edge104" class="edge">
<title>gard
6,109&#45;&#45;icd11
71,175</title>
<path fill="none" stroke="black" d="M1511.43,-1288.4C1551.25,-1271.28 1620.84,-1235.29 1656.06,-1181 1680.52,-1143.3 1640.97,-1111.91 1674.06,-1081.5 1727.85,-1032.08 1783.45,-1114.94 1837.68,-1066 1873.82,-1033.38 1886.95,-883.88 1890.97,-820.04"/>
<text xml:space="preserve" text-anchor="middle" x="1689.44" y="-1084.7" font-family="Times,serif" font-size="14.00">909</text>
</g>
<!-- gard
6,109&#45;&#45;omim.ps
594 -->
<g id="edge105" class="edge">
<title>gard
6,109&#45;&#45;omim.ps
594</title>
<path fill="none" stroke="black" d="M1513.75,-1296.64C1528.85,-1294.41 1546.89,-1290.79 1562.4,-1285 1703.35,-1232.39 1755.14,-1213.78 1837.68,-1088 1980.58,-870.22 2028.18,-547.78 2039.76,-450.09"/>
<text xml:space="preserve" text-anchor="middle" x="1755.87" y="-1216.18" font-family="Times,serif" font-size="14.00">38</text>
</g>
<!-- gard
6,109&#45;&#45;icd10
2,345 -->
<g id="edge106" class="edge">
<title>gard
6,109&#45;&#45;icd10
2,345</title>
<path fill="none" stroke="black" d="M1504.1,-1320.97C1512.26,-1327.6 1521.89,-1334.39 1531.65,-1339 1637.61,-1389 1684.63,-1343.11 1788.93,-1396.5 1903.03,-1454.91 1993.19,-1585.96 2027.68,-1641.43"/>
<text xml:space="preserve" text-anchor="middle" x="1755.87" y="-1399.7" font-family="Times,serif" font-size="14.00">703</text>
</g>
<!-- omim
15,286&#45;&#45;icd9
3,993 -->
<g id="edge107" class="edge">
<title>omim
15,286&#45;&#45;icd9
3,993</title>
<path fill="none" stroke="black" d="M1642.67,-967.36C1647.89,-973.55 1652.83,-980.62 1656.06,-988 1683.52,-1050.72 1663.58,-1073.34 1674.06,-1141 1691.6,-1254.16 1683.4,-1286.48 1722.81,-1394 1726.84,-1404.98 1732.81,-1416.35 1738.52,-1426.02"/>
<text xml:space="preserve" text-anchor="middle" x="1689.44" y="-1340.46" font-family="Times,serif" font-size="14.00">321</text>
</g>
<!-- omim
15,286&#45;&#45;icd11
71,175 -->
<g id="edge108" class="edge">
<title>omim
15,286&#45;&#45;icd11
71,175</title>
<path fill="none" stroke="black" d="M1649.26,-928.08C1701.81,-898.47 1809.85,-837.58 1862.43,-807.95"/>
<text xml:space="preserve" text-anchor="middle" x="1755.87" y="-889.02" font-family="Times,serif" font-size="14.00">361</text>
</g>
<!-- omim
15,286&#45;&#45;omim.ps
594 -->
<g id="edge109" class="edge">
<title>omim
15,286&#45;&#45;omim.ps
594</title>
<path fill="none" stroke="black" d="M1639.1,-920.43C1709.93,-832.82 1949.74,-536.19 2022.06,-446.74"/>
<text xml:space="preserve" text-anchor="middle" x="1822.3" y="-710.35" font-family="Times,serif" font-size="14.00">77</text>
</g>
<!-- omim
15,286&#45;&#45;icd10
2,345 -->
<g id="edge110" class="edge">
<title>omim
15,286&#45;&#45;icd10
2,345</title>
<path fill="none" stroke="black" d="M1656.04,-949.46C1730.93,-960.65 1900.63,-997.32 1980.09,-1106 2042.77,-1191.74 2044.32,-1534.45 2043.32,-1637.53"/>
<text xml:space="preserve" text-anchor="middle" x="1822.3" y="-1001.74" font-family="Times,serif" font-size="14.00">525</text>
</g>
<!-- icd9
3,993&#45;&#45;icd11
71,175 -->
<g id="edge111" class="edge">
<title>icd9
3,993&#45;&#45;icd11
71,175</title>
<path fill="none" stroke="black" d="M1773.34,-1426.07C1779.06,-1416.4 1785.01,-1405.02 1788.93,-1394 1864.1,-1182.29 1885.76,-908.82 1891.02,-820.14"/>
<text xml:space="preserve" text-anchor="middle" x="1822.3" y="-1334.19" font-family="Times,serif" font-size="14.00">1,026</text>
</g>
<!-- icd9
3,993&#45;&#45;icd10
2,345 -->
<g id="edge112" class="edge">
<title>icd9
3,993&#45;&#45;icd10
2,345</title>
<path fill="none" stroke="black" d="M1781.5,-1469.6C1835.56,-1510.43 1964.1,-1607.51 2018.2,-1648.37"/>
<text xml:space="preserve" text-anchor="middle" x="1893.51" y="-1583.67" font-family="Times,serif" font-size="14.00">1,798</text>
</g>
<!-- icd11
71,175&#45;&#45;omim.ps
594 -->
<g id="edge113" class="edge">
<title>icd11
71,175&#45;&#45;omim.ps
594</title>
<path fill="none" stroke="black" d="M1905.66,-763.19C1933.12,-694.7 2003.79,-518.47 2031.49,-449.39"/>
<text xml:space="preserve" text-anchor="middle" x="1964.71" y="-653.22" font-family="Times,serif" font-size="14.00">28</text>
</g>
<!-- icd11
71,175&#45;&#45;icd10
2,345 -->
<g id="edge114" class="edge">
<title>icd11
71,175&#45;&#45;icd10
2,345</title>
<path fill="none" stroke="black" d="M1905.94,-818.52C1924.69,-864.89 1961.71,-961.9 1980.09,-1047.5 2028.09,-1271.04 2039.63,-1548.06 2042.19,-1637.61"/>
<text xml:space="preserve" text-anchor="middle" x="1964.71" y="-1050.7" font-family="Times,serif" font-size="14.00">1,068</text>
</g>
</g>
</svg>
