<?xml version="1.0" encoding="UTF-8" standalone="no"?>
<!DOCTYPE svg PUBLIC "-//W3C//DTD SVG 1.1//EN"
 "http://www.w3.org/Graphics/SVG/1.1/DTD/svg11.dtd">
<!-- Generated by graphviz version 10.0.1 (20240210.2158)
 -->
<!-- Pages: 1 -->
<svg width="599pt" height="572pt"
 viewBox="0.00 0.00 599.22 571.50" xmlns="http://www.w3.org/2000/svg" xmlns:xlink="http://www.w3.org/1999/xlink">
<g id="graph0" class="graph" transform="scale(1 1) rotate(0) translate(4 567.5)">
<polygon fill="white" stroke="none" points="-4,4 -4,-567.5 595.22,-567.5 595.22,4 -4,4"/>
<!-- bto -->
<g id="node1" class="node">
<title>bto</title>
<ellipse fill="none" stroke="black" cx="30.88" cy="-155" rx="27" ry="18"/>
<text text-anchor="middle" x="30.88" y="-149.95" font-family="Times,serif" font-size="14.00">bto</text>
</g>
<!-- bto&#45;&#45;bto -->
<g id="edge1" class="edge">
<title>bto&#45;&#45;bto</title>
<path fill="none" stroke="black" stroke-width="1.13" d="M20.42,-172.04C18.29,-181.86 21.77,-191 30.88,-191 39.98,-191 43.47,-181.86 41.33,-172.04"/>
<text text-anchor="middle" x="30.88" y="-194.2" font-family="Times,serif" font-size="14.00">6,511</text>
</g>
<!-- cl -->
<g id="node2" class="node">
<title>cl</title>
<ellipse fill="none" stroke="black" cx="145.01" cy="-282" rx="27" ry="18"/>
<text text-anchor="middle" x="145.01" y="-276.95" font-family="Times,serif" font-size="14.00">cl</text>
</g>
<!-- bto&#45;&#45;cl -->
<g id="edge2" class="edge">
<title>bto&#45;&#45;cl</title>
<path fill="none" stroke="black" stroke-width="1.01" d="M40.19,-172.17C53.08,-198.72 76.73,-246.99 79.76,-250 90.98,-261.16 106.88,-269.13 120.05,-274.32"/>
<text text-anchor="middle" x="89.88" y="-267.2" font-family="Times,serif" font-size="14.00">329</text>
</g>
<!-- ccle -->
<g id="node3" class="node">
<title>ccle</title>
<ellipse fill="none" stroke="black" cx="145.01" cy="-155" rx="27" ry="18"/>
<text text-anchor="middle" x="145.01" y="-149.95" font-family="Times,serif" font-size="14.00">ccle</text>
</g>
<!-- bto&#45;&#45;ccle -->
<g id="edge3" class="edge">
<title>bto&#45;&#45;ccle</title>
<path fill="none" stroke="black" d="M58.17,-155C76.16,-155 99.92,-155 117.88,-155"/>
<text text-anchor="middle" x="89.88" y="-158.2" font-family="Times,serif" font-size="14.00">125</text>
</g>
<!-- cellosaurus -->
<g id="node4" class="node">
<title>cellosaurus</title>
<ellipse fill="none" stroke="black" cx="280.63" cy="-18" rx="52.38" ry="18"/>
<text text-anchor="middle" x="280.63" y="-12.95" font-family="Times,serif" font-size="14.00">cellosaurus</text>
</g>
<!-- bto&#45;&#45;cellosaurus -->
<g id="edge4" class="edge">
<title>bto&#45;&#45;cellosaurus</title>
<path fill="none" stroke="black" stroke-width="1.05" d="M38.47,-137.33C46,-119.28 59.9,-91.49 79.76,-74 121,-37.68 184.03,-24.76 228.26,-20.25"/>
<text text-anchor="middle" x="145.01" y="-52.2" font-family="Times,serif" font-size="14.00">2,417</text>
</g>
<!-- depmap -->
<g id="node5" class="node">
<title>depmap</title>
<ellipse fill="none" stroke="black" cx="440.36" cy="-104" rx="40.6" ry="18"/>
<text text-anchor="middle" x="440.36" y="-98.95" font-family="Times,serif" font-size="14.00">depmap</text>
</g>
<!-- bto&#45;&#45;depmap -->
<g id="edge5" class="edge">
<title>bto&#45;&#45;depmap</title>
<path fill="none" stroke="black" d="M51.45,-143.19C80.47,-126.45 137.18,-96.6 190.01,-85.5 229.3,-77.25 342.03,-90.58 401.53,-98.62"/>
<text text-anchor="middle" x="200.13" y="-89.2" font-family="Times,serif" font-size="14.00">132</text>
</g>
<!-- clo -->
<g id="node6" class="node">
<title>clo</title>
<ellipse fill="none" stroke="black" cx="564.22" cy="-172" rx="27" ry="18"/>
<text text-anchor="middle" x="564.22" y="-166.95" font-family="Times,serif" font-size="14.00">clo</text>
</g>
<!-- bto&#45;&#45;clo -->
<g id="edge6" class="edge">
<title>bto&#45;&#45;clo</title>
<path fill="none" stroke="black" stroke-width="1.01" d="M43.61,-171.39C62.07,-195.06 100.3,-236 144.01,-236 144.01,-236 144.01,-236 441.36,-236 483.66,-236 525.72,-205.41 547.65,-186.52"/>
<text text-anchor="middle" x="280.63" y="-239.2" font-family="Times,serif" font-size="14.00">599</text>
</g>
<!-- cl&#45;&#45;cl -->
<g id="edge7" class="edge">
<title>cl&#45;&#45;cl</title>
<path fill="none" stroke="black" stroke-width="1.06" d="M135.24,-299.04C133.25,-308.86 136.5,-318 145.01,-318 153.51,-318 156.77,-308.86 154.78,-299.04"/>
<text text-anchor="middle" x="145.01" y="-321.2" font-family="Times,serif" font-size="14.00">2,739</text>
</g>
<!-- ccle&#45;&#45;ccle -->
<g id="edge8" class="edge">
<title>ccle&#45;&#45;ccle</title>
<path fill="none" stroke="black" stroke-width="1.02" d="M135.24,-172.04C133.25,-181.86 136.5,-191 145.01,-191 153.51,-191 156.77,-181.86 154.78,-172.04"/>
<text text-anchor="middle" x="145.01" y="-194.2" font-family="Times,serif" font-size="14.00">1,061</text>
</g>
<!-- ccle&#45;&#45;cellosaurus -->
<g id="edge9" class="edge">
<title>ccle&#45;&#45;cellosaurus</title>
<path fill="none" stroke="black" stroke-width="1.01" d="M165.01,-142.42C178.36,-133.14 196.26,-119.78 210.26,-106 232.86,-83.76 254.81,-54.16 267.77,-35.6"/>
<text text-anchor="middle" x="200.13" y="-127.2" font-family="Times,serif" font-size="14.00">557</text>
</g>
<!-- ccle&#45;&#45;depmap -->
<g id="edge10" class="edge">
<title>ccle&#45;&#45;depmap</title>
<path fill="none" stroke="black" stroke-width="1.03" d="M171.67,-151.14C183.44,-149.34 197.57,-147.12 210.26,-145 278.21,-133.63 357.27,-119.22 402.5,-110.86"/>
<text text-anchor="middle" x="280.63" y="-144.2" font-family="Times,serif" font-size="14.00">1,535</text>
</g>
<!-- ccle&#45;&#45;clo -->
<g id="edge11" class="edge">
<title>ccle&#45;&#45;clo</title>
<path fill="none" stroke="black" stroke-width="1.01" d="M172.04,-158.22C177.94,-158.88 184.19,-159.52 190.01,-160 206.97,-161.41 211.25,-161.3 228.26,-162 343.35,-166.73 480.78,-170.12 537.15,-171.42"/>
<text text-anchor="middle" x="366.38" y="-170.2" font-family="Times,serif" font-size="14.00">331</text>
</g>
<!-- cellosaurus&#45;&#45;cellosaurus -->
<g id="edge12" class="edge">
<title>cellosaurus&#45;&#45;cellosaurus</title>
<path fill="none" stroke="black" stroke-width="4" d="M266.16,-35.78C263.7,-45.31 268.53,-54 280.63,-54 292.74,-54 297.56,-45.31 295.1,-35.78"/>
<text text-anchor="middle" x="280.63" y="-57.2" font-family="Times,serif" font-size="14.00">148,681</text>
</g>
<!-- cellosaurus&#45;&#45;depmap -->
<g id="edge13" class="edge">
<title>cellosaurus&#45;&#45;depmap</title>
<path fill="none" stroke="black" stroke-width="1.04" d="M312.22,-32.59C332.23,-42.33 358.82,-55.68 381.76,-68.5 393.35,-74.98 405.93,-82.65 416.37,-89.21"/>
<text text-anchor="middle" x="366.38" y="-72.2" font-family="Times,serif" font-size="14.00">1,901</text>
</g>
<!-- cellosaurus&#45;&#45;clo -->
<g id="edge14" class="edge">
<title>cellosaurus&#45;&#45;clo</title>
<path fill="none" stroke="black" stroke-width="1.69" d="M333.34,-19.06C375.99,-22.16 436.51,-31.84 480.97,-60.5 517.36,-83.96 543.24,-129.55 555.39,-154.56"/>
<text text-anchor="middle" x="440.36" y="-64.2" font-family="Times,serif" font-size="14.00">34,150</text>
</g>
<!-- depmap&#45;&#45;depmap -->
<g id="edge15" class="edge">
<title>depmap&#45;&#45;depmap</title>
<path fill="none" stroke="black" stroke-width="1.03" d="M428.09,-121.41C425.8,-131.09 429.89,-140 440.36,-140 450.83,-140 454.92,-131.09 452.63,-121.41"/>
<text text-anchor="middle" x="440.36" y="-143.2" font-family="Times,serif" font-size="14.00">1,719</text>
</g>
<!-- depmap&#45;&#45;clo -->
<g id="edge16" class="edge">
<title>depmap&#45;&#45;clo</title>
<path fill="none" stroke="black" stroke-width="1.01" d="M466.61,-118.09C489.2,-130.69 521.88,-148.93 542.84,-160.63"/>
<text text-anchor="middle" x="509.09" y="-149.2" font-family="Times,serif" font-size="14.00">350</text>
</g>
<!-- clo&#45;&#45;clo -->
<g id="edge17" class="edge">
<title>clo&#45;&#45;clo</title>
<path fill="none" stroke="black" stroke-width="1.79" d="M554.45,-189.04C552.45,-198.86 555.71,-208 564.22,-208 572.72,-208 575.98,-198.86 573.98,-189.04"/>
<text text-anchor="middle" x="564.22" y="-211.2" font-family="Times,serif" font-size="14.00">39,080</text>
</g>
<!-- mesh -->
<g id="node7" class="node">
<title>mesh</title>
<ellipse fill="none" stroke="black" cx="30.88" cy="-244" rx="30.88" ry="18"/>
<text text-anchor="middle" x="30.88" y="-238.95" font-family="Times,serif" font-size="14.00">mesh</text>
</g>
<!-- mesh&#45;&#45;mesh -->
<g id="edge18" class="edge">
<title>mesh&#45;&#45;mesh</title>
<path fill="none" stroke="black" stroke-width="1.01" d="M20.35,-261.41C18.38,-271.09 21.89,-280 30.88,-280 39.87,-280 43.38,-271.09 41.41,-261.41"/>
<text text-anchor="middle" x="30.88" y="-283.2" font-family="Times,serif" font-size="14.00">636</text>
</g>
<!-- efo -->
<g id="node8" class="node">
<title>efo</title>
<ellipse fill="none" stroke="black" cx="30.88" cy="-333" rx="27" ry="18"/>
<text text-anchor="middle" x="30.88" y="-327.95" font-family="Times,serif" font-size="14.00">efo</text>
</g>
<!-- efo&#45;&#45;efo -->
<g id="edge19" class="edge">
<title>efo&#45;&#45;efo</title>
<path fill="none" stroke="black" d="M20.42,-350.04C18.29,-359.86 21.77,-369 30.88,-369 39.98,-369 43.47,-359.86 41.33,-350.04"/>
<text text-anchor="middle" x="30.88" y="-372.2" font-family="Times,serif" font-size="14.00">25</text>
</g>
<!-- ncit -->
<g id="node9" class="node">
<title>ncit</title>
<ellipse fill="none" stroke="black" cx="30.88" cy="-422" rx="27" ry="18"/>
<text text-anchor="middle" x="30.88" y="-416.95" font-family="Times,serif" font-size="14.00">ncit</text>
</g>
<!-- ncit&#45;&#45;ncit -->
<g id="edge20" class="edge">
<title>ncit&#45;&#45;ncit</title>
<path fill="none" stroke="black" stroke-width="1.01" d="M20.42,-439.04C18.29,-448.86 21.77,-458 30.88,-458 39.98,-458 43.47,-448.86 41.33,-439.04"/>
<text text-anchor="middle" x="30.88" y="-461.2" font-family="Times,serif" font-size="14.00">503</text>
</g>
<!-- umls -->
<g id="node10" class="node">
<title>umls</title>
<ellipse fill="none" stroke="black" cx="30.88" cy="-511" rx="29.34" ry="18"/>
<text text-anchor="middle" x="30.88" y="-505.95" font-family="Times,serif" font-size="14.00">umls</text>
</g>
<!-- umls&#45;&#45;umls -->
<g id="edge21" class="edge">
<title>umls&#45;&#45;umls</title>
<path fill="none" stroke="black" stroke-width="1.12" d="M20.42,-528.04C18.29,-537.86 21.77,-547 30.88,-547 39.98,-547 43.47,-537.86 41.33,-528.04"/>
<text text-anchor="middle" x="30.88" y="-550.2" font-family="Times,serif" font-size="14.00">6,057</text>
</g>
</g>
</svg>
