<?xml version="1.0" encoding="UTF-8" standalone="no"?>
<!DOCTYPE svg PUBLIC "-//W3C//DTD SVG 1.1//EN"
 "http://www.w3.org/Graphics/SVG/1.1/DTD/svg11.dtd">
<!-- Generated by graphviz version 10.0.1 (20240210.2158)
 -->
<!-- Pages: 1 -->
<svg width="991pt" height="580pt"
 viewBox="0.00 0.00 991.47 579.50" xmlns="http://www.w3.org/2000/svg" xmlns:xlink="http://www.w3.org/1999/xlink">
<g id="graph0" class="graph" transform="scale(1 1) rotate(0) translate(4 575.5)">
<polygon fill="white" stroke="none" points="-4,4 -4,-575.5 987.47,-575.5 987.47,4 -4,4"/>
<!-- bto -->
<g id="node1" class="node">
<title>bto</title>
<ellipse fill="none" stroke="black" cx="27" cy="-251" rx="27" ry="18"/>
<text text-anchor="middle" x="27" y="-245.95" font-family="Times,serif" font-size="14.00">bto</text>
</g>
<!-- bto&#45;&#45;bto -->
<g id="edge1" class="edge">
<title>bto&#45;&#45;bto</title>
<path fill="none" stroke="black" stroke-width="1.13" d="M17.23,-268.04C15.24,-277.86 18.49,-287 27,-287 35.51,-287 38.76,-277.86 36.77,-268.04"/>
<text text-anchor="middle" x="27" y="-290.2" font-family="Times,serif" font-size="14.00">6,511</text>
</g>
<!-- cl -->
<g id="node2" class="node">
<title>cl</title>
<ellipse fill="none" stroke="black" cx="209.25" cy="-441" rx="27" ry="18"/>
<text text-anchor="middle" x="209.25" y="-435.95" font-family="Times,serif" font-size="14.00">cl</text>
</g>
<!-- bto&#45;&#45;cl -->
<g id="edge2" class="edge">
<title>bto&#45;&#45;cl</title>
<path fill="none" stroke="black" stroke-width="1.01" d="M30.15,-269.34C35.21,-309.16 49.19,-401.64 72,-422 102.29,-449.04 152.43,-448.54 182.71,-445.16"/>
<text text-anchor="middle" x="82.12" y="-438.2" font-family="Times,serif" font-size="14.00">329</text>
</g>
<!-- ccle -->
<g id="node3" class="node">
<title>ccle</title>
<ellipse fill="none" stroke="black" cx="137.25" cy="-299" rx="27" ry="18"/>
<text text-anchor="middle" x="137.25" y="-293.95" font-family="Times,serif" font-size="14.00">ccle</text>
</g>
<!-- bto&#45;&#45;ccle -->
<g id="edge3" class="edge">
<title>bto&#45;&#45;ccle</title>
<path fill="none" stroke="black" d="M50.17,-260.83C68.85,-269.11 95.44,-280.9 114.11,-289.18"/>
<text text-anchor="middle" x="82.12" y="-283.2" font-family="Times,serif" font-size="14.00">131</text>
</g>
<!-- cellosaurus -->
<g id="node4" class="node">
<title>cellosaurus</title>
<ellipse fill="none" stroke="black" cx="306.63" cy="-226" rx="52.38" ry="18"/>
<text text-anchor="middle" x="306.63" y="-220.95" font-family="Times,serif" font-size="14.00">cellosaurus</text>
</g>
<!-- bto&#45;&#45;cellosaurus -->
<g id="edge4" class="edge">
<title>bto&#45;&#45;cellosaurus</title>
<path fill="none" stroke="black" stroke-width="1.05" d="M54.12,-248.65C100.15,-244.5 196.43,-235.83 255.6,-230.5"/>
<text text-anchor="middle" x="137.25" y="-247.2" font-family="Times,serif" font-size="14.00">2,417</text>
</g>
<!-- efo -->
<g id="node5" class="node">
<title>efo</title>
<ellipse fill="none" stroke="black" cx="452.75" cy="-221" rx="27" ry="18"/>
<text text-anchor="middle" x="452.75" y="-215.95" font-family="Times,serif" font-size="14.00">efo</text>
</g>
<!-- bto&#45;&#45;efo -->
<g id="edge5" class="edge">
<title>bto&#45;&#45;efo</title>
<path fill="none" stroke="black" stroke-width="1.01" d="M51.59,-242.82C105.73,-225.02 243.16,-185.45 359,-199 382.67,-201.77 409.06,-208.38 427.62,-213.64"/>
<text text-anchor="middle" x="209.25" y="-212.2" font-family="Times,serif" font-size="14.00">512</text>
</g>
<!-- depmap -->
<g id="node6" class="node">
<title>depmap</title>
<ellipse fill="none" stroke="black" cx="576.6" cy="-168" rx="40.6" ry="18"/>
<text text-anchor="middle" x="576.6" y="-162.95" font-family="Times,serif" font-size="14.00">depmap</text>
</g>
<!-- bto&#45;&#45;depmap -->
<g id="edge6" class="edge">
<title>bto&#45;&#45;depmap</title>
<path fill="none" stroke="black" d="M29.1,-232.81C33.21,-182.64 52.13,-46 136.25,-46 136.25,-46 136.25,-46 453.75,-46 511.83,-46 551.86,-116.06 567.84,-150"/>
<text text-anchor="middle" x="306.63" y="-49.2" font-family="Times,serif" font-size="14.00">138</text>
</g>
<!-- mesh -->
<g id="node7" class="node">
<title>mesh</title>
<ellipse fill="none" stroke="black" cx="721.59" cy="-422" rx="30.88" ry="18"/>
<text text-anchor="middle" x="721.59" y="-416.95" font-family="Times,serif" font-size="14.00">mesh</text>
</g>
<!-- bto&#45;&#45;mesh -->
<g id="edge7" class="edge">
<title>bto&#45;&#45;mesh</title>
<path fill="none" stroke="black" d="M35.41,-268.16C47.23,-293.18 72.86,-338.95 110.25,-360 211.29,-416.89 582.02,-421.86 690.55,-422.07"/>
<text text-anchor="middle" x="392.38" y="-416.2" font-family="Times,serif" font-size="14.00">86</text>
</g>
<!-- clo -->
<g id="node8" class="node">
<title>clo</title>
<ellipse fill="none" stroke="black" cx="835.72" cy="-290" rx="27" ry="18"/>
<text text-anchor="middle" x="835.72" y="-284.95" font-family="Times,serif" font-size="14.00">clo</text>
</g>
<!-- bto&#45;&#45;clo -->
<g id="edge8" class="edge">
<title>bto&#45;&#45;clo</title>
<path fill="none" stroke="black" stroke-width="1.01" d="M30.41,-269.11C39.62,-334.55 75.18,-555 136.25,-555 136.25,-555 136.25,-555 722.59,-555 829.99,-555 836.08,-368.09 835.27,-308.21"/>
<text text-anchor="middle" x="452.75" y="-558.2" font-family="Times,serif" font-size="14.00">605</text>
</g>
<!-- ncit -->
<g id="node9" class="node">
<title>ncit</title>
<ellipse fill="none" stroke="black" cx="956.47" cy="-160" rx="27" ry="18"/>
<text text-anchor="middle" x="956.47" y="-154.95" font-family="Times,serif" font-size="14.00">ncit</text>
</g>
<!-- bto&#45;&#45;ncit -->
<g id="edge9" class="edge">
<title>bto&#45;&#45;ncit</title>
<path fill="none" stroke="black" stroke-width="1.01" d="M27.58,-232.54C27.32,-174.58 34.93,0 136.25,0 136.25,0 136.25,0 836.72,0 906.76,0 940.3,-100.11 951.25,-141.96"/>
<text text-anchor="middle" x="507.88" y="-3.2" font-family="Times,serif" font-size="14.00">436</text>
</g>
<!-- cl&#45;&#45;cl -->
<g id="edge10" class="edge">
<title>cl&#45;&#45;cl</title>
<path fill="none" stroke="black" stroke-width="1.06" d="M196.7,-457.29C193.68,-467.39 197.86,-477 209.25,-477 220.64,-477 224.82,-467.39 221.8,-457.29"/>
<text text-anchor="middle" x="209.25" y="-480.2" font-family="Times,serif" font-size="14.00">2,739</text>
</g>
<!-- cl&#45;&#45;mesh -->
<g id="edge11" class="edge">
<title>cl&#45;&#45;mesh</title>
<path fill="none" stroke="black" d="M235.63,-446.05C270.55,-452.54 335.47,-463 391.38,-463 391.38,-463 391.38,-463 577.6,-463 620.99,-463 669.01,-445.34 696.89,-433.2"/>
<text text-anchor="middle" x="452.75" y="-466.2" font-family="Times,serif" font-size="14.00">86</text>
</g>
<!-- ccle&#45;&#45;ccle -->
<g id="edge12" class="edge">
<title>ccle&#45;&#45;ccle</title>
<path fill="none" stroke="black" stroke-width="1.02" d="M127.48,-316.04C125.49,-325.86 128.74,-335 137.25,-335 145.76,-335 149.01,-325.86 147.02,-316.04"/>
<text text-anchor="middle" x="137.25" y="-338.2" font-family="Times,serif" font-size="14.00">1,061</text>
</g>
<!-- ccle&#45;&#45;cellosaurus -->
<g id="edge13" class="edge">
<title>ccle&#45;&#45;cellosaurus</title>
<path fill="none" stroke="black" stroke-width="1.01" d="M160.48,-289.31C189.29,-276.74 239.76,-254.73 272.94,-240.26"/>
<text text-anchor="middle" x="209.25" y="-283.2" font-family="Times,serif" font-size="14.00">577</text>
</g>
<!-- ccle&#45;&#45;efo -->
<g id="edge14" class="edge">
<title>ccle&#45;&#45;efo</title>
<path fill="none" stroke="black" stroke-width="1.01" d="M164.11,-302.51C206.42,-307.19 292.42,-312.21 359,-287 389.5,-275.45 419.21,-251.37 436.48,-235.71"/>
<text text-anchor="middle" x="306.63" y="-309.2" font-family="Times,serif" font-size="14.00">653</text>
</g>
<!-- ccle&#45;&#45;depmap -->
<g id="edge15" class="edge">
<title>ccle&#45;&#45;depmap</title>
<path fill="none" stroke="black" stroke-width="1.03" d="M152.41,-283.9C194.95,-238.94 322.1,-107.86 377,-87.5 444.67,-62.4 523.83,-121.57 558.21,-151.71"/>
<text text-anchor="middle" x="392.38" y="-91.2" font-family="Times,serif" font-size="14.00">1,535</text>
</g>
<!-- ccle&#45;&#45;clo -->
<g id="edge16" class="edge">
<title>ccle&#45;&#45;clo</title>
<path fill="none" stroke="black" stroke-width="1.01" d="M158.74,-310.48C165.97,-314.07 174.28,-317.69 182.25,-320 391.86,-380.86 458.05,-384.54 672.71,-345 726.39,-335.11 739.69,-330.38 790.72,-311 798.47,-308.06 806.74,-304.29 813.98,-300.76"/>
<text text-anchor="middle" x="507.88" y="-373.2" font-family="Times,serif" font-size="14.00">345</text>
</g>
<!-- ccle&#45;&#45;ncit -->
<g id="edge17" class="edge">
<title>ccle&#45;&#45;ncit</title>
<path fill="none" stroke="black" d="M139.71,-317.36C143.62,-361.43 155.84,-471.3 182.25,-495 223.32,-531.86 250.44,-509 305.63,-509 305.63,-509 305.63,-509 836.72,-509 907.28,-509 944.38,-250.08 953.32,-178.27"/>
<text text-anchor="middle" x="576.6" y="-512.2" font-family="Times,serif" font-size="14.00">192</text>
</g>
<!-- cellosaurus&#45;&#45;cellosaurus -->
<g id="edge18" class="edge">
<title>cellosaurus&#45;&#45;cellosaurus</title>
<path fill="none" stroke="black" stroke-width="4" d="M291.32,-243.41C288.46,-253.09 293.56,-262 306.63,-262 319.69,-262 324.79,-253.09 321.93,-243.41"/>
<text text-anchor="middle" x="306.63" y="-265.2" font-family="Times,serif" font-size="14.00">148,681</text>
</g>
<!-- cellosaurus&#45;&#45;efo -->
<g id="edge19" class="edge">
<title>cellosaurus&#45;&#45;efo</title>
<path fill="none" stroke="black" stroke-width="1.11" d="M359.25,-224.21C381.7,-223.43 407.05,-222.55 425.52,-221.91"/>
<text text-anchor="middle" x="392.38" y="-227.2" font-family="Times,serif" font-size="14.00">5,228</text>
</g>
<!-- cellosaurus&#45;&#45;depmap -->
<g id="edge20" class="edge">
<title>cellosaurus&#45;&#45;depmap</title>
<path fill="none" stroke="black" stroke-width="1.04" d="M336.84,-210.86C360.22,-199.52 394.21,-184.77 425.75,-177.5 462.33,-169.07 505.17,-167.12 535.66,-167.02"/>
<text text-anchor="middle" x="452.75" y="-181.2" font-family="Times,serif" font-size="14.00">1,901</text>
</g>
<!-- cellosaurus&#45;&#45;mesh -->
<g id="edge21" class="edge">
<title>cellosaurus&#45;&#45;mesh</title>
<path fill="none" stroke="black" stroke-width="1.01" d="M323.48,-243.36C333.69,-254.6 347.21,-269.59 359,-283 367.12,-292.23 366.59,-297.46 377,-304 431.9,-338.5 456.43,-321.16 518,-341.5 583.58,-363.17 658.62,-394.85 696.29,-411.26"/>
<text text-anchor="middle" x="507.88" y="-345.2" font-family="Times,serif" font-size="14.00">596</text>
</g>
<!-- cellosaurus&#45;&#45;clo -->
<g id="edge22" class="edge">
<title>cellosaurus&#45;&#45;clo</title>
<path fill="none" stroke="black" stroke-width="1.69" d="M332.74,-241.77C355.89,-255.35 391.73,-273.99 425.75,-282 567.11,-315.27 743.6,-300.49 808.88,-293.2"/>
<text text-anchor="middle" x="576.6" y="-306.2" font-family="Times,serif" font-size="14.00">34,150</text>
</g>
<!-- cellosaurus&#45;&#45;ncit -->
<g id="edge23" class="edge">
<title>cellosaurus&#45;&#45;ncit</title>
<path fill="none" stroke="black" stroke-width="2.38" d="M325.74,-208.83C358.89,-179.29 432.74,-122 506.88,-122 506.88,-122 506.88,-122 836.72,-122 872.43,-122 911.44,-137.79 934.66,-149.01"/>
<text text-anchor="middle" x="653.96" y="-125.2" font-family="Times,serif" font-size="14.00">68,564</text>
</g>
<!-- efo&#45;&#45;efo -->
<g id="edge24" class="edge">
<title>efo&#45;&#45;efo</title>
<path fill="none" stroke="black" d="M442.98,-238.04C440.99,-247.86 444.24,-257 452.75,-257 461.26,-257 464.51,-247.86 462.52,-238.04"/>
<text text-anchor="middle" x="452.75" y="-260.2" font-family="Times,serif" font-size="14.00">89</text>
</g>
<!-- efo&#45;&#45;depmap -->
<g id="edge25" class="edge">
<title>efo&#45;&#45;depmap</title>
<path fill="none" stroke="black" stroke-width="1.01" d="M476.1,-211.28C496.02,-202.61 525.3,-189.88 546.94,-180.47"/>
<text text-anchor="middle" x="507.88" y="-204.2" font-family="Times,serif" font-size="14.00">343</text>
</g>
<!-- efo&#45;&#45;clo -->
<g id="edge26" class="edge">
<title>efo&#45;&#45;clo</title>
<path fill="none" stroke="black" stroke-width="1.02" d="M479.79,-223.93C536.72,-230.63 676.29,-248.61 790.72,-276 797.42,-277.6 804.59,-279.71 811.15,-281.8"/>
<text text-anchor="middle" x="653.96" y="-255.2" font-family="Times,serif" font-size="14.00">1,033</text>
</g>
<!-- depmap&#45;&#45;depmap -->
<g id="edge27" class="edge">
<title>depmap&#45;&#45;depmap</title>
<path fill="none" stroke="black" stroke-width="1.03" d="M564.33,-185.41C562.04,-195.09 566.13,-204 576.6,-204 587.07,-204 591.16,-195.09 588.87,-185.41"/>
<text text-anchor="middle" x="576.6" y="-207.2" font-family="Times,serif" font-size="14.00">1,719</text>
</g>
<!-- depmap&#45;&#45;mesh -->
<g id="edge28" class="edge">
<title>depmap&#45;&#45;mesh</title>
<path fill="none" stroke="black" d="M586.86,-185.81C597.82,-206.6 616.9,-241.85 635.21,-271 650.65,-295.59 657.93,-299.5 672.71,-324.5 688.64,-351.45 704.04,-384.44 712.9,-404.31"/>
<text text-anchor="middle" x="653.96" y="-328.2" font-family="Times,serif" font-size="14.00">26</text>
</g>
<!-- depmap&#45;&#45;clo -->
<g id="edge29" class="edge">
<title>depmap&#45;&#45;clo</title>
<path fill="none" stroke="black" stroke-width="1.01" d="M616.08,-172.78C661.63,-180.06 737.94,-197.5 790.72,-237 804.12,-247.03 816.02,-261.94 824.06,-273.4"/>
<text text-anchor="middle" x="721.59" y="-216.2" font-family="Times,serif" font-size="14.00">366</text>
</g>
<!-- depmap&#45;&#45;ncit -->
<g id="edge30" class="edge">
<title>depmap&#45;&#45;ncit</title>
<path fill="none" stroke="black" stroke-width="1.01" d="M617.33,-167.16C694.83,-165.52 864.28,-161.93 929.33,-160.55"/>
<text text-anchor="middle" x="780.59" y="-167.2" font-family="Times,serif" font-size="14.00">390</text>
</g>
<!-- mesh&#45;&#45;mesh -->
<g id="edge31" class="edge">
<title>mesh&#45;&#45;mesh</title>
<path fill="none" stroke="black" stroke-width="1.01" d="M711.05,-439.41C709.09,-449.09 712.6,-458 721.59,-458 730.57,-458 734.09,-449.09 732.12,-439.41"/>
<text text-anchor="middle" x="721.59" y="-461.2" font-family="Times,serif" font-size="14.00">635</text>
</g>
<!-- mesh&#45;&#45;clo -->
<g id="edge32" class="edge">
<title>mesh&#45;&#45;clo</title>
<path fill="none" stroke="black" d="M749.89,-414.26C763.59,-409.21 779.58,-401.41 790.72,-390 813.37,-366.79 825.39,-329.97 830.88,-308.07"/>
<text text-anchor="middle" x="780.59" y="-408.2" font-family="Times,serif" font-size="14.00">150</text>
</g>
<!-- clo&#45;&#45;clo -->
<g id="edge33" class="edge">
<title>clo&#45;&#45;clo</title>
<path fill="none" stroke="black" stroke-width="1.79" d="M825.95,-307.04C823.95,-316.86 827.21,-326 835.72,-326 844.22,-326 847.48,-316.86 845.48,-307.04"/>
<text text-anchor="middle" x="835.72" y="-329.2" font-family="Times,serif" font-size="14.00">39,080</text>
</g>
<!-- clo&#45;&#45;ncit -->
<g id="edge34" class="edge">
<title>clo&#45;&#45;ncit</title>
<path fill="none" stroke="black" stroke-width="1.06" d="M850.8,-274.58C873.66,-249.56 918.55,-200.41 941.39,-175.4"/>
<text text-anchor="middle" x="896.09" y="-244.2" font-family="Times,serif" font-size="14.00">3,054</text>
</g>
<!-- ncit&#45;&#45;ncit -->
<g id="edge35" class="edge">
<title>ncit&#45;&#45;ncit</title>
<path fill="none" stroke="black" stroke-width="1.01" d="M945.77,-177.04C943.58,-186.86 947.15,-196 956.47,-196 965.78,-196 969.35,-186.86 967.16,-177.04"/>
<text text-anchor="middle" x="956.47" y="-199.2" font-family="Times,serif" font-size="14.00">502</text>
</g>
</g>
</svg>
