<?xml version="1.0" encoding="UTF-8" standalone="no"?>
<!DOCTYPE svg PUBLIC "-//W3C//DTD SVG 1.1//EN"
 "http://www.w3.org/Graphics/SVG/1.1/DTD/svg11.dtd">
<!-- Generated by graphviz version 10.0.1 (20240210.2158)
 -->
<!-- Pages: 1 -->
<svg width="1117pt" height="712pt"
 viewBox="0.00 0.00 1116.90 711.50" xmlns="http://www.w3.org/2000/svg" xmlns:xlink="http://www.w3.org/1999/xlink">
<g id="graph0" class="graph" transform="scale(1 1) rotate(0) translate(4 707.5)">
<polygon fill="white" stroke="none" points="-4,4 -4,-707.5 1112.9,-707.5 1112.9,4 -4,4"/>
<!-- bto -->
<g id="node1" class="node">
<title>bto</title>
<ellipse fill="none" stroke="black" cx="27" cy="-220" rx="27" ry="18"/>
<text text-anchor="middle" x="27" y="-214.95" font-family="Times,serif" font-size="14.00">bto</text>
</g>
<!-- bto&#45;&#45;bto -->
<g id="edge1" class="edge">
<title>bto&#45;&#45;bto</title>
<path fill="none" stroke="black" stroke-width="1.13" d="M17.23,-237.04C15.24,-246.86 18.49,-256 27,-256 35.51,-256 38.76,-246.86 36.77,-237.04"/>
<text text-anchor="middle" x="27" y="-259.2" font-family="Times,serif" font-size="14.00">6,511</text>
</g>
<!-- cl -->
<g id="node2" class="node">
<title>cl</title>
<ellipse fill="none" stroke="black" cx="209.25" cy="-78" rx="27" ry="18"/>
<text text-anchor="middle" x="209.25" y="-72.95" font-family="Times,serif" font-size="14.00">cl</text>
</g>
<!-- bto&#45;&#45;cl -->
<g id="edge2" class="edge">
<title>bto&#45;&#45;cl</title>
<path fill="none" stroke="black" stroke-width="1.01" d="M34.48,-202.51C41.5,-185.57 54.15,-160.08 72,-143.5 104.79,-113.05 154.34,-94.1 183.78,-84.85"/>
<text text-anchor="middle" x="82.12" y="-147.2" font-family="Times,serif" font-size="14.00">329</text>
</g>
<!-- ccle -->
<g id="node3" class="node">
<title>ccle</title>
<ellipse fill="none" stroke="black" cx="137.25" cy="-417" rx="27" ry="18"/>
<text text-anchor="middle" x="137.25" y="-411.95" font-family="Times,serif" font-size="14.00">ccle</text>
</g>
<!-- bto&#45;&#45;ccle -->
<g id="edge3" class="edge">
<title>bto&#45;&#45;ccle</title>
<path fill="none" stroke="black" d="M36.05,-237.26C44.59,-255.34 58.66,-284.47 72,-309 89.92,-341.97 112.76,-379.39 125.83,-400.4"/>
<text text-anchor="middle" x="82.12" y="-345.2" font-family="Times,serif" font-size="14.00">125</text>
</g>
<!-- cellosaurus -->
<g id="node4" class="node">
<title>cellosaurus</title>
<ellipse fill="none" stroke="black" cx="306.63" cy="-331" rx="52.38" ry="18"/>
<text text-anchor="middle" x="306.63" y="-325.95" font-family="Times,serif" font-size="14.00">cellosaurus</text>
</g>
<!-- bto&#45;&#45;cellosaurus -->
<g id="edge4" class="edge">
<title>bto&#45;&#45;cellosaurus</title>
<path fill="none" stroke="black" stroke-width="1.05" d="M50.72,-229.08C99.41,-248.55 214.06,-294.39 271.53,-317.37"/>
<text text-anchor="middle" x="137.25" y="-276.2" font-family="Times,serif" font-size="14.00">2,417</text>
</g>
<!-- efo -->
<g id="node5" class="node">
<title>efo</title>
<ellipse fill="none" stroke="black" cx="452.75" cy="-501" rx="27" ry="18"/>
<text text-anchor="middle" x="452.75" y="-495.95" font-family="Times,serif" font-size="14.00">efo</text>
</g>
<!-- bto&#45;&#45;efo -->
<g id="edge5" class="edge">
<title>bto&#45;&#45;efo</title>
<path fill="none" stroke="black" stroke-width="1.01" d="M28.58,-238.13C31.73,-301.16 51.98,-510.46 182.25,-576 270.97,-620.64 389.92,-546.1 434.19,-514.3"/>
<text text-anchor="middle" x="209.25" y="-592.2" font-family="Times,serif" font-size="14.00">498</text>
</g>
<!-- depmap -->
<g id="node6" class="node">
<title>depmap</title>
<ellipse fill="none" stroke="black" cx="576.6" cy="-369" rx="40.6" ry="18"/>
<text text-anchor="middle" x="576.6" y="-363.95" font-family="Times,serif" font-size="14.00">depmap</text>
</g>
<!-- bto&#45;&#45;depmap -->
<g id="edge6" class="edge">
<title>bto&#45;&#45;depmap</title>
<path fill="none" stroke="black" d="M53.86,-217.49C116.01,-212.24 278.24,-203.1 407.75,-236 460.63,-249.43 476.2,-254.93 518,-290 538.81,-307.46 556.11,-333.95 566.15,-351.37"/>
<text text-anchor="middle" x="306.63" y="-228.2" font-family="Times,serif" font-size="14.00">132</text>
</g>
<!-- mesh -->
<g id="node7" class="node">
<title>mesh</title>
<ellipse fill="none" stroke="black" cx="721.59" cy="-250" rx="30.88" ry="18"/>
<text text-anchor="middle" x="721.59" y="-244.95" font-family="Times,serif" font-size="14.00">mesh</text>
</g>
<!-- bto&#45;&#45;mesh -->
<g id="edge7" class="edge">
<title>bto&#45;&#45;mesh</title>
<path fill="none" stroke="black" d="M46.16,-206.94C66.9,-193.34 102.35,-174 136.25,-174 136.25,-174 136.25,-174 393.38,-174 504.11,-174 527,-210.46 635.21,-234 653.92,-238.07 675.08,-242.04 691.65,-245.01"/>
<text text-anchor="middle" x="392.38" y="-177.2" font-family="Times,serif" font-size="14.00">86</text>
</g>
<!-- clo -->
<g id="node8" class="node">
<title>clo</title>
<ellipse fill="none" stroke="black" cx="835.72" cy="-457" rx="27" ry="18"/>
<text text-anchor="middle" x="835.72" y="-451.95" font-family="Times,serif" font-size="14.00">clo</text>
</g>
<!-- bto&#45;&#45;clo -->
<g id="edge8" class="edge">
<title>bto&#45;&#45;clo</title>
<path fill="none" stroke="black" stroke-width="1.01" d="M28.28,-238.48C30.06,-324.77 43.09,-684 136.25,-684 136.25,-684 136.25,-684 393.38,-684 517.84,-684 557.11,-710.14 672.71,-664 735.76,-638.83 750.63,-621.79 790.72,-567 811.73,-538.28 824.43,-498.14 830.46,-475.13"/>
<text text-anchor="middle" x="452.75" y="-690.2" font-family="Times,serif" font-size="14.00">599</text>
</g>
<!-- umls -->
<g id="node9" class="node">
<title>umls</title>
<ellipse fill="none" stroke="black" cx="958.81" cy="-250" rx="29.34" ry="18"/>
<text text-anchor="middle" x="958.81" y="-244.95" font-family="Times,serif" font-size="14.00">umls</text>
</g>
<!-- bto&#45;&#45;umls -->
<g id="edge9" class="edge">
<title>bto&#45;&#45;umls</title>
<path fill="none" stroke="black" stroke-width="1.01" d="M30.46,-201.93C37.65,-157.22 63.01,-45 136.25,-45 136.25,-45 136.25,-45 654.96,-45 789.24,-45 908.36,-184.92 945.71,-233.57"/>
<text text-anchor="middle" x="507.88" y="-48.2" font-family="Times,serif" font-size="14.00">410</text>
</g>
<!-- ncit -->
<g id="node10" class="node">
<title>ncit</title>
<ellipse fill="none" stroke="black" cx="1081.9" cy="-339" rx="27" ry="18"/>
<text text-anchor="middle" x="1081.9" y="-333.95" font-family="Times,serif" font-size="14.00">ncit</text>
</g>
<!-- bto&#45;&#45;ncit -->
<g id="edge10" class="edge">
<title>bto&#45;&#45;ncit</title>
<path fill="none" stroke="black" stroke-width="1.01" d="M28.55,-201.62C31.21,-148.75 46.65,0 136.25,0 136.25,0 136.25,0 959.81,0 1028.55,0 1068.57,-250.36 1078.47,-320.77"/>
<text text-anchor="middle" x="576.6" y="-3.2" font-family="Times,serif" font-size="14.00">412</text>
</g>
<!-- cl&#45;&#45;cl -->
<g id="edge11" class="edge">
<title>cl&#45;&#45;cl</title>
<path fill="none" stroke="black" stroke-width="1.06" d="M196.7,-94.29C193.68,-104.39 197.86,-114 209.25,-114 220.64,-114 224.82,-104.39 221.8,-94.29"/>
<text text-anchor="middle" x="209.25" y="-117.2" font-family="Times,serif" font-size="14.00">2,739</text>
</g>
<!-- cl&#45;&#45;mesh -->
<g id="edge12" class="edge">
<title>cl&#45;&#45;mesh</title>
<path fill="none" stroke="black" d="M235.57,-82.59C283.83,-91.68 391.98,-113.69 479.75,-143.5 501.72,-150.96 640.28,-213.56 696.72,-239.16"/>
<text text-anchor="middle" x="452.75" y="-147.2" font-family="Times,serif" font-size="14.00">86</text>
</g>
<!-- ccle&#45;&#45;ccle -->
<g id="edge13" class="edge">
<title>ccle&#45;&#45;ccle</title>
<path fill="none" stroke="black" stroke-width="1.02" d="M127.48,-434.04C125.49,-443.86 128.74,-453 137.25,-453 145.76,-453 149.01,-443.86 147.02,-434.04"/>
<text text-anchor="middle" x="137.25" y="-456.2" font-family="Times,serif" font-size="14.00">1,061</text>
</g>
<!-- ccle&#45;&#45;cellosaurus -->
<g id="edge14" class="edge">
<title>ccle&#45;&#45;cellosaurus</title>
<path fill="none" stroke="black" stroke-width="1.01" d="M155.75,-403.77C163.63,-398.1 173.19,-391.62 182.25,-386.5 211.18,-370.15 245.82,-354.92 271.02,-344.56"/>
<text text-anchor="middle" x="209.25" y="-389.2" font-family="Times,serif" font-size="14.00">557</text>
</g>
<!-- ccle&#45;&#45;efo -->
<g id="edge15" class="edge">
<title>ccle&#45;&#45;efo</title>
<path fill="none" stroke="black" stroke-width="1.01" d="M159.61,-427.56C200.56,-447.14 293.45,-488.41 377,-503 393.11,-505.81 411.47,-505.37 425.96,-504.2"/>
<text text-anchor="middle" x="306.63" y="-502.2" font-family="Times,serif" font-size="14.00">646</text>
</g>
<!-- ccle&#45;&#45;depmap -->
<g id="edge16" class="edge">
<title>ccle&#45;&#45;depmap</title>
<path fill="none" stroke="black" stroke-width="1.03" d="M164.42,-414.17C205.75,-409.7 288.68,-400.72 359,-393 421.24,-386.17 493.54,-378.14 536.87,-373.32"/>
<text text-anchor="middle" x="392.38" y="-394.2" font-family="Times,serif" font-size="14.00">1,535</text>
</g>
<!-- ccle&#45;&#45;clo -->
<g id="edge17" class="edge">
<title>ccle&#45;&#45;clo</title>
<path fill="none" stroke="black" stroke-width="1.01" d="M151.02,-432.8C170.64,-455.89 210.52,-498.46 254.25,-520 357.96,-571.08 391.27,-582 506.88,-582 506.88,-582 506.88,-582 722.59,-582 779.58,-582 814.92,-509.1 828.44,-474.64"/>
<text text-anchor="middle" x="507.88" y="-585.2" font-family="Times,serif" font-size="14.00">331</text>
</g>
<!-- ccle&#45;&#45;umls -->
<g id="edge18" class="edge">
<title>ccle&#45;&#45;umls</title>
<path fill="none" stroke="black" d="M144.14,-399.22C157.81,-360.36 195.1,-266.76 254.25,-210 315.92,-150.83 342.62,-142.88 425.75,-123 624.79,-75.4 865.76,-197.93 937.02,-237.9"/>
<text text-anchor="middle" x="576.6" y="-124.2" font-family="Times,serif" font-size="14.00">178</text>
</g>
<!-- ccle&#45;&#45;ncit -->
<g id="edge19" class="edge">
<title>ccle&#45;&#45;ncit</title>
<path fill="none" stroke="black" d="M144.66,-434.65C151.86,-452.87 164.86,-481.45 182.25,-502 208.09,-532.53 218.15,-538.77 254.25,-556 366.26,-609.48 636.17,-658 779.59,-658 779.59,-658 779.59,-658 959.81,-658 1024.67,-658 1067.18,-424.55 1078.11,-357.06"/>
<text text-anchor="middle" x="653.96" y="-654.2" font-family="Times,serif" font-size="14.00">178</text>
</g>
<!-- cellosaurus&#45;&#45;cellosaurus -->
<g id="edge20" class="edge">
<title>cellosaurus&#45;&#45;cellosaurus</title>
<path fill="none" stroke="black" stroke-width="4" d="M291.32,-348.41C288.46,-358.09 293.56,-367 306.63,-367 319.69,-367 324.79,-358.09 321.93,-348.41"/>
<text text-anchor="middle" x="306.63" y="-370.2" font-family="Times,serif" font-size="14.00">148,681</text>
</g>
<!-- cellosaurus&#45;&#45;efo -->
<g id="edge21" class="edge">
<title>cellosaurus&#45;&#45;efo</title>
<path fill="none" stroke="black" stroke-width="1.1" d="M313.1,-348.96C322.31,-376.57 343.27,-429.73 377,-463 391.3,-477.11 411.91,-487.05 427.86,-493.22"/>
<text text-anchor="middle" x="392.38" y="-486.2" font-family="Times,serif" font-size="14.00">4,995</text>
</g>
<!-- cellosaurus&#45;&#45;depmap -->
<g id="edge22" class="edge">
<title>cellosaurus&#45;&#45;depmap</title>
<path fill="none" stroke="black" stroke-width="1.04" d="M355.53,-337.79C407.62,-345.18 489.81,-356.83 537.63,-363.62"/>
<text text-anchor="middle" x="452.75" y="-358.2" font-family="Times,serif" font-size="14.00">1,901</text>
</g>
<!-- cellosaurus&#45;&#45;mesh -->
<g id="edge23" class="edge">
<title>cellosaurus&#45;&#45;mesh</title>
<path fill="none" stroke="black" stroke-width="1.01" d="M354.85,-323.64C389.49,-318.1 437.64,-310.09 479.75,-302 557.04,-287.15 647.64,-266.78 692.49,-256.5"/>
<text text-anchor="middle" x="507.88" y="-301.2" font-family="Times,serif" font-size="14.00">556</text>
</g>
<!-- cellosaurus&#45;&#45;clo -->
<g id="edge24" class="edge">
<title>cellosaurus&#45;&#45;clo</title>
<path fill="none" stroke="black" stroke-width="1.69" d="M317.48,-348.97C329.02,-368.12 350.06,-397.6 377,-412 524.19,-490.65 736.12,-470.87 808.98,-460.96"/>
<text text-anchor="middle" x="576.6" y="-472.2" font-family="Times,serif" font-size="14.00">34,150</text>
</g>
<!-- cellosaurus&#45;&#45;umls -->
<g id="edge25" class="edge">
<title>cellosaurus&#45;&#45;umls</title>
<path fill="none" stroke="black" stroke-width="1.29" d="M347.6,-319.42C357.22,-316.65 367.48,-313.71 377,-311 541.86,-264.11 581.44,-211.8 752.47,-223 816.33,-227.18 890.66,-238.6 930.02,-245.17"/>
<text text-anchor="middle" x="653.96" y="-229.2" font-family="Times,serif" font-size="14.00">14,486</text>
</g>
<!-- cellosaurus&#45;&#45;ncit -->
<g id="edge26" class="edge">
<title>cellosaurus&#45;&#45;ncit</title>
<path fill="none" stroke="black" stroke-width="2.38" d="M326.55,-313.88C402.48,-247.37 691.52,-14.95 911.47,-122 999.35,-164.78 1054.95,-277.68 1073.76,-321.38"/>
<text text-anchor="middle" x="721.59" y="-110.2" font-family="Times,serif" font-size="14.00">68,564</text>
</g>
<!-- efo&#45;&#45;efo -->
<g id="edge27" class="edge">
<title>efo&#45;&#45;efo</title>
<path fill="none" stroke="black" d="M442.98,-518.04C440.99,-527.86 444.24,-537 452.75,-537 461.26,-537 464.51,-527.86 462.52,-518.04"/>
<text text-anchor="middle" x="452.75" y="-540.2" font-family="Times,serif" font-size="14.00">89</text>
</g>
<!-- efo&#45;&#45;depmap -->
<g id="edge28" class="edge">
<title>efo&#45;&#45;depmap</title>
<path fill="none" stroke="black" stroke-width="1.01" d="M467.97,-485.6C491.07,-460.57 536.57,-411.29 560.33,-385.54"/>
<text text-anchor="middle" x="507.88" y="-453.2" font-family="Times,serif" font-size="14.00">316</text>
</g>
<!-- efo&#45;&#45;clo -->
<g id="edge29" class="edge">
<title>efo&#45;&#45;clo</title>
<path fill="none" stroke="black" stroke-width="1.02" d="M479.92,-501.45C537.1,-501.87 677.14,-499.91 790.72,-474 798.06,-472.32 805.81,-469.66 812.72,-466.93"/>
<text text-anchor="middle" x="653.96" y="-499.2" font-family="Times,serif" font-size="14.00">1,023</text>
</g>
<!-- depmap&#45;&#45;depmap -->
<g id="edge30" class="edge">
<title>depmap&#45;&#45;depmap</title>
<path fill="none" stroke="black" stroke-width="1.03" d="M564.33,-386.41C562.04,-396.09 566.13,-405 576.6,-405 587.07,-405 591.16,-396.09 588.87,-386.41"/>
<text text-anchor="middle" x="576.6" y="-408.2" font-family="Times,serif" font-size="14.00">1,719</text>
</g>
<!-- depmap&#45;&#45;mesh -->
<g id="edge31" class="edge">
<title>depmap&#45;&#45;mesh</title>
<path fill="none" stroke="black" d="M592.59,-352.13C603.73,-340.09 619.62,-323.91 635.21,-311.5 650.6,-299.25 656.65,-299.35 672.71,-288 683.11,-280.65 694.28,-271.84 703.21,-264.56"/>
<text text-anchor="middle" x="653.96" y="-314.2" font-family="Times,serif" font-size="14.00">26</text>
</g>
<!-- depmap&#45;&#45;clo -->
<g id="edge32" class="edge">
<title>depmap&#45;&#45;clo</title>
<path fill="none" stroke="black" stroke-width="1.01" d="M609.65,-379.97C662.01,-397.89 764.73,-433.05 811.05,-448.9"/>
<text text-anchor="middle" x="721.59" y="-431.2" font-family="Times,serif" font-size="14.00">350</text>
</g>
<!-- depmap&#45;&#45;umls -->
<g id="edge33" class="edge">
<title>depmap&#45;&#45;umls</title>
<path fill="none" stroke="black" stroke-width="1.01" d="M611.7,-359.6C653.9,-347.84 727.88,-326.84 790.72,-307 841.42,-290.98 900.15,-270.5 932.73,-258.95"/>
<text text-anchor="middle" x="780.59" y="-316.2" font-family="Times,serif" font-size="14.00">361</text>
</g>
<!-- depmap&#45;&#45;ncit -->
<g id="edge34" class="edge">
<title>depmap&#45;&#45;ncit</title>
<path fill="none" stroke="black" stroke-width="1.01" d="M617.66,-369C646.33,-369 685.83,-369 720.59,-369 720.59,-369 720.59,-369 959.81,-369 994.9,-369 1034.07,-356.99 1058.1,-348.16"/>
<text text-anchor="middle" x="835.72" y="-372.2" font-family="Times,serif" font-size="14.00">361</text>
</g>
<!-- mesh&#45;&#45;mesh -->
<g id="edge35" class="edge">
<title>mesh&#45;&#45;mesh</title>
<path fill="none" stroke="black" stroke-width="1.01" d="M711.05,-267.41C709.09,-277.09 712.6,-286 721.59,-286 730.57,-286 734.09,-277.09 732.12,-267.41"/>
<text text-anchor="middle" x="721.59" y="-289.2" font-family="Times,serif" font-size="14.00">635</text>
</g>
<!-- mesh&#45;&#45;clo -->
<g id="edge36" class="edge">
<title>mesh&#45;&#45;clo</title>
<path fill="none" stroke="black" d="M748.44,-259.1C763.11,-265.59 780.52,-275.8 790.72,-290.5 816.34,-327.42 796.53,-346.74 808.72,-390 813.59,-407.29 821.2,-426.33 826.94,-439.68"/>
<text text-anchor="middle" x="780.59" y="-293.2" font-family="Times,serif" font-size="14.00">112</text>
</g>
<!-- mesh&#45;&#45;umls -->
<g id="edge37" class="edge">
<title>mesh&#45;&#45;umls</title>
<path fill="none" stroke="black" stroke-width="1.01" d="M752.86,-250C798.52,-250 884.42,-250 929.13,-250"/>
<text text-anchor="middle" x="835.72" y="-253.2" font-family="Times,serif" font-size="14.00">635</text>
</g>
<!-- clo&#45;&#45;clo -->
<g id="edge38" class="edge">
<title>clo&#45;&#45;clo</title>
<path fill="none" stroke="black" stroke-width="1.79" d="M825.95,-474.04C823.95,-483.86 827.21,-493 835.72,-493 844.22,-493 847.48,-483.86 845.48,-474.04"/>
<text text-anchor="middle" x="835.72" y="-496.2" font-family="Times,serif" font-size="14.00">39,080</text>
</g>
<!-- clo&#45;&#45;umls -->
<g id="edge39" class="edge">
<title>clo&#45;&#45;umls</title>
<path fill="none" stroke="black" stroke-width="1.06" d="M847.47,-440.52C862.33,-417.59 889.76,-374.63 911.47,-337 925.23,-313.13 940.01,-284.88 949.09,-267.19"/>
<text text-anchor="middle" x="896.09" y="-389.2" font-family="Times,serif" font-size="14.00">2,828</text>
</g>
<!-- clo&#45;&#45;ncit -->
<g id="edge40" class="edge">
<title>clo&#45;&#45;ncit</title>
<path fill="none" stroke="black" stroke-width="1.06" d="M861.69,-451.46C901.19,-441.91 979.49,-419.78 1036.9,-383 1048.91,-375.31 1060.23,-363.85 1068.38,-354.56"/>
<text text-anchor="middle" x="958.81" y="-434.2" font-family="Times,serif" font-size="14.00">2,837</text>
</g>
<!-- umls&#45;&#45;umls -->
<g id="edge41" class="edge">
<title>umls&#45;&#45;umls</title>
<path fill="none" stroke="black" stroke-width="1.12" d="M947.7,-267.04C945.43,-276.86 949.13,-286 958.81,-286 968.49,-286 972.19,-276.86 969.92,-267.04"/>
<text text-anchor="middle" x="958.81" y="-289.2" font-family="Times,serif" font-size="14.00">6,057</text>
</g>
<!-- umls&#45;&#45;ncit -->
<g id="edge42" class="edge">
<title>umls&#45;&#45;ncit</title>
<path fill="none" stroke="black" stroke-width="1.05" d="M978.46,-263.71C1001.42,-280.58 1040.13,-309.03 1062.82,-325.71"/>
<text text-anchor="middle" x="1021.53" y="-308.2" font-family="Times,serif" font-size="14.00">2,492</text>
</g>
<!-- ncit&#45;&#45;ncit -->
<g id="edge43" class="edge">
<title>ncit&#45;&#45;ncit</title>
<path fill="none" stroke="black" stroke-width="1.01" d="M1071.2,-356.04C1069.02,-365.86 1072.59,-375 1081.9,-375 1091.22,-375 1094.78,-365.86 1092.6,-356.04"/>
<text text-anchor="middle" x="1081.9" y="-378.2" font-family="Times,serif" font-size="14.00">502</text>
</g>
</g>
</svg>
