<?xml version="1.0" encoding="UTF-8" standalone="no"?>
<!DOCTYPE svg PUBLIC "-//W3C//DTD SVG 1.1//EN"
 "http://www.w3.org/Graphics/SVG/1.1/DTD/svg11.dtd">
<!-- Generated by graphviz version 10.0.1 (20240210.2158)
 -->
<!-- Pages: 1 -->
<svg width="1166pt" height="918pt"
 viewBox="0.00 0.00 1165.67 917.50" xmlns="http://www.w3.org/2000/svg" xmlns:xlink="http://www.w3.org/1999/xlink">
<g id="graph0" class="graph" transform="scale(1 1) rotate(0) translate(4 913.5)">
<polygon fill="white" stroke="none" points="-4,4 -4,-913.5 1161.67,-913.5 1161.67,4 -4,4"/>
<!-- doid -->
<g id="node1" class="node">
<title>doid</title>
<ellipse fill="none" stroke="black" cx="27.3" cy="-468" rx="27.3" ry="18"/>
<text text-anchor="middle" x="27.3" y="-462.95" font-family="Times,serif" font-size="14.00">doid</text>
</g>
<!-- mesh -->
<g id="node2" class="node">
<title>mesh</title>
<ellipse fill="none" stroke="black" cx="152.22" cy="-383" rx="30.88" ry="18"/>
<text text-anchor="middle" x="152.22" y="-377.95" font-family="Times,serif" font-size="14.00">mesh</text>
</g>
<!-- doid&#45;&#45;mesh -->
<g id="edge1" class="edge">
<title>doid&#45;&#45;mesh</title>
<path fill="none" stroke="black" stroke-width="1.6" d="M46.97,-455.09C69.8,-439.3 108.28,-412.69 131.56,-396.59"/>
<text text-anchor="middle" x="87.97" y="-438.2" font-family="Times,serif" font-size="14.00">2,264</text>
</g>
<!-- efo -->
<g id="node3" class="node">
<title>efo</title>
<ellipse fill="none" stroke="black" cx="276.85" cy="-497" rx="27" ry="18"/>
<text text-anchor="middle" x="276.85" y="-491.95" font-family="Times,serif" font-size="14.00">efo</text>
</g>
<!-- doid&#45;&#45;efo -->
<g id="edge2" class="edge">
<title>doid&#45;&#45;efo</title>
<path fill="none" stroke="black" stroke-width="1.62" d="M54.32,-471.05C101.87,-476.62 202.24,-488.38 249.8,-493.95"/>
<text text-anchor="middle" x="152.22" y="-488.2" font-family="Times,serif" font-size="14.00">2,357</text>
</g>
<!-- ncit -->
<g id="node4" class="node">
<title>ncit</title>
<ellipse fill="none" stroke="black" cx="397.6" cy="-500" rx="27" ry="18"/>
<text text-anchor="middle" x="397.6" y="-494.95" font-family="Times,serif" font-size="14.00">ncit</text>
</g>
<!-- doid&#45;&#45;ncit -->
<g id="edge3" class="edge">
<title>doid&#45;&#45;ncit</title>
<path fill="none" stroke="black" stroke-width="2.46" d="M49.52,-478.69C68.01,-487.51 95.79,-499.57 121.34,-506 200.39,-525.88 222.45,-528.16 303.85,-524 325.6,-522.89 331.52,-524.49 352.6,-519 360.33,-516.99 368.45,-513.81 375.58,-510.63"/>
<text text-anchor="middle" x="216.48" y="-528.2" font-family="Times,serif" font-size="14.00">5,509</text>
</g>
<!-- mondo -->
<g id="node5" class="node">
<title>mondo</title>
<ellipse fill="none" stroke="black" cx="528.37" cy="-346" rx="37.02" ry="18"/>
<text text-anchor="middle" x="528.37" y="-340.95" font-family="Times,serif" font-size="14.00">mondo</text>
</g>
<!-- doid&#45;&#45;mondo -->
<g id="edge4" class="edge">
<title>doid&#45;&#45;mondo</title>
<path fill="none" stroke="black" stroke-width="4" d="M37.13,-451.09C51.26,-425.87 81.46,-378.94 121.34,-356 246.06,-284.25 298.85,-322.14 442.6,-316 456.26,-315.42 460.12,-312.57 473.35,-316 484.98,-319.01 496.78,-325.13 506.36,-331.06"/>
<text text-anchor="middle" x="276.85" y="-315.2" font-family="Times,serif" font-size="14.00">11,355</text>
</g>
<!-- orphanet.ordo -->
<g id="node6" class="node">
<title>orphanet.ordo</title>
<ellipse fill="none" stroke="black" cx="694.75" cy="-290" rx="62.61" ry="18"/>
<text text-anchor="middle" x="694.75" y="-284.95" font-family="Times,serif" font-size="14.00">orphanet.ordo</text>
</g>
<!-- doid&#45;&#45;orphanet.ordo -->
<g id="edge5" class="edge">
<title>doid&#45;&#45;orphanet.ordo</title>
<path fill="none" stroke="black" stroke-width="1.68" d="M32.33,-449.9C45.52,-395.5 92.85,-233.04 201.1,-164 360.57,-62.29 598.18,-219.08 671.44,-272.92"/>
<text text-anchor="middle" x="337.23" y="-135.2" font-family="Times,serif" font-size="14.00">2,576</text>
</g>
<!-- icd10cm -->
<g id="node7" class="node">
<title>icd10cm</title>
<ellipse fill="none" stroke="black" cx="856.78" cy="-444" rx="43.16" ry="18"/>
<text text-anchor="middle" x="856.78" y="-438.95" font-family="Times,serif" font-size="14.00">icd10cm</text>
</g>
<!-- doid&#45;&#45;icd10cm -->
<g id="edge6" class="edge">
<title>doid&#45;&#45;icd10cm</title>
<path fill="none" stroke="black" stroke-width="1.04" d="M42.32,-483.24C50.52,-491.45 61.42,-501.24 72.59,-508 92.35,-519.96 99.28,-519.18 121.34,-526 310.66,-584.5 367.37,-573.21 565.39,-566 668.25,-562.25 713.54,-603.11 795.61,-541 822.64,-520.55 840.4,-484.14 849.22,-462.22"/>
<text text-anchor="middle" x="397.6" y="-574.2" font-family="Times,serif" font-size="14.00">159</text>
</g>
<!-- icd9cm -->
<g id="node8" class="node">
<title>icd9cm</title>
<ellipse fill="none" stroke="black" cx="988" cy="-199" rx="38.56" ry="18"/>
<text text-anchor="middle" x="988" y="-193.95" font-family="Times,serif" font-size="14.00">icd9cm</text>
</g>
<!-- doid&#45;&#45;icd9cm -->
<g id="edge7" class="edge">
<title>doid&#45;&#45;icd9cm</title>
<path fill="none" stroke="black" d="M29.82,-449.59C36.87,-370.56 69.48,-64 151.22,-64 151.22,-64 151.22,-64 338.23,-64 453.72,-64 482.27,-77 597.77,-77 597.77,-77 597.77,-77 857.78,-77 917.79,-77 961.2,-147.42 978.6,-181.26"/>
<text text-anchor="middle" x="457.98" y="-74.2" font-family="Times,serif" font-size="14.00">5</text>
</g>
<!-- icdo -->
<g id="node9" class="node">
<title>icdo</title>
<ellipse fill="none" stroke="black" cx="152.22" cy="-18" rx="27" ry="18"/>
<text text-anchor="middle" x="152.22" y="-12.95" font-family="Times,serif" font-size="14.00">icdo</text>
</g>
<!-- doid&#45;&#45;icdo -->
<g id="edge8" class="edge">
<title>doid&#45;&#45;icdo</title>
<path fill="none" stroke="black" d="M28.9,-449.76C31.64,-371.26 44.12,-64.75 72.59,-33.5 85.62,-19.2 107.68,-15.86 125.12,-15.79"/>
<text text-anchor="middle" x="87.97" y="-37.2" font-family="Times,serif" font-size="14.00">1</text>
</g>
<!-- omim.ps -->
<g id="node10" class="node">
<title>omim.ps</title>
<ellipse fill="none" stroke="black" cx="1113.49" cy="-367" rx="44.19" ry="18"/>
<text text-anchor="middle" x="1113.49" y="-361.95" font-family="Times,serif" font-size="14.00">omim.ps</text>
</g>
<!-- doid&#45;&#45;omim.ps -->
<g id="edge9" class="edge">
<title>doid&#45;&#45;omim.ps</title>
<path fill="none" stroke="black" stroke-width="1.03" d="M29.55,-486.26C35.6,-567.61 65.2,-893 151.22,-893 151.22,-893 151.22,-893 989,-893 1095.58,-893 1110.25,-478.51 1112.2,-385.41"/>
<text text-anchor="middle" x="528.37" y="-896.2" font-family="Times,serif" font-size="14.00">114</text>
</g>
<!-- icd10 -->
<g id="node11" class="node">
<title>icd10</title>
<ellipse fill="none" stroke="black" cx="988" cy="-643" rx="31.39" ry="18"/>
<text text-anchor="middle" x="988" y="-637.95" font-family="Times,serif" font-size="14.00">icd10</text>
</g>
<!-- doid&#45;&#45;icd10 -->
<g id="edge10" class="edge">
<title>doid&#45;&#45;icd10</title>
<path fill="none" stroke="black" d="M30.27,-486.15C38.86,-560.63 75.99,-839 151.22,-839 151.22,-839 151.22,-839 458.98,-839 664.47,-839 708.72,-775.24 899.94,-700 914.37,-694.32 918.19,-693.05 931.44,-685 944.87,-676.84 958.99,-666.14 969.63,-657.58"/>
<text text-anchor="middle" x="457.98" y="-842.2" font-family="Times,serif" font-size="14.00">11</text>
</g>
<!-- mesh&#45;&#45;efo -->
<g id="edge11" class="edge">
<title>mesh&#45;&#45;efo</title>
<path fill="none" stroke="black" stroke-width="1.56" d="M165.27,-399.65C174.42,-411.76 187.69,-428.2 201.1,-441 210.72,-450.18 238.69,-470.58 257.56,-484.06"/>
<text text-anchor="middle" x="216.48" y="-466.2" font-family="Times,serif" font-size="14.00">2,109</text>
</g>
<!-- mesh&#45;&#45;ncit -->
<g id="edge12" class="edge">
<title>mesh&#45;&#45;ncit</title>
<path fill="none" stroke="black" stroke-width="1.76" d="M177.32,-394.03C207.14,-407.75 259.42,-431.97 303.85,-453.5 328.65,-465.52 356.94,-479.78 375.68,-489.31"/>
<text text-anchor="middle" x="276.85" y="-456.2" font-family="Times,serif" font-size="14.00">2,860</text>
</g>
<!-- mesh&#45;&#45;mondo -->
<g id="edge13" class="edge">
<title>mesh&#45;&#45;mondo</title>
<path fill="none" stroke="black" stroke-width="3.17" d="M179.89,-374.44C186.75,-372.45 194.16,-370.48 201.1,-369 304.68,-346.91 430.5,-344.8 491.19,-345.28"/>
<text text-anchor="middle" x="337.23" y="-354.2" font-family="Times,serif" font-size="14.00">8,217</text>
</g>
<!-- mesh&#45;&#45;orphanet.ordo -->
<g id="edge14" class="edge">
<title>mesh&#45;&#45;orphanet.ordo</title>
<path fill="none" stroke="black" stroke-width="1.19" d="M174.3,-369.86C220.64,-341.85 335.8,-277.02 442.6,-255 516.55,-239.75 604.13,-260.64 653.9,-276.09"/>
<text text-anchor="middle" x="397.6" y="-277.2" font-family="Times,serif" font-size="14.00">723</text>
</g>
<!-- mesh&#45;&#45;icd10cm -->
<g id="edge15" class="edge">
<title>mesh&#45;&#45;icd10cm</title>
<path fill="none" stroke="black" stroke-width="1.14" d="M183.07,-385.31C240.02,-390.08 367.89,-402.55 473.35,-425.5 481.52,-427.28 483.1,-429.62 491.35,-431 606.7,-450.34 745.36,-448.54 813.61,-446.03"/>
<text text-anchor="middle" x="457.98" y="-428.2" font-family="Times,serif" font-size="14.00">519</text>
</g>
<!-- mesh&#45;&#45;icd9cm -->
<g id="edge16" class="edge">
<title>mesh&#45;&#45;icd9cm</title>
<path fill="none" stroke="black" d="M166.33,-366.85C175.38,-356.37 188.07,-342.87 201.1,-333 220.67,-318.17 227.72,-317.64 249.85,-307 411.71,-229.15 454.56,-202.87 632.14,-176 749.83,-158.19 781.84,-160.24 899.94,-175 919.07,-177.39 939.92,-183.03 956.41,-188.23"/>
<text text-anchor="middle" x="528.37" y="-207.2" font-family="Times,serif" font-size="14.00">1</text>
</g>
<!-- mesh&#45;&#45;omim.ps -->
<g id="edge17" class="edge">
<title>mesh&#45;&#45;omim.ps</title>
<path fill="none" stroke="black" stroke-width="1.02" d="M161.24,-365.55C182.3,-321.2 243,-202.4 321.85,-127 414.88,-38.05 469.05,-39 597.77,-39 597.77,-39 597.77,-39 989,-39 1055.78,-39 1098.83,-280.14 1109.75,-348.9"/>
<text text-anchor="middle" x="598.77" y="-43.2" font-family="Times,serif" font-size="14.00">74</text>
</g>
<!-- mesh&#45;&#45;icd10 -->
<g id="edge18" class="edge">
<title>mesh&#45;&#45;icd10</title>
<path fill="none" stroke="black" d="M159.43,-400.83C167.25,-421.87 181.99,-457.35 201.1,-484 244.64,-544.74 256.84,-564.16 321.85,-601 559.07,-735.43 665.82,-731.57 931.44,-670 943.35,-667.24 955.67,-661.58 965.67,-656.16"/>
<text text-anchor="middle" x="528.37" y="-704.2" font-family="Times,serif" font-size="14.00">7</text>
</g>
<!-- efo&#45;&#45;ncit -->
<g id="edge19" class="edge">
<title>efo&#45;&#45;ncit</title>
<path fill="none" stroke="black" stroke-width="1.91" d="M304.21,-497.67C323.88,-498.16 350.66,-498.84 370.32,-499.34"/>
<text text-anchor="middle" x="337.23" y="-501.2" font-family="Times,serif" font-size="14.00">3,456</text>
</g>
<!-- efo&#45;&#45;mondo -->
<g id="edge20" class="edge">
<title>efo&#45;&#45;mondo</title>
<path fill="none" stroke="black" stroke-width="1.86" d="M299.86,-487.3C344.51,-467.42 443.96,-421.97 473.35,-399 483.04,-391.43 482.74,-386.77 491.35,-378 496.86,-372.39 503.18,-366.59 508.97,-361.49"/>
<text text-anchor="middle" x="397.6" y="-456.2" font-family="Times,serif" font-size="14.00">3,273</text>
</g>
<!-- efo&#45;&#45;orphanet.ordo -->
<g id="edge21" class="edge">
<title>efo&#45;&#45;orphanet.ordo</title>
<path fill="none" stroke="black" stroke-width="1.11" d="M294.18,-482.76C297.41,-479.88 300.76,-476.87 303.85,-474 366.86,-415.64 370.95,-386.85 442.6,-339.5 497.7,-303.09 518.11,-301.98 583.39,-292 599.12,-289.6 616.24,-288.54 632.21,-288.21"/>
<text text-anchor="middle" x="457.98" y="-342.2" font-family="Times,serif" font-size="14.00">435</text>
</g>
<!-- efo&#45;&#45;icd10cm -->
<g id="edge22" class="edge">
<title>efo&#45;&#45;icd10cm</title>
<path fill="none" stroke="black" stroke-width="1.12" d="M297.9,-508.62C305.23,-512.44 313.73,-516.37 321.85,-519 342.74,-525.76 348.78,-524.55 370.6,-527 541.44,-546.19 586.93,-554.45 757.36,-532 774.58,-529.73 780.96,-533.31 795.61,-524 819.52,-508.81 837.38,-480.53 847.19,-461.99"/>
<text text-anchor="middle" x="528.37" y="-548.2" font-family="Times,serif" font-size="14.00">457</text>
</g>
<!-- efo&#45;&#45;omim.ps -->
<g id="edge23" class="edge">
<title>efo&#45;&#45;omim.ps</title>
<path fill="none" stroke="black" stroke-width="1.01" d="M288.28,-513.5C323.08,-568.08 436.16,-741.33 491.35,-777 603.94,-849.76 650.44,-848 784.49,-848 784.49,-848 784.49,-848 989,-848 1086.42,-848 1108.07,-473.13 1111.81,-385.27"/>
<text text-anchor="middle" x="694.75" y="-850.2" font-family="Times,serif" font-size="14.00">51</text>
</g>
<!-- efo&#45;&#45;icd10 -->
<g id="edge24" class="edge">
<title>efo&#45;&#45;icd10</title>
<path fill="none" stroke="black" d="M292.32,-512.06C300.46,-519.93 311.12,-529.29 321.85,-536 428.51,-602.63 461.76,-612.03 583.39,-644 665.77,-665.65 688.07,-653.59 917.94,-656 923.94,-656.06 925.48,-656.69 931.44,-656 940.59,-654.94 950.43,-652.94 959.24,-650.81"/>
<text text-anchor="middle" x="598.77" y="-653.2" font-family="Times,serif" font-size="14.00">11</text>
</g>
<!-- ncit&#45;&#45;mondo -->
<g id="edge25" class="edge">
<title>ncit&#45;&#45;mondo</title>
<path fill="none" stroke="black" stroke-width="3.01" d="M416.83,-487.29C438.33,-472.24 471.4,-448.84 473.35,-446 491.05,-420.23 474.97,-404.63 491.35,-378 495.3,-371.59 500.92,-365.73 506.55,-360.83"/>
<text text-anchor="middle" x="457.98" y="-471.2" font-family="Times,serif" font-size="14.00">7,599</text>
</g>
<!-- ncit&#45;&#45;orphanet.ordo -->
<g id="edge26" class="edge">
<title>ncit&#45;&#45;orphanet.ordo</title>
<path fill="none" stroke="black" stroke-width="1.2" d="M424.95,-498.54C439.78,-496.89 458.3,-493.38 473.35,-486 497.14,-474.33 626.56,-353.38 675.24,-307.51"/>
<text text-anchor="middle" x="528.37" y="-475.2" font-family="Times,serif" font-size="14.00">776</text>
</g>
<!-- ncit&#45;&#45;icd10cm -->
<g id="edge27" class="edge">
<title>ncit&#45;&#45;icd10cm</title>
<path fill="none" stroke="black" stroke-width="1.16" d="M424.62,-503.19C501.86,-512.25 728.67,-535.64 795.61,-507 817.03,-497.84 834.45,-476.9 844.93,-461.67"/>
<text text-anchor="middle" x="598.77" y="-522.2" font-family="Times,serif" font-size="14.00">623</text>
</g>
<!-- ncit&#45;&#45;icd9cm -->
<g id="edge28" class="edge">
<title>ncit&#45;&#45;icd9cm</title>
<path fill="none" stroke="black" d="M414.47,-485.52C418,-481.93 421.59,-477.97 424.6,-474 434.46,-461 434.06,-455.9 442.6,-442 455.47,-421.05 463.56,-418.56 473.35,-396 487.34,-363.76 472.65,-348.76 491.35,-319 534.11,-250.94 556.76,-233.39 632.14,-205.5 742.81,-164.55 886.47,-181.23 951.84,-192.23"/>
<text text-anchor="middle" x="694.75" y="-208.2" font-family="Times,serif" font-size="14.00">1</text>
</g>
<!-- ncit&#45;&#45;omim.ps -->
<g id="edge29" class="edge">
<title>ncit&#45;&#45;omim.ps</title>
<path fill="none" stroke="black" stroke-width="1.02" d="M408.48,-516.68C416.64,-529.64 429.05,-547.59 442.6,-561 450.86,-569.17 772.87,-802 784.49,-802 784.49,-802 784.49,-802 989,-802 1077.02,-802 1105.59,-468.21 1111.32,-385.41"/>
<text text-anchor="middle" x="785.49" y="-805.2" font-family="Times,serif" font-size="14.00">78</text>
</g>
<!-- ncit&#45;&#45;icd10 -->
<g id="edge30" class="edge">
<title>ncit&#45;&#45;icd10</title>
<path fill="none" stroke="black" d="M413.98,-514.43C431.35,-529.85 461.14,-553.71 491.35,-566 657.32,-633.5 876.67,-642.24 956.39,-643.07"/>
<text text-anchor="middle" x="694.75" y="-632.2" font-family="Times,serif" font-size="14.00">11</text>
</g>
<!-- mondo&#45;&#45;orphanet.ordo -->
<g id="edge31" class="edge">
<title>mondo&#45;&#45;orphanet.ordo</title>
<path fill="none" stroke="black" stroke-width="3.52" d="M545.98,-330.04C556.02,-321.35 569.52,-311.22 583.39,-305.5 598.77,-299.15 616.27,-295.32 632.74,-293.03"/>
<text text-anchor="middle" x="598.77" y="-308.2" font-family="Times,serif" font-size="14.00">9,552</text>
</g>
<!-- mondo&#45;&#45;icd10cm -->
<g id="edge32" class="edge">
<title>mondo&#45;&#45;icd10cm</title>
<path fill="none" stroke="black" stroke-width="1.3" d="M560.67,-355.4C621.86,-373.77 756.95,-414.33 820.91,-433.53"/>
<text text-anchor="middle" x="694.75" y="-417.2" font-family="Times,serif" font-size="14.00">1,144</text>
</g>
<!-- mondo&#45;&#45;icd9cm -->
<g id="edge33" class="edge">
<title>mondo&#45;&#45;icd9cm</title>
<path fill="none" stroke="black" d="M547.85,-330.59C553.64,-325.49 559.95,-319.67 565.39,-314 574.14,-304.89 573.82,-300.24 583.39,-292 602.5,-275.55 608.73,-272.34 632.14,-263 742.04,-219.18 883.08,-205.18 949.38,-200.85"/>
<text text-anchor="middle" x="785.49" y="-225.2" font-family="Times,serif" font-size="14.00">2</text>
</g>
<!-- mondo&#45;&#45;omim.ps -->
<g id="edge34" class="edge">
<title>mondo&#45;&#45;omim.ps</title>
<path fill="none" stroke="black" stroke-width="1.15" d="M565.2,-342.78C631.4,-337.34 777.33,-327.75 899.94,-336.5 960.55,-340.83 1030.15,-352.01 1072.71,-359.56"/>
<text text-anchor="middle" x="856.78" y="-339.2" font-family="Times,serif" font-size="14.00">577</text>
</g>
<!-- mondo&#45;&#45;icd10 -->
<g id="edge35" class="edge">
<title>mondo&#45;&#45;icd10</title>
<path fill="none" stroke="black" d="M546.03,-362.13C565.73,-380.79 599.92,-411.9 632.14,-435 750.54,-519.87 905.58,-601.56 963.68,-631.25"/>
<text text-anchor="middle" x="785.49" y="-540.2" font-family="Times,serif" font-size="14.00">15</text>
</g>
<!-- orphanet.ordo&#45;&#45;icd10cm -->
<g id="edge36" class="edge">
<title>orphanet.ordo&#45;&#45;icd10cm</title>
<path fill="none" stroke="black" stroke-width="1.06" d="M711.44,-307.57C733.39,-331.8 774.92,-376.4 813.61,-411 820.27,-416.95 827.86,-423.08 834.75,-428.41"/>
<text text-anchor="middle" x="785.49" y="-395.2" font-family="Times,serif" font-size="14.00">217</text>
</g>
<!-- orphanet.ordo&#45;&#45;icd9cm -->
<g id="edge37" class="edge">
<title>orphanet.ordo&#45;&#45;icd9cm</title>
<path fill="none" stroke="black" d="M738.41,-276.67C797.51,-258.21 902.91,-225.27 955.43,-208.86"/>
<text text-anchor="middle" x="856.78" y="-255.2" font-family="Times,serif" font-size="14.00">1</text>
</g>
<!-- orphanet.ordo&#45;&#45;omim.ps -->
<g id="edge38" class="edge">
<title>orphanet.ordo&#45;&#45;omim.ps</title>
<path fill="none" stroke="black" stroke-width="1.02" d="M754.91,-284.64C827.61,-280.37 953.33,-280.65 1051.3,-321 1067.77,-327.78 1083.76,-340.07 1095.26,-350.24"/>
<text text-anchor="middle" x="924.69" y="-292.2" font-family="Times,serif" font-size="14.00">95</text>
</g>
<!-- orphanet.ordo&#45;&#45;icd10 -->
<g id="edge39" class="edge">
<title>orphanet.ordo&#45;&#45;icd10</title>
<path fill="none" stroke="black" d="M723.63,-306.37C747.38,-320.19 782.49,-340.33 813.61,-357 851.48,-377.29 867.53,-372.3 899.94,-400.5 968.95,-460.54 983.26,-579.4 986.22,-624.8"/>
<text text-anchor="middle" x="856.78" y="-403.2" font-family="Times,serif" font-size="14.00">1</text>
</g>
<!-- icd10cm&#45;&#45;icd9cm -->
<g id="edge40" class="edge">
<title>icd10cm&#45;&#45;icd9cm</title>
<path fill="none" stroke="black" d="M881.6,-428.78C888.18,-423.73 894.89,-417.67 899.94,-411 903.09,-406.85 959.39,-267.51 979.73,-217.03"/>
<text text-anchor="middle" x="924.69" y="-371.2" font-family="Times,serif" font-size="14.00">1</text>
</g>
<!-- icd10cm&#45;&#45;omim.ps -->
<g id="edge41" class="edge">
<title>icd10cm&#45;&#45;omim.ps</title>
<path fill="none" stroke="black" stroke-width="1.01" d="M892.39,-433.54C940.82,-418.9 1028.31,-392.45 1077.13,-377.69"/>
<text text-anchor="middle" x="988" y="-418.2" font-family="Times,serif" font-size="14.00">24</text>
</g>
<!-- icd10cm&#45;&#45;icd10 -->
<g id="edge42" class="edge">
<title>icd10cm&#45;&#45;icd10</title>
<path fill="none" stroke="black" d="M899.98,-445.15C911.35,-447.37 922.87,-451.64 931.44,-459.5 979.53,-503.59 986.55,-587.73 987.2,-624.75"/>
<text text-anchor="middle" x="924.69" y="-462.2" font-family="Times,serif" font-size="14.00">9</text>
</g>
<!-- icd9cm&#45;&#45;omim.ps -->
<g id="edge43" class="edge">
<title>icd9cm&#45;&#45;omim.ps</title>
<path fill="none" stroke="black" d="M1007.82,-214.73C1020.96,-226.28 1038.38,-242.81 1051.3,-259.5 1073.78,-288.54 1093.53,-326.75 1104.17,-348.92"/>
<text text-anchor="middle" x="1047.93" y="-262.2" font-family="Times,serif" font-size="14.00">1</text>
</g>
</g>
</svg>
