<?xml version="1.0" encoding="UTF-8" standalone="no"?>
<!DOCTYPE svg PUBLIC "-//W3C//DTD SVG 1.1//EN"
 "http://www.w3.org/Graphics/SVG/1.1/DTD/svg11.dtd">
<!-- Generated by graphviz version 10.0.1 (20240210.2158)
 -->
<!-- Pages: 1 -->
<svg width="1102pt" height="999pt"
 viewBox="0.00 0.00 1102.42 998.50" xmlns="http://www.w3.org/2000/svg" xmlns:xlink="http://www.w3.org/1999/xlink">
<g id="graph0" class="graph" transform="scale(1 1) rotate(0) translate(4 994.5)">
<polygon fill="white" stroke="none" points="-4,4 -4,-994.5 1098.42,-994.5 1098.42,4 -4,4"/>
<!-- doid -->
<g id="node1" class="node">
<title>doid</title>
<ellipse fill="none" stroke="black" cx="27.3" cy="-498" rx="27.3" ry="18"/>
<text text-anchor="middle" x="27.3" y="-492.95" font-family="Times,serif" font-size="14.00">doid</text>
</g>
<!-- doid&#45;&#45;doid -->
<g id="edge1" class="edge">
<title>doid&#45;&#45;doid</title>
<path fill="none" stroke="black" stroke-width="1.5" d="M16.55,-515.04C14.35,-524.86 17.94,-534 27.3,-534 36.66,-534 40.24,-524.86 38.05,-515.04"/>
<text text-anchor="middle" x="27.3" y="-537.2" font-family="Times,serif" font-size="14.00">11,511</text>
</g>
<!-- mesh -->
<g id="node2" class="node">
<title>mesh</title>
<ellipse fill="none" stroke="black" cx="159.9" cy="-656" rx="30.88" ry="18"/>
<text text-anchor="middle" x="159.9" y="-650.95" font-family="Times,serif" font-size="14.00">mesh</text>
</g>
<!-- doid&#45;&#45;mesh -->
<g id="edge2" class="edge">
<title>doid&#45;&#45;mesh</title>
<path fill="none" stroke="black" stroke-width="1.2" d="M41.3,-513.73C66.2,-543.86 120.4,-609.42 145.56,-639.87"/>
<text text-anchor="middle" x="87.97" y="-589.2" font-family="Times,serif" font-size="14.00">4,660</text>
</g>
<!-- efo -->
<g id="node3" class="node">
<title>efo</title>
<ellipse fill="none" stroke="black" cx="292.21" cy="-344" rx="27" ry="18"/>
<text text-anchor="middle" x="292.21" y="-338.95" font-family="Times,serif" font-size="14.00">efo</text>
</g>
<!-- doid&#45;&#45;efo -->
<g id="edge3" class="edge">
<title>doid&#45;&#45;efo</title>
<path fill="none" stroke="black" stroke-width="1.1" d="M42.95,-483.22C51.52,-474.62 62.6,-463.62 72.59,-454 93.94,-433.44 96.18,-424.17 121.34,-408.5 168.87,-378.9 232.15,-359.34 266.49,-350.13"/>
<text text-anchor="middle" x="159.9" y="-412.2" font-family="Times,serif" font-size="14.00">2,278</text>
</g>
<!-- ncit -->
<g id="node4" class="node">
<title>ncit</title>
<ellipse fill="none" stroke="black" cx="412.96" cy="-583" rx="27" ry="18"/>
<text text-anchor="middle" x="412.96" y="-577.95" font-family="Times,serif" font-size="14.00">ncit</text>
</g>
<!-- doid&#45;&#45;ncit -->
<g id="edge4" class="edge">
<title>doid&#45;&#45;ncit</title>
<path fill="none" stroke="black" stroke-width="1.22" d="M51.99,-506.37C58.59,-508.46 65.82,-510.52 72.59,-512 149,-528.63 170.69,-517.41 247.21,-533.5 298.5,-544.28 356.89,-563.54 388.54,-574.59"/>
<text text-anchor="middle" x="231.83" y="-536.2" font-family="Times,serif" font-size="14.00">5,094</text>
</g>
<!-- mondo -->
<g id="node5" class="node">
<title>mondo</title>
<ellipse fill="none" stroke="black" cx="543.73" cy="-392" rx="37.02" ry="18"/>
<text text-anchor="middle" x="543.73" y="-386.95" font-family="Times,serif" font-size="14.00">mondo</text>
</g>
<!-- doid&#45;&#45;mondo -->
<g id="edge5" class="edge">
<title>doid&#45;&#45;mondo</title>
<path fill="none" stroke="black" stroke-width="1.49" d="M54.13,-502.38C112.46,-511.12 257.82,-526.46 367.96,-484 368.15,-483.93 457.77,-409.09 457.96,-409 473.12,-401.74 491.24,-397.58 506.83,-395.2"/>
<text text-anchor="middle" x="292.21" y="-510.2" font-family="Times,serif" font-size="14.00">11,365</text>
</g>
<!-- icdo -->
<g id="node6" class="node">
<title>icdo</title>
<ellipse fill="none" stroke="black" cx="697.41" cy="-221" rx="27" ry="18"/>
<text text-anchor="middle" x="697.41" y="-215.95" font-family="Times,serif" font-size="14.00">icdo</text>
</g>
<!-- doid&#45;&#45;icdo -->
<g id="edge6" class="edge">
<title>doid&#45;&#45;icdo</title>
<path fill="none" stroke="black" stroke-width="1.02" d="M36.6,-481.04C69.56,-416.25 198.49,-185.57 385.96,-137 469.79,-115.28 498.02,-106.39 580.75,-132 624.07,-145.41 663.36,-183.58 683.07,-205.33"/>
<text text-anchor="middle" x="352.58" y="-158.2" font-family="Times,serif" font-size="14.00">470</text>
</g>
<!-- icd10cm -->
<g id="node7" class="node">
<title>icd10cm</title>
<ellipse fill="none" stroke="black" cx="697.41" cy="-611" rx="43.16" ry="18"/>
<text text-anchor="middle" x="697.41" y="-605.95" font-family="Times,serif" font-size="14.00">icd10cm</text>
</g>
<!-- doid&#45;&#45;icd10cm -->
<g id="edge7" class="edge">
<title>doid&#45;&#45;icd10cm</title>
<path fill="none" stroke="black" stroke-width="1.16" d="M29.52,-516.14C33.56,-560.06 50.68,-671.86 121.34,-718 292.85,-830 384.89,-740.99 580.75,-681 617.55,-669.73 654.67,-644.17 676.59,-627.26"/>
<text text-anchor="middle" x="352.58" y="-767.2" font-family="Times,serif" font-size="14.00">3,599</text>
</g>
<!-- icd9cm -->
<g id="node8" class="node">
<title>icd9cm</title>
<ellipse fill="none" stroke="black" cx="159.9" cy="-452" rx="38.56" ry="18"/>
<text text-anchor="middle" x="159.9" y="-446.95" font-family="Times,serif" font-size="14.00">icd9cm</text>
</g>
<!-- doid&#45;&#45;icd9cm -->
<g id="edge8" class="edge">
<title>doid&#45;&#45;icd9cm</title>
<path fill="none" stroke="black" stroke-width="1.1" d="M44.98,-484C52.89,-478.04 62.75,-471.55 72.59,-467.5 88.08,-461.13 106.19,-457.37 121.81,-455.16"/>
<text text-anchor="middle" x="87.97" y="-470.2" font-family="Times,serif" font-size="14.00">2,237</text>
</g>
<!-- orphanet.ordo -->
<g id="node9" class="node">
<title>orphanet.ordo</title>
<ellipse fill="none" stroke="black" cx="869.93" cy="-453" rx="62.61" ry="18"/>
<text text-anchor="middle" x="869.93" y="-447.95" font-family="Times,serif" font-size="14.00">orphanet.ordo</text>
</g>
<!-- doid&#45;&#45;orphanet.ordo -->
<g id="edge9" class="edge">
<title>doid&#45;&#45;orphanet.ordo</title>
<path fill="none" stroke="black" stroke-width="1.11" d="M28.9,-479.75C31.38,-411.02 42.17,-168.2 72.59,-98 95.67,-44.75 100.86,0 158.9,0 158.9,0 158.9,0 353.58,0 467.93,0 696.25,-48.75 740.57,-89 846.72,-185.41 865.1,-374.99 868.27,-434.61"/>
<text text-anchor="middle" x="412.96" y="-10.2" font-family="Times,serif" font-size="14.00">2,508</text>
</g>
<!-- gard -->
<g id="node10" class="node">
<title>gard</title>
<ellipse fill="none" stroke="black" cx="697.41" cy="-133" rx="27.3" ry="18"/>
<text text-anchor="middle" x="697.41" y="-127.95" font-family="Times,serif" font-size="14.00">gard</text>
</g>
<!-- doid&#45;&#45;gard -->
<g id="edge10" class="edge">
<title>doid&#45;&#45;gard</title>
<path fill="none" stroke="black" stroke-width="1.09" d="M29.53,-479.68C35.71,-394.93 66.82,-45 158.9,-45 158.9,-45 158.9,-45 474.33,-45 484.91,-45 619.65,-100.88 673.95,-123.58"/>
<text text-anchor="middle" x="352.58" y="-48.2" font-family="Times,serif" font-size="14.00">2,109</text>
</g>
<!-- omim -->
<g id="node11" class="node">
<title>omim</title>
<ellipse fill="none" stroke="black" cx="1050.23" cy="-763" rx="33.44" ry="18"/>
<text text-anchor="middle" x="1050.23" y="-757.95" font-family="Times,serif" font-size="14.00">omim</text>
</g>
<!-- doid&#45;&#45;omim -->
<g id="edge11" class="edge">
<title>doid&#45;&#45;omim</title>
<path fill="none" stroke="black" stroke-width="1.26" d="M29.28,-516.37C34.48,-603.85 62.17,-974 158.9,-974 158.9,-974 158.9,-974 870.93,-974 971.65,-974 1027.11,-832.02 1043.78,-780.99"/>
<text text-anchor="middle" x="473.33" y="-977.2" font-family="Times,serif" font-size="14.00">5,917</text>
</g>
<!-- omim.ps -->
<g id="node12" class="node">
<title>omim.ps</title>
<ellipse fill="none" stroke="black" cx="1050.23" cy="-583" rx="44.19" ry="18"/>
<text text-anchor="middle" x="1050.23" y="-577.95" font-family="Times,serif" font-size="14.00">omim.ps</text>
</g>
<!-- doid&#45;&#45;omim.ps -->
<g id="edge12" class="edge">
<title>doid&#45;&#45;omim.ps</title>
<path fill="none" stroke="black" d="M30.42,-516.31C39.78,-592.82 80.47,-883 158.9,-883 158.9,-883 158.9,-883 474.33,-883 682.97,-883 746.64,-875.7 932.54,-781 1004.18,-744.51 1035.34,-642.79 1045.36,-601.14"/>
<text text-anchor="middle" x="473.33" y="-886.2" font-family="Times,serif" font-size="14.00">81</text>
</g>
<!-- mesh&#45;&#45;mesh -->
<g id="edge13" class="edge">
<title>mesh&#45;&#45;mesh</title>
<path fill="none" stroke="black" stroke-width="1.13" d="M147.25,-672.66C144.45,-682.62 148.66,-692 159.9,-692 171.14,-692 175.35,-682.62 172.54,-672.66"/>
<text text-anchor="middle" x="159.9" y="-695.2" font-family="Times,serif" font-size="14.00">3,120</text>
</g>
<!-- mesh&#45;&#45;efo -->
<g id="edge14" class="edge">
<title>mesh&#45;&#45;efo</title>
<path fill="none" stroke="black" stroke-width="1.05" d="M170.85,-638.96C181.06,-622.27 198.03,-596.61 216.46,-577.5 228.39,-565.12 238.03,-568.55 247.21,-554 249.8,-549.88 277.48,-412.52 287.56,-362.22"/>
<text text-anchor="middle" x="231.83" y="-580.2" font-family="Times,serif" font-size="14.00">1,197</text>
</g>
<!-- mesh&#45;&#45;ncit -->
<g id="edge15" class="edge">
<title>mesh&#45;&#45;ncit</title>
<path fill="none" stroke="black" stroke-width="1.07" d="M187.77,-648.19C236.97,-633.88 340.82,-603.68 387.88,-590"/>
<text text-anchor="middle" x="292.21" y="-628.2" font-family="Times,serif" font-size="14.00">1,585</text>
</g>
<!-- mesh&#45;&#45;mondo -->
<g id="edge16" class="edge">
<title>mesh&#45;&#45;mondo</title>
<path fill="none" stroke="black" stroke-width="1.36" d="M182.4,-643.52C240.61,-609.43 399.61,-514.29 439.96,-469 451.59,-455.94 445.49,-446.28 457.96,-434 473.05,-419.13 494.46,-408.58 511.98,-401.78"/>
<text text-anchor="middle" x="352.58" y="-550.2" font-family="Times,serif" font-size="14.00">8,279</text>
</g>
<!-- mesh&#45;&#45;icd10cm -->
<g id="edge17" class="edge">
<title>mesh&#45;&#45;icd10cm</title>
<path fill="none" stroke="black" stroke-width="1.02" d="M188.13,-663.33C214.34,-669.73 255.19,-678 291.21,-678 291.21,-678 291.21,-678 474.33,-678 547.22,-678 628.06,-644.51 669.16,-624.88"/>
<text text-anchor="middle" x="412.96" y="-681.2" font-family="Times,serif" font-size="14.00">470</text>
</g>
<!-- mesh&#45;&#45;orphanet.ordo -->
<g id="edge18" class="edge">
<title>mesh&#45;&#45;orphanet.ordo</title>
<path fill="none" stroke="black" stroke-width="1.03" d="M179.09,-670.31C209.65,-693.33 274.15,-737.65 337.21,-754 443.92,-781.66 476.93,-744.07 580.75,-707 614.3,-695.02 621.54,-689.13 654.25,-675 692.57,-658.45 708.23,-664.4 740.57,-638 799.63,-589.8 843.19,-507.69 860.6,-471.3"/>
<text text-anchor="middle" x="473.33" y="-758.2" font-family="Times,serif" font-size="14.00">612</text>
</g>
<!-- mesh&#45;&#45;omim -->
<g id="edge19" class="edge">
<title>mesh&#45;&#45;omim</title>
<path fill="none" stroke="black" stroke-width="1.06" d="M171.9,-672.65C179.47,-684.2 189.7,-699.95 198.46,-714 206.68,-727.19 205.71,-732.76 216.46,-744 351.84,-885.58 420.61,-929 616.5,-929 616.5,-929 616.5,-929 870.93,-929 957.21,-929 1019.2,-823.59 1040.83,-780.76"/>
<text text-anchor="middle" x="543.73" y="-931.2" font-family="Times,serif" font-size="14.00">1,288</text>
</g>
<!-- mesh&#45;&#45;omim.ps -->
<g id="edge20" class="edge">
<title>mesh&#45;&#45;omim.ps</title>
<path fill="none" stroke="black" d="M173.25,-672.42C183.83,-685.86 199.94,-704.88 216.46,-719 235.97,-735.68 241.81,-739.41 265.21,-750 458.17,-837.35 529.48,-801.47 740.57,-784 826.78,-776.86 859.53,-798.37 932.54,-752 991.08,-714.82 1028.03,-636.58 1042.4,-601.14"/>
<text text-anchor="middle" x="543.73" y="-809.2" font-family="Times,serif" font-size="14.00">47</text>
</g>
<!-- efo&#45;&#45;efo -->
<g id="edge21" class="edge">
<title>efo&#45;&#45;efo</title>
<path fill="none" stroke="black" stroke-width="1.09" d="M281.51,-361.04C279.32,-370.86 282.89,-380 292.21,-380 301.52,-380 305.09,-370.86 302.9,-361.04"/>
<text text-anchor="middle" x="292.21" y="-383.2" font-family="Times,serif" font-size="14.00">2,082</text>
</g>
<!-- efo&#45;&#45;ncit -->
<g id="edge22" class="edge">
<title>efo&#45;&#45;ncit</title>
<path fill="none" stroke="black" stroke-width="1.1" d="M300.06,-361.72C308.12,-382.01 322.3,-416.05 337.21,-444 349.21,-466.52 355.52,-470.21 367.96,-492.5 381.83,-517.37 395.87,-547.26 404.25,-565.69"/>
<text text-anchor="middle" x="352.58" y="-495.2" font-family="Times,serif" font-size="14.00">2,375</text>
</g>
<!-- efo&#45;&#45;mondo -->
<g id="edge23" class="edge">
<title>efo&#45;&#45;mondo</title>
<path fill="none" stroke="black" stroke-width="1.14" d="M318.5,-348.87C363.6,-357.54 457.91,-375.68 508.66,-385.45"/>
<text text-anchor="middle" x="412.96" y="-375.2" font-family="Times,serif" font-size="14.00">3,248</text>
</g>
<!-- efo&#45;&#45;icdo -->
<g id="edge24" class="edge">
<title>efo&#45;&#45;icdo</title>
<path fill="none" stroke="black" stroke-width="1.01" d="M299.39,-326.22C306.07,-309.86 318.34,-286.33 337.21,-274 392.35,-237.96 596.87,-225.44 670.11,-222.06"/>
<text text-anchor="middle" x="473.33" y="-244.2" font-family="Times,serif" font-size="14.00">323</text>
</g>
<!-- efo&#45;&#45;icd10cm -->
<g id="edge25" class="edge">
<title>efo&#45;&#45;icd10cm</title>
<path fill="none" stroke="black" stroke-width="1.02" d="M308.98,-358.35C352.37,-397.21 478.3,-506.02 598.75,-572 619.24,-583.23 643.66,-592.98 662.95,-599.92"/>
<text text-anchor="middle" x="473.33" y="-503.2" font-family="Times,serif" font-size="14.00">488</text>
</g>
<!-- efo&#45;&#45;orphanet.ordo -->
<g id="edge26" class="edge">
<title>efo&#45;&#45;orphanet.ordo</title>
<path fill="none" stroke="black" stroke-width="1.02" d="M296.62,-326.08C301.77,-303.54 313.54,-264.91 337.21,-241 395.09,-182.51 430.96,-198.67 506.71,-166.5 514.86,-163.04 645.55,-107.71 654.25,-106 691.89,-98.58 712.65,-79.69 740.57,-106 765.12,-129.13 738.83,-381.66 758.57,-409 771.73,-427.23 793.69,-437.91 814.58,-444.17"/>
<text text-anchor="middle" x="543.73" y="-170.2" font-family="Times,serif" font-size="14.00">387</text>
</g>
<!-- efo&#45;&#45;gard -->
<g id="edge27" class="edge">
<title>efo&#45;&#45;gard</title>
<path fill="none" stroke="black" stroke-width="1.03" d="M297.79,-326.09C303.72,-306.46 315.89,-275.31 337.21,-257 354.5,-242.14 364.28,-248.09 385.96,-241 417.95,-230.53 425.6,-226.79 457.96,-217.5 512.01,-201.99 531.4,-213.97 580.75,-187 590.4,-181.72 589.42,-175.84 598.75,-170 621.64,-155.66 650.97,-145.48 671.49,-139.47"/>
<text text-anchor="middle" x="473.33" y="-221.2" font-family="Times,serif" font-size="14.00">733</text>
</g>
<!-- efo&#45;&#45;omim -->
<g id="edge28" class="edge">
<title>efo&#45;&#45;omim</title>
<path fill="none" stroke="black" stroke-width="1.04" d="M302.95,-360.93C311.31,-374.9 324.05,-394.97 337.21,-411 360.23,-439.06 425.51,-504.72 457.96,-521 572.97,-578.72 619.49,-540.4 740.57,-584 830.7,-616.46 850.35,-632.8 932.54,-682 968.09,-703.28 1007.24,-731.51 1029.95,-748.41"/>
<text text-anchor="middle" x="617.5" y="-563.2" font-family="Times,serif" font-size="14.00">872</text>
</g>
<!-- efo&#45;&#45;omim.ps -->
<g id="edge30" class="edge">
<title>efo&#45;&#45;omim.ps</title>
<path fill="none" stroke="black" d="M318.26,-338.31C430.44,-313.48 885.58,-219.65 988.04,-308 1008.63,-325.75 1000.36,-402.42 1006.04,-429 1016.72,-478.96 1034.36,-536.66 1043.44,-565.16"/>
<text text-anchor="middle" x="617.5" y="-291.2" font-family="Times,serif" font-size="14.00">48</text>
</g>
<!-- icd9 -->
<g id="node13" class="node">
<title>icd9</title>
<ellipse fill="none" stroke="black" cx="697.41" cy="-342" rx="27" ry="18"/>
<text text-anchor="middle" x="697.41" y="-336.95" font-family="Times,serif" font-size="14.00">icd9</text>
</g>
<!-- efo&#45;&#45;icd9 -->
<g id="edge29" class="edge">
<title>efo&#45;&#45;icd9</title>
<path fill="none" stroke="black" stroke-width="1.08" d="M319.66,-343.87C392.81,-343.51 597.17,-342.49 670.12,-342.13"/>
<text text-anchor="middle" x="473.33" y="-347.2" font-family="Times,serif" font-size="14.00">1,766</text>
</g>
<!-- icd10 -->
<g id="node14" class="node">
<title>icd10</title>
<ellipse fill="none" stroke="black" cx="1050.23" cy="-164" rx="31.39" ry="18"/>
<text text-anchor="middle" x="1050.23" y="-158.95" font-family="Times,serif" font-size="14.00">icd10</text>
</g>
<!-- efo&#45;&#45;icd10 -->
<g id="edge31" class="edge">
<title>efo&#45;&#45;icd10</title>
<path fill="none" stroke="black" stroke-width="1.03" d="M295.13,-325.82C298.87,-298.39 309.37,-246.03 337.21,-212 375.35,-165.36 426.99,-133.54 598.75,-92.5 758.95,-54.22 956.21,-125.35 1024.55,-153.36"/>
<text text-anchor="middle" x="617.5" y="-96.2" font-family="Times,serif" font-size="14.00">805</text>
</g>
<!-- ncit&#45;&#45;ncit -->
<g id="edge32" class="edge">
<title>ncit&#45;&#45;ncit</title>
<path fill="none" stroke="black" stroke-width="1.87" d="M402.26,-600.04C400.07,-609.86 403.64,-619 412.96,-619 422.27,-619 425.84,-609.86 423.65,-600.04"/>
<text text-anchor="middle" x="412.96" y="-622.2" font-family="Times,serif" font-size="14.00">20,094</text>
</g>
<!-- ncit&#45;&#45;mondo -->
<g id="edge33" class="edge">
<title>ncit&#45;&#45;mondo</title>
<path fill="none" stroke="black" stroke-width="1.32" d="M426.89,-567.19C431.65,-560.67 436.67,-552.81 439.96,-545 455.86,-507.2 435.97,-489.12 457.96,-454.5 459.02,-452.83 497.36,-424.88 522.11,-406.92"/>
<text text-anchor="middle" x="473.33" y="-457.2" font-family="Times,serif" font-size="14.00">7,460</text>
</g>
<!-- ncit&#45;&#45;icd10cm -->
<g id="edge34" class="edge">
<title>ncit&#45;&#45;icd10cm</title>
<path fill="none" stroke="black" stroke-width="1.02" d="M440.02,-585.58C489.19,-590.46 595.97,-601.04 655.04,-606.9"/>
<text text-anchor="middle" x="543.73" y="-602.2" font-family="Times,serif" font-size="14.00">536</text>
</g>
<!-- ncit&#45;&#45;orphanet.ordo -->
<g id="edge35" class="edge">
<title>ncit&#45;&#45;orphanet.ordo</title>
<path fill="none" stroke="black" stroke-width="1.03" d="M436.41,-573.78C470.9,-559.85 539.16,-533.2 598.75,-515.5 673.74,-493.22 762.4,-474.04 817.15,-463.01"/>
<text text-anchor="middle" x="617.5" y="-518.2" font-family="Times,serif" font-size="14.00">585</text>
</g>
<!-- ncit&#45;&#45;omim -->
<g id="edge36" class="edge">
<title>ncit&#45;&#45;omim</title>
<path fill="none" stroke="black" stroke-width="1.01" d="M428.6,-597.79C436.8,-605.57 447.45,-614.94 457.96,-622 478,-635.46 484.7,-636.06 506.71,-646 701.16,-733.84 741.24,-787.54 950.54,-829 966.89,-832.24 972.77,-835.67 988.04,-829 1010.67,-819.12 1028.67,-796.3 1039.14,-780.27"/>
<text text-anchor="middle" x="697.41" y="-766.2" font-family="Times,serif" font-size="14.00">217</text>
</g>
<!-- ncit&#45;&#45;omim.ps -->
<g id="edge37" class="edge">
<title>ncit&#45;&#45;omim.ps</title>
<path fill="none" stroke="black" d="M435.79,-593.04C493.27,-618.27 653.66,-680.92 789.32,-661 874.15,-648.54 969.73,-614.38 1017.9,-595.66"/>
<text text-anchor="middle" x="697.41" y="-667.2" font-family="Times,serif" font-size="14.00">52</text>
</g>
<!-- mondo&#45;&#45;mondo -->
<g id="edge38" class="edge">
<title>mondo&#45;&#45;mondo</title>
<path fill="none" stroke="black" stroke-width="2.04" d="M531.16,-409.41C528.81,-419.09 533,-428 543.73,-428 554.45,-428 558.64,-419.09 556.29,-409.41"/>
<text text-anchor="middle" x="543.73" y="-431.2" font-family="Times,serif" font-size="14.00">24,099</text>
</g>
<!-- mondo&#45;&#45;icdo -->
<g id="edge39" class="edge">
<title>mondo&#45;&#45;icdo</title>
<path fill="none" stroke="black" stroke-width="1.03" d="M547.05,-373.87C551.7,-344.93 564.79,-288.21 598.75,-255.5 618.3,-236.66 648.77,-228.04 670.47,-224.14"/>
<text text-anchor="middle" x="617.5" y="-259.2" font-family="Times,serif" font-size="14.00">732</text>
</g>
<!-- mondo&#45;&#45;icd10cm -->
<g id="edge40" class="edge">
<title>mondo&#45;&#45;icd10cm</title>
<path fill="none" stroke="black" stroke-width="1.07" d="M557.82,-408.95C568.13,-421.65 583.29,-439.02 598.75,-452 613.81,-464.65 624.38,-459.82 636.25,-475.5 653.43,-498.21 643.12,-510.78 654.25,-537 662.8,-557.14 675.55,-578.73 684.79,-593.36"/>
<text text-anchor="middle" x="617.5" y="-478.2" font-family="Times,serif" font-size="14.00">1,662</text>
</g>
<!-- mondo&#45;&#45;orphanet.ordo -->
<g id="edge41" class="edge">
<title>mondo&#45;&#45;orphanet.ordo</title>
<path fill="none" stroke="black" stroke-width="1.41" d="M578.38,-398.86C620.47,-407.39 694.76,-422.24 758.57,-434 776.93,-437.38 797.04,-440.9 815,-443.98"/>
<text text-anchor="middle" x="697.41" y="-433.2" font-family="Times,serif" font-size="14.00">9,545</text>
</g>
<!-- mondo&#45;&#45;gard -->
<g id="edge42" class="edge">
<title>mondo&#45;&#45;gard</title>
<path fill="none" stroke="black" stroke-width="1.51" d="M546.7,-373.81C551.13,-339.77 564.28,-265.24 598.75,-213.5 618.97,-183.14 654.03,-158.31 676.18,-144.6"/>
<text text-anchor="middle" x="617.5" y="-217.2" font-family="Times,serif" font-size="14.00">11,839</text>
</g>
<!-- mondo&#45;&#45;omim -->
<g id="edge43" class="edge">
<title>mondo&#45;&#45;omim</title>
<path fill="none" stroke="black" stroke-width="1.43" d="M566.41,-406.59C612.69,-437.63 720.03,-509.07 758.57,-530 856.81,-583.35 908.29,-554.67 988.04,-633 1020.61,-664.99 1037.88,-717.67 1045.09,-745.12"/>
<text text-anchor="middle" x="773.95" y="-547.2" font-family="Times,serif" font-size="14.00">9,874</text>
</g>
<!-- mondo&#45;&#45;omim.ps -->
<g id="edge45" class="edge">
<title>mondo&#45;&#45;omim.ps</title>
<path fill="none" stroke="black" stroke-width="1.03" d="M581.1,-390.67C650.77,-389.1 807.25,-390.33 932.54,-426 959.12,-433.56 968.75,-434.23 988.04,-454 1019.55,-486.29 1037.19,-537.87 1044.75,-564.99"/>
<text text-anchor="middle" x="773.95" y="-403.2" font-family="Times,serif" font-size="14.00">583</text>
</g>
<!-- mondo&#45;&#45;icd9 -->
<g id="edge44" class="edge">
<title>mondo&#45;&#45;icd9</title>
<path fill="none" stroke="black" stroke-width="1.19" d="M565.96,-377.35C575.59,-371.32 587.36,-364.76 598.75,-360.5 622.19,-351.74 650.41,-346.97 670.47,-344.48"/>
<text text-anchor="middle" x="617.5" y="-364.2" font-family="Times,serif" font-size="14.00">4,343</text>
</g>
<!-- icd10cm&#45;&#45;orphanet.ordo -->
<g id="edge46" class="edge">
<title>icd10cm&#45;&#45;orphanet.ordo</title>
<path fill="none" stroke="black" stroke-width="1.01" d="M706.09,-592.89C715.79,-571.73 734.2,-536.65 758.57,-513.5 779.64,-493.49 808.61,-477.94 831.58,-467.62"/>
<text text-anchor="middle" x="773.95" y="-516.2" font-family="Times,serif" font-size="14.00">193</text>
</g>
<!-- icd10cm&#45;&#45;omim -->
<g id="edge47" class="edge">
<title>icd10cm&#45;&#45;omim</title>
<path fill="none" stroke="black" d="M715.37,-627.83C726.81,-638.46 742.67,-651.87 758.57,-661 846.67,-711.62 964.11,-743.29 1018.8,-756.25"/>
<text text-anchor="middle" x="869.93" y="-734.2" font-family="Times,serif" font-size="14.00">50</text>
</g>
<!-- orphanet.ordo&#45;&#45;omim -->
<g id="edge48" class="edge">
<title>orphanet.ordo&#45;&#45;omim</title>
<path fill="none" stroke="black" stroke-width="1.48" d="M903.94,-468.49C934.61,-483.54 977.15,-506.27 988.04,-521.5 1011.4,-554.14 996.59,-570.99 1006.04,-610 1018.01,-659.35 1035.09,-716.8 1043.74,-745.21"/>
<text text-anchor="middle" x="969.29" y="-524.2" font-family="Times,serif" font-size="14.00">11,172</text>
</g>
<!-- orphanet.ordo&#45;&#45;omim.ps -->
<g id="edge49" class="edge">
<title>orphanet.ordo&#45;&#45;omim.ps</title>
<path fill="none" stroke="black" d="M932.66,-454.29C951.81,-457.2 972.05,-463.1 988.04,-474.5 1019.21,-496.72 1036.53,-540.08 1044.25,-564.73"/>
<text text-anchor="middle" x="969.29" y="-477.2" font-family="Times,serif" font-size="14.00">71</text>
</g>
<!-- orphanet.ordo&#45;&#45;icd10 -->
<g id="edge50" class="edge">
<title>orphanet.ordo&#45;&#45;icd10</title>
<path fill="none" stroke="black" stroke-width="1.33" d="M882.09,-434.92C914.33,-382.65 1007.38,-231.83 1038.76,-180.97"/>
<text text-anchor="middle" x="969.29" y="-321.2" font-family="Times,serif" font-size="14.00">7,623</text>
</g>
<!-- icd11 -->
<g id="node15" class="node">
<title>icd11</title>
<ellipse fill="none" stroke="black" cx="1050.23" cy="-367" rx="31.39" ry="18"/>
<text text-anchor="middle" x="1050.23" y="-361.95" font-family="Times,serif" font-size="14.00">icd11</text>
</g>
<!-- orphanet.ordo&#45;&#45;icd11 -->
<g id="edge51" class="edge">
<title>orphanet.ordo&#45;&#45;icd11</title>
<path fill="none" stroke="black" stroke-width="1.24" d="M903.22,-437.43C938.44,-420.44 993.99,-393.64 1025.45,-378.47"/>
<text text-anchor="middle" x="969.29" y="-416.2" font-family="Times,serif" font-size="14.00">5,484</text>
</g>
<!-- icd10&#45;&#45;icd10 -->
<g id="edge52" class="edge">
<title>icd10&#45;&#45;icd10</title>
<path fill="none" stroke="black" stroke-width="1.1" d="M1036.13,-180.29C1032.72,-190.39 1037.43,-200 1050.23,-200 1063.03,-200 1067.74,-190.39 1064.34,-180.29"/>
<text text-anchor="middle" x="1050.23" y="-203.2" font-family="Times,serif" font-size="14.00">2,345</text>
</g>
<!-- icd11&#45;&#45;icd11 -->
<g id="edge53" class="edge">
<title>icd11&#45;&#45;icd11</title>
<path fill="none" stroke="black" stroke-width="4" d="M1036.13,-383.29C1032.72,-393.39 1037.43,-403 1050.23,-403 1063.03,-403 1067.74,-393.39 1064.34,-383.29"/>
<text text-anchor="middle" x="1050.23" y="-406.2" font-family="Times,serif" font-size="14.00">69,477</text>
</g>
</g>
</svg>
