<?xml version="1.0" encoding="UTF-8" standalone="no"?>
<!DOCTYPE svg PUBLIC "-//W3C//DTD SVG 1.1//EN"
 "http://www.w3.org/Graphics/SVG/1.1/DTD/svg11.dtd">
<!-- Generated by graphviz version 10.0.1 (20240210.2158)
 -->
<!-- Pages: 1 -->
<svg width="1056pt" height="727pt"
 viewBox="0.00 0.00 1056.31 726.50" xmlns="http://www.w3.org/2000/svg" xmlns:xlink="http://www.w3.org/1999/xlink">
<g id="graph0" class="graph" transform="scale(1 1) rotate(0) translate(4 722.5)">
<polygon fill="white" stroke="none" points="-4,4 -4,-722.5 1052.31,-722.5 1052.31,4 -4,4"/>
<!-- doid -->
<g id="node1" class="node">
<title>doid</title>
<ellipse fill="none" stroke="black" cx="27.3" cy="-222" rx="27.3" ry="18"/>
<text text-anchor="middle" x="27.3" y="-216.95" font-family="Times,serif" font-size="14.00">doid</text>
</g>
<!-- mesh -->
<g id="node2" class="node">
<title>mesh</title>
<ellipse fill="none" stroke="black" cx="152.22" cy="-315" rx="30.88" ry="18"/>
<text text-anchor="middle" x="152.22" y="-309.95" font-family="Times,serif" font-size="14.00">mesh</text>
</g>
<!-- doid&#45;&#45;mesh -->
<g id="edge1" class="edge">
<title>doid&#45;&#45;mesh</title>
<path fill="none" stroke="black" stroke-width="1.49" d="M46.17,-235.52C69.21,-252.95 109.09,-283.12 132.52,-300.85"/>
<text text-anchor="middle" x="87.97" y="-279.2" font-family="Times,serif" font-size="14.00">1,863</text>
</g>
<!-- efo -->
<g id="node3" class="node">
<title>efo</title>
<ellipse fill="none" stroke="black" cx="276.85" cy="-457" rx="27" ry="18"/>
<text text-anchor="middle" x="276.85" y="-451.95" font-family="Times,serif" font-size="14.00">efo</text>
</g>
<!-- doid&#45;&#45;efo -->
<g id="edge2" class="edge">
<title>doid&#45;&#45;efo</title>
<path fill="none" stroke="black" stroke-width="1.6" d="M37.1,-239.24C58.88,-280.07 119.53,-383.09 201.1,-434 216.08,-443.35 235.12,-449.13 250.23,-452.56"/>
<text text-anchor="middle" x="152.22" y="-423.2" font-family="Times,serif" font-size="14.00">2,278</text>
</g>
<!-- ncit -->
<g id="node4" class="node">
<title>ncit</title>
<ellipse fill="none" stroke="black" cx="397.6" cy="-270" rx="27" ry="18"/>
<text text-anchor="middle" x="397.6" y="-264.95" font-family="Times,serif" font-size="14.00">ncit</text>
</g>
<!-- doid&#45;&#45;ncit -->
<g id="edge3" class="edge">
<title>doid&#45;&#45;ncit</title>
<path fill="none" stroke="black" stroke-width="2.34" d="M54.49,-225.41C122.36,-234.26 303.34,-257.85 370.79,-266.64"/>
<text text-anchor="middle" x="216.48" y="-252.2" font-family="Times,serif" font-size="14.00">5,094</text>
</g>
<!-- mondo -->
<g id="node5" class="node">
<title>mondo</title>
<ellipse fill="none" stroke="black" cx="528.37" cy="-438" rx="37.02" ry="18"/>
<text text-anchor="middle" x="528.37" y="-432.95" font-family="Times,serif" font-size="14.00">mondo</text>
</g>
<!-- doid&#45;&#45;mondo -->
<g id="edge4" class="edge">
<title>doid&#45;&#45;mondo</title>
<path fill="none" stroke="black" stroke-width="4" d="M29.9,-240.28C36.6,-303.98 68.53,-516.65 201.1,-598 275.35,-643.56 124.5,-763.21 473.35,-507 492.23,-493.13 507.95,-470.98 517.47,-455.53"/>
<text text-anchor="middle" x="276.85" y="-664.2" font-family="Times,serif" font-size="14.00">11,365</text>
</g>
<!-- orphanet.ordo -->
<g id="node6" class="node">
<title>orphanet.ordo</title>
<ellipse fill="none" stroke="black" cx="694.75" cy="-333" rx="62.61" ry="18"/>
<text text-anchor="middle" x="694.75" y="-327.95" font-family="Times,serif" font-size="14.00">orphanet.ordo</text>
</g>
<!-- doid&#45;&#45;orphanet.ordo -->
<g id="edge5" class="edge">
<title>doid&#45;&#45;orphanet.ordo</title>
<path fill="none" stroke="black" stroke-width="1.66" d="M42.32,-206.82C50.69,-198.17 61.76,-187.42 72.59,-179 92.67,-163.38 96.86,-155.93 121.34,-149 147.75,-141.52 155.87,-145.58 183.1,-149 379.27,-173.64 440.57,-164.32 614.14,-259 640.48,-273.37 664.81,-298.43 679.47,-315.37"/>
<text text-anchor="middle" x="337.23" y="-172.2" font-family="Times,serif" font-size="14.00">2,508</text>
</g>
<!-- gard -->
<g id="node7" class="node">
<title>gard</title>
<ellipse fill="none" stroke="black" cx="152.22" cy="-176" rx="27.3" ry="18"/>
<text text-anchor="middle" x="152.22" y="-170.95" font-family="Times,serif" font-size="14.00">gard</text>
</g>
<!-- doid&#45;&#45;gard -->
<g id="edge6" class="edge">
<title>doid&#45;&#45;gard</title>
<path fill="none" stroke="black" stroke-width="1.01" d="M45.01,-208.07C52.93,-202.13 62.78,-195.63 72.59,-191.5 89.26,-184.48 109.28,-180.59 124.94,-178.46"/>
<text text-anchor="middle" x="87.97" y="-195.2" font-family="Times,serif" font-size="14.00">30</text>
</g>
<!-- omim -->
<g id="node8" class="node">
<title>omim</title>
<ellipse fill="none" stroke="black" cx="868.3" cy="-535" rx="33.44" ry="18"/>
<text text-anchor="middle" x="868.3" y="-529.95" font-family="Times,serif" font-size="14.00">omim</text>
</g>
<!-- doid&#45;&#45;omim -->
<g id="edge7" class="edge">
<title>doid&#45;&#45;omim</title>
<path fill="none" stroke="black" stroke-width="1.05" d="M28.96,-240.23C32.64,-327.91 54.02,-702 151.22,-702 151.22,-702 151.22,-702 695.75,-702 780.75,-702 839.42,-595.43 859.59,-552.56"/>
<text text-anchor="middle" x="397.6" y="-705.2" font-family="Times,serif" font-size="14.00">191</text>
</g>
<!-- icd10cm -->
<g id="node9" class="node">
<title>icd10cm</title>
<ellipse fill="none" stroke="black" cx="1005.15" cy="-334" rx="43.16" ry="18"/>
<text text-anchor="middle" x="1005.15" y="-328.95" font-family="Times,serif" font-size="14.00">icd10cm</text>
</g>
<!-- doid&#45;&#45;icd10cm -->
<g id="edge8" class="edge">
<title>doid&#45;&#45;icd10cm</title>
<path fill="none" stroke="black" stroke-width="1.04" d="M29.74,-203.83C35.03,-150.81 58.26,0 151.22,0 151.22,0 151.22,0 869.3,0 913.89,0 923.51,-27.39 943.99,-67 988.4,-152.89 1000.22,-270.95 1003.2,-315.76"/>
<text text-anchor="middle" x="457.98" y="-3.2" font-family="Times,serif" font-size="14.00">143</text>
</g>
<!-- omim.ps -->
<g id="node10" class="node">
<title>omim.ps</title>
<ellipse fill="none" stroke="black" cx="868.3" cy="-257" rx="44.19" ry="18"/>
<text text-anchor="middle" x="868.3" y="-251.95" font-family="Times,serif" font-size="14.00">omim.ps</text>
</g>
<!-- doid&#45;&#45;omim.ps -->
<g id="edge9" class="edge">
<title>doid&#45;&#45;omim.ps</title>
<path fill="none" stroke="black" stroke-width="1.02" d="M35.12,-204.47C50.22,-168.98 90.03,-92 151.22,-92 151.22,-92 151.22,-92 599.77,-92 711.64,-92 815.9,-197.81 853,-239.96"/>
<text text-anchor="middle" x="397.6" y="-95.2" font-family="Times,serif" font-size="14.00">81</text>
</g>
<!-- mesh&#45;&#45;efo -->
<g id="edge10" class="edge">
<title>mesh&#45;&#45;efo</title>
<path fill="none" stroke="black" stroke-width="1.31" d="M162.71,-332.32C171.63,-347.9 185.86,-371.03 201.1,-389 203.63,-391.98 238.78,-423.69 259.96,-442.74"/>
<text text-anchor="middle" x="216.48" y="-419.2" font-family="Times,serif" font-size="14.00">1,178</text>
</g>
<!-- mesh&#45;&#45;ncit -->
<g id="edge11" class="edge">
<title>mesh&#45;&#45;ncit</title>
<path fill="none" stroke="black" stroke-width="1.42" d="M182.1,-309.66C230.07,-300.79 325.43,-283.16 371.08,-274.72"/>
<text text-anchor="middle" x="276.85" y="-299.2" font-family="Times,serif" font-size="14.00">1,585</text>
</g>
<!-- mesh&#45;&#45;mondo -->
<g id="edge12" class="edge">
<title>mesh&#45;&#45;mondo</title>
<path fill="none" stroke="black" stroke-width="3.15" d="M170.93,-329.85C179.58,-336.49 190.41,-343.94 201.1,-349 301.41,-396.46 431.44,-422.35 492.64,-432.65"/>
<text text-anchor="middle" x="337.23" y="-405.2" font-family="Times,serif" font-size="14.00">8,159</text>
</g>
<!-- mesh&#45;&#45;orphanet.ordo -->
<g id="edge13" class="edge">
<title>mesh&#45;&#45;orphanet.ordo</title>
<path fill="none" stroke="black" stroke-width="1.16" d="M183.36,-316.3C189.24,-316.54 195.36,-316.79 201.1,-317 254.76,-319.01 268.18,-319.25 321.85,-321 431.13,-324.57 558.47,-328.67 632.22,-331.03"/>
<text text-anchor="middle" x="397.6" y="-327.2" font-family="Times,serif" font-size="14.00">612</text>
</g>
<!-- mesh&#45;&#45;omim -->
<g id="edge14" class="edge">
<title>mesh&#45;&#45;omim</title>
<path fill="none" stroke="black" stroke-width="1.34" d="M165.73,-331.66C171.72,-340.32 178.57,-351.32 183.1,-362 196.48,-393.56 184.08,-407.24 201.1,-437 247.58,-518.25 284.88,-524.41 370.6,-562 472.23,-606.56 504.04,-630.83 614.14,-617 701.51,-606.03 724.09,-600.03 806.11,-568 819.61,-562.73 833.89,-555.15 845.27,-548.58"/>
<text text-anchor="middle" x="457.98" y="-609.2" font-family="Times,serif" font-size="14.00">1,288</text>
</g>
<!-- mesh&#45;&#45;icd10cm -->
<g id="edge15" class="edge">
<title>mesh&#45;&#45;icd10cm</title>
<path fill="none" stroke="black" stroke-width="1.12" d="M167.17,-298.78C213.12,-245.4 357.64,-78.09 370.6,-70 404.4,-48.9 417.13,-46 456.98,-46 456.98,-46 456.98,-46 869.3,-46 988.83,-46 1002.63,-251.98 1004.05,-315.55"/>
<text text-anchor="middle" x="528.37" y="-49.2" font-family="Times,serif" font-size="14.00">470</text>
</g>
<!-- mesh&#45;&#45;omim.ps -->
<g id="edge16" class="edge">
<title>mesh&#45;&#45;omim.ps</title>
<path fill="none" stroke="black" stroke-width="1.01" d="M173.39,-301.39C224.08,-268.11 361.98,-183.23 491.35,-154 523.45,-146.75 532.72,-150.04 565.39,-154 619.68,-160.58 769.9,-218.31 835.72,-244.35"/>
<text text-anchor="middle" x="457.98" y="-170.2" font-family="Times,serif" font-size="14.00">47</text>
</g>
<!-- efo&#45;&#45;ncit -->
<g id="edge17" class="edge">
<title>efo&#45;&#45;ncit</title>
<path fill="none" stroke="black" stroke-width="1.63" d="M281.51,-438.97C287.14,-414.23 299.69,-369.1 321.85,-336.5 336.98,-314.23 361.19,-294.55 377.94,-282.49"/>
<text text-anchor="middle" x="337.23" y="-339.2" font-family="Times,serif" font-size="14.00">2,375</text>
</g>
<!-- efo&#45;&#45;mondo -->
<g id="edge18" class="edge">
<title>efo&#45;&#45;mondo</title>
<path fill="none" stroke="black" stroke-width="1.86" d="M304.08,-455C349,-451.58 440.71,-444.6 491.5,-440.73"/>
<text text-anchor="middle" x="397.6" y="-452.2" font-family="Times,serif" font-size="14.00">3,248</text>
</g>
<!-- efo&#45;&#45;orphanet.ordo -->
<g id="edge19" class="edge">
<title>efo&#45;&#45;orphanet.ordo</title>
<path fill="none" stroke="black" stroke-width="1.1" d="M301.91,-464.33C353.04,-478.51 475.23,-504.99 565.39,-465 579.67,-458.67 647,-385.02 678.03,-350.57"/>
<text text-anchor="middle" x="457.98" y="-489.2" font-family="Times,serif" font-size="14.00">387</text>
</g>
<!-- efo&#45;&#45;omim -->
<g id="edge20" class="edge">
<title>efo&#45;&#45;omim</title>
<path fill="none" stroke="black" stroke-width="1.06" d="M294.91,-470.94C302.71,-476.69 312.32,-482.94 321.85,-487 509.29,-566.88 571.68,-549.03 775.36,-554 789.03,-554.33 792.6,-556.05 806.11,-554 817.55,-552.27 829.79,-548.8 840.3,-545.31"/>
<text text-anchor="middle" x="528.37" y="-553.2" font-family="Times,serif" font-size="14.00">216</text>
</g>
<!-- efo&#45;&#45;icd10cm -->
<g id="edge21" class="edge">
<title>efo&#45;&#45;icd10cm</title>
<path fill="none" stroke="black" stroke-width="1.12" d="M289.62,-473.02C297.81,-483.37 309.46,-496.61 321.85,-506 386.16,-554.72 411.75,-557.85 491.35,-571 676.06,-601.5 757.32,-666.75 912.49,-562 984.62,-513.3 1000,-397.43 1003.27,-352.37"/>
<text text-anchor="middle" x="598.77" y="-599.2" font-family="Times,serif" font-size="14.00">450</text>
</g>
<!-- efo&#45;&#45;omim.ps -->
<g id="edge22" class="edge">
<title>efo&#45;&#45;omim.ps</title>
<path fill="none" stroke="black" stroke-width="1.01" d="M298.86,-446.3C352.85,-419.18 501.37,-347.05 632.14,-306 698.79,-285.08 778.89,-270.56 826.32,-263.02"/>
<text text-anchor="middle" x="528.37" y="-360.2" font-family="Times,serif" font-size="14.00">45</text>
</g>
<!-- ncit&#45;&#45;mondo -->
<g id="edge23" class="edge">
<title>ncit&#45;&#45;mondo</title>
<path fill="none" stroke="black" stroke-width="2.97" d="M410.35,-286.38C425.16,-307.06 451.34,-343.78 473.35,-375.5 481.47,-387.2 482.28,-391.03 491.35,-402 497.1,-408.95 503.99,-416.08 510.19,-422.13"/>
<text text-anchor="middle" x="457.98" y="-378.2" font-family="Times,serif" font-size="14.00">7,460</text>
</g>
<!-- ncit&#45;&#45;orphanet.ordo -->
<g id="edge24" class="edge">
<title>ncit&#45;&#45;orphanet.ordo</title>
<path fill="none" stroke="black" stroke-width="1.15" d="M424.79,-272.73C465.66,-277.34 546.92,-287.86 614.14,-305 628.2,-308.58 643.29,-313.58 656.51,-318.37"/>
<text text-anchor="middle" x="528.37" y="-296.2" font-family="Times,serif" font-size="14.00">585</text>
</g>
<!-- ncit&#45;&#45;omim -->
<g id="edge25" class="edge">
<title>ncit&#45;&#45;omim</title>
<path fill="none" stroke="black" stroke-width="1.06" d="M411.51,-285.81C416.27,-292.34 421.29,-300.2 424.6,-308 440.18,-344.76 426.75,-359.36 442.6,-396 457.51,-430.46 461.85,-441.77 491.35,-465 595.14,-546.75 764.74,-543.7 835.12,-538.29"/>
<text text-anchor="middle" x="598.77" y="-524.2" font-family="Times,serif" font-size="14.00">217</text>
</g>
<!-- ncit&#45;&#45;icd10cm -->
<g id="edge26" class="edge">
<title>ncit&#45;&#45;icd10cm</title>
<path fill="none" stroke="black" stroke-width="1.14" d="M421.2,-260.86C495.56,-232.28 737.75,-151.09 912.49,-230 951.75,-247.73 980.92,-291.51 994.92,-316.25"/>
<text text-anchor="middle" x="694.75" y="-208.2" font-family="Times,serif" font-size="14.00">536</text>
</g>
<!-- ncit&#45;&#45;omim.ps -->
<g id="edge27" class="edge">
<title>ncit&#45;&#45;omim.ps</title>
<path fill="none" stroke="black" stroke-width="1.01" d="M424.63,-268.98C485.81,-266.63 643.53,-260.82 775.36,-258 791.16,-257.66 808.49,-257.44 823.8,-257.29"/>
<text text-anchor="middle" x="598.77" y="-267.2" font-family="Times,serif" font-size="14.00">52</text>
</g>
<!-- mondo&#45;&#45;orphanet.ordo -->
<g id="edge28" class="edge">
<title>mondo&#45;&#45;orphanet.ordo</title>
<path fill="none" stroke="black" stroke-width="3.52" d="M546.34,-421.95C552.52,-415.87 559.45,-408.78 565.39,-402 574.06,-392.11 572.95,-386.5 583.39,-378.5 602.72,-363.68 627.55,-352.88 648.77,-345.53"/>
<text text-anchor="middle" x="598.77" y="-381.2" font-family="Times,serif" font-size="14.00">9,545</text>
</g>
<!-- mondo&#45;&#45;omim -->
<g id="edge29" class="edge">
<title>mondo&#45;&#45;omim</title>
<path fill="none" stroke="black" stroke-width="3.57" d="M548.85,-453.31C558.7,-460.33 571.13,-468.15 583.39,-473 656.45,-501.93 680.77,-486.98 757.36,-504.5 785.17,-510.86 816.48,-519.72 838.55,-526.25"/>
<text text-anchor="middle" x="694.75" y="-507.2" font-family="Times,serif" font-size="14.00">9,744</text>
</g>
<!-- mondo&#45;&#45;icd10cm -->
<g id="edge30" class="edge">
<title>mondo&#45;&#45;icd10cm</title>
<path fill="none" stroke="black" stroke-width="1.3" d="M565.35,-440.42C610.66,-442.63 690.64,-443.74 757.36,-430 840.67,-412.85 932.45,-370.35 976.95,-348.1"/>
<text text-anchor="middle" x="790.74" y="-428.2" font-family="Times,serif" font-size="14.00">1,141</text>
</g>
<!-- mondo&#45;&#45;omim.ps -->
<g id="edge31" class="edge">
<title>mondo&#45;&#45;omim.ps</title>
<path fill="none" stroke="black" stroke-width="1.15" d="M561.64,-429.68C581.82,-424.63 608.4,-418.27 632.14,-413.5 708.96,-398.07 746.75,-436.14 806.11,-385 825.92,-367.94 813.32,-352.81 824.11,-329 832.96,-309.48 845.89,-288.64 855.29,-274.43"/>
<text text-anchor="middle" x="694.75" y="-416.2" font-family="Times,serif" font-size="14.00">577</text>
</g>
<!-- orphanet.ordo&#45;&#45;omim -->
<g id="edge32" class="edge">
<title>orphanet.ordo&#45;&#45;omim</title>
<path fill="none" stroke="black" stroke-width="1.01" d="M728.71,-348.44C752.7,-361.03 784.61,-380.76 806.11,-405.5 835.64,-439.47 854,-490.14 862.23,-516.91"/>
<text text-anchor="middle" x="790.74" y="-408.2" font-family="Times,serif" font-size="14.00">33</text>
</g>
<!-- orphanet.ordo&#45;&#45;icd10cm -->
<g id="edge33" class="edge">
<title>orphanet.ordo&#45;&#45;icd10cm</title>
<path fill="none" stroke="black" stroke-width="1.05" d="M757.79,-333.2C818.3,-333.4 908.71,-333.69 961.53,-333.86"/>
<text text-anchor="middle" x="868.3" y="-336.2" font-family="Times,serif" font-size="14.00">193</text>
</g>
<!-- orphanet.ordo&#45;&#45;omim.ps -->
<g id="edge34" class="edge">
<title>orphanet.ordo&#45;&#45;omim.ps</title>
<path fill="none" stroke="black" stroke-width="1.02" d="M730.06,-317.8C761.44,-303.9 807.42,-283.53 837.36,-270.27"/>
<text text-anchor="middle" x="790.74" y="-300.2" font-family="Times,serif" font-size="14.00">71</text>
</g>
<!-- omim&#45;&#45;icd10cm -->
<g id="edge35" class="edge">
<title>omim&#45;&#45;icd10cm</title>
<path fill="none" stroke="black" stroke-width="1.01" d="M886.96,-519.82C903.23,-505.18 927.32,-481.8 943.99,-458 968.42,-423.11 987.96,-376.79 997.6,-351.8"/>
<text text-anchor="middle" x="937.24" y="-477.2" font-family="Times,serif" font-size="14.00">50</text>
</g>
</g>
</svg>
