<?xml version="1.0" encoding="UTF-8" standalone="no"?>
<!DOCTYPE svg PUBLIC "-//W3C//DTD SVG 1.1//EN"
 "http://www.w3.org/Graphics/SVG/1.1/DTD/svg11.dtd">
<!-- Generated by graphviz version 10.0.1 (20240210.2158)
 -->
<!-- Pages: 1 -->
<svg width="1107pt" height="999pt"
 viewBox="0.00 0.00 1106.51 998.50" xmlns="http://www.w3.org/2000/svg" xmlns:xlink="http://www.w3.org/1999/xlink">
<g id="graph0" class="graph" transform="scale(1 1) rotate(0) translate(4 994.5)">
<polygon fill="white" stroke="none" points="-4,4 -4,-994.5 1102.51,-994.5 1102.51,4 -4,4"/>
<!-- doid -->
<g id="node1" class="node">
<title>doid</title>
<ellipse fill="none" stroke="black" cx="29.34" cy="-498" rx="27.3" ry="18"/>
<text text-anchor="middle" x="29.34" y="-492.95" font-family="Times,serif" font-size="14.00">doid</text>
</g>
<!-- doid&#45;&#45;doid -->
<g id="edge1" class="edge">
<title>doid&#45;&#45;doid</title>
<path fill="none" stroke="black" stroke-width="1.01" d="M18.32,-514.66C15.87,-524.62 19.54,-534 29.34,-534 39.14,-534 42.82,-524.62 40.37,-514.66"/>
<text text-anchor="middle" x="29.34" y="-537.2" font-family="Times,serif" font-size="14.00">11,511</text>
</g>
<!-- mesh -->
<g id="node2" class="node">
<title>mesh</title>
<ellipse fill="none" stroke="black" cx="163.99" cy="-656" rx="30.88" ry="18"/>
<text text-anchor="middle" x="163.99" y="-650.95" font-family="Times,serif" font-size="14.00">mesh</text>
</g>
<!-- doid&#45;&#45;mesh -->
<g id="edge2" class="edge">
<title>doid&#45;&#45;mesh</title>
<path fill="none" stroke="black" d="M43.55,-513.73C68.84,-543.86 123.89,-609.42 149.45,-639.87"/>
<text text-anchor="middle" x="92.06" y="-589.2" font-family="Times,serif" font-size="14.00">4,660</text>
</g>
<!-- efo -->
<g id="node3" class="node">
<title>efo</title>
<ellipse fill="none" stroke="black" cx="296.3" cy="-344" rx="27" ry="18"/>
<text text-anchor="middle" x="296.3" y="-338.95" font-family="Times,serif" font-size="14.00">efo</text>
</g>
<!-- doid&#45;&#45;efo -->
<g id="edge3" class="edge">
<title>doid&#45;&#45;efo</title>
<path fill="none" stroke="black" d="M45.76,-483.3C54.76,-474.73 66.35,-463.73 76.69,-454 98.27,-433.69 100.28,-424.17 125.44,-408.5 172.97,-378.9 236.25,-359.34 270.59,-350.13"/>
<text text-anchor="middle" x="163.99" y="-412.2" font-family="Times,serif" font-size="14.00">2,278</text>
</g>
<!-- ncit -->
<g id="node4" class="node">
<title>ncit</title>
<ellipse fill="none" stroke="black" cx="417.05" cy="-583" rx="27" ry="18"/>
<text text-anchor="middle" x="417.05" y="-577.95" font-family="Times,serif" font-size="14.00">ncit</text>
</g>
<!-- doid&#45;&#45;ncit -->
<g id="edge4" class="edge">
<title>doid&#45;&#45;ncit</title>
<path fill="none" stroke="black" d="M54.19,-506.06C61.36,-508.24 69.29,-510.44 76.69,-512 153.19,-528.14 174.78,-517.41 251.3,-533.5 302.59,-544.28 360.99,-563.54 392.64,-574.59"/>
<text text-anchor="middle" x="235.92" y="-536.2" font-family="Times,serif" font-size="14.00">5,094</text>
</g>
<!-- mondo -->
<g id="node5" class="node">
<title>mondo</title>
<ellipse fill="none" stroke="black" cx="547.82" cy="-392" rx="37.02" ry="18"/>
<text text-anchor="middle" x="547.82" y="-386.95" font-family="Times,serif" font-size="14.00">mondo</text>
</g>
<!-- doid&#45;&#45;mondo -->
<g id="edge5" class="edge">
<title>doid&#45;&#45;mondo</title>
<path fill="none" stroke="black" stroke-width="1.01" d="M56.34,-502.41C115.01,-511.23 261.25,-526.7 372.05,-484 372.24,-483.93 461.87,-409.09 462.05,-409 477.21,-401.74 495.34,-397.58 510.92,-395.2"/>
<text text-anchor="middle" x="296.3" y="-510.2" font-family="Times,serif" font-size="14.00">11,365</text>
</g>
<!-- icdo -->
<g id="node6" class="node">
<title>icdo</title>
<ellipse fill="none" stroke="black" cx="701.5" cy="-221" rx="27" ry="18"/>
<text text-anchor="middle" x="701.5" y="-215.95" font-family="Times,serif" font-size="14.00">icdo</text>
</g>
<!-- doid&#45;&#45;icdo -->
<g id="edge6" class="edge">
<title>doid&#45;&#45;icdo</title>
<path fill="none" stroke="black" d="M38.73,-481.05C72,-416.29 202.06,-185.71 390.05,-137 473.88,-115.28 502.11,-106.39 584.84,-132 628.17,-145.41 667.45,-183.58 687.17,-205.33"/>
<text text-anchor="middle" x="356.67" y="-158.2" font-family="Times,serif" font-size="14.00">470</text>
</g>
<!-- icd10cm -->
<g id="node7" class="node">
<title>icd10cm</title>
<ellipse fill="none" stroke="black" cx="701.5" cy="-611" rx="43.16" ry="18"/>
<text text-anchor="middle" x="701.5" y="-605.95" font-family="Times,serif" font-size="14.00">icd10cm</text>
</g>
<!-- doid&#45;&#45;icd10cm -->
<g id="edge7" class="edge">
<title>doid&#45;&#45;icd10cm</title>
<path fill="none" stroke="black" d="M38.58,-515.24C44.4,-527.61 52.28,-544.72 58.69,-560 88.18,-630.29 61.61,-676.32 125.44,-718 296.95,-830 388.98,-740.99 584.84,-681 621.65,-669.73 658.76,-644.17 680.69,-627.26"/>
<text text-anchor="middle" x="356.67" y="-767.2" font-family="Times,serif" font-size="14.00">3,599</text>
</g>
<!-- icd9cm -->
<g id="node8" class="node">
<title>icd9cm</title>
<ellipse fill="none" stroke="black" cx="163.99" cy="-452" rx="38.56" ry="18"/>
<text text-anchor="middle" x="163.99" y="-446.95" font-family="Times,serif" font-size="14.00">icd9cm</text>
</g>
<!-- doid&#45;&#45;icd9cm -->
<g id="edge8" class="edge">
<title>doid&#45;&#45;icd9cm</title>
<path fill="none" stroke="black" d="M47.45,-484.33C55.82,-478.29 66.31,-471.64 76.69,-467.5 92.24,-461.29 110.36,-457.56 125.97,-455.31"/>
<text text-anchor="middle" x="92.06" y="-470.2" font-family="Times,serif" font-size="14.00">2,237</text>
</g>
<!-- orphanet.ordo -->
<g id="node9" class="node">
<title>orphanet.ordo</title>
<ellipse fill="none" stroke="black" cx="874.03" cy="-453" rx="62.61" ry="18"/>
<text text-anchor="middle" x="874.03" y="-447.95" font-family="Times,serif" font-size="14.00">orphanet.ordo</text>
</g>
<!-- doid&#45;&#45;orphanet.ordo -->
<g id="edge9" class="edge">
<title>doid&#45;&#45;orphanet.ordo</title>
<path fill="none" stroke="black" d="M31.05,-479.75C33.92,-411.01 46.07,-168.16 76.69,-98 99.9,-44.81 104.96,0 162.99,0 162.99,0 162.99,0 357.67,0 472.02,0 700.35,-48.75 744.67,-89 850.82,-185.41 869.19,-374.99 872.37,-434.61"/>
<text text-anchor="middle" x="417.05" y="-10.2" font-family="Times,serif" font-size="14.00">2,508</text>
</g>
<!-- gard -->
<g id="node10" class="node">
<title>gard</title>
<ellipse fill="none" stroke="black" cx="701.5" cy="-133" rx="27.3" ry="18"/>
<text text-anchor="middle" x="701.5" y="-127.95" font-family="Times,serif" font-size="14.00">gard</text>
</g>
<!-- doid&#45;&#45;gard -->
<g id="edge10" class="edge">
<title>doid&#45;&#45;gard</title>
<path fill="none" stroke="black" d="M31.65,-479.68C38.2,-394.93 70.8,-45 162.99,-45 162.99,-45 162.99,-45 478.42,-45 489,-45 623.74,-100.88 678.05,-123.58"/>
<text text-anchor="middle" x="356.67" y="-48.2" font-family="Times,serif" font-size="14.00">2,109</text>
</g>
<!-- omim -->
<g id="node11" class="node">
<title>omim</title>
<ellipse fill="none" stroke="black" cx="1054.32" cy="-763" rx="33.44" ry="18"/>
<text text-anchor="middle" x="1054.32" y="-757.95" font-family="Times,serif" font-size="14.00">omim</text>
</g>
<!-- doid&#45;&#45;omim -->
<g id="edge11" class="edge">
<title>doid&#45;&#45;omim</title>
<path fill="none" stroke="black" stroke-width="1.01" d="M40.2,-515.01C46.7,-527.13 54.71,-544.04 58.69,-560 74.94,-625.24 53.13,-799.03 76.69,-862 98.71,-920.86 100.15,-974 162.99,-974 162.99,-974 162.99,-974 875.03,-974 975.74,-974 1031.2,-832.02 1047.88,-780.99"/>
<text text-anchor="middle" x="477.42" y="-977.2" font-family="Times,serif" font-size="14.00">5,917</text>
</g>
<!-- omim.ps -->
<g id="node12" class="node">
<title>omim.ps</title>
<ellipse fill="none" stroke="black" cx="1054.32" cy="-583" rx="44.19" ry="18"/>
<text text-anchor="middle" x="1054.32" y="-577.95" font-family="Times,serif" font-size="14.00">omim.ps</text>
</g>
<!-- doid&#45;&#45;omim.ps -->
<g id="edge12" class="edge">
<title>doid&#45;&#45;omim.ps</title>
<path fill="none" stroke="black" d="M39.77,-515.13C46.07,-527.3 54.03,-544.22 58.69,-560 101.4,-704.68 12.14,-883 162.99,-883 162.99,-883 162.99,-883 478.42,-883 687.06,-883 750.74,-875.7 936.64,-781 1008.28,-744.51 1039.43,-642.79 1049.45,-601.14"/>
<text text-anchor="middle" x="477.42" y="-886.2" font-family="Times,serif" font-size="14.00">81</text>
</g>
<!-- mesh&#45;&#45;mesh -->
<g id="edge13" class="edge">
<title>mesh&#45;&#45;mesh</title>
<path fill="none" stroke="black" d="M151.35,-672.66C148.54,-682.62 152.75,-692 163.99,-692 175.23,-692 179.45,-682.62 176.64,-672.66"/>
<text text-anchor="middle" x="163.99" y="-695.2" font-family="Times,serif" font-size="14.00">3,120</text>
</g>
<!-- mesh&#45;&#45;efo -->
<g id="edge14" class="edge">
<title>mesh&#45;&#45;efo</title>
<path fill="none" stroke="black" d="M174.94,-638.96C185.16,-622.27 202.13,-596.61 220.55,-577.5 232.49,-565.12 242.13,-568.55 251.3,-554 253.89,-549.88 281.58,-412.52 291.66,-362.22"/>
<text text-anchor="middle" x="235.92" y="-580.2" font-family="Times,serif" font-size="14.00">1,197</text>
</g>
<!-- mesh&#45;&#45;ncit -->
<g id="edge15" class="edge">
<title>mesh&#45;&#45;ncit</title>
<path fill="none" stroke="black" d="M191.86,-648.19C241.07,-633.88 344.91,-603.68 391.97,-590"/>
<text text-anchor="middle" x="296.3" y="-628.2" font-family="Times,serif" font-size="14.00">1,585</text>
</g>
<!-- mesh&#45;&#45;mondo -->
<g id="edge16" class="edge">
<title>mesh&#45;&#45;mondo</title>
<path fill="none" stroke="black" stroke-width="1.01" d="M186.49,-643.52C244.7,-609.43 403.71,-514.29 444.05,-469 455.68,-455.94 449.59,-446.28 462.05,-434 477.14,-419.13 498.55,-408.58 516.08,-401.78"/>
<text text-anchor="middle" x="356.67" y="-550.2" font-family="Times,serif" font-size="14.00">8,279</text>
</g>
<!-- mesh&#45;&#45;icd10cm -->
<g id="edge17" class="edge">
<title>mesh&#45;&#45;icd10cm</title>
<path fill="none" stroke="black" d="M192.22,-663.33C218.43,-669.73 259.28,-678 295.3,-678 295.3,-678 295.3,-678 478.42,-678 551.32,-678 632.15,-644.51 673.26,-624.88"/>
<text text-anchor="middle" x="417.05" y="-681.2" font-family="Times,serif" font-size="14.00">470</text>
</g>
<!-- mesh&#45;&#45;orphanet.ordo -->
<g id="edge18" class="edge">
<title>mesh&#45;&#45;orphanet.ordo</title>
<path fill="none" stroke="black" d="M183.19,-670.31C213.75,-693.33 278.25,-737.65 341.3,-754 448.01,-781.66 481.02,-744.07 584.84,-707 618.39,-695.02 625.63,-689.13 658.34,-675 696.66,-658.45 712.33,-664.4 744.67,-638 803.72,-589.8 847.29,-507.69 864.7,-471.3"/>
<text text-anchor="middle" x="477.42" y="-758.2" font-family="Times,serif" font-size="14.00">612</text>
</g>
<!-- mesh&#45;&#45;omim -->
<g id="edge19" class="edge">
<title>mesh&#45;&#45;omim</title>
<path fill="none" stroke="black" d="M175.99,-672.65C183.56,-684.2 193.79,-699.95 202.55,-714 210.78,-727.19 209.8,-732.76 220.55,-744 355.93,-885.58 424.7,-929 620.59,-929 620.59,-929 620.59,-929 875.03,-929 961.31,-929 1023.3,-823.59 1044.92,-780.76"/>
<text text-anchor="middle" x="547.82" y="-931.2" font-family="Times,serif" font-size="14.00">1,288</text>
</g>
<!-- mesh&#45;&#45;omim.ps -->
<g id="edge20" class="edge">
<title>mesh&#45;&#45;omim.ps</title>
<path fill="none" stroke="black" d="M177.34,-672.42C187.92,-685.86 204.03,-704.88 220.55,-719 240.07,-735.68 245.91,-739.41 269.3,-750 462.26,-837.35 533.57,-801.47 744.67,-784 830.87,-776.86 863.62,-798.37 936.64,-752 995.18,-714.82 1032.12,-636.58 1046.49,-601.14"/>
<text text-anchor="middle" x="547.82" y="-809.2" font-family="Times,serif" font-size="14.00">47</text>
</g>
<!-- efo&#45;&#45;efo -->
<g id="edge21" class="edge">
<title>efo&#45;&#45;efo</title>
<path fill="none" stroke="black" d="M285.6,-361.04C283.42,-370.86 286.98,-380 296.3,-380 305.62,-380 309.18,-370.86 307,-361.04"/>
<text text-anchor="middle" x="296.3" y="-383.2" font-family="Times,serif" font-size="14.00">2,082</text>
</g>
<!-- efo&#45;&#45;ncit -->
<g id="edge22" class="edge">
<title>efo&#45;&#45;ncit</title>
<path fill="none" stroke="black" d="M304.15,-361.72C312.21,-382.01 326.4,-416.05 341.3,-444 353.31,-466.52 359.62,-470.21 372.05,-492.5 385.92,-517.37 399.97,-547.26 408.34,-565.69"/>
<text text-anchor="middle" x="356.67" y="-495.2" font-family="Times,serif" font-size="14.00">2,375</text>
</g>
<!-- efo&#45;&#45;mondo -->
<g id="edge23" class="edge">
<title>efo&#45;&#45;mondo</title>
<path fill="none" stroke="black" d="M322.6,-348.87C367.7,-357.54 462,-375.68 512.75,-385.45"/>
<text text-anchor="middle" x="417.05" y="-375.2" font-family="Times,serif" font-size="14.00">3,248</text>
</g>
<!-- efo&#45;&#45;icdo -->
<g id="edge24" class="edge">
<title>efo&#45;&#45;icdo</title>
<path fill="none" stroke="black" d="M303.49,-326.22C310.16,-309.86 322.43,-286.33 341.3,-274 396.44,-237.96 600.96,-225.44 674.2,-222.06"/>
<text text-anchor="middle" x="477.42" y="-244.2" font-family="Times,serif" font-size="14.00">323</text>
</g>
<!-- efo&#45;&#45;icd10cm -->
<g id="edge25" class="edge">
<title>efo&#45;&#45;icd10cm</title>
<path fill="none" stroke="black" d="M313.07,-358.35C356.46,-397.21 482.39,-506.02 602.84,-572 623.34,-583.23 647.75,-592.98 667.04,-599.92"/>
<text text-anchor="middle" x="477.42" y="-503.2" font-family="Times,serif" font-size="14.00">488</text>
</g>
<!-- efo&#45;&#45;orphanet.ordo -->
<g id="edge26" class="edge">
<title>efo&#45;&#45;orphanet.ordo</title>
<path fill="none" stroke="black" d="M300.71,-326.08C305.86,-303.54 317.64,-264.91 341.3,-241 399.18,-182.51 435.06,-198.67 510.8,-166.5 518.95,-163.04 649.65,-107.71 658.34,-106 695.98,-98.58 716.74,-79.69 744.67,-106 769.21,-129.13 742.92,-381.66 762.67,-409 775.83,-427.23 797.79,-437.91 818.67,-444.17"/>
<text text-anchor="middle" x="547.82" y="-170.2" font-family="Times,serif" font-size="14.00">387</text>
</g>
<!-- efo&#45;&#45;gard -->
<g id="edge27" class="edge">
<title>efo&#45;&#45;gard</title>
<path fill="none" stroke="black" d="M301.89,-326.09C307.81,-306.46 319.99,-275.31 341.3,-257 358.6,-242.14 368.38,-248.09 390.05,-241 422.04,-230.53 429.69,-226.79 462.05,-217.5 516.1,-201.99 535.5,-213.97 584.84,-187 594.5,-181.72 593.52,-175.84 602.84,-170 625.74,-155.66 655.07,-145.48 675.58,-139.47"/>
<text text-anchor="middle" x="477.42" y="-221.2" font-family="Times,serif" font-size="14.00">733</text>
</g>
<!-- efo&#45;&#45;omim -->
<g id="edge28" class="edge">
<title>efo&#45;&#45;omim</title>
<path fill="none" stroke="black" d="M307.04,-360.93C315.4,-374.9 328.15,-394.97 341.3,-411 364.32,-439.06 429.61,-504.72 462.05,-521 577.07,-578.72 623.59,-540.4 744.67,-584 834.8,-616.46 854.44,-632.8 936.64,-682 972.19,-703.28 1011.33,-731.51 1034.04,-748.41"/>
<text text-anchor="middle" x="621.59" y="-563.2" font-family="Times,serif" font-size="14.00">872</text>
</g>
<!-- efo&#45;&#45;omim.ps -->
<g id="edge30" class="edge">
<title>efo&#45;&#45;omim.ps</title>
<path fill="none" stroke="black" d="M322.35,-338.31C434.54,-313.48 889.68,-219.65 992.14,-308 1012.73,-325.75 1004.46,-402.42 1010.14,-429 1020.82,-478.96 1038.45,-536.66 1047.53,-565.16"/>
<text text-anchor="middle" x="621.59" y="-291.2" font-family="Times,serif" font-size="14.00">48</text>
</g>
<!-- icd9 -->
<g id="node13" class="node">
<title>icd9</title>
<ellipse fill="none" stroke="black" cx="701.5" cy="-342" rx="27" ry="18"/>
<text text-anchor="middle" x="701.5" y="-336.95" font-family="Times,serif" font-size="14.00">icd9</text>
</g>
<!-- efo&#45;&#45;icd9 -->
<g id="edge29" class="edge">
<title>efo&#45;&#45;icd9</title>
<path fill="none" stroke="black" d="M323.76,-343.87C396.9,-343.51 601.27,-342.49 674.21,-342.13"/>
<text text-anchor="middle" x="477.42" y="-347.2" font-family="Times,serif" font-size="14.00">1,766</text>
</g>
<!-- icd10 -->
<g id="node14" class="node">
<title>icd10</title>
<ellipse fill="none" stroke="black" cx="1054.32" cy="-164" rx="31.39" ry="18"/>
<text text-anchor="middle" x="1054.32" y="-158.95" font-family="Times,serif" font-size="14.00">icd10</text>
</g>
<!-- efo&#45;&#45;icd10 -->
<g id="edge31" class="edge">
<title>efo&#45;&#45;icd10</title>
<path fill="none" stroke="black" d="M299.23,-325.82C302.97,-298.39 313.46,-246.03 341.3,-212 379.45,-165.36 431.08,-133.54 602.84,-92.5 763.04,-54.22 960.31,-125.35 1028.65,-153.36"/>
<text text-anchor="middle" x="621.59" y="-96.2" font-family="Times,serif" font-size="14.00">805</text>
</g>
<!-- ncit&#45;&#45;ncit -->
<g id="edge32" class="edge">
<title>ncit&#45;&#45;ncit</title>
<path fill="none" stroke="black" stroke-width="1.02" d="M406.35,-600.04C404.17,-609.86 407.73,-619 417.05,-619 426.37,-619 429.93,-609.86 427.75,-600.04"/>
<text text-anchor="middle" x="417.05" y="-622.2" font-family="Times,serif" font-size="14.00">20,094</text>
</g>
<!-- ncit&#45;&#45;mondo -->
<g id="edge33" class="edge">
<title>ncit&#45;&#45;mondo</title>
<path fill="none" stroke="black" stroke-width="1.01" d="M430.98,-567.19C435.74,-560.67 440.76,-552.81 444.05,-545 459.95,-507.2 440.06,-489.12 462.05,-454.5 463.11,-452.83 501.45,-424.88 526.2,-406.92"/>
<text text-anchor="middle" x="477.42" y="-457.2" font-family="Times,serif" font-size="14.00">7,460</text>
</g>
<!-- ncit&#45;&#45;icd10cm -->
<g id="edge34" class="edge">
<title>ncit&#45;&#45;icd10cm</title>
<path fill="none" stroke="black" d="M444.12,-585.58C493.28,-590.46 600.06,-601.04 659.13,-606.9"/>
<text text-anchor="middle" x="547.82" y="-602.2" font-family="Times,serif" font-size="14.00">536</text>
</g>
<!-- ncit&#45;&#45;orphanet.ordo -->
<g id="edge35" class="edge">
<title>ncit&#45;&#45;orphanet.ordo</title>
<path fill="none" stroke="black" d="M440.51,-573.78C474.99,-559.85 543.25,-533.2 602.84,-515.5 677.84,-493.22 766.49,-474.04 821.24,-463.01"/>
<text text-anchor="middle" x="621.59" y="-518.2" font-family="Times,serif" font-size="14.00">585</text>
</g>
<!-- ncit&#45;&#45;omim -->
<g id="edge36" class="edge">
<title>ncit&#45;&#45;omim</title>
<path fill="none" stroke="black" d="M432.7,-597.79C440.89,-605.57 451.54,-614.94 462.05,-622 482.1,-635.46 488.79,-636.06 510.8,-646 705.25,-733.84 745.33,-787.54 954.64,-829 970.99,-832.24 976.86,-835.67 992.14,-829 1014.76,-819.12 1032.77,-796.3 1043.24,-780.27"/>
<text text-anchor="middle" x="701.5" y="-766.2" font-family="Times,serif" font-size="14.00">217</text>
</g>
<!-- ncit&#45;&#45;omim.ps -->
<g id="edge37" class="edge">
<title>ncit&#45;&#45;omim.ps</title>
<path fill="none" stroke="black" d="M439.89,-593.04C497.37,-618.27 657.76,-680.92 793.42,-661 878.25,-648.54 973.83,-614.38 1021.99,-595.66"/>
<text text-anchor="middle" x="701.5" y="-667.2" font-family="Times,serif" font-size="14.00">52</text>
</g>
<!-- mondo&#45;&#45;mondo -->
<g id="edge38" class="edge">
<title>mondo&#45;&#45;mondo</title>
<path fill="none" stroke="black" stroke-width="1.02" d="M535.25,-409.41C532.91,-419.09 537.1,-428 547.82,-428 558.54,-428 562.73,-419.09 560.39,-409.41"/>
<text text-anchor="middle" x="547.82" y="-431.2" font-family="Times,serif" font-size="14.00">24,099</text>
</g>
<!-- mondo&#45;&#45;icdo -->
<g id="edge39" class="edge">
<title>mondo&#45;&#45;icdo</title>
<path fill="none" stroke="black" d="M551.15,-373.87C555.8,-344.93 568.89,-288.21 602.84,-255.5 622.4,-236.66 652.86,-228.04 674.56,-224.14"/>
<text text-anchor="middle" x="621.59" y="-259.2" font-family="Times,serif" font-size="14.00">732</text>
</g>
<!-- mondo&#45;&#45;icd10cm -->
<g id="edge40" class="edge">
<title>mondo&#45;&#45;icd10cm</title>
<path fill="none" stroke="black" d="M561.92,-408.95C572.23,-421.65 587.39,-439.02 602.84,-452 617.9,-464.65 628.47,-459.82 640.34,-475.5 657.53,-498.21 647.22,-510.78 658.34,-537 666.89,-557.14 679.65,-578.73 688.89,-593.36"/>
<text text-anchor="middle" x="621.59" y="-478.2" font-family="Times,serif" font-size="14.00">1,662</text>
</g>
<!-- mondo&#45;&#45;orphanet.ordo -->
<g id="edge41" class="edge">
<title>mondo&#45;&#45;orphanet.ordo</title>
<path fill="none" stroke="black" stroke-width="1.01" d="M582.48,-398.86C624.57,-407.39 698.85,-422.24 762.67,-434 781.02,-437.38 801.13,-440.9 819.1,-443.98"/>
<text text-anchor="middle" x="701.5" y="-433.2" font-family="Times,serif" font-size="14.00">9,545</text>
</g>
<!-- mondo&#45;&#45;gard -->
<g id="edge42" class="edge">
<title>mondo&#45;&#45;gard</title>
<path fill="none" stroke="black" stroke-width="1.01" d="M550.8,-373.81C555.22,-339.77 568.38,-265.24 602.84,-213.5 623.06,-183.14 658.12,-158.31 680.28,-144.6"/>
<text text-anchor="middle" x="621.59" y="-217.2" font-family="Times,serif" font-size="14.00">11,839</text>
</g>
<!-- mondo&#45;&#45;omim -->
<g id="edge43" class="edge">
<title>mondo&#45;&#45;omim</title>
<path fill="none" stroke="black" stroke-width="1.01" d="M570.51,-406.59C616.78,-437.63 724.13,-509.07 762.67,-530 860.91,-583.35 912.38,-554.67 992.14,-633 1024.71,-664.99 1041.98,-717.67 1049.18,-745.12"/>
<text text-anchor="middle" x="778.04" y="-547.2" font-family="Times,serif" font-size="14.00">9,874</text>
</g>
<!-- mondo&#45;&#45;omim.ps -->
<g id="edge45" class="edge">
<title>mondo&#45;&#45;omim.ps</title>
<path fill="none" stroke="black" d="M585.2,-390.67C654.87,-389.1 811.34,-390.33 936.64,-426 963.21,-433.56 972.84,-434.23 992.14,-454 1023.65,-486.29 1041.28,-537.87 1048.84,-564.99"/>
<text text-anchor="middle" x="778.04" y="-403.2" font-family="Times,serif" font-size="14.00">583</text>
</g>
<!-- mondo&#45;&#45;icd9 -->
<g id="edge44" class="edge">
<title>mondo&#45;&#45;icd9</title>
<path fill="none" stroke="black" d="M570.06,-377.35C579.69,-371.32 591.45,-364.76 602.84,-360.5 626.28,-351.74 654.5,-346.97 674.56,-344.48"/>
<text text-anchor="middle" x="621.59" y="-364.2" font-family="Times,serif" font-size="14.00">4,343</text>
</g>
<!-- icd10cm&#45;&#45;orphanet.ordo -->
<g id="edge46" class="edge">
<title>icd10cm&#45;&#45;orphanet.ordo</title>
<path fill="none" stroke="black" d="M710.18,-592.89C719.88,-571.73 738.29,-536.65 762.67,-513.5 783.74,-493.49 812.7,-477.94 835.67,-467.62"/>
<text text-anchor="middle" x="778.04" y="-516.2" font-family="Times,serif" font-size="14.00">193</text>
</g>
<!-- icd10cm&#45;&#45;omim -->
<g id="edge47" class="edge">
<title>icd10cm&#45;&#45;omim</title>
<path fill="none" stroke="black" d="M719.47,-627.83C730.91,-638.46 746.77,-651.87 762.67,-661 850.77,-711.62 968.2,-743.29 1022.9,-756.25"/>
<text text-anchor="middle" x="874.03" y="-734.2" font-family="Times,serif" font-size="14.00">50</text>
</g>
<!-- orphanet.ordo&#45;&#45;omim -->
<g id="edge48" class="edge">
<title>orphanet.ordo&#45;&#45;omim</title>
<path fill="none" stroke="black" stroke-width="1.01" d="M908.03,-468.49C938.7,-483.54 981.24,-506.27 992.14,-521.5 1015.5,-554.14 1000.68,-570.99 1010.14,-610 1022.11,-659.35 1039.18,-716.8 1047.84,-745.21"/>
<text text-anchor="middle" x="973.39" y="-524.2" font-family="Times,serif" font-size="14.00">11,172</text>
</g>
<!-- orphanet.ordo&#45;&#45;omim.ps -->
<g id="edge49" class="edge">
<title>orphanet.ordo&#45;&#45;omim.ps</title>
<path fill="none" stroke="black" d="M936.75,-454.29C955.9,-457.2 976.15,-463.1 992.14,-474.5 1023.3,-496.72 1040.62,-540.08 1048.34,-564.73"/>
<text text-anchor="middle" x="973.39" y="-477.2" font-family="Times,serif" font-size="14.00">71</text>
</g>
<!-- orphanet.ordo&#45;&#45;icd10 -->
<g id="edge50" class="edge">
<title>orphanet.ordo&#45;&#45;icd10</title>
<path fill="none" stroke="black" stroke-width="1.01" d="M886.18,-434.92C918.43,-382.65 1011.48,-231.83 1042.85,-180.97"/>
<text text-anchor="middle" x="973.39" y="-321.2" font-family="Times,serif" font-size="14.00">7,623</text>
</g>
<!-- icd11 -->
<g id="node15" class="node">
<title>icd11</title>
<ellipse fill="none" stroke="black" cx="1054.32" cy="-367" rx="31.39" ry="18"/>
<text text-anchor="middle" x="1054.32" y="-361.95" font-family="Times,serif" font-size="14.00">icd11</text>
</g>
<!-- orphanet.ordo&#45;&#45;icd11 -->
<g id="edge51" class="edge">
<title>orphanet.ordo&#45;&#45;icd11</title>
<path fill="none" stroke="black" stroke-width="1.01" d="M907.32,-437.43C942.54,-420.44 998.09,-393.64 1029.54,-378.47"/>
<text text-anchor="middle" x="973.39" y="-416.2" font-family="Times,serif" font-size="14.00">5,484</text>
</g>
<!-- icd10&#45;&#45;icd10 -->
<g id="edge52" class="edge">
<title>icd10&#45;&#45;icd10</title>
<path fill="none" stroke="black" d="M1040.22,-180.29C1036.82,-190.39 1041.52,-200 1054.32,-200 1067.13,-200 1071.83,-190.39 1068.43,-180.29"/>
<text text-anchor="middle" x="1054.32" y="-203.2" font-family="Times,serif" font-size="14.00">2,345</text>
</g>
<!-- icd11&#45;&#45;icd11 -->
<g id="edge53" class="edge">
<title>icd11&#45;&#45;icd11</title>
<path fill="none" stroke="black" stroke-width="1.07" d="M1040.22,-383.29C1036.82,-393.39 1041.52,-403 1054.32,-403 1067.13,-403 1071.83,-393.39 1068.43,-383.29"/>
<text text-anchor="middle" x="1054.32" y="-406.2" font-family="Times,serif" font-size="14.00">69,477</text>
</g>
<!-- umls -->
<g id="node16" class="node">
<title>umls</title>
<ellipse fill="none" stroke="black" cx="29.34" cy="-587" rx="29.34" ry="18"/>
<text text-anchor="middle" x="29.34" y="-581.95" font-family="Times,serif" font-size="14.00">umls</text>
</g>
<!-- umls&#45;&#45;umls -->
<g id="edge54" class="edge">
<title>umls&#45;&#45;umls</title>
<path fill="none" stroke="black" stroke-width="4" d="M18.23,-604.04C15.96,-613.86 19.67,-623 29.34,-623 39.02,-623 42.73,-613.86 40.46,-604.04"/>
<text text-anchor="middle" x="29.34" y="-626.2" font-family="Times,serif" font-size="14.00">3,185,657</text>
</g>
</g>
</svg>
