<?xml version="1.0" encoding="UTF-8" standalone="no"?>
<!DOCTYPE svg PUBLIC "-//W3C//DTD SVG 1.1//EN"
 "http://www.w3.org/Graphics/SVG/1.1/DTD/svg11.dtd">
<!-- Generated by graphviz version 10.0.1 (20240210.2158)
 -->
<!-- Pages: 1 -->
<svg width="682pt" height="316pt"
 viewBox="0.00 0.00 682.14 315.50" xmlns="http://www.w3.org/2000/svg" xmlns:xlink="http://www.w3.org/1999/xlink">
<g id="graph0" class="graph" transform="scale(1 1) rotate(0) translate(4 311.5)">
<polygon fill="white" stroke="none" points="-4,4 -4,-311.5 678.14,-311.5 678.14,4 -4,4"/>
<!-- doid -->
<g id="node1" class="node">
<title>doid</title>
<ellipse fill="none" stroke="black" cx="27.3" cy="-200" rx="27.3" ry="18"/>
<text text-anchor="middle" x="27.3" y="-194.95" font-family="Times,serif" font-size="14.00">doid</text>
</g>
<!-- mesh -->
<g id="node2" class="node">
<title>mesh</title>
<ellipse fill="none" stroke="black" cx="148.47" cy="-117" rx="30.88" ry="18"/>
<text text-anchor="middle" x="148.47" y="-111.95" font-family="Times,serif" font-size="14.00">mesh</text>
</g>
<!-- doid&#45;&#45;mesh -->
<g id="edge1" class="edge">
<title>doid&#45;&#45;mesh</title>
<path fill="none" stroke="black" stroke-width="3.61" d="M46.92,-187.03C68.91,-171.71 105.35,-146.34 127.79,-130.71"/>
<text text-anchor="middle" x="86.09" y="-171.2" font-family="Times,serif" font-size="14.00">6071</text>
</g>
<!-- efo -->
<g id="node3" class="node">
<title>efo</title>
<ellipse fill="none" stroke="black" cx="269.35" cy="-63" rx="27" ry="18"/>
<text text-anchor="middle" x="269.35" y="-57.95" font-family="Times,serif" font-size="14.00">efo</text>
</g>
<!-- doid&#45;&#45;efo -->
<g id="edge2" class="edge">
<title>doid&#45;&#45;efo</title>
<path fill="none" stroke="black" stroke-width="2" d="M34.9,-182.3C46.63,-153.69 74.02,-98.03 117.59,-73.5 156.8,-51.42 211.14,-54.21 242.73,-58.46"/>
<text text-anchor="middle" x="148.47" y="-76.2" font-family="Times,serif" font-size="14.00">3034</text>
</g>
<!-- ncit -->
<g id="node4" class="node">
<title>ncit</title>
<ellipse fill="none" stroke="black" cx="393.1" cy="-144" rx="27" ry="18"/>
<text text-anchor="middle" x="393.1" y="-138.95" font-family="Times,serif" font-size="14.00">ncit</text>
</g>
<!-- doid&#45;&#45;ncit -->
<g id="edge3" class="edge">
<title>doid&#45;&#45;ncit</title>
<path fill="none" stroke="black" stroke-width="3.95" d="M54.09,-204.75C110.24,-213.85 246.62,-229.26 348.1,-186 360.92,-180.53 372.22,-169.54 380.16,-160.17"/>
<text text-anchor="middle" x="210.85" y="-217.2" font-family="Times,serif" font-size="14.00">6704</text>
</g>
<!-- hp -->
<g id="node5" class="node">
<title>hp</title>
<ellipse fill="none" stroke="black" cx="510.1" cy="-178" rx="27" ry="18"/>
<text text-anchor="middle" x="510.1" y="-172.95" font-family="Times,serif" font-size="14.00">hp</text>
</g>
<!-- doid&#45;&#45;hp -->
<g id="edge4" class="edge">
<title>doid&#45;&#45;hp</title>
<path fill="none" stroke="black" stroke-width="1.04" d="M47.65,-212.57C70.53,-226.19 110.21,-246 147.47,-246 147.47,-246 147.47,-246 394.1,-246 435.39,-246 474.86,-213.12 495.08,-193.09"/>
<text text-anchor="middle" x="269.35" y="-249.2" font-family="Times,serif" font-size="14.00">1238</text>
</g>
<!-- mondo -->
<g id="node6" class="node">
<title>mondo</title>
<ellipse fill="none" stroke="black" cx="637.12" cy="-125" rx="37.02" ry="18"/>
<text text-anchor="middle" x="637.12" y="-119.95" font-family="Times,serif" font-size="14.00">mondo</text>
</g>
<!-- doid&#45;&#45;mondo -->
<g id="edge5" class="edge">
<title>doid&#45;&#45;mondo</title>
<path fill="none" stroke="black" stroke-width="7" d="M38.99,-216.27C57.64,-242.44 98.79,-291 147.47,-291 147.47,-291 147.47,-291 511.1,-291 584.52,-291 620.22,-186.1 631.77,-143.08"/>
<text text-anchor="middle" x="331.23" y="-294.2" font-family="Times,serif" font-size="14.00">12436</text>
</g>
<!-- mesh&#45;&#45;efo -->
<g id="edge6" class="edge">
<title>mesh&#45;&#45;efo</title>
<path fill="none" stroke="black" stroke-width="1.78" d="M168.87,-103.09C177.34,-97.44 187.56,-91.15 197.35,-86.5 212.25,-79.43 229.84,-73.59 243.78,-69.5"/>
<text text-anchor="middle" x="210.85" y="-89.2" font-family="Times,serif" font-size="14.00">2617</text>
</g>
<!-- mesh&#45;&#45;ncit -->
<g id="edge7" class="edge">
<title>mesh&#45;&#45;ncit</title>
<path fill="none" stroke="black" stroke-width="2.76" d="M179.32,-119.67C209.02,-122.39 255.87,-126.86 296.35,-131.5 320.17,-134.23 347.25,-137.81 366.52,-140.44"/>
<text text-anchor="middle" x="269.35" y="-134.2" font-family="Times,serif" font-size="14.00">4473</text>
</g>
<!-- mesh&#45;&#45;hp -->
<g id="edge8" class="edge">
<title>mesh&#45;&#45;hp</title>
<path fill="none" stroke="black" stroke-width="2" d="M174.12,-127.42C181.52,-130.38 189.71,-133.47 197.35,-136 300.34,-170.04 329.76,-170.71 438.1,-176 452.88,-176.72 469.41,-177.21 482.79,-177.52"/>
<text text-anchor="middle" x="331.23" y="-173.2" font-family="Times,serif" font-size="14.00">3031</text>
</g>
<!-- mesh&#45;&#45;mondo -->
<g id="edge9" class="edge">
<title>mesh&#45;&#45;mondo</title>
<path fill="none" stroke="black" stroke-width="5.2" d="M169.03,-103.08C172.6,-100.23 176.19,-97.14 179.35,-94 220.2,-53.48 210.82,0 268.35,0 268.35,0 268.35,0 511.1,0 570.95,0 612.16,-72.53 628.4,-107.09"/>
<text text-anchor="middle" x="393.1" y="-3.2" font-family="Times,serif" font-size="14.00">9054</text>
</g>
<!-- efo&#45;&#45;ncit -->
<g id="edge10" class="edge">
<title>efo&#45;&#45;ncit</title>
<path fill="none" stroke="black" stroke-width="2.61" d="M292.29,-72.94C308.33,-80.63 330.3,-92.04 348.1,-104.5 358.53,-111.8 369.18,-121.3 377.39,-129.15"/>
<text text-anchor="middle" x="331.23" y="-107.2" font-family="Times,serif" font-size="14.00">4191</text>
</g>
<!-- efo&#45;&#45;hp -->
<g id="edge11" class="edge">
<title>efo&#45;&#45;hp</title>
<path fill="none" stroke="black" d="M296.29,-65.75C327.24,-69.86 379.83,-79.49 420.1,-100.5 422.2,-101.6 467.74,-141.58 492.85,-163.68"/>
<text text-anchor="middle" x="393.1" y="-103.2" font-family="Times,serif" font-size="14.00">1157</text>
</g>
<!-- efo&#45;&#45;mondo -->
<g id="edge12" class="edge">
<title>efo&#45;&#45;mondo</title>
<path fill="none" stroke="black" stroke-width="2.49" d="M296.67,-62.35C311.76,-62.22 331.02,-62.48 348.1,-64 443.05,-72.47 552.52,-100.98 604.96,-115.83"/>
<text text-anchor="middle" x="451.6" y="-84.2" font-family="Times,serif" font-size="14.00">3954</text>
</g>
<!-- ncit&#45;&#45;hp -->
<g id="edge13" class="edge">
<title>ncit&#45;&#45;hp</title>
<path fill="none" stroke="black" stroke-width="1.21" d="M419.7,-148.41C433.34,-151.06 450.31,-154.82 465.1,-159.5 472.53,-161.85 480.43,-164.97 487.46,-167.97"/>
<text text-anchor="middle" x="451.6" y="-162.2" font-family="Times,serif" font-size="14.00">1543</text>
</g>
<!-- ncit&#45;&#45;mondo -->
<g id="edge14" class="edge">
<title>ncit&#45;&#45;mondo</title>
<path fill="none" stroke="black" stroke-width="5.24" d="M420.16,-140.91C437.89,-138.88 461.89,-136.29 483.1,-134.5 523.02,-131.13 568.89,-128.44 599.92,-126.79"/>
<text text-anchor="middle" x="510.1" y="-137.2" font-family="Times,serif" font-size="14.00">9120</text>
</g>
<!-- hp&#45;&#45;mondo -->
<g id="edge15" class="edge">
<title>hp&#45;&#45;mondo</title>
<path fill="none" stroke="black" stroke-width="1.28" d="M533.45,-168.52C554.38,-159.65 585.73,-146.36 608.28,-136.8"/>
<text text-anchor="middle" x="568.6" y="-162.2" font-family="Times,serif" font-size="14.00">1680</text>
</g>
</g>
</svg>
