<?xml version="1.0" encoding="UTF-8" standalone="no"?>
<!DOCTYPE svg PUBLIC "-//W3C//DTD SVG 1.1//EN"
 "http://www.w3.org/Graphics/SVG/1.1/DTD/svg11.dtd">
<!-- Generated by graphviz version 10.0.1 (20240210.2158)
 -->
<!-- Pages: 1 -->
<svg width="460pt" height="189pt"
 viewBox="0.00 0.00 459.99 188.50" xmlns="http://www.w3.org/2000/svg" xmlns:xlink="http://www.w3.org/1999/xlink">
<g id="graph0" class="graph" transform="scale(1 1) rotate(0) translate(4 184.5)">
<polygon fill="white" stroke="none" points="-4,4 -4,-184.5 455.99,-184.5 455.99,4 -4,4"/>
<!-- doid -->
<g id="node1" class="node">
<title>doid</title>
<ellipse fill="none" stroke="black" cx="27.3" cy="-82" rx="27.3" ry="18"/>
<text text-anchor="middle" x="27.3" y="-76.95" font-family="Times,serif" font-size="14.00">doid</text>
</g>
<!-- mesh -->
<g id="node2" class="node">
<title>mesh</title>
<ellipse fill="none" stroke="black" cx="152.22" cy="-110" rx="30.88" ry="18"/>
<text text-anchor="middle" x="152.22" y="-104.95" font-family="Times,serif" font-size="14.00">mesh</text>
</g>
<!-- doid&#45;&#45;mesh -->
<g id="edge1" class="edge">
<title>doid&#45;&#45;mesh</title>
<path fill="none" stroke="black" stroke-width="1.75" d="M53.47,-87.73C73.7,-92.34 102.1,-98.81 123.08,-103.59"/>
<text text-anchor="middle" x="87.97" y="-101.2" font-family="Times,serif" font-size="14.00">2,810</text>
</g>
<!-- efo -->
<g id="node3" class="node">
<title>efo</title>
<ellipse fill="none" stroke="black" cx="283.9" cy="-97" rx="27" ry="18"/>
<text text-anchor="middle" x="283.9" y="-91.95" font-family="Times,serif" font-size="14.00">efo</text>
</g>
<!-- doid&#45;&#45;efo -->
<g id="edge2" class="edge">
<title>doid&#45;&#45;efo</title>
<path fill="none" stroke="black" stroke-width="1.64" d="M51.51,-73.08C91.16,-59.24 173.89,-36.53 238.6,-60 250.47,-64.3 261.39,-73.34 269.41,-81.4"/>
<text text-anchor="middle" x="152.22" y="-57.2" font-family="Times,serif" font-size="14.00">2,391</text>
</g>
<!-- mondo -->
<g id="node4" class="node">
<title>mondo</title>
<ellipse fill="none" stroke="black" cx="414.96" cy="-151" rx="37.02" ry="18"/>
<text text-anchor="middle" x="414.96" y="-145.95" font-family="Times,serif" font-size="14.00">mondo</text>
</g>
<!-- doid&#45;&#45;mondo -->
<g id="edge3" class="edge">
<title>doid&#45;&#45;mondo</title>
<path fill="none" stroke="black" stroke-width="4" d="M43.3,-96.77C51.46,-104.18 62.01,-112.88 72.59,-119 92.58,-130.57 99.12,-130.72 121.34,-137 223.87,-165.97 254.22,-173.12 359.94,-160 366.36,-159.2 373.18,-158.2 379.73,-157.14"/>
<text text-anchor="middle" x="219.85" y="-167.2" font-family="Times,serif" font-size="14.00">11,234</text>
</g>
<!-- gard -->
<g id="node5" class="node">
<title>gard</title>
<ellipse fill="none" stroke="black" cx="283.9" cy="-18" rx="27.3" ry="18"/>
<text text-anchor="middle" x="283.9" y="-12.95" font-family="Times,serif" font-size="14.00">gard</text>
</g>
<!-- doid&#45;&#45;gard -->
<g id="edge4" class="edge">
<title>doid&#45;&#45;gard</title>
<path fill="none" stroke="black" stroke-width="1.01" d="M45.63,-68.47C63.47,-55.44 92.64,-36.55 121.34,-28.5 167.48,-15.56 223.83,-15.2 256.31,-16.4"/>
<text text-anchor="middle" x="152.22" y="-31.2" font-family="Times,serif" font-size="14.00">30</text>
</g>
<!-- mesh&#45;&#45;efo -->
<g id="edge5" class="edge">
<title>mesh&#45;&#45;efo</title>
<path fill="none" stroke="black" stroke-width="1.59" d="M182.97,-107.02C205.25,-104.78 235.45,-101.76 256.8,-99.62"/>
<text text-anchor="middle" x="219.85" y="-108.2" font-family="Times,serif" font-size="14.00">2,193</text>
</g>
<!-- mesh&#45;&#45;mondo -->
<g id="edge6" class="edge">
<title>mesh&#45;&#45;mondo</title>
<path fill="none" stroke="black" stroke-width="3.22" d="M178.79,-119.62C185.93,-122.01 193.75,-124.36 201.1,-126 262.29,-139.66 335.15,-146.17 377.81,-149.02"/>
<text text-anchor="middle" x="283.9" y="-146.2" font-family="Times,serif" font-size="14.00">8,332</text>
</g>
<!-- mesh&#45;&#45;gard -->
<g id="edge7" class="edge">
<title>mesh&#45;&#45;gard</title>
<path fill="none" stroke="black" stroke-width="1.01" d="M172.64,-96.23C197.51,-78.58 240.3,-48.22 264.61,-30.97"/>
<text text-anchor="middle" x="219.85" y="-77.2" font-family="Times,serif" font-size="14.00">21</text>
</g>
<!-- efo&#45;&#45;mondo -->
<g id="edge8" class="edge">
<title>efo&#45;&#45;mondo</title>
<path fill="none" stroke="black" stroke-width="1.86" d="M309.71,-103.35C324.56,-107.5 343.66,-113.45 359.94,-120.5 370.62,-125.12 381.9,-131.27 391.38,-136.84"/>
<text text-anchor="middle" x="344.57" y="-123.2" font-family="Times,serif" font-size="14.00">3,230</text>
</g>
</g>
</svg>
