<?xml version="1.0" encoding="UTF-8" standalone="no"?>
<!DOCTYPE svg PUBLIC "-//W3C//DTD SVG 1.1//EN"
 "http://www.w3.org/Graphics/SVG/1.1/DTD/svg11.dtd">
<!-- Generated by graphviz version 10.0.1 (20240210.2158)
 -->
<!-- Pages: 1 -->
<svg width="559pt" height="259pt"
 viewBox="0.00 0.00 558.99 258.50" xmlns="http://www.w3.org/2000/svg" xmlns:xlink="http://www.w3.org/1999/xlink">
<g id="graph0" class="graph" transform="scale(1 1) rotate(0) translate(4 254.5)">
<polygon fill="white" stroke="none" points="-4,4 -4,-254.5 554.99,-254.5 554.99,4 -4,4"/>
<!-- fplx -->
<g id="node1" class="node">
<title>fplx</title>
<ellipse fill="none" stroke="black" cx="27" cy="-145" rx="27" ry="18"/>
<text text-anchor="middle" x="27" y="-139.95" font-family="Times,serif" font-size="14.00">fplx</text>
</g>
<!-- fplx&#45;&#45;fplx -->
<g id="edge1" class="edge">
<title>fplx&#45;&#45;fplx</title>
<path fill="none" stroke="black" stroke-width="1.51" d="M17.76,-162.41C16.04,-172.09 19.12,-181 27,-181 34.88,-181 37.96,-172.09 36.24,-162.41"/>
<text text-anchor="middle" x="27" y="-184.2" font-family="Times,serif" font-size="14.00">782</text>
</g>
<!-- scomp -->
<g id="node2" class="node">
<title>scomp</title>
<ellipse fill="none" stroke="black" cx="138.99" cy="-145" rx="35.49" ry="18"/>
<text text-anchor="middle" x="138.99" y="-139.95" font-family="Times,serif" font-size="14.00">scomp</text>
</g>
<!-- fplx&#45;&#45;scomp -->
<g id="edge2" class="edge">
<title>fplx&#45;&#45;scomp</title>
<path fill="none" stroke="black" stroke-width="1.04" d="M54.34,-145C68.96,-145 87.32,-145 103.12,-145"/>
<text text-anchor="middle" x="78.75" y="-148.2" font-family="Times,serif" font-size="14.00">66</text>
</g>
<!-- go -->
<g id="node3" class="node">
<title>go</title>
<ellipse fill="none" stroke="black" cx="295.38" cy="-198" rx="27" ry="18"/>
<text text-anchor="middle" x="295.38" y="-192.95" font-family="Times,serif" font-size="14.00">go</text>
</g>
<!-- fplx&#45;&#45;go -->
<g id="edge3" class="edge">
<title>fplx&#45;&#45;go</title>
<path fill="none" stroke="black" stroke-width="1.05" d="M41.16,-160.51C54.94,-175.43 78.08,-197.01 103.5,-206 160.41,-226.12 232.88,-213.59 270.02,-204.66"/>
<text text-anchor="middle" x="138.99" y="-220.2" font-family="Times,serif" font-size="14.00">82</text>
</g>
<!-- wikidata -->
<g id="node4" class="node">
<title>wikidata</title>
<ellipse fill="none" stroke="black" cx="488.89" cy="-122" rx="42.65" ry="18"/>
<text text-anchor="middle" x="488.89" y="-116.95" font-family="Times,serif" font-size="14.00">wikidata</text>
</g>
<!-- fplx&#45;&#45;wikidata -->
<g id="edge4" class="edge">
<title>fplx&#45;&#45;wikidata</title>
<path fill="none" stroke="black" stroke-width="1.26" d="M49.92,-134.9C64.7,-128.65 84.85,-121.24 103.5,-118 227.45,-96.5 377.27,-108.83 447.66,-116.83"/>
<text text-anchor="middle" x="202.6" y="-111.2" font-family="Times,serif" font-size="14.00">399</text>
</g>
<!-- scomp&#45;&#45;scomp -->
<g id="edge5" class="edge">
<title>scomp&#45;&#45;scomp</title>
<path fill="none" stroke="black" stroke-width="1.09" d="M128.23,-162.41C126.22,-172.09 129.81,-181 138.99,-181 148.16,-181 151.75,-172.09 149.74,-162.41"/>
<text text-anchor="middle" x="138.99" y="-184.2" font-family="Times,serif" font-size="14.00">135</text>
</g>
<!-- scomp&#45;&#45;go -->
<g id="edge6" class="edge">
<title>scomp&#45;&#45;go</title>
<path fill="none" stroke="black" stroke-width="1.02" d="M169.03,-154.97C198.55,-165.1 243.72,-180.61 271.02,-189.98"/>
<text text-anchor="middle" x="202.6" y="-173.2" font-family="Times,serif" font-size="14.00">31</text>
</g>
<!-- scomp&#45;&#45;wikidata -->
<g id="edge7" class="edge">
<title>scomp&#45;&#45;wikidata</title>
<path fill="none" stroke="black" stroke-width="1.04" d="M174.62,-142.71C239.07,-138.45 377.16,-129.32 446.45,-124.74"/>
<text text-anchor="middle" x="295.38" y="-142.2" font-family="Times,serif" font-size="14.00">60</text>
</g>
<!-- go&#45;&#45;go -->
<g id="edge8" class="edge">
<title>go&#45;&#45;go</title>
<path fill="none" stroke="black" stroke-width="3.5" d="M279.68,-213.17C274.92,-223.66 280.16,-234 295.38,-234 310.6,-234 315.83,-223.66 311.08,-213.17"/>
<text text-anchor="middle" x="295.38" y="-237.2" font-family="Times,serif" font-size="14.00">3,852</text>
</g>
<!-- go&#45;&#45;wikidata -->
<g id="edge9" class="edge">
<title>go&#45;&#45;wikidata</title>
<path fill="none" stroke="black" stroke-width="1.04" d="M320.33,-190.49C343.27,-183.11 378.74,-171.2 408.79,-159 426.21,-151.93 445.31,-143.02 460.38,-135.73"/>
<text text-anchor="middle" x="393.41" y="-174.2" font-family="Times,serif" font-size="14.00">60</text>
</g>
<!-- complexportal -->
<g id="node5" class="node">
<title>complexportal</title>
<ellipse fill="none" stroke="black" cx="295.38" cy="-18" rx="64.66" ry="18"/>
<text text-anchor="middle" x="295.38" y="-12.95" font-family="Times,serif" font-size="14.00">complexportal</text>
</g>
<!-- complexportal&#45;&#45;wikidata -->
<g id="edge12" class="edge">
<title>complexportal&#45;&#45;wikidata</title>
<path fill="none" stroke="black" stroke-width="3.56" d="M333.87,-32.93C356.11,-42.25 384.59,-55.01 408.79,-68.5 429.21,-79.88 451.13,-94.95 466.7,-106.2"/>
<text text-anchor="middle" x="393.41" y="-72.2" font-family="Times,serif" font-size="14.00">3,948</text>
</g>
<!-- complexportal&#45;&#45;complexportal -->
<g id="edge10" class="edge">
<title>complexportal&#45;&#45;complexportal</title>
<path fill="none" stroke="black" stroke-width="4" d="M278.7,-35.78C275.87,-45.31 281.43,-54 295.38,-54 309.33,-54 314.89,-45.31 312.06,-35.78"/>
<text text-anchor="middle" x="295.38" y="-57.2" font-family="Times,serif" font-size="14.00">4,623</text>
</g>
<!-- chembl.target -->
<g id="node6" class="node">
<title>chembl.target</title>
<ellipse fill="none" stroke="black" cx="488.89" cy="-18" rx="62.1" ry="18"/>
<text text-anchor="middle" x="488.89" y="-12.95" font-family="Times,serif" font-size="14.00">chembl.target</text>
</g>
<!-- complexportal&#45;&#45;chembl.target -->
<g id="edge11" class="edge">
<title>complexportal&#45;&#45;chembl.target</title>
<path fill="none" stroke="black" stroke-width="1.13" d="M360.41,-18C381.73,-18 405.4,-18 426.51,-18"/>
<text text-anchor="middle" x="393.41" y="-21.2" font-family="Times,serif" font-size="14.00">204</text>
</g>
</g>
</svg>
