<?xml version="1.0" encoding="UTF-8" standalone="no"?>
<!DOCTYPE svg PUBLIC "-//W3C//DTD SVG 1.1//EN"
 "http://www.w3.org/Graphics/SVG/1.1/DTD/svg11.dtd">
<!-- Generated by graphviz version 10.0.1 (20240210.2158)
 -->
<!-- Pages: 1 -->
<svg width="942pt" height="424pt"
 viewBox="0.00 0.00 942.47 423.50" xmlns="http://www.w3.org/2000/svg" xmlns:xlink="http://www.w3.org/1999/xlink">
<g id="graph0" class="graph" transform="scale(1 1) rotate(0) translate(4 419.5)">
<polygon fill="white" stroke="none" points="-4,4 -4,-419.5 938.47,-419.5 938.47,4 -4,4"/>
<!-- fplx
782 -->
<g id="node1" class="node">
<title>fplx
782</title>
<ellipse fill="none" stroke="black" cx="27" cy="-291" rx="27" ry="28.99"/>
<text text-anchor="middle" x="27" y="-294.2" font-family="Times,serif" font-size="14.00">fplx</text>
<text text-anchor="middle" x="27" y="-277.7" font-family="Times,serif" font-size="14.00">782</text>
</g>
<!-- scomp
135 -->
<g id="node2" class="node">
<title>scomp
135</title>
<ellipse fill="none" stroke="black" cx="140.27" cy="-195" rx="36.77" ry="28.99"/>
<text text-anchor="middle" x="140.27" y="-198.2" font-family="Times,serif" font-size="14.00">scomp</text>
<text text-anchor="middle" x="140.27" y="-181.7" font-family="Times,serif" font-size="14.00">135</text>
</g>
<!-- fplx
782&#45;&#45;scomp
135 -->
<g id="edge1" class="edge">
<title>fplx
782&#45;&#45;scomp
135</title>
<path fill="none" stroke="black" d="M48.67,-273.17C67.4,-257.01 95.02,-233.18 114.83,-216.08"/>
<text text-anchor="middle" x="78.75" y="-254.2" font-family="Times,serif" font-size="14.00">66</text>
</g>
<!-- signor
355 -->
<g id="node3" class="node">
<title>signor
355</title>
<ellipse fill="none" stroke="black" cx="261.72" cy="-114" rx="35.18" ry="28.99"/>
<text text-anchor="middle" x="261.72" y="-117.2" font-family="Times,serif" font-size="14.00">signor</text>
<text text-anchor="middle" x="261.72" y="-100.7" font-family="Times,serif" font-size="14.00">355</text>
</g>
<!-- fplx
782&#45;&#45;signor
355 -->
<g id="edge2" class="edge">
<title>fplx
782&#45;&#45;signor
355</title>
<path fill="none" stroke="black" d="M33.99,-262.67C42.88,-228.05 63.06,-170.38 103.5,-140.5 139.23,-114.1 191.95,-110.38 226.32,-111.29"/>
<text text-anchor="middle" x="140.27" y="-143.2" font-family="Times,serif" font-size="14.00">118</text>
</g>
<!-- go
57 -->
<g id="node4" class="node">
<title>go
57</title>
<ellipse fill="none" stroke="black" cx="373.4" cy="-107" rx="27" ry="28.99"/>
<text text-anchor="middle" x="373.4" y="-110.2" font-family="Times,serif" font-size="14.00">go</text>
<text text-anchor="middle" x="373.4" y="-93.7" font-family="Times,serif" font-size="14.00">57</text>
</g>
<!-- fplx
782&#45;&#45;go
57 -->
<g id="edge3" class="edge">
<title>fplx
782&#45;&#45;go
57</title>
<path fill="none" stroke="black" d="M30.58,-262.02C36.03,-220.22 52.74,-144.16 103.5,-109 175.18,-59.35 211.35,-59.12 296.9,-76 314.97,-79.57 334.16,-87.5 348.66,-94.45"/>
<text text-anchor="middle" x="201.79" y="-71.2" font-family="Times,serif" font-size="14.00">54</text>
</g>
<!-- complexportal
4,623 -->
<g id="node5" class="node">
<title>complexportal
4,623</title>
<ellipse fill="none" stroke="black" cx="516.89" cy="-206" rx="67" ry="28.99"/>
<text text-anchor="middle" x="516.89" y="-209.2" font-family="Times,serif" font-size="14.00">complexportal</text>
<text text-anchor="middle" x="516.89" y="-192.7" font-family="Times,serif" font-size="14.00">4,623</text>
</g>
<!-- fplx
782&#45;&#45;complexportal
4,623 -->
<g id="edge4" class="edge">
<title>fplx
782&#45;&#45;complexportal
4,623</title>
<path fill="none" stroke="black" d="M53.46,-297.14C75.91,-302.01 109.57,-308 139.27,-308 139.27,-308 139.27,-308 374.4,-308 425.27,-308 470.31,-264.07 495.26,-233.87"/>
<text text-anchor="middle" x="261.72" y="-311.2" font-family="Times,serif" font-size="14.00">7</text>
</g>
<!-- intact
3,326 -->
<g id="node6" class="node">
<title>intact
3,326</title>
<ellipse fill="none" stroke="black" cx="714.99" cy="-228" rx="33.06" ry="28.99"/>
<text text-anchor="middle" x="714.99" y="-231.2" font-family="Times,serif" font-size="14.00">intact</text>
<text text-anchor="middle" x="714.99" y="-214.7" font-family="Times,serif" font-size="14.00">3,326</text>
</g>
<!-- fplx
782&#45;&#45;intact
3,326 -->
<g id="edge5" class="edge">
<title>fplx
782&#45;&#45;intact
3,326</title>
<path fill="none" stroke="black" d="M47.5,-309.94C68.4,-328.17 103.44,-353 139.27,-353 139.27,-353 139.27,-353 517.89,-353 589.43,-353 589.54,-299.19 650.64,-262 661.94,-255.12 674.75,-248.11 685.87,-242.25"/>
<text text-anchor="middle" x="321.65" y="-356.2" font-family="Times,serif" font-size="14.00">5</text>
</g>
<!-- wikidata
4,339 -->
<g id="node7" class="node">
<title>wikidata
4,339</title>
<ellipse fill="none" stroke="black" cx="890.28" cy="-136" rx="44.19" ry="28.99"/>
<text text-anchor="middle" x="890.28" y="-139.2" font-family="Times,serif" font-size="14.00">wikidata</text>
<text text-anchor="middle" x="890.28" y="-122.7" font-family="Times,serif" font-size="14.00">4,339</text>
</g>
<!-- fplx
782&#45;&#45;wikidata
4,339 -->
<g id="edge6" class="edge">
<title>fplx
782&#45;&#45;wikidata
4,339</title>
<path fill="none" stroke="black" d="M40.22,-316.59C57.46,-348.53 92.16,-399 139.27,-399 139.27,-399 139.27,-399 715.99,-399 826.99,-399 870.92,-233.63 884.35,-165.15"/>
<text text-anchor="middle" x="373.4" y="-402.2" font-family="Times,serif" font-size="14.00">399</text>
</g>
<!-- scomp
135&#45;&#45;signor
355 -->
<g id="edge7" class="edge">
<title>scomp
135&#45;&#45;signor
355</title>
<path fill="none" stroke="black" d="M164.41,-172.93C173.57,-164.76 184.43,-155.73 195.04,-148.5 206.11,-140.95 219.02,-133.85 230.46,-128.06"/>
<text text-anchor="middle" x="201.79" y="-151.2" font-family="Times,serif" font-size="14.00">14</text>
</g>
<!-- scomp
135&#45;&#45;go
57 -->
<g id="edge8" class="edge">
<title>scomp
135&#45;&#45;go
57</title>
<path fill="none" stroke="black" d="M176.48,-188.1C208.63,-181.15 257.07,-169.01 296.9,-152 315.7,-143.97 335.51,-132.02 350.11,-122.45"/>
<text text-anchor="middle" x="261.72" y="-178.2" font-family="Times,serif" font-size="14.00">28</text>
</g>
<!-- scomp
135&#45;&#45;complexportal
4,623 -->
<g id="edge9" class="edge">
<title>scomp
135&#45;&#45;complexportal
4,623</title>
<path fill="none" stroke="black" d="M177.19,-196.05C239.91,-197.9 370.29,-201.72 449.73,-204.06"/>
<text text-anchor="middle" x="321.65" y="-203.2" font-family="Times,serif" font-size="14.00">2</text>
</g>
<!-- scomp
135&#45;&#45;intact
3,326 -->
<g id="edge10" class="edge">
<title>scomp
135&#45;&#45;intact
3,326</title>
<path fill="none" stroke="black" d="M174.94,-205.17C181.56,-206.95 188.49,-208.66 195.04,-210 364.98,-244.86 410.64,-252.86 583.89,-244 617.53,-242.28 655.75,-237.2 682.02,-233.22"/>
<text text-anchor="middle" x="373.4" y="-247.2" font-family="Times,serif" font-size="14.00">2</text>
</g>
<!-- scomp
135&#45;&#45;wikidata
4,339 -->
<g id="edge11" class="edge">
<title>scomp
135&#45;&#45;wikidata
4,339</title>
<path fill="none" stroke="black" d="M165.71,-173.57C169.7,-169.58 173.64,-165.3 177.04,-161 204.15,-126.71 194.91,-106.18 226.54,-76 279.43,-25.54 299.3,0 372.4,0 372.4,0 372.4,0 715.99,0 785.98,0 844.46,-69.5 872.12,-109.13"/>
<text text-anchor="middle" x="425.15" y="-3.2" font-family="Times,serif" font-size="14.00">60</text>
</g>
<!-- signor
355&#45;&#45;go
57 -->
<g id="edge12" class="edge">
<title>signor
355&#45;&#45;go
57</title>
<path fill="none" stroke="black" d="M297.12,-111.8C312.95,-110.79 331.43,-109.61 346.12,-108.68"/>
<text text-anchor="middle" x="321.65" y="-113.2" font-family="Times,serif" font-size="14.00">11</text>
</g>
<!-- signor
355&#45;&#45;complexportal
4,623 -->
<g id="edge13" class="edge">
<title>signor
355&#45;&#45;complexportal
4,623</title>
<path fill="none" stroke="black" d="M294.08,-125.7C309.78,-131.53 329.08,-138.68 346.4,-145 385.91,-159.43 430.69,-175.53 464.3,-187.57"/>
<text text-anchor="middle" x="373.4" y="-166.2" font-family="Times,serif" font-size="14.00">266</text>
</g>
<!-- signor
355&#45;&#45;wikidata
4,339 -->
<g id="edge14" class="edge">
<title>signor
355&#45;&#45;wikidata
4,339</title>
<path fill="none" stroke="black" d="M284.91,-91.62C305.65,-73.16 338.45,-50 372.4,-50 372.4,-50 372.4,-50 715.99,-50 772.75,-50 830.09,-87.48 862.51,-112.95"/>
<text text-anchor="middle" x="516.89" y="-53.2" font-family="Times,serif" font-size="14.00">86</text>
</g>
<!-- go
57&#45;&#45;complexportal
4,623 -->
<g id="edge15" class="edge">
<title>go
57&#45;&#45;complexportal
4,623</title>
<path fill="none" stroke="black" d="M396.03,-123.13C411.03,-134.22 431.54,-149.2 449.9,-162 459.27,-168.54 469.51,-175.46 479.06,-181.83"/>
<text text-anchor="middle" x="425.15" y="-151.2" font-family="Times,serif" font-size="14.00">4</text>
</g>
<!-- go
57&#45;&#45;intact
3,326 -->
<g id="edge16" class="edge">
<title>go
57&#45;&#45;intact
3,326</title>
<path fill="none" stroke="black" d="M400.58,-111.12C458.3,-120.59 594.43,-145.05 632.64,-171 642.27,-177.53 641.57,-182.72 650.64,-190 661.54,-198.75 674.65,-206.94 686.1,-213.46"/>
<text text-anchor="middle" x="516.89" y="-153.2" font-family="Times,serif" font-size="14.00">7</text>
</g>
<!-- go
57&#45;&#45;wikidata
4,339 -->
<g id="edge17" class="edge">
<title>go
57&#45;&#45;wikidata
4,339</title>
<path fill="none" stroke="black" d="M400.55,-105.83C465.1,-103.29 637.07,-98.66 779.34,-114 802.37,-116.48 827.74,-121.41 848.31,-125.97"/>
<text text-anchor="middle" x="617.27" y="-107.2" font-family="Times,serif" font-size="14.00">46</text>
</g>
<!-- complexportal
4,623&#45;&#45;intact
3,326 -->
<g id="edge18" class="edge">
<title>complexportal
4,623&#45;&#45;intact
3,326</title>
<path fill="none" stroke="black" d="M582.1,-213.2C615.5,-216.95 654.87,-221.37 681.85,-224.39"/>
<text text-anchor="middle" x="617.27" y="-221.2" font-family="Times,serif" font-size="14.00">3,326</text>
</g>
<!-- complexportal
4,623&#45;&#45;wikidata
4,339 -->
<g id="edge20" class="edge">
<title>complexportal
4,623&#45;&#45;wikidata
4,339</title>
<path fill="none" stroke="black" d="M556.3,-229.77C608.75,-258.96 704.78,-300.59 779.34,-266 824.65,-244.98 858.05,-195.06 875.52,-163.55"/>
<text text-anchor="middle" x="714.99" y="-282.2" font-family="Times,serif" font-size="14.00">3,948</text>
</g>
<!-- chembl.target
192 -->
<g id="node8" class="node">
<title>chembl.target
192</title>
<ellipse fill="none" stroke="black" cx="714.99" cy="-152" rx="64.35" ry="28.99"/>
<text text-anchor="middle" x="714.99" y="-155.2" font-family="Times,serif" font-size="14.00">chembl.target</text>
<text text-anchor="middle" x="714.99" y="-138.7" font-family="Times,serif" font-size="14.00">192</text>
</g>
<!-- complexportal
4,623&#45;&#45;chembl.target
192 -->
<g id="edge19" class="edge">
<title>complexportal
4,623&#45;&#45;chembl.target
192</title>
<path fill="none" stroke="black" d="M574.09,-190.53C600.91,-183.14 632.88,-174.34 659.48,-167.01"/>
<text text-anchor="middle" x="617.27" y="-185.2" font-family="Times,serif" font-size="14.00">204</text>
</g>
<!-- intact
3,326&#45;&#45;wikidata
4,339 -->
<g id="edge21" class="edge">
<title>intact
3,326&#45;&#45;wikidata
4,339</title>
<path fill="none" stroke="black" d="M743.83,-213.22C774.16,-197.12 822.69,-171.35 855.26,-154.06"/>
<text text-anchor="middle" x="812.71" y="-187.2" font-family="Times,serif" font-size="14.00">1,941</text>
</g>
</g>
</svg>
