<?xml version="1.0" encoding="UTF-8" standalone="no"?>
<!DOCTYPE svg PUBLIC "-//W3C//DTD SVG 1.1//EN"
 "http://www.w3.org/Graphics/SVG/1.1/DTD/svg11.dtd">
<!-- Generated by graphviz version 10.0.1 (20240210.2158)
 -->
<!-- Pages: 1 -->
<svg width="955pt" height="424pt"
 viewBox="0.00 0.00 954.59 423.50" xmlns="http://www.w3.org/2000/svg" xmlns:xlink="http://www.w3.org/1999/xlink">
<g id="graph0" class="graph" transform="scale(1 1) rotate(0) translate(4 419.5)">
<polygon fill="white" stroke="none" points="-4,4 -4,-419.5 950.59,-419.5 950.59,4 -4,4"/>
<!-- fplx
782 -->
<g id="node1" class="node">
<title>fplx
782</title>
<ellipse fill="none" stroke="black" cx="27" cy="-291" rx="27" ry="28.99"/>
<text text-anchor="middle" x="27" y="-294.2" font-family="Times,serif" font-size="14.00">fplx</text>
<text text-anchor="middle" x="27" y="-277.7" font-family="Times,serif" font-size="14.00">782</text>
</g>
<!-- scomp
135 -->
<g id="node2" class="node">
<title>scomp
135</title>
<ellipse fill="none" stroke="black" cx="140.27" cy="-195" rx="36.77" ry="28.99"/>
<text text-anchor="middle" x="140.27" y="-198.2" font-family="Times,serif" font-size="14.00">scomp</text>
<text text-anchor="middle" x="140.27" y="-181.7" font-family="Times,serif" font-size="14.00">135</text>
</g>
<!-- fplx
782&#45;&#45;scomp
135 -->
<g id="edge1" class="edge">
<title>fplx
782&#45;&#45;scomp
135</title>
<path fill="none" stroke="black" d="M48.67,-273.17C67.4,-257.01 95.02,-233.18 114.83,-216.08"/>
<text text-anchor="middle" x="78.75" y="-254.2" font-family="Times,serif" font-size="14.00">66</text>
</g>
<!-- signor
355 -->
<g id="node3" class="node">
<title>signor
355</title>
<ellipse fill="none" stroke="black" cx="261.72" cy="-114" rx="35.18" ry="28.99"/>
<text text-anchor="middle" x="261.72" y="-117.2" font-family="Times,serif" font-size="14.00">signor</text>
<text text-anchor="middle" x="261.72" y="-100.7" font-family="Times,serif" font-size="14.00">355</text>
</g>
<!-- fplx
782&#45;&#45;signor
355 -->
<g id="edge2" class="edge">
<title>fplx
782&#45;&#45;signor
355</title>
<path fill="none" stroke="black" d="M33.99,-262.67C42.88,-228.05 63.06,-170.38 103.5,-140.5 139.23,-114.1 191.95,-110.38 226.32,-111.29"/>
<text text-anchor="middle" x="140.27" y="-143.2" font-family="Times,serif" font-size="14.00">118</text>
</g>
<!-- go
2,117 -->
<g id="node4" class="node">
<title>go
2,117</title>
<ellipse fill="none" stroke="black" cx="379.45" cy="-107" rx="33.06" ry="28.99"/>
<text text-anchor="middle" x="379.45" y="-110.2" font-family="Times,serif" font-size="14.00">go</text>
<text text-anchor="middle" x="379.45" y="-93.7" font-family="Times,serif" font-size="14.00">2,117</text>
</g>
<!-- fplx
782&#45;&#45;go
2,117 -->
<g id="edge3" class="edge">
<title>fplx
782&#45;&#45;go
2,117</title>
<path fill="none" stroke="black" d="M30.58,-262.02C36.03,-220.22 52.74,-144.16 103.5,-109 175.18,-59.35 211.13,-60.25 296.9,-76 315.22,-79.37 334.76,-86.65 350.13,-93.32"/>
<text text-anchor="middle" x="201.79" y="-71.2" font-family="Times,serif" font-size="14.00">54</text>
</g>
<!-- complexportal
4,623 -->
<g id="node5" class="node">
<title>complexportal
4,623</title>
<ellipse fill="none" stroke="black" cx="529.01" cy="-206" rx="67" ry="28.99"/>
<text text-anchor="middle" x="529.01" y="-209.2" font-family="Times,serif" font-size="14.00">complexportal</text>
<text text-anchor="middle" x="529.01" y="-192.7" font-family="Times,serif" font-size="14.00">4,623</text>
</g>
<!-- fplx
782&#45;&#45;complexportal
4,623 -->
<g id="edge4" class="edge">
<title>fplx
782&#45;&#45;complexportal
4,623</title>
<path fill="none" stroke="black" d="M53.46,-297.14C75.91,-302.01 109.57,-308 139.27,-308 139.27,-308 139.27,-308 380.45,-308 432.93,-308 480.25,-263.81 506.47,-233.6"/>
<text text-anchor="middle" x="261.72" y="-311.2" font-family="Times,serif" font-size="14.00">7</text>
</g>
<!-- intact
3,326 -->
<g id="node6" class="node">
<title>intact
3,326</title>
<ellipse fill="none" stroke="black" cx="727.1" cy="-228" rx="33.06" ry="28.99"/>
<text text-anchor="middle" x="727.1" y="-231.2" font-family="Times,serif" font-size="14.00">intact</text>
<text text-anchor="middle" x="727.1" y="-214.7" font-family="Times,serif" font-size="14.00">3,326</text>
</g>
<!-- fplx
782&#45;&#45;intact
3,326 -->
<g id="edge5" class="edge">
<title>fplx
782&#45;&#45;intact
3,326</title>
<path fill="none" stroke="black" d="M47.5,-309.94C68.4,-328.17 103.44,-353 139.27,-353 139.27,-353 139.27,-353 530.01,-353 601.54,-353 601.65,-299.19 662.76,-262 674.06,-255.12 686.86,-248.11 697.99,-242.25"/>
<text text-anchor="middle" x="321.65" y="-356.2" font-family="Times,serif" font-size="14.00">5</text>
</g>
<!-- wikidata
4,339 -->
<g id="node7" class="node">
<title>wikidata
4,339</title>
<ellipse fill="none" stroke="black" cx="902.4" cy="-136" rx="44.19" ry="28.99"/>
<text text-anchor="middle" x="902.4" y="-139.2" font-family="Times,serif" font-size="14.00">wikidata</text>
<text text-anchor="middle" x="902.4" y="-122.7" font-family="Times,serif" font-size="14.00">4,339</text>
</g>
<!-- fplx
782&#45;&#45;wikidata
4,339 -->
<g id="edge6" class="edge">
<title>fplx
782&#45;&#45;wikidata
4,339</title>
<path fill="none" stroke="black" d="M40.22,-316.59C57.46,-348.53 92.16,-399 139.27,-399 139.27,-399 139.27,-399 728.1,-399 839.11,-399 883.03,-233.63 896.46,-165.15"/>
<text text-anchor="middle" x="379.45" y="-402.2" font-family="Times,serif" font-size="14.00">399</text>
</g>
<!-- scomp
135&#45;&#45;signor
355 -->
<g id="edge7" class="edge">
<title>scomp
135&#45;&#45;signor
355</title>
<path fill="none" stroke="black" d="M164.41,-172.93C173.57,-164.76 184.43,-155.73 195.04,-148.5 206.11,-140.95 219.02,-133.85 230.46,-128.06"/>
<text text-anchor="middle" x="201.79" y="-151.2" font-family="Times,serif" font-size="14.00">14</text>
</g>
<!-- scomp
135&#45;&#45;go
2,117 -->
<g id="edge8" class="edge">
<title>scomp
135&#45;&#45;go
2,117</title>
<path fill="none" stroke="black" d="M176.35,-187.79C208.41,-180.62 256.79,-168.34 296.9,-152 316.07,-144.19 336.46,-132.94 352.05,-123.64"/>
<text text-anchor="middle" x="261.72" y="-178.2" font-family="Times,serif" font-size="14.00">28</text>
</g>
<!-- scomp
135&#45;&#45;complexportal
4,623 -->
<g id="edge9" class="edge">
<title>scomp
135&#45;&#45;complexportal
4,623</title>
<path fill="none" stroke="black" d="M177.31,-196.02C242.19,-197.87 379.54,-201.78 461.78,-204.12"/>
<text text-anchor="middle" x="321.65" y="-203.2" font-family="Times,serif" font-size="14.00">2</text>
</g>
<!-- scomp
135&#45;&#45;intact
3,326 -->
<g id="edge10" class="edge">
<title>scomp
135&#45;&#45;intact
3,326</title>
<path fill="none" stroke="black" d="M174.93,-205.2C181.56,-206.98 188.48,-208.68 195.04,-210 370.34,-245.42 417.39,-253.14 596.01,-244 629.64,-242.28 667.87,-237.2 694.14,-233.22"/>
<text text-anchor="middle" x="379.45" y="-248.2" font-family="Times,serif" font-size="14.00">2</text>
</g>
<!-- scomp
135&#45;&#45;wikidata
4,339 -->
<g id="edge11" class="edge">
<title>scomp
135&#45;&#45;wikidata
4,339</title>
<path fill="none" stroke="black" d="M165.71,-173.57C169.7,-169.58 173.64,-165.3 177.04,-161 204.15,-126.71 194.66,-105.92 226.54,-76 281.59,-24.34 302.96,0 378.45,0 378.45,0 378.45,0 728.1,0 798.09,0 856.57,-69.5 884.23,-109.13"/>
<text text-anchor="middle" x="437.26" y="-3.2" font-family="Times,serif" font-size="14.00">60</text>
</g>
<!-- signor
355&#45;&#45;go
2,117 -->
<g id="edge12" class="edge">
<title>signor
355&#45;&#45;go
2,117</title>
<path fill="none" stroke="black" d="M297.13,-111.92C312.72,-110.98 331.05,-109.87 346.35,-108.94"/>
<text text-anchor="middle" x="321.65" y="-113.2" font-family="Times,serif" font-size="14.00">11</text>
</g>
<!-- signor
355&#45;&#45;complexportal
4,623 -->
<g id="edge13" class="edge">
<title>signor
355&#45;&#45;complexportal
4,623</title>
<path fill="none" stroke="black" d="M294.03,-125.86C309.71,-131.73 329.01,-138.86 346.4,-145 389.36,-160.17 438.36,-176.57 474.62,-188.55"/>
<text text-anchor="middle" x="379.45" y="-169.2" font-family="Times,serif" font-size="14.00">266</text>
</g>
<!-- signor
355&#45;&#45;wikidata
4,339 -->
<g id="edge14" class="edge">
<title>signor
355&#45;&#45;wikidata
4,339</title>
<path fill="none" stroke="black" d="M285.5,-92.33C307.49,-73.77 342.64,-50 378.45,-50 378.45,-50 378.45,-50 728.1,-50 784.87,-50 842.21,-87.48 874.62,-112.95"/>
<text text-anchor="middle" x="529.01" y="-53.2" font-family="Times,serif" font-size="14.00">86</text>
</g>
<!-- go
2,117&#45;&#45;complexportal
4,623 -->
<g id="edge15" class="edge">
<title>go
2,117&#45;&#45;complexportal
4,623</title>
<path fill="none" stroke="black" d="M406.14,-124.37C422.19,-135.21 443.29,-149.45 462.01,-162 471.5,-168.37 481.78,-175.23 491.33,-181.6"/>
<text text-anchor="middle" x="437.26" y="-151.2" font-family="Times,serif" font-size="14.00">4</text>
</g>
<!-- go
2,117&#45;&#45;intact
3,326 -->
<g id="edge16" class="edge">
<title>go
2,117&#45;&#45;intact
3,326</title>
<path fill="none" stroke="black" d="M412.31,-111.84C473.94,-121.66 606.77,-145.21 644.76,-171 654.38,-177.53 653.69,-182.72 662.76,-190 673.66,-198.75 686.76,-206.94 698.21,-213.46"/>
<text text-anchor="middle" x="529.01" y="-153.2" font-family="Times,serif" font-size="14.00">7</text>
</g>
<!-- go
2,117&#45;&#45;wikidata
4,339 -->
<g id="edge17" class="edge">
<title>go
2,117&#45;&#45;wikidata
4,339</title>
<path fill="none" stroke="black" d="M412.81,-105.58C482.36,-102.95 651.14,-98.89 791.45,-114 814.48,-116.48 839.86,-121.41 860.42,-125.97"/>
<text text-anchor="middle" x="629.38" y="-107.2" font-family="Times,serif" font-size="14.00">46</text>
</g>
<!-- complexportal
4,623&#45;&#45;intact
3,326 -->
<g id="edge18" class="edge">
<title>complexportal
4,623&#45;&#45;intact
3,326</title>
<path fill="none" stroke="black" d="M594.22,-213.2C627.62,-216.95 666.98,-221.37 693.96,-224.39"/>
<text text-anchor="middle" x="629.38" y="-221.2" font-family="Times,serif" font-size="14.00">3,326</text>
</g>
<!-- complexportal
4,623&#45;&#45;wikidata
4,339 -->
<g id="edge20" class="edge">
<title>complexportal
4,623&#45;&#45;wikidata
4,339</title>
<path fill="none" stroke="black" d="M568.42,-229.77C620.87,-258.96 716.89,-300.59 791.45,-266 836.77,-244.98 870.17,-195.06 887.63,-163.55"/>
<text text-anchor="middle" x="727.1" y="-282.2" font-family="Times,serif" font-size="14.00">3,948</text>
</g>
<!-- chembl.target
192 -->
<g id="node8" class="node">
<title>chembl.target
192</title>
<ellipse fill="none" stroke="black" cx="727.1" cy="-152" rx="64.35" ry="28.99"/>
<text text-anchor="middle" x="727.1" y="-155.2" font-family="Times,serif" font-size="14.00">chembl.target</text>
<text text-anchor="middle" x="727.1" y="-138.7" font-family="Times,serif" font-size="14.00">192</text>
</g>
<!-- complexportal
4,623&#45;&#45;chembl.target
192 -->
<g id="edge19" class="edge">
<title>complexportal
4,623&#45;&#45;chembl.target
192</title>
<path fill="none" stroke="black" d="M586.2,-190.53C613.02,-183.14 644.99,-174.34 671.59,-167.01"/>
<text text-anchor="middle" x="629.38" y="-185.2" font-family="Times,serif" font-size="14.00">204</text>
</g>
<!-- intact
3,326&#45;&#45;wikidata
4,339 -->
<g id="edge21" class="edge">
<title>intact
3,326&#45;&#45;wikidata
4,339</title>
<path fill="none" stroke="black" d="M755.95,-213.22C786.28,-197.12 834.8,-171.35 867.37,-154.06"/>
<text text-anchor="middle" x="824.83" y="-187.2" font-family="Times,serif" font-size="14.00">1,941</text>
</g>
</g>
</svg>
