<?xml version="1.0" encoding="UTF-8" standalone="no"?>
<!DOCTYPE svg PUBLIC "-//W3C//DTD SVG 1.1//EN"
 "http://www.w3.org/Graphics/SVG/1.1/DTD/svg11.dtd">
<!-- Generated by graphviz version 12.2.1 (20241206.2353)
 -->
<!-- Pages: 1 -->
<svg width="892pt" height="441pt"
 viewBox="0.00 0.00 892.01 440.50" xmlns="http://www.w3.org/2000/svg" xmlns:xlink="http://www.w3.org/1999/xlink">
<g id="graph0" class="graph" transform="scale(1 1) rotate(0) translate(4 436.5)">
<polygon fill="white" stroke="none" points="-4,4 -4,-436.5 888.01,-436.5 888.01,4 -4,4"/>
<!-- fplx
782 -->
<g id="node1" class="node">
<title>fplx
782</title>
<ellipse fill="none" stroke="black" cx="27" cy="-227" rx="27" ry="28.99"/>
<text text-anchor="middle" x="27" y="-230.2" font-family="Times,serif" font-size="14.00">fplx</text>
<text text-anchor="middle" x="27" y="-213.7" font-family="Times,serif" font-size="14.00">782</text>
</g>
<!-- complexportal
4,921 -->
<g id="node2" class="node">
<title>complexportal
4,921</title>
<ellipse fill="none" stroke="black" cx="163.75" cy="-139" rx="67" ry="28.99"/>
<text text-anchor="middle" x="163.75" y="-142.2" font-family="Times,serif" font-size="14.00">complexportal</text>
<text text-anchor="middle" x="163.75" y="-125.7" font-family="Times,serif" font-size="14.00">4,921</text>
</g>
<!-- fplx
782&#45;&#45;complexportal
4,921 -->
<g id="edge1" class="edge">
<title>fplx
782&#45;&#45;complexportal
4,921</title>
<path fill="none" stroke="black" d="M43.32,-203.26C50.92,-192.98 60.87,-181.5 72,-173.5 82.54,-165.93 94.95,-159.79 107.15,-154.91"/>
<text text-anchor="middle" x="75.38" y="-176.7" font-family="Times,serif" font-size="14.00">7</text>
</g>
<!-- go
2,064 -->
<g id="node3" class="node">
<title>go
2,064</title>
<ellipse fill="none" stroke="black" cx="320.05" cy="-250" rx="33.06" ry="28.99"/>
<text text-anchor="middle" x="320.05" y="-253.2" font-family="Times,serif" font-size="14.00">go</text>
<text text-anchor="middle" x="320.05" y="-236.7" font-family="Times,serif" font-size="14.00">2,064</text>
</g>
<!-- fplx
782&#45;&#45;go
2,064 -->
<g id="edge2" class="edge">
<title>fplx
782&#45;&#45;go
2,064</title>
<path fill="none" stroke="black" d="M54.34,-229.08C107.8,-233.31 228.84,-242.87 286.86,-247.46"/>
<text text-anchor="middle" x="163.75" y="-246.19" font-family="Times,serif" font-size="14.00">50</text>
</g>
<!-- signor
852 -->
<g id="node4" class="node">
<title>signor
852</title>
<ellipse fill="none" stroke="black" cx="437.79" cy="-359" rx="35.18" ry="28.99"/>
<text text-anchor="middle" x="437.79" y="-362.2" font-family="Times,serif" font-size="14.00">signor</text>
<text text-anchor="middle" x="437.79" y="-345.7" font-family="Times,serif" font-size="14.00">852</text>
</g>
<!-- fplx
782&#45;&#45;signor
852 -->
<g id="edge3" class="edge">
<title>fplx
782&#45;&#45;signor
852</title>
<path fill="none" stroke="black" d="M51.29,-240.74C64.34,-248.04 81.1,-256.77 96.75,-263 205.61,-306.32 341.32,-338.44 403.21,-351.96"/>
<text text-anchor="middle" x="258.87" y="-321.39" font-family="Times,serif" font-size="14.00">118</text>
</g>
<!-- scomp
135 -->
<g id="node5" class="node">
<title>scomp
135</title>
<ellipse fill="none" stroke="black" cx="576.49" cy="-304" rx="36.77" ry="28.99"/>
<text text-anchor="middle" x="576.49" y="-307.2" font-family="Times,serif" font-size="14.00">scomp</text>
<text text-anchor="middle" x="576.49" y="-290.7" font-family="Times,serif" font-size="14.00">135</text>
</g>
<!-- fplx
782&#45;&#45;scomp
135 -->
<g id="edge4" class="edge">
<title>fplx
782&#45;&#45;scomp
135</title>
<path fill="none" stroke="black" d="M34.23,-255.3C47.69,-308.02 84.77,-416 162.75,-416 162.75,-416 162.75,-416 438.79,-416 492.79,-416 537.15,-363.06 559.6,-329.98"/>
<text text-anchor="middle" x="320.05" y="-419.2" font-family="Times,serif" font-size="14.00">66</text>
</g>
<!-- intact
3,326 -->
<g id="node6" class="node">
<title>intact
3,326</title>
<ellipse fill="none" stroke="black" cx="695.81" cy="-174" rx="33.06" ry="28.99"/>
<text text-anchor="middle" x="695.81" y="-177.2" font-family="Times,serif" font-size="14.00">intact</text>
<text text-anchor="middle" x="695.81" y="-160.7" font-family="Times,serif" font-size="14.00">3,326</text>
</g>
<!-- fplx
782&#45;&#45;intact
3,326 -->
<g id="edge5" class="edge">
<title>fplx
782&#45;&#45;intact
3,326</title>
<path fill="none" stroke="black" d="M54.22,-224.02C98.69,-218.73 191.62,-206.68 269,-190 315.06,-180.07 325.32,-172.6 371.11,-161.5 385,-158.13 388.43,-156.77 402.61,-155 441.62,-150.12 451.67,-151.89 490.97,-151 559.37,-149.45 578.71,-140.14 644.76,-158 651.19,-159.74 658.02,-161.79 664.5,-163.83"/>
<text text-anchor="middle" x="377.86" y="-164.7" font-family="Times,serif" font-size="14.00">5</text>
</g>
<!-- wikidata
5,164 -->
<g id="node7" class="node">
<title>wikidata
5,164</title>
<ellipse fill="none" stroke="black" cx="839.82" cy="-224" rx="44.19" ry="28.99"/>
<text text-anchor="middle" x="839.82" y="-227.2" font-family="Times,serif" font-size="14.00">wikidata</text>
<text text-anchor="middle" x="839.82" y="-210.7" font-family="Times,serif" font-size="14.00">5,164</text>
</g>
<!-- fplx
782&#45;&#45;wikidata
5,164 -->
<g id="edge6" class="edge">
<title>fplx
782&#45;&#45;wikidata
5,164</title>
<path fill="none" stroke="black" d="M31.5,-198.25C40.71,-137.17 71.55,0 162.75,0 162.75,0 162.75,0 696.81,0 788.21,0 823.25,-134.68 834.38,-195.17"/>
<text text-anchor="middle" x="437.79" y="-3.2" font-family="Times,serif" font-size="14.00">411</text>
</g>
<!-- complexportal
4,921&#45;&#45;go
2,064 -->
<g id="edge7" class="edge">
<title>complexportal
4,921&#45;&#45;go
2,064</title>
<path fill="none" stroke="black" d="M199.38,-163.91C228.17,-184.62 268.44,-213.59 294.14,-232.08"/>
<text text-anchor="middle" x="258.87" y="-214.13" font-family="Times,serif" font-size="14.00">2</text>
</g>
<!-- complexportal
4,921&#45;&#45;scomp
135 -->
<g id="edge8" class="edge">
<title>complexportal
4,921&#45;&#45;scomp
135</title>
<path fill="none" stroke="black" d="M216.65,-156.92C261.43,-172.64 327.7,-196.51 384.61,-219.5 441.57,-242.51 506.78,-272.09 544.35,-289.46"/>
<text text-anchor="middle" x="377.86" y="-222.7" font-family="Times,serif" font-size="14.00">2</text>
</g>
<!-- complexportal
4,921&#45;&#45;intact
3,326 -->
<g id="edge9" class="edge">
<title>complexportal
4,921&#45;&#45;intact
3,326</title>
<path fill="none" stroke="black" d="M209.19,-117.39C239.43,-104.65 280.76,-91 319.05,-91 319.05,-91 319.05,-91 577.49,-91 618.66,-91 655.5,-125.48 676.48,-149.99"/>
<text text-anchor="middle" x="437.79" y="-94.2" font-family="Times,serif" font-size="14.00">3,315</text>
</g>
<!-- complexportal
4,921&#45;&#45;wikidata
5,164 -->
<g id="edge10" class="edge">
<title>complexportal
4,921&#45;&#45;wikidata
5,164</title>
<path fill="none" stroke="black" d="M189.76,-111.81C218.16,-84.05 267.3,-45 319.05,-45 319.05,-45 319.05,-45 696.81,-45 772.58,-45 814.34,-144.64 830.65,-195.24"/>
<text text-anchor="middle" x="506.34" y="-48.2" font-family="Times,serif" font-size="14.00">4,761</text>
</g>
<!-- go
2,064&#45;&#45;signor
852 -->
<g id="edge11" class="edge">
<title>go
2,064&#45;&#45;signor
852</title>
<path fill="none" stroke="black" d="M340.13,-273.61C349.11,-284.22 360.23,-296.66 371.11,-307 383.45,-318.72 398.22,-330.59 410.64,-340.02"/>
<text text-anchor="middle" x="377.86" y="-320.94" font-family="Times,serif" font-size="14.00">11</text>
</g>
<!-- go
2,064&#45;&#45;scomp
135 -->
<g id="edge12" class="edge">
<title>go
2,064&#45;&#45;scomp
135</title>
<path fill="none" stroke="black" d="M351.93,-259.05C358.25,-260.79 364.88,-262.52 371.11,-264 430.03,-277.98 499.35,-290.79 540.23,-297.98"/>
<text text-anchor="middle" x="437.79" y="-288.24" font-family="Times,serif" font-size="14.00">25</text>
</g>
<!-- go
2,064&#45;&#45;intact
3,326 -->
<g id="edge13" class="edge">
<title>go
2,064&#45;&#45;intact
3,326</title>
<path fill="none" stroke="black" d="M337.74,-225.4C348.73,-210.02 362.61,-192.35 371.11,-188 467.76,-138.55 602.67,-155.71 663.21,-167.14"/>
<text text-anchor="middle" x="506.34" y="-159.51" font-family="Times,serif" font-size="14.00">2</text>
</g>
<!-- go
2,064&#45;&#45;wikidata
5,164 -->
<g id="edge14" class="edge">
<title>go
2,064&#45;&#45;wikidata
5,164</title>
<path fill="none" stroke="black" d="M353.44,-248.37C442.99,-243.88 694,-231.27 795.45,-226.18"/>
<text text-anchor="middle" x="576.49" y="-242.03" font-family="Times,serif" font-size="14.00">43</text>
</g>
<!-- signor
852&#45;&#45;scomp
135 -->
<g id="edge15" class="edge">
<title>signor
852&#45;&#45;scomp
135</title>
<path fill="none" stroke="black" d="M467,-342.28C474.63,-338.13 482.99,-333.89 490.97,-330.5 507.1,-323.64 525.63,-317.64 541.21,-313.09"/>
<text text-anchor="middle" x="506.34" y="-333.7" font-family="Times,serif" font-size="14.00">14</text>
</g>
<!-- signor
852&#45;&#45;wikidata
5,164 -->
<g id="edge16" class="edge">
<title>signor
852&#45;&#45;wikidata
5,164</title>
<path fill="none" stroke="black" d="M473.22,-358.87C529.46,-357.38 643.36,-349.05 728.87,-308 761.14,-292.51 793.09,-266.6 814.16,-247.64"/>
<text text-anchor="middle" x="638.01" y="-343.41" font-family="Times,serif" font-size="14.00">86</text>
</g>
<!-- scomp
135&#45;&#45;intact
3,326 -->
<g id="edge17" class="edge">
<title>scomp
135&#45;&#45;intact
3,326</title>
<path fill="none" stroke="black" d="M598.73,-280.46C620.26,-256.6 653.33,-219.97 674.51,-196.5"/>
<text text-anchor="middle" x="638.01" y="-246.1" font-family="Times,serif" font-size="14.00">2</text>
</g>
<!-- scomp
135&#45;&#45;wikidata
5,164 -->
<g id="edge18" class="edge">
<title>scomp
135&#45;&#45;wikidata
5,164</title>
<path fill="none" stroke="black" d="M612.92,-297.87C653.5,-290.27 721.6,-275.74 777.62,-255 786.89,-251.57 796.58,-247.1 805.45,-242.64"/>
<text text-anchor="middle" x="695.81" y="-290.47" font-family="Times,serif" font-size="14.00">60</text>
</g>
<!-- intact
3,326&#45;&#45;wikidata
5,164 -->
<g id="edge19" class="edge">
<title>intact
3,326&#45;&#45;wikidata
5,164</title>
<path fill="none" stroke="black" d="M726.93,-184.6C748.34,-192.14 777.28,-202.33 800.36,-210.46"/>
<text text-anchor="middle" x="762.25" y="-205.19" font-family="Times,serif" font-size="14.00">2,042</text>
</g>
</g>
</svg>
