<?xml version="1.0" encoding="UTF-8" standalone="no"?>
<!DOCTYPE svg PUBLIC "-//W3C//DTD SVG 1.1//EN"
 "http://www.w3.org/Graphics/SVG/1.1/DTD/svg11.dtd">
<!-- Generated by graphviz version 12.2.1 (20241206.2353)
 -->
<!-- Pages: 1 -->
<svg width="955pt" height="424pt"
 viewBox="0.00 0.00 954.59 423.50" xmlns="http://www.w3.org/2000/svg" xmlns:xlink="http://www.w3.org/1999/xlink">
<g id="graph0" class="graph" transform="scale(1 1) rotate(0) translate(4 419.5)">
<polygon fill="white" stroke="none" points="-4,4 -4,-419.5 950.59,-419.5 950.59,4 -4,4"/>
<!-- fplx
782 -->
<g id="node1" class="node">
<title>fplx
782</title>
<ellipse fill="none" stroke="black" cx="27" cy="-286" rx="27" ry="28.99"/>
<text text-anchor="middle" x="27" y="-289.2" font-family="Times,serif" font-size="14.00">fplx</text>
<text text-anchor="middle" x="27" y="-272.7" font-family="Times,serif" font-size="14.00">782</text>
</g>
<!-- scomp
135 -->
<g id="node2" class="node">
<title>scomp
135</title>
<ellipse fill="none" stroke="black" cx="140.27" cy="-201" rx="36.77" ry="28.99"/>
<text text-anchor="middle" x="140.27" y="-204.2" font-family="Times,serif" font-size="14.00">scomp</text>
<text text-anchor="middle" x="140.27" y="-187.7" font-family="Times,serif" font-size="14.00">135</text>
</g>
<!-- fplx
782&#45;&#45;scomp
135 -->
<g id="edge1" class="edge">
<title>fplx
782&#45;&#45;scomp
135</title>
<path fill="none" stroke="black" d="M49.72,-269.41C67.93,-255.5 93.99,-235.59 113.3,-220.83"/>
<text text-anchor="middle" x="78.75" y="-254.31" font-family="Times,serif" font-size="14.00">66</text>
</g>
<!-- signor
852 -->
<g id="node3" class="node">
<title>signor
852</title>
<ellipse fill="none" stroke="black" cx="261.72" cy="-114" rx="35.18" ry="28.99"/>
<text text-anchor="middle" x="261.72" y="-117.2" font-family="Times,serif" font-size="14.00">signor</text>
<text text-anchor="middle" x="261.72" y="-100.7" font-family="Times,serif" font-size="14.00">852</text>
</g>
<!-- fplx
782&#45;&#45;signor
852 -->
<g id="edge2" class="edge">
<title>fplx
782&#45;&#45;signor
852</title>
<path fill="none" stroke="black" d="M35.38,-257.95C45.33,-225.86 66.26,-174.18 103.5,-146.5 139.29,-119.89 191.75,-113.85 226.07,-113.06"/>
<text text-anchor="middle" x="140.27" y="-149.7" font-family="Times,serif" font-size="14.00">118</text>
</g>
<!-- go
2,064 -->
<g id="node4" class="node">
<title>go
2,064</title>
<ellipse fill="none" stroke="black" cx="379.45" cy="-107" rx="33.06" ry="28.99"/>
<text text-anchor="middle" x="379.45" y="-110.2" font-family="Times,serif" font-size="14.00">go</text>
<text text-anchor="middle" x="379.45" y="-93.7" font-family="Times,serif" font-size="14.00">2,064</text>
</g>
<!-- fplx
782&#45;&#45;go
2,064 -->
<g id="edge3" class="edge">
<title>fplx
782&#45;&#45;go
2,064</title>
<path fill="none" stroke="black" d="M31.8,-257.08C38.62,-217.74 56.9,-148.33 103.5,-114 174.02,-62.04 210.74,-60.18 296.9,-76 315.22,-79.37 334.76,-86.65 350.13,-93.32"/>
<text text-anchor="middle" x="201.79" y="-72.56" font-family="Times,serif" font-size="14.00">50</text>
</g>
<!-- complexportal
4,921 -->
<g id="node5" class="node">
<title>complexportal
4,921</title>
<ellipse fill="none" stroke="black" cx="529.01" cy="-206" rx="67" ry="28.99"/>
<text text-anchor="middle" x="529.01" y="-209.2" font-family="Times,serif" font-size="14.00">complexportal</text>
<text text-anchor="middle" x="529.01" y="-192.7" font-family="Times,serif" font-size="14.00">4,921</text>
</g>
<!-- fplx
782&#45;&#45;complexportal
4,921 -->
<g id="edge4" class="edge">
<title>fplx
782&#45;&#45;complexportal
4,921</title>
<path fill="none" stroke="black" d="M53.35,-293.94C75.72,-300.24 109.34,-308 139.27,-308 139.27,-308 139.27,-308 380.45,-308 432.93,-308 480.25,-263.81 506.47,-233.6"/>
<text text-anchor="middle" x="261.72" y="-311.2" font-family="Times,serif" font-size="14.00">7</text>
</g>
<!-- intact
3,325 -->
<g id="node6" class="node">
<title>intact
3,325</title>
<ellipse fill="none" stroke="black" cx="727.1" cy="-228" rx="33.06" ry="28.99"/>
<text text-anchor="middle" x="727.1" y="-231.2" font-family="Times,serif" font-size="14.00">intact</text>
<text text-anchor="middle" x="727.1" y="-214.7" font-family="Times,serif" font-size="14.00">3,325</text>
</g>
<!-- fplx
782&#45;&#45;intact
3,325 -->
<g id="edge5" class="edge">
<title>fplx
782&#45;&#45;intact
3,325</title>
<path fill="none" stroke="black" d="M46.83,-306.1C67.45,-325.84 102.51,-353 139.27,-353 139.27,-353 139.27,-353 530.01,-353 601.54,-353 601.65,-299.19 662.76,-262 674.06,-255.12 686.86,-248.11 697.99,-242.25"/>
<text text-anchor="middle" x="321.65" y="-356.2" font-family="Times,serif" font-size="14.00">5</text>
</g>
<!-- wikidata
5,164 -->
<g id="node7" class="node">
<title>wikidata
5,164</title>
<ellipse fill="none" stroke="black" cx="902.4" cy="-136" rx="44.19" ry="28.99"/>
<text text-anchor="middle" x="902.4" y="-139.2" font-family="Times,serif" font-size="14.00">wikidata</text>
<text text-anchor="middle" x="902.4" y="-122.7" font-family="Times,serif" font-size="14.00">5,164</text>
</g>
<!-- fplx
782&#45;&#45;wikidata
5,164 -->
<g id="edge6" class="edge">
<title>fplx
782&#45;&#45;wikidata
5,164</title>
<path fill="none" stroke="black" d="M39.47,-311.92C56.2,-345.29 90.67,-399 139.27,-399 139.27,-399 139.27,-399 728.1,-399 839.11,-399 883.03,-233.63 896.46,-165.15"/>
<text text-anchor="middle" x="379.45" y="-402.2" font-family="Times,serif" font-size="14.00">411</text>
</g>
<!-- scomp
135&#45;&#45;signor
852 -->
<g id="edge7" class="edge">
<title>scomp
135&#45;&#45;signor
852</title>
<path fill="none" stroke="black" d="M162.46,-177.48C171.87,-167.82 183.43,-156.94 195.04,-148.5 205.87,-140.62 218.75,-133.45 230.21,-127.71"/>
<text text-anchor="middle" x="201.79" y="-151.7" font-family="Times,serif" font-size="14.00">14</text>
</g>
<!-- scomp
135&#45;&#45;go
2,064 -->
<g id="edge8" class="edge">
<title>scomp
135&#45;&#45;go
2,064</title>
<path fill="none" stroke="black" d="M175.67,-192.29C207.68,-183.69 256.41,-169.34 296.9,-152 315.92,-143.85 336.31,-132.6 351.95,-123.39"/>
<text text-anchor="middle" x="261.72" y="-180.59" font-family="Times,serif" font-size="14.00">25</text>
</g>
<!-- scomp
135&#45;&#45;complexportal
4,921 -->
<g id="edge9" class="edge">
<title>scomp
135&#45;&#45;complexportal
4,921</title>
<path fill="none" stroke="black" d="M177.31,-201.47C242.19,-202.3 379.54,-204.08 461.78,-205.14"/>
<text text-anchor="middle" x="321.65" y="-206.58" font-family="Times,serif" font-size="14.00">2</text>
</g>
<!-- scomp
135&#45;&#45;intact
3,325 -->
<g id="edge10" class="edge">
<title>scomp
135&#45;&#45;intact
3,325</title>
<path fill="none" stroke="black" d="M174.91,-211.31C181.54,-213.08 188.47,-214.75 195.04,-216 370.52,-249.44 417.6,-253.13 596.01,-244 629.64,-242.28 667.87,-237.2 694.14,-233.22"/>
<text text-anchor="middle" x="379.45" y="-250.24" font-family="Times,serif" font-size="14.00">2</text>
</g>
<!-- scomp
135&#45;&#45;wikidata
5,164 -->
<g id="edge11" class="edge">
<title>scomp
135&#45;&#45;wikidata
5,164</title>
<path fill="none" stroke="black" d="M165.82,-179.65C169.8,-175.65 173.7,-171.35 177.04,-167 205.07,-130.47 193.43,-107.99 226.54,-76 280.83,-23.54 302.96,0 378.45,0 378.45,0 378.45,0 728.1,0 798.09,0 856.57,-69.5 884.23,-109.13"/>
<text text-anchor="middle" x="437.26" y="-3.2" font-family="Times,serif" font-size="14.00">60</text>
</g>
<!-- signor
852&#45;&#45;go
2,064 -->
<g id="edge12" class="edge">
<title>signor
852&#45;&#45;go
2,064</title>
<path fill="none" stroke="black" d="M297.13,-111.92C312.72,-110.98 331.05,-109.87 346.35,-108.94"/>
<text text-anchor="middle" x="321.65" y="-113.91" font-family="Times,serif" font-size="14.00">11</text>
</g>
<!-- signor
852&#45;&#45;complexportal
4,921 -->
<g id="edge13" class="edge">
<title>signor
852&#45;&#45;complexportal
4,921</title>
<path fill="none" stroke="black" d="M294.03,-125.86C309.71,-131.73 329.01,-138.86 346.4,-145 389.36,-160.17 438.36,-176.57 474.62,-188.55"/>
<text text-anchor="middle" x="379.45" y="-170.16" font-family="Times,serif" font-size="14.00">268</text>
</g>
<!-- signor
852&#45;&#45;wikidata
5,164 -->
<g id="edge14" class="edge">
<title>signor
852&#45;&#45;wikidata
5,164</title>
<path fill="none" stroke="black" d="M285.5,-92.33C307.49,-73.77 342.64,-50 378.45,-50 378.45,-50 378.45,-50 728.1,-50 784.87,-50 842.21,-87.48 874.62,-112.95"/>
<text text-anchor="middle" x="529.01" y="-53.2" font-family="Times,serif" font-size="14.00">86</text>
</g>
<!-- go
2,064&#45;&#45;complexportal
4,921 -->
<g id="edge15" class="edge">
<title>go
2,064&#45;&#45;complexportal
4,921</title>
<path fill="none" stroke="black" d="M406.14,-124.37C422.19,-135.21 443.29,-149.45 462.01,-162 471.5,-168.37 481.78,-175.23 491.33,-181.6"/>
<text text-anchor="middle" x="437.26" y="-151.65" font-family="Times,serif" font-size="14.00">2</text>
</g>
<!-- go
2,064&#45;&#45;intact
3,325 -->
<g id="edge16" class="edge">
<title>go
2,064&#45;&#45;intact
3,325</title>
<path fill="none" stroke="black" d="M412.57,-107.93C465.34,-110.88 571.81,-122.97 644.76,-172 654.15,-178.31 653.84,-183.04 662.76,-190 673.78,-198.6 686.9,-206.77 698.33,-213.31"/>
<text text-anchor="middle" x="529.01" y="-148.52" font-family="Times,serif" font-size="14.00">5</text>
</g>
<!-- go
2,064&#45;&#45;wikidata
5,164 -->
<g id="edge17" class="edge">
<title>go
2,064&#45;&#45;wikidata
5,164</title>
<path fill="none" stroke="black" d="M412.82,-105.48C482.39,-102.67 651.21,-98.29 791.45,-114 814.47,-116.58 839.85,-121.51 860.41,-126.06"/>
<text text-anchor="middle" x="629.38" y="-107.31" font-family="Times,serif" font-size="14.00">43</text>
</g>
<!-- complexportal
4,921&#45;&#45;intact
3,325 -->
<g id="edge18" class="edge">
<title>complexportal
4,921&#45;&#45;intact
3,325</title>
<path fill="none" stroke="black" d="M594.22,-213.2C627.62,-216.95 666.98,-221.37 693.96,-224.39"/>
<text text-anchor="middle" x="629.38" y="-221.52" font-family="Times,serif" font-size="14.00">3,325</text>
</g>
<!-- complexportal
4,921&#45;&#45;wikidata
5,164 -->
<g id="edge20" class="edge">
<title>complexportal
4,921&#45;&#45;wikidata
5,164</title>
<path fill="none" stroke="black" d="M568.42,-229.77C620.87,-258.96 716.89,-300.59 791.45,-266 836.77,-244.98 870.17,-195.06 887.63,-163.55"/>
<text text-anchor="middle" x="727.1" y="-282.29" font-family="Times,serif" font-size="14.00">4,761</text>
</g>
<!-- chembl.target
16,030 -->
<g id="node8" class="node">
<title>chembl.target
16,030</title>
<ellipse fill="none" stroke="black" cx="727.1" cy="-152" rx="64.35" ry="28.99"/>
<text text-anchor="middle" x="727.1" y="-155.2" font-family="Times,serif" font-size="14.00">chembl.target</text>
<text text-anchor="middle" x="727.1" y="-138.7" font-family="Times,serif" font-size="14.00">16,030</text>
</g>
<!-- complexportal
4,921&#45;&#45;chembl.target
16,030 -->
<g id="edge19" class="edge">
<title>complexportal
4,921&#45;&#45;chembl.target
16,030</title>
<path fill="none" stroke="black" d="M586.2,-190.53C613.02,-183.14 644.99,-174.34 671.59,-167.01"/>
<text text-anchor="middle" x="629.38" y="-185.43" font-family="Times,serif" font-size="14.00">210</text>
</g>
<!-- intact
3,325&#45;&#45;wikidata
5,164 -->
<g id="edge21" class="edge">
<title>intact
3,325&#45;&#45;wikidata
5,164</title>
<path fill="none" stroke="black" d="M755.95,-213.22C786.28,-197.12 834.8,-171.35 867.37,-154.06"/>
<text text-anchor="middle" x="824.83" y="-187.96" font-family="Times,serif" font-size="14.00">2,042</text>
</g>
</g>
</svg>
