<?xml version="1.0" encoding="UTF-8" standalone="no"?>
<!DOCTYPE svg PUBLIC "-//W3C//DTD SVG 1.1//EN"
 "http://www.w3.org/Graphics/SVG/1.1/DTD/svg11.dtd">
<!-- Generated by graphviz version 12.2.1 (20241206.2353)
 -->
<!-- Pages: 1 -->
<svg width="660pt" height="149pt"
 viewBox="0.00 0.00 660.44 148.98" xmlns="http://www.w3.org/2000/svg" xmlns:xlink="http://www.w3.org/1999/xlink">
<g id="graph0" class="graph" transform="scale(1 1) rotate(0) translate(4 144.98)">
<polygon fill="white" stroke="none" points="-4,4 -4,-144.98 656.44,-144.98 656.44,4 -4,4"/>
<!-- intact -->
<g id="node1" class="node">
<title>intact</title>
<ellipse fill="none" stroke="black" cx="31.39" cy="-111.99" rx="31.39" ry="18"/>
<text text-anchor="middle" x="31.39" y="-106.94" font-family="Times,serif" font-size="14.00">intact</text>
</g>
<!-- complexportal
5,031 -->
<g id="node2" class="node">
<title>complexportal
5,031</title>
<ellipse fill="none" stroke="black" cx="196.53" cy="-111.99" rx="67" ry="28.99"/>
<text text-anchor="middle" x="196.53" y="-115.19" font-family="Times,serif" font-size="14.00">complexportal</text>
<text text-anchor="middle" x="196.53" y="-98.69" font-family="Times,serif" font-size="14.00">5,031</text>
</g>
<!-- intact&#45;&#45;complexportal
5,031 -->
<g id="edge1" class="edge">
<title>intact&#45;&#45;complexportal
5,031</title>
<path fill="none" stroke="black" d="M63.08,-111.99C81.72,-111.99 106.27,-111.99 129.16,-111.99"/>
<text text-anchor="middle" x="96.16" y="-115.19" font-family="Times,serif" font-size="14.00">3,315</text>
</g>
<!-- wikidata -->
<g id="node3" class="node">
<title>wikidata</title>
<ellipse fill="none" stroke="black" cx="372.93" cy="-111.99" rx="42.65" ry="18"/>
<text text-anchor="middle" x="372.93" y="-106.94" font-family="Times,serif" font-size="14.00">wikidata</text>
</g>
<!-- complexportal
5,031&#45;&#45;wikidata -->
<g id="edge2" class="edge">
<title>complexportal
5,031&#45;&#45;wikidata</title>
<path fill="none" stroke="black" d="M263.96,-111.99C286.1,-111.99 310.14,-111.99 329.9,-111.99"/>
<text text-anchor="middle" x="296.9" y="-115.19" font-family="Times,serif" font-size="14.00">4,761</text>
</g>
<!-- fplx
782 -->
<g id="node4" class="node">
<title>fplx
782</title>
<ellipse fill="none" stroke="black" cx="498.83" cy="-66.99" rx="27" ry="28.99"/>
<text text-anchor="middle" x="498.83" y="-70.19" font-family="Times,serif" font-size="14.00">fplx</text>
<text text-anchor="middle" x="498.83" y="-53.69" font-family="Times,serif" font-size="14.00">782</text>
</g>
<!-- wikidata&#45;&#45;fplx
782 -->
<g id="edge3" class="edge">
<title>wikidata&#45;&#45;fplx
782</title>
<path fill="none" stroke="black" d="M406.16,-100.29C426.95,-92.73 453.6,-83.06 472.8,-76.08"/>
<text text-anchor="middle" x="443.7" y="-92.69" font-family="Times,serif" font-size="14.00">398</text>
</g>
<!-- signor
856 -->
<g id="node6" class="node">
<title>signor
856</title>
<ellipse fill="none" stroke="black" cx="617.26" cy="-104.99" rx="35.18" ry="28.99"/>
<text text-anchor="middle" x="617.26" y="-108.19" font-family="Times,serif" font-size="14.00">signor</text>
<text text-anchor="middle" x="617.26" y="-91.69" font-family="Times,serif" font-size="14.00">856</text>
</g>
<!-- fplx
782&#45;&#45;signor
856 -->
<g id="edge5" class="edge">
<title>fplx
782&#45;&#45;signor
856</title>
<path fill="none" stroke="black" d="M525.09,-75.24C542.35,-80.87 565.36,-88.38 583.95,-94.45"/>
<text text-anchor="middle" x="553.95" y="-90.33" font-family="Times,serif" font-size="14.00">118</text>
</g>
<!-- go
2,059 -->
<g id="node7" class="node">
<title>go
2,059</title>
<ellipse fill="none" stroke="black" cx="617.26" cy="-28.99" rx="33.06" ry="28.99"/>
<text text-anchor="middle" x="617.26" y="-32.19" font-family="Times,serif" font-size="14.00">go</text>
<text text-anchor="middle" x="617.26" y="-15.69" font-family="Times,serif" font-size="14.00">2,059</text>
</g>
<!-- fplx
782&#45;&#45;go
2,059 -->
<g id="edge6" class="edge">
<title>fplx
782&#45;&#45;go
2,059</title>
<path fill="none" stroke="black" d="M525.09,-58.75C543.02,-52.9 567.15,-45.02 586.09,-38.84"/>
<text text-anchor="middle" x="553.95" y="-55.71" font-family="Times,serif" font-size="14.00">47</text>
</g>
<!-- scomp
135 -->
<g id="node5" class="node">
<title>scomp
135</title>
<ellipse fill="none" stroke="black" cx="372.93" cy="-46.99" rx="36.77" ry="28.99"/>
<text text-anchor="middle" x="372.93" y="-50.19" font-family="Times,serif" font-size="14.00">scomp</text>
<text text-anchor="middle" x="372.93" y="-33.69" font-family="Times,serif" font-size="14.00">135</text>
</g>
<!-- scomp
135&#45;&#45;fplx
782 -->
<g id="edge4" class="edge">
<title>scomp
135&#45;&#45;fplx
782</title>
<path fill="none" stroke="black" d="M409.43,-52.72C429.31,-55.93 453.67,-59.86 471.77,-62.79"/>
<text text-anchor="middle" x="443.7" y="-62.57" font-family="Times,serif" font-size="14.00">63</text>
</g>
</g>
</svg>
