<?xml version="1.0" encoding="UTF-8" standalone="no"?>
<!DOCTYPE svg PUBLIC "-//W3C//DTD SVG 1.1//EN"
 "http://www.w3.org/Graphics/SVG/1.1/DTD/svg11.dtd">
<!-- Generated by graphviz version 13.1.0 (20250701.0955)
 -->
<!-- Pages: 1 -->
<svg width="653pt" height="105pt"
 viewBox="0.00 0.00 653.00 105.00" xmlns="http://www.w3.org/2000/svg" xmlns:xlink="http://www.w3.org/1999/xlink">
<g id="graph0" class="graph" transform="scale(1 1) rotate(0) translate(4 101)">
<polygon fill="white" stroke="none" points="-4,4 -4,-101 649.3,-101 649.3,4 -4,4"/>
<!-- intact -->
<g id="node1" class="node">
<title>intact</title>
<ellipse fill="none" stroke="black" cx="31.39" cy="-79" rx="31.39" ry="18"/>
<text xml:space="preserve" text-anchor="middle" x="31.39" y="-73.95" font-family="Times,serif" font-size="14.00">intact</text>
</g>
<!-- complexportal -->
<g id="node2" class="node">
<title>complexportal</title>
<ellipse fill="none" stroke="black" cx="194.19" cy="-79" rx="64.66" ry="18"/>
<text xml:space="preserve" text-anchor="middle" x="194.19" y="-73.95" font-family="Times,serif" font-size="14.00">complexportal</text>
</g>
<!-- intact&#45;&#45;complexportal -->
<g id="edge1" class="edge">
<title>intact&#45;&#45;complexportal</title>
<path fill="none" stroke="black" stroke-width="3.09" d="M63.01,-79C81.69,-79 106.28,-79 129.06,-79"/>
<text xml:space="preserve" text-anchor="middle" x="96.16" y="-82.2" font-family="Times,serif" font-size="14.00">3,315</text>
</g>
<!-- wikidata -->
<g id="node3" class="node">
<title>wikidata</title>
<ellipse fill="none" stroke="black" cx="368.25" cy="-79" rx="42.65" ry="18"/>
<text xml:space="preserve" text-anchor="middle" x="368.25" y="-73.95" font-family="Times,serif" font-size="14.00">wikidata</text>
</g>
<!-- complexportal&#45;&#45;wikidata -->
<g id="edge2" class="edge">
<title>complexportal&#45;&#45;wikidata</title>
<path fill="none" stroke="black" stroke-width="4" d="M259.26,-79C281.33,-79 305.47,-79 325.31,-79"/>
<text xml:space="preserve" text-anchor="middle" x="292.22" y="-82.2" font-family="Times,serif" font-size="14.00">4,761</text>
</g>
<!-- fplx -->
<g id="node4" class="node">
<title>fplx</title>
<ellipse fill="none" stroke="black" cx="494.15" cy="-45" rx="27" ry="18"/>
<text xml:space="preserve" text-anchor="middle" x="494.15" y="-39.95" font-family="Times,serif" font-size="14.00">fplx</text>
</g>
<!-- wikidata&#45;&#45;fplx -->
<g id="edge3" class="edge">
<title>wikidata&#45;&#45;fplx</title>
<path fill="none" stroke="black" stroke-width="1.24" d="M404.75,-69.26C425.21,-63.64 450.39,-56.73 468.64,-51.73"/>
<text xml:space="preserve" text-anchor="middle" x="439.02" y="-65.2" font-family="Times,serif" font-size="14.00">388</text>
</g>
<!-- signor -->
<g id="node6" class="node">
<title>signor</title>
<ellipse fill="none" stroke="black" cx="611.35" cy="-72" rx="33.95" ry="18"/>
<text xml:space="preserve" text-anchor="middle" x="611.35" y="-66.95" font-family="Times,serif" font-size="14.00">signor</text>
</g>
<!-- fplx&#45;&#45;signor -->
<g id="edge5" class="edge">
<title>fplx&#45;&#45;signor</title>
<path fill="none" stroke="black" stroke-width="1.07" d="M520.15,-50.86C537.62,-54.95 561.05,-60.45 579.66,-64.81"/>
<text xml:space="preserve" text-anchor="middle" x="549.27" y="-62.51" font-family="Times,serif" font-size="14.00">118</text>
</g>
<!-- go -->
<g id="node7" class="node">
<title>go</title>
<ellipse fill="none" stroke="black" cx="611.35" cy="-18" rx="27" ry="18"/>
<text xml:space="preserve" text-anchor="middle" x="611.35" y="-12.95" font-family="Times,serif" font-size="14.00">go</text>
</g>
<!-- fplx&#45;&#45;go -->
<g id="edge6" class="edge">
<title>fplx&#45;&#45;go</title>
<path fill="none" stroke="black" stroke-width="1.03" d="M520.15,-39.14C539.47,-34.61 566.09,-28.37 585.4,-23.85"/>
<text xml:space="preserve" text-anchor="middle" x="549.27" y="-37.12" font-family="Times,serif" font-size="14.00">46</text>
</g>
<!-- scomp -->
<g id="node5" class="node">
<title>scomp</title>
<ellipse fill="none" stroke="black" cx="368.25" cy="-25" rx="35.49" ry="18"/>
<text xml:space="preserve" text-anchor="middle" x="368.25" y="-19.95" font-family="Times,serif" font-size="14.00">scomp</text>
</g>
<!-- scomp&#45;&#45;fplx -->
<g id="edge4" class="edge">
<title>scomp&#45;&#45;fplx</title>
<path fill="none" stroke="black" stroke-width="1.04" d="M403.63,-27.52C417.79,-28.85 434.33,-30.79 449.15,-33.5 455.67,-34.69 462.65,-36.34 469.09,-38.02"/>
<text xml:space="preserve" text-anchor="middle" x="439.02" y="-36.7" font-family="Times,serif" font-size="14.00">63</text>
</g>
</g>
</svg>
