<?xml version="1.0" encoding="UTF-8" standalone="no"?>
<!DOCTYPE svg PUBLIC "-//W3C//DTD SVG 1.1//EN"
 "http://www.w3.org/Graphics/SVG/1.1/DTD/svg11.dtd">
<!-- Generated by graphviz version 12.2.1 (20241206.2353)
 -->
<!-- Pages: 1 -->
<svg width="733pt" height="382pt"
 viewBox="0.00 0.00 732.62 382.14" xmlns="http://www.w3.org/2000/svg" xmlns:xlink="http://www.w3.org/1999/xlink">
<g id="graph0" class="graph" transform="scale(1 1) rotate(0) translate(4 378.14)">
<polygon fill="white" stroke="none" points="-4,4 -4,-378.14 728.62,-378.14 728.62,4 -4,4"/>
<!-- fplx
782 -->
<g id="node1" class="node">
<title>fplx
782</title>
<ellipse fill="none" stroke="black" cx="27" cy="-259" rx="27" ry="28.99"/>
<text text-anchor="middle" x="27" y="-262.2" font-family="Times,serif" font-size="14.00">fplx</text>
<text text-anchor="middle" x="27" y="-245.7" font-family="Times,serif" font-size="14.00">782</text>
</g>
<!-- scomp
135 -->
<g id="node2" class="node">
<title>scomp
135</title>
<ellipse fill="none" stroke="black" cx="147.02" cy="-339" rx="36.77" ry="28.99"/>
<text text-anchor="middle" x="147.02" y="-342.2" font-family="Times,serif" font-size="14.00">scomp</text>
<text text-anchor="middle" x="147.02" y="-325.7" font-family="Times,serif" font-size="14.00">135</text>
</g>
<!-- fplx
782&#45;&#45;scomp
135 -->
<g id="edge1" class="edge">
<title>fplx
782&#45;&#45;scomp
135</title>
<path fill="none" stroke="black" d="M49.85,-274.58C56.89,-279.55 64.75,-285.05 72,-290 87.14,-300.34 104.2,-311.66 118.12,-320.81"/>
<text text-anchor="middle" x="82.12" y="-306.84" font-family="Times,serif" font-size="14.00">66</text>
</g>
<!-- signor
856 -->
<g id="node3" class="node">
<title>signor
856</title>
<ellipse fill="none" stroke="black" cx="147.02" cy="-211" rx="35.18" ry="28.99"/>
<text text-anchor="middle" x="147.02" y="-214.2" font-family="Times,serif" font-size="14.00">signor</text>
<text text-anchor="middle" x="147.02" y="-197.7" font-family="Times,serif" font-size="14.00">856</text>
</g>
<!-- fplx
782&#45;&#45;signor
856 -->
<g id="edge2" class="edge">
<title>fplx
782&#45;&#45;signor
856</title>
<path fill="none" stroke="black" d="M52.74,-248.94C70.86,-241.57 95.56,-231.52 115,-223.62"/>
<text text-anchor="middle" x="82.12" y="-243.91" font-family="Times,serif" font-size="14.00">118</text>
</g>
<!-- go
2,059 -->
<g id="node4" class="node">
<title>go
2,059</title>
<ellipse fill="none" stroke="black" cx="307.04" cy="-296" rx="33.06" ry="28.99"/>
<text text-anchor="middle" x="307.04" y="-299.2" font-family="Times,serif" font-size="14.00">go</text>
<text text-anchor="middle" x="307.04" y="-282.7" font-family="Times,serif" font-size="14.00">2,059</text>
</g>
<!-- fplx
782&#45;&#45;go
2,059 -->
<g id="edge3" class="edge">
<title>fplx
782&#45;&#45;go
2,059</title>
<path fill="none" stroke="black" d="M54.16,-262.48C105.39,-269.3 218.79,-284.39 274.25,-291.77"/>
<text text-anchor="middle" x="147.02" y="-282.55" font-family="Times,serif" font-size="14.00">50</text>
</g>
<!-- wikidata
48,581 -->
<g id="node5" class="node">
<title>wikidata
48,581</title>
<ellipse fill="none" stroke="black" cx="680.42" cy="-182" rx="44.19" ry="28.99"/>
<text text-anchor="middle" x="680.42" y="-185.2" font-family="Times,serif" font-size="14.00">wikidata</text>
<text text-anchor="middle" x="680.42" y="-168.7" font-family="Times,serif" font-size="14.00">48,581</text>
</g>
<!-- fplx
782&#45;&#45;wikidata
48,581 -->
<g id="edge4" class="edge">
<title>fplx
782&#45;&#45;wikidata
48,581</title>
<path fill="none" stroke="black" d="M28.21,-229.54C30.39,-161.66 46.08,0 146.02,0 146.02,0 146.02,0 506.13,0 565.11,0 583.56,-23.3 618.23,-71 637.64,-97.7 655.31,-131.22 666.62,-154.4"/>
<text text-anchor="middle" x="307.04" y="-3.2" font-family="Times,serif" font-size="14.00">411</text>
</g>
<!-- scomp
135&#45;&#45;go
2,059 -->
<g id="edge5" class="edge">
<title>scomp
135&#45;&#45;go
2,059</title>
<path fill="none" stroke="black" d="M181.5,-328.45C188.21,-326.41 195.21,-324.35 201.79,-322.5 226.24,-315.64 254.14,-308.59 274.91,-303.49"/>
<text text-anchor="middle" x="211.91" y="-325.7" font-family="Times,serif" font-size="14.00">25</text>
</g>
<!-- scomp
135&#45;&#45;wikidata
48,581 -->
<g id="edge6" class="edge">
<title>scomp
135&#45;&#45;wikidata
48,581</title>
<path fill="none" stroke="black" d="M183.12,-345.44C257.75,-357.48 436.27,-377.37 569.48,-321 618.36,-300.32 651.28,-244.39 667.56,-210.12"/>
<text text-anchor="middle" x="407.41" y="-360.84" font-family="Times,serif" font-size="14.00">60</text>
</g>
<!-- signor
856&#45;&#45;wikidata
48,581 -->
<g id="edge8" class="edge">
<title>signor
856&#45;&#45;wikidata
48,581</title>
<path fill="none" stroke="black" d="M181.97,-216.66C254.05,-227.64 427.39,-248.63 569.48,-223 595.34,-218.33 623.06,-207.96 644.19,-198.82"/>
<text text-anchor="middle" x="407.41" y="-238.41" font-family="Times,serif" font-size="14.00">86</text>
</g>
<!-- complexportal
5,031 -->
<g id="node6" class="node">
<title>complexportal
5,031</title>
<ellipse fill="none" stroke="black" cx="307.04" cy="-156" rx="67" ry="28.99"/>
<text text-anchor="middle" x="307.04" y="-159.2" font-family="Times,serif" font-size="14.00">complexportal</text>
<text text-anchor="middle" x="307.04" y="-142.7" font-family="Times,serif" font-size="14.00">5,031</text>
</g>
<!-- signor
856&#45;&#45;complexportal
5,031 -->
<g id="edge7" class="edge">
<title>signor
856&#45;&#45;complexportal
5,031</title>
<path fill="none" stroke="black" d="M180,-199.87C201.19,-192.49 229.48,-182.65 253.89,-174.15"/>
<text text-anchor="middle" x="211.91" y="-194.84" font-family="Times,serif" font-size="14.00">267</text>
</g>
<!-- go
2,059&#45;&#45;wikidata
48,581 -->
<g id="edge9" class="edge">
<title>go
2,059&#45;&#45;wikidata
48,581</title>
<path fill="none" stroke="black" d="M340.31,-299.26C399.44,-303.7 527.42,-306.09 618.23,-256 637.64,-245.29 653.4,-225.74 664.06,-209.42"/>
<text text-anchor="middle" x="505.13" y="-303.25" font-family="Times,serif" font-size="14.00">43</text>
</g>
<!-- complexportal
5,031&#45;&#45;wikidata
48,581 -->
<g id="edge12" class="edge">
<title>complexportal
5,031&#45;&#45;wikidata
48,581</title>
<path fill="none" stroke="black" d="M364.25,-140.41C417.62,-127.97 499.81,-114.99 569.48,-130.5 597.25,-136.68 626.31,-150.67 647.57,-162.5"/>
<text text-anchor="middle" x="505.13" y="-133.7" font-family="Times,serif" font-size="14.00">4,761</text>
</g>
<!-- intact
3,766 -->
<g id="node7" class="node">
<title>intact
3,766</title>
<ellipse fill="none" stroke="black" cx="505.13" cy="-57" rx="33.06" ry="28.99"/>
<text text-anchor="middle" x="505.13" y="-60.2" font-family="Times,serif" font-size="14.00">intact</text>
<text text-anchor="middle" x="505.13" y="-43.7" font-family="Times,serif" font-size="14.00">3,766</text>
</g>
<!-- complexportal
5,031&#45;&#45;intact
3,766 -->
<g id="edge10" class="edge">
<title>complexportal
5,031&#45;&#45;intact
3,766</title>
<path fill="none" stroke="black" d="M336.99,-129.62C352.42,-116.68 372.27,-101.71 392.04,-91.5 417.73,-78.23 449.41,-69.07 472.53,-63.54"/>
<text text-anchor="middle" x="407.41" y="-94.7" font-family="Times,serif" font-size="14.00">3,315</text>
</g>
<!-- chembl.target
689 -->
<g id="node8" class="node">
<title>chembl.target
689</title>
<ellipse fill="none" stroke="black" cx="505.13" cy="-185" rx="64.35" ry="28.99"/>
<text text-anchor="middle" x="505.13" y="-188.2" font-family="Times,serif" font-size="14.00">chembl.target</text>
<text text-anchor="middle" x="505.13" y="-171.7" font-family="Times,serif" font-size="14.00">689</text>
</g>
<!-- complexportal
5,031&#45;&#45;chembl.target
689 -->
<g id="edge11" class="edge">
<title>complexportal
5,031&#45;&#45;chembl.target
689</title>
<path fill="none" stroke="black" d="M370.89,-165.3C394.19,-168.74 420.55,-172.64 443.64,-176.05"/>
<text text-anchor="middle" x="407.41" y="-175.44" font-family="Times,serif" font-size="14.00">203</text>
</g>
<!-- intact
3,766&#45;&#45;wikidata
48,581 -->
<g id="edge13" class="edge">
<title>intact
3,766&#45;&#45;wikidata
48,581</title>
<path fill="none" stroke="black" d="M538.2,-61.01C562.14,-65.32 594.67,-74.05 618.23,-91.5 640.03,-107.64 656.57,-133.99 666.92,-154.1"/>
<text text-anchor="middle" x="602.85" y="-94.7" font-family="Times,serif" font-size="14.00">2,043</text>
</g>
</g>
</svg>
