<?xml version="1.0" encoding="UTF-8" standalone="no"?>
<!DOCTYPE svg PUBLIC "-//W3C//DTD SVG 1.1//EN"
 "http://www.w3.org/Graphics/SVG/1.1/DTD/svg11.dtd">
<!-- Generated by graphviz version 12.2.1 (20241206.2353)
 -->
<!-- Pages: 1 -->
<svg width="588pt" height="324pt"
 viewBox="0.00 0.00 587.98 323.53" xmlns="http://www.w3.org/2000/svg" xmlns:xlink="http://www.w3.org/1999/xlink">
<g id="graph0" class="graph" transform="scale(1 1) rotate(0) translate(4 319.53)">
<polygon fill="white" stroke="none" points="-4,4 -4,-319.53 583.98,-319.53 583.98,4 -4,4"/>
<!-- fplx
782 -->
<g id="node1" class="node">
<title>fplx
782</title>
<ellipse fill="none" stroke="black" cx="27" cy="-216.93" rx="27" ry="28.99"/>
<text text-anchor="middle" x="27" y="-220.13" font-family="Times,serif" font-size="14.00">fplx</text>
<text text-anchor="middle" x="27" y="-203.63" font-family="Times,serif" font-size="14.00">782</text>
</g>
<!-- scomp
135 -->
<g id="node2" class="node">
<title>scomp
135</title>
<ellipse fill="none" stroke="black" cx="147.02" cy="-248.93" rx="36.77" ry="28.99"/>
<text text-anchor="middle" x="147.02" y="-252.13" font-family="Times,serif" font-size="14.00">scomp</text>
<text text-anchor="middle" x="147.02" y="-235.63" font-family="Times,serif" font-size="14.00">135</text>
</g>
<!-- fplx
782&#45;&#45;scomp
135 -->
<g id="edge1" class="edge">
<title>fplx
782&#45;&#45;scomp
135</title>
<path fill="none" stroke="black" d="M53.61,-223.87C70.69,-228.5 93.35,-234.64 111.95,-239.69"/>
<text text-anchor="middle" x="82.12" y="-237.09" font-family="Times,serif" font-size="14.00">66</text>
</g>
<!-- signor
856 -->
<g id="node3" class="node">
<title>signor
856</title>
<ellipse fill="none" stroke="black" cx="147.02" cy="-60.93" rx="35.18" ry="28.99"/>
<text text-anchor="middle" x="147.02" y="-64.13" font-family="Times,serif" font-size="14.00">signor</text>
<text text-anchor="middle" x="147.02" y="-47.63" font-family="Times,serif" font-size="14.00">856</text>
</g>
<!-- fplx
782&#45;&#45;signor
856 -->
<g id="edge2" class="edge">
<title>fplx
782&#45;&#45;signor
856</title>
<path fill="none" stroke="black" d="M43.75,-193.54C59.85,-169.95 85.89,-132.73 110.25,-101.93 114.94,-96 120.19,-89.77 125.19,-84.01"/>
<text text-anchor="middle" x="82.12" y="-154.8" font-family="Times,serif" font-size="14.00">118</text>
</g>
<!-- go
2,059 -->
<g id="node4" class="node">
<title>go
2,059</title>
<ellipse fill="none" stroke="black" cx="317.54" cy="-195.93" rx="33.06" ry="28.99"/>
<text text-anchor="middle" x="317.54" y="-199.13" font-family="Times,serif" font-size="14.00">go</text>
<text text-anchor="middle" x="317.54" y="-182.63" font-family="Times,serif" font-size="14.00">2,059</text>
</g>
<!-- fplx
782&#45;&#45;go
2,059 -->
<g id="edge3" class="edge">
<title>fplx
782&#45;&#45;go
2,059</title>
<path fill="none" stroke="black" d="M53.2,-208.15C69.3,-203.02 90.74,-197.05 110.25,-194.43 171.3,-186.23 243.44,-189.72 284.2,-192.9"/>
<text text-anchor="middle" x="147.02" y="-197.63" font-family="Times,serif" font-size="14.00">50</text>
</g>
<!-- wikidata -->
<g id="node5" class="node">
<title>wikidata</title>
<ellipse fill="none" stroke="black" cx="515.63" cy="-156.93" rx="42.65" ry="18"/>
<text text-anchor="middle" x="515.63" y="-151.88" font-family="Times,serif" font-size="14.00">wikidata</text>
</g>
<!-- fplx
782&#45;&#45;wikidata -->
<g id="edge4" class="edge">
<title>fplx
782&#45;&#45;wikidata</title>
<path fill="none" stroke="black" d="M45.35,-238.33C60.47,-255.15 84.03,-277.28 110.25,-286.93 159.78,-305.15 307.5,-304.33 384.54,-273.93 436.81,-253.3 481.47,-201.38 502.22,-174.17"/>
<text text-anchor="middle" x="217.16" y="-302.23" font-family="Times,serif" font-size="14.00">411</text>
</g>
<!-- scomp
135&#45;&#45;go
2,059 -->
<g id="edge5" class="edge">
<title>scomp
135&#45;&#45;go
2,059</title>
<path fill="none" stroke="black" d="M181.22,-237.27C188.01,-234.96 195.12,-232.58 201.79,-230.43 230.1,-221.3 262.59,-211.61 285.75,-204.82"/>
<text text-anchor="middle" x="217.16" y="-233.63" font-family="Times,serif" font-size="14.00">25</text>
</g>
<!-- scomp
135&#45;&#45;wikidata -->
<g id="edge6" class="edge">
<title>scomp
135&#45;&#45;wikidata</title>
<path fill="none" stroke="black" d="M183.88,-251.99C231.11,-254.84 316.16,-255.82 384.54,-233.93 426.78,-220.4 469.94,-191.18 494.41,-172.87"/>
<text text-anchor="middle" x="317.54" y="-256.47" font-family="Times,serif" font-size="14.00">60</text>
</g>
<!-- signor
856&#45;&#45;wikidata -->
<g id="edge8" class="edge">
<title>signor
856&#45;&#45;wikidata</title>
<path fill="none" stroke="black" d="M176,-43.91C195.98,-32.79 223.91,-19.29 250.54,-13.43 308.7,-0.61 329.01,8.11 384.54,-13.43 411.89,-24.03 416.19,-34.09 433.29,-57.93 444.89,-74.1 439.7,-82.75 451.29,-98.93 463.01,-115.29 479.98,-130.53 493.41,-141.27"/>
<text text-anchor="middle" x="317.54" y="-16.63" font-family="Times,serif" font-size="14.00">86</text>
</g>
<!-- complexportal
5,031 -->
<g id="node6" class="node">
<title>complexportal
5,031</title>
<ellipse fill="none" stroke="black" cx="317.54" cy="-67.93" rx="67" ry="28.99"/>
<text text-anchor="middle" x="317.54" y="-71.13" font-family="Times,serif" font-size="14.00">complexportal</text>
<text text-anchor="middle" x="317.54" y="-54.63" font-family="Times,serif" font-size="14.00">5,031</text>
</g>
<!-- signor
856&#45;&#45;complexportal
5,031 -->
<g id="edge7" class="edge">
<title>signor
856&#45;&#45;complexportal
5,031</title>
<path fill="none" stroke="black" d="M182.57,-61.17C197.89,-61.37 216.12,-61.74 232.54,-62.43 238.53,-62.67 244.75,-62.99 250.98,-63.33"/>
<text text-anchor="middle" x="217.16" y="-65.63" font-family="Times,serif" font-size="14.00">267</text>
</g>
<!-- go
2,059&#45;&#45;wikidata -->
<g id="edge9" class="edge">
<title>go
2,059&#45;&#45;wikidata</title>
<path fill="none" stroke="black" d="M350.04,-189.66C384.47,-182.81 439.63,-171.84 476.48,-164.51"/>
<text text-anchor="middle" x="417.91" y="-181.96" font-family="Times,serif" font-size="14.00">43</text>
</g>
<!-- complexportal
5,031&#45;&#45;wikidata -->
<g id="edge13" class="edge">
<title>complexportal
5,031&#45;&#45;wikidata</title>
<path fill="none" stroke="black" d="M376.99,-81.86C395.44,-87.21 415.6,-94.08 433.29,-102.43 455.57,-112.95 478.71,-129.04 494.59,-141.01"/>
<text text-anchor="middle" x="417.91" y="-105.63" font-family="Times,serif" font-size="14.00">4,761</text>
</g>
<!-- chembl.target
689 -->
<g id="node8" class="node">
<title>chembl.target
689</title>
<ellipse fill="none" stroke="black" cx="515.63" cy="-60.93" rx="64.35" ry="28.99"/>
<text text-anchor="middle" x="515.63" y="-64.13" font-family="Times,serif" font-size="14.00">chembl.target</text>
<text text-anchor="middle" x="515.63" y="-47.63" font-family="Times,serif" font-size="14.00">689</text>
</g>
<!-- complexportal
5,031&#45;&#45;chembl.target
689 -->
<g id="edge12" class="edge">
<title>complexportal
5,031&#45;&#45;chembl.target
689</title>
<path fill="none" stroke="black" d="M384.09,-63.3C390.32,-62.96 396.55,-62.66 402.54,-62.43 418.19,-61.81 435.09,-61.43 450.89,-61.2"/>
<text text-anchor="middle" x="417.91" y="-65.63" font-family="Times,serif" font-size="14.00">203</text>
</g>
<!-- intact -->
<g id="node7" class="node">
<title>intact</title>
<ellipse fill="none" stroke="black" cx="147.02" cy="-128.93" rx="31.39" ry="18"/>
<text text-anchor="middle" x="147.02" y="-123.88" font-family="Times,serif" font-size="14.00">intact</text>
</g>
<!-- intact&#45;&#45;wikidata -->
<g id="edge11" class="edge">
<title>intact&#45;&#45;wikidata</title>
<path fill="none" stroke="black" stroke-width="2.22" d="M178.68,-129.9C223.82,-131.48 310.79,-135.09 384.54,-141.43 414.79,-144.02 448.87,-148.13 474.56,-151.46"/>
<text text-anchor="middle" x="317.54" y="-144.63" font-family="Times,serif" font-size="14.00">2,043</text>
</g>
<!-- intact&#45;&#45;complexportal
5,031 -->
<g id="edge10" class="edge">
<title>intact&#45;&#45;complexportal
5,031</title>
<path fill="none" stroke="black" d="M170.67,-116.72C180.13,-111.9 191.33,-106.54 201.79,-102.43 220.28,-95.15 240.94,-88.5 259.58,-83.02"/>
<text text-anchor="middle" x="217.16" y="-105.63" font-family="Times,serif" font-size="14.00">3,325</text>
</g>
</g>
</svg>
