<?xml version="1.0" encoding="UTF-8" standalone="no"?>
<!DOCTYPE svg PUBLIC "-//W3C//DTD SVG 1.1//EN"
 "http://www.w3.org/Graphics/SVG/1.1/DTD/svg11.dtd">
<!-- Generated by graphviz version 12.2.1 (20241206.2353)
 -->
<!-- Pages: 1 -->
<svg width="1077pt" height="1246pt"
 viewBox="0.00 0.00 1076.56 1246.00" xmlns="http://www.w3.org/2000/svg" xmlns:xlink="http://www.w3.org/1999/xlink">
<g id="graph0" class="graph" transform="scale(1 1) rotate(0) translate(4 1242)">
<polygon fill="white" stroke="none" points="-4,4 -4,-1242 1072.56,-1242 1072.56,4 -4,4"/>
<!-- mesh -->
<g id="node1" class="node">
<title>mesh</title>
<ellipse fill="none" stroke="black" cx="40.6" cy="-681" rx="30.88" ry="18"/>
<text text-anchor="middle" x="40.6" y="-675.95" font-family="Times,serif" font-size="14.00">mesh</text>
</g>
<!-- chebi -->
<g id="node2" class="node">
<title>chebi</title>
<ellipse fill="none" stroke="black" cx="219.58" cy="-896" rx="30.88" ry="18"/>
<text text-anchor="middle" x="219.58" y="-890.95" font-family="Times,serif" font-size="14.00">chebi</text>
</g>
<!-- mesh&#45;&#45;chebi -->
<g id="edge1" class="edge">
<title>mesh&#45;&#45;chebi</title>
<path fill="none" stroke="black" stroke-width="2.75" d="M43.26,-699.19C47.19,-732.3 59.91,-802.83 99.21,-845 123.33,-870.88 162.76,-884.2 189.66,-890.63"/>
<text text-anchor="middle" x="117.96" y="-874.78" font-family="Times,serif" font-size="14.00">25,640</text>
</g>
<!-- efo -->
<g id="node3" class="node">
<title>efo</title>
<ellipse fill="none" stroke="black" cx="219.58" cy="-842" rx="27" ry="18"/>
<text text-anchor="middle" x="219.58" y="-836.95" font-family="Times,serif" font-size="14.00">efo</text>
</g>
<!-- mesh&#45;&#45;efo -->
<g id="edge2" class="edge">
<title>mesh&#45;&#45;efo</title>
<path fill="none" stroke="black" stroke-width="1.05" d="M45.35,-699.06C51.78,-725.58 67.41,-774.96 99.21,-803 125.53,-826.22 165.96,-835.66 192.34,-839.47"/>
<text text-anchor="middle" x="117.96" y="-827.21" font-family="Times,serif" font-size="14.00">729</text>
</g>
<!-- doid -->
<g id="node4" class="node">
<title>doid</title>
<ellipse fill="none" stroke="black" cx="405.06" cy="-829" rx="27.3" ry="18"/>
<text text-anchor="middle" x="405.06" y="-823.95" font-family="Times,serif" font-size="14.00">doid</text>
</g>
<!-- mesh&#45;&#45;doid -->
<g id="edge3" class="edge">
<title>mesh&#45;&#45;doid</title>
<path fill="none" stroke="black" stroke-width="1.13" d="M56.83,-696.72C67.95,-707.69 83.72,-722.23 99.21,-733 122.05,-748.9 128.78,-751.88 154.71,-762 175.9,-770.27 320.27,-807.55 379.15,-822.64"/>
<text text-anchor="middle" x="219.58" y="-800.54" font-family="Times,serif" font-size="14.00">1,939</text>
</g>
<!-- hgnc -->
<g id="node5" class="node">
<title>hgnc</title>
<ellipse fill="none" stroke="black" cx="219.58" cy="-735" rx="28.83" ry="18"/>
<text text-anchor="middle" x="219.58" y="-729.95" font-family="Times,serif" font-size="14.00">hgnc</text>
</g>
<!-- mesh&#45;&#45;hgnc -->
<g id="edge4" class="edge">
<title>mesh&#45;&#45;hgnc</title>
<path fill="none" stroke="black" stroke-width="1.18" d="M66.97,-690.74C76.96,-694.45 88.56,-698.59 99.21,-702 130.95,-712.16 168.02,-722.11 192.32,-728.39"/>
<text text-anchor="middle" x="117.96" y="-716.02" font-family="Times,serif" font-size="14.00">2,693</text>
</g>
<!-- hp -->
<g id="node6" class="node">
<title>hp</title>
<ellipse fill="none" stroke="black" cx="219.58" cy="-681" rx="27" ry="18"/>
<text text-anchor="middle" x="219.58" y="-675.95" font-family="Times,serif" font-size="14.00">hp</text>
</g>
<!-- mesh&#45;&#45;hp -->
<g id="edge5" class="edge">
<title>mesh&#45;&#45;hp</title>
<path fill="none" stroke="black" stroke-width="1.04" d="M71.63,-681C105.45,-681 159.91,-681 192.18,-681"/>
<text text-anchor="middle" x="117.96" y="-684.2" font-family="Times,serif" font-size="14.00">593</text>
</g>
<!-- go
2,059 -->
<g id="node7" class="node">
<title>go
2,059</title>
<ellipse fill="none" stroke="black" cx="219.58" cy="-578" rx="33.06" ry="28.99"/>
<text text-anchor="middle" x="219.58" y="-581.2" font-family="Times,serif" font-size="14.00">go</text>
<text text-anchor="middle" x="219.58" y="-564.7" font-family="Times,serif" font-size="14.00">2,059</text>
</g>
<!-- mesh&#45;&#45;go
2,059 -->
<g id="edge6" class="edge">
<title>mesh&#45;&#45;go
2,059</title>
<path fill="none" stroke="black" d="M50.04,-663.53C59.51,-645.84 76.56,-619.08 99.21,-604.5 125.36,-587.67 160.67,-581.42 186.1,-579.16"/>
<text text-anchor="middle" x="117.96" y="-607.7" font-family="Times,serif" font-size="14.00">44</text>
</g>
<!-- fplx
782 -->
<g id="node8" class="node">
<title>fplx
782</title>
<ellipse fill="none" stroke="black" cx="405.06" cy="-500" rx="27" ry="28.99"/>
<text text-anchor="middle" x="405.06" y="-503.2" font-family="Times,serif" font-size="14.00">fplx</text>
<text text-anchor="middle" x="405.06" y="-486.7" font-family="Times,serif" font-size="14.00">782</text>
</g>
<!-- mesh&#45;&#45;fplx
782 -->
<g id="edge7" class="edge">
<title>mesh&#45;&#45;fplx
782</title>
<path fill="none" stroke="black" d="M47.9,-663.14C61.25,-628.42 96.07,-552.64 154.71,-523.5 228.88,-486.64 330.74,-491.62 378.01,-496.59"/>
<text text-anchor="middle" x="219.58" y="-526.7" font-family="Times,serif" font-size="14.00">450</text>
</g>
<!-- cl -->
<g id="node9" class="node">
<title>cl</title>
<ellipse fill="none" stroke="black" cx="219.58" cy="-358" rx="27" ry="18"/>
<text text-anchor="middle" x="219.58" y="-352.95" font-family="Times,serif" font-size="14.00">cl</text>
</g>
<!-- mesh&#45;&#45;cl -->
<g id="edge8" class="edge">
<title>mesh&#45;&#45;cl</title>
<path fill="none" stroke="black" stroke-width="1.01" d="M41.32,-662.6C41.56,-619.24 47.58,-509.04 99.21,-438.5 110.69,-422.82 123.06,-429.84 136.71,-416 147.89,-404.65 142.75,-395.53 154.71,-385 165.82,-375.21 181,-368.59 193.77,-364.36"/>
<text text-anchor="middle" x="117.96" y="-441.7" font-family="Times,serif" font-size="14.00">81</text>
</g>
<!-- vo -->
<g id="node10" class="node">
<title>vo</title>
<ellipse fill="none" stroke="black" cx="219.58" cy="-72" rx="27" ry="18"/>
<text text-anchor="middle" x="219.58" y="-66.95" font-family="Times,serif" font-size="14.00">vo</text>
</g>
<!-- mesh&#45;&#45;vo -->
<g id="edge9" class="edge">
<title>mesh&#45;&#45;vo</title>
<path fill="none" stroke="black" stroke-width="1.01" d="M42.35,-662.53C45.35,-596.39 58.4,-372.2 99.21,-315.5 110.18,-300.25 124.31,-310.11 136.71,-296 151.02,-279.71 196.74,-140.07 212.88,-89.87"/>
<text text-anchor="middle" x="117.96" y="-318.7" font-family="Times,serif" font-size="14.00">165</text>
</g>
<!-- kegg.pathway
6 -->
<g id="node11" class="node">
<title>kegg.pathway
6</title>
<ellipse fill="none" stroke="black" cx="219.58" cy="-423" rx="64.88" ry="28.99"/>
<text text-anchor="middle" x="219.58" y="-426.2" font-family="Times,serif" font-size="14.00">kegg.pathway</text>
<text text-anchor="middle" x="219.58" y="-409.7" font-family="Times,serif" font-size="14.00">6</text>
</g>
<!-- mesh&#45;&#45;kegg.pathway
6 -->
<g id="edge10" class="edge">
<title>mesh&#45;&#45;kegg.pathway
6</title>
<path fill="none" stroke="black" d="M41.98,-662.53C43.72,-624.02 52.83,-534.15 99.21,-479.5 104.47,-473.29 140.63,-456.59 171.78,-442.94"/>
<text text-anchor="middle" x="117.96" y="-482.7" font-family="Times,serif" font-size="14.00">25</text>
</g>
<!-- maxo -->
<g id="node12" class="node">
<title>maxo</title>
<ellipse fill="none" stroke="black" cx="219.58" cy="-1058" rx="31.9" ry="18"/>
<text text-anchor="middle" x="219.58" y="-1052.95" font-family="Times,serif" font-size="14.00">maxo</text>
</g>
<!-- mesh&#45;&#45;maxo -->
<g id="edge11" class="edge">
<title>mesh&#45;&#45;maxo</title>
<path fill="none" stroke="black" stroke-width="1.01" d="M43.08,-699.11C48.2,-758.21 66.61,-944.51 99.21,-994 119.97,-1025.52 161.62,-1042.67 189.81,-1051.09"/>
<text text-anchor="middle" x="117.96" y="-1031.34" font-family="Times,serif" font-size="14.00">127</text>
</g>
<!-- ncit -->
<g id="node13" class="node">
<title>ncit</title>
<ellipse fill="none" stroke="black" cx="599.01" cy="-775" rx="27" ry="18"/>
<text text-anchor="middle" x="599.01" y="-769.95" font-family="Times,serif" font-size="14.00">ncit</text>
</g>
<!-- mesh&#45;&#45;ncit -->
<g id="edge12" class="edge">
<title>mesh&#45;&#45;ncit</title>
<path fill="none" stroke="black" stroke-width="1.06" d="M68.25,-672.77C90.97,-666.2 124.63,-657.54 154.71,-654 211.98,-647.26 227.79,-643.35 284.46,-654 397.53,-675.25 418.16,-707 525.65,-748 542.07,-754.26 560.63,-761.18 574.84,-766.45"/>
<text text-anchor="middle" x="312.59" y="-665.52" font-family="Times,serif" font-size="14.00">905</text>
</g>
<!-- uniprot -->
<g id="node14" class="node">
<title>uniprot</title>
<ellipse fill="none" stroke="black" cx="219.58" cy="-1004" rx="37.53" ry="18"/>
<text text-anchor="middle" x="219.58" y="-998.95" font-family="Times,serif" font-size="14.00">uniprot</text>
</g>
<!-- mesh&#45;&#45;uniprot -->
<g id="edge13" class="edge">
<title>mesh&#45;&#45;uniprot</title>
<path fill="none" stroke="black" stroke-width="1.03" d="M41.03,-699.35C40.51,-744.8 44.77,-864.56 99.21,-942 119.62,-971.04 157.88,-987.45 185.59,-996"/>
<text text-anchor="middle" x="117.96" y="-976.49" font-family="Times,serif" font-size="14.00">387</text>
</g>
<!-- mondo -->
<g id="node15" class="node">
<title>mondo</title>
<ellipse fill="none" stroke="black" cx="219.58" cy="-950" rx="37.02" ry="18"/>
<text text-anchor="middle" x="219.58" y="-944.95" font-family="Times,serif" font-size="14.00">mondo</text>
</g>
<!-- mesh&#45;&#45;mondo -->
<g id="edge14" class="edge">
<title>mesh&#45;&#45;mondo</title>
<path fill="none" stroke="black" stroke-width="1.02" d="M42,-699.47C43.75,-738.95 52.87,-832.79 99.21,-892 120.58,-919.31 158.08,-934.56 185.36,-942.48"/>
<text text-anchor="middle" x="117.96" y="-924.77" font-family="Times,serif" font-size="14.00">222</text>
</g>
<!-- uberon -->
<g id="node16" class="node">
<title>uberon</title>
<ellipse fill="none" stroke="black" cx="219.58" cy="-291" rx="36.51" ry="18"/>
<text text-anchor="middle" x="219.58" y="-285.95" font-family="Times,serif" font-size="14.00">uberon</text>
</g>
<!-- mesh&#45;&#45;uberon -->
<g id="edge15" class="edge">
<title>mesh&#45;&#45;uberon</title>
<path fill="none" stroke="black" stroke-width="1.01" d="M41.25,-662.83C41.14,-615.36 46.05,-485.08 99.21,-395.5 110.32,-376.78 122.92,-380.85 136.71,-364 147.29,-351.07 143.25,-343.16 154.71,-331 165.38,-319.66 179.93,-310.22 192.45,-303.37"/>
<text text-anchor="middle" x="117.96" y="-398.7" font-family="Times,serif" font-size="14.00">131</text>
</g>
<!-- efo&#45;&#45;doid -->
<g id="edge16" class="edge">
<title>efo&#45;&#45;doid</title>
<path fill="none" stroke="black" stroke-width="1.01" d="M246.87,-840.14C281.65,-837.67 342.62,-833.35 377.52,-830.88"/>
<text text-anchor="middle" x="312.59" y="-839.09" font-family="Times,serif" font-size="14.00">96</text>
</g>
<!-- ccle -->
<g id="node17" class="node">
<title>ccle</title>
<ellipse fill="none" stroke="black" cx="405.06" cy="-883" rx="27" ry="18"/>
<text text-anchor="middle" x="405.06" y="-877.95" font-family="Times,serif" font-size="14.00">ccle</text>
</g>
<!-- efo&#45;&#45;ccle -->
<g id="edge17" class="edge">
<title>efo&#45;&#45;ccle</title>
<path fill="none" stroke="black" stroke-width="1.04" d="M245.71,-847.61C280.75,-855.44 343.91,-869.56 378.94,-877.39"/>
<text text-anchor="middle" x="312.59" y="-866.93" font-family="Times,serif" font-size="14.00">570</text>
</g>
<!-- umls -->
<g id="node18" class="node">
<title>umls</title>
<ellipse fill="none" stroke="black" cx="599.01" cy="-829" rx="29.34" ry="18"/>
<text text-anchor="middle" x="599.01" y="-823.95" font-family="Times,serif" font-size="14.00">umls</text>
</g>
<!-- doid&#45;&#45;umls -->
<g id="edge18" class="edge">
<title>doid&#45;&#45;umls</title>
<path fill="none" stroke="black" stroke-width="1.01" d="M432.75,-829C468.7,-829 532.43,-829 569.36,-829"/>
<text text-anchor="middle" x="497.53" y="-832.2" font-family="Times,serif" font-size="14.00">190</text>
</g>
<!-- go
2,059&#45;&#45;fplx
782 -->
<g id="edge19" class="edge">
<title>go
2,059&#45;&#45;fplx
782</title>
<path fill="none" stroke="black" d="M249.66,-565.64C285.53,-550.39 345.88,-524.73 379.53,-510.43"/>
<text text-anchor="middle" x="312.59" y="-544.54" font-family="Times,serif" font-size="14.00">46</text>
</g>
<!-- wikipedia.en -->
<g id="node19" class="node">
<title>wikipedia.en</title>
<ellipse fill="none" stroke="black" cx="405.06" cy="-583" rx="58.52" ry="18"/>
<text text-anchor="middle" x="405.06" y="-577.95" font-family="Times,serif" font-size="14.00">wikipedia.en</text>
</g>
<!-- go
2,059&#45;&#45;wikipedia.en -->
<g id="edge20" class="edge">
<title>go
2,059&#45;&#45;wikipedia.en</title>
<path fill="none" stroke="black" d="M252.96,-578.88C278.78,-579.59 315.6,-580.59 346.43,-581.43"/>
<text text-anchor="middle" x="312.59" y="-583.85" font-family="Times,serif" font-size="14.00">55</text>
</g>
<!-- fplx
782&#45;&#45;ncit -->
<g id="edge22" class="edge">
<title>fplx
782&#45;&#45;ncit</title>
<path fill="none" stroke="black" d="M428.87,-514.39C442.76,-524.37 459.66,-538.91 469.4,-556 490.47,-592.96 468.89,-611.7 487.4,-650 493.4,-662.41 501.36,-661.23 507.65,-673.5 523.21,-703.81 503.06,-722.51 525.65,-748 537.49,-761.34 556.55,-768.11 572.15,-771.53"/>
<text text-anchor="middle" x="497.53" y="-676.7" font-family="Times,serif" font-size="14.00">120</text>
</g>
<!-- reactome -->
<g id="node20" class="node">
<title>reactome</title>
<ellipse fill="none" stroke="black" cx="599.01" cy="-137" rx="45.21" ry="18"/>
<text text-anchor="middle" x="599.01" y="-131.95" font-family="Times,serif" font-size="14.00">reactome</text>
</g>
<!-- fplx
782&#45;&#45;reactome -->
<g id="edge21" class="edge">
<title>fplx
782&#45;&#45;reactome</title>
<path fill="none" stroke="black" d="M411.12,-471.38C420.75,-421.54 444.63,-316.61 487.4,-237.5 494.12,-225.07 500.62,-225.25 507.65,-213 519.21,-192.88 509.29,-180.45 525.65,-164 534.45,-155.16 546.4,-149.18 558.06,-145.15"/>
<text text-anchor="middle" x="497.53" y="-240.7" font-family="Times,serif" font-size="14.00">433</text>
</g>
<!-- hgnc.genefamily -->
<g id="node21" class="node">
<title>hgnc.genefamily</title>
<ellipse fill="none" stroke="black" cx="599.01" cy="-299" rx="73.36" ry="18"/>
<text text-anchor="middle" x="599.01" y="-293.95" font-family="Times,serif" font-size="14.00">hgnc.genefamily</text>
</g>
<!-- fplx
782&#45;&#45;hgnc.genefamily -->
<g id="edge23" class="edge">
<title>fplx
782&#45;&#45;hgnc.genefamily</title>
<path fill="none" stroke="black" d="M417.08,-473.55C434.43,-435.17 471.8,-364.43 525.65,-326 533.08,-320.7 541.66,-316.32 550.27,-312.73"/>
<text text-anchor="middle" x="497.53" y="-363.87" font-family="Times,serif" font-size="14.00">161</text>
</g>
<!-- scomp
135 -->
<g id="node22" class="node">
<title>scomp
135</title>
<ellipse fill="none" stroke="black" cx="599.01" cy="-710" rx="36.77" ry="28.99"/>
<text text-anchor="middle" x="599.01" y="-713.2" font-family="Times,serif" font-size="14.00">scomp</text>
<text text-anchor="middle" x="599.01" y="-696.7" font-family="Times,serif" font-size="14.00">135</text>
</g>
<!-- fplx
782&#45;&#45;scomp
135 -->
<g id="edge24" class="edge">
<title>fplx
782&#45;&#45;scomp
135</title>
<path fill="none" stroke="black" d="M428.42,-515.08C441.96,-525.24 458.64,-539.72 469.4,-556 483.36,-577.1 474.91,-588 487.4,-610 494.21,-621.99 500.16,-621.92 507.65,-633.5 517.92,-649.36 512.61,-658.34 525.65,-672 536.53,-683.39 551.58,-692.05 565.14,-698.2"/>
<text text-anchor="middle" x="497.53" y="-636.7" font-family="Times,serif" font-size="14.00">66</text>
</g>
<!-- interpro -->
<g id="node23" class="node">
<title>interpro</title>
<ellipse fill="none" stroke="black" cx="599.01" cy="-645" rx="40.09" ry="18"/>
<text text-anchor="middle" x="599.01" y="-639.95" font-family="Times,serif" font-size="14.00">interpro</text>
</g>
<!-- fplx
782&#45;&#45;interpro -->
<g id="edge25" class="edge">
<title>fplx
782&#45;&#45;interpro</title>
<path fill="none" stroke="black" d="M427.2,-517.03C448.7,-534.88 482.37,-564.34 507.65,-593.5 516.51,-603.71 514.87,-609.85 525.65,-618 536.67,-626.33 550.54,-632.32 563.18,-636.52"/>
<text text-anchor="middle" x="497.53" y="-596.7" font-family="Times,serif" font-size="14.00">217</text>
</g>
<!-- ec -->
<g id="node24" class="node">
<title>ec</title>
<ellipse fill="none" stroke="black" cx="599.01" cy="-191" rx="27" ry="18"/>
<text text-anchor="middle" x="599.01" y="-185.95" font-family="Times,serif" font-size="14.00">ec</text>
</g>
<!-- fplx
782&#45;&#45;ec -->
<g id="edge26" class="edge">
<title>fplx
782&#45;&#45;ec</title>
<path fill="none" stroke="black" d="M416.63,-473.51C444,-405.16 515.74,-227.49 525.65,-218 538.44,-205.76 557.28,-198.97 572.53,-195.25"/>
<text text-anchor="middle" x="497.53" y="-302.06" font-family="Times,serif" font-size="14.00">42</text>
</g>
<!-- nextprot.family -->
<g id="node25" class="node">
<title>nextprot.family</title>
<ellipse fill="none" stroke="black" cx="599.01" cy="-591" rx="68.75" ry="18"/>
<text text-anchor="middle" x="599.01" y="-585.95" font-family="Times,serif" font-size="14.00">nextprot.family</text>
</g>
<!-- fplx
782&#45;&#45;nextprot.family -->
<g id="edge27" class="edge">
<title>fplx
782&#45;&#45;nextprot.family</title>
<path fill="none" stroke="black" d="M430.03,-512.25C450.71,-522.91 481.33,-538.9 507.65,-553.5 515.75,-557.99 517.29,-560.03 525.65,-564 535.23,-568.54 545.78,-572.84 555.8,-576.63"/>
<text text-anchor="middle" x="497.53" y="-556.7" font-family="Times,serif" font-size="14.00">77</text>
</g>
<!-- sfam -->
<g id="node26" class="node">
<title>sfam</title>
<ellipse fill="none" stroke="black" cx="599.01" cy="-407" rx="29.34" ry="18"/>
<text text-anchor="middle" x="599.01" y="-401.95" font-family="Times,serif" font-size="14.00">sfam</text>
</g>
<!-- fplx
782&#45;&#45;sfam -->
<g id="edge28" class="edge">
<title>fplx
782&#45;&#45;sfam</title>
<path fill="none" stroke="black" d="M428.91,-486.06C452.6,-471.94 490.96,-449.94 525.65,-434 540.88,-427 558.49,-420.4 572.53,-415.48"/>
<text text-anchor="middle" x="497.53" y="-455.56" font-family="Times,serif" font-size="14.00">242</text>
</g>
<!-- pfam -->
<g id="node27" class="node">
<title>pfam</title>
<ellipse fill="none" stroke="black" cx="599.01" cy="-353" rx="30.37" ry="18"/>
<text text-anchor="middle" x="599.01" y="-347.95" font-family="Times,serif" font-size="14.00">pfam</text>
</g>
<!-- fplx
782&#45;&#45;pfam -->
<g id="edge29" class="edge">
<title>fplx
782&#45;&#45;pfam</title>
<path fill="none" stroke="black" d="M422.87,-478.1C444.21,-451.62 483.37,-407.23 525.65,-380 539.41,-371.14 556.49,-364.6 570.6,-360.17"/>
<text text-anchor="middle" x="497.53" y="-411.33" font-family="Times,serif" font-size="14.00">59</text>
</g>
<!-- signor
856 -->
<g id="node28" class="node">
<title>signor
856</title>
<ellipse fill="none" stroke="black" cx="599.01" cy="-472" rx="35.18" ry="28.99"/>
<text text-anchor="middle" x="599.01" y="-475.2" font-family="Times,serif" font-size="14.00">signor</text>
<text text-anchor="middle" x="599.01" y="-458.7" font-family="Times,serif" font-size="14.00">856</text>
</g>
<!-- fplx
782&#45;&#45;signor
856 -->
<g id="edge30" class="edge">
<title>fplx
782&#45;&#45;signor
856</title>
<path fill="none" stroke="black" d="M431.95,-496.22C466.13,-491.24 526.38,-482.45 564.15,-476.94"/>
<text text-anchor="middle" x="497.53" y="-490.88" font-family="Times,serif" font-size="14.00">118</text>
</g>
<!-- dron -->
<g id="node34" class="node">
<title>dron</title>
<ellipse fill="none" stroke="black" cx="405.06" cy="-18" rx="27.81" ry="18"/>
<text text-anchor="middle" x="405.06" y="-12.95" font-family="Times,serif" font-size="14.00">dron</text>
</g>
<!-- vo&#45;&#45;dron -->
<g id="edge36" class="edge">
<title>vo&#45;&#45;dron</title>
<path fill="none" stroke="black" stroke-width="1.01" d="M244.57,-64.94C279.44,-54.68 343.82,-35.73 379.19,-25.32"/>
<text text-anchor="middle" x="312.59" y="-49.82" font-family="Times,serif" font-size="14.00">145</text>
</g>
<!-- drugbank -->
<g id="node35" class="node">
<title>drugbank</title>
<ellipse fill="none" stroke="black" cx="405.06" cy="-72" rx="45.72" ry="18"/>
<text text-anchor="middle" x="405.06" y="-66.95" font-family="Times,serif" font-size="14.00">drugbank</text>
</g>
<!-- vo&#45;&#45;drugbank -->
<g id="edge37" class="edge">
<title>vo&#45;&#45;drugbank</title>
<path fill="none" stroke="black" d="M246.87,-72C276.1,-72 323.83,-72 359.04,-72"/>
<text text-anchor="middle" x="312.59" y="-75.2" font-family="Times,serif" font-size="14.00">40</text>
</g>
<!-- kegg.pathway
6&#45;&#45;reactome -->
<g id="edge41" class="edge">
<title>kegg.pathway
6&#45;&#45;reactome</title>
<path fill="none" stroke="black" d="M261.26,-400.5C269.15,-395.67 277.21,-390.39 284.46,-385 401.15,-298.27 401.66,-239.92 525.65,-164 536.75,-157.21 549.82,-151.69 561.78,-147.45"/>
<text text-anchor="middle" x="405.06" y="-339.2" font-family="Times,serif" font-size="14.00">60</text>
</g>
<!-- wikipathways
15 -->
<g id="node40" class="node">
<title>wikipathways
15</title>
<ellipse fill="none" stroke="black" cx="405.06" cy="-137" rx="64.35" ry="28.99"/>
<text text-anchor="middle" x="405.06" y="-140.2" font-family="Times,serif" font-size="14.00">wikipathways</text>
<text text-anchor="middle" x="405.06" y="-123.7" font-family="Times,serif" font-size="14.00">15</text>
</g>
<!-- kegg.pathway
6&#45;&#45;wikipathways
15 -->
<g id="edge40" class="edge">
<title>kegg.pathway
6&#45;&#45;wikipathways
15</title>
<path fill="none" stroke="black" d="M267.09,-402.75C273.9,-397.88 280.08,-392 284.46,-385 309.72,-344.64 273.13,-209 302.46,-171.5 312.5,-158.66 327.55,-150.57 343.01,-145.48"/>
<text text-anchor="middle" x="312.59" y="-174.7" font-family="Times,serif" font-size="14.00">68</text>
</g>
<!-- cellosaurus -->
<g id="node32" class="node">
<title>cellosaurus</title>
<ellipse fill="none" stroke="black" cx="599.01" cy="-883" rx="52.38" ry="18"/>
<text text-anchor="middle" x="599.01" y="-877.95" font-family="Times,serif" font-size="14.00">cellosaurus</text>
</g>
<!-- ccle&#45;&#45;cellosaurus -->
<g id="edge34" class="edge">
<title>ccle&#45;&#45;cellosaurus</title>
<path fill="none" stroke="black" stroke-width="1.01" d="M432.35,-883C461.61,-883 509.63,-883 546.45,-883"/>
<text text-anchor="middle" x="497.53" y="-886.2" font-family="Times,serif" font-size="14.00">114</text>
</g>
<!-- complexportal
5,031 -->
<g id="node41" class="node">
<title>complexportal
5,031</title>
<ellipse fill="none" stroke="black" cx="806.12" cy="-245" rx="67" ry="28.99"/>
<text text-anchor="middle" x="806.12" y="-248.2" font-family="Times,serif" font-size="14.00">complexportal</text>
<text text-anchor="middle" x="806.12" y="-231.7" font-family="Times,serif" font-size="14.00">5,031</text>
</g>
<!-- reactome&#45;&#45;complexportal
5,031 -->
<g id="edge43" class="edge">
<title>reactome&#45;&#45;complexportal
5,031</title>
<path fill="none" stroke="black" d="M634.81,-148.46C646.91,-152.84 660.43,-158.2 672.37,-164 706.49,-180.58 743.14,-203.36 769.27,-220.54"/>
<text text-anchor="middle" x="705.75" y="-191.52" font-family="Times,serif" font-size="14.00">727</text>
</g>
<!-- wikidata -->
<g id="node42" class="node">
<title>wikidata</title>
<ellipse fill="none" stroke="black" cx="1004.22" cy="-82" rx="42.65" ry="18"/>
<text text-anchor="middle" x="1004.22" y="-76.95" font-family="Times,serif" font-size="14.00">wikidata</text>
</g>
<!-- reactome&#45;&#45;wikidata -->
<g id="edge44" class="edge">
<title>reactome&#45;&#45;wikidata</title>
<path fill="none" stroke="black" stroke-width="4" d="M642.4,-131.22C720.65,-120.54 886.75,-97.89 963.19,-87.46"/>
<text text-anchor="middle" x="806.12" y="-120.84" font-family="Times,serif" font-size="14.00">43,845</text>
</g>
<!-- ec&#45;&#45;complexportal
5,031 -->
<g id="edge48" class="edge">
<title>ec&#45;&#45;complexportal
5,031</title>
<path fill="none" stroke="black" d="M624.35,-197.41C654.7,-205.4 707.55,-219.31 748.29,-230.04"/>
<text text-anchor="middle" x="705.75" y="-226.04" font-family="Times,serif" font-size="14.00">2,248</text>
</g>
<!-- signor
856&#45;&#45;complexportal
5,031 -->
<g id="edge49" class="edge">
<title>signor
856&#45;&#45;complexportal
5,031</title>
<path fill="none" stroke="black" d="M631.25,-459.58C644.82,-453.23 660.33,-444.58 672.37,-434 700.61,-409.18 758.7,-319.33 787.76,-273.02"/>
<text text-anchor="middle" x="705.75" y="-416.6" font-family="Times,serif" font-size="14.00">267</text>
</g>
<!-- agrovoc -->
<g id="node29" class="node">
<title>agrovoc</title>
<ellipse fill="none" stroke="black" cx="40.6" cy="-1112" rx="40.6" ry="18"/>
<text text-anchor="middle" x="40.6" y="-1106.95" font-family="Times,serif" font-size="14.00">agrovoc</text>
</g>
<!-- agro -->
<g id="node30" class="node">
<title>agro</title>
<ellipse fill="none" stroke="black" cx="219.58" cy="-1112" rx="27.3" ry="18"/>
<text text-anchor="middle" x="219.58" y="-1106.95" font-family="Times,serif" font-size="14.00">agro</text>
</g>
<!-- agrovoc&#45;&#45;agro -->
<g id="edge31" class="edge">
<title>agrovoc&#45;&#45;agro</title>
<path fill="none" stroke="black" stroke-width="1.01" d="M81.32,-1112C115.05,-1112 162.54,-1112 191.9,-1112"/>
<text text-anchor="middle" x="117.96" y="-1115.2" font-family="Times,serif" font-size="14.00">142</text>
</g>
<!-- bto -->
<g id="node31" class="node">
<title>bto</title>
<ellipse fill="none" stroke="black" cx="40.6" cy="-318" rx="27" ry="18"/>
<text text-anchor="middle" x="40.6" y="-312.95" font-family="Times,serif" font-size="14.00">bto</text>
</g>
<!-- bto&#45;&#45;cl -->
<g id="edge32" class="edge">
<title>bto&#45;&#45;cl</title>
<path fill="none" stroke="black" d="M65.24,-326.09C75.59,-329.45 87.92,-333.21 99.21,-336 131.12,-343.9 168.47,-350.34 192.78,-354.17"/>
<text text-anchor="middle" x="117.96" y="-347.13" font-family="Times,serif" font-size="14.00">74</text>
</g>
<!-- bto&#45;&#45;uberon -->
<g id="edge33" class="edge">
<title>bto&#45;&#45;uberon</title>
<path fill="none" stroke="black" d="M57.39,-303.68C68.27,-294.82 83.55,-284.25 99.21,-279.5 128.4,-270.64 163.27,-275.69 187.77,-281.63"/>
<text text-anchor="middle" x="117.96" y="-282.7" font-family="Times,serif" font-size="14.00">54</text>
</g>
<!-- cvx -->
<g id="node33" class="node">
<title>cvx</title>
<ellipse fill="none" stroke="black" cx="40.6" cy="-72" rx="27" ry="18"/>
<text text-anchor="middle" x="40.6" y="-66.95" font-family="Times,serif" font-size="14.00">cvx</text>
</g>
<!-- cvx&#45;&#45;vo -->
<g id="edge35" class="edge">
<title>cvx&#45;&#45;vo</title>
<path fill="none" stroke="black" d="M68.1,-72C101.56,-72 158.79,-72 192.2,-72"/>
<text text-anchor="middle" x="117.96" y="-75.2" font-family="Times,serif" font-size="14.00">47</text>
</g>
<!-- idomal -->
<g id="node36" class="node">
<title>idomal</title>
<ellipse fill="none" stroke="black" cx="40.6" cy="-1166" rx="37.02" ry="18"/>
<text text-anchor="middle" x="40.6" y="-1160.95" font-family="Times,serif" font-size="14.00">idomal</text>
</g>
<!-- vsmo -->
<g id="node37" class="node">
<title>vsmo</title>
<ellipse fill="none" stroke="black" cx="219.58" cy="-1166" rx="31.39" ry="18"/>
<text text-anchor="middle" x="219.58" y="-1160.95" font-family="Times,serif" font-size="14.00">vsmo</text>
</g>
<!-- idomal&#45;&#45;vsmo -->
<g id="edge38" class="edge">
<title>idomal&#45;&#45;vsmo</title>
<path fill="none" stroke="black" d="M77.85,-1166C110.21,-1166 157.09,-1166 187.71,-1166"/>
<text text-anchor="middle" x="117.96" y="-1169.2" font-family="Times,serif" font-size="14.00">23</text>
</g>
<!-- ito -->
<g id="node38" class="node">
<title>ito</title>
<ellipse fill="none" stroke="black" cx="40.6" cy="-1220" rx="27" ry="18"/>
<text text-anchor="middle" x="40.6" y="-1214.95" font-family="Times,serif" font-size="14.00">ito</text>
</g>
<!-- aio -->
<g id="node39" class="node">
<title>aio</title>
<ellipse fill="none" stroke="black" cx="219.58" cy="-1220" rx="27" ry="18"/>
<text text-anchor="middle" x="219.58" y="-1214.95" font-family="Times,serif" font-size="14.00">aio</text>
</g>
<!-- ito&#45;&#45;aio -->
<g id="edge39" class="edge">
<title>ito&#45;&#45;aio</title>
<path fill="none" stroke="black" d="M68.1,-1220C101.56,-1220 158.79,-1220 192.2,-1220"/>
<text text-anchor="middle" x="117.96" y="-1223.2" font-family="Times,serif" font-size="14.00">40</text>
</g>
<!-- wikipathways
15&#45;&#45;reactome -->
<g id="edge42" class="edge">
<title>wikipathways
15&#45;&#45;reactome</title>
<path fill="none" stroke="black" d="M469.71,-137C497.1,-137 528.47,-137 553.34,-137"/>
<text text-anchor="middle" x="497.53" y="-140.2" font-family="Times,serif" font-size="14.00">73</text>
</g>
<!-- complexportal
5,031&#45;&#45;wikidata -->
<g id="edge58" class="edge">
<title>complexportal
5,031&#45;&#45;wikidata</title>
<path fill="none" stroke="black" d="M828.02,-217.36C852.06,-187.25 894.14,-139.46 939.87,-110 949.57,-103.75 960.91,-98.25 971.28,-93.81"/>
<text text-anchor="middle" x="906.49" y="-151.75" font-family="Times,serif" font-size="14.00">4,759</text>
</g>
<!-- flybase -->
<g id="node47" class="node">
<title>flybase</title>
<ellipse fill="none" stroke="black" cx="1004.22" cy="-407" rx="37.53" ry="18"/>
<text text-anchor="middle" x="1004.22" y="-401.95" font-family="Times,serif" font-size="14.00">flybase</text>
</g>
<!-- complexportal
5,031&#45;&#45;flybase -->
<g id="edge51" class="edge">
<title>complexportal
5,031&#45;&#45;flybase</title>
<path fill="none" stroke="black" d="M827.91,-272.8C851.86,-303.05 893.86,-350.97 939.87,-380 950.18,-386.51 962.33,-392.11 973.22,-396.51"/>
<text text-anchor="middle" x="906.49" y="-368.51" font-family="Times,serif" font-size="14.00">207</text>
</g>
<!-- rhea -->
<g id="node48" class="node">
<title>rhea</title>
<ellipse fill="none" stroke="black" cx="1004.22" cy="-353" rx="27" ry="18"/>
<text text-anchor="middle" x="1004.22" y="-347.95" font-family="Times,serif" font-size="14.00">rhea</text>
</g>
<!-- complexportal
5,031&#45;&#45;rhea -->
<g id="edge52" class="edge">
<title>complexportal
5,031&#45;&#45;rhea</title>
<path fill="none" stroke="black" d="M843.77,-269.35C869.97,-286.26 906.38,-308.76 939.87,-326 952.94,-332.73 968.08,-339.23 980.27,-344.16"/>
<text text-anchor="middle" x="906.49" y="-319.25" font-family="Times,serif" font-size="14.00">1,155</text>
</g>
<!-- pdb -->
<g id="node49" class="node">
<title>pdb</title>
<ellipse fill="none" stroke="black" cx="1004.22" cy="-299" rx="27" ry="18"/>
<text text-anchor="middle" x="1004.22" y="-293.95" font-family="Times,serif" font-size="14.00">pdb</text>
</g>
<!-- complexportal
5,031&#45;&#45;pdb -->
<g id="edge53" class="edge">
<title>complexportal
5,031&#45;&#45;pdb</title>
<path fill="none" stroke="black" d="M863.31,-260.47C901.45,-270.98 950,-284.34 978.72,-292.26"/>
<text text-anchor="middle" x="906.49" y="-278.43" font-family="Times,serif" font-size="14.00">3,438</text>
</g>
<!-- matrixdb -->
<g id="node50" class="node">
<title>matrixdb</title>
<ellipse fill="none" stroke="black" cx="1004.22" cy="-245" rx="44.7" ry="18"/>
<text text-anchor="middle" x="1004.22" y="-239.95" font-family="Times,serif" font-size="14.00">matrixdb</text>
</g>
<!-- complexportal
5,031&#45;&#45;matrixdb -->
<g id="edge54" class="edge">
<title>complexportal
5,031&#45;&#45;matrixdb</title>
<path fill="none" stroke="black" d="M873.51,-245C901.73,-245 933.87,-245 959.1,-245"/>
<text text-anchor="middle" x="906.49" y="-248.2" font-family="Times,serif" font-size="14.00">242</text>
</g>
<!-- emdb -->
<g id="node51" class="node">
<title>emdb</title>
<ellipse fill="none" stroke="black" cx="1004.22" cy="-191" rx="31.9" ry="18"/>
<text text-anchor="middle" x="1004.22" y="-185.95" font-family="Times,serif" font-size="14.00">emdb</text>
</g>
<!-- complexportal
5,031&#45;&#45;emdb -->
<g id="edge55" class="edge">
<title>complexportal
5,031&#45;&#45;emdb</title>
<path fill="none" stroke="black" d="M863.31,-229.53C899.87,-219.46 945.98,-206.76 975.04,-198.76"/>
<text text-anchor="middle" x="906.49" y="-224.43" font-family="Times,serif" font-size="14.00">1,006</text>
</g>
<!-- humap -->
<g id="node52" class="node">
<title>humap</title>
<ellipse fill="none" stroke="black" cx="1004.22" cy="-137" rx="36.51" ry="18"/>
<text text-anchor="middle" x="1004.22" y="-131.95" font-family="Times,serif" font-size="14.00">humap</text>
</g>
<!-- complexportal
5,031&#45;&#45;humap -->
<g id="edge56" class="edge">
<title>complexportal
5,031&#45;&#45;humap</title>
<path fill="none" stroke="black" d="M843.77,-220.65C869.97,-203.74 906.38,-181.24 939.87,-164 951.03,-158.25 963.69,-152.68 974.75,-148.1"/>
<text text-anchor="middle" x="906.49" y="-194.29" font-family="Times,serif" font-size="14.00">80</text>
</g>
<!-- chembl.target
689 -->
<g id="node53" class="node">
<title>chembl.target
689</title>
<ellipse fill="none" stroke="black" cx="1004.22" cy="-472" rx="64.35" ry="28.99"/>
<text text-anchor="middle" x="1004.22" y="-475.2" font-family="Times,serif" font-size="14.00">chembl.target</text>
<text text-anchor="middle" x="1004.22" y="-458.7" font-family="Times,serif" font-size="14.00">689</text>
</g>
<!-- complexportal
5,031&#45;&#45;chembl.target
689 -->
<g id="edge57" class="edge">
<title>complexportal
5,031&#45;&#45;chembl.target
689</title>
<path fill="none" stroke="black" d="M821.4,-273.65C836.72,-303.15 862.72,-349.79 891.12,-386 909.89,-409.92 915.83,-415.38 939.87,-434 946.87,-439.42 954.69,-444.68 962.39,-449.47"/>
<text text-anchor="middle" x="906.49" y="-422.33" font-family="Times,serif" font-size="14.00">203</text>
</g>
<!-- pr -->
<g id="node43" class="node">
<title>pr</title>
<ellipse fill="none" stroke="black" cx="599.01" cy="-537" rx="27" ry="18"/>
<text text-anchor="middle" x="599.01" y="-531.95" font-family="Times,serif" font-size="14.00">pr</text>
</g>
<!-- pr&#45;&#45;complexportal
5,031 -->
<g id="edge46" class="edge">
<title>pr&#45;&#45;complexportal
5,031</title>
<path fill="none" stroke="black" d="M625.19,-531.92C640.14,-527.92 658.77,-521.11 672.37,-510 749.1,-447.36 785.5,-329.08 798.83,-274.26"/>
<text text-anchor="middle" x="705.75" y="-491.46" font-family="Times,serif" font-size="14.00">26</text>
</g>
<!-- uniprot.chain -->
<g id="node44" class="node">
<title>uniprot.chain</title>
<ellipse fill="none" stroke="black" cx="806.12" cy="-537" rx="60.05" ry="18"/>
<text text-anchor="middle" x="806.12" y="-531.95" font-family="Times,serif" font-size="14.00">uniprot.chain</text>
</g>
<!-- pr&#45;&#45;uniprot.chain -->
<g id="edge45" class="edge">
<title>pr&#45;&#45;uniprot.chain</title>
<path fill="none" stroke="black" stroke-width="1.01" d="M626.41,-537C656.38,-537 706.23,-537 745.68,-537"/>
<text text-anchor="middle" x="705.75" y="-540.2" font-family="Times,serif" font-size="14.00">80</text>
</g>
<!-- ncbiprotein -->
<g id="node45" class="node">
<title>ncbiprotein</title>
<ellipse fill="none" stroke="black" cx="1004.22" cy="-537" rx="52.89" ry="18"/>
<text text-anchor="middle" x="1004.22" y="-531.95" font-family="Times,serif" font-size="14.00">ncbiprotein</text>
</g>
<!-- uniprot.chain&#45;&#45;ncbiprotein -->
<g id="edge47" class="edge">
<title>uniprot.chain&#45;&#45;ncbiprotein</title>
<path fill="none" stroke="black" d="M866.49,-537C893.43,-537 925.01,-537 951.03,-537"/>
<text text-anchor="middle" x="906.49" y="-540.2" font-family="Times,serif" font-size="14.00">26</text>
</g>
<!-- intact -->
<g id="node46" class="node">
<title>intact</title>
<ellipse fill="none" stroke="black" cx="599.01" cy="-245" rx="31.39" ry="18"/>
<text text-anchor="middle" x="599.01" y="-239.95" font-family="Times,serif" font-size="14.00">intact</text>
</g>
<!-- intact&#45;&#45;complexportal
5,031 -->
<g id="edge50" class="edge">
<title>intact&#45;&#45;complexportal
5,031</title>
<path fill="none" stroke="black" d="M630.72,-245C659.22,-245 702.59,-245 738.95,-245"/>
<text text-anchor="middle" x="705.75" y="-248.2" font-family="Times,serif" font-size="14.00">3,325</text>
</g>
</g>
</svg>
