<?xml version="1.0" encoding="UTF-8" standalone="no"?>
<!DOCTYPE svg PUBLIC "-//W3C//DTD SVG 1.1//EN"
 "http://www.w3.org/Graphics/SVG/1.1/DTD/svg11.dtd">
<!-- Generated by graphviz version 12.2.1 (20241206.2353)
 -->
<!-- Pages: 1 -->
<svg width="1077pt" height="1342pt"
 viewBox="0.00 0.00 1076.56 1341.99" xmlns="http://www.w3.org/2000/svg" xmlns:xlink="http://www.w3.org/1999/xlink">
<g id="graph0" class="graph" transform="scale(1 1) rotate(0) translate(4 1337.99)">
<polygon fill="white" stroke="none" points="-4,4 -4,-1337.99 1072.56,-1337.99 1072.56,4 -4,4"/>
<!-- mesh -->
<g id="node1" class="node">
<title>mesh</title>
<ellipse fill="none" stroke="black" cx="40.6" cy="-752.99" rx="30.88" ry="18"/>
<text text-anchor="middle" x="40.6" y="-747.94" font-family="Times,serif" font-size="14.00">mesh</text>
</g>
<!-- chebi -->
<g id="node2" class="node">
<title>chebi</title>
<ellipse fill="none" stroke="black" cx="219.58" cy="-859.99" rx="30.88" ry="18"/>
<text text-anchor="middle" x="219.58" y="-854.94" font-family="Times,serif" font-size="14.00">chebi</text>
</g>
<!-- mesh&#45;&#45;chebi -->
<g id="edge1" class="edge">
<title>mesh&#45;&#45;chebi</title>
<path fill="none" stroke="black" stroke-width="2.58" d="M52.13,-770.15C62.39,-785.51 79.3,-807.61 99.21,-820.99 126.89,-839.6 164.12,-849.9 189.6,-855.17"/>
<text text-anchor="middle" x="117.96" y="-842.8" font-family="Times,serif" font-size="14.00">25,640</text>
</g>
<!-- efo -->
<g id="node3" class="node">
<title>efo</title>
<ellipse fill="none" stroke="black" cx="219.58" cy="-752.99" rx="27" ry="18"/>
<text text-anchor="middle" x="219.58" y="-747.94" font-family="Times,serif" font-size="14.00">efo</text>
</g>
<!-- mesh&#45;&#45;efo -->
<g id="edge2" class="edge">
<title>mesh&#45;&#45;efo</title>
<path fill="none" stroke="black" stroke-width="1.04" d="M71.63,-752.99C105.45,-752.99 159.91,-752.99 192.18,-752.99"/>
<text text-anchor="middle" x="117.96" y="-756.19" font-family="Times,serif" font-size="14.00">729</text>
</g>
<!-- doid -->
<g id="node4" class="node">
<title>doid</title>
<ellipse fill="none" stroke="black" cx="405.06" cy="-797.99" rx="27.3" ry="18"/>
<text text-anchor="middle" x="405.06" y="-792.94" font-family="Times,serif" font-size="14.00">doid</text>
</g>
<!-- mesh&#45;&#45;doid -->
<g id="edge3" class="edge">
<title>mesh&#45;&#45;doid</title>
<path fill="none" stroke="black" stroke-width="1.12" d="M66.16,-763.43C76.23,-767.32 88.11,-771.41 99.21,-773.99 200.04,-797.46 324.14,-799.1 377.55,-798.55"/>
<text text-anchor="middle" x="219.58" y="-799.88" font-family="Times,serif" font-size="14.00">1,939</text>
</g>
<!-- hgnc -->
<g id="node5" class="node">
<title>hgnc</title>
<ellipse fill="none" stroke="black" cx="219.58" cy="-698.99" rx="28.83" ry="18"/>
<text text-anchor="middle" x="219.58" y="-693.94" font-family="Times,serif" font-size="14.00">hgnc</text>
</g>
<!-- mesh&#45;&#45;hgnc -->
<g id="edge4" class="edge">
<title>mesh&#45;&#45;hgnc</title>
<path fill="none" stroke="black" stroke-width="1.17" d="M67.28,-743.43C77.21,-739.85 88.69,-735.84 99.21,-732.49 131,-722.38 168.06,-712.24 192.35,-705.8"/>
<text text-anchor="middle" x="117.96" y="-735.69" font-family="Times,serif" font-size="14.00">2,693</text>
</g>
<!-- hp -->
<g id="node6" class="node">
<title>hp</title>
<ellipse fill="none" stroke="black" cx="219.58" cy="-644.99" rx="27" ry="18"/>
<text text-anchor="middle" x="219.58" y="-639.94" font-family="Times,serif" font-size="14.00">hp</text>
</g>
<!-- mesh&#45;&#45;hp -->
<g id="edge5" class="edge">
<title>mesh&#45;&#45;hp</title>
<path fill="none" stroke="black" stroke-width="1.04" d="M56.88,-737.47C68.02,-726.63 83.8,-712.24 99.21,-701.49 122.12,-685.51 129.48,-684 154.71,-671.99 168.19,-665.58 183.6,-659.04 195.9,-654.01"/>
<text text-anchor="middle" x="117.96" y="-704.69" font-family="Times,serif" font-size="14.00">593</text>
</g>
<!-- go
2,059 -->
<g id="node7" class="node">
<title>go
2,059</title>
<ellipse fill="none" stroke="black" cx="219.58" cy="-398.99" rx="33.06" ry="28.99"/>
<text text-anchor="middle" x="219.58" y="-402.19" font-family="Times,serif" font-size="14.00">go</text>
<text text-anchor="middle" x="219.58" y="-385.69" font-family="Times,serif" font-size="14.00">2,059</text>
</g>
<!-- mesh&#45;&#45;go
2,059 -->
<g id="edge6" class="edge">
<title>mesh&#45;&#45;go
2,059</title>
<path fill="none" stroke="black" d="M43.43,-734.73C49.24,-679.4 68.77,-514.73 99.21,-471.49 121.05,-440.46 160.8,-420.28 188.4,-409.27"/>
<text text-anchor="middle" x="117.96" y="-474.69" font-family="Times,serif" font-size="14.00">44</text>
</g>
<!-- fplx
782 -->
<g id="node8" class="node">
<title>fplx
782</title>
<ellipse fill="none" stroke="black" cx="405.06" cy="-398.99" rx="27" ry="28.99"/>
<text text-anchor="middle" x="405.06" y="-402.19" font-family="Times,serif" font-size="14.00">fplx</text>
<text text-anchor="middle" x="405.06" y="-385.69" font-family="Times,serif" font-size="14.00">782</text>
</g>
<!-- mesh&#45;&#45;fplx
782 -->
<g id="edge7" class="edge">
<title>mesh&#45;&#45;fplx
782</title>
<path fill="none" stroke="black" d="M42.65,-734.66C45.64,-696.3 57,-606.15 99.21,-545.99 134.22,-496.09 312.76,-430.51 379.15,-407.45"/>
<text text-anchor="middle" x="219.58" y="-505.81" font-family="Times,serif" font-size="14.00">450</text>
</g>
<!-- cl -->
<g id="node9" class="node">
<title>cl</title>
<ellipse fill="none" stroke="black" cx="219.58" cy="-1147.99" rx="27" ry="18"/>
<text text-anchor="middle" x="219.58" y="-1142.94" font-family="Times,serif" font-size="14.00">cl</text>
</g>
<!-- mesh&#45;&#45;cl -->
<g id="edge8" class="edge">
<title>mesh&#45;&#45;cl</title>
<path fill="none" stroke="black" d="M40.84,-771.4C39.62,-821.43 41.82,-962.61 99.21,-1058.99 110.2,-1077.45 121.05,-1074.78 136.71,-1089.49 145.3,-1097.57 145.59,-1101.51 154.71,-1108.99 167.97,-1119.87 184.54,-1129.89 197.48,-1137.06"/>
<text text-anchor="middle" x="117.96" y="-1092.69" font-family="Times,serif" font-size="14.00">81</text>
</g>
<!-- vo -->
<g id="node10" class="node">
<title>vo</title>
<ellipse fill="none" stroke="black" cx="219.58" cy="-549.99" rx="27" ry="18"/>
<text text-anchor="middle" x="219.58" y="-544.94" font-family="Times,serif" font-size="14.00">vo</text>
</g>
<!-- mesh&#45;&#45;vo -->
<g id="edge9" class="edge">
<title>mesh&#45;&#45;vo</title>
<path fill="none" stroke="black" stroke-width="1.01" d="M41.4,-734.7C42.04,-697.2 49.24,-611.52 99.21,-568.49 124.95,-546.32 165.92,-544.8 192.53,-546.67"/>
<text text-anchor="middle" x="117.96" y="-571.69" font-family="Times,serif" font-size="14.00">165</text>
</g>
<!-- kegg.pathway
6 -->
<g id="node11" class="node">
<title>kegg.pathway
6</title>
<ellipse fill="none" stroke="black" cx="219.58" cy="-148.99" rx="64.88" ry="28.99"/>
<text text-anchor="middle" x="219.58" y="-152.19" font-family="Times,serif" font-size="14.00">kegg.pathway</text>
<text text-anchor="middle" x="219.58" y="-135.69" font-family="Times,serif" font-size="14.00">6</text>
</g>
<!-- mesh&#45;&#45;kegg.pathway
6 -->
<g id="edge10" class="edge">
<title>mesh&#45;&#45;kegg.pathway
6</title>
<path fill="none" stroke="black" d="M44.15,-734.61C52.68,-673.61 80.78,-478.29 99.21,-417.49 126.8,-326.44 177.54,-225.55 203.07,-177.48"/>
<text text-anchor="middle" x="117.96" y="-420.69" font-family="Times,serif" font-size="14.00">25</text>
</g>
<!-- maxo -->
<g id="node12" class="node">
<title>maxo</title>
<ellipse fill="none" stroke="black" cx="219.58" cy="-1021.99" rx="31.9" ry="18"/>
<text text-anchor="middle" x="219.58" y="-1016.94" font-family="Times,serif" font-size="14.00">maxo</text>
</g>
<!-- mesh&#45;&#45;maxo -->
<g id="edge11" class="edge">
<title>mesh&#45;&#45;maxo</title>
<path fill="none" stroke="black" stroke-width="1.01" d="M42.74,-771.28C45.9,-809.1 57.53,-897.29 99.21,-955.99 121.21,-986.98 162.55,-1005.06 190.33,-1014.23"/>
<text text-anchor="middle" x="117.96" y="-991.37" font-family="Times,serif" font-size="14.00">127</text>
</g>
<!-- ncit -->
<g id="node13" class="node">
<title>ncit</title>
<ellipse fill="none" stroke="black" cx="599.01" cy="-674.99" rx="27" ry="18"/>
<text text-anchor="middle" x="599.01" y="-669.94" font-family="Times,serif" font-size="14.00">ncit</text>
</g>
<!-- mesh&#45;&#45;ncit -->
<g id="edge12" class="edge">
<title>mesh&#45;&#45;ncit</title>
<path fill="none" stroke="black" stroke-width="1.06" d="M49.65,-735.29C64.91,-704.24 101.38,-641.04 154.71,-617.99 231.28,-584.9 491.91,-647.59 573.44,-668.53"/>
<text text-anchor="middle" x="312.59" y="-620.09" font-family="Times,serif" font-size="14.00">905</text>
</g>
<!-- uniprot -->
<g id="node14" class="node">
<title>uniprot</title>
<ellipse fill="none" stroke="black" cx="219.58" cy="-967.99" rx="37.53" ry="18"/>
<text text-anchor="middle" x="219.58" y="-962.94" font-family="Times,serif" font-size="14.00">uniprot</text>
</g>
<!-- mesh&#45;&#45;uniprot -->
<g id="edge13" class="edge">
<title>mesh&#45;&#45;uniprot</title>
<path fill="none" stroke="black" stroke-width="1.02" d="M44.68,-771.21C50.61,-801.75 66.07,-863.92 99.21,-904.99 121.57,-932.72 159.46,-949.73 186.56,-958.97"/>
<text text-anchor="middle" x="117.96" y="-938.7" font-family="Times,serif" font-size="14.00">387</text>
</g>
<!-- mondo -->
<g id="node15" class="node">
<title>mondo</title>
<ellipse fill="none" stroke="black" cx="219.58" cy="-913.99" rx="37.02" ry="18"/>
<text text-anchor="middle" x="219.58" y="-908.94" font-family="Times,serif" font-size="14.00">mondo</text>
</g>
<!-- mesh&#45;&#45;mondo -->
<g id="edge14" class="edge">
<title>mesh&#45;&#45;mondo</title>
<path fill="none" stroke="black" stroke-width="1.01" d="M47.25,-770.67C55.43,-793.81 72.57,-834.43 99.21,-859.99 123.58,-883.38 159.84,-897.81 186,-905.8"/>
<text text-anchor="middle" x="117.96" y="-887.8" font-family="Times,serif" font-size="14.00">222</text>
</g>
<!-- uberon -->
<g id="node16" class="node">
<title>uberon</title>
<ellipse fill="none" stroke="black" cx="219.58" cy="-1081.99" rx="36.51" ry="18"/>
<text text-anchor="middle" x="219.58" y="-1076.94" font-family="Times,serif" font-size="14.00">uberon</text>
</g>
<!-- mesh&#45;&#45;uberon -->
<g id="edge15" class="edge">
<title>mesh&#45;&#45;uberon</title>
<path fill="none" stroke="black" stroke-width="1.01" d="M41.43,-771.44C41.88,-816.07 48.23,-931.83 99.21,-1008.99 110.79,-1026.52 161.23,-1053.7 192.73,-1069.48"/>
<text text-anchor="middle" x="117.96" y="-1041.35" font-family="Times,serif" font-size="14.00">131</text>
</g>
<!-- efo&#45;&#45;doid -->
<g id="edge16" class="edge">
<title>efo&#45;&#45;doid</title>
<path fill="none" stroke="black" stroke-width="1.01" d="M245.4,-758.47C266.12,-763.09 296.39,-769.99 322.71,-776.49 341.86,-781.22 363.43,-786.94 379.55,-791.29"/>
<text text-anchor="middle" x="312.59" y="-779.69" font-family="Times,serif" font-size="14.00">96</text>
</g>
<!-- ccle -->
<g id="node17" class="node">
<title>ccle</title>
<ellipse fill="none" stroke="black" cx="405.06" cy="-734.99" rx="27" ry="18"/>
<text text-anchor="middle" x="405.06" y="-729.94" font-family="Times,serif" font-size="14.00">ccle</text>
</g>
<!-- efo&#45;&#45;ccle -->
<g id="edge17" class="edge">
<title>efo&#45;&#45;ccle</title>
<path fill="none" stroke="black" stroke-width="1.04" d="M245.12,-746.82C261.29,-743.05 283,-738.58 302.46,-736.49 327.89,-733.76 357.11,-733.65 377.66,-734.05"/>
<text text-anchor="middle" x="312.59" y="-739.69" font-family="Times,serif" font-size="14.00">570</text>
</g>
<!-- umls -->
<g id="node18" class="node">
<title>umls</title>
<ellipse fill="none" stroke="black" cx="599.01" cy="-797.99" rx="29.34" ry="18"/>
<text text-anchor="middle" x="599.01" y="-792.94" font-family="Times,serif" font-size="14.00">umls</text>
</g>
<!-- doid&#45;&#45;umls -->
<g id="edge18" class="edge">
<title>doid&#45;&#45;umls</title>
<path fill="none" stroke="black" stroke-width="1.01" d="M432.75,-797.99C468.7,-797.99 532.43,-797.99 569.36,-797.99"/>
<text text-anchor="middle" x="497.53" y="-801.19" font-family="Times,serif" font-size="14.00">190</text>
</g>
<!-- go
2,059&#45;&#45;fplx
782 -->
<g id="edge19" class="edge">
<title>go
2,059&#45;&#45;fplx
782</title>
<path fill="none" stroke="black" d="M252.96,-398.99C288.45,-398.99 344.72,-398.99 377.65,-398.99"/>
<text text-anchor="middle" x="312.59" y="-402.19" font-family="Times,serif" font-size="14.00">46</text>
</g>
<!-- wikipedia.en -->
<g id="node19" class="node">
<title>wikipedia.en</title>
<ellipse fill="none" stroke="black" cx="405.06" cy="-333.99" rx="58.52" ry="18"/>
<text text-anchor="middle" x="405.06" y="-328.94" font-family="Times,serif" font-size="14.00">wikipedia.en</text>
</g>
<!-- go
2,059&#45;&#45;wikipedia.en -->
<g id="edge20" class="edge">
<title>go
2,059&#45;&#45;wikipedia.en</title>
<path fill="none" stroke="black" d="M250.47,-388.4C281.85,-377.29 331.29,-359.77 365.57,-347.63"/>
<text text-anchor="middle" x="312.59" y="-371.64" font-family="Times,serif" font-size="14.00">55</text>
</g>
<!-- fplx
782&#45;&#45;ncit -->
<g id="edge22" class="edge">
<title>fplx
782&#45;&#45;ncit</title>
<path fill="none" stroke="black" d="M424.42,-419.6C438.63,-436.58 457.8,-461.87 469.4,-486.99 483.42,-517.33 472.08,-530.3 487.4,-559.99 493.73,-572.24 501.15,-571.34 507.65,-583.49 521.71,-609.73 505.52,-626.07 525.65,-647.99 537.72,-661.13 556.78,-667.9 572.31,-671.38"/>
<text text-anchor="middle" x="497.53" y="-586.69" font-family="Times,serif" font-size="14.00">120</text>
</g>
<!-- reactome -->
<g id="node20" class="node">
<title>reactome</title>
<ellipse fill="none" stroke="black" cx="599.01" cy="-89.99" rx="45.21" ry="18"/>
<text text-anchor="middle" x="599.01" y="-84.94" font-family="Times,serif" font-size="14.00">reactome</text>
</g>
<!-- fplx
782&#45;&#45;reactome -->
<g id="edge21" class="edge">
<title>fplx
782&#45;&#45;reactome</title>
<path fill="none" stroke="black" d="M431.11,-390.37C444.74,-384.33 460.58,-374.83 469.4,-360.99 510.38,-296.75 465.23,-263.39 487.4,-190.49 498.01,-155.64 498.44,-142.21 525.65,-117.99 535.21,-109.48 547.64,-103.43 559.5,-99.19"/>
<text text-anchor="middle" x="497.53" y="-193.69" font-family="Times,serif" font-size="14.00">433</text>
</g>
<!-- hgnc.genefamily -->
<g id="node21" class="node">
<title>hgnc.genefamily</title>
<ellipse fill="none" stroke="black" cx="599.01" cy="-458.99" rx="73.36" ry="18"/>
<text text-anchor="middle" x="599.01" y="-453.94" font-family="Times,serif" font-size="14.00">hgnc.genefamily</text>
</g>
<!-- fplx
782&#45;&#45;hgnc.genefamily -->
<g id="edge23" class="edge">
<title>fplx
782&#45;&#45;hgnc.genefamily</title>
<path fill="none" stroke="black" d="M431.15,-406.84C461.84,-416.43 514.38,-432.85 552.32,-444.71"/>
<text text-anchor="middle" x="497.53" y="-432.19" font-family="Times,serif" font-size="14.00">161</text>
</g>
<!-- scomp
135 -->
<g id="node22" class="node">
<title>scomp
135</title>
<ellipse fill="none" stroke="black" cx="599.01" cy="-393.99" rx="36.77" ry="28.99"/>
<text text-anchor="middle" x="599.01" y="-397.19" font-family="Times,serif" font-size="14.00">scomp</text>
<text text-anchor="middle" x="599.01" y="-380.69" font-family="Times,serif" font-size="14.00">135</text>
</g>
<!-- fplx
782&#45;&#45;scomp
135 -->
<g id="edge24" class="edge">
<title>fplx
782&#45;&#45;scomp
135</title>
<path fill="none" stroke="black" d="M432.35,-398.31C465.92,-397.43 524.19,-395.91 561.91,-394.93"/>
<text text-anchor="middle" x="497.53" y="-399.99" font-family="Times,serif" font-size="14.00">66</text>
</g>
<!-- interpro -->
<g id="node23" class="node">
<title>interpro</title>
<ellipse fill="none" stroke="black" cx="599.01" cy="-328.99" rx="40.09" ry="18"/>
<text text-anchor="middle" x="599.01" y="-323.94" font-family="Times,serif" font-size="14.00">interpro</text>
</g>
<!-- fplx
782&#45;&#45;interpro -->
<g id="edge25" class="edge">
<title>fplx
782&#45;&#45;interpro</title>
<path fill="none" stroke="black" d="M431.15,-389.84C466.11,-377.09 529.42,-354.01 567.2,-340.23"/>
<text text-anchor="middle" x="497.53" y="-371.38" font-family="Times,serif" font-size="14.00">217</text>
</g>
<!-- ec -->
<g id="node24" class="node">
<title>ec</title>
<ellipse fill="none" stroke="black" cx="599.01" cy="-274.99" rx="27" ry="18"/>
<text text-anchor="middle" x="599.01" y="-269.94" font-family="Times,serif" font-size="14.00">ec</text>
</g>
<!-- fplx
782&#45;&#45;ec -->
<g id="edge26" class="edge">
<title>fplx
782&#45;&#45;ec</title>
<path fill="none" stroke="black" d="M429.91,-386.69C442.23,-379.85 457.19,-370.77 469.4,-360.99 497.69,-338.36 495.41,-321.94 525.65,-301.99 540.2,-292.39 558.64,-285.58 573.26,-281.2"/>
<text text-anchor="middle" x="497.53" y="-345.24" font-family="Times,serif" font-size="14.00">42</text>
</g>
<!-- nextprot.family -->
<g id="node25" class="node">
<title>nextprot.family</title>
<ellipse fill="none" stroke="black" cx="599.01" cy="-220.99" rx="68.75" ry="18"/>
<text text-anchor="middle" x="599.01" y="-215.94" font-family="Times,serif" font-size="14.00">nextprot.family</text>
</g>
<!-- fplx
782&#45;&#45;nextprot.family -->
<g id="edge27" class="edge">
<title>fplx
782&#45;&#45;nextprot.family</title>
<path fill="none" stroke="black" d="M430.89,-389.49C444.11,-383.25 459.61,-373.84 469.4,-360.99 487.45,-337.32 473.93,-323.03 487.4,-296.49 499.84,-272.02 503.47,-264.17 525.65,-247.99 533.24,-242.46 542.08,-237.94 550.94,-234.28"/>
<text text-anchor="middle" x="497.53" y="-299.69" font-family="Times,serif" font-size="14.00">77</text>
</g>
<!-- sfam -->
<g id="node26" class="node">
<title>sfam</title>
<ellipse fill="none" stroke="black" cx="599.01" cy="-620.99" rx="29.34" ry="18"/>
<text text-anchor="middle" x="599.01" y="-615.94" font-family="Times,serif" font-size="14.00">sfam</text>
</g>
<!-- fplx
782&#45;&#45;sfam -->
<g id="edge28" class="edge">
<title>fplx
782&#45;&#45;sfam</title>
<path fill="none" stroke="black" d="M424,-420.26C446.15,-447.38 483.82,-496.43 507.65,-543.49 518.42,-564.75 508.93,-577.02 525.65,-593.99 537.51,-606.03 555.23,-612.75 570.16,-616.48"/>
<text text-anchor="middle" x="497.53" y="-546.69" font-family="Times,serif" font-size="14.00">242</text>
</g>
<!-- pfam -->
<g id="node27" class="node">
<title>pfam</title>
<ellipse fill="none" stroke="black" cx="599.01" cy="-512.99" rx="30.37" ry="18"/>
<text text-anchor="middle" x="599.01" y="-507.94" font-family="Times,serif" font-size="14.00">pfam</text>
</g>
<!-- fplx
782&#45;&#45;pfam -->
<g id="edge29" class="edge">
<title>fplx
782&#45;&#45;pfam</title>
<path fill="none" stroke="black" d="M426.5,-416.55C449.44,-435.59 488.33,-465.94 525.65,-485.99 540.18,-493.8 557.45,-500.33 571.48,-505.02"/>
<text text-anchor="middle" x="497.53" y="-477.06" font-family="Times,serif" font-size="14.00">59</text>
</g>
<!-- signor
856 -->
<g id="node28" class="node">
<title>signor
856</title>
<ellipse fill="none" stroke="black" cx="599.01" cy="-155.99" rx="35.18" ry="28.99"/>
<text text-anchor="middle" x="599.01" y="-159.19" font-family="Times,serif" font-size="14.00">signor</text>
<text text-anchor="middle" x="599.01" y="-142.69" font-family="Times,serif" font-size="14.00">856</text>
</g>
<!-- fplx
782&#45;&#45;signor
856 -->
<g id="edge30" class="edge">
<title>fplx
782&#45;&#45;signor
856</title>
<path fill="none" stroke="black" d="M431.19,-390.07C444.67,-383.98 460.33,-374.52 469.4,-360.99 499.07,-316.74 466.21,-291.36 487.4,-242.49 498.33,-217.31 504.54,-211.54 525.65,-193.99 537.99,-183.74 553.53,-175.14 567.05,-168.72"/>
<text text-anchor="middle" x="497.53" y="-245.69" font-family="Times,serif" font-size="14.00">118</text>
</g>
<!-- dron -->
<g id="node34" class="node">
<title>dron</title>
<ellipse fill="none" stroke="black" cx="405.06" cy="-567.99" rx="27.81" ry="18"/>
<text text-anchor="middle" x="405.06" y="-562.94" font-family="Times,serif" font-size="14.00">dron</text>
</g>
<!-- vo&#45;&#45;dron -->
<g id="edge36" class="edge">
<title>vo&#45;&#45;dron</title>
<path fill="none" stroke="black" stroke-width="1.01" d="M246.48,-552.53C281.05,-555.92 342,-561.9 377.1,-565.35"/>
<text text-anchor="middle" x="312.59" y="-562.73" font-family="Times,serif" font-size="14.00">145</text>
</g>
<!-- drugbank -->
<g id="node35" class="node">
<title>drugbank</title>
<ellipse fill="none" stroke="black" cx="405.06" cy="-513.99" rx="45.72" ry="18"/>
<text text-anchor="middle" x="405.06" y="-508.94" font-family="Times,serif" font-size="14.00">drugbank</text>
</g>
<!-- vo&#45;&#45;drugbank -->
<g id="edge37" class="edge">
<title>vo&#45;&#45;drugbank</title>
<path fill="none" stroke="black" d="M245.71,-545.06C276.04,-539.11 327.43,-529.03 363.42,-521.96"/>
<text text-anchor="middle" x="312.59" y="-536.27" font-family="Times,serif" font-size="14.00">40</text>
</g>
<!-- kegg.pathway
6&#45;&#45;reactome -->
<g id="edge41" class="edge">
<title>kegg.pathway
6&#45;&#45;reactome</title>
<path fill="none" stroke="black" d="M260.28,-126.01C283.02,-114.14 312.56,-100.84 340.71,-94.49 414.59,-77.84 503.43,-81.27 555.04,-85.48"/>
<text text-anchor="middle" x="405.06" y="-97.69" font-family="Times,serif" font-size="14.00">60</text>
</g>
<!-- wikipathways
15 -->
<g id="node40" class="node">
<title>wikipathways
15</title>
<ellipse fill="none" stroke="black" cx="405.06" cy="-148.99" rx="64.35" ry="28.99"/>
<text text-anchor="middle" x="405.06" y="-152.19" font-family="Times,serif" font-size="14.00">wikipathways</text>
<text text-anchor="middle" x="405.06" y="-135.69" font-family="Times,serif" font-size="14.00">15</text>
</g>
<!-- kegg.pathway
6&#45;&#45;wikipathways
15 -->
<g id="edge40" class="edge">
<title>kegg.pathway
6&#45;&#45;wikipathways
15</title>
<path fill="none" stroke="black" d="M284.75,-148.99C302.73,-148.99 322.27,-148.99 340.23,-148.99"/>
<text text-anchor="middle" x="312.59" y="-152.19" font-family="Times,serif" font-size="14.00">68</text>
</g>
<!-- cellosaurus -->
<g id="node32" class="node">
<title>cellosaurus</title>
<ellipse fill="none" stroke="black" cx="599.01" cy="-734.99" rx="52.38" ry="18"/>
<text text-anchor="middle" x="599.01" y="-729.94" font-family="Times,serif" font-size="14.00">cellosaurus</text>
</g>
<!-- ccle&#45;&#45;cellosaurus -->
<g id="edge34" class="edge">
<title>ccle&#45;&#45;cellosaurus</title>
<path fill="none" stroke="black" stroke-width="1.01" d="M432.35,-734.99C461.61,-734.99 509.63,-734.99 546.45,-734.99"/>
<text text-anchor="middle" x="497.53" y="-738.19" font-family="Times,serif" font-size="14.00">114</text>
</g>
<!-- complexportal
5,031 -->
<g id="node41" class="node">
<title>complexportal
5,031</title>
<ellipse fill="none" stroke="black" cx="806.12" cy="-274.99" rx="67" ry="28.99"/>
<text text-anchor="middle" x="806.12" y="-278.19" font-family="Times,serif" font-size="14.00">complexportal</text>
<text text-anchor="middle" x="806.12" y="-261.69" font-family="Times,serif" font-size="14.00">5,031</text>
</g>
<!-- reactome&#45;&#45;complexportal
5,031 -->
<g id="edge43" class="edge">
<title>reactome&#45;&#45;complexportal
5,031</title>
<path fill="none" stroke="black" d="M636.76,-100.2C648.77,-104.55 661.73,-110.41 672.37,-117.99 722.37,-153.62 765.11,-212.24 787.77,-246.88"/>
<text text-anchor="middle" x="705.75" y="-161.94" font-family="Times,serif" font-size="14.00">727</text>
</g>
<!-- intact
3,766 -->
<g id="node42" class="node">
<title>intact
3,766</title>
<ellipse fill="none" stroke="black" cx="1004.22" cy="-104.99" rx="33.06" ry="28.99"/>
<text text-anchor="middle" x="1004.22" y="-108.19" font-family="Times,serif" font-size="14.00">intact</text>
<text text-anchor="middle" x="1004.22" y="-91.69" font-family="Times,serif" font-size="14.00">3,766</text>
</g>
<!-- reactome&#45;&#45;intact
3,766 -->
<g id="edge44" class="edge">
<title>reactome&#45;&#45;intact
3,766</title>
<path fill="none" stroke="black" d="M644.56,-90.24C706.71,-90.78 822.95,-92.51 921.87,-97.99 938.15,-98.89 956.21,-100.4 971.18,-101.78"/>
<text text-anchor="middle" x="806.12" y="-98.63" font-family="Times,serif" font-size="14.00">871</text>
</g>
<!-- wikidata
48,581 -->
<g id="node43" class="node">
<title>wikidata
48,581</title>
<ellipse fill="none" stroke="black" cx="1004.22" cy="-28.99" rx="44.19" ry="28.99"/>
<text text-anchor="middle" x="1004.22" y="-32.19" font-family="Times,serif" font-size="14.00">wikidata</text>
<text text-anchor="middle" x="1004.22" y="-15.69" font-family="Times,serif" font-size="14.00">48,581</text>
</g>
<!-- reactome&#45;&#45;wikidata
48,581 -->
<g id="edge45" class="edge">
<title>reactome&#45;&#45;wikidata
48,581</title>
<path fill="none" stroke="black" d="M641.64,-83.69C718.81,-72.02 883.23,-47.14 960.9,-35.39"/>
<text text-anchor="middle" x="806.12" y="-71.72" font-family="Times,serif" font-size="14.00">43,845</text>
</g>
<!-- ec&#45;&#45;complexportal
5,031 -->
<g id="edge49" class="edge">
<title>ec&#45;&#45;complexportal
5,031</title>
<path fill="none" stroke="black" d="M626.41,-274.99C654.65,-274.99 700.54,-274.99 738.74,-274.99"/>
<text text-anchor="middle" x="705.75" y="-278.19" font-family="Times,serif" font-size="14.00">2,248</text>
</g>
<!-- signor
856&#45;&#45;complexportal
5,031 -->
<g id="edge50" class="edge">
<title>signor
856&#45;&#45;complexportal
5,031</title>
<path fill="none" stroke="black" d="M629.47,-170.91C642.69,-177.75 658.42,-186.08 672.37,-193.99 704.78,-212.37 740.83,-234.47 767.17,-250.94"/>
<text text-anchor="middle" x="705.75" y="-225.33" font-family="Times,serif" font-size="14.00">267</text>
</g>
<!-- agrovoc -->
<g id="node29" class="node">
<title>agrovoc</title>
<ellipse fill="none" stroke="black" cx="40.6" cy="-1207.99" rx="40.6" ry="18"/>
<text text-anchor="middle" x="40.6" y="-1202.94" font-family="Times,serif" font-size="14.00">agrovoc</text>
</g>
<!-- agro -->
<g id="node30" class="node">
<title>agro</title>
<ellipse fill="none" stroke="black" cx="219.58" cy="-1207.99" rx="27.3" ry="18"/>
<text text-anchor="middle" x="219.58" y="-1202.94" font-family="Times,serif" font-size="14.00">agro</text>
</g>
<!-- agrovoc&#45;&#45;agro -->
<g id="edge31" class="edge">
<title>agrovoc&#45;&#45;agro</title>
<path fill="none" stroke="black" stroke-width="1.01" d="M81.32,-1207.99C115.05,-1207.99 162.54,-1207.99 191.9,-1207.99"/>
<text text-anchor="middle" x="117.96" y="-1211.19" font-family="Times,serif" font-size="14.00">142</text>
</g>
<!-- bto -->
<g id="node31" class="node">
<title>bto</title>
<ellipse fill="none" stroke="black" cx="40.6" cy="-1140.99" rx="27" ry="18"/>
<text text-anchor="middle" x="40.6" y="-1135.94" font-family="Times,serif" font-size="14.00">bto</text>
</g>
<!-- bto&#45;&#45;cl -->
<g id="edge32" class="edge">
<title>bto&#45;&#45;cl</title>
<path fill="none" stroke="black" d="M67.72,-1142.02C101.18,-1143.35 158.85,-1145.63 192.36,-1146.95"/>
<text text-anchor="middle" x="117.96" y="-1147.9" font-family="Times,serif" font-size="14.00">74</text>
</g>
<!-- bto&#45;&#45;uberon -->
<g id="edge33" class="edge">
<title>bto&#45;&#45;uberon</title>
<path fill="none" stroke="black" d="M65.11,-1133.16C96.98,-1122.53 153.93,-1103.55 188.78,-1091.93"/>
<text text-anchor="middle" x="117.96" y="-1123.42" font-family="Times,serif" font-size="14.00">54</text>
</g>
<!-- cvx -->
<g id="node33" class="node">
<title>cvx</title>
<ellipse fill="none" stroke="black" cx="40.6" cy="-459.99" rx="27" ry="18"/>
<text text-anchor="middle" x="40.6" y="-454.94" font-family="Times,serif" font-size="14.00">cvx</text>
</g>
<!-- cvx&#45;&#45;vo -->
<g id="edge35" class="edge">
<title>cvx&#45;&#45;vo</title>
<path fill="none" stroke="black" d="M62.6,-470.67C96.57,-487.94 163.21,-521.83 197.34,-539.19"/>
<text text-anchor="middle" x="117.96" y="-510.89" font-family="Times,serif" font-size="14.00">47</text>
</g>
<!-- idomal -->
<g id="node36" class="node">
<title>idomal</title>
<ellipse fill="none" stroke="black" cx="40.6" cy="-1261.99" rx="37.02" ry="18"/>
<text text-anchor="middle" x="40.6" y="-1256.94" font-family="Times,serif" font-size="14.00">idomal</text>
</g>
<!-- vsmo -->
<g id="node37" class="node">
<title>vsmo</title>
<ellipse fill="none" stroke="black" cx="219.58" cy="-1261.99" rx="31.39" ry="18"/>
<text text-anchor="middle" x="219.58" y="-1256.94" font-family="Times,serif" font-size="14.00">vsmo</text>
</g>
<!-- idomal&#45;&#45;vsmo -->
<g id="edge38" class="edge">
<title>idomal&#45;&#45;vsmo</title>
<path fill="none" stroke="black" d="M77.85,-1261.99C110.21,-1261.99 157.09,-1261.99 187.71,-1261.99"/>
<text text-anchor="middle" x="117.96" y="-1265.19" font-family="Times,serif" font-size="14.00">23</text>
</g>
<!-- ito -->
<g id="node38" class="node">
<title>ito</title>
<ellipse fill="none" stroke="black" cx="40.6" cy="-1315.99" rx="27" ry="18"/>
<text text-anchor="middle" x="40.6" y="-1310.94" font-family="Times,serif" font-size="14.00">ito</text>
</g>
<!-- aio -->
<g id="node39" class="node">
<title>aio</title>
<ellipse fill="none" stroke="black" cx="219.58" cy="-1315.99" rx="27" ry="18"/>
<text text-anchor="middle" x="219.58" y="-1310.94" font-family="Times,serif" font-size="14.00">aio</text>
</g>
<!-- ito&#45;&#45;aio -->
<g id="edge39" class="edge">
<title>ito&#45;&#45;aio</title>
<path fill="none" stroke="black" d="M68.1,-1315.99C101.56,-1315.99 158.79,-1315.99 192.2,-1315.99"/>
<text text-anchor="middle" x="117.96" y="-1319.19" font-family="Times,serif" font-size="14.00">40</text>
</g>
<!-- wikipathways
15&#45;&#45;reactome -->
<g id="edge42" class="edge">
<title>wikipathways
15&#45;&#45;reactome</title>
<path fill="none" stroke="black" d="M455.78,-130.97C466.19,-127.37 477.12,-123.71 487.4,-120.49 511.45,-112.97 538.74,-105.44 560.2,-99.74"/>
<text text-anchor="middle" x="497.53" y="-123.69" font-family="Times,serif" font-size="14.00">73</text>
</g>
<!-- complexportal
5,031&#45;&#45;intact
3,766 -->
<g id="edge57" class="edge">
<title>complexportal
5,031&#45;&#45;intact
3,766</title>
<path fill="none" stroke="black" d="M830.29,-247.56C855.31,-219.04 897.33,-174.3 939.87,-142.99 951.13,-134.71 964.28,-126.59 975.68,-119.99"/>
<text text-anchor="middle" x="906.49" y="-185.86" font-family="Times,serif" font-size="14.00">3,315</text>
</g>
<!-- complexportal
5,031&#45;&#45;wikidata
48,581 -->
<g id="edge59" class="edge">
<title>complexportal
5,031&#45;&#45;wikidata
48,581</title>
<path fill="none" stroke="black" d="M819.77,-246.31C839.99,-203.05 883.16,-120.5 939.87,-66.99 948.26,-59.07 958.59,-52.02 968.44,-46.21"/>
<text text-anchor="middle" x="906.49" y="-126.18" font-family="Times,serif" font-size="14.00">4,759</text>
</g>
<!-- flybase -->
<g id="node47" class="node">
<title>flybase</title>
<ellipse fill="none" stroke="black" cx="1004.22" cy="-331.99" rx="37.53" ry="18"/>
<text text-anchor="middle" x="1004.22" y="-326.94" font-family="Times,serif" font-size="14.00">flybase</text>
</g>
<!-- complexportal
5,031&#45;&#45;flybase -->
<g id="edge51" class="edge">
<title>complexportal
5,031&#45;&#45;flybase</title>
<path fill="none" stroke="black" d="M862.53,-291.1C897.75,-301.34 942.09,-314.22 971.48,-322.77"/>
<text text-anchor="middle" x="906.49" y="-310.1" font-family="Times,serif" font-size="14.00">207</text>
</g>
<!-- rhea -->
<g id="node48" class="node">
<title>rhea</title>
<ellipse fill="none" stroke="black" cx="1004.22" cy="-277.99" rx="27" ry="18"/>
<text text-anchor="middle" x="1004.22" y="-272.94" font-family="Times,serif" font-size="14.00">rhea</text>
</g>
<!-- complexportal
5,031&#45;&#45;rhea -->
<g id="edge52" class="edge">
<title>complexportal
5,031&#45;&#45;rhea</title>
<path fill="none" stroke="black" d="M873.51,-276.01C909.07,-276.55 950.84,-277.19 977.18,-277.59"/>
<text text-anchor="middle" x="906.49" y="-279.87" font-family="Times,serif" font-size="14.00">1,155</text>
</g>
<!-- pdb -->
<g id="node49" class="node">
<title>pdb</title>
<ellipse fill="none" stroke="black" cx="1004.22" cy="-223.99" rx="27" ry="18"/>
<text text-anchor="middle" x="1004.22" y="-218.94" font-family="Times,serif" font-size="14.00">pdb</text>
</g>
<!-- complexportal
5,031&#45;&#45;pdb -->
<g id="edge53" class="edge">
<title>complexportal
5,031&#45;&#45;pdb</title>
<path fill="none" stroke="black" d="M864.37,-260.1C902.24,-250.25 949.99,-237.83 978.49,-230.42"/>
<text text-anchor="middle" x="906.49" y="-255.74" font-family="Times,serif" font-size="14.00">3,438</text>
</g>
<!-- matrixdb -->
<g id="node50" class="node">
<title>matrixdb</title>
<ellipse fill="none" stroke="black" cx="1004.22" cy="-169.99" rx="44.7" ry="18"/>
<text text-anchor="middle" x="1004.22" y="-164.94" font-family="Times,serif" font-size="14.00">matrixdb</text>
</g>
<!-- complexportal
5,031&#45;&#45;matrixdb -->
<g id="edge54" class="edge">
<title>complexportal
5,031&#45;&#45;matrixdb</title>
<path fill="none" stroke="black" d="M845.01,-250.94C871.17,-234.78 907.03,-213.5 939.87,-196.99 950.02,-191.89 961.36,-186.85 971.6,-182.54"/>
<text text-anchor="middle" x="906.49" y="-226.4" font-family="Times,serif" font-size="14.00">242</text>
</g>
<!-- emdb -->
<g id="node51" class="node">
<title>emdb</title>
<ellipse fill="none" stroke="black" cx="1004.22" cy="-515.99" rx="31.9" ry="18"/>
<text text-anchor="middle" x="1004.22" y="-510.94" font-family="Times,serif" font-size="14.00">emdb</text>
</g>
<!-- complexportal
5,031&#45;&#45;emdb -->
<g id="edge55" class="edge">
<title>complexportal
5,031&#45;&#45;emdb</title>
<path fill="none" stroke="black" d="M816.47,-303.86C833.23,-350.71 873,-442.71 939.87,-488.99 950.88,-496.61 964.38,-502.73 976.09,-507.21"/>
<text text-anchor="middle" x="906.49" y="-475.36" font-family="Times,serif" font-size="14.00">1,006</text>
</g>
<!-- humap -->
<g id="node52" class="node">
<title>humap</title>
<ellipse fill="none" stroke="black" cx="1004.22" cy="-461.99" rx="36.51" ry="18"/>
<text text-anchor="middle" x="1004.22" y="-456.94" font-family="Times,serif" font-size="14.00">humap</text>
</g>
<!-- complexportal
5,031&#45;&#45;humap -->
<g id="edge56" class="edge">
<title>complexportal
5,031&#45;&#45;humap</title>
<path fill="none" stroke="black" d="M824.34,-303.08C847.03,-338.07 889.95,-397.78 939.87,-434.99 949.65,-442.28 961.69,-448.05 972.64,-452.35"/>
<text text-anchor="middle" x="906.49" y="-420.29" font-family="Times,serif" font-size="14.00">80</text>
</g>
<!-- chembl.target
689 -->
<g id="node53" class="node">
<title>chembl.target
689</title>
<ellipse fill="none" stroke="black" cx="1004.22" cy="-396.99" rx="64.35" ry="28.99"/>
<text text-anchor="middle" x="1004.22" y="-400.19" font-family="Times,serif" font-size="14.00">chembl.target</text>
<text text-anchor="middle" x="1004.22" y="-383.69" font-family="Times,serif" font-size="14.00">689</text>
</g>
<!-- complexportal
5,031&#45;&#45;chembl.target
689 -->
<g id="edge58" class="edge">
<title>complexportal
5,031&#45;&#45;chembl.target
689</title>
<path fill="none" stroke="black" d="M844.74,-299.13C871.23,-316.05 907.6,-339.1 939.87,-358.99 947.73,-363.84 956.18,-368.96 964.27,-373.83"/>
<text text-anchor="middle" x="906.49" y="-350.94" font-family="Times,serif" font-size="14.00">203</text>
</g>
<!-- pr -->
<g id="node44" class="node">
<title>pr</title>
<ellipse fill="none" stroke="black" cx="599.01" cy="-566.99" rx="27" ry="18"/>
<text text-anchor="middle" x="599.01" y="-561.94" font-family="Times,serif" font-size="14.00">pr</text>
</g>
<!-- pr&#45;&#45;complexportal
5,031 -->
<g id="edge47" class="edge">
<title>pr&#45;&#45;complexportal
5,031</title>
<path fill="none" stroke="black" d="M625.57,-562.36C640.66,-558.52 659.3,-551.73 672.37,-539.99 745.88,-473.98 783.8,-357.92 798.16,-304.02"/>
<text text-anchor="middle" x="705.75" y="-520.49" font-family="Times,serif" font-size="14.00">26</text>
</g>
<!-- uniprot.chain -->
<g id="node45" class="node">
<title>uniprot.chain</title>
<ellipse fill="none" stroke="black" cx="806.12" cy="-567.99" rx="60.05" ry="18"/>
<text text-anchor="middle" x="806.12" y="-562.94" font-family="Times,serif" font-size="14.00">uniprot.chain</text>
</g>
<!-- pr&#45;&#45;uniprot.chain -->
<g id="edge46" class="edge">
<title>pr&#45;&#45;uniprot.chain</title>
<path fill="none" stroke="black" d="M626.41,-567.12C656.38,-567.27 706.23,-567.51 745.68,-567.7"/>
<text text-anchor="middle" x="705.75" y="-570.78" font-family="Times,serif" font-size="14.00">80</text>
</g>
<!-- ncbiprotein -->
<g id="node46" class="node">
<title>ncbiprotein</title>
<ellipse fill="none" stroke="black" cx="1004.22" cy="-569.99" rx="52.89" ry="18"/>
<text text-anchor="middle" x="1004.22" y="-564.94" font-family="Times,serif" font-size="14.00">ncbiprotein</text>
</g>
<!-- uniprot.chain&#45;&#45;ncbiprotein -->
<g id="edge48" class="edge">
<title>uniprot.chain&#45;&#45;ncbiprotein</title>
<path fill="none" stroke="black" d="M866.49,-568.6C893.43,-568.87 925.01,-569.19 951.03,-569.46"/>
<text text-anchor="middle" x="906.49" y="-572.31" font-family="Times,serif" font-size="14.00">26</text>
</g>
</g>
</svg>
