<?xml version="1.0" encoding="UTF-8" standalone="no"?>
<!DOCTYPE svg PUBLIC "-//W3C//DTD SVG 1.1//EN"
 "http://www.w3.org/Graphics/SVG/1.1/DTD/svg11.dtd">
<!-- Generated by graphviz version 10.0.1 (20240210.2158)
 -->
<!-- Pages: 1 -->
<svg width="763pt" height="484pt"
 viewBox="0.00 0.00 763.21 483.50" xmlns="http://www.w3.org/2000/svg" xmlns:xlink="http://www.w3.org/1999/xlink">
<g id="graph0" class="graph" transform="scale(1 1) rotate(0) translate(4 479.5)">
<polygon fill="white" stroke="none" points="-4,4 -4,-479.5 759.21,-479.5 759.21,4 -4,4"/>
<!-- bto -->
<g id="node1" class="node">
<title>bto</title>
<ellipse fill="none" stroke="black" cx="27" cy="-216" rx="27" ry="18"/>
<text text-anchor="middle" x="27" y="-210.95" font-family="Times,serif" font-size="14.00">bto</text>
</g>
<!-- bto&#45;&#45;bto -->
<g id="edge1" class="edge">
<title>bto&#45;&#45;bto</title>
<path fill="none" stroke="black" stroke-width="1.13" d="M17.23,-233.04C15.24,-242.86 18.49,-252 27,-252 35.51,-252 38.76,-242.86 36.77,-233.04"/>
<text text-anchor="middle" x="27" y="-255.2" font-family="Times,serif" font-size="14.00">6,511</text>
</g>
<!-- cl -->
<g id="node2" class="node">
<title>cl</title>
<ellipse fill="none" stroke="black" cx="209.25" cy="-391" rx="27" ry="18"/>
<text text-anchor="middle" x="209.25" y="-385.95" font-family="Times,serif" font-size="14.00">cl</text>
</g>
<!-- bto&#45;&#45;cl -->
<g id="edge2" class="edge">
<title>bto&#45;&#45;cl</title>
<path fill="none" stroke="black" stroke-width="1.01" d="M27.7,-234.24C28.24,-265.87 34.22,-330.77 72,-365 102.16,-392.32 151.88,-394.9 182.19,-393.5"/>
<text text-anchor="middle" x="82.12" y="-382.2" font-family="Times,serif" font-size="14.00">329</text>
</g>
<!-- ccle -->
<g id="node3" class="node">
<title>ccle</title>
<ellipse fill="none" stroke="black" cx="137.25" cy="-216" rx="27" ry="18"/>
<text text-anchor="middle" x="137.25" y="-210.95" font-family="Times,serif" font-size="14.00">ccle</text>
</g>
<!-- bto&#45;&#45;ccle -->
<g id="edge3" class="edge">
<title>bto&#45;&#45;ccle</title>
<path fill="none" stroke="black" stroke-width="1.01" d="M54.48,-216C71.38,-216 93.2,-216 110.04,-216"/>
<text text-anchor="middle" x="82.12" y="-219.2" font-family="Times,serif" font-size="14.00">644</text>
</g>
<!-- cellosaurus -->
<g id="node4" class="node">
<title>cellosaurus</title>
<ellipse fill="none" stroke="black" cx="306.63" cy="-145" rx="52.38" ry="18"/>
<text text-anchor="middle" x="306.63" y="-139.95" font-family="Times,serif" font-size="14.00">cellosaurus</text>
</g>
<!-- bto&#45;&#45;cellosaurus -->
<g id="edge4" class="edge">
<title>bto&#45;&#45;cellosaurus</title>
<path fill="none" stroke="black" stroke-width="1.05" d="M47.09,-203.44C63.25,-193.43 87.35,-179.91 110.25,-172.5 157.67,-157.15 214.3,-150.36 254.35,-147.37"/>
<text text-anchor="middle" x="137.25" y="-176.2" font-family="Times,serif" font-size="14.00">2,423</text>
</g>
<!-- efo -->
<g id="node5" class="node">
<title>efo</title>
<ellipse fill="none" stroke="black" cx="452.75" cy="-279" rx="27" ry="18"/>
<text text-anchor="middle" x="452.75" y="-273.95" font-family="Times,serif" font-size="14.00">efo</text>
</g>
<!-- bto&#45;&#45;efo -->
<g id="edge5" class="edge">
<title>bto&#45;&#45;efo</title>
<path fill="none" stroke="black" stroke-width="1.01" d="M42.87,-230.87C58.29,-245.3 83.81,-266.51 110.25,-277 213.25,-317.88 248.24,-297.4 359,-294 380.7,-293.33 386.33,-294.54 407.75,-291 414.31,-289.92 421.3,-288.25 427.74,-286.5"/>
<text text-anchor="middle" x="209.25" y="-306.2" font-family="Times,serif" font-size="14.00">698</text>
</g>
<!-- depmap -->
<g id="node6" class="node">
<title>depmap</title>
<ellipse fill="none" stroke="black" cx="593.85" cy="-84" rx="40.6" ry="18"/>
<text text-anchor="middle" x="593.85" y="-78.95" font-family="Times,serif" font-size="14.00">depmap</text>
</g>
<!-- bto&#45;&#45;depmap -->
<g id="edge6" class="edge">
<title>bto&#45;&#45;depmap</title>
<path fill="none" stroke="black" stroke-width="1.01" d="M30.75,-197.81C38.51,-153.95 64.87,-46 136.25,-46 136.25,-46 136.25,-46 453.75,-46 493.05,-46 536.47,-60.29 564.17,-71.35"/>
<text text-anchor="middle" x="306.63" y="-49.2" font-family="Times,serif" font-size="14.00">672</text>
</g>
<!-- mesh -->
<g id="node7" class="node">
<title>mesh</title>
<ellipse fill="none" stroke="black" cx="593.85" cy="-368" rx="30.88" ry="18"/>
<text text-anchor="middle" x="593.85" y="-362.95" font-family="Times,serif" font-size="14.00">mesh</text>
</g>
<!-- bto&#45;&#45;mesh -->
<g id="edge7" class="edge">
<title>bto&#45;&#45;mesh</title>
<path fill="none" stroke="black" d="M27.81,-234.26C28.26,-290.78 37.88,-459 136.25,-459 136.25,-459 136.25,-459 453.75,-459 507.72,-459 557.06,-410.44 579.75,-384.27"/>
<text text-anchor="middle" x="306.63" y="-462.2" font-family="Times,serif" font-size="14.00">70</text>
</g>
<!-- clo -->
<g id="node8" class="node">
<title>clo</title>
<ellipse fill="none" stroke="black" cx="728.21" cy="-201" rx="27" ry="18"/>
<text text-anchor="middle" x="728.21" y="-195.95" font-family="Times,serif" font-size="14.00">clo</text>
</g>
<!-- bto&#45;&#45;clo -->
<g id="edge8" class="edge">
<title>bto&#45;&#45;clo</title>
<path fill="none" stroke="black" stroke-width="1.03" d="M28.7,-197.58C31.75,-145.35 48.16,0 136.25,0 136.25,0 136.25,0 594.85,0 681.97,0 714.98,-133.33 724.23,-182.81"/>
<text text-anchor="middle" x="392.38" y="-3.2" font-family="Times,serif" font-size="14.00">1,440</text>
</g>
<!-- cl&#45;&#45;cl -->
<g id="edge9" class="edge">
<title>cl&#45;&#45;cl</title>
<path fill="none" stroke="black" stroke-width="1.06" d="M196.7,-407.29C193.68,-417.39 197.86,-427 209.25,-427 220.64,-427 224.82,-417.39 221.8,-407.29"/>
<text text-anchor="middle" x="209.25" y="-430.2" font-family="Times,serif" font-size="14.00">2,739</text>
</g>
<!-- cl&#45;&#45;mesh -->
<g id="edge10" class="edge">
<title>cl&#45;&#45;mesh</title>
<path fill="none" stroke="black" d="M236.54,-392.39C292.04,-394.87 425.14,-398.48 535.25,-383 545.48,-381.56 556.51,-378.96 566.15,-376.32"/>
<text text-anchor="middle" x="392.38" y="-398.2" font-family="Times,serif" font-size="14.00">86</text>
</g>
<!-- ccle&#45;&#45;ccle -->
<g id="edge11" class="edge">
<title>ccle&#45;&#45;ccle</title>
<path fill="none" stroke="black" stroke-width="1.02" d="M127.48,-233.04C125.49,-242.86 128.74,-252 137.25,-252 145.76,-252 149.01,-242.86 147.02,-233.04"/>
<text text-anchor="middle" x="137.25" y="-255.2" font-family="Times,serif" font-size="14.00">1,061</text>
</g>
<!-- ccle&#45;&#45;cellosaurus -->
<g id="edge12" class="edge">
<title>ccle&#45;&#45;cellosaurus</title>
<path fill="none" stroke="black" stroke-width="1.03" d="M159.64,-205.79C166.8,-202.43 174.84,-198.74 182.25,-195.5 212.04,-182.47 246.3,-168.53 271.14,-158.61"/>
<text text-anchor="middle" x="209.25" y="-199.2" font-family="Times,serif" font-size="14.00">1,656</text>
</g>
<!-- ccle&#45;&#45;efo -->
<g id="edge13" class="edge">
<title>ccle&#45;&#45;efo</title>
<path fill="none" stroke="black" stroke-width="1.01" d="M157.28,-228.31C164.79,-232.64 173.66,-237.14 182.25,-240 268.14,-268.61 376.34,-276.24 425.4,-278.27"/>
<text text-anchor="middle" x="306.63" y="-277.2" font-family="Times,serif" font-size="14.00">648</text>
</g>
<!-- ccle&#45;&#45;depmap -->
<g id="edge14" class="edge">
<title>ccle&#45;&#45;depmap</title>
<path fill="none" stroke="black" stroke-width="1.03" d="M154.95,-202.13C158.15,-199.23 161.39,-196.1 164.25,-193 173.29,-183.2 172.69,-178.3 182.25,-169 210.35,-141.65 217.53,-131.77 254.25,-118 356.86,-79.51 488.55,-78.95 553.3,-81.56"/>
<text text-anchor="middle" x="392.38" y="-92.2" font-family="Times,serif" font-size="14.00">1,536</text>
</g>
<!-- ccle&#45;&#45;clo -->
<g id="edge15" class="edge">
<title>ccle&#45;&#45;clo</title>
<path fill="none" stroke="black" stroke-width="1.03" d="M164.29,-217.8C227.77,-221.9 395.54,-230.98 535.25,-223 595.03,-219.59 664.77,-210.24 701.52,-204.89"/>
<text text-anchor="middle" x="452.75" y="-230.2" font-family="Times,serif" font-size="14.00">1,417</text>
</g>
<!-- cellosaurus&#45;&#45;cellosaurus -->
<g id="edge16" class="edge">
<title>cellosaurus&#45;&#45;cellosaurus</title>
<path fill="none" stroke="black" stroke-width="4" d="M291.32,-162.41C288.46,-172.09 293.56,-181 306.63,-181 319.69,-181 324.79,-172.09 321.93,-162.41"/>
<text text-anchor="middle" x="306.63" y="-184.2" font-family="Times,serif" font-size="14.00">148,681</text>
</g>
<!-- cellosaurus&#45;&#45;efo -->
<g id="edge17" class="edge">
<title>cellosaurus&#45;&#45;efo</title>
<path fill="none" stroke="black" stroke-width="1.03" d="M325.88,-161.97C354.51,-188.59 409.47,-239.69 436.28,-264.62"/>
<text text-anchor="middle" x="392.38" y="-239.2" font-family="Times,serif" font-size="14.00">1,406</text>
</g>
<!-- cellosaurus&#45;&#45;depmap -->
<g id="edge18" class="edge">
<title>cellosaurus&#45;&#45;depmap</title>
<path fill="none" stroke="black" stroke-width="1.04" d="M352.64,-136.19C398.63,-127.07 472.06,-112.2 535.25,-98 542.58,-96.35 550.41,-94.51 557.87,-92.71"/>
<text text-anchor="middle" x="452.75" y="-124.2" font-family="Times,serif" font-size="14.00">1,913</text>
</g>
<!-- cellosaurus&#45;&#45;mesh -->
<g id="edge19" class="edge">
<title>cellosaurus&#45;&#45;mesh</title>
<path fill="none" stroke="black" d="M316.13,-163.06C337.17,-206.97 392.34,-317.33 425.75,-340 467.13,-368.07 527.24,-371.21 562.96,-370.15"/>
<text text-anchor="middle" x="452.75" y="-366.2" font-family="Times,serif" font-size="14.00">38</text>
</g>
<!-- cellosaurus&#45;&#45;clo -->
<g id="edge20" class="edge">
<title>cellosaurus&#45;&#45;clo</title>
<path fill="none" stroke="black" stroke-width="1.69" d="M358.89,-147.16C405.15,-149.54 474.98,-154.17 535.25,-162.5 595.69,-170.85 665.74,-186.42 702.22,-194.98"/>
<text text-anchor="middle" x="516.5" y="-166.2" font-family="Times,serif" font-size="14.00">34,150</text>
</g>
<!-- efo&#45;&#45;efo -->
<g id="edge21" class="edge">
<title>efo&#45;&#45;efo</title>
<path fill="none" stroke="black" d="M442.05,-296.04C439.87,-305.86 443.43,-315 452.75,-315 462.07,-315 465.63,-305.86 463.45,-296.04"/>
<text text-anchor="middle" x="452.75" y="-318.2" font-family="Times,serif" font-size="14.00">89</text>
</g>
<!-- efo&#45;&#45;depmap -->
<g id="edge22" class="edge">
<title>efo&#45;&#45;depmap</title>
<path fill="none" stroke="black" stroke-width="1.02" d="M468.2,-263.73C485.23,-245.34 513.92,-213.17 535.25,-183 554.42,-155.88 573.09,-122.02 583.76,-101.75"/>
<text text-anchor="middle" x="516.5" y="-233.2" font-family="Times,serif" font-size="14.00">769</text>
</g>
<!-- efo&#45;&#45;mesh -->
<g id="edge23" class="edge">
<title>efo&#45;&#45;mesh</title>
<path fill="none" stroke="black" d="M473.09,-291.38C499.22,-308.09 545.59,-337.76 572.32,-354.86"/>
<text text-anchor="middle" x="516.5" y="-332.2" font-family="Times,serif" font-size="14.00">24</text>
</g>
<!-- efo&#45;&#45;clo -->
<g id="edge24" class="edge">
<title>efo&#45;&#45;clo</title>
<path fill="none" stroke="black" stroke-width="1.02" d="M479.95,-281.6C524.5,-284.8 616.65,-286.1 683.21,-251 697.53,-243.45 709.34,-229.2 717.11,-217.84"/>
<text text-anchor="middle" x="593.85" y="-286.2" font-family="Times,serif" font-size="14.00">1,185</text>
</g>
<!-- depmap&#45;&#45;depmap -->
<g id="edge25" class="edge">
<title>depmap&#45;&#45;depmap</title>
<path fill="none" stroke="black" stroke-width="1.03" d="M580.65,-101.41C578.18,-111.09 582.58,-120 593.85,-120 605.12,-120 609.53,-111.09 607.06,-101.41"/>
<text text-anchor="middle" x="593.85" y="-123.2" font-family="Times,serif" font-size="14.00">1,719</text>
</g>
<!-- depmap&#45;&#45;clo -->
<g id="edge26" class="edge">
<title>depmap&#45;&#45;clo</title>
<path fill="none" stroke="black" stroke-width="1.03" d="M624.15,-96.45C642.53,-105.24 665.93,-118.31 683.21,-134.5 698.46,-148.79 711.03,-169.36 718.77,-183.83"/>
<text text-anchor="middle" x="667.83" y="-138.2" font-family="Times,serif" font-size="14.00">1,473</text>
</g>
<!-- mesh&#45;&#45;mesh -->
<g id="edge27" class="edge">
<title>mesh&#45;&#45;mesh</title>
<path fill="none" stroke="black" stroke-width="1.01" d="M580.85,-384.66C577.96,-394.62 582.29,-404 593.85,-404 605.41,-404 609.75,-394.62 606.86,-384.66"/>
<text text-anchor="middle" x="593.85" y="-407.2" font-family="Times,serif" font-size="14.00">635</text>
</g>
<!-- mesh&#45;&#45;clo -->
<g id="edge28" class="edge">
<title>mesh&#45;&#45;clo</title>
<path fill="none" stroke="black" d="M616.13,-355.05C635.66,-342.28 664.34,-321.22 683.21,-297 702.02,-272.85 715.01,-239.35 721.77,-218.98"/>
<text text-anchor="middle" x="667.83" y="-331.2" font-family="Times,serif" font-size="14.00">47</text>
</g>
<!-- clo&#45;&#45;clo -->
<g id="edge29" class="edge">
<title>clo&#45;&#45;clo</title>
<path fill="none" stroke="black" stroke-width="1.79" d="M717.51,-218.04C715.33,-227.86 718.89,-237 728.21,-237 737.52,-237 741.09,-227.86 738.91,-218.04"/>
<text text-anchor="middle" x="728.21" y="-240.2" font-family="Times,serif" font-size="14.00">39,080</text>
</g>
</g>
</svg>
